G04 #@! TF.GenerationSoftware,KiCad,Pcbnew,5.1.7-a382d34a8~87~ubuntu18.04.1*
G04 #@! TF.CreationDate,2021-01-18T13:43:01-05:00*
G04 #@! TF.ProjectId,SD1,5344312e-6b69-4636-9164-5f7063625858,0*
G04 #@! TF.SameCoordinates,Original*
G04 #@! TF.FileFunction,Soldermask,Bot*
G04 #@! TF.FilePolarity,Negative*
%FSLAX46Y46*%
G04 Gerber Fmt 4.6, Leading zero omitted, Abs format (unit mm)*
G04 Created by KiCad (PCBNEW 5.1.7-a382d34a8~87~ubuntu18.04.1) date 2021-01-18 13:43:01*
%MOMM*%
%LPD*%
G01*
G04 APERTURE LIST*
%ADD10C,2.901600*%
%ADD11O,1.801600X1.801600*%
%ADD12C,1.701600*%
%ADD13C,4.021600*%
%ADD14C,1.901600*%
%ADD15O,0.991600X1.651600*%
%ADD16O,1.351600X1.051600*%
%ADD17C,3.101600*%
%ADD18C,3.301600*%
%ADD19C,2.101600*%
%ADD20C,1.151600*%
%ADD21C,0.851600*%
%ADD22C,0.100000*%
%ADD23C,1.401600*%
%ADD24C,2.701600*%
%ADD25C,1.101600*%
%ADD26O,1.851600X1.301600*%
%ADD27C,4.301600*%
%ADD28C,1.801600*%
G04 APERTURE END LIST*
D10*
G04 #@! TO.C,U101*
X140500000Y-36130000D03*
X140500000Y-92130000D03*
D11*
X215460000Y-50160000D03*
X218000000Y-52700000D03*
X215460000Y-52700000D03*
X218000000Y-55240000D03*
X215460000Y-40000000D03*
X215460000Y-42540000D03*
X218000000Y-47620000D03*
X218000000Y-42540000D03*
X218000000Y-50160000D03*
G36*
G01*
X217099200Y-40850000D02*
X217099200Y-39150000D01*
G75*
G02*
X217150000Y-39099200I50800J0D01*
G01*
X218850000Y-39099200D01*
G75*
G02*
X218900800Y-39150000I0J-50800D01*
G01*
X218900800Y-40850000D01*
G75*
G02*
X218850000Y-40900800I-50800J0D01*
G01*
X217150000Y-40900800D01*
G75*
G02*
X217099200Y-40850000I0J50800D01*
G01*
G37*
X215460000Y-47620000D03*
X218000000Y-45080000D03*
X215460000Y-45080000D03*
X215460000Y-55240000D03*
X218000000Y-57780000D03*
X215460000Y-57780000D03*
X218000000Y-60320000D03*
X215460000Y-60320000D03*
X218000000Y-62860000D03*
X215460000Y-62860000D03*
X218000000Y-65400000D03*
X215460000Y-65400000D03*
X218000000Y-67940000D03*
X215460000Y-67940000D03*
X218000000Y-70480000D03*
X215460000Y-70480000D03*
X218000000Y-73020000D03*
X215460000Y-73020000D03*
X218000000Y-75560000D03*
X215460000Y-75560000D03*
X218000000Y-78100000D03*
X215460000Y-78100000D03*
X218000000Y-80640000D03*
X215460000Y-80640000D03*
X218000000Y-83180000D03*
X215460000Y-83180000D03*
X218000000Y-85720000D03*
X215460000Y-85720000D03*
X218000000Y-88260000D03*
X215460000Y-88260000D03*
G04 #@! TD*
G04 #@! TO.C,R323*
G36*
G01*
X147425800Y-37399600D02*
X147425800Y-38000400D01*
G75*
G02*
X147200400Y-38225800I-225400J0D01*
G01*
X146749600Y-38225800D01*
G75*
G02*
X146524200Y-38000400I0J225400D01*
G01*
X146524200Y-37399600D01*
G75*
G02*
X146749600Y-37174200I225400J0D01*
G01*
X147200400Y-37174200D01*
G75*
G02*
X147425800Y-37399600I0J-225400D01*
G01*
G37*
G36*
G01*
X149075800Y-37399600D02*
X149075800Y-38000400D01*
G75*
G02*
X148850400Y-38225800I-225400J0D01*
G01*
X148399600Y-38225800D01*
G75*
G02*
X148174200Y-38000400I0J225400D01*
G01*
X148174200Y-37399600D01*
G75*
G02*
X148399600Y-37174200I225400J0D01*
G01*
X148850400Y-37174200D01*
G75*
G02*
X149075800Y-37399600I0J-225400D01*
G01*
G37*
G04 #@! TD*
G04 #@! TO.C,U601*
G36*
G01*
X126549200Y-93315000D02*
X126549200Y-91715000D01*
G75*
G02*
X126600000Y-91664200I50800J0D01*
G01*
X128200000Y-91664200D01*
G75*
G02*
X128250800Y-91715000I0J-50800D01*
G01*
X128250800Y-93315000D01*
G75*
G02*
X128200000Y-93365800I-50800J0D01*
G01*
X126600000Y-93365800D01*
G75*
G02*
X126549200Y-93315000I0J50800D01*
G01*
G37*
D12*
X125400000Y-92515000D03*
X127400000Y-74725000D03*
G36*
G01*
X124549200Y-75535000D02*
X124549200Y-73935000D01*
G75*
G02*
X124600000Y-73884200I50800J0D01*
G01*
X126200000Y-73884200D01*
G75*
G02*
X126250800Y-73935000I0J-50800D01*
G01*
X126250800Y-75535000D01*
G75*
G02*
X126200000Y-75585800I-50800J0D01*
G01*
X124600000Y-75585800D01*
G75*
G02*
X124549200Y-75535000I0J50800D01*
G01*
G37*
X117510000Y-82625000D03*
G36*
G01*
X116659200Y-85425000D02*
X116659200Y-83825000D01*
G75*
G02*
X116710000Y-83774200I50800J0D01*
G01*
X118310000Y-83774200D01*
G75*
G02*
X118360800Y-83825000I0J-50800D01*
G01*
X118360800Y-85425000D01*
G75*
G02*
X118310000Y-85475800I-50800J0D01*
G01*
X116710000Y-85475800D01*
G75*
G02*
X116659200Y-85425000I0J50800D01*
G01*
G37*
G04 #@! TD*
G04 #@! TO.C,JP802*
G36*
G01*
X206294400Y-37571600D02*
X204794400Y-37571600D01*
G75*
G02*
X204743600Y-37520800I0J50800D01*
G01*
X204743600Y-36520800D01*
G75*
G02*
X204794400Y-36470000I50800J0D01*
G01*
X206294400Y-36470000D01*
G75*
G02*
X206345200Y-36520800I0J-50800D01*
G01*
X206345200Y-37520800D01*
G75*
G02*
X206294400Y-37571600I-50800J0D01*
G01*
G37*
G36*
G01*
X206294400Y-34971600D02*
X204794400Y-34971600D01*
G75*
G02*
X204743600Y-34920800I0J50800D01*
G01*
X204743600Y-33920800D01*
G75*
G02*
X204794400Y-33870000I50800J0D01*
G01*
X206294400Y-33870000D01*
G75*
G02*
X206345200Y-33920800I0J-50800D01*
G01*
X206345200Y-34920800D01*
G75*
G02*
X206294400Y-34971600I-50800J0D01*
G01*
G37*
G36*
G01*
X206294400Y-36271600D02*
X204794400Y-36271600D01*
G75*
G02*
X204743600Y-36220800I0J50800D01*
G01*
X204743600Y-35220800D01*
G75*
G02*
X204794400Y-35170000I50800J0D01*
G01*
X206294400Y-35170000D01*
G75*
G02*
X206345200Y-35220800I0J-50800D01*
G01*
X206345200Y-36220800D01*
G75*
G02*
X206294400Y-36271600I-50800J0D01*
G01*
G37*
G04 #@! TD*
D13*
G04 #@! TO.C,U703*
X143222256Y-110046121D03*
X163021246Y-90247131D03*
G04 #@! TD*
G04 #@! TO.C,D701*
G36*
G01*
X140872850Y-105569706D02*
X139134184Y-106035580D01*
G75*
G02*
X139071967Y-105999659I-13148J49069D01*
G01*
X138606093Y-104260993D01*
G75*
G02*
X138642014Y-104198776I49069J13148D01*
G01*
X140380680Y-103732902D01*
G75*
G02*
X140442897Y-103768823I13148J-49069D01*
G01*
X140908771Y-105507489D01*
G75*
G02*
X140872850Y-105569706I-49069J-13148D01*
G01*
G37*
D14*
X139100032Y-102430789D03*
G04 #@! TD*
G04 #@! TO.C,R312*
G36*
G01*
X158271700Y-45025067D02*
X158271700Y-42814933D01*
G75*
G02*
X158542433Y-42544200I270733J0D01*
G01*
X159327567Y-42544200D01*
G75*
G02*
X159598300Y-42814933I0J-270733D01*
G01*
X159598300Y-45025067D01*
G75*
G02*
X159327567Y-45295800I-270733J0D01*
G01*
X158542433Y-45295800D01*
G75*
G02*
X158271700Y-45025067I0J270733D01*
G01*
G37*
G36*
G01*
X162896700Y-45025067D02*
X162896700Y-42814933D01*
G75*
G02*
X163167433Y-42544200I270733J0D01*
G01*
X163952567Y-42544200D01*
G75*
G02*
X164223300Y-42814933I0J-270733D01*
G01*
X164223300Y-45025067D01*
G75*
G02*
X163952567Y-45295800I-270733J0D01*
G01*
X163167433Y-45295800D01*
G75*
G02*
X162896700Y-45025067I0J270733D01*
G01*
G37*
G04 #@! TD*
D15*
G04 #@! TO.C,J403*
X198700000Y-7880000D03*
X205700000Y-7880000D03*
D16*
X199700000Y-10580000D03*
X204700000Y-10580000D03*
G04 #@! TD*
D17*
G04 #@! TO.C,J201*
X153260000Y-19680000D03*
X168760000Y-19680000D03*
D18*
X155290000Y-16630000D03*
X166720000Y-16630000D03*
D19*
X154380000Y-12570000D03*
X156920000Y-12570000D03*
X165100000Y-12570000D03*
D14*
X155290000Y-22980000D03*
X156560000Y-25520000D03*
X159100000Y-25520000D03*
X160370000Y-22980000D03*
X161640000Y-25520000D03*
X162910000Y-22980000D03*
X164180000Y-25520000D03*
X165450000Y-22980000D03*
D19*
X167640000Y-12570000D03*
G36*
G01*
X167670800Y-24620000D02*
X167670800Y-26420000D01*
G75*
G02*
X167620000Y-26470800I-50800J0D01*
G01*
X165820000Y-26470800D01*
G75*
G02*
X165769200Y-26420000I0J50800D01*
G01*
X165769200Y-24620000D01*
G75*
G02*
X165820000Y-24569200I50800J0D01*
G01*
X167620000Y-24569200D01*
G75*
G02*
X167670800Y-24620000I0J-50800D01*
G01*
G37*
G04 #@! TD*
D20*
G04 #@! TO.C,SW101*
X121856497Y-63406497D03*
D21*
X124543503Y-66093503D03*
G04 #@! TD*
G04 #@! TO.C,R109*
G36*
G01*
X169481650Y-62871584D02*
X168918350Y-62871584D01*
G75*
G02*
X168674200Y-62627434I0J244150D01*
G01*
X168674200Y-62139134D01*
G75*
G02*
X168918350Y-61894984I244150J0D01*
G01*
X169481650Y-61894984D01*
G75*
G02*
X169725800Y-62139134I0J-244150D01*
G01*
X169725800Y-62627434D01*
G75*
G02*
X169481650Y-62871584I-244150J0D01*
G01*
G37*
G36*
G01*
X169481650Y-64446584D02*
X168918350Y-64446584D01*
G75*
G02*
X168674200Y-64202434I0J244150D01*
G01*
X168674200Y-63714134D01*
G75*
G02*
X168918350Y-63469984I244150J0D01*
G01*
X169481650Y-63469984D01*
G75*
G02*
X169725800Y-63714134I0J-244150D01*
G01*
X169725800Y-64202434D01*
G75*
G02*
X169481650Y-64446584I-244150J0D01*
G01*
G37*
G04 #@! TD*
D19*
G04 #@! TO.C,LS101*
X166800000Y-65800000D03*
G36*
G01*
X165800000Y-59749200D02*
X167800000Y-59749200D01*
G75*
G02*
X167850800Y-59800000I0J-50800D01*
G01*
X167850800Y-61800000D01*
G75*
G02*
X167800000Y-61850800I-50800J0D01*
G01*
X165800000Y-61850800D01*
G75*
G02*
X165749200Y-61800000I0J50800D01*
G01*
X165749200Y-59800000D01*
G75*
G02*
X165800000Y-59749200I50800J0D01*
G01*
G37*
G04 #@! TD*
D22*
G04 #@! TO.C,JP102*
G36*
X213200198Y-79856113D02*
G01*
X213200198Y-79874534D01*
X213199953Y-79879514D01*
X213195143Y-79928345D01*
X213194412Y-79933275D01*
X213184840Y-79981400D01*
X213183628Y-79986237D01*
X213169384Y-80033192D01*
X213167705Y-80037885D01*
X213148928Y-80083218D01*
X213146796Y-80087726D01*
X213123665Y-80130999D01*
X213121103Y-80135273D01*
X213093843Y-80176072D01*
X213090873Y-80180077D01*
X213059745Y-80218006D01*
X213056397Y-80221700D01*
X213021700Y-80256397D01*
X213018006Y-80259745D01*
X212980077Y-80290873D01*
X212976072Y-80293843D01*
X212935273Y-80321103D01*
X212930999Y-80323665D01*
X212887726Y-80346796D01*
X212883218Y-80348928D01*
X212837885Y-80367705D01*
X212833192Y-80369384D01*
X212786237Y-80383628D01*
X212781400Y-80384840D01*
X212733275Y-80394412D01*
X212728345Y-80395143D01*
X212679514Y-80399953D01*
X212674534Y-80400198D01*
X212656113Y-80400198D01*
X212650000Y-80400800D01*
X212150000Y-80400800D01*
X212143887Y-80400198D01*
X212125466Y-80400198D01*
X212120486Y-80399953D01*
X212071655Y-80395143D01*
X212066725Y-80394412D01*
X212018600Y-80384840D01*
X212013763Y-80383628D01*
X211966808Y-80369384D01*
X211962115Y-80367705D01*
X211916782Y-80348928D01*
X211912274Y-80346796D01*
X211869001Y-80323665D01*
X211864727Y-80321103D01*
X211823928Y-80293843D01*
X211819923Y-80290873D01*
X211781994Y-80259745D01*
X211778300Y-80256397D01*
X211743603Y-80221700D01*
X211740255Y-80218006D01*
X211709127Y-80180077D01*
X211706157Y-80176072D01*
X211678897Y-80135273D01*
X211676335Y-80130999D01*
X211653204Y-80087726D01*
X211651072Y-80083218D01*
X211632295Y-80037885D01*
X211630616Y-80033192D01*
X211616372Y-79986237D01*
X211615160Y-79981400D01*
X211605588Y-79933275D01*
X211604857Y-79928345D01*
X211600047Y-79879514D01*
X211599802Y-79874534D01*
X211599802Y-79856113D01*
X211599200Y-79850000D01*
X211599200Y-79350000D01*
X211600176Y-79340089D01*
X211603067Y-79330560D01*
X211607761Y-79321777D01*
X211614079Y-79314079D01*
X211621777Y-79307761D01*
X211630560Y-79303067D01*
X211640089Y-79300176D01*
X211650000Y-79299200D01*
X213150000Y-79299200D01*
X213159911Y-79300176D01*
X213169440Y-79303067D01*
X213178223Y-79307761D01*
X213185921Y-79314079D01*
X213192239Y-79321777D01*
X213196933Y-79330560D01*
X213199824Y-79340089D01*
X213200800Y-79350000D01*
X213200800Y-79850000D01*
X213200198Y-79856113D01*
G37*
G36*
X213199824Y-79059911D02*
G01*
X213196933Y-79069440D01*
X213192239Y-79078223D01*
X213185921Y-79085921D01*
X213178223Y-79092239D01*
X213169440Y-79096933D01*
X213159911Y-79099824D01*
X213150000Y-79100800D01*
X211650000Y-79100800D01*
X211640089Y-79099824D01*
X211630560Y-79096933D01*
X211621777Y-79092239D01*
X211614079Y-79085921D01*
X211607761Y-79078223D01*
X211603067Y-79069440D01*
X211600176Y-79059911D01*
X211599200Y-79050000D01*
X211599200Y-78550000D01*
X211599802Y-78543887D01*
X211599802Y-78525466D01*
X211600047Y-78520486D01*
X211604857Y-78471655D01*
X211605588Y-78466725D01*
X211615160Y-78418600D01*
X211616372Y-78413763D01*
X211630616Y-78366808D01*
X211632295Y-78362115D01*
X211651072Y-78316782D01*
X211653204Y-78312274D01*
X211676335Y-78269001D01*
X211678897Y-78264727D01*
X211706157Y-78223928D01*
X211709127Y-78219923D01*
X211740255Y-78181994D01*
X211743603Y-78178300D01*
X211778300Y-78143603D01*
X211781994Y-78140255D01*
X211819923Y-78109127D01*
X211823928Y-78106157D01*
X211864727Y-78078897D01*
X211869001Y-78076335D01*
X211912274Y-78053204D01*
X211916782Y-78051072D01*
X211962115Y-78032295D01*
X211966808Y-78030616D01*
X212013763Y-78016372D01*
X212018600Y-78015160D01*
X212066725Y-78005588D01*
X212071655Y-78004857D01*
X212120486Y-78000047D01*
X212125466Y-77999802D01*
X212143887Y-77999802D01*
X212150000Y-77999200D01*
X212650000Y-77999200D01*
X212656113Y-77999802D01*
X212674534Y-77999802D01*
X212679514Y-78000047D01*
X212728345Y-78004857D01*
X212733275Y-78005588D01*
X212781400Y-78015160D01*
X212786237Y-78016372D01*
X212833192Y-78030616D01*
X212837885Y-78032295D01*
X212883218Y-78051072D01*
X212887726Y-78053204D01*
X212930999Y-78076335D01*
X212935273Y-78078897D01*
X212976072Y-78106157D01*
X212980077Y-78109127D01*
X213018006Y-78140255D01*
X213021700Y-78143603D01*
X213056397Y-78178300D01*
X213059745Y-78181994D01*
X213090873Y-78219923D01*
X213093843Y-78223928D01*
X213121103Y-78264727D01*
X213123665Y-78269001D01*
X213146796Y-78312274D01*
X213148928Y-78316782D01*
X213167705Y-78362115D01*
X213169384Y-78366808D01*
X213183628Y-78413763D01*
X213184840Y-78418600D01*
X213194412Y-78466725D01*
X213195143Y-78471655D01*
X213199953Y-78520486D01*
X213200198Y-78525466D01*
X213200198Y-78543887D01*
X213200800Y-78550000D01*
X213200800Y-79050000D01*
X213199824Y-79059911D01*
G37*
G04 #@! TD*
G04 #@! TO.C,JP101*
G36*
X210600198Y-79856113D02*
G01*
X210600198Y-79874534D01*
X210599953Y-79879514D01*
X210595143Y-79928345D01*
X210594412Y-79933275D01*
X210584840Y-79981400D01*
X210583628Y-79986237D01*
X210569384Y-80033192D01*
X210567705Y-80037885D01*
X210548928Y-80083218D01*
X210546796Y-80087726D01*
X210523665Y-80130999D01*
X210521103Y-80135273D01*
X210493843Y-80176072D01*
X210490873Y-80180077D01*
X210459745Y-80218006D01*
X210456397Y-80221700D01*
X210421700Y-80256397D01*
X210418006Y-80259745D01*
X210380077Y-80290873D01*
X210376072Y-80293843D01*
X210335273Y-80321103D01*
X210330999Y-80323665D01*
X210287726Y-80346796D01*
X210283218Y-80348928D01*
X210237885Y-80367705D01*
X210233192Y-80369384D01*
X210186237Y-80383628D01*
X210181400Y-80384840D01*
X210133275Y-80394412D01*
X210128345Y-80395143D01*
X210079514Y-80399953D01*
X210074534Y-80400198D01*
X210056113Y-80400198D01*
X210050000Y-80400800D01*
X209550000Y-80400800D01*
X209543887Y-80400198D01*
X209525466Y-80400198D01*
X209520486Y-80399953D01*
X209471655Y-80395143D01*
X209466725Y-80394412D01*
X209418600Y-80384840D01*
X209413763Y-80383628D01*
X209366808Y-80369384D01*
X209362115Y-80367705D01*
X209316782Y-80348928D01*
X209312274Y-80346796D01*
X209269001Y-80323665D01*
X209264727Y-80321103D01*
X209223928Y-80293843D01*
X209219923Y-80290873D01*
X209181994Y-80259745D01*
X209178300Y-80256397D01*
X209143603Y-80221700D01*
X209140255Y-80218006D01*
X209109127Y-80180077D01*
X209106157Y-80176072D01*
X209078897Y-80135273D01*
X209076335Y-80130999D01*
X209053204Y-80087726D01*
X209051072Y-80083218D01*
X209032295Y-80037885D01*
X209030616Y-80033192D01*
X209016372Y-79986237D01*
X209015160Y-79981400D01*
X209005588Y-79933275D01*
X209004857Y-79928345D01*
X209000047Y-79879514D01*
X208999802Y-79874534D01*
X208999802Y-79856113D01*
X208999200Y-79850000D01*
X208999200Y-79350000D01*
X209000176Y-79340089D01*
X209003067Y-79330560D01*
X209007761Y-79321777D01*
X209014079Y-79314079D01*
X209021777Y-79307761D01*
X209030560Y-79303067D01*
X209040089Y-79300176D01*
X209050000Y-79299200D01*
X210550000Y-79299200D01*
X210559911Y-79300176D01*
X210569440Y-79303067D01*
X210578223Y-79307761D01*
X210585921Y-79314079D01*
X210592239Y-79321777D01*
X210596933Y-79330560D01*
X210599824Y-79340089D01*
X210600800Y-79350000D01*
X210600800Y-79850000D01*
X210600198Y-79856113D01*
G37*
G36*
X210599824Y-79059911D02*
G01*
X210596933Y-79069440D01*
X210592239Y-79078223D01*
X210585921Y-79085921D01*
X210578223Y-79092239D01*
X210569440Y-79096933D01*
X210559911Y-79099824D01*
X210550000Y-79100800D01*
X209050000Y-79100800D01*
X209040089Y-79099824D01*
X209030560Y-79096933D01*
X209021777Y-79092239D01*
X209014079Y-79085921D01*
X209007761Y-79078223D01*
X209003067Y-79069440D01*
X209000176Y-79059911D01*
X208999200Y-79050000D01*
X208999200Y-78550000D01*
X208999802Y-78543887D01*
X208999802Y-78525466D01*
X209000047Y-78520486D01*
X209004857Y-78471655D01*
X209005588Y-78466725D01*
X209015160Y-78418600D01*
X209016372Y-78413763D01*
X209030616Y-78366808D01*
X209032295Y-78362115D01*
X209051072Y-78316782D01*
X209053204Y-78312274D01*
X209076335Y-78269001D01*
X209078897Y-78264727D01*
X209106157Y-78223928D01*
X209109127Y-78219923D01*
X209140255Y-78181994D01*
X209143603Y-78178300D01*
X209178300Y-78143603D01*
X209181994Y-78140255D01*
X209219923Y-78109127D01*
X209223928Y-78106157D01*
X209264727Y-78078897D01*
X209269001Y-78076335D01*
X209312274Y-78053204D01*
X209316782Y-78051072D01*
X209362115Y-78032295D01*
X209366808Y-78030616D01*
X209413763Y-78016372D01*
X209418600Y-78015160D01*
X209466725Y-78005588D01*
X209471655Y-78004857D01*
X209520486Y-78000047D01*
X209525466Y-77999802D01*
X209543887Y-77999802D01*
X209550000Y-77999200D01*
X210050000Y-77999200D01*
X210056113Y-77999802D01*
X210074534Y-77999802D01*
X210079514Y-78000047D01*
X210128345Y-78004857D01*
X210133275Y-78005588D01*
X210181400Y-78015160D01*
X210186237Y-78016372D01*
X210233192Y-78030616D01*
X210237885Y-78032295D01*
X210283218Y-78051072D01*
X210287726Y-78053204D01*
X210330999Y-78076335D01*
X210335273Y-78078897D01*
X210376072Y-78106157D01*
X210380077Y-78109127D01*
X210418006Y-78140255D01*
X210421700Y-78143603D01*
X210456397Y-78178300D01*
X210459745Y-78181994D01*
X210490873Y-78219923D01*
X210493843Y-78223928D01*
X210521103Y-78264727D01*
X210523665Y-78269001D01*
X210546796Y-78312274D01*
X210548928Y-78316782D01*
X210567705Y-78362115D01*
X210569384Y-78366808D01*
X210583628Y-78413763D01*
X210584840Y-78418600D01*
X210594412Y-78466725D01*
X210595143Y-78471655D01*
X210599953Y-78520486D01*
X210600198Y-78525466D01*
X210600198Y-78543887D01*
X210600800Y-78550000D01*
X210600800Y-79050000D01*
X210599824Y-79059911D01*
G37*
G04 #@! TD*
G04 #@! TO.C,C305*
G36*
G01*
X182310800Y-48664600D02*
X182310800Y-49215400D01*
G75*
G02*
X182060400Y-49465800I-250400J0D01*
G01*
X181559600Y-49465800D01*
G75*
G02*
X181309200Y-49215400I0J250400D01*
G01*
X181309200Y-48664600D01*
G75*
G02*
X181559600Y-48414200I250400J0D01*
G01*
X182060400Y-48414200D01*
G75*
G02*
X182310800Y-48664600I0J-250400D01*
G01*
G37*
G36*
G01*
X183860800Y-48664600D02*
X183860800Y-49215400D01*
G75*
G02*
X183610400Y-49465800I-250400J0D01*
G01*
X183109600Y-49465800D01*
G75*
G02*
X182859200Y-49215400I0J250400D01*
G01*
X182859200Y-48664600D01*
G75*
G02*
X183109600Y-48414200I250400J0D01*
G01*
X183610400Y-48414200D01*
G75*
G02*
X183860800Y-48664600I0J-250400D01*
G01*
G37*
G04 #@! TD*
G04 #@! TO.C,C307*
G36*
G01*
X147359200Y-43420400D02*
X147359200Y-42419600D01*
G75*
G02*
X147634600Y-42144200I275400J0D01*
G01*
X148185400Y-42144200D01*
G75*
G02*
X148460800Y-42419600I0J-275400D01*
G01*
X148460800Y-43420400D01*
G75*
G02*
X148185400Y-43695800I-275400J0D01*
G01*
X147634600Y-43695800D01*
G75*
G02*
X147359200Y-43420400I0J275400D01*
G01*
G37*
G36*
G01*
X145459200Y-43420400D02*
X145459200Y-42419600D01*
G75*
G02*
X145734600Y-42144200I275400J0D01*
G01*
X146285400Y-42144200D01*
G75*
G02*
X146560800Y-42419600I0J-275400D01*
G01*
X146560800Y-43420400D01*
G75*
G02*
X146285400Y-43695800I-275400J0D01*
G01*
X145734600Y-43695800D01*
G75*
G02*
X145459200Y-43420400I0J275400D01*
G01*
G37*
G04 #@! TD*
G04 #@! TO.C,C313*
G36*
G01*
X164260800Y-40819600D02*
X164260800Y-41820400D01*
G75*
G02*
X163985400Y-42095800I-275400J0D01*
G01*
X163434600Y-42095800D01*
G75*
G02*
X163159200Y-41820400I0J275400D01*
G01*
X163159200Y-40819600D01*
G75*
G02*
X163434600Y-40544200I275400J0D01*
G01*
X163985400Y-40544200D01*
G75*
G02*
X164260800Y-40819600I0J-275400D01*
G01*
G37*
G36*
G01*
X162360800Y-40819600D02*
X162360800Y-41820400D01*
G75*
G02*
X162085400Y-42095800I-275400J0D01*
G01*
X161534600Y-42095800D01*
G75*
G02*
X161259200Y-41820400I0J275400D01*
G01*
X161259200Y-40819600D01*
G75*
G02*
X161534600Y-40544200I275400J0D01*
G01*
X162085400Y-40544200D01*
G75*
G02*
X162360800Y-40819600I0J-275400D01*
G01*
G37*
G04 #@! TD*
G04 #@! TO.C,C314*
G36*
G01*
X184235800Y-43024600D02*
X184235800Y-43575400D01*
G75*
G02*
X183985400Y-43825800I-250400J0D01*
G01*
X183484600Y-43825800D01*
G75*
G02*
X183234200Y-43575400I0J250400D01*
G01*
X183234200Y-43024600D01*
G75*
G02*
X183484600Y-42774200I250400J0D01*
G01*
X183985400Y-42774200D01*
G75*
G02*
X184235800Y-43024600I0J-250400D01*
G01*
G37*
G36*
G01*
X182685800Y-43024600D02*
X182685800Y-43575400D01*
G75*
G02*
X182435400Y-43825800I-250400J0D01*
G01*
X181934600Y-43825800D01*
G75*
G02*
X181684200Y-43575400I0J250400D01*
G01*
X181684200Y-43024600D01*
G75*
G02*
X181934600Y-42774200I250400J0D01*
G01*
X182435400Y-42774200D01*
G75*
G02*
X182685800Y-43024600I0J-250400D01*
G01*
G37*
G04 #@! TD*
G04 #@! TO.C,C315*
G36*
G01*
X147034200Y-39795400D02*
X147034200Y-39244600D01*
G75*
G02*
X147284600Y-38994200I250400J0D01*
G01*
X147785400Y-38994200D01*
G75*
G02*
X148035800Y-39244600I0J-250400D01*
G01*
X148035800Y-39795400D01*
G75*
G02*
X147785400Y-40045800I-250400J0D01*
G01*
X147284600Y-40045800D01*
G75*
G02*
X147034200Y-39795400I0J250400D01*
G01*
G37*
G36*
G01*
X145484200Y-39795400D02*
X145484200Y-39244600D01*
G75*
G02*
X145734600Y-38994200I250400J0D01*
G01*
X146235400Y-38994200D01*
G75*
G02*
X146485800Y-39244600I0J-250400D01*
G01*
X146485800Y-39795400D01*
G75*
G02*
X146235400Y-40045800I-250400J0D01*
G01*
X145734600Y-40045800D01*
G75*
G02*
X145484200Y-39795400I0J250400D01*
G01*
G37*
G04 #@! TD*
G04 #@! TO.C,C316*
G36*
G01*
X184235800Y-44544600D02*
X184235800Y-45095400D01*
G75*
G02*
X183985400Y-45345800I-250400J0D01*
G01*
X183484600Y-45345800D01*
G75*
G02*
X183234200Y-45095400I0J250400D01*
G01*
X183234200Y-44544600D01*
G75*
G02*
X183484600Y-44294200I250400J0D01*
G01*
X183985400Y-44294200D01*
G75*
G02*
X184235800Y-44544600I0J-250400D01*
G01*
G37*
G36*
G01*
X182685800Y-44544600D02*
X182685800Y-45095400D01*
G75*
G02*
X182435400Y-45345800I-250400J0D01*
G01*
X181934600Y-45345800D01*
G75*
G02*
X181684200Y-45095400I0J250400D01*
G01*
X181684200Y-44544600D01*
G75*
G02*
X181934600Y-44294200I250400J0D01*
G01*
X182435400Y-44294200D01*
G75*
G02*
X182685800Y-44544600I0J-250400D01*
G01*
G37*
G04 #@! TD*
G04 #@! TO.C,C318*
G36*
G01*
X143524200Y-37975400D02*
X143524200Y-37424600D01*
G75*
G02*
X143774600Y-37174200I250400J0D01*
G01*
X144275400Y-37174200D01*
G75*
G02*
X144525800Y-37424600I0J-250400D01*
G01*
X144525800Y-37975400D01*
G75*
G02*
X144275400Y-38225800I-250400J0D01*
G01*
X143774600Y-38225800D01*
G75*
G02*
X143524200Y-37975400I0J250400D01*
G01*
G37*
G36*
G01*
X145074200Y-37975400D02*
X145074200Y-37424600D01*
G75*
G02*
X145324600Y-37174200I250400J0D01*
G01*
X145825400Y-37174200D01*
G75*
G02*
X146075800Y-37424600I0J-250400D01*
G01*
X146075800Y-37975400D01*
G75*
G02*
X145825400Y-38225800I-250400J0D01*
G01*
X145324600Y-38225800D01*
G75*
G02*
X145074200Y-37975400I0J250400D01*
G01*
G37*
G04 #@! TD*
G04 #@! TO.C,C102*
G36*
G01*
X217850800Y-37624600D02*
X217850800Y-38175400D01*
G75*
G02*
X217600400Y-38425800I-250400J0D01*
G01*
X217099600Y-38425800D01*
G75*
G02*
X216849200Y-38175400I0J250400D01*
G01*
X216849200Y-37624600D01*
G75*
G02*
X217099600Y-37374200I250400J0D01*
G01*
X217600400Y-37374200D01*
G75*
G02*
X217850800Y-37624600I0J-250400D01*
G01*
G37*
G36*
G01*
X216300800Y-37624600D02*
X216300800Y-38175400D01*
G75*
G02*
X216050400Y-38425800I-250400J0D01*
G01*
X215549600Y-38425800D01*
G75*
G02*
X215299200Y-38175400I0J250400D01*
G01*
X215299200Y-37624600D01*
G75*
G02*
X215549600Y-37374200I250400J0D01*
G01*
X216050400Y-37374200D01*
G75*
G02*
X216300800Y-37624600I0J-250400D01*
G01*
G37*
G04 #@! TD*
G04 #@! TO.C,D310*
G36*
G01*
X179660800Y-42970000D02*
X179660800Y-43770000D01*
G75*
G02*
X179610000Y-43820800I-50800J0D01*
G01*
X178710000Y-43820800D01*
G75*
G02*
X178659200Y-43770000I0J50800D01*
G01*
X178659200Y-42970000D01*
G75*
G02*
X178710000Y-42919200I50800J0D01*
G01*
X179610000Y-42919200D01*
G75*
G02*
X179660800Y-42970000I0J-50800D01*
G01*
G37*
G36*
G01*
X179660800Y-44870000D02*
X179660800Y-45670000D01*
G75*
G02*
X179610000Y-45720800I-50800J0D01*
G01*
X178710000Y-45720800D01*
G75*
G02*
X178659200Y-45670000I0J50800D01*
G01*
X178659200Y-44870000D01*
G75*
G02*
X178710000Y-44819200I50800J0D01*
G01*
X179610000Y-44819200D01*
G75*
G02*
X179660800Y-44870000I0J-50800D01*
G01*
G37*
G36*
G01*
X177660800Y-43920000D02*
X177660800Y-44720000D01*
G75*
G02*
X177610000Y-44770800I-50800J0D01*
G01*
X176710000Y-44770800D01*
G75*
G02*
X176659200Y-44720000I0J50800D01*
G01*
X176659200Y-43920000D01*
G75*
G02*
X176710000Y-43869200I50800J0D01*
G01*
X177610000Y-43869200D01*
G75*
G02*
X177660800Y-43920000I0J-50800D01*
G01*
G37*
G04 #@! TD*
G04 #@! TO.C,R301*
G36*
G01*
X135260400Y-46595800D02*
X134659600Y-46595800D01*
G75*
G02*
X134434200Y-46370400I0J225400D01*
G01*
X134434200Y-45919600D01*
G75*
G02*
X134659600Y-45694200I225400J0D01*
G01*
X135260400Y-45694200D01*
G75*
G02*
X135485800Y-45919600I0J-225400D01*
G01*
X135485800Y-46370400D01*
G75*
G02*
X135260400Y-46595800I-225400J0D01*
G01*
G37*
G36*
G01*
X135260400Y-44945800D02*
X134659600Y-44945800D01*
G75*
G02*
X134434200Y-44720400I0J225400D01*
G01*
X134434200Y-44269600D01*
G75*
G02*
X134659600Y-44044200I225400J0D01*
G01*
X135260400Y-44044200D01*
G75*
G02*
X135485800Y-44269600I0J-225400D01*
G01*
X135485800Y-44720400D01*
G75*
G02*
X135260400Y-44945800I-225400J0D01*
G01*
G37*
G04 #@! TD*
G04 #@! TO.C,R306*
G36*
G01*
X133835800Y-40819600D02*
X133835800Y-41420400D01*
G75*
G02*
X133610400Y-41645800I-225400J0D01*
G01*
X133159600Y-41645800D01*
G75*
G02*
X132934200Y-41420400I0J225400D01*
G01*
X132934200Y-40819600D01*
G75*
G02*
X133159600Y-40594200I225400J0D01*
G01*
X133610400Y-40594200D01*
G75*
G02*
X133835800Y-40819600I0J-225400D01*
G01*
G37*
G36*
G01*
X135485800Y-40819600D02*
X135485800Y-41420400D01*
G75*
G02*
X135260400Y-41645800I-225400J0D01*
G01*
X134809600Y-41645800D01*
G75*
G02*
X134584200Y-41420400I0J225400D01*
G01*
X134584200Y-40819600D01*
G75*
G02*
X134809600Y-40594200I225400J0D01*
G01*
X135260400Y-40594200D01*
G75*
G02*
X135485800Y-40819600I0J-225400D01*
G01*
G37*
G04 #@! TD*
G04 #@! TO.C,R307*
G36*
G01*
X135485800Y-42419600D02*
X135485800Y-43020400D01*
G75*
G02*
X135260400Y-43245800I-225400J0D01*
G01*
X134809600Y-43245800D01*
G75*
G02*
X134584200Y-43020400I0J225400D01*
G01*
X134584200Y-42419600D01*
G75*
G02*
X134809600Y-42194200I225400J0D01*
G01*
X135260400Y-42194200D01*
G75*
G02*
X135485800Y-42419600I0J-225400D01*
G01*
G37*
G36*
G01*
X133835800Y-42419600D02*
X133835800Y-43020400D01*
G75*
G02*
X133610400Y-43245800I-225400J0D01*
G01*
X133159600Y-43245800D01*
G75*
G02*
X132934200Y-43020400I0J225400D01*
G01*
X132934200Y-42419600D01*
G75*
G02*
X133159600Y-42194200I225400J0D01*
G01*
X133610400Y-42194200D01*
G75*
G02*
X133835800Y-42419600I0J-225400D01*
G01*
G37*
G04 #@! TD*
G04 #@! TO.C,R308*
G36*
G01*
X184959600Y-46694200D02*
X185560400Y-46694200D01*
G75*
G02*
X185785800Y-46919600I0J-225400D01*
G01*
X185785800Y-47370400D01*
G75*
G02*
X185560400Y-47595800I-225400J0D01*
G01*
X184959600Y-47595800D01*
G75*
G02*
X184734200Y-47370400I0J225400D01*
G01*
X184734200Y-46919600D01*
G75*
G02*
X184959600Y-46694200I225400J0D01*
G01*
G37*
G36*
G01*
X184959600Y-45044200D02*
X185560400Y-45044200D01*
G75*
G02*
X185785800Y-45269600I0J-225400D01*
G01*
X185785800Y-45720400D01*
G75*
G02*
X185560400Y-45945800I-225400J0D01*
G01*
X184959600Y-45945800D01*
G75*
G02*
X184734200Y-45720400I0J225400D01*
G01*
X184734200Y-45269600D01*
G75*
G02*
X184959600Y-45044200I225400J0D01*
G01*
G37*
G04 #@! TD*
G04 #@! TO.C,R311*
G36*
G01*
X148035800Y-44419600D02*
X148035800Y-45020400D01*
G75*
G02*
X147810400Y-45245800I-225400J0D01*
G01*
X147359600Y-45245800D01*
G75*
G02*
X147134200Y-45020400I0J225400D01*
G01*
X147134200Y-44419600D01*
G75*
G02*
X147359600Y-44194200I225400J0D01*
G01*
X147810400Y-44194200D01*
G75*
G02*
X148035800Y-44419600I0J-225400D01*
G01*
G37*
G36*
G01*
X146385800Y-44419600D02*
X146385800Y-45020400D01*
G75*
G02*
X146160400Y-45245800I-225400J0D01*
G01*
X145709600Y-45245800D01*
G75*
G02*
X145484200Y-45020400I0J225400D01*
G01*
X145484200Y-44419600D01*
G75*
G02*
X145709600Y-44194200I225400J0D01*
G01*
X146160400Y-44194200D01*
G75*
G02*
X146385800Y-44419600I0J-225400D01*
G01*
G37*
G04 #@! TD*
G04 #@! TO.C,R313*
G36*
G01*
X179655800Y-46619600D02*
X179655800Y-47220400D01*
G75*
G02*
X179430400Y-47445800I-225400J0D01*
G01*
X178979600Y-47445800D01*
G75*
G02*
X178754200Y-47220400I0J225400D01*
G01*
X178754200Y-46619600D01*
G75*
G02*
X178979600Y-46394200I225400J0D01*
G01*
X179430400Y-46394200D01*
G75*
G02*
X179655800Y-46619600I0J-225400D01*
G01*
G37*
G36*
G01*
X178005800Y-46619600D02*
X178005800Y-47220400D01*
G75*
G02*
X177780400Y-47445800I-225400J0D01*
G01*
X177329600Y-47445800D01*
G75*
G02*
X177104200Y-47220400I0J225400D01*
G01*
X177104200Y-46619600D01*
G75*
G02*
X177329600Y-46394200I225400J0D01*
G01*
X177780400Y-46394200D01*
G75*
G02*
X178005800Y-46619600I0J-225400D01*
G01*
G37*
G04 #@! TD*
G04 #@! TO.C,R314*
G36*
G01*
X179430400Y-40545800D02*
X178829600Y-40545800D01*
G75*
G02*
X178604200Y-40320400I0J225400D01*
G01*
X178604200Y-39869600D01*
G75*
G02*
X178829600Y-39644200I225400J0D01*
G01*
X179430400Y-39644200D01*
G75*
G02*
X179655800Y-39869600I0J-225400D01*
G01*
X179655800Y-40320400D01*
G75*
G02*
X179430400Y-40545800I-225400J0D01*
G01*
G37*
G36*
G01*
X179430400Y-42195800D02*
X178829600Y-42195800D01*
G75*
G02*
X178604200Y-41970400I0J225400D01*
G01*
X178604200Y-41519600D01*
G75*
G02*
X178829600Y-41294200I225400J0D01*
G01*
X179430400Y-41294200D01*
G75*
G02*
X179655800Y-41519600I0J-225400D01*
G01*
X179655800Y-41970400D01*
G75*
G02*
X179430400Y-42195800I-225400J0D01*
G01*
G37*
G04 #@! TD*
G04 #@! TO.C,R315*
G36*
G01*
X184959600Y-42044200D02*
X185560400Y-42044200D01*
G75*
G02*
X185785800Y-42269600I0J-225400D01*
G01*
X185785800Y-42720400D01*
G75*
G02*
X185560400Y-42945800I-225400J0D01*
G01*
X184959600Y-42945800D01*
G75*
G02*
X184734200Y-42720400I0J225400D01*
G01*
X184734200Y-42269600D01*
G75*
G02*
X184959600Y-42044200I225400J0D01*
G01*
G37*
G36*
G01*
X184959600Y-43694200D02*
X185560400Y-43694200D01*
G75*
G02*
X185785800Y-43919600I0J-225400D01*
G01*
X185785800Y-44370400D01*
G75*
G02*
X185560400Y-44595800I-225400J0D01*
G01*
X184959600Y-44595800D01*
G75*
G02*
X184734200Y-44370400I0J225400D01*
G01*
X184734200Y-43919600D01*
G75*
G02*
X184959600Y-43694200I225400J0D01*
G01*
G37*
G04 #@! TD*
G04 #@! TO.C,R316*
G36*
G01*
X146385800Y-40819600D02*
X146385800Y-41420400D01*
G75*
G02*
X146160400Y-41645800I-225400J0D01*
G01*
X145709600Y-41645800D01*
G75*
G02*
X145484200Y-41420400I0J225400D01*
G01*
X145484200Y-40819600D01*
G75*
G02*
X145709600Y-40594200I225400J0D01*
G01*
X146160400Y-40594200D01*
G75*
G02*
X146385800Y-40819600I0J-225400D01*
G01*
G37*
G36*
G01*
X148035800Y-40819600D02*
X148035800Y-41420400D01*
G75*
G02*
X147810400Y-41645800I-225400J0D01*
G01*
X147359600Y-41645800D01*
G75*
G02*
X147134200Y-41420400I0J225400D01*
G01*
X147134200Y-40819600D01*
G75*
G02*
X147359600Y-40594200I225400J0D01*
G01*
X147810400Y-40594200D01*
G75*
G02*
X148035800Y-40819600I0J-225400D01*
G01*
G37*
G04 #@! TD*
G04 #@! TO.C,R317*
G36*
G01*
X133059600Y-45694200D02*
X133660400Y-45694200D01*
G75*
G02*
X133885800Y-45919600I0J-225400D01*
G01*
X133885800Y-46370400D01*
G75*
G02*
X133660400Y-46595800I-225400J0D01*
G01*
X133059600Y-46595800D01*
G75*
G02*
X132834200Y-46370400I0J225400D01*
G01*
X132834200Y-45919600D01*
G75*
G02*
X133059600Y-45694200I225400J0D01*
G01*
G37*
G36*
G01*
X133059600Y-44044200D02*
X133660400Y-44044200D01*
G75*
G02*
X133885800Y-44269600I0J-225400D01*
G01*
X133885800Y-44720400D01*
G75*
G02*
X133660400Y-44945800I-225400J0D01*
G01*
X133059600Y-44945800D01*
G75*
G02*
X132834200Y-44720400I0J225400D01*
G01*
X132834200Y-44269600D01*
G75*
G02*
X133059600Y-44044200I225400J0D01*
G01*
G37*
G04 #@! TD*
G04 #@! TO.C,R319*
G36*
G01*
X180960400Y-43675800D02*
X180359600Y-43675800D01*
G75*
G02*
X180134200Y-43450400I0J225400D01*
G01*
X180134200Y-42999600D01*
G75*
G02*
X180359600Y-42774200I225400J0D01*
G01*
X180960400Y-42774200D01*
G75*
G02*
X181185800Y-42999600I0J-225400D01*
G01*
X181185800Y-43450400D01*
G75*
G02*
X180960400Y-43675800I-225400J0D01*
G01*
G37*
G36*
G01*
X180960400Y-45325800D02*
X180359600Y-45325800D01*
G75*
G02*
X180134200Y-45100400I0J225400D01*
G01*
X180134200Y-44649600D01*
G75*
G02*
X180359600Y-44424200I225400J0D01*
G01*
X180960400Y-44424200D01*
G75*
G02*
X181185800Y-44649600I0J-225400D01*
G01*
X181185800Y-45100400D01*
G75*
G02*
X180960400Y-45325800I-225400J0D01*
G01*
G37*
G04 #@! TD*
G04 #@! TO.C,R320*
G36*
G01*
X146075800Y-35869600D02*
X146075800Y-36470400D01*
G75*
G02*
X145850400Y-36695800I-225400J0D01*
G01*
X145399600Y-36695800D01*
G75*
G02*
X145174200Y-36470400I0J225400D01*
G01*
X145174200Y-35869600D01*
G75*
G02*
X145399600Y-35644200I225400J0D01*
G01*
X145850400Y-35644200D01*
G75*
G02*
X146075800Y-35869600I0J-225400D01*
G01*
G37*
G36*
G01*
X144425800Y-35869600D02*
X144425800Y-36470400D01*
G75*
G02*
X144200400Y-36695800I-225400J0D01*
G01*
X143749600Y-36695800D01*
G75*
G02*
X143524200Y-36470400I0J225400D01*
G01*
X143524200Y-35869600D01*
G75*
G02*
X143749600Y-35644200I225400J0D01*
G01*
X144200400Y-35644200D01*
G75*
G02*
X144425800Y-35869600I0J-225400D01*
G01*
G37*
G04 #@! TD*
G04 #@! TO.C,R324*
G36*
G01*
X185560400Y-41595800D02*
X184959600Y-41595800D01*
G75*
G02*
X184734200Y-41370400I0J225400D01*
G01*
X184734200Y-40919600D01*
G75*
G02*
X184959600Y-40694200I225400J0D01*
G01*
X185560400Y-40694200D01*
G75*
G02*
X185785800Y-40919600I0J-225400D01*
G01*
X185785800Y-41370400D01*
G75*
G02*
X185560400Y-41595800I-225400J0D01*
G01*
G37*
G36*
G01*
X185560400Y-39945800D02*
X184959600Y-39945800D01*
G75*
G02*
X184734200Y-39720400I0J225400D01*
G01*
X184734200Y-39269600D01*
G75*
G02*
X184959600Y-39044200I225400J0D01*
G01*
X185560400Y-39044200D01*
G75*
G02*
X185785800Y-39269600I0J-225400D01*
G01*
X185785800Y-39720400D01*
G75*
G02*
X185560400Y-39945800I-225400J0D01*
G01*
G37*
G04 #@! TD*
G04 #@! TO.C,J402*
G36*
G01*
X216299200Y-16850000D02*
X216299200Y-15150000D01*
G75*
G02*
X216350000Y-15099200I50800J0D01*
G01*
X218050000Y-15099200D01*
G75*
G02*
X218100800Y-15150000I0J-50800D01*
G01*
X218100800Y-16850000D01*
G75*
G02*
X218050000Y-16900800I-50800J0D01*
G01*
X216350000Y-16900800D01*
G75*
G02*
X216299200Y-16850000I0J50800D01*
G01*
G37*
D11*
X217200000Y-18540000D03*
X217200000Y-21080000D03*
X217200000Y-23620000D03*
X217200000Y-26160000D03*
X217200000Y-28700000D03*
G04 #@! TD*
D23*
G04 #@! TO.C,U106*
X126215948Y-106279251D03*
X129808051Y-106279251D03*
X129808051Y-102687149D03*
G04 #@! TD*
G04 #@! TO.C,C701*
G36*
G01*
X150855333Y-101261309D02*
X150465858Y-101650784D01*
G75*
G02*
X150111738Y-101650784I-177060J177060D01*
G01*
X149757619Y-101296665D01*
G75*
G02*
X149757619Y-100942545I177060J177060D01*
G01*
X150147094Y-100553070D01*
G75*
G02*
X150501214Y-100553070I177060J-177060D01*
G01*
X150855333Y-100907189D01*
G75*
G02*
X150855333Y-101261309I-177060J-177060D01*
G01*
G37*
G36*
G01*
X149759317Y-100165293D02*
X149369842Y-100554768D01*
G75*
G02*
X149015722Y-100554768I-177060J177060D01*
G01*
X148661603Y-100200649D01*
G75*
G02*
X148661603Y-99846529I177060J177060D01*
G01*
X149051078Y-99457054D01*
G75*
G02*
X149405198Y-99457054I177060J-177060D01*
G01*
X149759317Y-99811173D01*
G75*
G02*
X149759317Y-100165293I-177060J-177060D01*
G01*
G37*
G04 #@! TD*
G04 #@! TO.C,C702*
G36*
G01*
X153082012Y-96662993D02*
X152692537Y-97052468D01*
G75*
G02*
X152338417Y-97052468I-177060J177060D01*
G01*
X151984298Y-96698349D01*
G75*
G02*
X151984298Y-96344229I177060J177060D01*
G01*
X152373773Y-95954754D01*
G75*
G02*
X152727893Y-95954754I177060J-177060D01*
G01*
X153082012Y-96308873D01*
G75*
G02*
X153082012Y-96662993I-177060J-177060D01*
G01*
G37*
G36*
G01*
X154178028Y-97759009D02*
X153788553Y-98148484D01*
G75*
G02*
X153434433Y-98148484I-177060J177060D01*
G01*
X153080314Y-97794365D01*
G75*
G02*
X153080314Y-97440245I177060J177060D01*
G01*
X153469789Y-97050770D01*
G75*
G02*
X153823909Y-97050770I177060J-177060D01*
G01*
X154178028Y-97404889D01*
G75*
G02*
X154178028Y-97759009I-177060J-177060D01*
G01*
G37*
G04 #@! TD*
D24*
G04 #@! TO.C,J301*
X140020000Y-16430000D03*
X144720000Y-13430000D03*
G36*
G01*
X146070800Y-18130000D02*
X146070800Y-20730000D01*
G75*
G02*
X146020000Y-20780800I-50800J0D01*
G01*
X143420000Y-20780800D01*
G75*
G02*
X143369200Y-20730000I0J50800D01*
G01*
X143369200Y-18130000D01*
G75*
G02*
X143420000Y-18079200I50800J0D01*
G01*
X146020000Y-18079200D01*
G75*
G02*
X146070800Y-18130000I0J-50800D01*
G01*
G37*
G04 #@! TD*
G04 #@! TO.C,J302*
G36*
G01*
X134170800Y-18120000D02*
X134170800Y-20720000D01*
G75*
G02*
X134120000Y-20770800I-50800J0D01*
G01*
X131520000Y-20770800D01*
G75*
G02*
X131469200Y-20720000I0J50800D01*
G01*
X131469200Y-18120000D01*
G75*
G02*
X131520000Y-18069200I50800J0D01*
G01*
X134120000Y-18069200D01*
G75*
G02*
X134170800Y-18120000I0J-50800D01*
G01*
G37*
X132820000Y-13420000D03*
X128120000Y-16420000D03*
G04 #@! TD*
D11*
G04 #@! TO.C,J303*
X135740000Y-38000000D03*
G36*
G01*
X134050000Y-38900800D02*
X132350000Y-38900800D01*
G75*
G02*
X132299200Y-38850000I0J50800D01*
G01*
X132299200Y-37150000D01*
G75*
G02*
X132350000Y-37099200I50800J0D01*
G01*
X134050000Y-37099200D01*
G75*
G02*
X134100800Y-37150000I0J-50800D01*
G01*
X134100800Y-38850000D01*
G75*
G02*
X134050000Y-38900800I-50800J0D01*
G01*
G37*
G04 #@! TD*
G04 #@! TO.C,J304*
G36*
G01*
X126579200Y-24640000D02*
X126579200Y-22940000D01*
G75*
G02*
X126630000Y-22889200I50800J0D01*
G01*
X128330000Y-22889200D01*
G75*
G02*
X128380800Y-22940000I0J-50800D01*
G01*
X128380800Y-24640000D01*
G75*
G02*
X128330000Y-24690800I-50800J0D01*
G01*
X126630000Y-24690800D01*
G75*
G02*
X126579200Y-24640000I0J50800D01*
G01*
G37*
X127480000Y-26330000D03*
G04 #@! TD*
G04 #@! TO.C,J802*
G36*
G01*
X199750000Y-28499200D02*
X201450000Y-28499200D01*
G75*
G02*
X201500800Y-28550000I0J-50800D01*
G01*
X201500800Y-30250000D01*
G75*
G02*
X201450000Y-30300800I-50800J0D01*
G01*
X199750000Y-30300800D01*
G75*
G02*
X199699200Y-30250000I0J50800D01*
G01*
X199699200Y-28550000D01*
G75*
G02*
X199750000Y-28499200I50800J0D01*
G01*
G37*
X198060000Y-29400000D03*
G04 #@! TD*
G04 #@! TO.C,JP401*
X213400000Y-16060000D03*
G36*
G01*
X214300800Y-17750000D02*
X214300800Y-19450000D01*
G75*
G02*
X214250000Y-19500800I-50800J0D01*
G01*
X212550000Y-19500800D01*
G75*
G02*
X212499200Y-19450000I0J50800D01*
G01*
X212499200Y-17750000D01*
G75*
G02*
X212550000Y-17699200I50800J0D01*
G01*
X214250000Y-17699200D01*
G75*
G02*
X214300800Y-17750000I0J-50800D01*
G01*
G37*
G04 #@! TD*
G04 #@! TO.C,TP301*
G36*
G01*
X186959200Y-49770000D02*
X186959200Y-48070000D01*
G75*
G02*
X187010000Y-48019200I50800J0D01*
G01*
X188710000Y-48019200D01*
G75*
G02*
X188760800Y-48070000I0J-50800D01*
G01*
X188760800Y-49770000D01*
G75*
G02*
X188710000Y-49820800I-50800J0D01*
G01*
X187010000Y-49820800D01*
G75*
G02*
X186959200Y-49770000I0J50800D01*
G01*
G37*
G04 #@! TD*
G04 #@! TO.C,U301*
G36*
G01*
X144410800Y-41044600D02*
X144410800Y-41295400D01*
G75*
G02*
X144285400Y-41420800I-125400J0D01*
G01*
X142959600Y-41420800D01*
G75*
G02*
X142834200Y-41295400I0J125400D01*
G01*
X142834200Y-41044600D01*
G75*
G02*
X142959600Y-40919200I125400J0D01*
G01*
X144285400Y-40919200D01*
G75*
G02*
X144410800Y-41044600I0J-125400D01*
G01*
G37*
G36*
G01*
X144410800Y-41694600D02*
X144410800Y-41945400D01*
G75*
G02*
X144285400Y-42070800I-125400J0D01*
G01*
X142959600Y-42070800D01*
G75*
G02*
X142834200Y-41945400I0J125400D01*
G01*
X142834200Y-41694600D01*
G75*
G02*
X142959600Y-41569200I125400J0D01*
G01*
X144285400Y-41569200D01*
G75*
G02*
X144410800Y-41694600I0J-125400D01*
G01*
G37*
G36*
G01*
X144410800Y-42344600D02*
X144410800Y-42595400D01*
G75*
G02*
X144285400Y-42720800I-125400J0D01*
G01*
X142959600Y-42720800D01*
G75*
G02*
X142834200Y-42595400I0J125400D01*
G01*
X142834200Y-42344600D01*
G75*
G02*
X142959600Y-42219200I125400J0D01*
G01*
X144285400Y-42219200D01*
G75*
G02*
X144410800Y-42344600I0J-125400D01*
G01*
G37*
G36*
G01*
X144410800Y-42994600D02*
X144410800Y-43245400D01*
G75*
G02*
X144285400Y-43370800I-125400J0D01*
G01*
X142959600Y-43370800D01*
G75*
G02*
X142834200Y-43245400I0J125400D01*
G01*
X142834200Y-42994600D01*
G75*
G02*
X142959600Y-42869200I125400J0D01*
G01*
X144285400Y-42869200D01*
G75*
G02*
X144410800Y-42994600I0J-125400D01*
G01*
G37*
G36*
G01*
X144410800Y-43644600D02*
X144410800Y-43895400D01*
G75*
G02*
X144285400Y-44020800I-125400J0D01*
G01*
X142959600Y-44020800D01*
G75*
G02*
X142834200Y-43895400I0J125400D01*
G01*
X142834200Y-43644600D01*
G75*
G02*
X142959600Y-43519200I125400J0D01*
G01*
X144285400Y-43519200D01*
G75*
G02*
X144410800Y-43644600I0J-125400D01*
G01*
G37*
G36*
G01*
X144410800Y-44294600D02*
X144410800Y-44545400D01*
G75*
G02*
X144285400Y-44670800I-125400J0D01*
G01*
X142959600Y-44670800D01*
G75*
G02*
X142834200Y-44545400I0J125400D01*
G01*
X142834200Y-44294600D01*
G75*
G02*
X142959600Y-44169200I125400J0D01*
G01*
X144285400Y-44169200D01*
G75*
G02*
X144410800Y-44294600I0J-125400D01*
G01*
G37*
G36*
G01*
X144410800Y-44944600D02*
X144410800Y-45195400D01*
G75*
G02*
X144285400Y-45320800I-125400J0D01*
G01*
X142959600Y-45320800D01*
G75*
G02*
X142834200Y-45195400I0J125400D01*
G01*
X142834200Y-44944600D01*
G75*
G02*
X142959600Y-44819200I125400J0D01*
G01*
X144285400Y-44819200D01*
G75*
G02*
X144410800Y-44944600I0J-125400D01*
G01*
G37*
G36*
G01*
X138685800Y-44944600D02*
X138685800Y-45195400D01*
G75*
G02*
X138560400Y-45320800I-125400J0D01*
G01*
X137234600Y-45320800D01*
G75*
G02*
X137109200Y-45195400I0J125400D01*
G01*
X137109200Y-44944600D01*
G75*
G02*
X137234600Y-44819200I125400J0D01*
G01*
X138560400Y-44819200D01*
G75*
G02*
X138685800Y-44944600I0J-125400D01*
G01*
G37*
G36*
G01*
X138685800Y-44294600D02*
X138685800Y-44545400D01*
G75*
G02*
X138560400Y-44670800I-125400J0D01*
G01*
X137234600Y-44670800D01*
G75*
G02*
X137109200Y-44545400I0J125400D01*
G01*
X137109200Y-44294600D01*
G75*
G02*
X137234600Y-44169200I125400J0D01*
G01*
X138560400Y-44169200D01*
G75*
G02*
X138685800Y-44294600I0J-125400D01*
G01*
G37*
G36*
G01*
X138685800Y-43644600D02*
X138685800Y-43895400D01*
G75*
G02*
X138560400Y-44020800I-125400J0D01*
G01*
X137234600Y-44020800D01*
G75*
G02*
X137109200Y-43895400I0J125400D01*
G01*
X137109200Y-43644600D01*
G75*
G02*
X137234600Y-43519200I125400J0D01*
G01*
X138560400Y-43519200D01*
G75*
G02*
X138685800Y-43644600I0J-125400D01*
G01*
G37*
G36*
G01*
X138685800Y-42994600D02*
X138685800Y-43245400D01*
G75*
G02*
X138560400Y-43370800I-125400J0D01*
G01*
X137234600Y-43370800D01*
G75*
G02*
X137109200Y-43245400I0J125400D01*
G01*
X137109200Y-42994600D01*
G75*
G02*
X137234600Y-42869200I125400J0D01*
G01*
X138560400Y-42869200D01*
G75*
G02*
X138685800Y-42994600I0J-125400D01*
G01*
G37*
G36*
G01*
X138685800Y-42344600D02*
X138685800Y-42595400D01*
G75*
G02*
X138560400Y-42720800I-125400J0D01*
G01*
X137234600Y-42720800D01*
G75*
G02*
X137109200Y-42595400I0J125400D01*
G01*
X137109200Y-42344600D01*
G75*
G02*
X137234600Y-42219200I125400J0D01*
G01*
X138560400Y-42219200D01*
G75*
G02*
X138685800Y-42344600I0J-125400D01*
G01*
G37*
G36*
G01*
X138685800Y-41694600D02*
X138685800Y-41945400D01*
G75*
G02*
X138560400Y-42070800I-125400J0D01*
G01*
X137234600Y-42070800D01*
G75*
G02*
X137109200Y-41945400I0J125400D01*
G01*
X137109200Y-41694600D01*
G75*
G02*
X137234600Y-41569200I125400J0D01*
G01*
X138560400Y-41569200D01*
G75*
G02*
X138685800Y-41694600I0J-125400D01*
G01*
G37*
G36*
G01*
X138685800Y-41044600D02*
X138685800Y-41295400D01*
G75*
G02*
X138560400Y-41420800I-125400J0D01*
G01*
X137234600Y-41420800D01*
G75*
G02*
X137109200Y-41295400I0J125400D01*
G01*
X137109200Y-41044600D01*
G75*
G02*
X137234600Y-40919200I125400J0D01*
G01*
X138560400Y-40919200D01*
G75*
G02*
X138685800Y-41044600I0J-125400D01*
G01*
G37*
G04 #@! TD*
G04 #@! TO.C,U302*
G36*
G01*
X181259200Y-42000000D02*
X181259200Y-41200000D01*
G75*
G02*
X181310000Y-41149200I50800J0D01*
G01*
X182210000Y-41149200D01*
G75*
G02*
X182260800Y-41200000I0J-50800D01*
G01*
X182260800Y-42000000D01*
G75*
G02*
X182210000Y-42050800I-50800J0D01*
G01*
X181310000Y-42050800D01*
G75*
G02*
X181259200Y-42000000I0J50800D01*
G01*
G37*
G36*
G01*
X181259200Y-40100000D02*
X181259200Y-39300000D01*
G75*
G02*
X181310000Y-39249200I50800J0D01*
G01*
X182210000Y-39249200D01*
G75*
G02*
X182260800Y-39300000I0J-50800D01*
G01*
X182260800Y-40100000D01*
G75*
G02*
X182210000Y-40150800I-50800J0D01*
G01*
X181310000Y-40150800D01*
G75*
G02*
X181259200Y-40100000I0J50800D01*
G01*
G37*
G36*
G01*
X183259200Y-41050000D02*
X183259200Y-40250000D01*
G75*
G02*
X183310000Y-40199200I50800J0D01*
G01*
X184210000Y-40199200D01*
G75*
G02*
X184260800Y-40250000I0J-50800D01*
G01*
X184260800Y-41050000D01*
G75*
G02*
X184210000Y-41100800I-50800J0D01*
G01*
X183310000Y-41100800D01*
G75*
G02*
X183259200Y-41050000I0J50800D01*
G01*
G37*
G04 #@! TD*
G04 #@! TO.C,U701*
G36*
G01*
X151038473Y-100296391D02*
X150755630Y-100013548D01*
G75*
G02*
X150755630Y-99941706I35921J35921D01*
G01*
X151215249Y-99482087D01*
G75*
G02*
X151287091Y-99482087I35921J-35921D01*
G01*
X151569934Y-99764930D01*
G75*
G02*
X151569934Y-99836772I-35921J-35921D01*
G01*
X151110315Y-100296391D01*
G75*
G02*
X151038473Y-100296391I-35921J35921D01*
G01*
G37*
G36*
G01*
X150119234Y-99377152D02*
X149836391Y-99094309D01*
G75*
G02*
X149836391Y-99022467I35921J35921D01*
G01*
X150296010Y-98562848D01*
G75*
G02*
X150367852Y-98562848I35921J-35921D01*
G01*
X150650695Y-98845691D01*
G75*
G02*
X150650695Y-98917533I-35921J-35921D01*
G01*
X150191076Y-99377152D01*
G75*
G02*
X150119234Y-99377152I-35921J35921D01*
G01*
G37*
G36*
G01*
X150578854Y-99836771D02*
X150296011Y-99553928D01*
G75*
G02*
X150296011Y-99482086I35921J35921D01*
G01*
X150755630Y-99022467D01*
G75*
G02*
X150827472Y-99022467I35921J-35921D01*
G01*
X151110315Y-99305310D01*
G75*
G02*
X151110315Y-99377152I-35921J-35921D01*
G01*
X150650696Y-99836771D01*
G75*
G02*
X150578854Y-99836771I-35921J35921D01*
G01*
G37*
G36*
G01*
X151462737Y-98033649D02*
X151179894Y-97750806D01*
G75*
G02*
X151179894Y-97678964I35921J35921D01*
G01*
X151639513Y-97219345D01*
G75*
G02*
X151711355Y-97219345I35921J-35921D01*
G01*
X151994198Y-97502188D01*
G75*
G02*
X151994198Y-97574030I-35921J-35921D01*
G01*
X151534579Y-98033649D01*
G75*
G02*
X151462737Y-98033649I-35921J35921D01*
G01*
G37*
G36*
G01*
X152381976Y-98952888D02*
X152099133Y-98670045D01*
G75*
G02*
X152099133Y-98598203I35921J35921D01*
G01*
X152558752Y-98138584D01*
G75*
G02*
X152630594Y-98138584I35921J-35921D01*
G01*
X152913437Y-98421427D01*
G75*
G02*
X152913437Y-98493269I-35921J-35921D01*
G01*
X152453818Y-98952888D01*
G75*
G02*
X152381976Y-98952888I-35921J35921D01*
G01*
G37*
G04 #@! TD*
G04 #@! TO.C,FB701*
G36*
G01*
X150551240Y-95950335D02*
X150949554Y-96348649D01*
G75*
G02*
X150949554Y-96693929I-172640J-172640D01*
G01*
X150604274Y-97039209D01*
G75*
G02*
X150258994Y-97039209I-172640J172640D01*
G01*
X149860680Y-96640895D01*
G75*
G02*
X149860680Y-96295615I172640J172640D01*
G01*
X150205960Y-95950335D01*
G75*
G02*
X150551240Y-95950335I172640J-172640D01*
G01*
G37*
G36*
G01*
X149437546Y-97064029D02*
X149835860Y-97462343D01*
G75*
G02*
X149835860Y-97807623I-172640J-172640D01*
G01*
X149490580Y-98152903D01*
G75*
G02*
X149145300Y-98152903I-172640J172640D01*
G01*
X148746986Y-97754589D01*
G75*
G02*
X148746986Y-97409309I172640J172640D01*
G01*
X149092266Y-97064029D01*
G75*
G02*
X149437546Y-97064029I172640J-172640D01*
G01*
G37*
G04 #@! TD*
D25*
G04 #@! TO.C,TP601*
X126600000Y-78600000D03*
G04 #@! TD*
G04 #@! TO.C,TP602*
X129200000Y-76600000D03*
G04 #@! TD*
G04 #@! TO.C,TP603*
X131200000Y-76600000D03*
G04 #@! TD*
G04 #@! TO.C,C811*
G36*
G01*
X214575400Y-34225800D02*
X214024600Y-34225800D01*
G75*
G02*
X213774200Y-33975400I0J250400D01*
G01*
X213774200Y-33474600D01*
G75*
G02*
X214024600Y-33224200I250400J0D01*
G01*
X214575400Y-33224200D01*
G75*
G02*
X214825800Y-33474600I0J-250400D01*
G01*
X214825800Y-33975400D01*
G75*
G02*
X214575400Y-34225800I-250400J0D01*
G01*
G37*
G36*
G01*
X214575400Y-35775800D02*
X214024600Y-35775800D01*
G75*
G02*
X213774200Y-35525400I0J250400D01*
G01*
X213774200Y-35024600D01*
G75*
G02*
X214024600Y-34774200I250400J0D01*
G01*
X214575400Y-34774200D01*
G75*
G02*
X214825800Y-35024600I0J-250400D01*
G01*
X214825800Y-35525400D01*
G75*
G02*
X214575400Y-35775800I-250400J0D01*
G01*
G37*
G04 #@! TD*
G04 #@! TO.C,J801*
G36*
G01*
X217254635Y-36050800D02*
X215945365Y-36050800D01*
G75*
G02*
X215674200Y-35779635I0J271165D01*
G01*
X215674200Y-35020365D01*
G75*
G02*
X215945365Y-34749200I271165J0D01*
G01*
X217254635Y-34749200D01*
G75*
G02*
X217525800Y-35020365I0J-271165D01*
G01*
X217525800Y-35779635D01*
G75*
G02*
X217254635Y-36050800I-271165J0D01*
G01*
G37*
D26*
X216600000Y-33400000D03*
G04 #@! TD*
G04 #@! TO.C,JP104*
G36*
G01*
X153400800Y-65350000D02*
X153400800Y-67050000D01*
G75*
G02*
X153350000Y-67100800I-50800J0D01*
G01*
X151650000Y-67100800D01*
G75*
G02*
X151599200Y-67050000I0J50800D01*
G01*
X151599200Y-65350000D01*
G75*
G02*
X151650000Y-65299200I50800J0D01*
G01*
X153350000Y-65299200D01*
G75*
G02*
X153400800Y-65350000I0J-50800D01*
G01*
G37*
D11*
X152500000Y-63660000D03*
X152500000Y-61120000D03*
G04 #@! TD*
D27*
G04 #@! TO.C,MK101*
X119380000Y-10287000D03*
G04 #@! TD*
G04 #@! TO.C,MK102*
X219710000Y-10287000D03*
G04 #@! TD*
G04 #@! TO.C,MK103*
X219710000Y-110617000D03*
G04 #@! TD*
G04 #@! TO.C,MK104*
X119380000Y-110617000D03*
G04 #@! TD*
D22*
G04 #@! TO.C,JP103*
G36*
X208340089Y-88399824D02*
G01*
X208330560Y-88396933D01*
X208321777Y-88392239D01*
X208314079Y-88385921D01*
X208307761Y-88378223D01*
X208303067Y-88369440D01*
X208300176Y-88359911D01*
X208299200Y-88350000D01*
X208299200Y-86850000D01*
X208300176Y-86840089D01*
X208303067Y-86830560D01*
X208307761Y-86821777D01*
X208314079Y-86814079D01*
X208321777Y-86807761D01*
X208330560Y-86803067D01*
X208340089Y-86800176D01*
X208350000Y-86799200D01*
X208850000Y-86799200D01*
X208856113Y-86799802D01*
X208874534Y-86799802D01*
X208879514Y-86800047D01*
X208928345Y-86804857D01*
X208933275Y-86805588D01*
X208981400Y-86815160D01*
X208986237Y-86816372D01*
X209033192Y-86830616D01*
X209037885Y-86832295D01*
X209083218Y-86851072D01*
X209087726Y-86853204D01*
X209130999Y-86876335D01*
X209135273Y-86878897D01*
X209176072Y-86906157D01*
X209180077Y-86909127D01*
X209218006Y-86940255D01*
X209221700Y-86943603D01*
X209256397Y-86978300D01*
X209259745Y-86981994D01*
X209290873Y-87019923D01*
X209293843Y-87023928D01*
X209321103Y-87064727D01*
X209323665Y-87069001D01*
X209346796Y-87112274D01*
X209348928Y-87116782D01*
X209367705Y-87162115D01*
X209369384Y-87166808D01*
X209383628Y-87213763D01*
X209384840Y-87218600D01*
X209394412Y-87266725D01*
X209395143Y-87271655D01*
X209399953Y-87320486D01*
X209400198Y-87325466D01*
X209400198Y-87343887D01*
X209400800Y-87350000D01*
X209400800Y-87850000D01*
X209400198Y-87856113D01*
X209400198Y-87874534D01*
X209399953Y-87879514D01*
X209395143Y-87928345D01*
X209394412Y-87933275D01*
X209384840Y-87981400D01*
X209383628Y-87986237D01*
X209369384Y-88033192D01*
X209367705Y-88037885D01*
X209348928Y-88083218D01*
X209346796Y-88087726D01*
X209323665Y-88130999D01*
X209321103Y-88135273D01*
X209293843Y-88176072D01*
X209290873Y-88180077D01*
X209259745Y-88218006D01*
X209256397Y-88221700D01*
X209221700Y-88256397D01*
X209218006Y-88259745D01*
X209180077Y-88290873D01*
X209176072Y-88293843D01*
X209135273Y-88321103D01*
X209130999Y-88323665D01*
X209087726Y-88346796D01*
X209083218Y-88348928D01*
X209037885Y-88367705D01*
X209033192Y-88369384D01*
X208986237Y-88383628D01*
X208981400Y-88384840D01*
X208933275Y-88394412D01*
X208928345Y-88395143D01*
X208879514Y-88399953D01*
X208874534Y-88400198D01*
X208856113Y-88400198D01*
X208850000Y-88400800D01*
X208350000Y-88400800D01*
X208340089Y-88399824D01*
G37*
G36*
X207543887Y-88400198D02*
G01*
X207525466Y-88400198D01*
X207520486Y-88399953D01*
X207471655Y-88395143D01*
X207466725Y-88394412D01*
X207418600Y-88384840D01*
X207413763Y-88383628D01*
X207366808Y-88369384D01*
X207362115Y-88367705D01*
X207316782Y-88348928D01*
X207312274Y-88346796D01*
X207269001Y-88323665D01*
X207264727Y-88321103D01*
X207223928Y-88293843D01*
X207219923Y-88290873D01*
X207181994Y-88259745D01*
X207178300Y-88256397D01*
X207143603Y-88221700D01*
X207140255Y-88218006D01*
X207109127Y-88180077D01*
X207106157Y-88176072D01*
X207078897Y-88135273D01*
X207076335Y-88130999D01*
X207053204Y-88087726D01*
X207051072Y-88083218D01*
X207032295Y-88037885D01*
X207030616Y-88033192D01*
X207016372Y-87986237D01*
X207015160Y-87981400D01*
X207005588Y-87933275D01*
X207004857Y-87928345D01*
X207000047Y-87879514D01*
X206999802Y-87874534D01*
X206999802Y-87856113D01*
X206999200Y-87850000D01*
X206999200Y-87350000D01*
X206999802Y-87343887D01*
X206999802Y-87325466D01*
X207000047Y-87320486D01*
X207004857Y-87271655D01*
X207005588Y-87266725D01*
X207015160Y-87218600D01*
X207016372Y-87213763D01*
X207030616Y-87166808D01*
X207032295Y-87162115D01*
X207051072Y-87116782D01*
X207053204Y-87112274D01*
X207076335Y-87069001D01*
X207078897Y-87064727D01*
X207106157Y-87023928D01*
X207109127Y-87019923D01*
X207140255Y-86981994D01*
X207143603Y-86978300D01*
X207178300Y-86943603D01*
X207181994Y-86940255D01*
X207219923Y-86909127D01*
X207223928Y-86906157D01*
X207264727Y-86878897D01*
X207269001Y-86876335D01*
X207312274Y-86853204D01*
X207316782Y-86851072D01*
X207362115Y-86832295D01*
X207366808Y-86830616D01*
X207413763Y-86816372D01*
X207418600Y-86815160D01*
X207466725Y-86805588D01*
X207471655Y-86804857D01*
X207520486Y-86800047D01*
X207525466Y-86799802D01*
X207543887Y-86799802D01*
X207550000Y-86799200D01*
X208050000Y-86799200D01*
X208059911Y-86800176D01*
X208069440Y-86803067D01*
X208078223Y-86807761D01*
X208085921Y-86814079D01*
X208092239Y-86821777D01*
X208096933Y-86830560D01*
X208099824Y-86840089D01*
X208100800Y-86850000D01*
X208100800Y-88350000D01*
X208099824Y-88359911D01*
X208096933Y-88369440D01*
X208092239Y-88378223D01*
X208085921Y-88385921D01*
X208078223Y-88392239D01*
X208069440Y-88396933D01*
X208059911Y-88399824D01*
X208050000Y-88400800D01*
X207550000Y-88400800D01*
X207543887Y-88400198D01*
G37*
G04 #@! TD*
D28*
G04 #@! TO.C,U104*
X178129540Y-74260960D03*
D14*
X178229540Y-70385959D03*
X210229539Y-54160961D03*
D28*
X180669540Y-74260960D03*
X183209540Y-74260960D03*
X185749540Y-74260960D03*
X188289540Y-74260960D03*
X190829540Y-74260960D03*
X193369540Y-74260960D03*
G04 #@! TD*
G04 #@! TO.C,R812*
G36*
G01*
X203975800Y-32399600D02*
X203975800Y-33000400D01*
G75*
G02*
X203750400Y-33225800I-225400J0D01*
G01*
X203299600Y-33225800D01*
G75*
G02*
X203074200Y-33000400I0J225400D01*
G01*
X203074200Y-32399600D01*
G75*
G02*
X203299600Y-32174200I225400J0D01*
G01*
X203750400Y-32174200D01*
G75*
G02*
X203975800Y-32399600I0J-225400D01*
G01*
G37*
G36*
G01*
X202325800Y-32399600D02*
X202325800Y-33000400D01*
G75*
G02*
X202100400Y-33225800I-225400J0D01*
G01*
X201649600Y-33225800D01*
G75*
G02*
X201424200Y-33000400I0J225400D01*
G01*
X201424200Y-32399600D01*
G75*
G02*
X201649600Y-32174200I225400J0D01*
G01*
X202100400Y-32174200D01*
G75*
G02*
X202325800Y-32399600I0J-225400D01*
G01*
G37*
G04 #@! TD*
G04 #@! TO.C,R813*
G36*
G01*
X199325800Y-32399600D02*
X199325800Y-33000400D01*
G75*
G02*
X199100400Y-33225800I-225400J0D01*
G01*
X198649600Y-33225800D01*
G75*
G02*
X198424200Y-33000400I0J225400D01*
G01*
X198424200Y-32399600D01*
G75*
G02*
X198649600Y-32174200I225400J0D01*
G01*
X199100400Y-32174200D01*
G75*
G02*
X199325800Y-32399600I0J-225400D01*
G01*
G37*
G36*
G01*
X200975800Y-32399600D02*
X200975800Y-33000400D01*
G75*
G02*
X200750400Y-33225800I-225400J0D01*
G01*
X200299600Y-33225800D01*
G75*
G02*
X200074200Y-33000400I0J225400D01*
G01*
X200074200Y-32399600D01*
G75*
G02*
X200299600Y-32174200I225400J0D01*
G01*
X200750400Y-32174200D01*
G75*
G02*
X200975800Y-32399600I0J-225400D01*
G01*
G37*
G04 #@! TD*
G04 #@! TO.C,C317*
G36*
G01*
X177775400Y-42175800D02*
X177224600Y-42175800D01*
G75*
G02*
X176974200Y-41925400I0J250400D01*
G01*
X176974200Y-41424600D01*
G75*
G02*
X177224600Y-41174200I250400J0D01*
G01*
X177775400Y-41174200D01*
G75*
G02*
X178025800Y-41424600I0J-250400D01*
G01*
X178025800Y-41925400D01*
G75*
G02*
X177775400Y-42175800I-250400J0D01*
G01*
G37*
G36*
G01*
X177775400Y-40625800D02*
X177224600Y-40625800D01*
G75*
G02*
X176974200Y-40375400I0J250400D01*
G01*
X176974200Y-39874600D01*
G75*
G02*
X177224600Y-39624200I250400J0D01*
G01*
X177775400Y-39624200D01*
G75*
G02*
X178025800Y-39874600I0J-250400D01*
G01*
X178025800Y-40375400D01*
G75*
G02*
X177775400Y-40625800I-250400J0D01*
G01*
G37*
G04 #@! TD*
G04 #@! TO.C,R302*
G36*
G01*
X180575800Y-48639600D02*
X180575800Y-49240400D01*
G75*
G02*
X180350400Y-49465800I-225400J0D01*
G01*
X179899600Y-49465800D01*
G75*
G02*
X179674200Y-49240400I0J225400D01*
G01*
X179674200Y-48639600D01*
G75*
G02*
X179899600Y-48414200I225400J0D01*
G01*
X180350400Y-48414200D01*
G75*
G02*
X180575800Y-48639600I0J-225400D01*
G01*
G37*
G36*
G01*
X178925800Y-48639600D02*
X178925800Y-49240400D01*
G75*
G02*
X178700400Y-49465800I-225400J0D01*
G01*
X178249600Y-49465800D01*
G75*
G02*
X178024200Y-49240400I0J225400D01*
G01*
X178024200Y-48639600D01*
G75*
G02*
X178249600Y-48414200I225400J0D01*
G01*
X178700400Y-48414200D01*
G75*
G02*
X178925800Y-48639600I0J-225400D01*
G01*
G37*
G04 #@! TD*
G04 #@! TO.C,R326*
G36*
G01*
X146524200Y-36470400D02*
X146524200Y-35869600D01*
G75*
G02*
X146749600Y-35644200I225400J0D01*
G01*
X147200400Y-35644200D01*
G75*
G02*
X147425800Y-35869600I0J-225400D01*
G01*
X147425800Y-36470400D01*
G75*
G02*
X147200400Y-36695800I-225400J0D01*
G01*
X146749600Y-36695800D01*
G75*
G02*
X146524200Y-36470400I0J225400D01*
G01*
G37*
G36*
G01*
X148174200Y-36470400D02*
X148174200Y-35869600D01*
G75*
G02*
X148399600Y-35644200I225400J0D01*
G01*
X148850400Y-35644200D01*
G75*
G02*
X149075800Y-35869600I0J-225400D01*
G01*
X149075800Y-36470400D01*
G75*
G02*
X148850400Y-36695800I-225400J0D01*
G01*
X148399600Y-36695800D01*
G75*
G02*
X148174200Y-36470400I0J225400D01*
G01*
G37*
G04 #@! TD*
M02*
