  0
SECTION
  2
HEADER
  9
$ANGBASE
  50
0.0
  9
$ANGDIR
  70
1
  9
$MEASUREMENT
  70
0
  0
ENDSEC
  0
SECTION
  2
TABLES
  0
TABLE
  2
LTYPE
  70
4
  0
LTYPE
  5
40F
  2
CONTINUOUS
  70
0
  3
Solid line
  72
65
  73
0
  40
0.0
  0
LTYPE
  5
410
  2
DASHDOT
 70
0
  3
Dash Dot ____ _ ____ _
 72
65
 73
4
 40
2.0
 49
1.25
 49
-0.25
 49
0.25
 49
-0.25
  0
LTYPE
  5
411
  2
DASHED
 70
0
  3
Dashed __ __ __ __ __
 72
65
 73
2
 40
0.75
 49
0.5
 49
-0.25
  0
LTYPE
  5
43B
  2
DOTTED
 70
0
  3
Dotted .  .  .  .
 72
65
 73
2
 40
0.2
 49
0.0
 49
-0.2
  0
ENDTAB
  0
TABLE
  2
STYLE
  70
4
  0
STYLE
  2
KICAD
  70
0
  40
0
  41
1
  42
1
  50
0
  71
0
  3
isocp.shx
  0
STYLE
  2
KICADB
  70
0
  40
0
  41
1
  42
1
  50
0
  71
0
  3
isocp.shx
  0
STYLE
  2
KICADI
  70
0
  40
0
  41
1
  42
1
  50
15
  71
0
  3
isocp.shx
  0
STYLE
  2
KICADBI
  70
0
  40
0
  41
1
  42
1
  50
15
  71
0
  3
isocp.shx
  0
ENDTAB
  0
TABLE
  2
LAYER
  70
1
  0
LAYER
  2
BLACK
  70
0
  62
7
  6
CONTINUOUS
  0
ENDTAB
  0
ENDSEC
  0
SECTION
  2
ENTITIES
0
LINE
8
BLACK
6
CONTINUOUS
10
8.8
20
-4.505
11
8.8
21
-0.255
0
LINE
8
BLACK
6
CONTINUOUS
10
4.55
20
-4.505
11
8.8
21
-4.505
0
LINE
8
BLACK
6
CONTINUOUS
10
4.55
20
-0.255
11
4.55
21
-4.505
0
LINE
8
BLACK
6
CONTINUOUS
10
8.8
20
-0.255
11
4.55
21
-0.255
0
LINE
8
BLACK
6
CONTINUOUS
10
4.88852
20
-2.58734
11
4.91805
21
-2.61687
0
LINE
8
BLACK
6
CONTINUOUS
10
4.91805
20
-2.58734
11
4.88852
21
-2.61687
0
CIRCLE
8
BLACK
10
4.7975
20
-2.49632
40
0.0206693
0
LINE
8
BLACK
6
CONTINUOUS
10
7.01691
20
-2.73567
11
7.01691
21
-2.80653
0
LINE
8
BLACK
6
CONTINUOUS
10
6.98148
20
-2.7711
11
7.05234
21
-2.7711
0
LINE
8
BLACK
6
CONTINUOUS
10
8.27675
20
-2.09689
11
8.27675
21
-2.16775
0
LINE
8
BLACK
6
CONTINUOUS
10
8.24132
20
-2.13232
11
8.31219
21
-2.13232
0
LINE
8
BLACK
6
CONTINUOUS
10
5.57047
20
-1.46142
11
5.57047
21
-1.38347
0
LINE
8
BLACK
6
CONTINUOUS
10
5.57047
20
-1.38347
11
5.49252
21
-1.38347
0
LINE
8
BLACK
6
CONTINUOUS
10
5.49252
20
-1.38347
11
5.49252
21
-1.46142
0
LINE
8
BLACK
6
CONTINUOUS
10
5.49252
20
-1.46142
11
5.57047
21
-1.46142
0
LINE
8
BLACK
6
CONTINUOUS
10
5.57047
20
-3.66614
11
5.57047
21
-3.58819
0
LINE
8
BLACK
6
CONTINUOUS
10
5.57047
20
-3.58819
11
5.49252
21
-3.58819
0
LINE
8
BLACK
6
CONTINUOUS
10
5.49252
20
-3.58819
11
5.49252
21
-3.66614
0
LINE
8
BLACK
6
CONTINUOUS
10
5.49252
20
-3.66614
11
5.57047
21
-3.66614
0
LINE
8
BLACK
6
CONTINUOUS
10
6.11378
20
-0.717717
11
6.17677
21
-0.654724
0
LINE
8
BLACK
6
CONTINUOUS
10
6.17677
20
-0.654724
11
6.11378
21
-0.591732
0
LINE
8
BLACK
6
CONTINUOUS
10
6.11378
20
-0.591732
11
6.05079
21
-0.654724
0
LINE
8
BLACK
6
CONTINUOUS
10
6.05079
20
-0.654724
11
6.11378
21
-0.717717
0
LINE
8
BLACK
6
CONTINUOUS
10
6.56378
20
-0.717717
11
6.62677
21
-0.654724
0
LINE
8
BLACK
6
CONTINUOUS
10
6.62677
20
-0.654724
11
6.56378
21
-0.591732
0
LINE
8
BLACK
6
CONTINUOUS
10
6.56378
20
-0.591732
11
6.50079
21
-0.654724
0
LINE
8
BLACK
6
CONTINUOUS
10
6.50079
20
-0.654724
11
6.56378
21
-0.717717
0
LINE
8
BLACK
6
CONTINUOUS
10
5.56151
20
-4.25536
11
5.71584
21
-4.40969
0
LINE
8
BLACK
6
CONTINUOUS
10
5.71584
20
-4.25536
11
5.56151
21
-4.40969
0
CIRCLE
8
BLACK
10
5.63867
20
-4.33252
40
0.0771654
0
LINE
8
BLACK
6
CONTINUOUS
10
6.34099
20
-3.47587
11
6.49532
21
-3.6302
0
LINE
8
BLACK
6
CONTINUOUS
10
6.49532
20
-3.47587
11
6.34099
21
-3.6302
0
CIRCLE
8
BLACK
10
6.41816
20
-3.55304
40
0.0771654
0
LINE
8
BLACK
6
CONTINUOUS
10
4.6608
20
-4.69032
11
4.6608
21
-4.57221
0
LINE
8
BLACK
6
CONTINUOUS
10
4.6608
20
-4.57221
11
4.68892
21
-4.57221
0
LINE
8
BLACK
6
CONTINUOUS
10
4.68892
20
-4.57221
11
4.70579
21
-4.57783
0
LINE
8
BLACK
6
CONTINUOUS
10
4.70579
20
-4.57783
11
4.71704
21
-4.58908
0
LINE
8
BLACK
6
CONTINUOUS
10
4.71704
20
-4.58908
11
4.72267
21
-4.60033
0
LINE
8
BLACK
6
CONTINUOUS
10
4.72267
20
-4.60033
11
4.72829
21
-4.62283
0
LINE
8
BLACK
6
CONTINUOUS
10
4.72829
20
-4.62283
11
4.72829
21
-4.6397
0
LINE
8
BLACK
6
CONTINUOUS
10
4.72829
20
-4.6397
11
4.72267
21
-4.6622
0
LINE
8
BLACK
6
CONTINUOUS
10
4.72267
20
-4.6622
11
4.71704
21
-4.67345
0
LINE
8
BLACK
6
CONTINUOUS
10
4.71704
20
-4.67345
11
4.70579
21
-4.6847
0
LINE
8
BLACK
6
CONTINUOUS
10
4.70579
20
-4.6847
11
4.68892
21
-4.69032
0
LINE
8
BLACK
6
CONTINUOUS
10
4.68892
20
-4.69032
11
4.6608
21
-4.69032
0
LINE
8
BLACK
6
CONTINUOUS
10
4.77891
20
-4.69032
11
4.77891
21
-4.61158
0
LINE
8
BLACK
6
CONTINUOUS
10
4.77891
20
-4.63408
11
4.78453
21
-4.62283
0
LINE
8
BLACK
6
CONTINUOUS
10
4.78453
20
-4.62283
11
4.79016
21
-4.6172
0
LINE
8
BLACK
6
CONTINUOUS
10
4.79016
20
-4.6172
11
4.80141
21
-4.61158
0
LINE
8
BLACK
6
CONTINUOUS
10
4.80141
20
-4.61158
11
4.81265
21
-4.61158
0
LINE
8
BLACK
6
CONTINUOUS
10
4.85202
20
-4.69032
11
4.85202
21
-4.61158
0
LINE
8
BLACK
6
CONTINUOUS
10
4.85202
20
-4.57221
11
4.8464
21
-4.57783
0
LINE
8
BLACK
6
CONTINUOUS
10
4.8464
20
-4.57783
11
4.85202
21
-4.58346
0
LINE
8
BLACK
6
CONTINUOUS
10
4.85202
20
-4.58346
11
4.85765
21
-4.57783
0
LINE
8
BLACK
6
CONTINUOUS
10
4.85765
20
-4.57783
11
4.85202
21
-4.57221
0
LINE
8
BLACK
6
CONTINUOUS
10
4.85202
20
-4.57221
11
4.85202
21
-4.58346
0
LINE
8
BLACK
6
CONTINUOUS
10
4.92514
20
-4.69032
11
4.91389
21
-4.6847
0
LINE
8
BLACK
6
CONTINUOUS
10
4.91389
20
-4.6847
11
4.90827
21
-4.67345
0
LINE
8
BLACK
6
CONTINUOUS
10
4.90827
20
-4.67345
11
4.90827
21
-4.57221
0
LINE
8
BLACK
6
CONTINUOUS
10
4.98701
20
-4.69032
11
4.97576
21
-4.6847
0
LINE
8
BLACK
6
CONTINUOUS
10
4.97576
20
-4.6847
11
4.97013
21
-4.67345
0
LINE
8
BLACK
6
CONTINUOUS
10
4.97013
20
-4.67345
11
4.97013
21
-4.57221
0
LINE
8
BLACK
6
CONTINUOUS
10
5.12199
20
-4.69032
11
5.12199
21
-4.57221
0
LINE
8
BLACK
6
CONTINUOUS
10
5.12199
20
-4.57221
11
5.16136
21
-4.65657
0
LINE
8
BLACK
6
CONTINUOUS
10
5.16136
20
-4.65657
11
5.20073
21
-4.57221
0
LINE
8
BLACK
6
CONTINUOUS
10
5.20073
20
-4.57221
11
5.20073
21
-4.69032
0
LINE
8
BLACK
6
CONTINUOUS
10
5.30759
20
-4.69032
11
5.30759
21
-4.62845
0
LINE
8
BLACK
6
CONTINUOUS
10
5.30759
20
-4.62845
11
5.30197
21
-4.6172
0
LINE
8
BLACK
6
CONTINUOUS
10
5.30197
20
-4.6172
11
5.29072
21
-4.61158
0
LINE
8
BLACK
6
CONTINUOUS
10
5.29072
20
-4.61158
11
5.26822
21
-4.61158
0
LINE
8
BLACK
6
CONTINUOUS
10
5.26822
20
-4.61158
11
5.25697
21
-4.6172
0
LINE
8
BLACK
6
CONTINUOUS
10
5.30759
20
-4.6847
11
5.29634
21
-4.69032
0
LINE
8
BLACK
6
CONTINUOUS
10
5.29634
20
-4.69032
11
5.26822
21
-4.69032
0
LINE
8
BLACK
6
CONTINUOUS
10
5.26822
20
-4.69032
11
5.25697
21
-4.6847
0
LINE
8
BLACK
6
CONTINUOUS
10
5.25697
20
-4.6847
11
5.25135
21
-4.67345
0
LINE
8
BLACK
6
CONTINUOUS
10
5.25135
20
-4.67345
11
5.25135
21
-4.6622
0
LINE
8
BLACK
6
CONTINUOUS
10
5.25135
20
-4.6622
11
5.25697
21
-4.65095
0
LINE
8
BLACK
6
CONTINUOUS
10
5.25697
20
-4.65095
11
5.26822
21
-4.64533
0
LINE
8
BLACK
6
CONTINUOUS
10
5.26822
20
-4.64533
11
5.29634
21
-4.64533
0
LINE
8
BLACK
6
CONTINUOUS
10
5.29634
20
-4.64533
11
5.30759
21
-4.6397
0
LINE
8
BLACK
6
CONTINUOUS
10
5.36384
20
-4.61158
11
5.36384
21
-4.72969
0
LINE
8
BLACK
6
CONTINUOUS
10
5.36384
20
-4.6172
11
5.37508
21
-4.61158
0
LINE
8
BLACK
6
CONTINUOUS
10
5.37508
20
-4.61158
11
5.39758
21
-4.61158
0
LINE
8
BLACK
6
CONTINUOUS
10
5.39758
20
-4.61158
11
5.40883
21
-4.6172
0
LINE
8
BLACK
6
CONTINUOUS
10
5.40883
20
-4.6172
11
5.41445
21
-4.62283
0
LINE
8
BLACK
6
CONTINUOUS
10
5.41445
20
-4.62283
11
5.42008
21
-4.63408
0
LINE
8
BLACK
6
CONTINUOUS
10
5.42008
20
-4.63408
11
5.42008
21
-4.66782
0
LINE
8
BLACK
6
CONTINUOUS
10
5.42008
20
-4.66782
11
5.41445
21
-4.67907
0
LINE
8
BLACK
6
CONTINUOUS
10
5.41445
20
-4.67907
11
5.40883
21
-4.6847
0
LINE
8
BLACK
6
CONTINUOUS
10
5.40883
20
-4.6847
11
5.39758
21
-4.69032
0
LINE
8
BLACK
6
CONTINUOUS
10
5.39758
20
-4.69032
11
5.37508
21
-4.69032
0
LINE
8
BLACK
6
CONTINUOUS
10
5.37508
20
-4.69032
11
5.36384
21
-4.6847
0
LINE
8
BLACK
6
CONTINUOUS
10
5.4707
20
-4.67907
11
5.47632
21
-4.6847
0
LINE
8
BLACK
6
CONTINUOUS
10
5.47632
20
-4.6847
11
5.4707
21
-4.69032
0
LINE
8
BLACK
6
CONTINUOUS
10
5.4707
20
-4.69032
11
5.46507
21
-4.6847
0
LINE
8
BLACK
6
CONTINUOUS
10
5.46507
20
-4.6847
11
5.4707
21
-4.67907
0
LINE
8
BLACK
6
CONTINUOUS
10
5.4707
20
-4.67907
11
5.4707
21
-4.69032
0
LINE
8
BLACK
6
CONTINUOUS
10
5.4707
20
-4.6172
11
5.47632
21
-4.62283
0
LINE
8
BLACK
6
CONTINUOUS
10
5.47632
20
-4.62283
11
5.4707
21
-4.62845
0
LINE
8
BLACK
6
CONTINUOUS
10
5.4707
20
-4.62845
11
5.46507
21
-4.62283
0
LINE
8
BLACK
6
CONTINUOUS
10
5.46507
20
-4.62283
11
5.4707
21
-4.6172
0
LINE
8
BLACK
6
CONTINUOUS
10
5.4707
20
-4.6172
11
5.4707
21
-4.62845
0
LINE
8
BLACK
6
CONTINUOUS
10
4.5185
20
-4.87016
11
4.54803
21
-4.89969
0
LINE
8
BLACK
6
CONTINUOUS
10
4.54803
20
-4.87016
11
4.5185
21
-4.89969
0
LINE
8
BLACK
6
CONTINUOUS
10
4.6833
20
-4.82024
11
4.69454
21
-4.82024
0
LINE
8
BLACK
6
CONTINUOUS
10
4.69454
20
-4.82024
11
4.70579
21
-4.82587
0
LINE
8
BLACK
6
CONTINUOUS
10
4.70579
20
-4.82587
11
4.71142
21
-4.83149
0
LINE
8
BLACK
6
CONTINUOUS
10
4.71142
20
-4.83149
11
4.71704
21
-4.84274
0
LINE
8
BLACK
6
CONTINUOUS
10
4.71704
20
-4.84274
11
4.72267
21
-4.86524
0
LINE
8
BLACK
6
CONTINUOUS
10
4.72267
20
-4.86524
11
4.72267
21
-4.89336
0
LINE
8
BLACK
6
CONTINUOUS
10
4.72267
20
-4.89336
11
4.71704
21
-4.91585
0
LINE
8
BLACK
6
CONTINUOUS
10
4.71704
20
-4.91585
11
4.71142
21
-4.9271
0
LINE
8
BLACK
6
CONTINUOUS
10
4.71142
20
-4.9271
11
4.70579
21
-4.93273
0
LINE
8
BLACK
6
CONTINUOUS
10
4.70579
20
-4.93273
11
4.69454
21
-4.93835
0
LINE
8
BLACK
6
CONTINUOUS
10
4.69454
20
-4.93835
11
4.6833
21
-4.93835
0
LINE
8
BLACK
6
CONTINUOUS
10
4.6833
20
-4.93835
11
4.67205
21
-4.93273
0
LINE
8
BLACK
6
CONTINUOUS
10
4.67205
20
-4.93273
11
4.66642
21
-4.9271
0
LINE
8
BLACK
6
CONTINUOUS
10
4.66642
20
-4.9271
11
4.6608
21
-4.91585
0
LINE
8
BLACK
6
CONTINUOUS
10
4.6608
20
-4.91585
11
4.65517
21
-4.89336
0
LINE
8
BLACK
6
CONTINUOUS
10
4.65517
20
-4.89336
11
4.65517
21
-4.86524
0
LINE
8
BLACK
6
CONTINUOUS
10
4.65517
20
-4.86524
11
4.6608
21
-4.84274
0
LINE
8
BLACK
6
CONTINUOUS
10
4.6608
20
-4.84274
11
4.66642
21
-4.83149
0
LINE
8
BLACK
6
CONTINUOUS
10
4.66642
20
-4.83149
11
4.67205
21
-4.82587
0
LINE
8
BLACK
6
CONTINUOUS
10
4.67205
20
-4.82587
11
4.6833
21
-4.82024
0
LINE
8
BLACK
6
CONTINUOUS
10
4.77328
20
-4.9271
11
4.77891
21
-4.93273
0
LINE
8
BLACK
6
CONTINUOUS
10
4.77891
20
-4.93273
11
4.77328
21
-4.93835
0
LINE
8
BLACK
6
CONTINUOUS
10
4.77328
20
-4.93835
11
4.76766
21
-4.93273
0
LINE
8
BLACK
6
CONTINUOUS
10
4.76766
20
-4.93273
11
4.77328
21
-4.9271
0
LINE
8
BLACK
6
CONTINUOUS
10
4.77328
20
-4.9271
11
4.77328
21
-4.93835
0
LINE
8
BLACK
6
CONTINUOUS
10
4.81828
20
-4.82024
11
4.89702
21
-4.82024
0
LINE
8
BLACK
6
CONTINUOUS
10
4.89702
20
-4.82024
11
4.8464
21
-4.93835
0
LINE
8
BLACK
6
CONTINUOUS
10
4.99826
20
-4.82024
11
4.94201
21
-4.82024
0
LINE
8
BLACK
6
CONTINUOUS
10
4.94201
20
-4.82024
11
4.93639
21
-4.87648
0
LINE
8
BLACK
6
CONTINUOUS
10
4.93639
20
-4.87648
11
4.94201
21
-4.87086
0
LINE
8
BLACK
6
CONTINUOUS
10
4.94201
20
-4.87086
11
4.95326
21
-4.86524
0
LINE
8
BLACK
6
CONTINUOUS
10
4.95326
20
-4.86524
11
4.98138
21
-4.86524
0
LINE
8
BLACK
6
CONTINUOUS
10
4.98138
20
-4.86524
11
4.99263
21
-4.87086
0
LINE
8
BLACK
6
CONTINUOUS
10
4.99263
20
-4.87086
11
4.99826
21
-4.87648
0
LINE
8
BLACK
6
CONTINUOUS
10
4.99826
20
-4.87648
11
5.00388
21
-4.88773
0
LINE
8
BLACK
6
CONTINUOUS
10
5.00388
20
-4.88773
11
5.00388
21
-4.91585
0
LINE
8
BLACK
6
CONTINUOUS
10
5.00388
20
-4.91585
11
4.99826
21
-4.9271
0
LINE
8
BLACK
6
CONTINUOUS
10
4.99826
20
-4.9271
11
4.99263
21
-4.93273
0
LINE
8
BLACK
6
CONTINUOUS
10
4.99263
20
-4.93273
11
4.98138
21
-4.93835
0
LINE
8
BLACK
6
CONTINUOUS
10
4.98138
20
-4.93835
11
4.95326
21
-4.93835
0
LINE
8
BLACK
6
CONTINUOUS
10
4.95326
20
-4.93835
11
4.94201
21
-4.93273
0
LINE
8
BLACK
6
CONTINUOUS
10
4.94201
20
-4.93273
11
4.93639
21
-4.9271
0
LINE
8
BLACK
6
CONTINUOUS
10
5.0545
20
-4.93835
11
5.0545
21
-4.85961
0
LINE
8
BLACK
6
CONTINUOUS
10
5.0545
20
-4.87086
11
5.06012
21
-4.86524
0
LINE
8
BLACK
6
CONTINUOUS
10
5.06012
20
-4.86524
11
5.07137
21
-4.85961
0
LINE
8
BLACK
6
CONTINUOUS
10
5.07137
20
-4.85961
11
5.08825
21
-4.85961
0
LINE
8
BLACK
6
CONTINUOUS
10
5.08825
20
-4.85961
11
5.09949
21
-4.86524
0
LINE
8
BLACK
6
CONTINUOUS
10
5.09949
20
-4.86524
11
5.10512
21
-4.87648
0
LINE
8
BLACK
6
CONTINUOUS
10
5.10512
20
-4.87648
11
5.10512
21
-4.93835
0
LINE
8
BLACK
6
CONTINUOUS
10
5.10512
20
-4.87648
11
5.11074
21
-4.86524
0
LINE
8
BLACK
6
CONTINUOUS
10
5.11074
20
-4.86524
11
5.12199
21
-4.85961
0
LINE
8
BLACK
6
CONTINUOUS
10
5.12199
20
-4.85961
11
5.13886
21
-4.85961
0
LINE
8
BLACK
6
CONTINUOUS
10
5.13886
20
-4.85961
11
5.15011
21
-4.86524
0
LINE
8
BLACK
6
CONTINUOUS
10
5.15011
20
-4.86524
11
5.15574
21
-4.87648
0
LINE
8
BLACK
6
CONTINUOUS
10
5.15574
20
-4.87648
11
5.15574
21
-4.93835
0
LINE
8
BLACK
6
CONTINUOUS
10
5.21198
20
-4.93835
11
5.21198
21
-4.85961
0
LINE
8
BLACK
6
CONTINUOUS
10
5.21198
20
-4.87086
11
5.2176
21
-4.86524
0
LINE
8
BLACK
6
CONTINUOUS
10
5.2176
20
-4.86524
11
5.22885
21
-4.85961
0
LINE
8
BLACK
6
CONTINUOUS
10
5.22885
20
-4.85961
11
5.24573
21
-4.85961
0
LINE
8
BLACK
6
CONTINUOUS
10
5.24573
20
-4.85961
11
5.25697
21
-4.86524
0
LINE
8
BLACK
6
CONTINUOUS
10
5.25697
20
-4.86524
11
5.2626
21
-4.87648
0
LINE
8
BLACK
6
CONTINUOUS
10
5.2626
20
-4.87648
11
5.2626
21
-4.93835
0
LINE
8
BLACK
6
CONTINUOUS
10
5.2626
20
-4.87648
11
5.26822
21
-4.86524
0
LINE
8
BLACK
6
CONTINUOUS
10
5.26822
20
-4.86524
11
5.27947
21
-4.85961
0
LINE
8
BLACK
6
CONTINUOUS
10
5.27947
20
-4.85961
11
5.29634
21
-4.85961
0
LINE
8
BLACK
6
CONTINUOUS
10
5.29634
20
-4.85961
11
5.30759
21
-4.86524
0
LINE
8
BLACK
6
CONTINUOUS
10
5.30759
20
-4.86524
11
5.31322
21
-4.87648
0
LINE
8
BLACK
6
CONTINUOUS
10
5.31322
20
-4.87648
11
5.31322
21
-4.93835
0
LINE
8
BLACK
6
CONTINUOUS
10
5.54381
20
-4.81462
11
5.44258
21
-4.96647
0
LINE
8
BLACK
6
CONTINUOUS
10
5.69567
20
-4.82024
11
5.70692
21
-4.82024
0
LINE
8
BLACK
6
CONTINUOUS
10
5.70692
20
-4.82024
11
5.71817
21
-4.82587
0
LINE
8
BLACK
6
CONTINUOUS
10
5.71817
20
-4.82587
11
5.72379
21
-4.83149
0
LINE
8
BLACK
6
CONTINUOUS
10
5.72379
20
-4.83149
11
5.72941
21
-4.84274
0
LINE
8
BLACK
6
CONTINUOUS
10
5.72941
20
-4.84274
11
5.73504
21
-4.86524
0
LINE
8
BLACK
6
CONTINUOUS
10
5.73504
20
-4.86524
11
5.73504
21
-4.89336
0
LINE
8
BLACK
6
CONTINUOUS
10
5.73504
20
-4.89336
11
5.72941
21
-4.91585
0
LINE
8
BLACK
6
CONTINUOUS
10
5.72941
20
-4.91585
11
5.72379
21
-4.9271
0
LINE
8
BLACK
6
CONTINUOUS
10
5.72379
20
-4.9271
11
5.71817
21
-4.93273
0
LINE
8
BLACK
6
CONTINUOUS
10
5.71817
20
-4.93273
11
5.70692
21
-4.93835
0
LINE
8
BLACK
6
CONTINUOUS
10
5.70692
20
-4.93835
11
5.69567
21
-4.93835
0
LINE
8
BLACK
6
CONTINUOUS
10
5.69567
20
-4.93835
11
5.68442
21
-4.93273
0
LINE
8
BLACK
6
CONTINUOUS
10
5.68442
20
-4.93273
11
5.6788
21
-4.9271
0
LINE
8
BLACK
6
CONTINUOUS
10
5.6788
20
-4.9271
11
5.67317
21
-4.91585
0
LINE
8
BLACK
6
CONTINUOUS
10
5.67317
20
-4.91585
11
5.66755
21
-4.89336
0
LINE
8
BLACK
6
CONTINUOUS
10
5.66755
20
-4.89336
11
5.66755
21
-4.86524
0
LINE
8
BLACK
6
CONTINUOUS
10
5.66755
20
-4.86524
11
5.67317
21
-4.84274
0
LINE
8
BLACK
6
CONTINUOUS
10
5.67317
20
-4.84274
11
5.6788
21
-4.83149
0
LINE
8
BLACK
6
CONTINUOUS
10
5.6788
20
-4.83149
11
5.68442
21
-4.82587
0
LINE
8
BLACK
6
CONTINUOUS
10
5.68442
20
-4.82587
11
5.69567
21
-4.82024
0
LINE
8
BLACK
6
CONTINUOUS
10
5.78566
20
-4.9271
11
5.79128
21
-4.93273
0
LINE
8
BLACK
6
CONTINUOUS
10
5.79128
20
-4.93273
11
5.78566
21
-4.93835
0
LINE
8
BLACK
6
CONTINUOUS
10
5.78566
20
-4.93835
11
5.78003
21
-4.93273
0
LINE
8
BLACK
6
CONTINUOUS
10
5.78003
20
-4.93273
11
5.78566
21
-4.9271
0
LINE
8
BLACK
6
CONTINUOUS
10
5.78566
20
-4.9271
11
5.78566
21
-4.93835
0
LINE
8
BLACK
6
CONTINUOUS
10
5.8644
20
-4.82024
11
5.87565
21
-4.82024
0
LINE
8
BLACK
6
CONTINUOUS
10
5.87565
20
-4.82024
11
5.8869
21
-4.82587
0
LINE
8
BLACK
6
CONTINUOUS
10
5.8869
20
-4.82587
11
5.89252
21
-4.83149
0
LINE
8
BLACK
6
CONTINUOUS
10
5.89252
20
-4.83149
11
5.89814
21
-4.84274
0
LINE
8
BLACK
6
CONTINUOUS
10
5.89814
20
-4.84274
11
5.90377
21
-4.86524
0
LINE
8
BLACK
6
CONTINUOUS
10
5.90377
20
-4.86524
11
5.90377
21
-4.89336
0
LINE
8
BLACK
6
CONTINUOUS
10
5.90377
20
-4.89336
11
5.89814
21
-4.91585
0
LINE
8
BLACK
6
CONTINUOUS
10
5.89814
20
-4.91585
11
5.89252
21
-4.9271
0
LINE
8
BLACK
6
CONTINUOUS
10
5.89252
20
-4.9271
11
5.8869
21
-4.93273
0
LINE
8
BLACK
6
CONTINUOUS
10
5.8869
20
-4.93273
11
5.87565
21
-4.93835
0
LINE
8
BLACK
6
CONTINUOUS
10
5.87565
20
-4.93835
11
5.8644
21
-4.93835
0
LINE
8
BLACK
6
CONTINUOUS
10
5.8644
20
-4.93835
11
5.85315
21
-4.93273
0
LINE
8
BLACK
6
CONTINUOUS
10
5.85315
20
-4.93273
11
5.84753
21
-4.9271
0
LINE
8
BLACK
6
CONTINUOUS
10
5.84753
20
-4.9271
11
5.8419
21
-4.91585
0
LINE
8
BLACK
6
CONTINUOUS
10
5.8419
20
-4.91585
11
5.83628
21
-4.89336
0
LINE
8
BLACK
6
CONTINUOUS
10
5.83628
20
-4.89336
11
5.83628
21
-4.86524
0
LINE
8
BLACK
6
CONTINUOUS
10
5.83628
20
-4.86524
11
5.8419
21
-4.84274
0
LINE
8
BLACK
6
CONTINUOUS
10
5.8419
20
-4.84274
11
5.84753
21
-4.83149
0
LINE
8
BLACK
6
CONTINUOUS
10
5.84753
20
-4.83149
11
5.85315
21
-4.82587
0
LINE
8
BLACK
6
CONTINUOUS
10
5.85315
20
-4.82587
11
5.8644
21
-4.82024
0
LINE
8
BLACK
6
CONTINUOUS
10
5.94314
20
-4.82024
11
6.01625
21
-4.82024
0
LINE
8
BLACK
6
CONTINUOUS
10
6.01625
20
-4.82024
11
5.97688
21
-4.86524
0
LINE
8
BLACK
6
CONTINUOUS
10
5.97688
20
-4.86524
11
5.99376
21
-4.86524
0
LINE
8
BLACK
6
CONTINUOUS
10
5.99376
20
-4.86524
11
6.00501
21
-4.87086
0
LINE
8
BLACK
6
CONTINUOUS
10
6.00501
20
-4.87086
11
6.01063
21
-4.87648
0
LINE
8
BLACK
6
CONTINUOUS
10
6.01063
20
-4.87648
11
6.01625
21
-4.88773
0
LINE
8
BLACK
6
CONTINUOUS
10
6.01625
20
-4.88773
11
6.01625
21
-4.91585
0
LINE
8
BLACK
6
CONTINUOUS
10
6.01625
20
-4.91585
11
6.01063
21
-4.9271
0
LINE
8
BLACK
6
CONTINUOUS
10
6.01063
20
-4.9271
11
6.00501
21
-4.93273
0
LINE
8
BLACK
6
CONTINUOUS
10
6.00501
20
-4.93273
11
5.99376
21
-4.93835
0
LINE
8
BLACK
6
CONTINUOUS
10
5.99376
20
-4.93835
11
5.96001
21
-4.93835
0
LINE
8
BLACK
6
CONTINUOUS
10
5.96001
20
-4.93835
11
5.94876
21
-4.93273
0
LINE
8
BLACK
6
CONTINUOUS
10
5.94876
20
-4.93273
11
5.94314
21
-4.9271
0
LINE
8
BLACK
6
CONTINUOUS
10
6.08937
20
-4.82024
11
6.10062
21
-4.82024
0
LINE
8
BLACK
6
CONTINUOUS
10
6.10062
20
-4.82024
11
6.11187
21
-4.82587
0
LINE
8
BLACK
6
CONTINUOUS
10
6.11187
20
-4.82587
11
6.11749
21
-4.83149
0
LINE
8
BLACK
6
CONTINUOUS
10
6.11749
20
-4.83149
11
6.12312
21
-4.84274
0
LINE
8
BLACK
6
CONTINUOUS
10
6.12312
20
-4.84274
11
6.12874
21
-4.86524
0
LINE
8
BLACK
6
CONTINUOUS
10
6.12874
20
-4.86524
11
6.12874
21
-4.89336
0
LINE
8
BLACK
6
CONTINUOUS
10
6.12874
20
-4.89336
11
6.12312
21
-4.91585
0
LINE
8
BLACK
6
CONTINUOUS
10
6.12312
20
-4.91585
11
6.11749
21
-4.9271
0
LINE
8
BLACK
6
CONTINUOUS
10
6.11749
20
-4.9271
11
6.11187
21
-4.93273
0
LINE
8
BLACK
6
CONTINUOUS
10
6.11187
20
-4.93273
11
6.10062
21
-4.93835
0
LINE
8
BLACK
6
CONTINUOUS
10
6.10062
20
-4.93835
11
6.08937
21
-4.93835
0
LINE
8
BLACK
6
CONTINUOUS
10
6.08937
20
-4.93835
11
6.07812
21
-4.93273
0
LINE
8
BLACK
6
CONTINUOUS
10
6.07812
20
-4.93273
11
6.0725
21
-4.9271
0
LINE
8
BLACK
6
CONTINUOUS
10
6.0725
20
-4.9271
11
6.06687
21
-4.91585
0
LINE
8
BLACK
6
CONTINUOUS
10
6.06687
20
-4.91585
11
6.06125
21
-4.89336
0
LINE
8
BLACK
6
CONTINUOUS
10
6.06125
20
-4.89336
11
6.06125
21
-4.86524
0
LINE
8
BLACK
6
CONTINUOUS
10
6.06125
20
-4.86524
11
6.06687
21
-4.84274
0
LINE
8
BLACK
6
CONTINUOUS
10
6.06687
20
-4.84274
11
6.0725
21
-4.83149
0
LINE
8
BLACK
6
CONTINUOUS
10
6.0725
20
-4.83149
11
6.07812
21
-4.82587
0
LINE
8
BLACK
6
CONTINUOUS
10
6.07812
20
-4.82587
11
6.08937
21
-4.82024
0
LINE
8
BLACK
6
CONTINUOUS
10
6.17373
20
-4.82024
11
6.17373
21
-4.84274
0
LINE
8
BLACK
6
CONTINUOUS
10
6.21873
20
-4.82024
11
6.21873
21
-4.84274
0
LINE
8
BLACK
6
CONTINUOUS
10
6.39308
20
-4.98335
11
6.38746
21
-4.97772
0
LINE
8
BLACK
6
CONTINUOUS
10
6.38746
20
-4.97772
11
6.37621
21
-4.96085
0
LINE
8
BLACK
6
CONTINUOUS
10
6.37621
20
-4.96085
11
6.37058
21
-4.9496
0
LINE
8
BLACK
6
CONTINUOUS
10
6.37058
20
-4.9496
11
6.36496
21
-4.93273
0
LINE
8
BLACK
6
CONTINUOUS
10
6.36496
20
-4.93273
11
6.35934
21
-4.90461
0
LINE
8
BLACK
6
CONTINUOUS
10
6.35934
20
-4.90461
11
6.35934
21
-4.88211
0
LINE
8
BLACK
6
CONTINUOUS
10
6.35934
20
-4.88211
11
6.36496
21
-4.85399
0
LINE
8
BLACK
6
CONTINUOUS
10
6.36496
20
-4.85399
11
6.37058
21
-4.83711
0
LINE
8
BLACK
6
CONTINUOUS
10
6.37058
20
-4.83711
11
6.37621
21
-4.82587
0
LINE
8
BLACK
6
CONTINUOUS
10
6.37621
20
-4.82587
11
6.38746
21
-4.80899
0
LINE
8
BLACK
6
CONTINUOUS
10
6.38746
20
-4.80899
11
6.39308
21
-4.80337
0
LINE
8
BLACK
6
CONTINUOUS
10
6.49994
20
-4.93835
11
6.43245
21
-4.93835
0
LINE
8
BLACK
6
CONTINUOUS
10
6.4662
20
-4.93835
11
6.4662
21
-4.82024
0
LINE
8
BLACK
6
CONTINUOUS
10
6.4662
20
-4.82024
11
6.45495
21
-4.83711
0
LINE
8
BLACK
6
CONTINUOUS
10
6.45495
20
-4.83711
11
6.4437
21
-4.84836
0
LINE
8
BLACK
6
CONTINUOUS
10
6.4437
20
-4.84836
11
6.43245
21
-4.85399
0
LINE
8
BLACK
6
CONTINUOUS
10
6.64055
20
-4.93835
11
6.64055
21
-4.82024
0
LINE
8
BLACK
6
CONTINUOUS
10
6.69117
20
-4.93835
11
6.69117
21
-4.87648
0
LINE
8
BLACK
6
CONTINUOUS
10
6.69117
20
-4.87648
11
6.68555
21
-4.86524
0
LINE
8
BLACK
6
CONTINUOUS
10
6.68555
20
-4.86524
11
6.6743
21
-4.85961
0
LINE
8
BLACK
6
CONTINUOUS
10
6.6743
20
-4.85961
11
6.65742
21
-4.85961
0
LINE
8
BLACK
6
CONTINUOUS
10
6.65742
20
-4.85961
11
6.64618
21
-4.86524
0
LINE
8
BLACK
6
CONTINUOUS
10
6.64618
20
-4.86524
11
6.64055
21
-4.87086
0
LINE
8
BLACK
6
CONTINUOUS
10
6.76429
20
-4.93835
11
6.75304
21
-4.93273
0
LINE
8
BLACK
6
CONTINUOUS
10
6.75304
20
-4.93273
11
6.74741
21
-4.9271
0
LINE
8
BLACK
6
CONTINUOUS
10
6.74741
20
-4.9271
11
6.74179
21
-4.91585
0
LINE
8
BLACK
6
CONTINUOUS
10
6.74179
20
-4.91585
11
6.74179
21
-4.88211
0
LINE
8
BLACK
6
CONTINUOUS
10
6.74179
20
-4.88211
11
6.74741
21
-4.87086
0
LINE
8
BLACK
6
CONTINUOUS
10
6.74741
20
-4.87086
11
6.75304
21
-4.86524
0
LINE
8
BLACK
6
CONTINUOUS
10
6.75304
20
-4.86524
11
6.76429
21
-4.85961
0
LINE
8
BLACK
6
CONTINUOUS
10
6.76429
20
-4.85961
11
6.78116
21
-4.85961
0
LINE
8
BLACK
6
CONTINUOUS
10
6.78116
20
-4.85961
11
6.79241
21
-4.86524
0
LINE
8
BLACK
6
CONTINUOUS
10
6.79241
20
-4.86524
11
6.79803
21
-4.87086
0
LINE
8
BLACK
6
CONTINUOUS
10
6.79803
20
-4.87086
11
6.80366
21
-4.88211
0
LINE
8
BLACK
6
CONTINUOUS
10
6.80366
20
-4.88211
11
6.80366
21
-4.91585
0
LINE
8
BLACK
6
CONTINUOUS
10
6.80366
20
-4.91585
11
6.79803
21
-4.9271
0
LINE
8
BLACK
6
CONTINUOUS
10
6.79803
20
-4.9271
11
6.79241
21
-4.93273
0
LINE
8
BLACK
6
CONTINUOUS
10
6.79241
20
-4.93273
11
6.78116
21
-4.93835
0
LINE
8
BLACK
6
CONTINUOUS
10
6.78116
20
-4.93835
11
6.76429
21
-4.93835
0
LINE
8
BLACK
6
CONTINUOUS
10
6.87115
20
-4.93835
11
6.8599
21
-4.93273
0
LINE
8
BLACK
6
CONTINUOUS
10
6.8599
20
-4.93273
11
6.85427
21
-4.92148
0
LINE
8
BLACK
6
CONTINUOUS
10
6.85427
20
-4.92148
11
6.85427
21
-4.82024
0
LINE
8
BLACK
6
CONTINUOUS
10
6.96114
20
-4.93273
11
6.94989
21
-4.93835
0
LINE
8
BLACK
6
CONTINUOUS
10
6.94989
20
-4.93835
11
6.92739
21
-4.93835
0
LINE
8
BLACK
6
CONTINUOUS
10
6.92739
20
-4.93835
11
6.91614
21
-4.93273
0
LINE
8
BLACK
6
CONTINUOUS
10
6.91614
20
-4.93273
11
6.91052
21
-4.92148
0
LINE
8
BLACK
6
CONTINUOUS
10
6.91052
20
-4.92148
11
6.91052
21
-4.87648
0
LINE
8
BLACK
6
CONTINUOUS
10
6.91052
20
-4.87648
11
6.91614
21
-4.86524
0
LINE
8
BLACK
6
CONTINUOUS
10
6.91614
20
-4.86524
11
6.92739
21
-4.85961
0
LINE
8
BLACK
6
CONTINUOUS
10
6.92739
20
-4.85961
11
6.94989
21
-4.85961
0
LINE
8
BLACK
6
CONTINUOUS
10
6.94989
20
-4.85961
11
6.96114
21
-4.86524
0
LINE
8
BLACK
6
CONTINUOUS
10
6.96114
20
-4.86524
11
6.96676
21
-4.87648
0
LINE
8
BLACK
6
CONTINUOUS
10
6.96676
20
-4.87648
11
6.96676
21
-4.88773
0
LINE
8
BLACK
6
CONTINUOUS
10
6.96676
20
-4.88773
11
6.91052
21
-4.89898
0
LINE
8
BLACK
6
CONTINUOUS
10
7.00613
20
-4.98335
11
7.01175
21
-4.97772
0
LINE
8
BLACK
6
CONTINUOUS
10
7.01175
20
-4.97772
11
7.023
21
-4.96085
0
LINE
8
BLACK
6
CONTINUOUS
10
7.023
20
-4.96085
11
7.02863
21
-4.9496
0
LINE
8
BLACK
6
CONTINUOUS
10
7.02863
20
-4.9496
11
7.03425
21
-4.93273
0
LINE
8
BLACK
6
CONTINUOUS
10
7.03425
20
-4.93273
11
7.03988
21
-4.90461
0
LINE
8
BLACK
6
CONTINUOUS
10
7.03988
20
-4.90461
11
7.03988
21
-4.88211
0
LINE
8
BLACK
6
CONTINUOUS
10
7.03988
20
-4.88211
11
7.03425
21
-4.85399
0
LINE
8
BLACK
6
CONTINUOUS
10
7.03425
20
-4.85399
11
7.02863
21
-4.83711
0
LINE
8
BLACK
6
CONTINUOUS
10
7.02863
20
-4.83711
11
7.023
21
-4.82587
0
LINE
8
BLACK
6
CONTINUOUS
10
7.023
20
-4.82587
11
7.01175
21
-4.80899
0
LINE
8
BLACK
6
CONTINUOUS
10
7.01175
20
-4.80899
11
7.00613
21
-4.80337
0
LINE
8
BLACK
6
CONTINUOUS
10
7.21985
20
-4.98335
11
7.21423
21
-4.97772
0
LINE
8
BLACK
6
CONTINUOUS
10
7.21423
20
-4.97772
11
7.20298
21
-4.96085
0
LINE
8
BLACK
6
CONTINUOUS
10
7.20298
20
-4.96085
11
7.19736
21
-4.9496
0
LINE
8
BLACK
6
CONTINUOUS
10
7.19736
20
-4.9496
11
7.19173
21
-4.93273
0
LINE
8
BLACK
6
CONTINUOUS
10
7.19173
20
-4.93273
11
7.18611
21
-4.90461
0
LINE
8
BLACK
6
CONTINUOUS
10
7.18611
20
-4.90461
11
7.18611
21
-4.88211
0
LINE
8
BLACK
6
CONTINUOUS
10
7.18611
20
-4.88211
11
7.19173
21
-4.85399
0
LINE
8
BLACK
6
CONTINUOUS
10
7.19173
20
-4.85399
11
7.19736
21
-4.83711
0
LINE
8
BLACK
6
CONTINUOUS
10
7.19736
20
-4.83711
11
7.20298
21
-4.82587
0
LINE
8
BLACK
6
CONTINUOUS
10
7.20298
20
-4.82587
11
7.21423
21
-4.80899
0
LINE
8
BLACK
6
CONTINUOUS
10
7.21423
20
-4.80899
11
7.21985
21
-4.80337
0
LINE
8
BLACK
6
CONTINUOUS
10
7.26485
20
-4.85961
11
7.26485
21
-4.93835
0
LINE
8
BLACK
6
CONTINUOUS
10
7.26485
20
-4.87086
11
7.27047
21
-4.86524
0
LINE
8
BLACK
6
CONTINUOUS
10
7.27047
20
-4.86524
11
7.28172
21
-4.85961
0
LINE
8
BLACK
6
CONTINUOUS
10
7.28172
20
-4.85961
11
7.29859
21
-4.85961
0
LINE
8
BLACK
6
CONTINUOUS
10
7.29859
20
-4.85961
11
7.30984
21
-4.86524
0
LINE
8
BLACK
6
CONTINUOUS
10
7.30984
20
-4.86524
11
7.31547
21
-4.87648
0
LINE
8
BLACK
6
CONTINUOUS
10
7.31547
20
-4.87648
11
7.31547
21
-4.93835
0
LINE
8
BLACK
6
CONTINUOUS
10
7.38858
20
-4.93835
11
7.37733
21
-4.93273
0
LINE
8
BLACK
6
CONTINUOUS
10
7.37733
20
-4.93273
11
7.37171
21
-4.9271
0
LINE
8
BLACK
6
CONTINUOUS
10
7.37171
20
-4.9271
11
7.36609
21
-4.91585
0
LINE
8
BLACK
6
CONTINUOUS
10
7.36609
20
-4.91585
11
7.36609
21
-4.88211
0
LINE
8
BLACK
6
CONTINUOUS
10
7.36609
20
-4.88211
11
7.37171
21
-4.87086
0
LINE
8
BLACK
6
CONTINUOUS
10
7.37171
20
-4.87086
11
7.37733
21
-4.86524
0
LINE
8
BLACK
6
CONTINUOUS
10
7.37733
20
-4.86524
11
7.38858
21
-4.85961
0
LINE
8
BLACK
6
CONTINUOUS
10
7.38858
20
-4.85961
11
7.40546
21
-4.85961
0
LINE
8
BLACK
6
CONTINUOUS
10
7.40546
20
-4.85961
11
7.4167
21
-4.86524
0
LINE
8
BLACK
6
CONTINUOUS
10
7.4167
20
-4.86524
11
7.42233
21
-4.87086
0
LINE
8
BLACK
6
CONTINUOUS
10
7.42233
20
-4.87086
11
7.42795
21
-4.88211
0
LINE
8
BLACK
6
CONTINUOUS
10
7.42795
20
-4.88211
11
7.42795
21
-4.91585
0
LINE
8
BLACK
6
CONTINUOUS
10
7.42795
20
-4.91585
11
7.42233
21
-4.9271
0
LINE
8
BLACK
6
CONTINUOUS
10
7.42233
20
-4.9271
11
7.4167
21
-4.93273
0
LINE
8
BLACK
6
CONTINUOUS
10
7.4167
20
-4.93273
11
7.40546
21
-4.93835
0
LINE
8
BLACK
6
CONTINUOUS
10
7.40546
20
-4.93835
11
7.38858
21
-4.93835
0
LINE
8
BLACK
6
CONTINUOUS
10
7.4617
20
-4.85961
11
7.50669
21
-4.85961
0
LINE
8
BLACK
6
CONTINUOUS
10
7.47857
20
-4.82024
11
7.47857
21
-4.92148
0
LINE
8
BLACK
6
CONTINUOUS
10
7.47857
20
-4.92148
11
7.4842
21
-4.93273
0
LINE
8
BLACK
6
CONTINUOUS
10
7.4842
20
-4.93273
11
7.49544
21
-4.93835
0
LINE
8
BLACK
6
CONTINUOUS
10
7.49544
20
-4.93835
11
7.50669
21
-4.93835
0
LINE
8
BLACK
6
CONTINUOUS
10
7.63605
20
-4.85961
11
7.63605
21
-4.97772
0
LINE
8
BLACK
6
CONTINUOUS
10
7.63605
20
-4.86524
11
7.6473
21
-4.85961
0
LINE
8
BLACK
6
CONTINUOUS
10
7.6473
20
-4.85961
11
7.6698
21
-4.85961
0
LINE
8
BLACK
6
CONTINUOUS
10
7.6698
20
-4.85961
11
7.68105
21
-4.86524
0
LINE
8
BLACK
6
CONTINUOUS
10
7.68105
20
-4.86524
11
7.68667
21
-4.87086
0
LINE
8
BLACK
6
CONTINUOUS
10
7.68667
20
-4.87086
11
7.69229
21
-4.88211
0
LINE
8
BLACK
6
CONTINUOUS
10
7.69229
20
-4.88211
11
7.69229
21
-4.91585
0
LINE
8
BLACK
6
CONTINUOUS
10
7.69229
20
-4.91585
11
7.68667
21
-4.9271
0
LINE
8
BLACK
6
CONTINUOUS
10
7.68667
20
-4.9271
11
7.68105
21
-4.93273
0
LINE
8
BLACK
6
CONTINUOUS
10
7.68105
20
-4.93273
11
7.6698
21
-4.93835
0
LINE
8
BLACK
6
CONTINUOUS
10
7.6698
20
-4.93835
11
7.6473
21
-4.93835
0
LINE
8
BLACK
6
CONTINUOUS
10
7.6473
20
-4.93835
11
7.63605
21
-4.93273
0
LINE
8
BLACK
6
CONTINUOUS
10
7.75979
20
-4.93835
11
7.74854
21
-4.93273
0
LINE
8
BLACK
6
CONTINUOUS
10
7.74854
20
-4.93273
11
7.74291
21
-4.92148
0
LINE
8
BLACK
6
CONTINUOUS
10
7.74291
20
-4.92148
11
7.74291
21
-4.82024
0
LINE
8
BLACK
6
CONTINUOUS
10
7.8554
20
-4.93835
11
7.8554
21
-4.87648
0
LINE
8
BLACK
6
CONTINUOUS
10
7.8554
20
-4.87648
11
7.84977
21
-4.86524
0
LINE
8
BLACK
6
CONTINUOUS
10
7.84977
20
-4.86524
11
7.83853
21
-4.85961
0
LINE
8
BLACK
6
CONTINUOUS
10
7.83853
20
-4.85961
11
7.81603
21
-4.85961
0
LINE
8
BLACK
6
CONTINUOUS
10
7.81603
20
-4.85961
11
7.80478
21
-4.86524
0
LINE
8
BLACK
6
CONTINUOUS
10
7.8554
20
-4.93273
11
7.84415
21
-4.93835
0
LINE
8
BLACK
6
CONTINUOUS
10
7.84415
20
-4.93835
11
7.81603
21
-4.93835
0
LINE
8
BLACK
6
CONTINUOUS
10
7.81603
20
-4.93835
11
7.80478
21
-4.93273
0
LINE
8
BLACK
6
CONTINUOUS
10
7.80478
20
-4.93273
11
7.79916
21
-4.92148
0
LINE
8
BLACK
6
CONTINUOUS
10
7.79916
20
-4.92148
11
7.79916
21
-4.91023
0
LINE
8
BLACK
6
CONTINUOUS
10
7.79916
20
-4.91023
11
7.80478
21
-4.89898
0
LINE
8
BLACK
6
CONTINUOUS
10
7.80478
20
-4.89898
11
7.81603
21
-4.89336
0
LINE
8
BLACK
6
CONTINUOUS
10
7.81603
20
-4.89336
11
7.84415
21
-4.89336
0
LINE
8
BLACK
6
CONTINUOUS
10
7.84415
20
-4.89336
11
7.8554
21
-4.88773
0
LINE
8
BLACK
6
CONTINUOUS
10
7.89477
20
-4.85961
11
7.93976
21
-4.85961
0
LINE
8
BLACK
6
CONTINUOUS
10
7.91164
20
-4.82024
11
7.91164
21
-4.92148
0
LINE
8
BLACK
6
CONTINUOUS
10
7.91164
20
-4.92148
11
7.91727
21
-4.93273
0
LINE
8
BLACK
6
CONTINUOUS
10
7.91727
20
-4.93273
11
7.92852
21
-4.93835
0
LINE
8
BLACK
6
CONTINUOUS
10
7.92852
20
-4.93835
11
7.93976
21
-4.93835
0
LINE
8
BLACK
6
CONTINUOUS
10
8.02413
20
-4.93273
11
8.01288
21
-4.93835
0
LINE
8
BLACK
6
CONTINUOUS
10
8.01288
20
-4.93835
11
7.99038
21
-4.93835
0
LINE
8
BLACK
6
CONTINUOUS
10
7.99038
20
-4.93835
11
7.97913
21
-4.93273
0
LINE
8
BLACK
6
CONTINUOUS
10
7.97913
20
-4.93273
11
7.97351
21
-4.92148
0
LINE
8
BLACK
6
CONTINUOUS
10
7.97351
20
-4.92148
11
7.97351
21
-4.87648
0
LINE
8
BLACK
6
CONTINUOUS
10
7.97351
20
-4.87648
11
7.97913
21
-4.86524
0
LINE
8
BLACK
6
CONTINUOUS
10
7.97913
20
-4.86524
11
7.99038
21
-4.85961
0
LINE
8
BLACK
6
CONTINUOUS
10
7.99038
20
-4.85961
11
8.01288
21
-4.85961
0
LINE
8
BLACK
6
CONTINUOUS
10
8.01288
20
-4.85961
11
8.02413
21
-4.86524
0
LINE
8
BLACK
6
CONTINUOUS
10
8.02413
20
-4.86524
11
8.02975
21
-4.87648
0
LINE
8
BLACK
6
CONTINUOUS
10
8.02975
20
-4.87648
11
8.02975
21
-4.88773
0
LINE
8
BLACK
6
CONTINUOUS
10
8.02975
20
-4.88773
11
7.97351
21
-4.89898
0
LINE
8
BLACK
6
CONTINUOUS
10
8.13099
20
-4.93835
11
8.13099
21
-4.82024
0
LINE
8
BLACK
6
CONTINUOUS
10
8.13099
20
-4.93273
11
8.11974
21
-4.93835
0
LINE
8
BLACK
6
CONTINUOUS
10
8.11974
20
-4.93835
11
8.09724
21
-4.93835
0
LINE
8
BLACK
6
CONTINUOUS
10
8.09724
20
-4.93835
11
8.086
21
-4.93273
0
LINE
8
BLACK
6
CONTINUOUS
10
8.086
20
-4.93273
11
8.08037
21
-4.9271
0
LINE
8
BLACK
6
CONTINUOUS
10
8.08037
20
-4.9271
11
8.07475
21
-4.91585
0
LINE
8
BLACK
6
CONTINUOUS
10
8.07475
20
-4.91585
11
8.07475
21
-4.88211
0
LINE
8
BLACK
6
CONTINUOUS
10
8.07475
20
-4.88211
11
8.08037
21
-4.87086
0
LINE
8
BLACK
6
CONTINUOUS
10
8.08037
20
-4.87086
11
8.086
21
-4.86524
0
LINE
8
BLACK
6
CONTINUOUS
10
8.086
20
-4.86524
11
8.09724
21
-4.85961
0
LINE
8
BLACK
6
CONTINUOUS
10
8.09724
20
-4.85961
11
8.11974
21
-4.85961
0
LINE
8
BLACK
6
CONTINUOUS
10
8.11974
20
-4.85961
11
8.13099
21
-4.86524
0
LINE
8
BLACK
6
CONTINUOUS
10
8.17598
20
-4.98335
11
8.18161
21
-4.97772
0
LINE
8
BLACK
6
CONTINUOUS
10
8.18161
20
-4.97772
11
8.19286
21
-4.96085
0
LINE
8
BLACK
6
CONTINUOUS
10
8.19286
20
-4.96085
11
8.19848
21
-4.9496
0
LINE
8
BLACK
6
CONTINUOUS
10
8.19848
20
-4.9496
11
8.20411
21
-4.93273
0
LINE
8
BLACK
6
CONTINUOUS
10
8.20411
20
-4.93273
11
8.20973
21
-4.90461
0
LINE
8
BLACK
6
CONTINUOUS
10
8.20973
20
-4.90461
11
8.20973
21
-4.88211
0
LINE
8
BLACK
6
CONTINUOUS
10
8.20973
20
-4.88211
11
8.20411
21
-4.85399
0
LINE
8
BLACK
6
CONTINUOUS
10
8.20411
20
-4.85399
11
8.19848
21
-4.83711
0
LINE
8
BLACK
6
CONTINUOUS
10
8.19848
20
-4.83711
11
8.19286
21
-4.82587
0
LINE
8
BLACK
6
CONTINUOUS
10
8.19286
20
-4.82587
11
8.18161
21
-4.80899
0
LINE
8
BLACK
6
CONTINUOUS
10
8.18161
20
-4.80899
11
8.17598
21
-4.80337
0
CIRCLE
8
BLACK
10
4.52736
20
-5.04083
40
0.0206693
0
LINE
8
BLACK
6
CONTINUOUS
10
4.72267
20
-5.09426
11
4.65517
21
-5.09426
0
LINE
8
BLACK
6
CONTINUOUS
10
4.68892
20
-5.09426
11
4.68892
21
-4.97615
0
LINE
8
BLACK
6
CONTINUOUS
10
4.68892
20
-4.97615
11
4.67767
21
-4.99302
0
LINE
8
BLACK
6
CONTINUOUS
10
4.67767
20
-4.99302
11
4.66642
21
-5.00427
0
LINE
8
BLACK
6
CONTINUOUS
10
4.66642
20
-5.00427
11
4.65517
21
-5.00989
0
LINE
8
BLACK
6
CONTINUOUS
10
4.77328
20
-5.08301
11
4.77891
21
-5.08863
0
LINE
8
BLACK
6
CONTINUOUS
10
4.77891
20
-5.08863
11
4.77328
21
-5.09426
0
LINE
8
BLACK
6
CONTINUOUS
10
4.77328
20
-5.09426
11
4.76766
21
-5.08863
0
LINE
8
BLACK
6
CONTINUOUS
10
4.76766
20
-5.08863
11
4.77328
21
-5.08301
0
LINE
8
BLACK
6
CONTINUOUS
10
4.77328
20
-5.08301
11
4.77328
21
-5.09426
0
LINE
8
BLACK
6
CONTINUOUS
10
4.85202
20
-4.97615
11
4.86327
21
-4.97615
0
LINE
8
BLACK
6
CONTINUOUS
10
4.86327
20
-4.97615
11
4.87452
21
-4.98177
0
LINE
8
BLACK
6
CONTINUOUS
10
4.87452
20
-4.98177
11
4.88015
21
-4.9874
0
LINE
8
BLACK
6
CONTINUOUS
10
4.88015
20
-4.9874
11
4.88577
21
-4.99864
0
LINE
8
BLACK
6
CONTINUOUS
10
4.88577
20
-4.99864
11
4.89139
21
-5.02114
0
LINE
8
BLACK
6
CONTINUOUS
10
4.89139
20
-5.02114
11
4.89139
21
-5.04926
0
LINE
8
BLACK
6
CONTINUOUS
10
4.89139
20
-5.04926
11
4.88577
21
-5.07176
0
LINE
8
BLACK
6
CONTINUOUS
10
4.88577
20
-5.07176
11
4.88015
21
-5.08301
0
LINE
8
BLACK
6
CONTINUOUS
10
4.88015
20
-5.08301
11
4.87452
21
-5.08863
0
LINE
8
BLACK
6
CONTINUOUS
10
4.87452
20
-5.08863
11
4.86327
21
-5.09426
0
LINE
8
BLACK
6
CONTINUOUS
10
4.86327
20
-5.09426
11
4.85202
21
-5.09426
0
LINE
8
BLACK
6
CONTINUOUS
10
4.85202
20
-5.09426
11
4.84078
21
-5.08863
0
LINE
8
BLACK
6
CONTINUOUS
10
4.84078
20
-5.08863
11
4.83515
21
-5.08301
0
LINE
8
BLACK
6
CONTINUOUS
10
4.83515
20
-5.08301
11
4.82953
21
-5.07176
0
LINE
8
BLACK
6
CONTINUOUS
10
4.82953
20
-5.07176
11
4.8239
21
-5.04926
0
LINE
8
BLACK
6
CONTINUOUS
10
4.8239
20
-5.04926
11
4.8239
21
-5.02114
0
LINE
8
BLACK
6
CONTINUOUS
10
4.8239
20
-5.02114
11
4.82953
21
-4.99864
0
LINE
8
BLACK
6
CONTINUOUS
10
4.82953
20
-4.99864
11
4.83515
21
-4.9874
0
LINE
8
BLACK
6
CONTINUOUS
10
4.83515
20
-4.9874
11
4.84078
21
-4.98177
0
LINE
8
BLACK
6
CONTINUOUS
10
4.84078
20
-4.98177
11
4.85202
21
-4.97615
0
LINE
8
BLACK
6
CONTINUOUS
10
4.99826
20
-4.97615
11
4.94201
21
-4.97615
0
LINE
8
BLACK
6
CONTINUOUS
10
4.94201
20
-4.97615
11
4.93639
21
-5.03239
0
LINE
8
BLACK
6
CONTINUOUS
10
4.93639
20
-5.03239
11
4.94201
21
-5.02677
0
LINE
8
BLACK
6
CONTINUOUS
10
4.94201
20
-5.02677
11
4.95326
21
-5.02114
0
LINE
8
BLACK
6
CONTINUOUS
10
4.95326
20
-5.02114
11
4.98138
21
-5.02114
0
LINE
8
BLACK
6
CONTINUOUS
10
4.98138
20
-5.02114
11
4.99263
21
-5.02677
0
LINE
8
BLACK
6
CONTINUOUS
10
4.99263
20
-5.02677
11
4.99826
21
-5.03239
0
LINE
8
BLACK
6
CONTINUOUS
10
4.99826
20
-5.03239
11
5.00388
21
-5.04364
0
LINE
8
BLACK
6
CONTINUOUS
10
5.00388
20
-5.04364
11
5.00388
21
-5.07176
0
LINE
8
BLACK
6
CONTINUOUS
10
5.00388
20
-5.07176
11
4.99826
21
-5.08301
0
LINE
8
BLACK
6
CONTINUOUS
10
4.99826
20
-5.08301
11
4.99263
21
-5.08863
0
LINE
8
BLACK
6
CONTINUOUS
10
4.99263
20
-5.08863
11
4.98138
21
-5.09426
0
LINE
8
BLACK
6
CONTINUOUS
10
4.98138
20
-5.09426
11
4.95326
21
-5.09426
0
LINE
8
BLACK
6
CONTINUOUS
10
4.95326
20
-5.09426
11
4.94201
21
-5.08863
0
LINE
8
BLACK
6
CONTINUOUS
10
4.94201
20
-5.08863
11
4.93639
21
-5.08301
0
LINE
8
BLACK
6
CONTINUOUS
10
5.0545
20
-5.09426
11
5.0545
21
-5.01552
0
LINE
8
BLACK
6
CONTINUOUS
10
5.0545
20
-5.02677
11
5.06012
21
-5.02114
0
LINE
8
BLACK
6
CONTINUOUS
10
5.06012
20
-5.02114
11
5.07137
21
-5.01552
0
LINE
8
BLACK
6
CONTINUOUS
10
5.07137
20
-5.01552
11
5.08825
21
-5.01552
0
LINE
8
BLACK
6
CONTINUOUS
10
5.08825
20
-5.01552
11
5.09949
21
-5.02114
0
LINE
8
BLACK
6
CONTINUOUS
10
5.09949
20
-5.02114
11
5.10512
21
-5.03239
0
LINE
8
BLACK
6
CONTINUOUS
10
5.10512
20
-5.03239
11
5.10512
21
-5.09426
0
LINE
8
BLACK
6
CONTINUOUS
10
5.10512
20
-5.03239
11
5.11074
21
-5.02114
0
LINE
8
BLACK
6
CONTINUOUS
10
5.11074
20
-5.02114
11
5.12199
21
-5.01552
0
LINE
8
BLACK
6
CONTINUOUS
10
5.12199
20
-5.01552
11
5.13886
21
-5.01552
0
LINE
8
BLACK
6
CONTINUOUS
10
5.13886
20
-5.01552
11
5.15011
21
-5.02114
0
LINE
8
BLACK
6
CONTINUOUS
10
5.15011
20
-5.02114
11
5.15574
21
-5.03239
0
LINE
8
BLACK
6
CONTINUOUS
10
5.15574
20
-5.03239
11
5.15574
21
-5.09426
0
LINE
8
BLACK
6
CONTINUOUS
10
5.21198
20
-5.09426
11
5.21198
21
-5.01552
0
LINE
8
BLACK
6
CONTINUOUS
10
5.21198
20
-5.02677
11
5.2176
21
-5.02114
0
LINE
8
BLACK
6
CONTINUOUS
10
5.2176
20
-5.02114
11
5.22885
21
-5.01552
0
LINE
8
BLACK
6
CONTINUOUS
10
5.22885
20
-5.01552
11
5.24573
21
-5.01552
0
LINE
8
BLACK
6
CONTINUOUS
10
5.24573
20
-5.01552
11
5.25697
21
-5.02114
0
LINE
8
BLACK
6
CONTINUOUS
10
5.25697
20
-5.02114
11
5.2626
21
-5.03239
0
LINE
8
BLACK
6
CONTINUOUS
10
5.2626
20
-5.03239
11
5.2626
21
-5.09426
0
LINE
8
BLACK
6
CONTINUOUS
10
5.2626
20
-5.03239
11
5.26822
21
-5.02114
0
LINE
8
BLACK
6
CONTINUOUS
10
5.26822
20
-5.02114
11
5.27947
21
-5.01552
0
LINE
8
BLACK
6
CONTINUOUS
10
5.27947
20
-5.01552
11
5.29634
21
-5.01552
0
LINE
8
BLACK
6
CONTINUOUS
10
5.29634
20
-5.01552
11
5.30759
21
-5.02114
0
LINE
8
BLACK
6
CONTINUOUS
10
5.30759
20
-5.02114
11
5.31322
21
-5.03239
0
LINE
8
BLACK
6
CONTINUOUS
10
5.31322
20
-5.03239
11
5.31322
21
-5.09426
0
LINE
8
BLACK
6
CONTINUOUS
10
5.54381
20
-4.97052
11
5.44258
21
-5.12238
0
LINE
8
BLACK
6
CONTINUOUS
10
5.69567
20
-4.97615
11
5.70692
21
-4.97615
0
LINE
8
BLACK
6
CONTINUOUS
10
5.70692
20
-4.97615
11
5.71817
21
-4.98177
0
LINE
8
BLACK
6
CONTINUOUS
10
5.71817
20
-4.98177
11
5.72379
21
-4.9874
0
LINE
8
BLACK
6
CONTINUOUS
10
5.72379
20
-4.9874
11
5.72941
21
-4.99864
0
LINE
8
BLACK
6
CONTINUOUS
10
5.72941
20
-4.99864
11
5.73504
21
-5.02114
0
LINE
8
BLACK
6
CONTINUOUS
10
5.73504
20
-5.02114
11
5.73504
21
-5.04926
0
LINE
8
BLACK
6
CONTINUOUS
10
5.73504
20
-5.04926
11
5.72941
21
-5.07176
0
LINE
8
BLACK
6
CONTINUOUS
10
5.72941
20
-5.07176
11
5.72379
21
-5.08301
0
LINE
8
BLACK
6
CONTINUOUS
10
5.72379
20
-5.08301
11
5.71817
21
-5.08863
0
LINE
8
BLACK
6
CONTINUOUS
10
5.71817
20
-5.08863
11
5.70692
21
-5.09426
0
LINE
8
BLACK
6
CONTINUOUS
10
5.70692
20
-5.09426
11
5.69567
21
-5.09426
0
LINE
8
BLACK
6
CONTINUOUS
10
5.69567
20
-5.09426
11
5.68442
21
-5.08863
0
LINE
8
BLACK
6
CONTINUOUS
10
5.68442
20
-5.08863
11
5.6788
21
-5.08301
0
LINE
8
BLACK
6
CONTINUOUS
10
5.6788
20
-5.08301
11
5.67317
21
-5.07176
0
LINE
8
BLACK
6
CONTINUOUS
10
5.67317
20
-5.07176
11
5.66755
21
-5.04926
0
LINE
8
BLACK
6
CONTINUOUS
10
5.66755
20
-5.04926
11
5.66755
21
-5.02114
0
LINE
8
BLACK
6
CONTINUOUS
10
5.66755
20
-5.02114
11
5.67317
21
-4.99864
0
LINE
8
BLACK
6
CONTINUOUS
10
5.67317
20
-4.99864
11
5.6788
21
-4.9874
0
LINE
8
BLACK
6
CONTINUOUS
10
5.6788
20
-4.9874
11
5.68442
21
-4.98177
0
LINE
8
BLACK
6
CONTINUOUS
10
5.68442
20
-4.98177
11
5.69567
21
-4.97615
0
LINE
8
BLACK
6
CONTINUOUS
10
5.78566
20
-5.08301
11
5.79128
21
-5.08863
0
LINE
8
BLACK
6
CONTINUOUS
10
5.79128
20
-5.08863
11
5.78566
21
-5.09426
0
LINE
8
BLACK
6
CONTINUOUS
10
5.78566
20
-5.09426
11
5.78003
21
-5.08863
0
LINE
8
BLACK
6
CONTINUOUS
10
5.78003
20
-5.08863
11
5.78566
21
-5.08301
0
LINE
8
BLACK
6
CONTINUOUS
10
5.78566
20
-5.08301
11
5.78566
21
-5.09426
0
LINE
8
BLACK
6
CONTINUOUS
10
5.8644
20
-4.97615
11
5.87565
21
-4.97615
0
LINE
8
BLACK
6
CONTINUOUS
10
5.87565
20
-4.97615
11
5.8869
21
-4.98177
0
LINE
8
BLACK
6
CONTINUOUS
10
5.8869
20
-4.98177
11
5.89252
21
-4.9874
0
LINE
8
BLACK
6
CONTINUOUS
10
5.89252
20
-4.9874
11
5.89814
21
-4.99864
0
LINE
8
BLACK
6
CONTINUOUS
10
5.89814
20
-4.99864
11
5.90377
21
-5.02114
0
LINE
8
BLACK
6
CONTINUOUS
10
5.90377
20
-5.02114
11
5.90377
21
-5.04926
0
LINE
8
BLACK
6
CONTINUOUS
10
5.90377
20
-5.04926
11
5.89814
21
-5.07176
0
LINE
8
BLACK
6
CONTINUOUS
10
5.89814
20
-5.07176
11
5.89252
21
-5.08301
0
LINE
8
BLACK
6
CONTINUOUS
10
5.89252
20
-5.08301
11
5.8869
21
-5.08863
0
LINE
8
BLACK
6
CONTINUOUS
10
5.8869
20
-5.08863
11
5.87565
21
-5.09426
0
LINE
8
BLACK
6
CONTINUOUS
10
5.87565
20
-5.09426
11
5.8644
21
-5.09426
0
LINE
8
BLACK
6
CONTINUOUS
10
5.8644
20
-5.09426
11
5.85315
21
-5.08863
0
LINE
8
BLACK
6
CONTINUOUS
10
5.85315
20
-5.08863
11
5.84753
21
-5.08301
0
LINE
8
BLACK
6
CONTINUOUS
10
5.84753
20
-5.08301
11
5.8419
21
-5.07176
0
LINE
8
BLACK
6
CONTINUOUS
10
5.8419
20
-5.07176
11
5.83628
21
-5.04926
0
LINE
8
BLACK
6
CONTINUOUS
10
5.83628
20
-5.04926
11
5.83628
21
-5.02114
0
LINE
8
BLACK
6
CONTINUOUS
10
5.83628
20
-5.02114
11
5.8419
21
-4.99864
0
LINE
8
BLACK
6
CONTINUOUS
10
5.8419
20
-4.99864
11
5.84753
21
-4.9874
0
LINE
8
BLACK
6
CONTINUOUS
10
5.84753
20
-4.9874
11
5.85315
21
-4.98177
0
LINE
8
BLACK
6
CONTINUOUS
10
5.85315
20
-4.98177
11
5.8644
21
-4.97615
0
LINE
8
BLACK
6
CONTINUOUS
10
6.00501
20
-5.01552
11
6.00501
21
-5.09426
0
LINE
8
BLACK
6
CONTINUOUS
10
5.97688
20
-4.97052
11
5.94876
21
-5.05489
0
LINE
8
BLACK
6
CONTINUOUS
10
5.94876
20
-5.05489
11
6.02188
21
-5.05489
0
LINE
8
BLACK
6
CONTINUOUS
10
6.12874
20
-5.09426
11
6.06125
21
-5.09426
0
LINE
8
BLACK
6
CONTINUOUS
10
6.09499
20
-5.09426
11
6.09499
21
-4.97615
0
LINE
8
BLACK
6
CONTINUOUS
10
6.09499
20
-4.97615
11
6.08375
21
-4.99302
0
LINE
8
BLACK
6
CONTINUOUS
10
6.08375
20
-4.99302
11
6.0725
21
-5.00427
0
LINE
8
BLACK
6
CONTINUOUS
10
6.0725
20
-5.00427
11
6.06125
21
-5.00989
0
LINE
8
BLACK
6
CONTINUOUS
10
6.17373
20
-4.97615
11
6.17373
21
-4.99864
0
LINE
8
BLACK
6
CONTINUOUS
10
6.21873
20
-4.97615
11
6.21873
21
-4.99864
0
LINE
8
BLACK
6
CONTINUOUS
10
6.39308
20
-5.13925
11
6.38746
21
-5.13363
0
LINE
8
BLACK
6
CONTINUOUS
10
6.38746
20
-5.13363
11
6.37621
21
-5.11675
0
LINE
8
BLACK
6
CONTINUOUS
10
6.37621
20
-5.11675
11
6.37058
21
-5.10551
0
LINE
8
BLACK
6
CONTINUOUS
10
6.37058
20
-5.10551
11
6.36496
21
-5.08863
0
LINE
8
BLACK
6
CONTINUOUS
10
6.36496
20
-5.08863
11
6.35934
21
-5.06051
0
LINE
8
BLACK
6
CONTINUOUS
10
6.35934
20
-5.06051
11
6.35934
21
-5.03801
0
LINE
8
BLACK
6
CONTINUOUS
10
6.35934
20
-5.03801
11
6.36496
21
-5.00989
0
LINE
8
BLACK
6
CONTINUOUS
10
6.36496
20
-5.00989
11
6.37058
21
-4.99302
0
LINE
8
BLACK
6
CONTINUOUS
10
6.37058
20
-4.99302
11
6.37621
21
-4.98177
0
LINE
8
BLACK
6
CONTINUOUS
10
6.37621
20
-4.98177
11
6.38746
21
-4.9649
0
LINE
8
BLACK
6
CONTINUOUS
10
6.38746
20
-4.9649
11
6.39308
21
-4.95927
0
LINE
8
BLACK
6
CONTINUOUS
10
6.49994
20
-5.09426
11
6.43245
21
-5.09426
0
LINE
8
BLACK
6
CONTINUOUS
10
6.4662
20
-5.09426
11
6.4662
21
-4.97615
0
LINE
8
BLACK
6
CONTINUOUS
10
6.4662
20
-4.97615
11
6.45495
21
-4.99302
0
LINE
8
BLACK
6
CONTINUOUS
10
6.45495
20
-4.99302
11
6.4437
21
-5.00427
0
LINE
8
BLACK
6
CONTINUOUS
10
6.4437
20
-5.00427
11
6.43245
21
-5.00989
0
LINE
8
BLACK
6
CONTINUOUS
10
6.64055
20
-5.09426
11
6.64055
21
-4.97615
0
LINE
8
BLACK
6
CONTINUOUS
10
6.69117
20
-5.09426
11
6.69117
21
-5.03239
0
LINE
8
BLACK
6
CONTINUOUS
10
6.69117
20
-5.03239
11
6.68555
21
-5.02114
0
LINE
8
BLACK
6
CONTINUOUS
10
6.68555
20
-5.02114
11
6.6743
21
-5.01552
0
LINE
8
BLACK
6
CONTINUOUS
10
6.6743
20
-5.01552
11
6.65742
21
-5.01552
0
LINE
8
BLACK
6
CONTINUOUS
10
6.65742
20
-5.01552
11
6.64618
21
-5.02114
0
LINE
8
BLACK
6
CONTINUOUS
10
6.64618
20
-5.02114
11
6.64055
21
-5.02677
0
LINE
8
BLACK
6
CONTINUOUS
10
6.76429
20
-5.09426
11
6.75304
21
-5.08863
0
LINE
8
BLACK
6
CONTINUOUS
10
6.75304
20
-5.08863
11
6.74741
21
-5.08301
0
LINE
8
BLACK
6
CONTINUOUS
10
6.74741
20
-5.08301
11
6.74179
21
-5.07176
0
LINE
8
BLACK
6
CONTINUOUS
10
6.74179
20
-5.07176
11
6.74179
21
-5.03801
0
LINE
8
BLACK
6
CONTINUOUS
10
6.74179
20
-5.03801
11
6.74741
21
-5.02677
0
LINE
8
BLACK
6
CONTINUOUS
10
6.74741
20
-5.02677
11
6.75304
21
-5.02114
0
LINE
8
BLACK
6
CONTINUOUS
10
6.75304
20
-5.02114
11
6.76429
21
-5.01552
0
LINE
8
BLACK
6
CONTINUOUS
10
6.76429
20
-5.01552
11
6.78116
21
-5.01552
0
LINE
8
BLACK
6
CONTINUOUS
10
6.78116
20
-5.01552
11
6.79241
21
-5.02114
0
LINE
8
BLACK
6
CONTINUOUS
10
6.79241
20
-5.02114
11
6.79803
21
-5.02677
0
LINE
8
BLACK
6
CONTINUOUS
10
6.79803
20
-5.02677
11
6.80366
21
-5.03801
0
LINE
8
BLACK
6
CONTINUOUS
10
6.80366
20
-5.03801
11
6.80366
21
-5.07176
0
LINE
8
BLACK
6
CONTINUOUS
10
6.80366
20
-5.07176
11
6.79803
21
-5.08301
0
LINE
8
BLACK
6
CONTINUOUS
10
6.79803
20
-5.08301
11
6.79241
21
-5.08863
0
LINE
8
BLACK
6
CONTINUOUS
10
6.79241
20
-5.08863
11
6.78116
21
-5.09426
0
LINE
8
BLACK
6
CONTINUOUS
10
6.78116
20
-5.09426
11
6.76429
21
-5.09426
0
LINE
8
BLACK
6
CONTINUOUS
10
6.87115
20
-5.09426
11
6.8599
21
-5.08863
0
LINE
8
BLACK
6
CONTINUOUS
10
6.8599
20
-5.08863
11
6.85427
21
-5.07738
0
LINE
8
BLACK
6
CONTINUOUS
10
6.85427
20
-5.07738
11
6.85427
21
-4.97615
0
LINE
8
BLACK
6
CONTINUOUS
10
6.96114
20
-5.08863
11
6.94989
21
-5.09426
0
LINE
8
BLACK
6
CONTINUOUS
10
6.94989
20
-5.09426
11
6.92739
21
-5.09426
0
LINE
8
BLACK
6
CONTINUOUS
10
6.92739
20
-5.09426
11
6.91614
21
-5.08863
0
LINE
8
BLACK
6
CONTINUOUS
10
6.91614
20
-5.08863
11
6.91052
21
-5.07738
0
LINE
8
BLACK
6
CONTINUOUS
10
6.91052
20
-5.07738
11
6.91052
21
-5.03239
0
LINE
8
BLACK
6
CONTINUOUS
10
6.91052
20
-5.03239
11
6.91614
21
-5.02114
0
LINE
8
BLACK
6
CONTINUOUS
10
6.91614
20
-5.02114
11
6.92739
21
-5.01552
0
LINE
8
BLACK
6
CONTINUOUS
10
6.92739
20
-5.01552
11
6.94989
21
-5.01552
0
LINE
8
BLACK
6
CONTINUOUS
10
6.94989
20
-5.01552
11
6.96114
21
-5.02114
0
LINE
8
BLACK
6
CONTINUOUS
10
6.96114
20
-5.02114
11
6.96676
21
-5.03239
0
LINE
8
BLACK
6
CONTINUOUS
10
6.96676
20
-5.03239
11
6.96676
21
-5.04364
0
LINE
8
BLACK
6
CONTINUOUS
10
6.96676
20
-5.04364
11
6.91052
21
-5.05489
0
LINE
8
BLACK
6
CONTINUOUS
10
7.00613
20
-5.13925
11
7.01175
21
-5.13363
0
LINE
8
BLACK
6
CONTINUOUS
10
7.01175
20
-5.13363
11
7.023
21
-5.11675
0
LINE
8
BLACK
6
CONTINUOUS
10
7.023
20
-5.11675
11
7.02863
21
-5.10551
0
LINE
8
BLACK
6
CONTINUOUS
10
7.02863
20
-5.10551
11
7.03425
21
-5.08863
0
LINE
8
BLACK
6
CONTINUOUS
10
7.03425
20
-5.08863
11
7.03988
21
-5.06051
0
LINE
8
BLACK
6
CONTINUOUS
10
7.03988
20
-5.06051
11
7.03988
21
-5.03801
0
LINE
8
BLACK
6
CONTINUOUS
10
7.03988
20
-5.03801
11
7.03425
21
-5.00989
0
LINE
8
BLACK
6
CONTINUOUS
10
7.03425
20
-5.00989
11
7.02863
21
-4.99302
0
LINE
8
BLACK
6
CONTINUOUS
10
7.02863
20
-4.99302
11
7.023
21
-4.98177
0
LINE
8
BLACK
6
CONTINUOUS
10
7.023
20
-4.98177
11
7.01175
21
-4.9649
0
LINE
8
BLACK
6
CONTINUOUS
10
7.01175
20
-4.9649
11
7.00613
21
-4.95927
0
LINE
8
BLACK
6
CONTINUOUS
10
7.21985
20
-5.13925
11
7.21423
21
-5.13363
0
LINE
8
BLACK
6
CONTINUOUS
10
7.21423
20
-5.13363
11
7.20298
21
-5.11675
0
LINE
8
BLACK
6
CONTINUOUS
10
7.20298
20
-5.11675
11
7.19736
21
-5.10551
0
LINE
8
BLACK
6
CONTINUOUS
10
7.19736
20
-5.10551
11
7.19173
21
-5.08863
0
LINE
8
BLACK
6
CONTINUOUS
10
7.19173
20
-5.08863
11
7.18611
21
-5.06051
0
LINE
8
BLACK
6
CONTINUOUS
10
7.18611
20
-5.06051
11
7.18611
21
-5.03801
0
LINE
8
BLACK
6
CONTINUOUS
10
7.18611
20
-5.03801
11
7.19173
21
-5.00989
0
LINE
8
BLACK
6
CONTINUOUS
10
7.19173
20
-5.00989
11
7.19736
21
-4.99302
0
LINE
8
BLACK
6
CONTINUOUS
10
7.19736
20
-4.99302
11
7.20298
21
-4.98177
0
LINE
8
BLACK
6
CONTINUOUS
10
7.20298
20
-4.98177
11
7.21423
21
-4.9649
0
LINE
8
BLACK
6
CONTINUOUS
10
7.21423
20
-4.9649
11
7.21985
21
-4.95927
0
LINE
8
BLACK
6
CONTINUOUS
10
7.26485
20
-5.01552
11
7.26485
21
-5.09426
0
LINE
8
BLACK
6
CONTINUOUS
10
7.26485
20
-5.02677
11
7.27047
21
-5.02114
0
LINE
8
BLACK
6
CONTINUOUS
10
7.27047
20
-5.02114
11
7.28172
21
-5.01552
0
LINE
8
BLACK
6
CONTINUOUS
10
7.28172
20
-5.01552
11
7.29859
21
-5.01552
0
LINE
8
BLACK
6
CONTINUOUS
10
7.29859
20
-5.01552
11
7.30984
21
-5.02114
0
LINE
8
BLACK
6
CONTINUOUS
10
7.30984
20
-5.02114
11
7.31547
21
-5.03239
0
LINE
8
BLACK
6
CONTINUOUS
10
7.31547
20
-5.03239
11
7.31547
21
-5.09426
0
LINE
8
BLACK
6
CONTINUOUS
10
7.38858
20
-5.09426
11
7.37733
21
-5.08863
0
LINE
8
BLACK
6
CONTINUOUS
10
7.37733
20
-5.08863
11
7.37171
21
-5.08301
0
LINE
8
BLACK
6
CONTINUOUS
10
7.37171
20
-5.08301
11
7.36609
21
-5.07176
0
LINE
8
BLACK
6
CONTINUOUS
10
7.36609
20
-5.07176
11
7.36609
21
-5.03801
0
LINE
8
BLACK
6
CONTINUOUS
10
7.36609
20
-5.03801
11
7.37171
21
-5.02677
0
LINE
8
BLACK
6
CONTINUOUS
10
7.37171
20
-5.02677
11
7.37733
21
-5.02114
0
LINE
8
BLACK
6
CONTINUOUS
10
7.37733
20
-5.02114
11
7.38858
21
-5.01552
0
LINE
8
BLACK
6
CONTINUOUS
10
7.38858
20
-5.01552
11
7.40546
21
-5.01552
0
LINE
8
BLACK
6
CONTINUOUS
10
7.40546
20
-5.01552
11
7.4167
21
-5.02114
0
LINE
8
BLACK
6
CONTINUOUS
10
7.4167
20
-5.02114
11
7.42233
21
-5.02677
0
LINE
8
BLACK
6
CONTINUOUS
10
7.42233
20
-5.02677
11
7.42795
21
-5.03801
0
LINE
8
BLACK
6
CONTINUOUS
10
7.42795
20
-5.03801
11
7.42795
21
-5.07176
0
LINE
8
BLACK
6
CONTINUOUS
10
7.42795
20
-5.07176
11
7.42233
21
-5.08301
0
LINE
8
BLACK
6
CONTINUOUS
10
7.42233
20
-5.08301
11
7.4167
21
-5.08863
0
LINE
8
BLACK
6
CONTINUOUS
10
7.4167
20
-5.08863
11
7.40546
21
-5.09426
0
LINE
8
BLACK
6
CONTINUOUS
10
7.40546
20
-5.09426
11
7.38858
21
-5.09426
0
LINE
8
BLACK
6
CONTINUOUS
10
7.4617
20
-5.01552
11
7.50669
21
-5.01552
0
LINE
8
BLACK
6
CONTINUOUS
10
7.47857
20
-4.97615
11
7.47857
21
-5.07738
0
LINE
8
BLACK
6
CONTINUOUS
10
7.47857
20
-5.07738
11
7.4842
21
-5.08863
0
LINE
8
BLACK
6
CONTINUOUS
10
7.4842
20
-5.08863
11
7.49544
21
-5.09426
0
LINE
8
BLACK
6
CONTINUOUS
10
7.49544
20
-5.09426
11
7.50669
21
-5.09426
0
LINE
8
BLACK
6
CONTINUOUS
10
7.63605
20
-5.01552
11
7.63605
21
-5.13363
0
LINE
8
BLACK
6
CONTINUOUS
10
7.63605
20
-5.02114
11
7.6473
21
-5.01552
0
LINE
8
BLACK
6
CONTINUOUS
10
7.6473
20
-5.01552
11
7.6698
21
-5.01552
0
LINE
8
BLACK
6
CONTINUOUS
10
7.6698
20
-5.01552
11
7.68105
21
-5.02114
0
LINE
8
BLACK
6
CONTINUOUS
10
7.68105
20
-5.02114
11
7.68667
21
-5.02677
0
LINE
8
BLACK
6
CONTINUOUS
10
7.68667
20
-5.02677
11
7.69229
21
-5.03801
0
LINE
8
BLACK
6
CONTINUOUS
10
7.69229
20
-5.03801
11
7.69229
21
-5.07176
0
LINE
8
BLACK
6
CONTINUOUS
10
7.69229
20
-5.07176
11
7.68667
21
-5.08301
0
LINE
8
BLACK
6
CONTINUOUS
10
7.68667
20
-5.08301
11
7.68105
21
-5.08863
0
LINE
8
BLACK
6
CONTINUOUS
10
7.68105
20
-5.08863
11
7.6698
21
-5.09426
0
LINE
8
BLACK
6
CONTINUOUS
10
7.6698
20
-5.09426
11
7.6473
21
-5.09426
0
LINE
8
BLACK
6
CONTINUOUS
10
7.6473
20
-5.09426
11
7.63605
21
-5.08863
0
LINE
8
BLACK
6
CONTINUOUS
10
7.75979
20
-5.09426
11
7.74854
21
-5.08863
0
LINE
8
BLACK
6
CONTINUOUS
10
7.74854
20
-5.08863
11
7.74291
21
-5.07738
0
LINE
8
BLACK
6
CONTINUOUS
10
7.74291
20
-5.07738
11
7.74291
21
-4.97615
0
LINE
8
BLACK
6
CONTINUOUS
10
7.8554
20
-5.09426
11
7.8554
21
-5.03239
0
LINE
8
BLACK
6
CONTINUOUS
10
7.8554
20
-5.03239
11
7.84977
21
-5.02114
0
LINE
8
BLACK
6
CONTINUOUS
10
7.84977
20
-5.02114
11
7.83853
21
-5.01552
0
LINE
8
BLACK
6
CONTINUOUS
10
7.83853
20
-5.01552
11
7.81603
21
-5.01552
0
LINE
8
BLACK
6
CONTINUOUS
10
7.81603
20
-5.01552
11
7.80478
21
-5.02114
0
LINE
8
BLACK
6
CONTINUOUS
10
7.8554
20
-5.08863
11
7.84415
21
-5.09426
0
LINE
8
BLACK
6
CONTINUOUS
10
7.84415
20
-5.09426
11
7.81603
21
-5.09426
0
LINE
8
BLACK
6
CONTINUOUS
10
7.81603
20
-5.09426
11
7.80478
21
-5.08863
0
LINE
8
BLACK
6
CONTINUOUS
10
7.80478
20
-5.08863
11
7.79916
21
-5.07738
0
LINE
8
BLACK
6
CONTINUOUS
10
7.79916
20
-5.07738
11
7.79916
21
-5.06614
0
LINE
8
BLACK
6
CONTINUOUS
10
7.79916
20
-5.06614
11
7.80478
21
-5.05489
0
LINE
8
BLACK
6
CONTINUOUS
10
7.80478
20
-5.05489
11
7.81603
21
-5.04926
0
LINE
8
BLACK
6
CONTINUOUS
10
7.81603
20
-5.04926
11
7.84415
21
-5.04926
0
LINE
8
BLACK
6
CONTINUOUS
10
7.84415
20
-5.04926
11
7.8554
21
-5.04364
0
LINE
8
BLACK
6
CONTINUOUS
10
7.89477
20
-5.01552
11
7.93976
21
-5.01552
0
LINE
8
BLACK
6
CONTINUOUS
10
7.91164
20
-4.97615
11
7.91164
21
-5.07738
0
LINE
8
BLACK
6
CONTINUOUS
10
7.91164
20
-5.07738
11
7.91727
21
-5.08863
0
LINE
8
BLACK
6
CONTINUOUS
10
7.91727
20
-5.08863
11
7.92852
21
-5.09426
0
LINE
8
BLACK
6
CONTINUOUS
10
7.92852
20
-5.09426
11
7.93976
21
-5.09426
0
LINE
8
BLACK
6
CONTINUOUS
10
8.02413
20
-5.08863
11
8.01288
21
-5.09426
0
LINE
8
BLACK
6
CONTINUOUS
10
8.01288
20
-5.09426
11
7.99038
21
-5.09426
0
LINE
8
BLACK
6
CONTINUOUS
10
7.99038
20
-5.09426
11
7.97913
21
-5.08863
0
LINE
8
BLACK
6
CONTINUOUS
10
7.97913
20
-5.08863
11
7.97351
21
-5.07738
0
LINE
8
BLACK
6
CONTINUOUS
10
7.97351
20
-5.07738
11
7.97351
21
-5.03239
0
LINE
8
BLACK
6
CONTINUOUS
10
7.97351
20
-5.03239
11
7.97913
21
-5.02114
0
LINE
8
BLACK
6
CONTINUOUS
10
7.97913
20
-5.02114
11
7.99038
21
-5.01552
0
LINE
8
BLACK
6
CONTINUOUS
10
7.99038
20
-5.01552
11
8.01288
21
-5.01552
0
LINE
8
BLACK
6
CONTINUOUS
10
8.01288
20
-5.01552
11
8.02413
21
-5.02114
0
LINE
8
BLACK
6
CONTINUOUS
10
8.02413
20
-5.02114
11
8.02975
21
-5.03239
0
LINE
8
BLACK
6
CONTINUOUS
10
8.02975
20
-5.03239
11
8.02975
21
-5.04364
0
LINE
8
BLACK
6
CONTINUOUS
10
8.02975
20
-5.04364
11
7.97351
21
-5.05489
0
LINE
8
BLACK
6
CONTINUOUS
10
8.13099
20
-5.09426
11
8.13099
21
-4.97615
0
LINE
8
BLACK
6
CONTINUOUS
10
8.13099
20
-5.08863
11
8.11974
21
-5.09426
0
LINE
8
BLACK
6
CONTINUOUS
10
8.11974
20
-5.09426
11
8.09724
21
-5.09426
0
LINE
8
BLACK
6
CONTINUOUS
10
8.09724
20
-5.09426
11
8.086
21
-5.08863
0
LINE
8
BLACK
6
CONTINUOUS
10
8.086
20
-5.08863
11
8.08037
21
-5.08301
0
LINE
8
BLACK
6
CONTINUOUS
10
8.08037
20
-5.08301
11
8.07475
21
-5.07176
0
LINE
8
BLACK
6
CONTINUOUS
10
8.07475
20
-5.07176
11
8.07475
21
-5.03801
0
LINE
8
BLACK
6
CONTINUOUS
10
8.07475
20
-5.03801
11
8.08037
21
-5.02677
0
LINE
8
BLACK
6
CONTINUOUS
10
8.08037
20
-5.02677
11
8.086
21
-5.02114
0
LINE
8
BLACK
6
CONTINUOUS
10
8.086
20
-5.02114
11
8.09724
21
-5.01552
0
LINE
8
BLACK
6
CONTINUOUS
10
8.09724
20
-5.01552
11
8.11974
21
-5.01552
0
LINE
8
BLACK
6
CONTINUOUS
10
8.11974
20
-5.01552
11
8.13099
21
-5.02114
0
LINE
8
BLACK
6
CONTINUOUS
10
8.17598
20
-5.13925
11
8.18161
21
-5.13363
0
LINE
8
BLACK
6
CONTINUOUS
10
8.18161
20
-5.13363
11
8.19286
21
-5.11675
0
LINE
8
BLACK
6
CONTINUOUS
10
8.19286
20
-5.11675
11
8.19848
21
-5.10551
0
LINE
8
BLACK
6
CONTINUOUS
10
8.19848
20
-5.10551
11
8.20411
21
-5.08863
0
LINE
8
BLACK
6
CONTINUOUS
10
8.20411
20
-5.08863
11
8.20973
21
-5.06051
0
LINE
8
BLACK
6
CONTINUOUS
10
8.20973
20
-5.06051
11
8.20973
21
-5.03801
0
LINE
8
BLACK
6
CONTINUOUS
10
8.20973
20
-5.03801
11
8.20411
21
-5.00989
0
LINE
8
BLACK
6
CONTINUOUS
10
8.20411
20
-5.00989
11
8.19848
21
-4.99302
0
LINE
8
BLACK
6
CONTINUOUS
10
8.19848
20
-4.99302
11
8.19286
21
-4.98177
0
LINE
8
BLACK
6
CONTINUOUS
10
8.19286
20
-4.98177
11
8.18161
21
-4.9649
0
LINE
8
BLACK
6
CONTINUOUS
10
8.18161
20
-4.9649
11
8.17598
21
-4.95927
0
LINE
8
BLACK
6
CONTINUOUS
10
4.5126
20
-5.1613
11
4.5126
21
-5.23217
0
LINE
8
BLACK
6
CONTINUOUS
10
4.47717
20
-5.19673
11
4.54803
21
-5.19673
0
LINE
8
BLACK
6
CONTINUOUS
10
4.72267
20
-5.25016
11
4.65517
21
-5.25016
0
LINE
8
BLACK
6
CONTINUOUS
10
4.68892
20
-5.25016
11
4.68892
21
-5.13205
0
LINE
8
BLACK
6
CONTINUOUS
10
4.68892
20
-5.13205
11
4.67767
21
-5.14893
0
LINE
8
BLACK
6
CONTINUOUS
10
4.67767
20
-5.14893
11
4.66642
21
-5.16017
0
LINE
8
BLACK
6
CONTINUOUS
10
4.66642
20
-5.16017
11
4.65517
21
-5.1658
0
LINE
8
BLACK
6
CONTINUOUS
10
4.77328
20
-5.23891
11
4.77891
21
-5.24454
0
LINE
8
BLACK
6
CONTINUOUS
10
4.77891
20
-5.24454
11
4.77328
21
-5.25016
0
LINE
8
BLACK
6
CONTINUOUS
10
4.77328
20
-5.25016
11
4.76766
21
-5.24454
0
LINE
8
BLACK
6
CONTINUOUS
10
4.76766
20
-5.24454
11
4.77328
21
-5.23891
0
LINE
8
BLACK
6
CONTINUOUS
10
4.77328
20
-5.23891
11
4.77328
21
-5.25016
0
LINE
8
BLACK
6
CONTINUOUS
10
4.8464
20
-5.18267
11
4.83515
21
-5.17705
0
LINE
8
BLACK
6
CONTINUOUS
10
4.83515
20
-5.17705
11
4.82953
21
-5.17142
0
LINE
8
BLACK
6
CONTINUOUS
10
4.82953
20
-5.17142
11
4.8239
21
-5.16017
0
LINE
8
BLACK
6
CONTINUOUS
10
4.8239
20
-5.16017
11
4.8239
21
-5.15455
0
LINE
8
BLACK
6
CONTINUOUS
10
4.8239
20
-5.15455
11
4.82953
21
-5.1433
0
LINE
8
BLACK
6
CONTINUOUS
10
4.82953
20
-5.1433
11
4.83515
21
-5.13768
0
LINE
8
BLACK
6
CONTINUOUS
10
4.83515
20
-5.13768
11
4.8464
21
-5.13205
0
LINE
8
BLACK
6
CONTINUOUS
10
4.8464
20
-5.13205
11
4.8689
21
-5.13205
0
LINE
8
BLACK
6
CONTINUOUS
10
4.8689
20
-5.13205
11
4.88015
21
-5.13768
0
LINE
8
BLACK
6
CONTINUOUS
10
4.88015
20
-5.13768
11
4.88577
21
-5.1433
0
LINE
8
BLACK
6
CONTINUOUS
10
4.88577
20
-5.1433
11
4.89139
21
-5.15455
0
LINE
8
BLACK
6
CONTINUOUS
10
4.89139
20
-5.15455
11
4.89139
21
-5.16017
0
LINE
8
BLACK
6
CONTINUOUS
10
4.89139
20
-5.16017
11
4.88577
21
-5.17142
0
LINE
8
BLACK
6
CONTINUOUS
10
4.88577
20
-5.17142
11
4.88015
21
-5.17705
0
LINE
8
BLACK
6
CONTINUOUS
10
4.88015
20
-5.17705
11
4.8689
21
-5.18267
0
LINE
8
BLACK
6
CONTINUOUS
10
4.8689
20
-5.18267
11
4.8464
21
-5.18267
0
LINE
8
BLACK
6
CONTINUOUS
10
4.8464
20
-5.18267
11
4.83515
21
-5.1883
0
LINE
8
BLACK
6
CONTINUOUS
10
4.83515
20
-5.1883
11
4.82953
21
-5.19392
0
LINE
8
BLACK
6
CONTINUOUS
10
4.82953
20
-5.19392
11
4.8239
21
-5.20517
0
LINE
8
BLACK
6
CONTINUOUS
10
4.8239
20
-5.20517
11
4.8239
21
-5.22767
0
LINE
8
BLACK
6
CONTINUOUS
10
4.8239
20
-5.22767
11
4.82953
21
-5.23891
0
LINE
8
BLACK
6
CONTINUOUS
10
4.82953
20
-5.23891
11
4.83515
21
-5.24454
0
LINE
8
BLACK
6
CONTINUOUS
10
4.83515
20
-5.24454
11
4.8464
21
-5.25016
0
LINE
8
BLACK
6
CONTINUOUS
10
4.8464
20
-5.25016
11
4.8689
21
-5.25016
0
LINE
8
BLACK
6
CONTINUOUS
10
4.8689
20
-5.25016
11
4.88015
21
-5.24454
0
LINE
8
BLACK
6
CONTINUOUS
10
4.88015
20
-5.24454
11
4.88577
21
-5.23891
0
LINE
8
BLACK
6
CONTINUOUS
10
4.88577
20
-5.23891
11
4.89139
21
-5.22767
0
LINE
8
BLACK
6
CONTINUOUS
10
4.89139
20
-5.22767
11
4.89139
21
-5.20517
0
LINE
8
BLACK
6
CONTINUOUS
10
4.89139
20
-5.20517
11
4.88577
21
-5.19392
0
LINE
8
BLACK
6
CONTINUOUS
10
4.88577
20
-5.19392
11
4.88015
21
-5.1883
0
LINE
8
BLACK
6
CONTINUOUS
10
4.88015
20
-5.1883
11
4.8689
21
-5.18267
0
LINE
8
BLACK
6
CONTINUOUS
10
4.96451
20
-5.13205
11
4.97576
21
-5.13205
0
LINE
8
BLACK
6
CONTINUOUS
10
4.97576
20
-5.13205
11
4.98701
21
-5.13768
0
LINE
8
BLACK
6
CONTINUOUS
10
4.98701
20
-5.13768
11
4.99263
21
-5.1433
0
LINE
8
BLACK
6
CONTINUOUS
10
4.99263
20
-5.1433
11
4.99826
21
-5.15455
0
LINE
8
BLACK
6
CONTINUOUS
10
4.99826
20
-5.15455
11
5.00388
21
-5.17705
0
LINE
8
BLACK
6
CONTINUOUS
10
5.00388
20
-5.17705
11
5.00388
21
-5.20517
0
LINE
8
BLACK
6
CONTINUOUS
10
5.00388
20
-5.20517
11
4.99826
21
-5.22767
0
LINE
8
BLACK
6
CONTINUOUS
10
4.99826
20
-5.22767
11
4.99263
21
-5.23891
0
LINE
8
BLACK
6
CONTINUOUS
10
4.99263
20
-5.23891
11
4.98701
21
-5.24454
0
LINE
8
BLACK
6
CONTINUOUS
10
4.98701
20
-5.24454
11
4.97576
21
-5.25016
0
LINE
8
BLACK
6
CONTINUOUS
10
4.97576
20
-5.25016
11
4.96451
21
-5.25016
0
LINE
8
BLACK
6
CONTINUOUS
10
4.96451
20
-5.25016
11
4.95326
21
-5.24454
0
LINE
8
BLACK
6
CONTINUOUS
10
4.95326
20
-5.24454
11
4.94764
21
-5.23891
0
LINE
8
BLACK
6
CONTINUOUS
10
4.94764
20
-5.23891
11
4.94201
21
-5.22767
0
LINE
8
BLACK
6
CONTINUOUS
10
4.94201
20
-5.22767
11
4.93639
21
-5.20517
0
LINE
8
BLACK
6
CONTINUOUS
10
4.93639
20
-5.20517
11
4.93639
21
-5.17705
0
LINE
8
BLACK
6
CONTINUOUS
10
4.93639
20
-5.17705
11
4.94201
21
-5.15455
0
LINE
8
BLACK
6
CONTINUOUS
10
4.94201
20
-5.15455
11
4.94764
21
-5.1433
0
LINE
8
BLACK
6
CONTINUOUS
10
4.94764
20
-5.1433
11
4.95326
21
-5.13768
0
LINE
8
BLACK
6
CONTINUOUS
10
4.95326
20
-5.13768
11
4.96451
21
-5.13205
0
LINE
8
BLACK
6
CONTINUOUS
10
5.0545
20
-5.25016
11
5.0545
21
-5.17142
0
LINE
8
BLACK
6
CONTINUOUS
10
5.0545
20
-5.18267
11
5.06012
21
-5.17705
0
LINE
8
BLACK
6
CONTINUOUS
10
5.06012
20
-5.17705
11
5.07137
21
-5.17142
0
LINE
8
BLACK
6
CONTINUOUS
10
5.07137
20
-5.17142
11
5.08825
21
-5.17142
0
LINE
8
BLACK
6
CONTINUOUS
10
5.08825
20
-5.17142
11
5.09949
21
-5.17705
0
LINE
8
BLACK
6
CONTINUOUS
10
5.09949
20
-5.17705
11
5.10512
21
-5.1883
0
LINE
8
BLACK
6
CONTINUOUS
10
5.10512
20
-5.1883
11
5.10512
21
-5.25016
0
LINE
8
BLACK
6
CONTINUOUS
10
5.10512
20
-5.1883
11
5.11074
21
-5.17705
0
LINE
8
BLACK
6
CONTINUOUS
10
5.11074
20
-5.17705
11
5.12199
21
-5.17142
0
LINE
8
BLACK
6
CONTINUOUS
10
5.12199
20
-5.17142
11
5.13886
21
-5.17142
0
LINE
8
BLACK
6
CONTINUOUS
10
5.13886
20
-5.17142
11
5.15011
21
-5.17705
0
LINE
8
BLACK
6
CONTINUOUS
10
5.15011
20
-5.17705
11
5.15574
21
-5.1883
0
LINE
8
BLACK
6
CONTINUOUS
10
5.15574
20
-5.1883
11
5.15574
21
-5.25016
0
LINE
8
BLACK
6
CONTINUOUS
10
5.21198
20
-5.25016
11
5.21198
21
-5.17142
0
LINE
8
BLACK
6
CONTINUOUS
10
5.21198
20
-5.18267
11
5.2176
21
-5.17705
0
LINE
8
BLACK
6
CONTINUOUS
10
5.2176
20
-5.17705
11
5.22885
21
-5.17142
0
LINE
8
BLACK
6
CONTINUOUS
10
5.22885
20
-5.17142
11
5.24573
21
-5.17142
0
LINE
8
BLACK
6
CONTINUOUS
10
5.24573
20
-5.17142
11
5.25697
21
-5.17705
0
LINE
8
BLACK
6
CONTINUOUS
10
5.25697
20
-5.17705
11
5.2626
21
-5.1883
0
LINE
8
BLACK
6
CONTINUOUS
10
5.2626
20
-5.1883
11
5.2626
21
-5.25016
0
LINE
8
BLACK
6
CONTINUOUS
10
5.2626
20
-5.1883
11
5.26822
21
-5.17705
0
LINE
8
BLACK
6
CONTINUOUS
10
5.26822
20
-5.17705
11
5.27947
21
-5.17142
0
LINE
8
BLACK
6
CONTINUOUS
10
5.27947
20
-5.17142
11
5.29634
21
-5.17142
0
LINE
8
BLACK
6
CONTINUOUS
10
5.29634
20
-5.17142
11
5.30759
21
-5.17705
0
LINE
8
BLACK
6
CONTINUOUS
10
5.30759
20
-5.17705
11
5.31322
21
-5.1883
0
LINE
8
BLACK
6
CONTINUOUS
10
5.31322
20
-5.1883
11
5.31322
21
-5.25016
0
LINE
8
BLACK
6
CONTINUOUS
10
5.54381
20
-5.12643
11
5.44258
21
-5.27828
0
LINE
8
BLACK
6
CONTINUOUS
10
5.69567
20
-5.13205
11
5.70692
21
-5.13205
0
LINE
8
BLACK
6
CONTINUOUS
10
5.70692
20
-5.13205
11
5.71817
21
-5.13768
0
LINE
8
BLACK
6
CONTINUOUS
10
5.71817
20
-5.13768
11
5.72379
21
-5.1433
0
LINE
8
BLACK
6
CONTINUOUS
10
5.72379
20
-5.1433
11
5.72941
21
-5.15455
0
LINE
8
BLACK
6
CONTINUOUS
10
5.72941
20
-5.15455
11
5.73504
21
-5.17705
0
LINE
8
BLACK
6
CONTINUOUS
10
5.73504
20
-5.17705
11
5.73504
21
-5.20517
0
LINE
8
BLACK
6
CONTINUOUS
10
5.73504
20
-5.20517
11
5.72941
21
-5.22767
0
LINE
8
BLACK
6
CONTINUOUS
10
5.72941
20
-5.22767
11
5.72379
21
-5.23891
0
LINE
8
BLACK
6
CONTINUOUS
10
5.72379
20
-5.23891
11
5.71817
21
-5.24454
0
LINE
8
BLACK
6
CONTINUOUS
10
5.71817
20
-5.24454
11
5.70692
21
-5.25016
0
LINE
8
BLACK
6
CONTINUOUS
10
5.70692
20
-5.25016
11
5.69567
21
-5.25016
0
LINE
8
BLACK
6
CONTINUOUS
10
5.69567
20
-5.25016
11
5.68442
21
-5.24454
0
LINE
8
BLACK
6
CONTINUOUS
10
5.68442
20
-5.24454
11
5.6788
21
-5.23891
0
LINE
8
BLACK
6
CONTINUOUS
10
5.6788
20
-5.23891
11
5.67317
21
-5.22767
0
LINE
8
BLACK
6
CONTINUOUS
10
5.67317
20
-5.22767
11
5.66755
21
-5.20517
0
LINE
8
BLACK
6
CONTINUOUS
10
5.66755
20
-5.20517
11
5.66755
21
-5.17705
0
LINE
8
BLACK
6
CONTINUOUS
10
5.66755
20
-5.17705
11
5.67317
21
-5.15455
0
LINE
8
BLACK
6
CONTINUOUS
10
5.67317
20
-5.15455
11
5.6788
21
-5.1433
0
LINE
8
BLACK
6
CONTINUOUS
10
5.6788
20
-5.1433
11
5.68442
21
-5.13768
0
LINE
8
BLACK
6
CONTINUOUS
10
5.68442
20
-5.13768
11
5.69567
21
-5.13205
0
LINE
8
BLACK
6
CONTINUOUS
10
5.78566
20
-5.23891
11
5.79128
21
-5.24454
0
LINE
8
BLACK
6
CONTINUOUS
10
5.79128
20
-5.24454
11
5.78566
21
-5.25016
0
LINE
8
BLACK
6
CONTINUOUS
10
5.78566
20
-5.25016
11
5.78003
21
-5.24454
0
LINE
8
BLACK
6
CONTINUOUS
10
5.78003
20
-5.24454
11
5.78566
21
-5.23891
0
LINE
8
BLACK
6
CONTINUOUS
10
5.78566
20
-5.23891
11
5.78566
21
-5.25016
0
LINE
8
BLACK
6
CONTINUOUS
10
5.8644
20
-5.13205
11
5.87565
21
-5.13205
0
LINE
8
BLACK
6
CONTINUOUS
10
5.87565
20
-5.13205
11
5.8869
21
-5.13768
0
LINE
8
BLACK
6
CONTINUOUS
10
5.8869
20
-5.13768
11
5.89252
21
-5.1433
0
LINE
8
BLACK
6
CONTINUOUS
10
5.89252
20
-5.1433
11
5.89814
21
-5.15455
0
LINE
8
BLACK
6
CONTINUOUS
10
5.89814
20
-5.15455
11
5.90377
21
-5.17705
0
LINE
8
BLACK
6
CONTINUOUS
10
5.90377
20
-5.17705
11
5.90377
21
-5.20517
0
LINE
8
BLACK
6
CONTINUOUS
10
5.90377
20
-5.20517
11
5.89814
21
-5.22767
0
LINE
8
BLACK
6
CONTINUOUS
10
5.89814
20
-5.22767
11
5.89252
21
-5.23891
0
LINE
8
BLACK
6
CONTINUOUS
10
5.89252
20
-5.23891
11
5.8869
21
-5.24454
0
LINE
8
BLACK
6
CONTINUOUS
10
5.8869
20
-5.24454
11
5.87565
21
-5.25016
0
LINE
8
BLACK
6
CONTINUOUS
10
5.87565
20
-5.25016
11
5.8644
21
-5.25016
0
LINE
8
BLACK
6
CONTINUOUS
10
5.8644
20
-5.25016
11
5.85315
21
-5.24454
0
LINE
8
BLACK
6
CONTINUOUS
10
5.85315
20
-5.24454
11
5.84753
21
-5.23891
0
LINE
8
BLACK
6
CONTINUOUS
10
5.84753
20
-5.23891
11
5.8419
21
-5.22767
0
LINE
8
BLACK
6
CONTINUOUS
10
5.8419
20
-5.22767
11
5.83628
21
-5.20517
0
LINE
8
BLACK
6
CONTINUOUS
10
5.83628
20
-5.20517
11
5.83628
21
-5.17705
0
LINE
8
BLACK
6
CONTINUOUS
10
5.83628
20
-5.17705
11
5.8419
21
-5.15455
0
LINE
8
BLACK
6
CONTINUOUS
10
5.8419
20
-5.15455
11
5.84753
21
-5.1433
0
LINE
8
BLACK
6
CONTINUOUS
10
5.84753
20
-5.1433
11
5.85315
21
-5.13768
0
LINE
8
BLACK
6
CONTINUOUS
10
5.85315
20
-5.13768
11
5.8644
21
-5.13205
0
LINE
8
BLACK
6
CONTINUOUS
10
5.94314
20
-5.13205
11
6.02188
21
-5.13205
0
LINE
8
BLACK
6
CONTINUOUS
10
6.02188
20
-5.13205
11
5.97126
21
-5.25016
0
LINE
8
BLACK
6
CONTINUOUS
10
6.12874
20
-5.25016
11
6.06125
21
-5.25016
0
LINE
8
BLACK
6
CONTINUOUS
10
6.09499
20
-5.25016
11
6.09499
21
-5.13205
0
LINE
8
BLACK
6
CONTINUOUS
10
6.09499
20
-5.13205
11
6.08375
21
-5.14893
0
LINE
8
BLACK
6
CONTINUOUS
10
6.08375
20
-5.14893
11
6.0725
21
-5.16017
0
LINE
8
BLACK
6
CONTINUOUS
10
6.0725
20
-5.16017
11
6.06125
21
-5.1658
0
LINE
8
BLACK
6
CONTINUOUS
10
6.17373
20
-5.13205
11
6.17373
21
-5.15455
0
LINE
8
BLACK
6
CONTINUOUS
10
6.21873
20
-5.13205
11
6.21873
21
-5.15455
0
LINE
8
BLACK
6
CONTINUOUS
10
6.39308
20
-5.29516
11
6.38746
21
-5.28953
0
LINE
8
BLACK
6
CONTINUOUS
10
6.38746
20
-5.28953
11
6.37621
21
-5.27266
0
LINE
8
BLACK
6
CONTINUOUS
10
6.37621
20
-5.27266
11
6.37058
21
-5.26141
0
LINE
8
BLACK
6
CONTINUOUS
10
6.37058
20
-5.26141
11
6.36496
21
-5.24454
0
LINE
8
BLACK
6
CONTINUOUS
10
6.36496
20
-5.24454
11
6.35934
21
-5.21642
0
LINE
8
BLACK
6
CONTINUOUS
10
6.35934
20
-5.21642
11
6.35934
21
-5.19392
0
LINE
8
BLACK
6
CONTINUOUS
10
6.35934
20
-5.19392
11
6.36496
21
-5.1658
0
LINE
8
BLACK
6
CONTINUOUS
10
6.36496
20
-5.1658
11
6.37058
21
-5.14893
0
LINE
8
BLACK
6
CONTINUOUS
10
6.37058
20
-5.14893
11
6.37621
21
-5.13768
0
LINE
8
BLACK
6
CONTINUOUS
10
6.37621
20
-5.13768
11
6.38746
21
-5.1208
0
LINE
8
BLACK
6
CONTINUOUS
10
6.38746
20
-5.1208
11
6.39308
21
-5.11518
0
LINE
8
BLACK
6
CONTINUOUS
10
6.43245
20
-5.1433
11
6.43808
21
-5.13768
0
LINE
8
BLACK
6
CONTINUOUS
10
6.43808
20
-5.13768
11
6.44933
21
-5.13205
0
LINE
8
BLACK
6
CONTINUOUS
10
6.44933
20
-5.13205
11
6.47745
21
-5.13205
0
LINE
8
BLACK
6
CONTINUOUS
10
6.47745
20
-5.13205
11
6.4887
21
-5.13768
0
LINE
8
BLACK
6
CONTINUOUS
10
6.4887
20
-5.13768
11
6.49432
21
-5.1433
0
LINE
8
BLACK
6
CONTINUOUS
10
6.49432
20
-5.1433
11
6.49994
21
-5.15455
0
LINE
8
BLACK
6
CONTINUOUS
10
6.49994
20
-5.15455
11
6.49994
21
-5.1658
0
LINE
8
BLACK
6
CONTINUOUS
10
6.49994
20
-5.1658
11
6.49432
21
-5.18267
0
LINE
8
BLACK
6
CONTINUOUS
10
6.49432
20
-5.18267
11
6.42683
21
-5.25016
0
LINE
8
BLACK
6
CONTINUOUS
10
6.42683
20
-5.25016
11
6.49994
21
-5.25016
0
LINE
8
BLACK
6
CONTINUOUS
10
6.64055
20
-5.25016
11
6.64055
21
-5.13205
0
LINE
8
BLACK
6
CONTINUOUS
10
6.69117
20
-5.25016
11
6.69117
21
-5.1883
0
LINE
8
BLACK
6
CONTINUOUS
10
6.69117
20
-5.1883
11
6.68555
21
-5.17705
0
LINE
8
BLACK
6
CONTINUOUS
10
6.68555
20
-5.17705
11
6.6743
21
-5.17142
0
LINE
8
BLACK
6
CONTINUOUS
10
6.6743
20
-5.17142
11
6.65742
21
-5.17142
0
LINE
8
BLACK
6
CONTINUOUS
10
6.65742
20
-5.17142
11
6.64618
21
-5.17705
0
LINE
8
BLACK
6
CONTINUOUS
10
6.64618
20
-5.17705
11
6.64055
21
-5.18267
0
LINE
8
BLACK
6
CONTINUOUS
10
6.76429
20
-5.25016
11
6.75304
21
-5.24454
0
LINE
8
BLACK
6
CONTINUOUS
10
6.75304
20
-5.24454
11
6.74741
21
-5.23891
0
LINE
8
BLACK
6
CONTINUOUS
10
6.74741
20
-5.23891
11
6.74179
21
-5.22767
0
LINE
8
BLACK
6
CONTINUOUS
10
6.74179
20
-5.22767
11
6.74179
21
-5.19392
0
LINE
8
BLACK
6
CONTINUOUS
10
6.74179
20
-5.19392
11
6.74741
21
-5.18267
0
LINE
8
BLACK
6
CONTINUOUS
10
6.74741
20
-5.18267
11
6.75304
21
-5.17705
0
LINE
8
BLACK
6
CONTINUOUS
10
6.75304
20
-5.17705
11
6.76429
21
-5.17142
0
LINE
8
BLACK
6
CONTINUOUS
10
6.76429
20
-5.17142
11
6.78116
21
-5.17142
0
LINE
8
BLACK
6
CONTINUOUS
10
6.78116
20
-5.17142
11
6.79241
21
-5.17705
0
LINE
8
BLACK
6
CONTINUOUS
10
6.79241
20
-5.17705
11
6.79803
21
-5.18267
0
LINE
8
BLACK
6
CONTINUOUS
10
6.79803
20
-5.18267
11
6.80366
21
-5.19392
0
LINE
8
BLACK
6
CONTINUOUS
10
6.80366
20
-5.19392
11
6.80366
21
-5.22767
0
LINE
8
BLACK
6
CONTINUOUS
10
6.80366
20
-5.22767
11
6.79803
21
-5.23891
0
LINE
8
BLACK
6
CONTINUOUS
10
6.79803
20
-5.23891
11
6.79241
21
-5.24454
0
LINE
8
BLACK
6
CONTINUOUS
10
6.79241
20
-5.24454
11
6.78116
21
-5.25016
0
LINE
8
BLACK
6
CONTINUOUS
10
6.78116
20
-5.25016
11
6.76429
21
-5.25016
0
LINE
8
BLACK
6
CONTINUOUS
10
6.87115
20
-5.25016
11
6.8599
21
-5.24454
0
LINE
8
BLACK
6
CONTINUOUS
10
6.8599
20
-5.24454
11
6.85427
21
-5.23329
0
LINE
8
BLACK
6
CONTINUOUS
10
6.85427
20
-5.23329
11
6.85427
21
-5.13205
0
LINE
8
BLACK
6
CONTINUOUS
10
6.96114
20
-5.24454
11
6.94989
21
-5.25016
0
LINE
8
BLACK
6
CONTINUOUS
10
6.94989
20
-5.25016
11
6.92739
21
-5.25016
0
LINE
8
BLACK
6
CONTINUOUS
10
6.92739
20
-5.25016
11
6.91614
21
-5.24454
0
LINE
8
BLACK
6
CONTINUOUS
10
6.91614
20
-5.24454
11
6.91052
21
-5.23329
0
LINE
8
BLACK
6
CONTINUOUS
10
6.91052
20
-5.23329
11
6.91052
21
-5.1883
0
LINE
8
BLACK
6
CONTINUOUS
10
6.91052
20
-5.1883
11
6.91614
21
-5.17705
0
LINE
8
BLACK
6
CONTINUOUS
10
6.91614
20
-5.17705
11
6.92739
21
-5.17142
0
LINE
8
BLACK
6
CONTINUOUS
10
6.92739
20
-5.17142
11
6.94989
21
-5.17142
0
LINE
8
BLACK
6
CONTINUOUS
10
6.94989
20
-5.17142
11
6.96114
21
-5.17705
0
LINE
8
BLACK
6
CONTINUOUS
10
6.96114
20
-5.17705
11
6.96676
21
-5.1883
0
LINE
8
BLACK
6
CONTINUOUS
10
6.96676
20
-5.1883
11
6.96676
21
-5.19954
0
LINE
8
BLACK
6
CONTINUOUS
10
6.96676
20
-5.19954
11
6.91052
21
-5.21079
0
LINE
8
BLACK
6
CONTINUOUS
10
7.01175
20
-5.24454
11
7.023
21
-5.25016
0
LINE
8
BLACK
6
CONTINUOUS
10
7.023
20
-5.25016
11
7.0455
21
-5.25016
0
LINE
8
BLACK
6
CONTINUOUS
10
7.0455
20
-5.25016
11
7.05675
21
-5.24454
0
LINE
8
BLACK
6
CONTINUOUS
10
7.05675
20
-5.24454
11
7.06237
21
-5.23329
0
LINE
8
BLACK
6
CONTINUOUS
10
7.06237
20
-5.23329
11
7.06237
21
-5.22767
0
LINE
8
BLACK
6
CONTINUOUS
10
7.06237
20
-5.22767
11
7.05675
21
-5.21642
0
LINE
8
BLACK
6
CONTINUOUS
10
7.05675
20
-5.21642
11
7.0455
21
-5.21079
0
LINE
8
BLACK
6
CONTINUOUS
10
7.0455
20
-5.21079
11
7.02863
21
-5.21079
0
LINE
8
BLACK
6
CONTINUOUS
10
7.02863
20
-5.21079
11
7.01738
21
-5.20517
0
LINE
8
BLACK
6
CONTINUOUS
10
7.01738
20
-5.20517
11
7.01175
21
-5.19392
0
LINE
8
BLACK
6
CONTINUOUS
10
7.01175
20
-5.19392
11
7.01175
21
-5.1883
0
LINE
8
BLACK
6
CONTINUOUS
10
7.01175
20
-5.1883
11
7.01738
21
-5.17705
0
LINE
8
BLACK
6
CONTINUOUS
10
7.01738
20
-5.17705
11
7.02863
21
-5.17142
0
LINE
8
BLACK
6
CONTINUOUS
10
7.02863
20
-5.17142
11
7.0455
21
-5.17142
0
LINE
8
BLACK
6
CONTINUOUS
10
7.0455
20
-5.17142
11
7.05675
21
-5.17705
0
LINE
8
BLACK
6
CONTINUOUS
10
7.10174
20
-5.29516
11
7.10737
21
-5.28953
0
LINE
8
BLACK
6
CONTINUOUS
10
7.10737
20
-5.28953
11
7.11862
21
-5.27266
0
LINE
8
BLACK
6
CONTINUOUS
10
7.11862
20
-5.27266
11
7.12424
21
-5.26141
0
LINE
8
BLACK
6
CONTINUOUS
10
7.12424
20
-5.26141
11
7.12986
21
-5.24454
0
LINE
8
BLACK
6
CONTINUOUS
10
7.12986
20
-5.24454
11
7.13549
21
-5.21642
0
LINE
8
BLACK
6
CONTINUOUS
10
7.13549
20
-5.21642
11
7.13549
21
-5.19392
0
LINE
8
BLACK
6
CONTINUOUS
10
7.13549
20
-5.19392
11
7.12986
21
-5.1658
0
LINE
8
BLACK
6
CONTINUOUS
10
7.12986
20
-5.1658
11
7.12424
21
-5.14893
0
LINE
8
BLACK
6
CONTINUOUS
10
7.12424
20
-5.14893
11
7.11862
21
-5.13768
0
LINE
8
BLACK
6
CONTINUOUS
10
7.11862
20
-5.13768
11
7.10737
21
-5.1208
0
LINE
8
BLACK
6
CONTINUOUS
10
7.10737
20
-5.1208
11
7.10174
21
-5.11518
0
LINE
8
BLACK
6
CONTINUOUS
10
7.31547
20
-5.29516
11
7.30984
21
-5.28953
0
LINE
8
BLACK
6
CONTINUOUS
10
7.30984
20
-5.28953
11
7.29859
21
-5.27266
0
LINE
8
BLACK
6
CONTINUOUS
10
7.29859
20
-5.27266
11
7.29297
21
-5.26141
0
LINE
8
BLACK
6
CONTINUOUS
10
7.29297
20
-5.26141
11
7.28735
21
-5.24454
0
LINE
8
BLACK
6
CONTINUOUS
10
7.28735
20
-5.24454
11
7.28172
21
-5.21642
0
LINE
8
BLACK
6
CONTINUOUS
10
7.28172
20
-5.21642
11
7.28172
21
-5.19392
0
LINE
8
BLACK
6
CONTINUOUS
10
7.28172
20
-5.19392
11
7.28735
21
-5.1658
0
LINE
8
BLACK
6
CONTINUOUS
10
7.28735
20
-5.1658
11
7.29297
21
-5.14893
0
LINE
8
BLACK
6
CONTINUOUS
10
7.29297
20
-5.14893
11
7.29859
21
-5.13768
0
LINE
8
BLACK
6
CONTINUOUS
10
7.29859
20
-5.13768
11
7.30984
21
-5.1208
0
LINE
8
BLACK
6
CONTINUOUS
10
7.30984
20
-5.1208
11
7.31547
21
-5.11518
0
LINE
8
BLACK
6
CONTINUOUS
10
7.36046
20
-5.17142
11
7.36046
21
-5.25016
0
LINE
8
BLACK
6
CONTINUOUS
10
7.36046
20
-5.18267
11
7.36609
21
-5.17705
0
LINE
8
BLACK
6
CONTINUOUS
10
7.36609
20
-5.17705
11
7.37733
21
-5.17142
0
LINE
8
BLACK
6
CONTINUOUS
10
7.37733
20
-5.17142
11
7.39421
21
-5.17142
0
LINE
8
BLACK
6
CONTINUOUS
10
7.39421
20
-5.17142
11
7.40546
21
-5.17705
0
LINE
8
BLACK
6
CONTINUOUS
10
7.40546
20
-5.17705
11
7.41108
21
-5.1883
0
LINE
8
BLACK
6
CONTINUOUS
10
7.41108
20
-5.1883
11
7.41108
21
-5.25016
0
LINE
8
BLACK
6
CONTINUOUS
10
7.4842
20
-5.25016
11
7.47295
21
-5.24454
0
LINE
8
BLACK
6
CONTINUOUS
10
7.47295
20
-5.24454
11
7.46732
21
-5.23891
0
LINE
8
BLACK
6
CONTINUOUS
10
7.46732
20
-5.23891
11
7.4617
21
-5.22767
0
LINE
8
BLACK
6
CONTINUOUS
10
7.4617
20
-5.22767
11
7.4617
21
-5.19392
0
LINE
8
BLACK
6
CONTINUOUS
10
7.4617
20
-5.19392
11
7.46732
21
-5.18267
0
LINE
8
BLACK
6
CONTINUOUS
10
7.46732
20
-5.18267
11
7.47295
21
-5.17705
0
LINE
8
BLACK
6
CONTINUOUS
10
7.47295
20
-5.17705
11
7.4842
21
-5.17142
0
LINE
8
BLACK
6
CONTINUOUS
10
7.4842
20
-5.17142
11
7.50107
21
-5.17142
0
LINE
8
BLACK
6
CONTINUOUS
10
7.50107
20
-5.17142
11
7.51232
21
-5.17705
0
LINE
8
BLACK
6
CONTINUOUS
10
7.51232
20
-5.17705
11
7.51794
21
-5.18267
0
LINE
8
BLACK
6
CONTINUOUS
10
7.51794
20
-5.18267
11
7.52357
21
-5.19392
0
LINE
8
BLACK
6
CONTINUOUS
10
7.52357
20
-5.19392
11
7.52357
21
-5.22767
0
LINE
8
BLACK
6
CONTINUOUS
10
7.52357
20
-5.22767
11
7.51794
21
-5.23891
0
LINE
8
BLACK
6
CONTINUOUS
10
7.51794
20
-5.23891
11
7.51232
21
-5.24454
0
LINE
8
BLACK
6
CONTINUOUS
10
7.51232
20
-5.24454
11
7.50107
21
-5.25016
0
LINE
8
BLACK
6
CONTINUOUS
10
7.50107
20
-5.25016
11
7.4842
21
-5.25016
0
LINE
8
BLACK
6
CONTINUOUS
10
7.55731
20
-5.17142
11
7.60231
21
-5.17142
0
LINE
8
BLACK
6
CONTINUOUS
10
7.57418
20
-5.13205
11
7.57418
21
-5.23329
0
LINE
8
BLACK
6
CONTINUOUS
10
7.57418
20
-5.23329
11
7.57981
21
-5.24454
0
LINE
8
BLACK
6
CONTINUOUS
10
7.57981
20
-5.24454
11
7.59106
21
-5.25016
0
LINE
8
BLACK
6
CONTINUOUS
10
7.59106
20
-5.25016
11
7.60231
21
-5.25016
0
LINE
8
BLACK
6
CONTINUOUS
10
7.73166
20
-5.17142
11
7.73166
21
-5.28953
0
LINE
8
BLACK
6
CONTINUOUS
10
7.73166
20
-5.17705
11
7.74291
21
-5.17142
0
LINE
8
BLACK
6
CONTINUOUS
10
7.74291
20
-5.17142
11
7.76541
21
-5.17142
0
LINE
8
BLACK
6
CONTINUOUS
10
7.76541
20
-5.17142
11
7.77666
21
-5.17705
0
LINE
8
BLACK
6
CONTINUOUS
10
7.77666
20
-5.17705
11
7.78228
21
-5.18267
0
LINE
8
BLACK
6
CONTINUOUS
10
7.78228
20
-5.18267
11
7.78791
21
-5.19392
0
LINE
8
BLACK
6
CONTINUOUS
10
7.78791
20
-5.19392
11
7.78791
21
-5.22767
0
LINE
8
BLACK
6
CONTINUOUS
10
7.78791
20
-5.22767
11
7.78228
21
-5.23891
0
LINE
8
BLACK
6
CONTINUOUS
10
7.78228
20
-5.23891
11
7.77666
21
-5.24454
0
LINE
8
BLACK
6
CONTINUOUS
10
7.77666
20
-5.24454
11
7.76541
21
-5.25016
0
LINE
8
BLACK
6
CONTINUOUS
10
7.76541
20
-5.25016
11
7.74291
21
-5.25016
0
LINE
8
BLACK
6
CONTINUOUS
10
7.74291
20
-5.25016
11
7.73166
21
-5.24454
0
LINE
8
BLACK
6
CONTINUOUS
10
7.8554
20
-5.25016
11
7.84415
21
-5.24454
0
LINE
8
BLACK
6
CONTINUOUS
10
7.84415
20
-5.24454
11
7.83853
21
-5.23329
0
LINE
8
BLACK
6
CONTINUOUS
10
7.83853
20
-5.23329
11
7.83853
21
-5.13205
0
LINE
8
BLACK
6
CONTINUOUS
10
7.95101
20
-5.25016
11
7.95101
21
-5.1883
0
LINE
8
BLACK
6
CONTINUOUS
10
7.95101
20
-5.1883
11
7.94539
21
-5.17705
0
LINE
8
BLACK
6
CONTINUOUS
10
7.94539
20
-5.17705
11
7.93414
21
-5.17142
0
LINE
8
BLACK
6
CONTINUOUS
10
7.93414
20
-5.17142
11
7.91164
21
-5.17142
0
LINE
8
BLACK
6
CONTINUOUS
10
7.91164
20
-5.17142
11
7.90039
21
-5.17705
0
LINE
8
BLACK
6
CONTINUOUS
10
7.95101
20
-5.24454
11
7.93976
21
-5.25016
0
LINE
8
BLACK
6
CONTINUOUS
10
7.93976
20
-5.25016
11
7.91164
21
-5.25016
0
LINE
8
BLACK
6
CONTINUOUS
10
7.91164
20
-5.25016
11
7.90039
21
-5.24454
0
LINE
8
BLACK
6
CONTINUOUS
10
7.90039
20
-5.24454
11
7.89477
21
-5.23329
0
LINE
8
BLACK
6
CONTINUOUS
10
7.89477
20
-5.23329
11
7.89477
21
-5.22204
0
LINE
8
BLACK
6
CONTINUOUS
10
7.89477
20
-5.22204
11
7.90039
21
-5.21079
0
LINE
8
BLACK
6
CONTINUOUS
10
7.90039
20
-5.21079
11
7.91164
21
-5.20517
0
LINE
8
BLACK
6
CONTINUOUS
10
7.91164
20
-5.20517
11
7.93976
21
-5.20517
0
LINE
8
BLACK
6
CONTINUOUS
10
7.93976
20
-5.20517
11
7.95101
21
-5.19954
0
LINE
8
BLACK
6
CONTINUOUS
10
7.99038
20
-5.17142
11
8.03538
21
-5.17142
0
LINE
8
BLACK
6
CONTINUOUS
10
8.00726
20
-5.13205
11
8.00726
21
-5.23329
0
LINE
8
BLACK
6
CONTINUOUS
10
8.00726
20
-5.23329
11
8.01288
21
-5.24454
0
LINE
8
BLACK
6
CONTINUOUS
10
8.01288
20
-5.24454
11
8.02413
21
-5.25016
0
LINE
8
BLACK
6
CONTINUOUS
10
8.02413
20
-5.25016
11
8.03538
21
-5.25016
0
LINE
8
BLACK
6
CONTINUOUS
10
8.11974
20
-5.24454
11
8.10849
21
-5.25016
0
LINE
8
BLACK
6
CONTINUOUS
10
8.10849
20
-5.25016
11
8.086
21
-5.25016
0
LINE
8
BLACK
6
CONTINUOUS
10
8.086
20
-5.25016
11
8.07475
21
-5.24454
0
LINE
8
BLACK
6
CONTINUOUS
10
8.07475
20
-5.24454
11
8.06912
21
-5.23329
0
LINE
8
BLACK
6
CONTINUOUS
10
8.06912
20
-5.23329
11
8.06912
21
-5.1883
0
LINE
8
BLACK
6
CONTINUOUS
10
8.06912
20
-5.1883
11
8.07475
21
-5.17705
0
LINE
8
BLACK
6
CONTINUOUS
10
8.07475
20
-5.17705
11
8.086
21
-5.17142
0
LINE
8
BLACK
6
CONTINUOUS
10
8.086
20
-5.17142
11
8.10849
21
-5.17142
0
LINE
8
BLACK
6
CONTINUOUS
10
8.10849
20
-5.17142
11
8.11974
21
-5.17705
0
LINE
8
BLACK
6
CONTINUOUS
10
8.11974
20
-5.17705
11
8.12537
21
-5.1883
0
LINE
8
BLACK
6
CONTINUOUS
10
8.12537
20
-5.1883
11
8.12537
21
-5.19954
0
LINE
8
BLACK
6
CONTINUOUS
10
8.12537
20
-5.19954
11
8.06912
21
-5.21079
0
LINE
8
BLACK
6
CONTINUOUS
10
8.2266
20
-5.25016
11
8.2266
21
-5.13205
0
LINE
8
BLACK
6
CONTINUOUS
10
8.2266
20
-5.24454
11
8.21535
21
-5.25016
0
LINE
8
BLACK
6
CONTINUOUS
10
8.21535
20
-5.25016
11
8.19286
21
-5.25016
0
LINE
8
BLACK
6
CONTINUOUS
10
8.19286
20
-5.25016
11
8.18161
21
-5.24454
0
LINE
8
BLACK
6
CONTINUOUS
10
8.18161
20
-5.24454
11
8.17598
21
-5.23891
0
LINE
8
BLACK
6
CONTINUOUS
10
8.17598
20
-5.23891
11
8.17036
21
-5.22767
0
LINE
8
BLACK
6
CONTINUOUS
10
8.17036
20
-5.22767
11
8.17036
21
-5.19392
0
LINE
8
BLACK
6
CONTINUOUS
10
8.17036
20
-5.19392
11
8.17598
21
-5.18267
0
LINE
8
BLACK
6
CONTINUOUS
10
8.17598
20
-5.18267
11
8.18161
21
-5.17705
0
LINE
8
BLACK
6
CONTINUOUS
10
8.18161
20
-5.17705
11
8.19286
21
-5.17142
0
LINE
8
BLACK
6
CONTINUOUS
10
8.19286
20
-5.17142
11
8.21535
21
-5.17142
0
LINE
8
BLACK
6
CONTINUOUS
10
8.21535
20
-5.17142
11
8.2266
21
-5.17705
0
LINE
8
BLACK
6
CONTINUOUS
10
8.2716
20
-5.29516
11
8.27722
21
-5.28953
0
LINE
8
BLACK
6
CONTINUOUS
10
8.27722
20
-5.28953
11
8.28847
21
-5.27266
0
LINE
8
BLACK
6
CONTINUOUS
10
8.28847
20
-5.27266
11
8.29409
21
-5.26141
0
LINE
8
BLACK
6
CONTINUOUS
10
8.29409
20
-5.26141
11
8.29972
21
-5.24454
0
LINE
8
BLACK
6
CONTINUOUS
10
8.29972
20
-5.24454
11
8.30534
21
-5.21642
0
LINE
8
BLACK
6
CONTINUOUS
10
8.30534
20
-5.21642
11
8.30534
21
-5.19392
0
LINE
8
BLACK
6
CONTINUOUS
10
8.30534
20
-5.19392
11
8.29972
21
-5.1658
0
LINE
8
BLACK
6
CONTINUOUS
10
8.29972
20
-5.1658
11
8.29409
21
-5.14893
0
LINE
8
BLACK
6
CONTINUOUS
10
8.29409
20
-5.14893
11
8.28847
21
-5.13768
0
LINE
8
BLACK
6
CONTINUOUS
10
8.28847
20
-5.13768
11
8.27722
21
-5.1208
0
LINE
8
BLACK
6
CONTINUOUS
10
8.27722
20
-5.1208
11
8.2716
21
-5.11518
0
LINE
8
BLACK
6
CONTINUOUS
10
4.53189
20
-5.39161
11
4.53189
21
-5.31366
0
LINE
8
BLACK
6
CONTINUOUS
10
4.53189
20
-5.31366
11
4.45394
21
-5.31366
0
LINE
8
BLACK
6
CONTINUOUS
10
4.45394
20
-5.31366
11
4.45394
21
-5.39161
0
LINE
8
BLACK
6
CONTINUOUS
10
4.45394
20
-5.39161
11
4.53189
21
-5.39161
0
LINE
8
BLACK
6
CONTINUOUS
10
4.65517
20
-5.29921
11
4.6608
21
-5.29358
0
LINE
8
BLACK
6
CONTINUOUS
10
4.6608
20
-5.29358
11
4.67205
21
-5.28796
0
LINE
8
BLACK
6
CONTINUOUS
10
4.67205
20
-5.28796
11
4.70017
21
-5.28796
0
LINE
8
BLACK
6
CONTINUOUS
10
4.70017
20
-5.28796
11
4.71142
21
-5.29358
0
LINE
8
BLACK
6
CONTINUOUS
10
4.71142
20
-5.29358
11
4.71704
21
-5.29921
0
LINE
8
BLACK
6
CONTINUOUS
10
4.71704
20
-5.29921
11
4.72267
21
-5.31046
0
LINE
8
BLACK
6
CONTINUOUS
10
4.72267
20
-5.31046
11
4.72267
21
-5.3217
0
LINE
8
BLACK
6
CONTINUOUS
10
4.72267
20
-5.3217
11
4.71704
21
-5.33858
0
LINE
8
BLACK
6
CONTINUOUS
10
4.71704
20
-5.33858
11
4.64955
21
-5.40607
0
LINE
8
BLACK
6
CONTINUOUS
10
4.64955
20
-5.40607
11
4.72267
21
-5.40607
0
LINE
8
BLACK
6
CONTINUOUS
10
4.77328
20
-5.39482
11
4.77891
21
-5.40044
0
LINE
8
BLACK
6
CONTINUOUS
10
4.77891
20
-5.40044
11
4.77328
21
-5.40607
0
LINE
8
BLACK
6
CONTINUOUS
10
4.77328
20
-5.40607
11
4.76766
21
-5.40044
0
LINE
8
BLACK
6
CONTINUOUS
10
4.76766
20
-5.40044
11
4.77328
21
-5.39482
0
LINE
8
BLACK
6
CONTINUOUS
10
4.77328
20
-5.39482
11
4.77328
21
-5.40607
0
LINE
8
BLACK
6
CONTINUOUS
10
4.8464
20
-5.33858
11
4.83515
21
-5.33295
0
LINE
8
BLACK
6
CONTINUOUS
10
4.83515
20
-5.33295
11
4.82953
21
-5.32733
0
LINE
8
BLACK
6
CONTINUOUS
10
4.82953
20
-5.32733
11
4.8239
21
-5.31608
0
LINE
8
BLACK
6
CONTINUOUS
10
4.8239
20
-5.31608
11
4.8239
21
-5.31046
0
LINE
8
BLACK
6
CONTINUOUS
10
4.8239
20
-5.31046
11
4.82953
21
-5.29921
0
LINE
8
BLACK
6
CONTINUOUS
10
4.82953
20
-5.29921
11
4.83515
21
-5.29358
0
LINE
8
BLACK
6
CONTINUOUS
10
4.83515
20
-5.29358
11
4.8464
21
-5.28796
0
LINE
8
BLACK
6
CONTINUOUS
10
4.8464
20
-5.28796
11
4.8689
21
-5.28796
0
LINE
8
BLACK
6
CONTINUOUS
10
4.8689
20
-5.28796
11
4.88015
21
-5.29358
0
LINE
8
BLACK
6
CONTINUOUS
10
4.88015
20
-5.29358
11
4.88577
21
-5.29921
0
LINE
8
BLACK
6
CONTINUOUS
10
4.88577
20
-5.29921
11
4.89139
21
-5.31046
0
LINE
8
BLACK
6
CONTINUOUS
10
4.89139
20
-5.31046
11
4.89139
21
-5.31608
0
LINE
8
BLACK
6
CONTINUOUS
10
4.89139
20
-5.31608
11
4.88577
21
-5.32733
0
LINE
8
BLACK
6
CONTINUOUS
10
4.88577
20
-5.32733
11
4.88015
21
-5.33295
0
LINE
8
BLACK
6
CONTINUOUS
10
4.88015
20
-5.33295
11
4.8689
21
-5.33858
0
LINE
8
BLACK
6
CONTINUOUS
10
4.8689
20
-5.33858
11
4.8464
21
-5.33858
0
LINE
8
BLACK
6
CONTINUOUS
10
4.8464
20
-5.33858
11
4.83515
21
-5.3442
0
LINE
8
BLACK
6
CONTINUOUS
10
4.83515
20
-5.3442
11
4.82953
21
-5.34983
0
LINE
8
BLACK
6
CONTINUOUS
10
4.82953
20
-5.34983
11
4.8239
21
-5.36107
0
LINE
8
BLACK
6
CONTINUOUS
10
4.8239
20
-5.36107
11
4.8239
21
-5.38357
0
LINE
8
BLACK
6
CONTINUOUS
10
4.8239
20
-5.38357
11
4.82953
21
-5.39482
0
LINE
8
BLACK
6
CONTINUOUS
10
4.82953
20
-5.39482
11
4.83515
21
-5.40044
0
LINE
8
BLACK
6
CONTINUOUS
10
4.83515
20
-5.40044
11
4.8464
21
-5.40607
0
LINE
8
BLACK
6
CONTINUOUS
10
4.8464
20
-5.40607
11
4.8689
21
-5.40607
0
LINE
8
BLACK
6
CONTINUOUS
10
4.8689
20
-5.40607
11
4.88015
21
-5.40044
0
LINE
8
BLACK
6
CONTINUOUS
10
4.88015
20
-5.40044
11
4.88577
21
-5.39482
0
LINE
8
BLACK
6
CONTINUOUS
10
4.88577
20
-5.39482
11
4.89139
21
-5.38357
0
LINE
8
BLACK
6
CONTINUOUS
10
4.89139
20
-5.38357
11
4.89139
21
-5.36107
0
LINE
8
BLACK
6
CONTINUOUS
10
4.89139
20
-5.36107
11
4.88577
21
-5.34983
0
LINE
8
BLACK
6
CONTINUOUS
10
4.88577
20
-5.34983
11
4.88015
21
-5.3442
0
LINE
8
BLACK
6
CONTINUOUS
10
4.88015
20
-5.3442
11
4.8689
21
-5.33858
0
LINE
8
BLACK
6
CONTINUOUS
10
4.96451
20
-5.28796
11
4.97576
21
-5.28796
0
LINE
8
BLACK
6
CONTINUOUS
10
4.97576
20
-5.28796
11
4.98701
21
-5.29358
0
LINE
8
BLACK
6
CONTINUOUS
10
4.98701
20
-5.29358
11
4.99263
21
-5.29921
0
LINE
8
BLACK
6
CONTINUOUS
10
4.99263
20
-5.29921
11
4.99826
21
-5.31046
0
LINE
8
BLACK
6
CONTINUOUS
10
4.99826
20
-5.31046
11
5.00388
21
-5.33295
0
LINE
8
BLACK
6
CONTINUOUS
10
5.00388
20
-5.33295
11
5.00388
21
-5.36107
0
LINE
8
BLACK
6
CONTINUOUS
10
5.00388
20
-5.36107
11
4.99826
21
-5.38357
0
LINE
8
BLACK
6
CONTINUOUS
10
4.99826
20
-5.38357
11
4.99263
21
-5.39482
0
LINE
8
BLACK
6
CONTINUOUS
10
4.99263
20
-5.39482
11
4.98701
21
-5.40044
0
LINE
8
BLACK
6
CONTINUOUS
10
4.98701
20
-5.40044
11
4.97576
21
-5.40607
0
LINE
8
BLACK
6
CONTINUOUS
10
4.97576
20
-5.40607
11
4.96451
21
-5.40607
0
LINE
8
BLACK
6
CONTINUOUS
10
4.96451
20
-5.40607
11
4.95326
21
-5.40044
0
LINE
8
BLACK
6
CONTINUOUS
10
4.95326
20
-5.40044
11
4.94764
21
-5.39482
0
LINE
8
BLACK
6
CONTINUOUS
10
4.94764
20
-5.39482
11
4.94201
21
-5.38357
0
LINE
8
BLACK
6
CONTINUOUS
10
4.94201
20
-5.38357
11
4.93639
21
-5.36107
0
LINE
8
BLACK
6
CONTINUOUS
10
4.93639
20
-5.36107
11
4.93639
21
-5.33295
0
LINE
8
BLACK
6
CONTINUOUS
10
4.93639
20
-5.33295
11
4.94201
21
-5.31046
0
LINE
8
BLACK
6
CONTINUOUS
10
4.94201
20
-5.31046
11
4.94764
21
-5.29921
0
LINE
8
BLACK
6
CONTINUOUS
10
4.94764
20
-5.29921
11
4.95326
21
-5.29358
0
LINE
8
BLACK
6
CONTINUOUS
10
4.95326
20
-5.29358
11
4.96451
21
-5.28796
0
LINE
8
BLACK
6
CONTINUOUS
10
5.0545
20
-5.40607
11
5.0545
21
-5.32733
0
LINE
8
BLACK
6
CONTINUOUS
10
5.0545
20
-5.33858
11
5.06012
21
-5.33295
0
LINE
8
BLACK
6
CONTINUOUS
10
5.06012
20
-5.33295
11
5.07137
21
-5.32733
0
LINE
8
BLACK
6
CONTINUOUS
10
5.07137
20
-5.32733
11
5.08825
21
-5.32733
0
LINE
8
BLACK
6
CONTINUOUS
10
5.08825
20
-5.32733
11
5.09949
21
-5.33295
0
LINE
8
BLACK
6
CONTINUOUS
10
5.09949
20
-5.33295
11
5.10512
21
-5.3442
0
LINE
8
BLACK
6
CONTINUOUS
10
5.10512
20
-5.3442
11
5.10512
21
-5.40607
0
LINE
8
BLACK
6
CONTINUOUS
10
5.10512
20
-5.3442
11
5.11074
21
-5.33295
0
LINE
8
BLACK
6
CONTINUOUS
10
5.11074
20
-5.33295
11
5.12199
21
-5.32733
0
LINE
8
BLACK
6
CONTINUOUS
10
5.12199
20
-5.32733
11
5.13886
21
-5.32733
0
LINE
8
BLACK
6
CONTINUOUS
10
5.13886
20
-5.32733
11
5.15011
21
-5.33295
0
LINE
8
BLACK
6
CONTINUOUS
10
5.15011
20
-5.33295
11
5.15574
21
-5.3442
0
LINE
8
BLACK
6
CONTINUOUS
10
5.15574
20
-5.3442
11
5.15574
21
-5.40607
0
LINE
8
BLACK
6
CONTINUOUS
10
5.21198
20
-5.40607
11
5.21198
21
-5.32733
0
LINE
8
BLACK
6
CONTINUOUS
10
5.21198
20
-5.33858
11
5.2176
21
-5.33295
0
LINE
8
BLACK
6
CONTINUOUS
10
5.2176
20
-5.33295
11
5.22885
21
-5.32733
0
LINE
8
BLACK
6
CONTINUOUS
10
5.22885
20
-5.32733
11
5.24573
21
-5.32733
0
LINE
8
BLACK
6
CONTINUOUS
10
5.24573
20
-5.32733
11
5.25697
21
-5.33295
0
LINE
8
BLACK
6
CONTINUOUS
10
5.25697
20
-5.33295
11
5.2626
21
-5.3442
0
LINE
8
BLACK
6
CONTINUOUS
10
5.2626
20
-5.3442
11
5.2626
21
-5.40607
0
LINE
8
BLACK
6
CONTINUOUS
10
5.2626
20
-5.3442
11
5.26822
21
-5.33295
0
LINE
8
BLACK
6
CONTINUOUS
10
5.26822
20
-5.33295
11
5.27947
21
-5.32733
0
LINE
8
BLACK
6
CONTINUOUS
10
5.27947
20
-5.32733
11
5.29634
21
-5.32733
0
LINE
8
BLACK
6
CONTINUOUS
10
5.29634
20
-5.32733
11
5.30759
21
-5.33295
0
LINE
8
BLACK
6
CONTINUOUS
10
5.30759
20
-5.33295
11
5.31322
21
-5.3442
0
LINE
8
BLACK
6
CONTINUOUS
10
5.31322
20
-5.3442
11
5.31322
21
-5.40607
0
LINE
8
BLACK
6
CONTINUOUS
10
5.54381
20
-5.28233
11
5.44258
21
-5.43419
0
LINE
8
BLACK
6
CONTINUOUS
10
5.69567
20
-5.28796
11
5.70692
21
-5.28796
0
LINE
8
BLACK
6
CONTINUOUS
10
5.70692
20
-5.28796
11
5.71817
21
-5.29358
0
LINE
8
BLACK
6
CONTINUOUS
10
5.71817
20
-5.29358
11
5.72379
21
-5.29921
0
LINE
8
BLACK
6
CONTINUOUS
10
5.72379
20
-5.29921
11
5.72941
21
-5.31046
0
LINE
8
BLACK
6
CONTINUOUS
10
5.72941
20
-5.31046
11
5.73504
21
-5.33295
0
LINE
8
BLACK
6
CONTINUOUS
10
5.73504
20
-5.33295
11
5.73504
21
-5.36107
0
LINE
8
BLACK
6
CONTINUOUS
10
5.73504
20
-5.36107
11
5.72941
21
-5.38357
0
LINE
8
BLACK
6
CONTINUOUS
10
5.72941
20
-5.38357
11
5.72379
21
-5.39482
0
LINE
8
BLACK
6
CONTINUOUS
10
5.72379
20
-5.39482
11
5.71817
21
-5.40044
0
LINE
8
BLACK
6
CONTINUOUS
10
5.71817
20
-5.40044
11
5.70692
21
-5.40607
0
LINE
8
BLACK
6
CONTINUOUS
10
5.70692
20
-5.40607
11
5.69567
21
-5.40607
0
LINE
8
BLACK
6
CONTINUOUS
10
5.69567
20
-5.40607
11
5.68442
21
-5.40044
0
LINE
8
BLACK
6
CONTINUOUS
10
5.68442
20
-5.40044
11
5.6788
21
-5.39482
0
LINE
8
BLACK
6
CONTINUOUS
10
5.6788
20
-5.39482
11
5.67317
21
-5.38357
0
LINE
8
BLACK
6
CONTINUOUS
10
5.67317
20
-5.38357
11
5.66755
21
-5.36107
0
LINE
8
BLACK
6
CONTINUOUS
10
5.66755
20
-5.36107
11
5.66755
21
-5.33295
0
LINE
8
BLACK
6
CONTINUOUS
10
5.66755
20
-5.33295
11
5.67317
21
-5.31046
0
LINE
8
BLACK
6
CONTINUOUS
10
5.67317
20
-5.31046
11
5.6788
21
-5.29921
0
LINE
8
BLACK
6
CONTINUOUS
10
5.6788
20
-5.29921
11
5.68442
21
-5.29358
0
LINE
8
BLACK
6
CONTINUOUS
10
5.68442
20
-5.29358
11
5.69567
21
-5.28796
0
LINE
8
BLACK
6
CONTINUOUS
10
5.78566
20
-5.39482
11
5.79128
21
-5.40044
0
LINE
8
BLACK
6
CONTINUOUS
10
5.79128
20
-5.40044
11
5.78566
21
-5.40607
0
LINE
8
BLACK
6
CONTINUOUS
10
5.78566
20
-5.40607
11
5.78003
21
-5.40044
0
LINE
8
BLACK
6
CONTINUOUS
10
5.78003
20
-5.40044
11
5.78566
21
-5.39482
0
LINE
8
BLACK
6
CONTINUOUS
10
5.78566
20
-5.39482
11
5.78566
21
-5.40607
0
LINE
8
BLACK
6
CONTINUOUS
10
5.90377
20
-5.40607
11
5.83628
21
-5.40607
0
LINE
8
BLACK
6
CONTINUOUS
10
5.87002
20
-5.40607
11
5.87002
21
-5.28796
0
LINE
8
BLACK
6
CONTINUOUS
10
5.87002
20
-5.28796
11
5.85877
21
-5.30483
0
LINE
8
BLACK
6
CONTINUOUS
10
5.85877
20
-5.30483
11
5.84753
21
-5.31608
0
LINE
8
BLACK
6
CONTINUOUS
10
5.84753
20
-5.31608
11
5.83628
21
-5.3217
0
LINE
8
BLACK
6
CONTINUOUS
10
6.01625
20
-5.40607
11
5.94876
21
-5.40607
0
LINE
8
BLACK
6
CONTINUOUS
10
5.98251
20
-5.40607
11
5.98251
21
-5.28796
0
LINE
8
BLACK
6
CONTINUOUS
10
5.98251
20
-5.28796
11
5.97126
21
-5.30483
0
LINE
8
BLACK
6
CONTINUOUS
10
5.97126
20
-5.30483
11
5.96001
21
-5.31608
0
LINE
8
BLACK
6
CONTINUOUS
10
5.96001
20
-5.31608
11
5.94876
21
-5.3217
0
LINE
8
BLACK
6
CONTINUOUS
10
6.08937
20
-5.28796
11
6.10062
21
-5.28796
0
LINE
8
BLACK
6
CONTINUOUS
10
6.10062
20
-5.28796
11
6.11187
21
-5.29358
0
LINE
8
BLACK
6
CONTINUOUS
10
6.11187
20
-5.29358
11
6.11749
21
-5.29921
0
LINE
8
BLACK
6
CONTINUOUS
10
6.11749
20
-5.29921
11
6.12312
21
-5.31046
0
LINE
8
BLACK
6
CONTINUOUS
10
6.12312
20
-5.31046
11
6.12874
21
-5.33295
0
LINE
8
BLACK
6
CONTINUOUS
10
6.12874
20
-5.33295
11
6.12874
21
-5.36107
0
LINE
8
BLACK
6
CONTINUOUS
10
6.12874
20
-5.36107
11
6.12312
21
-5.38357
0
LINE
8
BLACK
6
CONTINUOUS
10
6.12312
20
-5.38357
11
6.11749
21
-5.39482
0
LINE
8
BLACK
6
CONTINUOUS
10
6.11749
20
-5.39482
11
6.11187
21
-5.40044
0
LINE
8
BLACK
6
CONTINUOUS
10
6.11187
20
-5.40044
11
6.10062
21
-5.40607
0
LINE
8
BLACK
6
CONTINUOUS
10
6.10062
20
-5.40607
11
6.08937
21
-5.40607
0
LINE
8
BLACK
6
CONTINUOUS
10
6.08937
20
-5.40607
11
6.07812
21
-5.40044
0
LINE
8
BLACK
6
CONTINUOUS
10
6.07812
20
-5.40044
11
6.0725
21
-5.39482
0
LINE
8
BLACK
6
CONTINUOUS
10
6.0725
20
-5.39482
11
6.06687
21
-5.38357
0
LINE
8
BLACK
6
CONTINUOUS
10
6.06687
20
-5.38357
11
6.06125
21
-5.36107
0
LINE
8
BLACK
6
CONTINUOUS
10
6.06125
20
-5.36107
11
6.06125
21
-5.33295
0
LINE
8
BLACK
6
CONTINUOUS
10
6.06125
20
-5.33295
11
6.06687
21
-5.31046
0
LINE
8
BLACK
6
CONTINUOUS
10
6.06687
20
-5.31046
11
6.0725
21
-5.29921
0
LINE
8
BLACK
6
CONTINUOUS
10
6.0725
20
-5.29921
11
6.07812
21
-5.29358
0
LINE
8
BLACK
6
CONTINUOUS
10
6.07812
20
-5.29358
11
6.08937
21
-5.28796
0
LINE
8
BLACK
6
CONTINUOUS
10
6.17373
20
-5.28796
11
6.17373
21
-5.31046
0
LINE
8
BLACK
6
CONTINUOUS
10
6.21873
20
-5.28796
11
6.21873
21
-5.31046
0
LINE
8
BLACK
6
CONTINUOUS
10
6.39308
20
-5.45106
11
6.38746
21
-5.44544
0
LINE
8
BLACK
6
CONTINUOUS
10
6.38746
20
-5.44544
11
6.37621
21
-5.42857
0
LINE
8
BLACK
6
CONTINUOUS
10
6.37621
20
-5.42857
11
6.37058
21
-5.41732
0
LINE
8
BLACK
6
CONTINUOUS
10
6.37058
20
-5.41732
11
6.36496
21
-5.40044
0
LINE
8
BLACK
6
CONTINUOUS
10
6.36496
20
-5.40044
11
6.35934
21
-5.37232
0
LINE
8
BLACK
6
CONTINUOUS
10
6.35934
20
-5.37232
11
6.35934
21
-5.34983
0
LINE
8
BLACK
6
CONTINUOUS
10
6.35934
20
-5.34983
11
6.36496
21
-5.3217
0
LINE
8
BLACK
6
CONTINUOUS
10
6.36496
20
-5.3217
11
6.37058
21
-5.30483
0
LINE
8
BLACK
6
CONTINUOUS
10
6.37058
20
-5.30483
11
6.37621
21
-5.29358
0
LINE
8
BLACK
6
CONTINUOUS
10
6.37621
20
-5.29358
11
6.38746
21
-5.27671
0
LINE
8
BLACK
6
CONTINUOUS
10
6.38746
20
-5.27671
11
6.39308
21
-5.27109
0
LINE
8
BLACK
6
CONTINUOUS
10
6.43245
20
-5.29921
11
6.43808
21
-5.29358
0
LINE
8
BLACK
6
CONTINUOUS
10
6.43808
20
-5.29358
11
6.44933
21
-5.28796
0
LINE
8
BLACK
6
CONTINUOUS
10
6.44933
20
-5.28796
11
6.47745
21
-5.28796
0
LINE
8
BLACK
6
CONTINUOUS
10
6.47745
20
-5.28796
11
6.4887
21
-5.29358
0
LINE
8
BLACK
6
CONTINUOUS
10
6.4887
20
-5.29358
11
6.49432
21
-5.29921
0
LINE
8
BLACK
6
CONTINUOUS
10
6.49432
20
-5.29921
11
6.49994
21
-5.31046
0
LINE
8
BLACK
6
CONTINUOUS
10
6.49994
20
-5.31046
11
6.49994
21
-5.3217
0
LINE
8
BLACK
6
CONTINUOUS
10
6.49994
20
-5.3217
11
6.49432
21
-5.33858
0
LINE
8
BLACK
6
CONTINUOUS
10
6.49432
20
-5.33858
11
6.42683
21
-5.40607
0
LINE
8
BLACK
6
CONTINUOUS
10
6.42683
20
-5.40607
11
6.49994
21
-5.40607
0
LINE
8
BLACK
6
CONTINUOUS
10
6.64055
20
-5.40607
11
6.64055
21
-5.28796
0
LINE
8
BLACK
6
CONTINUOUS
10
6.69117
20
-5.40607
11
6.69117
21
-5.3442
0
LINE
8
BLACK
6
CONTINUOUS
10
6.69117
20
-5.3442
11
6.68555
21
-5.33295
0
LINE
8
BLACK
6
CONTINUOUS
10
6.68555
20
-5.33295
11
6.6743
21
-5.32733
0
LINE
8
BLACK
6
CONTINUOUS
10
6.6743
20
-5.32733
11
6.65742
21
-5.32733
0
LINE
8
BLACK
6
CONTINUOUS
10
6.65742
20
-5.32733
11
6.64618
21
-5.33295
0
LINE
8
BLACK
6
CONTINUOUS
10
6.64618
20
-5.33295
11
6.64055
21
-5.33858
0
LINE
8
BLACK
6
CONTINUOUS
10
6.76429
20
-5.40607
11
6.75304
21
-5.40044
0
LINE
8
BLACK
6
CONTINUOUS
10
6.75304
20
-5.40044
11
6.74741
21
-5.39482
0
LINE
8
BLACK
6
CONTINUOUS
10
6.74741
20
-5.39482
11
6.74179
21
-5.38357
0
LINE
8
BLACK
6
CONTINUOUS
10
6.74179
20
-5.38357
11
6.74179
21
-5.34983
0
LINE
8
BLACK
6
CONTINUOUS
10
6.74179
20
-5.34983
11
6.74741
21
-5.33858
0
LINE
8
BLACK
6
CONTINUOUS
10
6.74741
20
-5.33858
11
6.75304
21
-5.33295
0
LINE
8
BLACK
6
CONTINUOUS
10
6.75304
20
-5.33295
11
6.76429
21
-5.32733
0
LINE
8
BLACK
6
CONTINUOUS
10
6.76429
20
-5.32733
11
6.78116
21
-5.32733
0
LINE
8
BLACK
6
CONTINUOUS
10
6.78116
20
-5.32733
11
6.79241
21
-5.33295
0
LINE
8
BLACK
6
CONTINUOUS
10
6.79241
20
-5.33295
11
6.79803
21
-5.33858
0
LINE
8
BLACK
6
CONTINUOUS
10
6.79803
20
-5.33858
11
6.80366
21
-5.34983
0
LINE
8
BLACK
6
CONTINUOUS
10
6.80366
20
-5.34983
11
6.80366
21
-5.38357
0
LINE
8
BLACK
6
CONTINUOUS
10
6.80366
20
-5.38357
11
6.79803
21
-5.39482
0
LINE
8
BLACK
6
CONTINUOUS
10
6.79803
20
-5.39482
11
6.79241
21
-5.40044
0
LINE
8
BLACK
6
CONTINUOUS
10
6.79241
20
-5.40044
11
6.78116
21
-5.40607
0
LINE
8
BLACK
6
CONTINUOUS
10
6.78116
20
-5.40607
11
6.76429
21
-5.40607
0
LINE
8
BLACK
6
CONTINUOUS
10
6.87115
20
-5.40607
11
6.8599
21
-5.40044
0
LINE
8
BLACK
6
CONTINUOUS
10
6.8599
20
-5.40044
11
6.85427
21
-5.3892
0
LINE
8
BLACK
6
CONTINUOUS
10
6.85427
20
-5.3892
11
6.85427
21
-5.28796
0
LINE
8
BLACK
6
CONTINUOUS
10
6.96114
20
-5.40044
11
6.94989
21
-5.40607
0
LINE
8
BLACK
6
CONTINUOUS
10
6.94989
20
-5.40607
11
6.92739
21
-5.40607
0
LINE
8
BLACK
6
CONTINUOUS
10
6.92739
20
-5.40607
11
6.91614
21
-5.40044
0
LINE
8
BLACK
6
CONTINUOUS
10
6.91614
20
-5.40044
11
6.91052
21
-5.3892
0
LINE
8
BLACK
6
CONTINUOUS
10
6.91052
20
-5.3892
11
6.91052
21
-5.3442
0
LINE
8
BLACK
6
CONTINUOUS
10
6.91052
20
-5.3442
11
6.91614
21
-5.33295
0
LINE
8
BLACK
6
CONTINUOUS
10
6.91614
20
-5.33295
11
6.92739
21
-5.32733
0
LINE
8
BLACK
6
CONTINUOUS
10
6.92739
20
-5.32733
11
6.94989
21
-5.32733
0
LINE
8
BLACK
6
CONTINUOUS
10
6.94989
20
-5.32733
11
6.96114
21
-5.33295
0
LINE
8
BLACK
6
CONTINUOUS
10
6.96114
20
-5.33295
11
6.96676
21
-5.3442
0
LINE
8
BLACK
6
CONTINUOUS
10
6.96676
20
-5.3442
11
6.96676
21
-5.35545
0
LINE
8
BLACK
6
CONTINUOUS
10
6.96676
20
-5.35545
11
6.91052
21
-5.3667
0
LINE
8
BLACK
6
CONTINUOUS
10
7.01175
20
-5.40044
11
7.023
21
-5.40607
0
LINE
8
BLACK
6
CONTINUOUS
10
7.023
20
-5.40607
11
7.0455
21
-5.40607
0
LINE
8
BLACK
6
CONTINUOUS
10
7.0455
20
-5.40607
11
7.05675
21
-5.40044
0
LINE
8
BLACK
6
CONTINUOUS
10
7.05675
20
-5.40044
11
7.06237
21
-5.3892
0
LINE
8
BLACK
6
CONTINUOUS
10
7.06237
20
-5.3892
11
7.06237
21
-5.38357
0
LINE
8
BLACK
6
CONTINUOUS
10
7.06237
20
-5.38357
11
7.05675
21
-5.37232
0
LINE
8
BLACK
6
CONTINUOUS
10
7.05675
20
-5.37232
11
7.0455
21
-5.3667
0
LINE
8
BLACK
6
CONTINUOUS
10
7.0455
20
-5.3667
11
7.02863
21
-5.3667
0
LINE
8
BLACK
6
CONTINUOUS
10
7.02863
20
-5.3667
11
7.01738
21
-5.36107
0
LINE
8
BLACK
6
CONTINUOUS
10
7.01738
20
-5.36107
11
7.01175
21
-5.34983
0
LINE
8
BLACK
6
CONTINUOUS
10
7.01175
20
-5.34983
11
7.01175
21
-5.3442
0
LINE
8
BLACK
6
CONTINUOUS
10
7.01175
20
-5.3442
11
7.01738
21
-5.33295
0
LINE
8
BLACK
6
CONTINUOUS
10
7.01738
20
-5.33295
11
7.02863
21
-5.32733
0
LINE
8
BLACK
6
CONTINUOUS
10
7.02863
20
-5.32733
11
7.0455
21
-5.32733
0
LINE
8
BLACK
6
CONTINUOUS
10
7.0455
20
-5.32733
11
7.05675
21
-5.33295
0
LINE
8
BLACK
6
CONTINUOUS
10
7.10174
20
-5.45106
11
7.10737
21
-5.44544
0
LINE
8
BLACK
6
CONTINUOUS
10
7.10737
20
-5.44544
11
7.11862
21
-5.42857
0
LINE
8
BLACK
6
CONTINUOUS
10
7.11862
20
-5.42857
11
7.12424
21
-5.41732
0
LINE
8
BLACK
6
CONTINUOUS
10
7.12424
20
-5.41732
11
7.12986
21
-5.40044
0
LINE
8
BLACK
6
CONTINUOUS
10
7.12986
20
-5.40044
11
7.13549
21
-5.37232
0
LINE
8
BLACK
6
CONTINUOUS
10
7.13549
20
-5.37232
11
7.13549
21
-5.34983
0
LINE
8
BLACK
6
CONTINUOUS
10
7.13549
20
-5.34983
11
7.12986
21
-5.3217
0
LINE
8
BLACK
6
CONTINUOUS
10
7.12986
20
-5.3217
11
7.12424
21
-5.30483
0
LINE
8
BLACK
6
CONTINUOUS
10
7.12424
20
-5.30483
11
7.11862
21
-5.29358
0
LINE
8
BLACK
6
CONTINUOUS
10
7.11862
20
-5.29358
11
7.10737
21
-5.27671
0
LINE
8
BLACK
6
CONTINUOUS
10
7.10737
20
-5.27671
11
7.10174
21
-5.27109
0
LINE
8
BLACK
6
CONTINUOUS
10
7.31547
20
-5.45106
11
7.30984
21
-5.44544
0
LINE
8
BLACK
6
CONTINUOUS
10
7.30984
20
-5.44544
11
7.29859
21
-5.42857
0
LINE
8
BLACK
6
CONTINUOUS
10
7.29859
20
-5.42857
11
7.29297
21
-5.41732
0
LINE
8
BLACK
6
CONTINUOUS
10
7.29297
20
-5.41732
11
7.28735
21
-5.40044
0
LINE
8
BLACK
6
CONTINUOUS
10
7.28735
20
-5.40044
11
7.28172
21
-5.37232
0
LINE
8
BLACK
6
CONTINUOUS
10
7.28172
20
-5.37232
11
7.28172
21
-5.34983
0
LINE
8
BLACK
6
CONTINUOUS
10
7.28172
20
-5.34983
11
7.28735
21
-5.3217
0
LINE
8
BLACK
6
CONTINUOUS
10
7.28735
20
-5.3217
11
7.29297
21
-5.30483
0
LINE
8
BLACK
6
CONTINUOUS
10
7.29297
20
-5.30483
11
7.29859
21
-5.29358
0
LINE
8
BLACK
6
CONTINUOUS
10
7.29859
20
-5.29358
11
7.30984
21
-5.27671
0
LINE
8
BLACK
6
CONTINUOUS
10
7.30984
20
-5.27671
11
7.31547
21
-5.27109
0
LINE
8
BLACK
6
CONTINUOUS
10
7.36046
20
-5.32733
11
7.36046
21
-5.40607
0
LINE
8
BLACK
6
CONTINUOUS
10
7.36046
20
-5.33858
11
7.36609
21
-5.33295
0
LINE
8
BLACK
6
CONTINUOUS
10
7.36609
20
-5.33295
11
7.37733
21
-5.32733
0
LINE
8
BLACK
6
CONTINUOUS
10
7.37733
20
-5.32733
11
7.39421
21
-5.32733
0
LINE
8
BLACK
6
CONTINUOUS
10
7.39421
20
-5.32733
11
7.40546
21
-5.33295
0
LINE
8
BLACK
6
CONTINUOUS
10
7.40546
20
-5.33295
11
7.41108
21
-5.3442
0
LINE
8
BLACK
6
CONTINUOUS
10
7.41108
20
-5.3442
11
7.41108
21
-5.40607
0
LINE
8
BLACK
6
CONTINUOUS
10
7.4842
20
-5.40607
11
7.47295
21
-5.40044
0
LINE
8
BLACK
6
CONTINUOUS
10
7.47295
20
-5.40044
11
7.46732
21
-5.39482
0
LINE
8
BLACK
6
CONTINUOUS
10
7.46732
20
-5.39482
11
7.4617
21
-5.38357
0
LINE
8
BLACK
6
CONTINUOUS
10
7.4617
20
-5.38357
11
7.4617
21
-5.34983
0
LINE
8
BLACK
6
CONTINUOUS
10
7.4617
20
-5.34983
11
7.46732
21
-5.33858
0
LINE
8
BLACK
6
CONTINUOUS
10
7.46732
20
-5.33858
11
7.47295
21
-5.33295
0
LINE
8
BLACK
6
CONTINUOUS
10
7.47295
20
-5.33295
11
7.4842
21
-5.32733
0
LINE
8
BLACK
6
CONTINUOUS
10
7.4842
20
-5.32733
11
7.50107
21
-5.32733
0
LINE
8
BLACK
6
CONTINUOUS
10
7.50107
20
-5.32733
11
7.51232
21
-5.33295
0
LINE
8
BLACK
6
CONTINUOUS
10
7.51232
20
-5.33295
11
7.51794
21
-5.33858
0
LINE
8
BLACK
6
CONTINUOUS
10
7.51794
20
-5.33858
11
7.52357
21
-5.34983
0
LINE
8
BLACK
6
CONTINUOUS
10
7.52357
20
-5.34983
11
7.52357
21
-5.38357
0
LINE
8
BLACK
6
CONTINUOUS
10
7.52357
20
-5.38357
11
7.51794
21
-5.39482
0
LINE
8
BLACK
6
CONTINUOUS
10
7.51794
20
-5.39482
11
7.51232
21
-5.40044
0
LINE
8
BLACK
6
CONTINUOUS
10
7.51232
20
-5.40044
11
7.50107
21
-5.40607
0
LINE
8
BLACK
6
CONTINUOUS
10
7.50107
20
-5.40607
11
7.4842
21
-5.40607
0
LINE
8
BLACK
6
CONTINUOUS
10
7.55731
20
-5.32733
11
7.60231
21
-5.32733
0
LINE
8
BLACK
6
CONTINUOUS
10
7.57418
20
-5.28796
11
7.57418
21
-5.3892
0
LINE
8
BLACK
6
CONTINUOUS
10
7.57418
20
-5.3892
11
7.57981
21
-5.40044
0
LINE
8
BLACK
6
CONTINUOUS
10
7.57981
20
-5.40044
11
7.59106
21
-5.40607
0
LINE
8
BLACK
6
CONTINUOUS
10
7.59106
20
-5.40607
11
7.60231
21
-5.40607
0
LINE
8
BLACK
6
CONTINUOUS
10
7.73166
20
-5.32733
11
7.73166
21
-5.44544
0
LINE
8
BLACK
6
CONTINUOUS
10
7.73166
20
-5.33295
11
7.74291
21
-5.32733
0
LINE
8
BLACK
6
CONTINUOUS
10
7.74291
20
-5.32733
11
7.76541
21
-5.32733
0
LINE
8
BLACK
6
CONTINUOUS
10
7.76541
20
-5.32733
11
7.77666
21
-5.33295
0
LINE
8
BLACK
6
CONTINUOUS
10
7.77666
20
-5.33295
11
7.78228
21
-5.33858
0
LINE
8
BLACK
6
CONTINUOUS
10
7.78228
20
-5.33858
11
7.78791
21
-5.34983
0
LINE
8
BLACK
6
CONTINUOUS
10
7.78791
20
-5.34983
11
7.78791
21
-5.38357
0
LINE
8
BLACK
6
CONTINUOUS
10
7.78791
20
-5.38357
11
7.78228
21
-5.39482
0
LINE
8
BLACK
6
CONTINUOUS
10
7.78228
20
-5.39482
11
7.77666
21
-5.40044
0
LINE
8
BLACK
6
CONTINUOUS
10
7.77666
20
-5.40044
11
7.76541
21
-5.40607
0
LINE
8
BLACK
6
CONTINUOUS
10
7.76541
20
-5.40607
11
7.74291
21
-5.40607
0
LINE
8
BLACK
6
CONTINUOUS
10
7.74291
20
-5.40607
11
7.73166
21
-5.40044
0
LINE
8
BLACK
6
CONTINUOUS
10
7.8554
20
-5.40607
11
7.84415
21
-5.40044
0
LINE
8
BLACK
6
CONTINUOUS
10
7.84415
20
-5.40044
11
7.83853
21
-5.3892
0
LINE
8
BLACK
6
CONTINUOUS
10
7.83853
20
-5.3892
11
7.83853
21
-5.28796
0
LINE
8
BLACK
6
CONTINUOUS
10
7.95101
20
-5.40607
11
7.95101
21
-5.3442
0
LINE
8
BLACK
6
CONTINUOUS
10
7.95101
20
-5.3442
11
7.94539
21
-5.33295
0
LINE
8
BLACK
6
CONTINUOUS
10
7.94539
20
-5.33295
11
7.93414
21
-5.32733
0
LINE
8
BLACK
6
CONTINUOUS
10
7.93414
20
-5.32733
11
7.91164
21
-5.32733
0
LINE
8
BLACK
6
CONTINUOUS
10
7.91164
20
-5.32733
11
7.90039
21
-5.33295
0
LINE
8
BLACK
6
CONTINUOUS
10
7.95101
20
-5.40044
11
7.93976
21
-5.40607
0
LINE
8
BLACK
6
CONTINUOUS
10
7.93976
20
-5.40607
11
7.91164
21
-5.40607
0
LINE
8
BLACK
6
CONTINUOUS
10
7.91164
20
-5.40607
11
7.90039
21
-5.40044
0
LINE
8
BLACK
6
CONTINUOUS
10
7.90039
20
-5.40044
11
7.89477
21
-5.3892
0
LINE
8
BLACK
6
CONTINUOUS
10
7.89477
20
-5.3892
11
7.89477
21
-5.37795
0
LINE
8
BLACK
6
CONTINUOUS
10
7.89477
20
-5.37795
11
7.90039
21
-5.3667
0
LINE
8
BLACK
6
CONTINUOUS
10
7.90039
20
-5.3667
11
7.91164
21
-5.36107
0
LINE
8
BLACK
6
CONTINUOUS
10
7.91164
20
-5.36107
11
7.93976
21
-5.36107
0
LINE
8
BLACK
6
CONTINUOUS
10
7.93976
20
-5.36107
11
7.95101
21
-5.35545
0
LINE
8
BLACK
6
CONTINUOUS
10
7.99038
20
-5.32733
11
8.03538
21
-5.32733
0
LINE
8
BLACK
6
CONTINUOUS
10
8.00726
20
-5.28796
11
8.00726
21
-5.3892
0
LINE
8
BLACK
6
CONTINUOUS
10
8.00726
20
-5.3892
11
8.01288
21
-5.40044
0
LINE
8
BLACK
6
CONTINUOUS
10
8.01288
20
-5.40044
11
8.02413
21
-5.40607
0
LINE
8
BLACK
6
CONTINUOUS
10
8.02413
20
-5.40607
11
8.03538
21
-5.40607
0
LINE
8
BLACK
6
CONTINUOUS
10
8.11974
20
-5.40044
11
8.10849
21
-5.40607
0
LINE
8
BLACK
6
CONTINUOUS
10
8.10849
20
-5.40607
11
8.086
21
-5.40607
0
LINE
8
BLACK
6
CONTINUOUS
10
8.086
20
-5.40607
11
8.07475
21
-5.40044
0
LINE
8
BLACK
6
CONTINUOUS
10
8.07475
20
-5.40044
11
8.06912
21
-5.3892
0
LINE
8
BLACK
6
CONTINUOUS
10
8.06912
20
-5.3892
11
8.06912
21
-5.3442
0
LINE
8
BLACK
6
CONTINUOUS
10
8.06912
20
-5.3442
11
8.07475
21
-5.33295
0
LINE
8
BLACK
6
CONTINUOUS
10
8.07475
20
-5.33295
11
8.086
21
-5.32733
0
LINE
8
BLACK
6
CONTINUOUS
10
8.086
20
-5.32733
11
8.10849
21
-5.32733
0
LINE
8
BLACK
6
CONTINUOUS
10
8.10849
20
-5.32733
11
8.11974
21
-5.33295
0
LINE
8
BLACK
6
CONTINUOUS
10
8.11974
20
-5.33295
11
8.12537
21
-5.3442
0
LINE
8
BLACK
6
CONTINUOUS
10
8.12537
20
-5.3442
11
8.12537
21
-5.35545
0
LINE
8
BLACK
6
CONTINUOUS
10
8.12537
20
-5.35545
11
8.06912
21
-5.3667
0
LINE
8
BLACK
6
CONTINUOUS
10
8.2266
20
-5.40607
11
8.2266
21
-5.28796
0
LINE
8
BLACK
6
CONTINUOUS
10
8.2266
20
-5.40044
11
8.21535
21
-5.40607
0
LINE
8
BLACK
6
CONTINUOUS
10
8.21535
20
-5.40607
11
8.19286
21
-5.40607
0
LINE
8
BLACK
6
CONTINUOUS
10
8.19286
20
-5.40607
11
8.18161
21
-5.40044
0
LINE
8
BLACK
6
CONTINUOUS
10
8.18161
20
-5.40044
11
8.17598
21
-5.39482
0
LINE
8
BLACK
6
CONTINUOUS
10
8.17598
20
-5.39482
11
8.17036
21
-5.38357
0
LINE
8
BLACK
6
CONTINUOUS
10
8.17036
20
-5.38357
11
8.17036
21
-5.34983
0
LINE
8
BLACK
6
CONTINUOUS
10
8.17036
20
-5.34983
11
8.17598
21
-5.33858
0
LINE
8
BLACK
6
CONTINUOUS
10
8.17598
20
-5.33858
11
8.18161
21
-5.33295
0
LINE
8
BLACK
6
CONTINUOUS
10
8.18161
20
-5.33295
11
8.19286
21
-5.32733
0
LINE
8
BLACK
6
CONTINUOUS
10
8.19286
20
-5.32733
11
8.21535
21
-5.32733
0
LINE
8
BLACK
6
CONTINUOUS
10
8.21535
20
-5.32733
11
8.2266
21
-5.33295
0
LINE
8
BLACK
6
CONTINUOUS
10
8.2716
20
-5.45106
11
8.27722
21
-5.44544
0
LINE
8
BLACK
6
CONTINUOUS
10
8.27722
20
-5.44544
11
8.28847
21
-5.42857
0
LINE
8
BLACK
6
CONTINUOUS
10
8.28847
20
-5.42857
11
8.29409
21
-5.41732
0
LINE
8
BLACK
6
CONTINUOUS
10
8.29409
20
-5.41732
11
8.29972
21
-5.40044
0
LINE
8
BLACK
6
CONTINUOUS
10
8.29972
20
-5.40044
11
8.30534
21
-5.37232
0
LINE
8
BLACK
6
CONTINUOUS
10
8.30534
20
-5.37232
11
8.30534
21
-5.34983
0
LINE
8
BLACK
6
CONTINUOUS
10
8.30534
20
-5.34983
11
8.29972
21
-5.3217
0
LINE
8
BLACK
6
CONTINUOUS
10
8.29972
20
-5.3217
11
8.29409
21
-5.30483
0
LINE
8
BLACK
6
CONTINUOUS
10
8.29409
20
-5.30483
11
8.28847
21
-5.29358
0
LINE
8
BLACK
6
CONTINUOUS
10
8.28847
20
-5.29358
11
8.27722
21
-5.27671
0
LINE
8
BLACK
6
CONTINUOUS
10
8.27722
20
-5.27671
11
8.2716
21
-5.27109
0
LINE
8
BLACK
6
CONTINUOUS
10
4.48504
20
-5.57705
11
4.54803
21
-5.51406
0
LINE
8
BLACK
6
CONTINUOUS
10
4.54803
20
-5.51406
11
4.48504
21
-5.45106
0
LINE
8
BLACK
6
CONTINUOUS
10
4.48504
20
-5.45106
11
4.42205
21
-5.51406
0
LINE
8
BLACK
6
CONTINUOUS
10
4.42205
20
-5.51406
11
4.48504
21
-5.57705
0
LINE
8
BLACK
6
CONTINUOUS
10
4.64955
20
-5.44938
11
4.72267
21
-5.44938
0
LINE
8
BLACK
6
CONTINUOUS
10
4.72267
20
-5.44938
11
4.6833
21
-5.49437
0
LINE
8
BLACK
6
CONTINUOUS
10
4.6833
20
-5.49437
11
4.70017
21
-5.49437
0
LINE
8
BLACK
6
CONTINUOUS
10
4.70017
20
-5.49437
11
4.71142
21
-5.49999
0
LINE
8
BLACK
6
CONTINUOUS
10
4.71142
20
-5.49999
11
4.71704
21
-5.50562
0
LINE
8
BLACK
6
CONTINUOUS
10
4.71704
20
-5.50562
11
4.72267
21
-5.51687
0
LINE
8
BLACK
6
CONTINUOUS
10
4.72267
20
-5.51687
11
4.72267
21
-5.54499
0
LINE
8
BLACK
6
CONTINUOUS
10
4.72267
20
-5.54499
11
4.71704
21
-5.55624
0
LINE
8
BLACK
6
CONTINUOUS
10
4.71704
20
-5.55624
11
4.71142
21
-5.56186
0
LINE
8
BLACK
6
CONTINUOUS
10
4.71142
20
-5.56186
11
4.70017
21
-5.56749
0
LINE
8
BLACK
6
CONTINUOUS
10
4.70017
20
-5.56749
11
4.66642
21
-5.56749
0
LINE
8
BLACK
6
CONTINUOUS
10
4.66642
20
-5.56749
11
4.65517
21
-5.56186
0
LINE
8
BLACK
6
CONTINUOUS
10
4.65517
20
-5.56186
11
4.64955
21
-5.55624
0
LINE
8
BLACK
6
CONTINUOUS
10
4.77328
20
-5.55624
11
4.77891
21
-5.56186
0
LINE
8
BLACK
6
CONTINUOUS
10
4.77891
20
-5.56186
11
4.77328
21
-5.56749
0
LINE
8
BLACK
6
CONTINUOUS
10
4.77328
20
-5.56749
11
4.76766
21
-5.56186
0
LINE
8
BLACK
6
CONTINUOUS
10
4.76766
20
-5.56186
11
4.77328
21
-5.55624
0
LINE
8
BLACK
6
CONTINUOUS
10
4.77328
20
-5.55624
11
4.77328
21
-5.56749
0
LINE
8
BLACK
6
CONTINUOUS
10
4.8239
20
-5.46062
11
4.82953
21
-5.455
0
LINE
8
BLACK
6
CONTINUOUS
10
4.82953
20
-5.455
11
4.84078
21
-5.44938
0
LINE
8
BLACK
6
CONTINUOUS
10
4.84078
20
-5.44938
11
4.8689
21
-5.44938
0
LINE
8
BLACK
6
CONTINUOUS
10
4.8689
20
-5.44938
11
4.88015
21
-5.455
0
LINE
8
BLACK
6
CONTINUOUS
10
4.88015
20
-5.455
11
4.88577
21
-5.46062
0
LINE
8
BLACK
6
CONTINUOUS
10
4.88577
20
-5.46062
11
4.89139
21
-5.47187
0
LINE
8
BLACK
6
CONTINUOUS
10
4.89139
20
-5.47187
11
4.89139
21
-5.48312
0
LINE
8
BLACK
6
CONTINUOUS
10
4.89139
20
-5.48312
11
4.88577
21
-5.49999
0
LINE
8
BLACK
6
CONTINUOUS
10
4.88577
20
-5.49999
11
4.81828
21
-5.56749
0
LINE
8
BLACK
6
CONTINUOUS
10
4.81828
20
-5.56749
11
4.89139
21
-5.56749
0
LINE
8
BLACK
6
CONTINUOUS
10
4.96451
20
-5.44938
11
4.97576
21
-5.44938
0
LINE
8
BLACK
6
CONTINUOUS
10
4.97576
20
-5.44938
11
4.98701
21
-5.455
0
LINE
8
BLACK
6
CONTINUOUS
10
4.98701
20
-5.455
11
4.99263
21
-5.46062
0
LINE
8
BLACK
6
CONTINUOUS
10
4.99263
20
-5.46062
11
4.99826
21
-5.47187
0
LINE
8
BLACK
6
CONTINUOUS
10
4.99826
20
-5.47187
11
5.00388
21
-5.49437
0
LINE
8
BLACK
6
CONTINUOUS
10
5.00388
20
-5.49437
11
5.00388
21
-5.52249
0
LINE
8
BLACK
6
CONTINUOUS
10
5.00388
20
-5.52249
11
4.99826
21
-5.54499
0
LINE
8
BLACK
6
CONTINUOUS
10
4.99826
20
-5.54499
11
4.99263
21
-5.55624
0
LINE
8
BLACK
6
CONTINUOUS
10
4.99263
20
-5.55624
11
4.98701
21
-5.56186
0
LINE
8
BLACK
6
CONTINUOUS
10
4.98701
20
-5.56186
11
4.97576
21
-5.56749
0
LINE
8
BLACK
6
CONTINUOUS
10
4.97576
20
-5.56749
11
4.96451
21
-5.56749
0
LINE
8
BLACK
6
CONTINUOUS
10
4.96451
20
-5.56749
11
4.95326
21
-5.56186
0
LINE
8
BLACK
6
CONTINUOUS
10
4.95326
20
-5.56186
11
4.94764
21
-5.55624
0
LINE
8
BLACK
6
CONTINUOUS
10
4.94764
20
-5.55624
11
4.94201
21
-5.54499
0
LINE
8
BLACK
6
CONTINUOUS
10
4.94201
20
-5.54499
11
4.93639
21
-5.52249
0
LINE
8
BLACK
6
CONTINUOUS
10
4.93639
20
-5.52249
11
4.93639
21
-5.49437
0
LINE
8
BLACK
6
CONTINUOUS
10
4.93639
20
-5.49437
11
4.94201
21
-5.47187
0
LINE
8
BLACK
6
CONTINUOUS
10
4.94201
20
-5.47187
11
4.94764
21
-5.46062
0
LINE
8
BLACK
6
CONTINUOUS
10
4.94764
20
-5.46062
11
4.95326
21
-5.455
0
LINE
8
BLACK
6
CONTINUOUS
10
4.95326
20
-5.455
11
4.96451
21
-5.44938
0
LINE
8
BLACK
6
CONTINUOUS
10
5.0545
20
-5.56749
11
5.0545
21
-5.48875
0
LINE
8
BLACK
6
CONTINUOUS
10
5.0545
20
-5.49999
11
5.06012
21
-5.49437
0
LINE
8
BLACK
6
CONTINUOUS
10
5.06012
20
-5.49437
11
5.07137
21
-5.48875
0
LINE
8
BLACK
6
CONTINUOUS
10
5.07137
20
-5.48875
11
5.08825
21
-5.48875
0
LINE
8
BLACK
6
CONTINUOUS
10
5.08825
20
-5.48875
11
5.09949
21
-5.49437
0
LINE
8
BLACK
6
CONTINUOUS
10
5.09949
20
-5.49437
11
5.10512
21
-5.50562
0
LINE
8
BLACK
6
CONTINUOUS
10
5.10512
20
-5.50562
11
5.10512
21
-5.56749
0
LINE
8
BLACK
6
CONTINUOUS
10
5.10512
20
-5.50562
11
5.11074
21
-5.49437
0
LINE
8
BLACK
6
CONTINUOUS
10
5.11074
20
-5.49437
11
5.12199
21
-5.48875
0
LINE
8
BLACK
6
CONTINUOUS
10
5.12199
20
-5.48875
11
5.13886
21
-5.48875
0
LINE
8
BLACK
6
CONTINUOUS
10
5.13886
20
-5.48875
11
5.15011
21
-5.49437
0
LINE
8
BLACK
6
CONTINUOUS
10
5.15011
20
-5.49437
11
5.15574
21
-5.50562
0
LINE
8
BLACK
6
CONTINUOUS
10
5.15574
20
-5.50562
11
5.15574
21
-5.56749
0
LINE
8
BLACK
6
CONTINUOUS
10
5.21198
20
-5.56749
11
5.21198
21
-5.48875
0
LINE
8
BLACK
6
CONTINUOUS
10
5.21198
20
-5.49999
11
5.2176
21
-5.49437
0
LINE
8
BLACK
6
CONTINUOUS
10
5.2176
20
-5.49437
11
5.22885
21
-5.48875
0
LINE
8
BLACK
6
CONTINUOUS
10
5.22885
20
-5.48875
11
5.24573
21
-5.48875
0
LINE
8
BLACK
6
CONTINUOUS
10
5.24573
20
-5.48875
11
5.25697
21
-5.49437
0
LINE
8
BLACK
6
CONTINUOUS
10
5.25697
20
-5.49437
11
5.2626
21
-5.50562
0
LINE
8
BLACK
6
CONTINUOUS
10
5.2626
20
-5.50562
11
5.2626
21
-5.56749
0
LINE
8
BLACK
6
CONTINUOUS
10
5.2626
20
-5.50562
11
5.26822
21
-5.49437
0
LINE
8
BLACK
6
CONTINUOUS
10
5.26822
20
-5.49437
11
5.27947
21
-5.48875
0
LINE
8
BLACK
6
CONTINUOUS
10
5.27947
20
-5.48875
11
5.29634
21
-5.48875
0
LINE
8
BLACK
6
CONTINUOUS
10
5.29634
20
-5.48875
11
5.30759
21
-5.49437
0
LINE
8
BLACK
6
CONTINUOUS
10
5.30759
20
-5.49437
11
5.31322
21
-5.50562
0
LINE
8
BLACK
6
CONTINUOUS
10
5.31322
20
-5.50562
11
5.31322
21
-5.56749
0
LINE
8
BLACK
6
CONTINUOUS
10
5.54381
20
-5.44375
11
5.44258
21
-5.59561
0
LINE
8
BLACK
6
CONTINUOUS
10
5.69567
20
-5.44938
11
5.70692
21
-5.44938
0
LINE
8
BLACK
6
CONTINUOUS
10
5.70692
20
-5.44938
11
5.71817
21
-5.455
0
LINE
8
BLACK
6
CONTINUOUS
10
5.71817
20
-5.455
11
5.72379
21
-5.46062
0
LINE
8
BLACK
6
CONTINUOUS
10
5.72379
20
-5.46062
11
5.72941
21
-5.47187
0
LINE
8
BLACK
6
CONTINUOUS
10
5.72941
20
-5.47187
11
5.73504
21
-5.49437
0
LINE
8
BLACK
6
CONTINUOUS
10
5.73504
20
-5.49437
11
5.73504
21
-5.52249
0
LINE
8
BLACK
6
CONTINUOUS
10
5.73504
20
-5.52249
11
5.72941
21
-5.54499
0
LINE
8
BLACK
6
CONTINUOUS
10
5.72941
20
-5.54499
11
5.72379
21
-5.55624
0
LINE
8
BLACK
6
CONTINUOUS
10
5.72379
20
-5.55624
11
5.71817
21
-5.56186
0
LINE
8
BLACK
6
CONTINUOUS
10
5.71817
20
-5.56186
11
5.70692
21
-5.56749
0
LINE
8
BLACK
6
CONTINUOUS
10
5.70692
20
-5.56749
11
5.69567
21
-5.56749
0
LINE
8
BLACK
6
CONTINUOUS
10
5.69567
20
-5.56749
11
5.68442
21
-5.56186
0
LINE
8
BLACK
6
CONTINUOUS
10
5.68442
20
-5.56186
11
5.6788
21
-5.55624
0
LINE
8
BLACK
6
CONTINUOUS
10
5.6788
20
-5.55624
11
5.67317
21
-5.54499
0
LINE
8
BLACK
6
CONTINUOUS
10
5.67317
20
-5.54499
11
5.66755
21
-5.52249
0
LINE
8
BLACK
6
CONTINUOUS
10
5.66755
20
-5.52249
11
5.66755
21
-5.49437
0
LINE
8
BLACK
6
CONTINUOUS
10
5.66755
20
-5.49437
11
5.67317
21
-5.47187
0
LINE
8
BLACK
6
CONTINUOUS
10
5.67317
20
-5.47187
11
5.6788
21
-5.46062
0
LINE
8
BLACK
6
CONTINUOUS
10
5.6788
20
-5.46062
11
5.68442
21
-5.455
0
LINE
8
BLACK
6
CONTINUOUS
10
5.68442
20
-5.455
11
5.69567
21
-5.44938
0
LINE
8
BLACK
6
CONTINUOUS
10
5.78566
20
-5.55624
11
5.79128
21
-5.56186
0
LINE
8
BLACK
6
CONTINUOUS
10
5.79128
20
-5.56186
11
5.78566
21
-5.56749
0
LINE
8
BLACK
6
CONTINUOUS
10
5.78566
20
-5.56749
11
5.78003
21
-5.56186
0
LINE
8
BLACK
6
CONTINUOUS
10
5.78003
20
-5.56186
11
5.78566
21
-5.55624
0
LINE
8
BLACK
6
CONTINUOUS
10
5.78566
20
-5.55624
11
5.78566
21
-5.56749
0
LINE
8
BLACK
6
CONTINUOUS
10
5.90377
20
-5.56749
11
5.83628
21
-5.56749
0
LINE
8
BLACK
6
CONTINUOUS
10
5.87002
20
-5.56749
11
5.87002
21
-5.44938
0
LINE
8
BLACK
6
CONTINUOUS
10
5.87002
20
-5.44938
11
5.85877
21
-5.46625
0
LINE
8
BLACK
6
CONTINUOUS
10
5.85877
20
-5.46625
11
5.84753
21
-5.4775
0
LINE
8
BLACK
6
CONTINUOUS
10
5.84753
20
-5.4775
11
5.83628
21
-5.48312
0
LINE
8
BLACK
6
CONTINUOUS
10
5.94876
20
-5.46062
11
5.95439
21
-5.455
0
LINE
8
BLACK
6
CONTINUOUS
10
5.95439
20
-5.455
11
5.96564
21
-5.44938
0
LINE
8
BLACK
6
CONTINUOUS
10
5.96564
20
-5.44938
11
5.99376
21
-5.44938
0
LINE
8
BLACK
6
CONTINUOUS
10
5.99376
20
-5.44938
11
6.00501
21
-5.455
0
LINE
8
BLACK
6
CONTINUOUS
10
6.00501
20
-5.455
11
6.01063
21
-5.46062
0
LINE
8
BLACK
6
CONTINUOUS
10
6.01063
20
-5.46062
11
6.01625
21
-5.47187
0
LINE
8
BLACK
6
CONTINUOUS
10
6.01625
20
-5.47187
11
6.01625
21
-5.48312
0
LINE
8
BLACK
6
CONTINUOUS
10
6.01625
20
-5.48312
11
6.01063
21
-5.49999
0
LINE
8
BLACK
6
CONTINUOUS
10
6.01063
20
-5.49999
11
5.94314
21
-5.56749
0
LINE
8
BLACK
6
CONTINUOUS
10
5.94314
20
-5.56749
11
6.01625
21
-5.56749
0
LINE
8
BLACK
6
CONTINUOUS
10
6.11749
20
-5.44938
11
6.09499
21
-5.44938
0
LINE
8
BLACK
6
CONTINUOUS
10
6.09499
20
-5.44938
11
6.08375
21
-5.455
0
LINE
8
BLACK
6
CONTINUOUS
10
6.08375
20
-5.455
11
6.07812
21
-5.46062
0
LINE
8
BLACK
6
CONTINUOUS
10
6.07812
20
-5.46062
11
6.06687
21
-5.4775
0
LINE
8
BLACK
6
CONTINUOUS
10
6.06687
20
-5.4775
11
6.06125
21
-5.49999
0
LINE
8
BLACK
6
CONTINUOUS
10
6.06125
20
-5.49999
11
6.06125
21
-5.54499
0
LINE
8
BLACK
6
CONTINUOUS
10
6.06125
20
-5.54499
11
6.06687
21
-5.55624
0
LINE
8
BLACK
6
CONTINUOUS
10
6.06687
20
-5.55624
11
6.0725
21
-5.56186
0
LINE
8
BLACK
6
CONTINUOUS
10
6.0725
20
-5.56186
11
6.08375
21
-5.56749
0
LINE
8
BLACK
6
CONTINUOUS
10
6.08375
20
-5.56749
11
6.10624
21
-5.56749
0
LINE
8
BLACK
6
CONTINUOUS
10
6.10624
20
-5.56749
11
6.11749
21
-5.56186
0
LINE
8
BLACK
6
CONTINUOUS
10
6.11749
20
-5.56186
11
6.12312
21
-5.55624
0
LINE
8
BLACK
6
CONTINUOUS
10
6.12312
20
-5.55624
11
6.12874
21
-5.54499
0
LINE
8
BLACK
6
CONTINUOUS
10
6.12874
20
-5.54499
11
6.12874
21
-5.51687
0
LINE
8
BLACK
6
CONTINUOUS
10
6.12874
20
-5.51687
11
6.12312
21
-5.50562
0
LINE
8
BLACK
6
CONTINUOUS
10
6.12312
20
-5.50562
11
6.11749
21
-5.49999
0
LINE
8
BLACK
6
CONTINUOUS
10
6.11749
20
-5.49999
11
6.10624
21
-5.49437
0
LINE
8
BLACK
6
CONTINUOUS
10
6.10624
20
-5.49437
11
6.08375
21
-5.49437
0
LINE
8
BLACK
6
CONTINUOUS
10
6.08375
20
-5.49437
11
6.0725
21
-5.49999
0
LINE
8
BLACK
6
CONTINUOUS
10
6.0725
20
-5.49999
11
6.06687
21
-5.50562
0
LINE
8
BLACK
6
CONTINUOUS
10
6.06687
20
-5.50562
11
6.06125
21
-5.51687
0
LINE
8
BLACK
6
CONTINUOUS
10
6.17373
20
-5.44938
11
6.17373
21
-5.47187
0
LINE
8
BLACK
6
CONTINUOUS
10
6.21873
20
-5.44938
11
6.21873
21
-5.47187
0
LINE
8
BLACK
6
CONTINUOUS
10
6.39308
20
-5.61248
11
6.38746
21
-5.60686
0
LINE
8
BLACK
6
CONTINUOUS
10
6.38746
20
-5.60686
11
6.37621
21
-5.58998
0
LINE
8
BLACK
6
CONTINUOUS
10
6.37621
20
-5.58998
11
6.37058
21
-5.57873
0
LINE
8
BLACK
6
CONTINUOUS
10
6.37058
20
-5.57873
11
6.36496
21
-5.56186
0
LINE
8
BLACK
6
CONTINUOUS
10
6.36496
20
-5.56186
11
6.35934
21
-5.53374
0
LINE
8
BLACK
6
CONTINUOUS
10
6.35934
20
-5.53374
11
6.35934
21
-5.51124
0
LINE
8
BLACK
6
CONTINUOUS
10
6.35934
20
-5.51124
11
6.36496
21
-5.48312
0
LINE
8
BLACK
6
CONTINUOUS
10
6.36496
20
-5.48312
11
6.37058
21
-5.46625
0
LINE
8
BLACK
6
CONTINUOUS
10
6.37058
20
-5.46625
11
6.37621
21
-5.455
0
LINE
8
BLACK
6
CONTINUOUS
10
6.37621
20
-5.455
11
6.38746
21
-5.43813
0
LINE
8
BLACK
6
CONTINUOUS
10
6.38746
20
-5.43813
11
6.39308
21
-5.4325
0
LINE
8
BLACK
6
CONTINUOUS
10
6.43245
20
-5.46062
11
6.43808
21
-5.455
0
LINE
8
BLACK
6
CONTINUOUS
10
6.43808
20
-5.455
11
6.44933
21
-5.44938
0
LINE
8
BLACK
6
CONTINUOUS
10
6.44933
20
-5.44938
11
6.47745
21
-5.44938
0
LINE
8
BLACK
6
CONTINUOUS
10
6.47745
20
-5.44938
11
6.4887
21
-5.455
0
LINE
8
BLACK
6
CONTINUOUS
10
6.4887
20
-5.455
11
6.49432
21
-5.46062
0
LINE
8
BLACK
6
CONTINUOUS
10
6.49432
20
-5.46062
11
6.49994
21
-5.47187
0
LINE
8
BLACK
6
CONTINUOUS
10
6.49994
20
-5.47187
11
6.49994
21
-5.48312
0
LINE
8
BLACK
6
CONTINUOUS
10
6.49994
20
-5.48312
11
6.49432
21
-5.49999
0
LINE
8
BLACK
6
CONTINUOUS
10
6.49432
20
-5.49999
11
6.42683
21
-5.56749
0
LINE
8
BLACK
6
CONTINUOUS
10
6.42683
20
-5.56749
11
6.49994
21
-5.56749
0
LINE
8
BLACK
6
CONTINUOUS
10
6.64055
20
-5.56749
11
6.64055
21
-5.44938
0
LINE
8
BLACK
6
CONTINUOUS
10
6.69117
20
-5.56749
11
6.69117
21
-5.50562
0
LINE
8
BLACK
6
CONTINUOUS
10
6.69117
20
-5.50562
11
6.68555
21
-5.49437
0
LINE
8
BLACK
6
CONTINUOUS
10
6.68555
20
-5.49437
11
6.6743
21
-5.48875
0
LINE
8
BLACK
6
CONTINUOUS
10
6.6743
20
-5.48875
11
6.65742
21
-5.48875
0
LINE
8
BLACK
6
CONTINUOUS
10
6.65742
20
-5.48875
11
6.64618
21
-5.49437
0
LINE
8
BLACK
6
CONTINUOUS
10
6.64618
20
-5.49437
11
6.64055
21
-5.49999
0
LINE
8
BLACK
6
CONTINUOUS
10
6.76429
20
-5.56749
11
6.75304
21
-5.56186
0
LINE
8
BLACK
6
CONTINUOUS
10
6.75304
20
-5.56186
11
6.74741
21
-5.55624
0
LINE
8
BLACK
6
CONTINUOUS
10
6.74741
20
-5.55624
11
6.74179
21
-5.54499
0
LINE
8
BLACK
6
CONTINUOUS
10
6.74179
20
-5.54499
11
6.74179
21
-5.51124
0
LINE
8
BLACK
6
CONTINUOUS
10
6.74179
20
-5.51124
11
6.74741
21
-5.49999
0
LINE
8
BLACK
6
CONTINUOUS
10
6.74741
20
-5.49999
11
6.75304
21
-5.49437
0
LINE
8
BLACK
6
CONTINUOUS
10
6.75304
20
-5.49437
11
6.76429
21
-5.48875
0
LINE
8
BLACK
6
CONTINUOUS
10
6.76429
20
-5.48875
11
6.78116
21
-5.48875
0
LINE
8
BLACK
6
CONTINUOUS
10
6.78116
20
-5.48875
11
6.79241
21
-5.49437
0
LINE
8
BLACK
6
CONTINUOUS
10
6.79241
20
-5.49437
11
6.79803
21
-5.49999
0
LINE
8
BLACK
6
CONTINUOUS
10
6.79803
20
-5.49999
11
6.80366
21
-5.51124
0
LINE
8
BLACK
6
CONTINUOUS
10
6.80366
20
-5.51124
11
6.80366
21
-5.54499
0
LINE
8
BLACK
6
CONTINUOUS
10
6.80366
20
-5.54499
11
6.79803
21
-5.55624
0
LINE
8
BLACK
6
CONTINUOUS
10
6.79803
20
-5.55624
11
6.79241
21
-5.56186
0
LINE
8
BLACK
6
CONTINUOUS
10
6.79241
20
-5.56186
11
6.78116
21
-5.56749
0
LINE
8
BLACK
6
CONTINUOUS
10
6.78116
20
-5.56749
11
6.76429
21
-5.56749
0
LINE
8
BLACK
6
CONTINUOUS
10
6.87115
20
-5.56749
11
6.8599
21
-5.56186
0
LINE
8
BLACK
6
CONTINUOUS
10
6.8599
20
-5.56186
11
6.85427
21
-5.55061
0
LINE
8
BLACK
6
CONTINUOUS
10
6.85427
20
-5.55061
11
6.85427
21
-5.44938
0
LINE
8
BLACK
6
CONTINUOUS
10
6.96114
20
-5.56186
11
6.94989
21
-5.56749
0
LINE
8
BLACK
6
CONTINUOUS
10
6.94989
20
-5.56749
11
6.92739
21
-5.56749
0
LINE
8
BLACK
6
CONTINUOUS
10
6.92739
20
-5.56749
11
6.91614
21
-5.56186
0
LINE
8
BLACK
6
CONTINUOUS
10
6.91614
20
-5.56186
11
6.91052
21
-5.55061
0
LINE
8
BLACK
6
CONTINUOUS
10
6.91052
20
-5.55061
11
6.91052
21
-5.50562
0
LINE
8
BLACK
6
CONTINUOUS
10
6.91052
20
-5.50562
11
6.91614
21
-5.49437
0
LINE
8
BLACK
6
CONTINUOUS
10
6.91614
20
-5.49437
11
6.92739
21
-5.48875
0
LINE
8
BLACK
6
CONTINUOUS
10
6.92739
20
-5.48875
11
6.94989
21
-5.48875
0
LINE
8
BLACK
6
CONTINUOUS
10
6.94989
20
-5.48875
11
6.96114
21
-5.49437
0
LINE
8
BLACK
6
CONTINUOUS
10
6.96114
20
-5.49437
11
6.96676
21
-5.50562
0
LINE
8
BLACK
6
CONTINUOUS
10
6.96676
20
-5.50562
11
6.96676
21
-5.51687
0
LINE
8
BLACK
6
CONTINUOUS
10
6.96676
20
-5.51687
11
6.91052
21
-5.52812
0
LINE
8
BLACK
6
CONTINUOUS
10
7.01175
20
-5.56186
11
7.023
21
-5.56749
0
LINE
8
BLACK
6
CONTINUOUS
10
7.023
20
-5.56749
11
7.0455
21
-5.56749
0
LINE
8
BLACK
6
CONTINUOUS
10
7.0455
20
-5.56749
11
7.05675
21
-5.56186
0
LINE
8
BLACK
6
CONTINUOUS
10
7.05675
20
-5.56186
11
7.06237
21
-5.55061
0
LINE
8
BLACK
6
CONTINUOUS
10
7.06237
20
-5.55061
11
7.06237
21
-5.54499
0
LINE
8
BLACK
6
CONTINUOUS
10
7.06237
20
-5.54499
11
7.05675
21
-5.53374
0
LINE
8
BLACK
6
CONTINUOUS
10
7.05675
20
-5.53374
11
7.0455
21
-5.52812
0
LINE
8
BLACK
6
CONTINUOUS
10
7.0455
20
-5.52812
11
7.02863
21
-5.52812
0
LINE
8
BLACK
6
CONTINUOUS
10
7.02863
20
-5.52812
11
7.01738
21
-5.52249
0
LINE
8
BLACK
6
CONTINUOUS
10
7.01738
20
-5.52249
11
7.01175
21
-5.51124
0
LINE
8
BLACK
6
CONTINUOUS
10
7.01175
20
-5.51124
11
7.01175
21
-5.50562
0
LINE
8
BLACK
6
CONTINUOUS
10
7.01175
20
-5.50562
11
7.01738
21
-5.49437
0
LINE
8
BLACK
6
CONTINUOUS
10
7.01738
20
-5.49437
11
7.02863
21
-5.48875
0
LINE
8
BLACK
6
CONTINUOUS
10
7.02863
20
-5.48875
11
7.0455
21
-5.48875
0
LINE
8
BLACK
6
CONTINUOUS
10
7.0455
20
-5.48875
11
7.05675
21
-5.49437
0
LINE
8
BLACK
6
CONTINUOUS
10
7.10174
20
-5.61248
11
7.10737
21
-5.60686
0
LINE
8
BLACK
6
CONTINUOUS
10
7.10737
20
-5.60686
11
7.11862
21
-5.58998
0
LINE
8
BLACK
6
CONTINUOUS
10
7.11862
20
-5.58998
11
7.12424
21
-5.57873
0
LINE
8
BLACK
6
CONTINUOUS
10
7.12424
20
-5.57873
11
7.12986
21
-5.56186
0
LINE
8
BLACK
6
CONTINUOUS
10
7.12986
20
-5.56186
11
7.13549
21
-5.53374
0
LINE
8
BLACK
6
CONTINUOUS
10
7.13549
20
-5.53374
11
7.13549
21
-5.51124
0
LINE
8
BLACK
6
CONTINUOUS
10
7.13549
20
-5.51124
11
7.12986
21
-5.48312
0
LINE
8
BLACK
6
CONTINUOUS
10
7.12986
20
-5.48312
11
7.12424
21
-5.46625
0
LINE
8
BLACK
6
CONTINUOUS
10
7.12424
20
-5.46625
11
7.11862
21
-5.455
0
LINE
8
BLACK
6
CONTINUOUS
10
7.11862
20
-5.455
11
7.10737
21
-5.43813
0
LINE
8
BLACK
6
CONTINUOUS
10
7.10737
20
-5.43813
11
7.10174
21
-5.4325
0
LINE
8
BLACK
6
CONTINUOUS
10
7.31547
20
-5.61248
11
7.30984
21
-5.60686
0
LINE
8
BLACK
6
CONTINUOUS
10
7.30984
20
-5.60686
11
7.29859
21
-5.58998
0
LINE
8
BLACK
6
CONTINUOUS
10
7.29859
20
-5.58998
11
7.29297
21
-5.57873
0
LINE
8
BLACK
6
CONTINUOUS
10
7.29297
20
-5.57873
11
7.28735
21
-5.56186
0
LINE
8
BLACK
6
CONTINUOUS
10
7.28735
20
-5.56186
11
7.28172
21
-5.53374
0
LINE
8
BLACK
6
CONTINUOUS
10
7.28172
20
-5.53374
11
7.28172
21
-5.51124
0
LINE
8
BLACK
6
CONTINUOUS
10
7.28172
20
-5.51124
11
7.28735
21
-5.48312
0
LINE
8
BLACK
6
CONTINUOUS
10
7.28735
20
-5.48312
11
7.29297
21
-5.46625
0
LINE
8
BLACK
6
CONTINUOUS
10
7.29297
20
-5.46625
11
7.29859
21
-5.455
0
LINE
8
BLACK
6
CONTINUOUS
10
7.29859
20
-5.455
11
7.30984
21
-5.43813
0
LINE
8
BLACK
6
CONTINUOUS
10
7.30984
20
-5.43813
11
7.31547
21
-5.4325
0
LINE
8
BLACK
6
CONTINUOUS
10
7.36046
20
-5.48875
11
7.36046
21
-5.56749
0
LINE
8
BLACK
6
CONTINUOUS
10
7.36046
20
-5.49999
11
7.36609
21
-5.49437
0
LINE
8
BLACK
6
CONTINUOUS
10
7.36609
20
-5.49437
11
7.37733
21
-5.48875
0
LINE
8
BLACK
6
CONTINUOUS
10
7.37733
20
-5.48875
11
7.39421
21
-5.48875
0
LINE
8
BLACK
6
CONTINUOUS
10
7.39421
20
-5.48875
11
7.40546
21
-5.49437
0
LINE
8
BLACK
6
CONTINUOUS
10
7.40546
20
-5.49437
11
7.41108
21
-5.50562
0
LINE
8
BLACK
6
CONTINUOUS
10
7.41108
20
-5.50562
11
7.41108
21
-5.56749
0
LINE
8
BLACK
6
CONTINUOUS
10
7.4842
20
-5.56749
11
7.47295
21
-5.56186
0
LINE
8
BLACK
6
CONTINUOUS
10
7.47295
20
-5.56186
11
7.46732
21
-5.55624
0
LINE
8
BLACK
6
CONTINUOUS
10
7.46732
20
-5.55624
11
7.4617
21
-5.54499
0
LINE
8
BLACK
6
CONTINUOUS
10
7.4617
20
-5.54499
11
7.4617
21
-5.51124
0
LINE
8
BLACK
6
CONTINUOUS
10
7.4617
20
-5.51124
11
7.46732
21
-5.49999
0
LINE
8
BLACK
6
CONTINUOUS
10
7.46732
20
-5.49999
11
7.47295
21
-5.49437
0
LINE
8
BLACK
6
CONTINUOUS
10
7.47295
20
-5.49437
11
7.4842
21
-5.48875
0
LINE
8
BLACK
6
CONTINUOUS
10
7.4842
20
-5.48875
11
7.50107
21
-5.48875
0
LINE
8
BLACK
6
CONTINUOUS
10
7.50107
20
-5.48875
11
7.51232
21
-5.49437
0
LINE
8
BLACK
6
CONTINUOUS
10
7.51232
20
-5.49437
11
7.51794
21
-5.49999
0
LINE
8
BLACK
6
CONTINUOUS
10
7.51794
20
-5.49999
11
7.52357
21
-5.51124
0
LINE
8
BLACK
6
CONTINUOUS
10
7.52357
20
-5.51124
11
7.52357
21
-5.54499
0
LINE
8
BLACK
6
CONTINUOUS
10
7.52357
20
-5.54499
11
7.51794
21
-5.55624
0
LINE
8
BLACK
6
CONTINUOUS
10
7.51794
20
-5.55624
11
7.51232
21
-5.56186
0
LINE
8
BLACK
6
CONTINUOUS
10
7.51232
20
-5.56186
11
7.50107
21
-5.56749
0
LINE
8
BLACK
6
CONTINUOUS
10
7.50107
20
-5.56749
11
7.4842
21
-5.56749
0
LINE
8
BLACK
6
CONTINUOUS
10
7.55731
20
-5.48875
11
7.60231
21
-5.48875
0
LINE
8
BLACK
6
CONTINUOUS
10
7.57418
20
-5.44938
11
7.57418
21
-5.55061
0
LINE
8
BLACK
6
CONTINUOUS
10
7.57418
20
-5.55061
11
7.57981
21
-5.56186
0
LINE
8
BLACK
6
CONTINUOUS
10
7.57981
20
-5.56186
11
7.59106
21
-5.56749
0
LINE
8
BLACK
6
CONTINUOUS
10
7.59106
20
-5.56749
11
7.60231
21
-5.56749
0
LINE
8
BLACK
6
CONTINUOUS
10
7.73166
20
-5.48875
11
7.73166
21
-5.60686
0
LINE
8
BLACK
6
CONTINUOUS
10
7.73166
20
-5.49437
11
7.74291
21
-5.48875
0
LINE
8
BLACK
6
CONTINUOUS
10
7.74291
20
-5.48875
11
7.76541
21
-5.48875
0
LINE
8
BLACK
6
CONTINUOUS
10
7.76541
20
-5.48875
11
7.77666
21
-5.49437
0
LINE
8
BLACK
6
CONTINUOUS
10
7.77666
20
-5.49437
11
7.78228
21
-5.49999
0
LINE
8
BLACK
6
CONTINUOUS
10
7.78228
20
-5.49999
11
7.78791
21
-5.51124
0
LINE
8
BLACK
6
CONTINUOUS
10
7.78791
20
-5.51124
11
7.78791
21
-5.54499
0
LINE
8
BLACK
6
CONTINUOUS
10
7.78791
20
-5.54499
11
7.78228
21
-5.55624
0
LINE
8
BLACK
6
CONTINUOUS
10
7.78228
20
-5.55624
11
7.77666
21
-5.56186
0
LINE
8
BLACK
6
CONTINUOUS
10
7.77666
20
-5.56186
11
7.76541
21
-5.56749
0
LINE
8
BLACK
6
CONTINUOUS
10
7.76541
20
-5.56749
11
7.74291
21
-5.56749
0
LINE
8
BLACK
6
CONTINUOUS
10
7.74291
20
-5.56749
11
7.73166
21
-5.56186
0
LINE
8
BLACK
6
CONTINUOUS
10
7.8554
20
-5.56749
11
7.84415
21
-5.56186
0
LINE
8
BLACK
6
CONTINUOUS
10
7.84415
20
-5.56186
11
7.83853
21
-5.55061
0
LINE
8
BLACK
6
CONTINUOUS
10
7.83853
20
-5.55061
11
7.83853
21
-5.44938
0
LINE
8
BLACK
6
CONTINUOUS
10
7.95101
20
-5.56749
11
7.95101
21
-5.50562
0
LINE
8
BLACK
6
CONTINUOUS
10
7.95101
20
-5.50562
11
7.94539
21
-5.49437
0
LINE
8
BLACK
6
CONTINUOUS
10
7.94539
20
-5.49437
11
7.93414
21
-5.48875
0
LINE
8
BLACK
6
CONTINUOUS
10
7.93414
20
-5.48875
11
7.91164
21
-5.48875
0
LINE
8
BLACK
6
CONTINUOUS
10
7.91164
20
-5.48875
11
7.90039
21
-5.49437
0
LINE
8
BLACK
6
CONTINUOUS
10
7.95101
20
-5.56186
11
7.93976
21
-5.56749
0
LINE
8
BLACK
6
CONTINUOUS
10
7.93976
20
-5.56749
11
7.91164
21
-5.56749
0
LINE
8
BLACK
6
CONTINUOUS
10
7.91164
20
-5.56749
11
7.90039
21
-5.56186
0
LINE
8
BLACK
6
CONTINUOUS
10
7.90039
20
-5.56186
11
7.89477
21
-5.55061
0
LINE
8
BLACK
6
CONTINUOUS
10
7.89477
20
-5.55061
11
7.89477
21
-5.53936
0
LINE
8
BLACK
6
CONTINUOUS
10
7.89477
20
-5.53936
11
7.90039
21
-5.52812
0
LINE
8
BLACK
6
CONTINUOUS
10
7.90039
20
-5.52812
11
7.91164
21
-5.52249
0
LINE
8
BLACK
6
CONTINUOUS
10
7.91164
20
-5.52249
11
7.93976
21
-5.52249
0
LINE
8
BLACK
6
CONTINUOUS
10
7.93976
20
-5.52249
11
7.95101
21
-5.51687
0
LINE
8
BLACK
6
CONTINUOUS
10
7.99038
20
-5.48875
11
8.03538
21
-5.48875
0
LINE
8
BLACK
6
CONTINUOUS
10
8.00726
20
-5.44938
11
8.00726
21
-5.55061
0
LINE
8
BLACK
6
CONTINUOUS
10
8.00726
20
-5.55061
11
8.01288
21
-5.56186
0
LINE
8
BLACK
6
CONTINUOUS
10
8.01288
20
-5.56186
11
8.02413
21
-5.56749
0
LINE
8
BLACK
6
CONTINUOUS
10
8.02413
20
-5.56749
11
8.03538
21
-5.56749
0
LINE
8
BLACK
6
CONTINUOUS
10
8.11974
20
-5.56186
11
8.10849
21
-5.56749
0
LINE
8
BLACK
6
CONTINUOUS
10
8.10849
20
-5.56749
11
8.086
21
-5.56749
0
LINE
8
BLACK
6
CONTINUOUS
10
8.086
20
-5.56749
11
8.07475
21
-5.56186
0
LINE
8
BLACK
6
CONTINUOUS
10
8.07475
20
-5.56186
11
8.06912
21
-5.55061
0
LINE
8
BLACK
6
CONTINUOUS
10
8.06912
20
-5.55061
11
8.06912
21
-5.50562
0
LINE
8
BLACK
6
CONTINUOUS
10
8.06912
20
-5.50562
11
8.07475
21
-5.49437
0
LINE
8
BLACK
6
CONTINUOUS
10
8.07475
20
-5.49437
11
8.086
21
-5.48875
0
LINE
8
BLACK
6
CONTINUOUS
10
8.086
20
-5.48875
11
8.10849
21
-5.48875
0
LINE
8
BLACK
6
CONTINUOUS
10
8.10849
20
-5.48875
11
8.11974
21
-5.49437
0
LINE
8
BLACK
6
CONTINUOUS
10
8.11974
20
-5.49437
11
8.12537
21
-5.50562
0
LINE
8
BLACK
6
CONTINUOUS
10
8.12537
20
-5.50562
11
8.12537
21
-5.51687
0
LINE
8
BLACK
6
CONTINUOUS
10
8.12537
20
-5.51687
11
8.06912
21
-5.52812
0
LINE
8
BLACK
6
CONTINUOUS
10
8.2266
20
-5.56749
11
8.2266
21
-5.44938
0
LINE
8
BLACK
6
CONTINUOUS
10
8.2266
20
-5.56186
11
8.21535
21
-5.56749
0
LINE
8
BLACK
6
CONTINUOUS
10
8.21535
20
-5.56749
11
8.19286
21
-5.56749
0
LINE
8
BLACK
6
CONTINUOUS
10
8.19286
20
-5.56749
11
8.18161
21
-5.56186
0
LINE
8
BLACK
6
CONTINUOUS
10
8.18161
20
-5.56186
11
8.17598
21
-5.55624
0
LINE
8
BLACK
6
CONTINUOUS
10
8.17598
20
-5.55624
11
8.17036
21
-5.54499
0
LINE
8
BLACK
6
CONTINUOUS
10
8.17036
20
-5.54499
11
8.17036
21
-5.51124
0
LINE
8
BLACK
6
CONTINUOUS
10
8.17036
20
-5.51124
11
8.17598
21
-5.49999
0
LINE
8
BLACK
6
CONTINUOUS
10
8.17598
20
-5.49999
11
8.18161
21
-5.49437
0
LINE
8
BLACK
6
CONTINUOUS
10
8.18161
20
-5.49437
11
8.19286
21
-5.48875
0
LINE
8
BLACK
6
CONTINUOUS
10
8.19286
20
-5.48875
11
8.21535
21
-5.48875
0
LINE
8
BLACK
6
CONTINUOUS
10
8.21535
20
-5.48875
11
8.2266
21
-5.49437
0
LINE
8
BLACK
6
CONTINUOUS
10
8.2716
20
-5.61248
11
8.27722
21
-5.60686
0
LINE
8
BLACK
6
CONTINUOUS
10
8.27722
20
-5.60686
11
8.28847
21
-5.58998
0
LINE
8
BLACK
6
CONTINUOUS
10
8.28847
20
-5.58998
11
8.29409
21
-5.57873
0
LINE
8
BLACK
6
CONTINUOUS
10
8.29409
20
-5.57873
11
8.29972
21
-5.56186
0
LINE
8
BLACK
6
CONTINUOUS
10
8.29972
20
-5.56186
11
8.30534
21
-5.53374
0
LINE
8
BLACK
6
CONTINUOUS
10
8.30534
20
-5.53374
11
8.30534
21
-5.51124
0
LINE
8
BLACK
6
CONTINUOUS
10
8.30534
20
-5.51124
11
8.29972
21
-5.48312
0
LINE
8
BLACK
6
CONTINUOUS
10
8.29972
20
-5.48312
11
8.29409
21
-5.46625
0
LINE
8
BLACK
6
CONTINUOUS
10
8.29409
20
-5.46625
11
8.28847
21
-5.455
0
LINE
8
BLACK
6
CONTINUOUS
10
8.28847
20
-5.455
11
8.27722
21
-5.43813
0
LINE
8
BLACK
6
CONTINUOUS
10
8.27722
20
-5.43813
11
8.2716
21
-5.4325
0
LINE
8
BLACK
6
CONTINUOUS
10
4.3937
20
-5.61406
11
4.54803
21
-5.76839
0
LINE
8
BLACK
6
CONTINUOUS
10
4.54803
20
-5.61406
11
4.3937
21
-5.76839
0
CIRCLE
8
BLACK
10
4.47087
20
-5.69122
40
0.0771654
0
LINE
8
BLACK
6
CONTINUOUS
10
4.64955
20
-5.62654
11
4.72267
21
-5.62654
0
LINE
8
BLACK
6
CONTINUOUS
10
4.72267
20
-5.62654
11
4.6833
21
-5.67154
0
LINE
8
BLACK
6
CONTINUOUS
10
4.6833
20
-5.67154
11
4.70017
21
-5.67154
0
LINE
8
BLACK
6
CONTINUOUS
10
4.70017
20
-5.67154
11
4.71142
21
-5.67716
0
LINE
8
BLACK
6
CONTINUOUS
10
4.71142
20
-5.67716
11
4.71704
21
-5.68278
0
LINE
8
BLACK
6
CONTINUOUS
10
4.71704
20
-5.68278
11
4.72267
21
-5.69403
0
LINE
8
BLACK
6
CONTINUOUS
10
4.72267
20
-5.69403
11
4.72267
21
-5.72215
0
LINE
8
BLACK
6
CONTINUOUS
10
4.72267
20
-5.72215
11
4.71704
21
-5.7334
0
LINE
8
BLACK
6
CONTINUOUS
10
4.71704
20
-5.7334
11
4.71142
21
-5.73903
0
LINE
8
BLACK
6
CONTINUOUS
10
4.71142
20
-5.73903
11
4.70017
21
-5.74465
0
LINE
8
BLACK
6
CONTINUOUS
10
4.70017
20
-5.74465
11
4.66642
21
-5.74465
0
LINE
8
BLACK
6
CONTINUOUS
10
4.66642
20
-5.74465
11
4.65517
21
-5.73903
0
LINE
8
BLACK
6
CONTINUOUS
10
4.65517
20
-5.73903
11
4.64955
21
-5.7334
0
LINE
8
BLACK
6
CONTINUOUS
10
4.77328
20
-5.7334
11
4.77891
21
-5.73903
0
LINE
8
BLACK
6
CONTINUOUS
10
4.77891
20
-5.73903
11
4.77328
21
-5.74465
0
LINE
8
BLACK
6
CONTINUOUS
10
4.77328
20
-5.74465
11
4.76766
21
-5.73903
0
LINE
8
BLACK
6
CONTINUOUS
10
4.76766
20
-5.73903
11
4.77328
21
-5.7334
0
LINE
8
BLACK
6
CONTINUOUS
10
4.77328
20
-5.7334
11
4.77328
21
-5.74465
0
LINE
8
BLACK
6
CONTINUOUS
10
4.83515
20
-5.74465
11
4.85765
21
-5.74465
0
LINE
8
BLACK
6
CONTINUOUS
10
4.85765
20
-5.74465
11
4.8689
21
-5.73903
0
LINE
8
BLACK
6
CONTINUOUS
10
4.8689
20
-5.73903
11
4.87452
21
-5.7334
0
LINE
8
BLACK
6
CONTINUOUS
10
4.87452
20
-5.7334
11
4.88577
21
-5.71653
0
LINE
8
BLACK
6
CONTINUOUS
10
4.88577
20
-5.71653
11
4.89139
21
-5.69403
0
LINE
8
BLACK
6
CONTINUOUS
10
4.89139
20
-5.69403
11
4.89139
21
-5.64904
0
LINE
8
BLACK
6
CONTINUOUS
10
4.89139
20
-5.64904
11
4.88577
21
-5.63779
0
LINE
8
BLACK
6
CONTINUOUS
10
4.88577
20
-5.63779
11
4.88015
21
-5.63217
0
LINE
8
BLACK
6
CONTINUOUS
10
4.88015
20
-5.63217
11
4.8689
21
-5.62654
0
LINE
8
BLACK
6
CONTINUOUS
10
4.8689
20
-5.62654
11
4.8464
21
-5.62654
0
LINE
8
BLACK
6
CONTINUOUS
10
4.8464
20
-5.62654
11
4.83515
21
-5.63217
0
LINE
8
BLACK
6
CONTINUOUS
10
4.83515
20
-5.63217
11
4.82953
21
-5.63779
0
LINE
8
BLACK
6
CONTINUOUS
10
4.82953
20
-5.63779
11
4.8239
21
-5.64904
0
LINE
8
BLACK
6
CONTINUOUS
10
4.8239
20
-5.64904
11
4.8239
21
-5.67716
0
LINE
8
BLACK
6
CONTINUOUS
10
4.8239
20
-5.67716
11
4.82953
21
-5.68841
0
LINE
8
BLACK
6
CONTINUOUS
10
4.82953
20
-5.68841
11
4.83515
21
-5.69403
0
LINE
8
BLACK
6
CONTINUOUS
10
4.83515
20
-5.69403
11
4.8464
21
-5.69966
0
LINE
8
BLACK
6
CONTINUOUS
10
4.8464
20
-5.69966
11
4.8689
21
-5.69966
0
LINE
8
BLACK
6
CONTINUOUS
10
4.8689
20
-5.69966
11
4.88015
21
-5.69403
0
LINE
8
BLACK
6
CONTINUOUS
10
4.88015
20
-5.69403
11
4.88577
21
-5.68841
0
LINE
8
BLACK
6
CONTINUOUS
10
4.88577
20
-5.68841
11
4.89139
21
-5.67716
0
LINE
8
BLACK
6
CONTINUOUS
10
4.93639
20
-5.63779
11
4.94201
21
-5.63217
0
LINE
8
BLACK
6
CONTINUOUS
10
4.94201
20
-5.63217
11
4.95326
21
-5.62654
0
LINE
8
BLACK
6
CONTINUOUS
10
4.95326
20
-5.62654
11
4.98138
21
-5.62654
0
LINE
8
BLACK
6
CONTINUOUS
10
4.98138
20
-5.62654
11
4.99263
21
-5.63217
0
LINE
8
BLACK
6
CONTINUOUS
10
4.99263
20
-5.63217
11
4.99826
21
-5.63779
0
LINE
8
BLACK
6
CONTINUOUS
10
4.99826
20
-5.63779
11
5.00388
21
-5.64904
0
LINE
8
BLACK
6
CONTINUOUS
10
5.00388
20
-5.64904
11
5.00388
21
-5.66029
0
LINE
8
BLACK
6
CONTINUOUS
10
5.00388
20
-5.66029
11
4.99826
21
-5.67716
0
LINE
8
BLACK
6
CONTINUOUS
10
4.99826
20
-5.67716
11
4.93076
21
-5.74465
0
LINE
8
BLACK
6
CONTINUOUS
10
4.93076
20
-5.74465
11
5.00388
21
-5.74465
0
LINE
8
BLACK
6
CONTINUOUS
10
5.0545
20
-5.74465
11
5.0545
21
-5.66591
0
LINE
8
BLACK
6
CONTINUOUS
10
5.0545
20
-5.67716
11
5.06012
21
-5.67154
0
LINE
8
BLACK
6
CONTINUOUS
10
5.06012
20
-5.67154
11
5.07137
21
-5.66591
0
LINE
8
BLACK
6
CONTINUOUS
10
5.07137
20
-5.66591
11
5.08825
21
-5.66591
0
LINE
8
BLACK
6
CONTINUOUS
10
5.08825
20
-5.66591
11
5.09949
21
-5.67154
0
LINE
8
BLACK
6
CONTINUOUS
10
5.09949
20
-5.67154
11
5.10512
21
-5.68278
0
LINE
8
BLACK
6
CONTINUOUS
10
5.10512
20
-5.68278
11
5.10512
21
-5.74465
0
LINE
8
BLACK
6
CONTINUOUS
10
5.10512
20
-5.68278
11
5.11074
21
-5.67154
0
LINE
8
BLACK
6
CONTINUOUS
10
5.11074
20
-5.67154
11
5.12199
21
-5.66591
0
LINE
8
BLACK
6
CONTINUOUS
10
5.12199
20
-5.66591
11
5.13886
21
-5.66591
0
LINE
8
BLACK
6
CONTINUOUS
10
5.13886
20
-5.66591
11
5.15011
21
-5.67154
0
LINE
8
BLACK
6
CONTINUOUS
10
5.15011
20
-5.67154
11
5.15574
21
-5.68278
0
LINE
8
BLACK
6
CONTINUOUS
10
5.15574
20
-5.68278
11
5.15574
21
-5.74465
0
LINE
8
BLACK
6
CONTINUOUS
10
5.21198
20
-5.74465
11
5.21198
21
-5.66591
0
LINE
8
BLACK
6
CONTINUOUS
10
5.21198
20
-5.67716
11
5.2176
21
-5.67154
0
LINE
8
BLACK
6
CONTINUOUS
10
5.2176
20
-5.67154
11
5.22885
21
-5.66591
0
LINE
8
BLACK
6
CONTINUOUS
10
5.22885
20
-5.66591
11
5.24573
21
-5.66591
0
LINE
8
BLACK
6
CONTINUOUS
10
5.24573
20
-5.66591
11
5.25697
21
-5.67154
0
LINE
8
BLACK
6
CONTINUOUS
10
5.25697
20
-5.67154
11
5.2626
21
-5.68278
0
LINE
8
BLACK
6
CONTINUOUS
10
5.2626
20
-5.68278
11
5.2626
21
-5.74465
0
LINE
8
BLACK
6
CONTINUOUS
10
5.2626
20
-5.68278
11
5.26822
21
-5.67154
0
LINE
8
BLACK
6
CONTINUOUS
10
5.26822
20
-5.67154
11
5.27947
21
-5.66591
0
LINE
8
BLACK
6
CONTINUOUS
10
5.27947
20
-5.66591
11
5.29634
21
-5.66591
0
LINE
8
BLACK
6
CONTINUOUS
10
5.29634
20
-5.66591
11
5.30759
21
-5.67154
0
LINE
8
BLACK
6
CONTINUOUS
10
5.30759
20
-5.67154
11
5.31322
21
-5.68278
0
LINE
8
BLACK
6
CONTINUOUS
10
5.31322
20
-5.68278
11
5.31322
21
-5.74465
0
LINE
8
BLACK
6
CONTINUOUS
10
5.54381
20
-5.62092
11
5.44258
21
-5.77277
0
LINE
8
BLACK
6
CONTINUOUS
10
5.69567
20
-5.62654
11
5.70692
21
-5.62654
0
LINE
8
BLACK
6
CONTINUOUS
10
5.70692
20
-5.62654
11
5.71817
21
-5.63217
0
LINE
8
BLACK
6
CONTINUOUS
10
5.71817
20
-5.63217
11
5.72379
21
-5.63779
0
LINE
8
BLACK
6
CONTINUOUS
10
5.72379
20
-5.63779
11
5.72941
21
-5.64904
0
LINE
8
BLACK
6
CONTINUOUS
10
5.72941
20
-5.64904
11
5.73504
21
-5.67154
0
LINE
8
BLACK
6
CONTINUOUS
10
5.73504
20
-5.67154
11
5.73504
21
-5.69966
0
LINE
8
BLACK
6
CONTINUOUS
10
5.73504
20
-5.69966
11
5.72941
21
-5.72215
0
LINE
8
BLACK
6
CONTINUOUS
10
5.72941
20
-5.72215
11
5.72379
21
-5.7334
0
LINE
8
BLACK
6
CONTINUOUS
10
5.72379
20
-5.7334
11
5.71817
21
-5.73903
0
LINE
8
BLACK
6
CONTINUOUS
10
5.71817
20
-5.73903
11
5.70692
21
-5.74465
0
LINE
8
BLACK
6
CONTINUOUS
10
5.70692
20
-5.74465
11
5.69567
21
-5.74465
0
LINE
8
BLACK
6
CONTINUOUS
10
5.69567
20
-5.74465
11
5.68442
21
-5.73903
0
LINE
8
BLACK
6
CONTINUOUS
10
5.68442
20
-5.73903
11
5.6788
21
-5.7334
0
LINE
8
BLACK
6
CONTINUOUS
10
5.6788
20
-5.7334
11
5.67317
21
-5.72215
0
LINE
8
BLACK
6
CONTINUOUS
10
5.67317
20
-5.72215
11
5.66755
21
-5.69966
0
LINE
8
BLACK
6
CONTINUOUS
10
5.66755
20
-5.69966
11
5.66755
21
-5.67154
0
LINE
8
BLACK
6
CONTINUOUS
10
5.66755
20
-5.67154
11
5.67317
21
-5.64904
0
LINE
8
BLACK
6
CONTINUOUS
10
5.67317
20
-5.64904
11
5.6788
21
-5.63779
0
LINE
8
BLACK
6
CONTINUOUS
10
5.6788
20
-5.63779
11
5.68442
21
-5.63217
0
LINE
8
BLACK
6
CONTINUOUS
10
5.68442
20
-5.63217
11
5.69567
21
-5.62654
0
LINE
8
BLACK
6
CONTINUOUS
10
5.78566
20
-5.7334
11
5.79128
21
-5.73903
0
LINE
8
BLACK
6
CONTINUOUS
10
5.79128
20
-5.73903
11
5.78566
21
-5.74465
0
LINE
8
BLACK
6
CONTINUOUS
10
5.78566
20
-5.74465
11
5.78003
21
-5.73903
0
LINE
8
BLACK
6
CONTINUOUS
10
5.78003
20
-5.73903
11
5.78566
21
-5.7334
0
LINE
8
BLACK
6
CONTINUOUS
10
5.78566
20
-5.7334
11
5.78566
21
-5.74465
0
LINE
8
BLACK
6
CONTINUOUS
10
5.90377
20
-5.74465
11
5.83628
21
-5.74465
0
LINE
8
BLACK
6
CONTINUOUS
10
5.87002
20
-5.74465
11
5.87002
21
-5.62654
0
LINE
8
BLACK
6
CONTINUOUS
10
5.87002
20
-5.62654
11
5.85877
21
-5.64341
0
LINE
8
BLACK
6
CONTINUOUS
10
5.85877
20
-5.64341
11
5.84753
21
-5.65466
0
LINE
8
BLACK
6
CONTINUOUS
10
5.84753
20
-5.65466
11
5.83628
21
-5.66029
0
LINE
8
BLACK
6
CONTINUOUS
10
6.01063
20
-5.62654
11
5.95439
21
-5.62654
0
LINE
8
BLACK
6
CONTINUOUS
10
5.95439
20
-5.62654
11
5.94876
21
-5.68278
0
LINE
8
BLACK
6
CONTINUOUS
10
5.94876
20
-5.68278
11
5.95439
21
-5.67716
0
LINE
8
BLACK
6
CONTINUOUS
10
5.95439
20
-5.67716
11
5.96564
21
-5.67154
0
LINE
8
BLACK
6
CONTINUOUS
10
5.96564
20
-5.67154
11
5.99376
21
-5.67154
0
LINE
8
BLACK
6
CONTINUOUS
10
5.99376
20
-5.67154
11
6.00501
21
-5.67716
0
LINE
8
BLACK
6
CONTINUOUS
10
6.00501
20
-5.67716
11
6.01063
21
-5.68278
0
LINE
8
BLACK
6
CONTINUOUS
10
6.01063
20
-5.68278
11
6.01625
21
-5.69403
0
LINE
8
BLACK
6
CONTINUOUS
10
6.01625
20
-5.69403
11
6.01625
21
-5.72215
0
LINE
8
BLACK
6
CONTINUOUS
10
6.01625
20
-5.72215
11
6.01063
21
-5.7334
0
LINE
8
BLACK
6
CONTINUOUS
10
6.01063
20
-5.7334
11
6.00501
21
-5.73903
0
LINE
8
BLACK
6
CONTINUOUS
10
6.00501
20
-5.73903
11
5.99376
21
-5.74465
0
LINE
8
BLACK
6
CONTINUOUS
10
5.99376
20
-5.74465
11
5.96564
21
-5.74465
0
LINE
8
BLACK
6
CONTINUOUS
10
5.96564
20
-5.74465
11
5.95439
21
-5.73903
0
LINE
8
BLACK
6
CONTINUOUS
10
5.95439
20
-5.73903
11
5.94876
21
-5.7334
0
LINE
8
BLACK
6
CONTINUOUS
10
6.11749
20
-5.66591
11
6.11749
21
-5.74465
0
LINE
8
BLACK
6
CONTINUOUS
10
6.08937
20
-5.62092
11
6.06125
21
-5.70528
0
LINE
8
BLACK
6
CONTINUOUS
10
6.06125
20
-5.70528
11
6.13436
21
-5.70528
0
LINE
8
BLACK
6
CONTINUOUS
10
6.17373
20
-5.62654
11
6.17373
21
-5.64904
0
LINE
8
BLACK
6
CONTINUOUS
10
6.21873
20
-5.62654
11
6.21873
21
-5.64904
0
LINE
8
BLACK
6
CONTINUOUS
10
6.39308
20
-5.78965
11
6.38746
21
-5.78402
0
LINE
8
BLACK
6
CONTINUOUS
10
6.38746
20
-5.78402
11
6.37621
21
-5.76715
0
LINE
8
BLACK
6
CONTINUOUS
10
6.37621
20
-5.76715
11
6.37058
21
-5.7559
0
LINE
8
BLACK
6
CONTINUOUS
10
6.37058
20
-5.7559
11
6.36496
21
-5.73903
0
LINE
8
BLACK
6
CONTINUOUS
10
6.36496
20
-5.73903
11
6.35934
21
-5.71091
0
LINE
8
BLACK
6
CONTINUOUS
10
6.35934
20
-5.71091
11
6.35934
21
-5.68841
0
LINE
8
BLACK
6
CONTINUOUS
10
6.35934
20
-5.68841
11
6.36496
21
-5.66029
0
LINE
8
BLACK
6
CONTINUOUS
10
6.36496
20
-5.66029
11
6.37058
21
-5.64341
0
LINE
8
BLACK
6
CONTINUOUS
10
6.37058
20
-5.64341
11
6.37621
21
-5.63217
0
LINE
8
BLACK
6
CONTINUOUS
10
6.37621
20
-5.63217
11
6.38746
21
-5.61529
0
LINE
8
BLACK
6
CONTINUOUS
10
6.38746
20
-5.61529
11
6.39308
21
-5.60967
0
LINE
8
BLACK
6
CONTINUOUS
10
6.43245
20
-5.63779
11
6.43808
21
-5.63217
0
LINE
8
BLACK
6
CONTINUOUS
10
6.43808
20
-5.63217
11
6.44933
21
-5.62654
0
LINE
8
BLACK
6
CONTINUOUS
10
6.44933
20
-5.62654
11
6.47745
21
-5.62654
0
LINE
8
BLACK
6
CONTINUOUS
10
6.47745
20
-5.62654
11
6.4887
21
-5.63217
0
LINE
8
BLACK
6
CONTINUOUS
10
6.4887
20
-5.63217
11
6.49432
21
-5.63779
0
LINE
8
BLACK
6
CONTINUOUS
10
6.49432
20
-5.63779
11
6.49994
21
-5.64904
0
LINE
8
BLACK
6
CONTINUOUS
10
6.49994
20
-5.64904
11
6.49994
21
-5.66029
0
LINE
8
BLACK
6
CONTINUOUS
10
6.49994
20
-5.66029
11
6.49432
21
-5.67716
0
LINE
8
BLACK
6
CONTINUOUS
10
6.49432
20
-5.67716
11
6.42683
21
-5.74465
0
LINE
8
BLACK
6
CONTINUOUS
10
6.42683
20
-5.74465
11
6.49994
21
-5.74465
0
LINE
8
BLACK
6
CONTINUOUS
10
6.64055
20
-5.74465
11
6.64055
21
-5.62654
0
LINE
8
BLACK
6
CONTINUOUS
10
6.69117
20
-5.74465
11
6.69117
21
-5.68278
0
LINE
8
BLACK
6
CONTINUOUS
10
6.69117
20
-5.68278
11
6.68555
21
-5.67154
0
LINE
8
BLACK
6
CONTINUOUS
10
6.68555
20
-5.67154
11
6.6743
21
-5.66591
0
LINE
8
BLACK
6
CONTINUOUS
10
6.6743
20
-5.66591
11
6.65742
21
-5.66591
0
LINE
8
BLACK
6
CONTINUOUS
10
6.65742
20
-5.66591
11
6.64618
21
-5.67154
0
LINE
8
BLACK
6
CONTINUOUS
10
6.64618
20
-5.67154
11
6.64055
21
-5.67716
0
LINE
8
BLACK
6
CONTINUOUS
10
6.76429
20
-5.74465
11
6.75304
21
-5.73903
0
LINE
8
BLACK
6
CONTINUOUS
10
6.75304
20
-5.73903
11
6.74741
21
-5.7334
0
LINE
8
BLACK
6
CONTINUOUS
10
6.74741
20
-5.7334
11
6.74179
21
-5.72215
0
LINE
8
BLACK
6
CONTINUOUS
10
6.74179
20
-5.72215
11
6.74179
21
-5.68841
0
LINE
8
BLACK
6
CONTINUOUS
10
6.74179
20
-5.68841
11
6.74741
21
-5.67716
0
LINE
8
BLACK
6
CONTINUOUS
10
6.74741
20
-5.67716
11
6.75304
21
-5.67154
0
LINE
8
BLACK
6
CONTINUOUS
10
6.75304
20
-5.67154
11
6.76429
21
-5.66591
0
LINE
8
BLACK
6
CONTINUOUS
10
6.76429
20
-5.66591
11
6.78116
21
-5.66591
0
LINE
8
BLACK
6
CONTINUOUS
10
6.78116
20
-5.66591
11
6.79241
21
-5.67154
0
LINE
8
BLACK
6
CONTINUOUS
10
6.79241
20
-5.67154
11
6.79803
21
-5.67716
0
LINE
8
BLACK
6
CONTINUOUS
10
6.79803
20
-5.67716
11
6.80366
21
-5.68841
0
LINE
8
BLACK
6
CONTINUOUS
10
6.80366
20
-5.68841
11
6.80366
21
-5.72215
0
LINE
8
BLACK
6
CONTINUOUS
10
6.80366
20
-5.72215
11
6.79803
21
-5.7334
0
LINE
8
BLACK
6
CONTINUOUS
10
6.79803
20
-5.7334
11
6.79241
21
-5.73903
0
LINE
8
BLACK
6
CONTINUOUS
10
6.79241
20
-5.73903
11
6.78116
21
-5.74465
0
LINE
8
BLACK
6
CONTINUOUS
10
6.78116
20
-5.74465
11
6.76429
21
-5.74465
0
LINE
8
BLACK
6
CONTINUOUS
10
6.87115
20
-5.74465
11
6.8599
21
-5.73903
0
LINE
8
BLACK
6
CONTINUOUS
10
6.8599
20
-5.73903
11
6.85427
21
-5.72778
0
LINE
8
BLACK
6
CONTINUOUS
10
6.85427
20
-5.72778
11
6.85427
21
-5.62654
0
LINE
8
BLACK
6
CONTINUOUS
10
6.96114
20
-5.73903
11
6.94989
21
-5.74465
0
LINE
8
BLACK
6
CONTINUOUS
10
6.94989
20
-5.74465
11
6.92739
21
-5.74465
0
LINE
8
BLACK
6
CONTINUOUS
10
6.92739
20
-5.74465
11
6.91614
21
-5.73903
0
LINE
8
BLACK
6
CONTINUOUS
10
6.91614
20
-5.73903
11
6.91052
21
-5.72778
0
LINE
8
BLACK
6
CONTINUOUS
10
6.91052
20
-5.72778
11
6.91052
21
-5.68278
0
LINE
8
BLACK
6
CONTINUOUS
10
6.91052
20
-5.68278
11
6.91614
21
-5.67154
0
LINE
8
BLACK
6
CONTINUOUS
10
6.91614
20
-5.67154
11
6.92739
21
-5.66591
0
LINE
8
BLACK
6
CONTINUOUS
10
6.92739
20
-5.66591
11
6.94989
21
-5.66591
0
LINE
8
BLACK
6
CONTINUOUS
10
6.94989
20
-5.66591
11
6.96114
21
-5.67154
0
LINE
8
BLACK
6
CONTINUOUS
10
6.96114
20
-5.67154
11
6.96676
21
-5.68278
0
LINE
8
BLACK
6
CONTINUOUS
10
6.96676
20
-5.68278
11
6.96676
21
-5.69403
0
LINE
8
BLACK
6
CONTINUOUS
10
6.96676
20
-5.69403
11
6.91052
21
-5.70528
0
LINE
8
BLACK
6
CONTINUOUS
10
7.01175
20
-5.73903
11
7.023
21
-5.74465
0
LINE
8
BLACK
6
CONTINUOUS
10
7.023
20
-5.74465
11
7.0455
21
-5.74465
0
LINE
8
BLACK
6
CONTINUOUS
10
7.0455
20
-5.74465
11
7.05675
21
-5.73903
0
LINE
8
BLACK
6
CONTINUOUS
10
7.05675
20
-5.73903
11
7.06237
21
-5.72778
0
LINE
8
BLACK
6
CONTINUOUS
10
7.06237
20
-5.72778
11
7.06237
21
-5.72215
0
LINE
8
BLACK
6
CONTINUOUS
10
7.06237
20
-5.72215
11
7.05675
21
-5.71091
0
LINE
8
BLACK
6
CONTINUOUS
10
7.05675
20
-5.71091
11
7.0455
21
-5.70528
0
LINE
8
BLACK
6
CONTINUOUS
10
7.0455
20
-5.70528
11
7.02863
21
-5.70528
0
LINE
8
BLACK
6
CONTINUOUS
10
7.02863
20
-5.70528
11
7.01738
21
-5.69966
0
LINE
8
BLACK
6
CONTINUOUS
10
7.01738
20
-5.69966
11
7.01175
21
-5.68841
0
LINE
8
BLACK
6
CONTINUOUS
10
7.01175
20
-5.68841
11
7.01175
21
-5.68278
0
LINE
8
BLACK
6
CONTINUOUS
10
7.01175
20
-5.68278
11
7.01738
21
-5.67154
0
LINE
8
BLACK
6
CONTINUOUS
10
7.01738
20
-5.67154
11
7.02863
21
-5.66591
0
LINE
8
BLACK
6
CONTINUOUS
10
7.02863
20
-5.66591
11
7.0455
21
-5.66591
0
LINE
8
BLACK
6
CONTINUOUS
10
7.0455
20
-5.66591
11
7.05675
21
-5.67154
0
LINE
8
BLACK
6
CONTINUOUS
10
7.10174
20
-5.78965
11
7.10737
21
-5.78402
0
LINE
8
BLACK
6
CONTINUOUS
10
7.10737
20
-5.78402
11
7.11862
21
-5.76715
0
LINE
8
BLACK
6
CONTINUOUS
10
7.11862
20
-5.76715
11
7.12424
21
-5.7559
0
LINE
8
BLACK
6
CONTINUOUS
10
7.12424
20
-5.7559
11
7.12986
21
-5.73903
0
LINE
8
BLACK
6
CONTINUOUS
10
7.12986
20
-5.73903
11
7.13549
21
-5.71091
0
LINE
8
BLACK
6
CONTINUOUS
10
7.13549
20
-5.71091
11
7.13549
21
-5.68841
0
LINE
8
BLACK
6
CONTINUOUS
10
7.13549
20
-5.68841
11
7.12986
21
-5.66029
0
LINE
8
BLACK
6
CONTINUOUS
10
7.12986
20
-5.66029
11
7.12424
21
-5.64341
0
LINE
8
BLACK
6
CONTINUOUS
10
7.12424
20
-5.64341
11
7.11862
21
-5.63217
0
LINE
8
BLACK
6
CONTINUOUS
10
7.11862
20
-5.63217
11
7.10737
21
-5.61529
0
LINE
8
BLACK
6
CONTINUOUS
10
7.10737
20
-5.61529
11
7.10174
21
-5.60967
0
LINE
8
BLACK
6
CONTINUOUS
10
7.31547
20
-5.78965
11
7.30984
21
-5.78402
0
LINE
8
BLACK
6
CONTINUOUS
10
7.30984
20
-5.78402
11
7.29859
21
-5.76715
0
LINE
8
BLACK
6
CONTINUOUS
10
7.29859
20
-5.76715
11
7.29297
21
-5.7559
0
LINE
8
BLACK
6
CONTINUOUS
10
7.29297
20
-5.7559
11
7.28735
21
-5.73903
0
LINE
8
BLACK
6
CONTINUOUS
10
7.28735
20
-5.73903
11
7.28172
21
-5.71091
0
LINE
8
BLACK
6
CONTINUOUS
10
7.28172
20
-5.71091
11
7.28172
21
-5.68841
0
LINE
8
BLACK
6
CONTINUOUS
10
7.28172
20
-5.68841
11
7.28735
21
-5.66029
0
LINE
8
BLACK
6
CONTINUOUS
10
7.28735
20
-5.66029
11
7.29297
21
-5.64341
0
LINE
8
BLACK
6
CONTINUOUS
10
7.29297
20
-5.64341
11
7.29859
21
-5.63217
0
LINE
8
BLACK
6
CONTINUOUS
10
7.29859
20
-5.63217
11
7.30984
21
-5.61529
0
LINE
8
BLACK
6
CONTINUOUS
10
7.30984
20
-5.61529
11
7.31547
21
-5.60967
0
LINE
8
BLACK
6
CONTINUOUS
10
7.36046
20
-5.66591
11
7.36046
21
-5.74465
0
LINE
8
BLACK
6
CONTINUOUS
10
7.36046
20
-5.67716
11
7.36609
21
-5.67154
0
LINE
8
BLACK
6
CONTINUOUS
10
7.36609
20
-5.67154
11
7.37733
21
-5.66591
0
LINE
8
BLACK
6
CONTINUOUS
10
7.37733
20
-5.66591
11
7.39421
21
-5.66591
0
LINE
8
BLACK
6
CONTINUOUS
10
7.39421
20
-5.66591
11
7.40546
21
-5.67154
0
LINE
8
BLACK
6
CONTINUOUS
10
7.40546
20
-5.67154
11
7.41108
21
-5.68278
0
LINE
8
BLACK
6
CONTINUOUS
10
7.41108
20
-5.68278
11
7.41108
21
-5.74465
0
LINE
8
BLACK
6
CONTINUOUS
10
7.4842
20
-5.74465
11
7.47295
21
-5.73903
0
LINE
8
BLACK
6
CONTINUOUS
10
7.47295
20
-5.73903
11
7.46732
21
-5.7334
0
LINE
8
BLACK
6
CONTINUOUS
10
7.46732
20
-5.7334
11
7.4617
21
-5.72215
0
LINE
8
BLACK
6
CONTINUOUS
10
7.4617
20
-5.72215
11
7.4617
21
-5.68841
0
LINE
8
BLACK
6
CONTINUOUS
10
7.4617
20
-5.68841
11
7.46732
21
-5.67716
0
LINE
8
BLACK
6
CONTINUOUS
10
7.46732
20
-5.67716
11
7.47295
21
-5.67154
0
LINE
8
BLACK
6
CONTINUOUS
10
7.47295
20
-5.67154
11
7.4842
21
-5.66591
0
LINE
8
BLACK
6
CONTINUOUS
10
7.4842
20
-5.66591
11
7.50107
21
-5.66591
0
LINE
8
BLACK
6
CONTINUOUS
10
7.50107
20
-5.66591
11
7.51232
21
-5.67154
0
LINE
8
BLACK
6
CONTINUOUS
10
7.51232
20
-5.67154
11
7.51794
21
-5.67716
0
LINE
8
BLACK
6
CONTINUOUS
10
7.51794
20
-5.67716
11
7.52357
21
-5.68841
0
LINE
8
BLACK
6
CONTINUOUS
10
7.52357
20
-5.68841
11
7.52357
21
-5.72215
0
LINE
8
BLACK
6
CONTINUOUS
10
7.52357
20
-5.72215
11
7.51794
21
-5.7334
0
LINE
8
BLACK
6
CONTINUOUS
10
7.51794
20
-5.7334
11
7.51232
21
-5.73903
0
LINE
8
BLACK
6
CONTINUOUS
10
7.51232
20
-5.73903
11
7.50107
21
-5.74465
0
LINE
8
BLACK
6
CONTINUOUS
10
7.50107
20
-5.74465
11
7.4842
21
-5.74465
0
LINE
8
BLACK
6
CONTINUOUS
10
7.55731
20
-5.66591
11
7.60231
21
-5.66591
0
LINE
8
BLACK
6
CONTINUOUS
10
7.57418
20
-5.62654
11
7.57418
21
-5.72778
0
LINE
8
BLACK
6
CONTINUOUS
10
7.57418
20
-5.72778
11
7.57981
21
-5.73903
0
LINE
8
BLACK
6
CONTINUOUS
10
7.57981
20
-5.73903
11
7.59106
21
-5.74465
0
LINE
8
BLACK
6
CONTINUOUS
10
7.59106
20
-5.74465
11
7.60231
21
-5.74465
0
LINE
8
BLACK
6
CONTINUOUS
10
7.73166
20
-5.66591
11
7.73166
21
-5.78402
0
LINE
8
BLACK
6
CONTINUOUS
10
7.73166
20
-5.67154
11
7.74291
21
-5.66591
0
LINE
8
BLACK
6
CONTINUOUS
10
7.74291
20
-5.66591
11
7.76541
21
-5.66591
0
LINE
8
BLACK
6
CONTINUOUS
10
7.76541
20
-5.66591
11
7.77666
21
-5.67154
0
LINE
8
BLACK
6
CONTINUOUS
10
7.77666
20
-5.67154
11
7.78228
21
-5.67716
0
LINE
8
BLACK
6
CONTINUOUS
10
7.78228
20
-5.67716
11
7.78791
21
-5.68841
0
LINE
8
BLACK
6
CONTINUOUS
10
7.78791
20
-5.68841
11
7.78791
21
-5.72215
0
LINE
8
BLACK
6
CONTINUOUS
10
7.78791
20
-5.72215
11
7.78228
21
-5.7334
0
LINE
8
BLACK
6
CONTINUOUS
10
7.78228
20
-5.7334
11
7.77666
21
-5.73903
0
LINE
8
BLACK
6
CONTINUOUS
10
7.77666
20
-5.73903
11
7.76541
21
-5.74465
0
LINE
8
BLACK
6
CONTINUOUS
10
7.76541
20
-5.74465
11
7.74291
21
-5.74465
0
LINE
8
BLACK
6
CONTINUOUS
10
7.74291
20
-5.74465
11
7.73166
21
-5.73903
0
LINE
8
BLACK
6
CONTINUOUS
10
7.8554
20
-5.74465
11
7.84415
21
-5.73903
0
LINE
8
BLACK
6
CONTINUOUS
10
7.84415
20
-5.73903
11
7.83853
21
-5.72778
0
LINE
8
BLACK
6
CONTINUOUS
10
7.83853
20
-5.72778
11
7.83853
21
-5.62654
0
LINE
8
BLACK
6
CONTINUOUS
10
7.95101
20
-5.74465
11
7.95101
21
-5.68278
0
LINE
8
BLACK
6
CONTINUOUS
10
7.95101
20
-5.68278
11
7.94539
21
-5.67154
0
LINE
8
BLACK
6
CONTINUOUS
10
7.94539
20
-5.67154
11
7.93414
21
-5.66591
0
LINE
8
BLACK
6
CONTINUOUS
10
7.93414
20
-5.66591
11
7.91164
21
-5.66591
0
LINE
8
BLACK
6
CONTINUOUS
10
7.91164
20
-5.66591
11
7.90039
21
-5.67154
0
LINE
8
BLACK
6
CONTINUOUS
10
7.95101
20
-5.73903
11
7.93976
21
-5.74465
0
LINE
8
BLACK
6
CONTINUOUS
10
7.93976
20
-5.74465
11
7.91164
21
-5.74465
0
LINE
8
BLACK
6
CONTINUOUS
10
7.91164
20
-5.74465
11
7.90039
21
-5.73903
0
LINE
8
BLACK
6
CONTINUOUS
10
7.90039
20
-5.73903
11
7.89477
21
-5.72778
0
LINE
8
BLACK
6
CONTINUOUS
10
7.89477
20
-5.72778
11
7.89477
21
-5.71653
0
LINE
8
BLACK
6
CONTINUOUS
10
7.89477
20
-5.71653
11
7.90039
21
-5.70528
0
LINE
8
BLACK
6
CONTINUOUS
10
7.90039
20
-5.70528
11
7.91164
21
-5.69966
0
LINE
8
BLACK
6
CONTINUOUS
10
7.91164
20
-5.69966
11
7.93976
21
-5.69966
0
LINE
8
BLACK
6
CONTINUOUS
10
7.93976
20
-5.69966
11
7.95101
21
-5.69403
0
LINE
8
BLACK
6
CONTINUOUS
10
7.99038
20
-5.66591
11
8.03538
21
-5.66591
0
LINE
8
BLACK
6
CONTINUOUS
10
8.00726
20
-5.62654
11
8.00726
21
-5.72778
0
LINE
8
BLACK
6
CONTINUOUS
10
8.00726
20
-5.72778
11
8.01288
21
-5.73903
0
LINE
8
BLACK
6
CONTINUOUS
10
8.01288
20
-5.73903
11
8.02413
21
-5.74465
0
LINE
8
BLACK
6
CONTINUOUS
10
8.02413
20
-5.74465
11
8.03538
21
-5.74465
0
LINE
8
BLACK
6
CONTINUOUS
10
8.11974
20
-5.73903
11
8.10849
21
-5.74465
0
LINE
8
BLACK
6
CONTINUOUS
10
8.10849
20
-5.74465
11
8.086
21
-5.74465
0
LINE
8
BLACK
6
CONTINUOUS
10
8.086
20
-5.74465
11
8.07475
21
-5.73903
0
LINE
8
BLACK
6
CONTINUOUS
10
8.07475
20
-5.73903
11
8.06912
21
-5.72778
0
LINE
8
BLACK
6
CONTINUOUS
10
8.06912
20
-5.72778
11
8.06912
21
-5.68278
0
LINE
8
BLACK
6
CONTINUOUS
10
8.06912
20
-5.68278
11
8.07475
21
-5.67154
0
LINE
8
BLACK
6
CONTINUOUS
10
8.07475
20
-5.67154
11
8.086
21
-5.66591
0
LINE
8
BLACK
6
CONTINUOUS
10
8.086
20
-5.66591
11
8.10849
21
-5.66591
0
LINE
8
BLACK
6
CONTINUOUS
10
8.10849
20
-5.66591
11
8.11974
21
-5.67154
0
LINE
8
BLACK
6
CONTINUOUS
10
8.11974
20
-5.67154
11
8.12537
21
-5.68278
0
LINE
8
BLACK
6
CONTINUOUS
10
8.12537
20
-5.68278
11
8.12537
21
-5.69403
0
LINE
8
BLACK
6
CONTINUOUS
10
8.12537
20
-5.69403
11
8.06912
21
-5.70528
0
LINE
8
BLACK
6
CONTINUOUS
10
8.2266
20
-5.74465
11
8.2266
21
-5.62654
0
LINE
8
BLACK
6
CONTINUOUS
10
8.2266
20
-5.73903
11
8.21535
21
-5.74465
0
LINE
8
BLACK
6
CONTINUOUS
10
8.21535
20
-5.74465
11
8.19286
21
-5.74465
0
LINE
8
BLACK
6
CONTINUOUS
10
8.19286
20
-5.74465
11
8.18161
21
-5.73903
0
LINE
8
BLACK
6
CONTINUOUS
10
8.18161
20
-5.73903
11
8.17598
21
-5.7334
0
LINE
8
BLACK
6
CONTINUOUS
10
8.17598
20
-5.7334
11
8.17036
21
-5.72215
0
LINE
8
BLACK
6
CONTINUOUS
10
8.17036
20
-5.72215
11
8.17036
21
-5.68841
0
LINE
8
BLACK
6
CONTINUOUS
10
8.17036
20
-5.68841
11
8.17598
21
-5.67716
0
LINE
8
BLACK
6
CONTINUOUS
10
8.17598
20
-5.67716
11
8.18161
21
-5.67154
0
LINE
8
BLACK
6
CONTINUOUS
10
8.18161
20
-5.67154
11
8.19286
21
-5.66591
0
LINE
8
BLACK
6
CONTINUOUS
10
8.19286
20
-5.66591
11
8.21535
21
-5.66591
0
LINE
8
BLACK
6
CONTINUOUS
10
8.21535
20
-5.66591
11
8.2266
21
-5.67154
0
LINE
8
BLACK
6
CONTINUOUS
10
8.2716
20
-5.78965
11
8.27722
21
-5.78402
0
LINE
8
BLACK
6
CONTINUOUS
10
8.27722
20
-5.78402
11
8.28847
21
-5.76715
0
LINE
8
BLACK
6
CONTINUOUS
10
8.28847
20
-5.76715
11
8.29409
21
-5.7559
0
LINE
8
BLACK
6
CONTINUOUS
10
8.29409
20
-5.7559
11
8.29972
21
-5.73903
0
LINE
8
BLACK
6
CONTINUOUS
10
8.29972
20
-5.73903
11
8.30534
21
-5.71091
0
LINE
8
BLACK
6
CONTINUOUS
10
8.30534
20
-5.71091
11
8.30534
21
-5.68841
0
LINE
8
BLACK
6
CONTINUOUS
10
8.30534
20
-5.68841
11
8.29972
21
-5.66029
0
LINE
8
BLACK
6
CONTINUOUS
10
8.29972
20
-5.66029
11
8.29409
21
-5.64341
0
LINE
8
BLACK
6
CONTINUOUS
10
8.29409
20
-5.64341
11
8.28847
21
-5.63217
0
LINE
8
BLACK
6
CONTINUOUS
10
8.28847
20
-5.63217
11
8.27722
21
-5.61529
0
LINE
8
BLACK
6
CONTINUOUS
10
8.27722
20
-5.61529
11
8.2716
21
-5.60967
  0
ENDSEC
  0
EOF
