M48
; DRILL file {KiCad 5.1.7-a382d34a8~87~ubuntu18.04.1} date Mon Jan 18 13:43:01 2021
; FORMAT={-:-/ absolute / inch / decimal}
; #@! TF.CreationDate,2021-01-18T13:43:01-05:00
; #@! TF.GenerationSoftware,Kicad,Pcbnew,5.1.7-a382d34a8~87~ubuntu18.04.1
; #@! TF.FileFunction,Plated,1,4,PTH
FMAT,2
INCH
T1C0.0157
T2C0.0197
T3C0.0217
T4C0.0256
T5C0.0295
T6C0.0315
T7C0.0354
T8C0.0394
T9C0.0630
T10C0.0669
T11C0.1260
%
G90
G05
T1
X4.937Y-3.4646
X4.971Y-3.1517
X4.9715Y-3.4303
X4.9843Y-3.0945
X5.0866Y-3.0157
X5.1654Y-3.0157
X5.1732Y-2.6063
X5.2047Y-3.2205
X5.2047Y-3.3031
X5.2425Y-1.9024
X5.3606Y-1.9969
X5.3685Y-1.6819
X5.4362Y-2.1244
X5.463Y-1.9102
X5.4646Y-1.1969
X5.4756Y-2.1244
X5.5024Y-1.9102
X5.5118Y-1.0157
X5.515Y-2.1244
X5.5181Y-1.7213
X5.5417Y-1.9102
X5.5543Y-2.1244
X5.5811Y-1.9102
X5.589Y-1.6898
X5.589Y-1.7291
X5.5937Y-2.1244
X5.6142Y-3.126
X5.7228Y-1.8079
X5.7717Y-3.1024
X5.7717Y-3.3071
X5.7717Y-3.3701
X5.8189Y-3.1181
X5.8268Y-3.2598
X5.8338Y-3.8697
X5.8346Y-3.063
X5.8488Y-1.6189
X5.8543Y-3.9843
X5.8646Y-1.6614
X5.8646Y-1.6976
X5.8677Y-3.7566
X5.937Y-2.1496
X5.9764Y-2.1496
X5.9764Y-3.4409
X5.9803Y-3.0197
X6.0157Y-2.1496
X6.043Y-4.1263
X6.0459Y-3.9913
X6.0472Y-3.1181
X6.0472Y-3.063
X6.0472Y-4.1732
X6.0516Y-3.7566
X6.0551Y-2.1496
X6.085Y-1.9181
X6.0945Y-2.1496
X6.0945Y-3.2598
X6.1024Y-2.5354
X6.1165Y-1.5323
X6.1181Y-1.4843
X6.1181Y-1.6102
X6.126Y-3.2205
X6.1654Y-2.5433
X6.1654Y-2.6929
X6.2047Y-3.3465
X6.2283Y-2.9213
X6.2283Y-2.8583
X6.2283Y-2.9843
X6.2386Y-1.6465
X6.3512Y-1.2409
X6.3921Y-1.8157
X6.4Y-1.4142
X6.4Y-1.4614
X6.4142Y-1.2409
X6.5669Y-3.0118
X6.6496Y-1.1772
X6.6811Y-3.3661
X6.6969Y-3.0236
X6.7126Y-2.9764
X6.7753Y-2.7717
X6.7913Y-2.3937
X6.815Y-1.3504
X6.8228Y-3.8819
X6.8394Y-0.7291
X6.8394Y-0.8157
X6.8394Y-0.9417
X6.8661Y-1.0866
X6.8972Y-3.6657
X6.9016Y-3.0157
X6.9064Y-2.9087
X6.9079Y-1.2588
X6.9094Y-2.8583
X6.9276Y-1.5717
X6.9291Y-2.6693
X6.9359Y-4.0011
X6.937Y-3.9567
X6.9622Y-3.86
X6.9646Y-3.9134
X6.9787Y-1.989
X6.9843Y-0.8464
X6.9882Y-1.5039
X7.0008Y-0.7144
X7.0126Y-0.3906
X7.0126Y-0.4378
X7.0126Y-0.5008
X7.0276Y-1.0236
X7.0394Y-1.2717
X7.0709Y-3.5669
X7.0709Y-3.6181
X7.0748Y-3.7677
X7.0759Y-3.7177
X7.0827Y-3.9685
X7.1071Y-1.0205
X7.1087Y-1.5362
X7.1339Y-3.8819
X7.1614Y-4.0118
X7.1693Y-3.8346
X7.1969Y-1.0197
X7.2504Y-1.985
X7.2567Y-0.8413
X7.2953Y-1.5039
X7.3039Y-0.8413
X7.3039Y-0.9004
X7.311Y-1.3386
X7.3307Y-0.7953
X7.337Y-1.8315
X7.374Y-0.6535
X7.4292Y-3.1378
X7.4292Y-3.1801
X7.4292Y-3.2223
X7.4906Y-1.6465
X7.4927Y-0.7249
X7.5102Y-1.9811
X7.5102Y-2.0717
X7.5354Y-1.1417
X7.5428Y-1.5863
X7.5433Y-1.5591
X7.5512Y-1.3228
X7.5512Y-1.3543
X7.5512Y-3.2717
X7.5591Y-1.7087
X7.5709Y-1.5591
X7.5709Y-1.5863
X7.5709Y-3.6657
X7.5709Y-3.6157
X7.5787Y-3.3425
X7.5787Y-3.378
X7.5866Y-1.3228
X7.5906Y-0.5394
X7.5945Y-3.248
X7.6426Y-3.2471
X7.6457Y-0.6811
X7.6457Y-0.9724
X7.6457Y-1.4016
X7.6457Y-1.4416
X7.6772Y-1.565
X7.6772Y-1.6043
X7.685Y-1.4022
X7.685Y-1.4416
X7.7047Y-3.9173
X7.7047Y-3.9646
X7.7047Y-4.0157
X7.7165Y-3.3425
X7.7165Y-3.378
X7.7165Y-3.4173
X7.7283Y-3.6378
X7.7323Y-1.5709
X7.7323Y-1.9169
X7.7333Y-0.499
X7.7386Y-1.6831
X7.7402Y-1.7638
X7.7415Y-0.5856
X7.748Y-1.2756
X7.748Y-1.315
X7.7508Y-0.6239
X7.7557Y-0.6629
X7.7677Y-3.0522
X7.7874Y-1.2756
X7.7874Y-1.3156
X7.7874Y-3.7244
X7.7874Y-3.7874
X7.7874Y-3.8268
X7.8583Y-0.5419
X7.8661Y-1.3268
X7.874Y-3.4094
X7.8976Y-4.0866
X7.9213Y-1.2598
X7.9363Y-0.5419
X7.9449Y-0.8976
X7.9449Y-4.4213
X7.9488Y-3.9843
X7.9488Y-4.0866
X8.0157Y-4.2126
X8.0669Y-3.0512
X8.0669Y-4.4291
X8.0709Y-3.8709
X8.0787Y-1.5669
X8.0787Y-1.6142
X8.0787Y-1.6614
X8.0787Y-1.7087
X8.0787Y-1.7559
X8.0787Y-1.811
X8.0787Y-4.1496
X8.0906Y-0.6102
X8.0945Y-2.9961
X8.0951Y-1.3116
X8.1024Y-0.7116
X8.1024Y-0.7559
X8.1142Y-0.8386
X8.122Y-4.2126
X8.126Y-1.2913
X8.1299Y-0.5315
X8.1347Y-2.9429
X8.1417Y-1.9291
X8.1496Y-3.8661
X8.1614Y-3.2047
X8.1791Y-0.5512
X8.1811Y-4.2126
X8.185Y-1.4606
X8.2087Y-3.8543
X8.2393Y-1.4575
X8.2402Y-1.2441
X8.248Y-0.7441
X8.2815Y-1.3523
X8.2835Y-1.4173
X8.2835Y-1.3819
X8.2874Y-1.9272
X8.2922Y-0.7449
X8.2953Y-0.7864
X8.2992Y-3.8307
X8.3031Y-3.6969
X8.3622Y-3.1417
X8.3622Y-3.5591
X8.3622Y-3.7126
X8.3622Y-3.748
X8.3622Y-3.7835
X8.3622Y-3.8189
X8.3622Y-3.9409
X8.3622Y-3.9764
X8.3622Y-4.0118
X8.3622Y-4.0472
X8.3937Y-1.9055
X8.3937Y-1.9606
X8.3937Y-1.6339
X8.3937Y-1.5276
X8.3976Y-3.7126
X8.3976Y-3.748
X8.3976Y-3.7835
X8.3976Y-3.8189
X8.4016Y-3.9409
X8.4016Y-3.9764
X8.4016Y-4.0118
X8.4016Y-4.0472
X8.4273Y-1.0333
X8.6772Y-3.8268
X8.7047Y-3.8898
T4
X4.9691Y-4.1842
X5.1106Y-4.0428
X5.1106Y-4.1842
T5
X8.5276Y-1.315
X8.5276Y-1.3937
T6
X4.6264Y-3.253
X4.6264Y-3.3317
X4.937Y-2.9423
X4.937Y-3.6423
X5.0157Y-2.9419
X5.0157Y-3.6423
T7
X6.1138Y-0.9047
X6.1638Y-1.0047
X6.2638Y-1.0047
X6.3138Y-0.9047
X6.3638Y-1.0047
X6.4138Y-0.9047
X6.4638Y-1.0047
X6.5138Y-0.9047
X6.5638Y-1.0047
X5.4764Y-4.0327
X5.5023Y-4.1293
T8
X6.5669Y-2.3937
X6.5669Y-2.5906
X5.2441Y-1.4961
X5.3441Y-1.4961
X7.7976Y-1.1575
X7.8976Y-1.1575
X6.0039Y-2.4063
X6.0039Y-2.5063
X6.0039Y-2.6063
X7.013Y-2.9237
X7.113Y-2.9237
X7.213Y-2.9237
X7.313Y-2.9237
X7.413Y-2.9237
X7.513Y-2.9237
X7.613Y-2.9237
X8.4827Y-1.5748
X8.4827Y-1.6748
X8.4827Y-1.7748
X8.4827Y-1.8748
X8.4827Y-1.9748
X8.4827Y-2.0748
X8.4827Y-2.1748
X8.4827Y-2.2748
X8.4827Y-2.3748
X8.4827Y-2.4748
X8.4827Y-2.5748
X8.4827Y-2.6748
X8.4827Y-2.7748
X8.4827Y-2.8748
X8.4827Y-2.9748
X8.4827Y-3.0748
X8.4827Y-3.1748
X8.4827Y-3.2748
X8.4827Y-3.3748
X8.4827Y-3.4748
X8.5827Y-1.5748
X8.5827Y-1.6748
X8.5827Y-1.7748
X8.5827Y-1.8748
X8.5827Y-1.9748
X8.5827Y-2.0748
X8.5827Y-2.1748
X8.5827Y-2.2748
X8.5827Y-2.3748
X8.5827Y-2.4748
X8.5827Y-2.5748
X8.5827Y-2.6748
X8.5827Y-2.7748
X8.5827Y-2.8748
X8.5827Y-2.9748
X8.5827Y-3.0748
X8.5827Y-3.1748
X8.5827Y-3.2748
X8.5827Y-3.3748
X8.5827Y-3.4748
X8.5512Y-0.6299
X8.5512Y-0.7299
X8.5512Y-0.8299
X8.5512Y-0.9299
X8.5512Y-1.0299
X8.5512Y-1.1299
X6.078Y-0.4949
X6.178Y-0.4949
X6.5Y-0.4949
X6.6Y-0.4949
X7.3961Y-1.926
X5.0189Y-0.9366
X5.0189Y-1.0366
X8.4016Y-0.6323
X8.4016Y-0.7323
T9
X5.5126Y-0.6469
X5.6976Y-0.5287
X5.6976Y-0.765
X5.0441Y-0.6465
X5.2291Y-0.5283
X5.2291Y-0.7646
T10
X6.0339Y-0.7748
X6.6441Y-0.7748
T11
X8.65Y-0.405
X8.65Y-4.355
X4.7Y-4.355
X4.7Y-0.405
T2
G00X7.8228Y-0.323
M15
G01X7.8228Y-0.2974
M16
G05
G00X8.0984Y-0.323
M15
G01X8.0984Y-0.2974
M16
G05
T3
G00X7.8681Y-0.4165
M15
G01X7.8563Y-0.4165
M16
G05
G00X8.065Y-0.4165
M15
G01X8.0531Y-0.4165
M16
G05
T0
M30
