G04 #@! TF.GenerationSoftware,KiCad,Pcbnew,5.1.7-a382d34a8~87~ubuntu18.04.1*
G04 #@! TF.CreationDate,2021-01-18T13:43:01-05:00*
G04 #@! TF.ProjectId,SD1,5344312e-6b69-4636-9164-5f7063625858,0*
G04 #@! TF.SameCoordinates,Original*
G04 #@! TF.FileFunction,Legend,Bot*
G04 #@! TF.FilePolarity,Positive*
%FSLAX46Y46*%
G04 Gerber Fmt 4.6, Leading zero omitted, Abs format (unit mm)*
G04 Created by KiCad (PCBNEW 5.1.7-a382d34a8~87~ubuntu18.04.1) date 2021-01-18 13:43:01*
%MOMM*%
%LPD*%
G01*
G04 APERTURE LIST*
%ADD10C,0.190500*%
%ADD11C,0.200000*%
%ADD12C,0.120000*%
%ADD13C,0.105000*%
G04 APERTURE END LIST*
D10*
X205586833Y-87927871D02*
X205883166Y-87504538D01*
X206094833Y-87927871D02*
X206094833Y-87038871D01*
X205756166Y-87038871D01*
X205671500Y-87081205D01*
X205629166Y-87123538D01*
X205586833Y-87208205D01*
X205586833Y-87335205D01*
X205629166Y-87419871D01*
X205671500Y-87462205D01*
X205756166Y-87504538D01*
X206094833Y-87504538D01*
X205332833Y-87038871D02*
X204824833Y-87038871D01*
X205078833Y-87927871D02*
X205078833Y-87038871D01*
X204570833Y-87885538D02*
X204443833Y-87927871D01*
X204232166Y-87927871D01*
X204147500Y-87885538D01*
X204105166Y-87843205D01*
X204062833Y-87758538D01*
X204062833Y-87673871D01*
X204105166Y-87589205D01*
X204147500Y-87546871D01*
X204232166Y-87504538D01*
X204401500Y-87462205D01*
X204486166Y-87419871D01*
X204528500Y-87377538D01*
X204570833Y-87292871D01*
X204570833Y-87208205D01*
X204528500Y-87123538D01*
X204486166Y-87081205D01*
X204401500Y-87038871D01*
X204189833Y-87038871D01*
X204062833Y-87081205D01*
X212727871Y-81301500D02*
X211838871Y-81301500D01*
X211838871Y-81513166D01*
X211881205Y-81640166D01*
X211965871Y-81724833D01*
X212050538Y-81767166D01*
X212219871Y-81809500D01*
X212346871Y-81809500D01*
X212516205Y-81767166D01*
X212600871Y-81724833D01*
X212685538Y-81640166D01*
X212727871Y-81513166D01*
X212727871Y-81301500D01*
X211838871Y-82359833D02*
X211838871Y-82529166D01*
X211881205Y-82613833D01*
X211965871Y-82698500D01*
X212135205Y-82740833D01*
X212431538Y-82740833D01*
X212600871Y-82698500D01*
X212685538Y-82613833D01*
X212727871Y-82529166D01*
X212727871Y-82359833D01*
X212685538Y-82275166D01*
X212600871Y-82190500D01*
X212431538Y-82148166D01*
X212135205Y-82148166D01*
X211965871Y-82190500D01*
X211881205Y-82275166D01*
X211838871Y-82359833D01*
X210127871Y-81830666D02*
X209704538Y-81534333D01*
X210127871Y-81322666D02*
X209238871Y-81322666D01*
X209238871Y-81661333D01*
X209281205Y-81746000D01*
X209323538Y-81788333D01*
X209408205Y-81830666D01*
X209535205Y-81830666D01*
X209619871Y-81788333D01*
X209662205Y-81746000D01*
X209704538Y-81661333D01*
X209704538Y-81322666D01*
X210127871Y-82211666D02*
X209238871Y-82211666D01*
X209238871Y-82423333D01*
X209281205Y-82550333D01*
X209365871Y-82635000D01*
X209450538Y-82677333D01*
X209619871Y-82719666D01*
X209746871Y-82719666D01*
X209916205Y-82677333D01*
X210000871Y-82635000D01*
X210085538Y-82550333D01*
X210127871Y-82423333D01*
X210127871Y-82211666D01*
D11*
X181347142Y-107357142D02*
X181132857Y-107428571D01*
X180775714Y-107428571D01*
X180632857Y-107357142D01*
X180561428Y-107285714D01*
X180490000Y-107142857D01*
X180490000Y-107000000D01*
X180561428Y-106857142D01*
X180632857Y-106785714D01*
X180775714Y-106714285D01*
X181061428Y-106642857D01*
X181204285Y-106571428D01*
X181275714Y-106500000D01*
X181347142Y-106357142D01*
X181347142Y-106214285D01*
X181275714Y-106071428D01*
X181204285Y-106000000D01*
X181061428Y-105928571D01*
X180704285Y-105928571D01*
X180490000Y-106000000D01*
X179918571Y-107000000D02*
X179204285Y-107000000D01*
X180061428Y-107428571D02*
X179561428Y-105928571D01*
X179061428Y-107428571D01*
X178561428Y-106642857D02*
X178061428Y-106642857D01*
X177847142Y-107428571D02*
X178561428Y-107428571D01*
X178561428Y-105928571D01*
X177847142Y-105928571D01*
X177204285Y-107428571D02*
X177204285Y-105928571D01*
X176704285Y-107000000D01*
X176204285Y-105928571D01*
X176204285Y-107428571D01*
X175561428Y-107357142D02*
X175347142Y-107428571D01*
X174990000Y-107428571D01*
X174847142Y-107357142D01*
X174775714Y-107285714D01*
X174704285Y-107142857D01*
X174704285Y-107000000D01*
X174775714Y-106857142D01*
X174847142Y-106785714D01*
X174990000Y-106714285D01*
X175275714Y-106642857D01*
X175418571Y-106571428D01*
X175490000Y-106500000D01*
X175561428Y-106357142D01*
X175561428Y-106214285D01*
X175490000Y-106071428D01*
X175418571Y-106000000D01*
X175275714Y-105928571D01*
X174918571Y-105928571D01*
X174704285Y-106000000D01*
X172918571Y-107428571D02*
X172918571Y-106428571D01*
X172918571Y-106714285D02*
X172847142Y-106571428D01*
X172775714Y-106500000D01*
X172632857Y-106428571D01*
X172490000Y-106428571D01*
X171704285Y-105928571D02*
X171561428Y-105928571D01*
X171418571Y-106000000D01*
X171347142Y-106071428D01*
X171275714Y-106214285D01*
X171204285Y-106500000D01*
X171204285Y-106857142D01*
X171275714Y-107142857D01*
X171347142Y-107285714D01*
X171418571Y-107357142D01*
X171561428Y-107428571D01*
X171704285Y-107428571D01*
X171847142Y-107357142D01*
X171918571Y-107285714D01*
X171990000Y-107142857D01*
X172061428Y-106857142D01*
X172061428Y-106500000D01*
X171990000Y-106214285D01*
X171918571Y-106071428D01*
X171847142Y-106000000D01*
X171704285Y-105928571D01*
X170490000Y-107357142D02*
X170490000Y-107428571D01*
X170561428Y-107571428D01*
X170632857Y-107642857D01*
X167918571Y-107428571D02*
X168775714Y-107428571D01*
X168347142Y-107428571D02*
X168347142Y-105928571D01*
X168490000Y-106142857D01*
X168632857Y-106285714D01*
X168775714Y-106357142D01*
X167347142Y-106071428D02*
X167275714Y-106000000D01*
X167132857Y-105928571D01*
X166775714Y-105928571D01*
X166632857Y-106000000D01*
X166561428Y-106071428D01*
X166490000Y-106214285D01*
X166490000Y-106357142D01*
X166561428Y-106571428D01*
X167418571Y-107428571D01*
X166490000Y-107428571D01*
X164775714Y-105857142D02*
X166061428Y-107785714D01*
X163490000Y-107428571D02*
X164347142Y-107428571D01*
X163918571Y-107428571D02*
X163918571Y-105928571D01*
X164061428Y-106142857D01*
X164204285Y-106285714D01*
X164347142Y-106357142D01*
X162204285Y-106428571D02*
X162204285Y-107428571D01*
X162561428Y-105857142D02*
X162918571Y-106928571D01*
X161990000Y-106928571D01*
X160347142Y-105857142D02*
X161632857Y-107785714D01*
X159918571Y-106071428D02*
X159847142Y-106000000D01*
X159704285Y-105928571D01*
X159347142Y-105928571D01*
X159204285Y-106000000D01*
X159132857Y-106071428D01*
X159061428Y-106214285D01*
X159061428Y-106357142D01*
X159132857Y-106571428D01*
X159990000Y-107428571D01*
X159061428Y-107428571D01*
X158132857Y-105928571D02*
X157990000Y-105928571D01*
X157847142Y-106000000D01*
X157775714Y-106071428D01*
X157704285Y-106214285D01*
X157632857Y-106500000D01*
X157632857Y-106857142D01*
X157704285Y-107142857D01*
X157775714Y-107285714D01*
X157847142Y-107357142D01*
X157990000Y-107428571D01*
X158132857Y-107428571D01*
X158275714Y-107357142D01*
X158347142Y-107285714D01*
X158418571Y-107142857D01*
X158490000Y-106857142D01*
X158490000Y-106500000D01*
X158418571Y-106214285D01*
X158347142Y-106071428D01*
X158275714Y-106000000D01*
X158132857Y-105928571D01*
X175990000Y-109735714D02*
X176061428Y-109807142D01*
X176275714Y-109878571D01*
X176418571Y-109878571D01*
X176632857Y-109807142D01*
X176775714Y-109664285D01*
X176847142Y-109521428D01*
X176918571Y-109235714D01*
X176918571Y-109021428D01*
X176847142Y-108735714D01*
X176775714Y-108592857D01*
X176632857Y-108450000D01*
X176418571Y-108378571D01*
X176275714Y-108378571D01*
X176061428Y-108450000D01*
X175990000Y-108521428D01*
X175132857Y-109878571D02*
X175275714Y-109807142D01*
X175347142Y-109664285D01*
X175347142Y-108378571D01*
X173918571Y-109878571D02*
X173918571Y-109092857D01*
X173990000Y-108950000D01*
X174132857Y-108878571D01*
X174418571Y-108878571D01*
X174561428Y-108950000D01*
X173918571Y-109807142D02*
X174061428Y-109878571D01*
X174418571Y-109878571D01*
X174561428Y-109807142D01*
X174632857Y-109664285D01*
X174632857Y-109521428D01*
X174561428Y-109378571D01*
X174418571Y-109307142D01*
X174061428Y-109307142D01*
X173918571Y-109235714D01*
X173347142Y-108878571D02*
X172990000Y-109878571D01*
X172632857Y-108878571D02*
X172990000Y-109878571D01*
X173132857Y-110235714D01*
X173204285Y-110307142D01*
X173347142Y-110378571D01*
X172275714Y-108878571D02*
X171704285Y-108878571D01*
X172061428Y-108378571D02*
X172061428Y-109664285D01*
X171990000Y-109807142D01*
X171847142Y-109878571D01*
X171704285Y-109878571D01*
X170990000Y-109878571D02*
X171132857Y-109807142D01*
X171204285Y-109735714D01*
X171275714Y-109592857D01*
X171275714Y-109164285D01*
X171204285Y-109021428D01*
X171132857Y-108950000D01*
X170990000Y-108878571D01*
X170775714Y-108878571D01*
X170632857Y-108950000D01*
X170561428Y-109021428D01*
X170490000Y-109164285D01*
X170490000Y-109592857D01*
X170561428Y-109735714D01*
X170632857Y-109807142D01*
X170775714Y-109878571D01*
X170990000Y-109878571D01*
X169847142Y-108878571D02*
X169847142Y-109878571D01*
X169847142Y-109021428D02*
X169775714Y-108950000D01*
X169632857Y-108878571D01*
X169418571Y-108878571D01*
X169275714Y-108950000D01*
X169204285Y-109092857D01*
X169204285Y-109878571D01*
X167490000Y-108378571D02*
X167132857Y-109878571D01*
X166847142Y-108807142D01*
X166561428Y-109878571D01*
X166204285Y-108378571D01*
X165632857Y-109878571D02*
X165632857Y-108378571D01*
X164990000Y-109878571D02*
X164990000Y-109092857D01*
X165061428Y-108950000D01*
X165204285Y-108878571D01*
X165418571Y-108878571D01*
X165561428Y-108950000D01*
X165632857Y-109021428D01*
X164275714Y-109878571D02*
X164275714Y-108878571D01*
X164275714Y-108378571D02*
X164347142Y-108450000D01*
X164275714Y-108521428D01*
X164204285Y-108450000D01*
X164275714Y-108378571D01*
X164275714Y-108521428D01*
X163775714Y-108878571D02*
X163204285Y-108878571D01*
X163561428Y-108378571D02*
X163561428Y-109664285D01*
X163490000Y-109807142D01*
X163347142Y-109878571D01*
X163204285Y-109878571D01*
X162132857Y-109807142D02*
X162275714Y-109878571D01*
X162561428Y-109878571D01*
X162704285Y-109807142D01*
X162775714Y-109664285D01*
X162775714Y-109092857D01*
X162704285Y-108950000D01*
X162561428Y-108878571D01*
X162275714Y-108878571D01*
X162132857Y-108950000D01*
X162061428Y-109092857D01*
X162061428Y-109235714D01*
X162775714Y-109378571D01*
X178275714Y-112328571D02*
X178275714Y-110828571D01*
X177918571Y-110828571D01*
X177704285Y-110900000D01*
X177561428Y-111042857D01*
X177490000Y-111185714D01*
X177418571Y-111471428D01*
X177418571Y-111685714D01*
X177490000Y-111971428D01*
X177561428Y-112114285D01*
X177704285Y-112257142D01*
X177918571Y-112328571D01*
X178275714Y-112328571D01*
X176132857Y-112328571D02*
X176132857Y-111542857D01*
X176204285Y-111400000D01*
X176347142Y-111328571D01*
X176632857Y-111328571D01*
X176775714Y-111400000D01*
X176132857Y-112257142D02*
X176275714Y-112328571D01*
X176632857Y-112328571D01*
X176775714Y-112257142D01*
X176847142Y-112114285D01*
X176847142Y-111971428D01*
X176775714Y-111828571D01*
X176632857Y-111757142D01*
X176275714Y-111757142D01*
X176132857Y-111685714D01*
X175418571Y-111328571D02*
X175418571Y-112328571D01*
X175418571Y-111471428D02*
X175347142Y-111400000D01*
X175204285Y-111328571D01*
X174990000Y-111328571D01*
X174847142Y-111400000D01*
X174775714Y-111542857D01*
X174775714Y-112328571D01*
X174061428Y-112328571D02*
X174061428Y-111328571D01*
X174061428Y-110828571D02*
X174132857Y-110900000D01*
X174061428Y-110971428D01*
X173990000Y-110900000D01*
X174061428Y-110828571D01*
X174061428Y-110971428D01*
X172775714Y-112257142D02*
X172918571Y-112328571D01*
X173204285Y-112328571D01*
X173347142Y-112257142D01*
X173418571Y-112114285D01*
X173418571Y-111542857D01*
X173347142Y-111400000D01*
X173204285Y-111328571D01*
X172918571Y-111328571D01*
X172775714Y-111400000D01*
X172704285Y-111542857D01*
X172704285Y-111685714D01*
X173418571Y-111828571D01*
X171847142Y-112328571D02*
X171990000Y-112257142D01*
X172061428Y-112114285D01*
X172061428Y-110828571D01*
X170132857Y-112328571D02*
X170132857Y-110828571D01*
X169632857Y-111900000D01*
X169132857Y-110828571D01*
X169132857Y-112328571D01*
X167775714Y-111328571D02*
X167775714Y-112328571D01*
X168418571Y-111328571D02*
X168418571Y-112114285D01*
X168347142Y-112257142D01*
X168204285Y-112328571D01*
X167990000Y-112328571D01*
X167847142Y-112257142D01*
X167775714Y-112185714D01*
X166847142Y-112328571D02*
X166990000Y-112257142D01*
X167061428Y-112114285D01*
X167061428Y-110828571D01*
X166418571Y-111328571D02*
X166061428Y-112328571D01*
X165704285Y-111328571D01*
X164490000Y-112328571D02*
X164490000Y-111542857D01*
X164561428Y-111400000D01*
X164704285Y-111328571D01*
X164990000Y-111328571D01*
X165132857Y-111400000D01*
X164490000Y-112257142D02*
X164632857Y-112328571D01*
X164990000Y-112328571D01*
X165132857Y-112257142D01*
X165204285Y-112114285D01*
X165204285Y-111971428D01*
X165132857Y-111828571D01*
X164990000Y-111757142D01*
X164632857Y-111757142D01*
X164490000Y-111685714D01*
X163775714Y-111328571D02*
X163775714Y-112328571D01*
X163775714Y-111471428D02*
X163704285Y-111400000D01*
X163561428Y-111328571D01*
X163347142Y-111328571D01*
X163204285Y-111400000D01*
X163132857Y-111542857D01*
X163132857Y-112328571D01*
X161847142Y-112257142D02*
X161990000Y-112328571D01*
X162275714Y-112328571D01*
X162418571Y-112257142D01*
X162490000Y-112114285D01*
X162490000Y-111542857D01*
X162418571Y-111400000D01*
X162275714Y-111328571D01*
X161990000Y-111328571D01*
X161847142Y-111400000D01*
X161775714Y-111542857D01*
X161775714Y-111685714D01*
X162490000Y-111828571D01*
X161275714Y-111328571D02*
X160918571Y-112328571D01*
X160561428Y-111328571D02*
X160918571Y-112328571D01*
X161061428Y-112685714D01*
X161132857Y-112757142D01*
X161275714Y-112828571D01*
D12*
G04 #@! TO.C,R323*
X148037258Y-38222500D02*
X147562742Y-38222500D01*
X148037258Y-37177500D02*
X147562742Y-37177500D01*
G04 #@! TO.C,JP802*
X204344400Y-37020800D02*
X204044400Y-36720800D01*
X204044400Y-37320800D02*
X204044400Y-36720800D01*
X204344400Y-37020800D02*
X204044400Y-37320800D01*
X204544400Y-37770800D02*
X206544400Y-37770800D01*
X204544400Y-33670800D02*
X204544400Y-37770800D01*
X206544400Y-33670800D02*
X204544400Y-33670800D01*
X206544400Y-37770800D02*
X206544400Y-33670800D01*
G04 #@! TO.C,R312*
X159720436Y-45280000D02*
X162774564Y-45280000D01*
X159720436Y-42560000D02*
X162774564Y-42560000D01*
G04 #@! TO.C,R109*
X168690000Y-63333563D02*
X168690000Y-63008005D01*
X169710000Y-63333563D02*
X169710000Y-63008005D01*
G04 #@! TO.C,JP102*
X211400000Y-78500000D02*
X211400000Y-79900000D01*
X212100000Y-80600000D02*
X212700000Y-80600000D01*
X213400000Y-79900000D02*
X213400000Y-78500000D01*
X212700000Y-77800000D02*
X212100000Y-77800000D01*
X212100000Y-77800000D02*
G75*
G03*
X211400000Y-78500000I0J-700000D01*
G01*
X213400000Y-78500000D02*
G75*
G03*
X212700000Y-77800000I-700000J0D01*
G01*
X212700000Y-80600000D02*
G75*
G03*
X213400000Y-79900000I0J700000D01*
G01*
X211400000Y-79900000D02*
G75*
G03*
X212100000Y-80600000I700000J0D01*
G01*
G04 #@! TO.C,JP101*
X208800000Y-78500000D02*
X208800000Y-79900000D01*
X209500000Y-80600000D02*
X210100000Y-80600000D01*
X210800000Y-79900000D02*
X210800000Y-78500000D01*
X210100000Y-77800000D02*
X209500000Y-77800000D01*
X209500000Y-77800000D02*
G75*
G03*
X208800000Y-78500000I0J-700000D01*
G01*
X210800000Y-78500000D02*
G75*
G03*
X210100000Y-77800000I-700000J0D01*
G01*
X210100000Y-80600000D02*
G75*
G03*
X210800000Y-79900000I0J700000D01*
G01*
X208800000Y-79900000D02*
G75*
G03*
X209500000Y-80600000I700000J0D01*
G01*
G04 #@! TO.C,C305*
X182725580Y-49450000D02*
X182444420Y-49450000D01*
X182725580Y-48430000D02*
X182444420Y-48430000D01*
G04 #@! TO.C,C307*
X146698748Y-42185000D02*
X147221252Y-42185000D01*
X146698748Y-43655000D02*
X147221252Y-43655000D01*
G04 #@! TO.C,C313*
X163021252Y-40585000D02*
X162498748Y-40585000D01*
X163021252Y-42055000D02*
X162498748Y-42055000D01*
G04 #@! TO.C,C314*
X183100580Y-42790000D02*
X182819420Y-42790000D01*
X183100580Y-43810000D02*
X182819420Y-43810000D01*
G04 #@! TO.C,C315*
X146619420Y-39010000D02*
X146900580Y-39010000D01*
X146619420Y-40030000D02*
X146900580Y-40030000D01*
G04 #@! TO.C,C316*
X183100580Y-44310000D02*
X182819420Y-44310000D01*
X183100580Y-45330000D02*
X182819420Y-45330000D01*
G04 #@! TO.C,C318*
X144659420Y-38210000D02*
X144940580Y-38210000D01*
X144659420Y-37190000D02*
X144940580Y-37190000D01*
G04 #@! TO.C,C102*
X216715580Y-37390000D02*
X216434420Y-37390000D01*
X216715580Y-38410000D02*
X216434420Y-38410000D01*
G04 #@! TO.C,D310*
X177400000Y-45900000D02*
X177400000Y-44970000D01*
X177400000Y-42740000D02*
X177400000Y-43670000D01*
X177400000Y-42740000D02*
X179560000Y-42740000D01*
X177400000Y-45900000D02*
X178860000Y-45900000D01*
G04 #@! TO.C,R301*
X135482500Y-45557258D02*
X135482500Y-45082742D01*
X134437500Y-45557258D02*
X134437500Y-45082742D01*
G04 #@! TO.C,R306*
X134447258Y-41642500D02*
X133972742Y-41642500D01*
X134447258Y-40597500D02*
X133972742Y-40597500D01*
G04 #@! TO.C,R307*
X134447258Y-42197500D02*
X133972742Y-42197500D01*
X134447258Y-43242500D02*
X133972742Y-43242500D01*
G04 #@! TO.C,R308*
X185782500Y-46082742D02*
X185782500Y-46557258D01*
X184737500Y-46082742D02*
X184737500Y-46557258D01*
G04 #@! TO.C,R311*
X146997258Y-44197500D02*
X146522742Y-44197500D01*
X146997258Y-45242500D02*
X146522742Y-45242500D01*
G04 #@! TO.C,R313*
X178617258Y-46397500D02*
X178142742Y-46397500D01*
X178617258Y-47442500D02*
X178142742Y-47442500D01*
G04 #@! TO.C,R314*
X178607500Y-41157258D02*
X178607500Y-40682742D01*
X179652500Y-41157258D02*
X179652500Y-40682742D01*
G04 #@! TO.C,R315*
X184737500Y-43082742D02*
X184737500Y-43557258D01*
X185782500Y-43082742D02*
X185782500Y-43557258D01*
G04 #@! TO.C,R316*
X146997258Y-41642500D02*
X146522742Y-41642500D01*
X146997258Y-40597500D02*
X146522742Y-40597500D01*
G04 #@! TO.C,R317*
X133882500Y-45082742D02*
X133882500Y-45557258D01*
X132837500Y-45082742D02*
X132837500Y-45557258D01*
G04 #@! TO.C,R319*
X180137500Y-44287258D02*
X180137500Y-43812742D01*
X181182500Y-44287258D02*
X181182500Y-43812742D01*
G04 #@! TO.C,R320*
X145037258Y-35647500D02*
X144562742Y-35647500D01*
X145037258Y-36692500D02*
X144562742Y-36692500D01*
G04 #@! TO.C,R324*
X185782500Y-40557258D02*
X185782500Y-40082742D01*
X184737500Y-40557258D02*
X184737500Y-40082742D01*
G04 #@! TO.C,C701*
X150218498Y-100292700D02*
X150019687Y-100093889D01*
X149497249Y-101013949D02*
X149298438Y-100815138D01*
G04 #@! TO.C,C702*
X152819944Y-97511649D02*
X152621133Y-97312838D01*
X153541193Y-96790400D02*
X153342382Y-96591589D01*
G04 #@! TO.C,U301*
X140760000Y-40510000D02*
X144360000Y-40510000D01*
X140760000Y-40510000D02*
X138560000Y-40510000D01*
X140760000Y-45730000D02*
X142960000Y-45730000D01*
X140760000Y-45730000D02*
X138560000Y-45730000D01*
G04 #@! TO.C,U302*
X183520000Y-39070000D02*
X182060000Y-39070000D01*
X183520000Y-42230000D02*
X181360000Y-42230000D01*
X183520000Y-42230000D02*
X183520000Y-41300000D01*
X183520000Y-39070000D02*
X183520000Y-40000000D01*
G04 #@! TO.C,U701*
X150059695Y-98432599D02*
X151049645Y-97442649D01*
X152690133Y-99083137D02*
X151346630Y-100426640D01*
G04 #@! TO.C,FB701*
X149602748Y-96575892D02*
X149372543Y-96806097D01*
X150323997Y-97297141D02*
X150093792Y-97527346D01*
G04 #@! TO.C,TP601*
X127300000Y-78600000D02*
G75*
G03*
X127300000Y-78600000I-700000J0D01*
G01*
G04 #@! TO.C,TP602*
X129900000Y-76600000D02*
G75*
G03*
X129900000Y-76600000I-700000J0D01*
G01*
G04 #@! TO.C,TP603*
X131900000Y-76600000D02*
G75*
G03*
X131900000Y-76600000I-700000J0D01*
G01*
G04 #@! TO.C,C811*
X213790000Y-34640580D02*
X213790000Y-34359420D01*
X214810000Y-34640580D02*
X214810000Y-34359420D01*
G04 #@! TO.C,JP103*
X209600000Y-87900000D02*
X209600000Y-87300000D01*
X207500000Y-88600000D02*
X208900000Y-88600000D01*
X206800000Y-87300000D02*
X206800000Y-87900000D01*
X208900000Y-86600000D02*
X207500000Y-86600000D01*
X207500000Y-86600000D02*
G75*
G03*
X206800000Y-87300000I0J-700000D01*
G01*
X206800000Y-87900000D02*
G75*
G03*
X207500000Y-88600000I700000J0D01*
G01*
X208900000Y-88600000D02*
G75*
G03*
X209600000Y-87900000I0J700000D01*
G01*
X209600000Y-87300000D02*
G75*
G03*
X208900000Y-86600000I-700000J0D01*
G01*
G04 #@! TO.C,R812*
X202937258Y-32177500D02*
X202462742Y-32177500D01*
X202937258Y-33222500D02*
X202462742Y-33222500D01*
G04 #@! TO.C,R813*
X199937258Y-33222500D02*
X199462742Y-33222500D01*
X199937258Y-32177500D02*
X199462742Y-32177500D01*
G04 #@! TO.C,C317*
X178010000Y-41040580D02*
X178010000Y-40759420D01*
X176990000Y-41040580D02*
X176990000Y-40759420D01*
G04 #@! TO.C,R302*
X179537258Y-48417500D02*
X179062742Y-48417500D01*
X179537258Y-49462500D02*
X179062742Y-49462500D01*
G04 #@! TO.C,R326*
X147562742Y-36692500D02*
X148037258Y-36692500D01*
X147562742Y-35647500D02*
X148037258Y-35647500D01*
G04 #@! TO.C,R323*
D13*
X148583333Y-35016666D02*
X148816666Y-34683333D01*
X148983333Y-35016666D02*
X148983333Y-34316666D01*
X148716666Y-34316666D01*
X148650000Y-34350000D01*
X148616666Y-34383333D01*
X148583333Y-34450000D01*
X148583333Y-34550000D01*
X148616666Y-34616666D01*
X148650000Y-34650000D01*
X148716666Y-34683333D01*
X148983333Y-34683333D01*
X148350000Y-34316666D02*
X147916666Y-34316666D01*
X148150000Y-34583333D01*
X148050000Y-34583333D01*
X147983333Y-34616666D01*
X147950000Y-34650000D01*
X147916666Y-34716666D01*
X147916666Y-34883333D01*
X147950000Y-34950000D01*
X147983333Y-34983333D01*
X148050000Y-35016666D01*
X148250000Y-35016666D01*
X148316666Y-34983333D01*
X148350000Y-34950000D01*
X147650000Y-34383333D02*
X147616666Y-34350000D01*
X147550000Y-34316666D01*
X147383333Y-34316666D01*
X147316666Y-34350000D01*
X147283333Y-34383333D01*
X147250000Y-34450000D01*
X147250000Y-34516666D01*
X147283333Y-34616666D01*
X147683333Y-35016666D01*
X147250000Y-35016666D01*
X147016666Y-34316666D02*
X146583333Y-34316666D01*
X146816666Y-34583333D01*
X146716666Y-34583333D01*
X146650000Y-34616666D01*
X146616666Y-34650000D01*
X146583333Y-34716666D01*
X146583333Y-34883333D01*
X146616666Y-34950000D01*
X146650000Y-34983333D01*
X146716666Y-35016666D01*
X146916666Y-35016666D01*
X146983333Y-34983333D01*
X147016666Y-34950000D01*
G04 #@! TO.C,JP802*
X206961066Y-34470800D02*
X207461066Y-34470800D01*
X207561066Y-34437466D01*
X207627733Y-34370800D01*
X207661066Y-34270800D01*
X207661066Y-34204133D01*
X207661066Y-34804133D02*
X206961066Y-34804133D01*
X206961066Y-35070800D01*
X206994400Y-35137466D01*
X207027733Y-35170800D01*
X207094400Y-35204133D01*
X207194400Y-35204133D01*
X207261066Y-35170800D01*
X207294400Y-35137466D01*
X207327733Y-35070800D01*
X207327733Y-34804133D01*
X207261066Y-35604133D02*
X207227733Y-35537466D01*
X207194400Y-35504133D01*
X207127733Y-35470800D01*
X207094400Y-35470800D01*
X207027733Y-35504133D01*
X206994400Y-35537466D01*
X206961066Y-35604133D01*
X206961066Y-35737466D01*
X206994400Y-35804133D01*
X207027733Y-35837466D01*
X207094400Y-35870800D01*
X207127733Y-35870800D01*
X207194400Y-35837466D01*
X207227733Y-35804133D01*
X207261066Y-35737466D01*
X207261066Y-35604133D01*
X207294400Y-35537466D01*
X207327733Y-35504133D01*
X207394400Y-35470800D01*
X207527733Y-35470800D01*
X207594400Y-35504133D01*
X207627733Y-35537466D01*
X207661066Y-35604133D01*
X207661066Y-35737466D01*
X207627733Y-35804133D01*
X207594400Y-35837466D01*
X207527733Y-35870800D01*
X207394400Y-35870800D01*
X207327733Y-35837466D01*
X207294400Y-35804133D01*
X207261066Y-35737466D01*
X206961066Y-36304133D02*
X206961066Y-36370800D01*
X206994400Y-36437466D01*
X207027733Y-36470800D01*
X207094400Y-36504133D01*
X207227733Y-36537466D01*
X207394400Y-36537466D01*
X207527733Y-36504133D01*
X207594400Y-36470800D01*
X207627733Y-36437466D01*
X207661066Y-36370800D01*
X207661066Y-36304133D01*
X207627733Y-36237466D01*
X207594400Y-36204133D01*
X207527733Y-36170800D01*
X207394400Y-36137466D01*
X207227733Y-36137466D01*
X207094400Y-36170800D01*
X207027733Y-36204133D01*
X206994400Y-36237466D01*
X206961066Y-36304133D01*
X207027733Y-36804133D02*
X206994400Y-36837466D01*
X206961066Y-36904133D01*
X206961066Y-37070800D01*
X206994400Y-37137466D01*
X207027733Y-37170800D01*
X207094400Y-37204133D01*
X207161066Y-37204133D01*
X207261066Y-37170800D01*
X207661066Y-36770800D01*
X207661066Y-37204133D01*
G04 #@! TO.C,R312*
X162030833Y-46544666D02*
X162264166Y-46211333D01*
X162430833Y-46544666D02*
X162430833Y-45844666D01*
X162164166Y-45844666D01*
X162097500Y-45878000D01*
X162064166Y-45911333D01*
X162030833Y-45978000D01*
X162030833Y-46078000D01*
X162064166Y-46144666D01*
X162097500Y-46178000D01*
X162164166Y-46211333D01*
X162430833Y-46211333D01*
X161797500Y-45844666D02*
X161364166Y-45844666D01*
X161597500Y-46111333D01*
X161497500Y-46111333D01*
X161430833Y-46144666D01*
X161397500Y-46178000D01*
X161364166Y-46244666D01*
X161364166Y-46411333D01*
X161397500Y-46478000D01*
X161430833Y-46511333D01*
X161497500Y-46544666D01*
X161697500Y-46544666D01*
X161764166Y-46511333D01*
X161797500Y-46478000D01*
X160697500Y-46544666D02*
X161097500Y-46544666D01*
X160897500Y-46544666D02*
X160897500Y-45844666D01*
X160964166Y-45944666D01*
X161030833Y-46011333D01*
X161097500Y-46044666D01*
X160430833Y-45911333D02*
X160397500Y-45878000D01*
X160330833Y-45844666D01*
X160164166Y-45844666D01*
X160097500Y-45878000D01*
X160064166Y-45911333D01*
X160030833Y-45978000D01*
X160030833Y-46044666D01*
X160064166Y-46144666D01*
X160464166Y-46544666D01*
X160030833Y-46544666D01*
G04 #@! TO.C,R109*
X170946666Y-62387450D02*
X170613333Y-62154117D01*
X170946666Y-61987450D02*
X170246666Y-61987450D01*
X170246666Y-62254117D01*
X170280000Y-62320784D01*
X170313333Y-62354117D01*
X170380000Y-62387450D01*
X170480000Y-62387450D01*
X170546666Y-62354117D01*
X170580000Y-62320784D01*
X170613333Y-62254117D01*
X170613333Y-61987450D01*
X170946666Y-63054117D02*
X170946666Y-62654117D01*
X170946666Y-62854117D02*
X170246666Y-62854117D01*
X170346666Y-62787450D01*
X170413333Y-62720784D01*
X170446666Y-62654117D01*
X170246666Y-63487450D02*
X170246666Y-63554117D01*
X170280000Y-63620784D01*
X170313333Y-63654117D01*
X170380000Y-63687450D01*
X170513333Y-63720784D01*
X170680000Y-63720784D01*
X170813333Y-63687450D01*
X170880000Y-63654117D01*
X170913333Y-63620784D01*
X170946666Y-63554117D01*
X170946666Y-63487450D01*
X170913333Y-63420784D01*
X170880000Y-63387450D01*
X170813333Y-63354117D01*
X170680000Y-63320784D01*
X170513333Y-63320784D01*
X170380000Y-63354117D01*
X170313333Y-63387450D01*
X170280000Y-63420784D01*
X170246666Y-63487450D01*
X170946666Y-64054117D02*
X170946666Y-64187450D01*
X170913333Y-64254117D01*
X170880000Y-64287450D01*
X170780000Y-64354117D01*
X170646666Y-64387450D01*
X170380000Y-64387450D01*
X170313333Y-64354117D01*
X170280000Y-64320784D01*
X170246666Y-64254117D01*
X170246666Y-64120784D01*
X170280000Y-64054117D01*
X170313333Y-64020784D01*
X170380000Y-63987450D01*
X170546666Y-63987450D01*
X170613333Y-64020784D01*
X170646666Y-64054117D01*
X170680000Y-64120784D01*
X170680000Y-64254117D01*
X170646666Y-64320784D01*
X170613333Y-64354117D01*
X170546666Y-64387450D01*
G04 #@! TO.C,JP102*
X212016666Y-74550000D02*
X212516666Y-74550000D01*
X212616666Y-74516666D01*
X212683333Y-74450000D01*
X212716666Y-74350000D01*
X212716666Y-74283333D01*
X212716666Y-74883333D02*
X212016666Y-74883333D01*
X212016666Y-75150000D01*
X212050000Y-75216666D01*
X212083333Y-75250000D01*
X212150000Y-75283333D01*
X212250000Y-75283333D01*
X212316666Y-75250000D01*
X212350000Y-75216666D01*
X212383333Y-75150000D01*
X212383333Y-74883333D01*
X212716666Y-75950000D02*
X212716666Y-75550000D01*
X212716666Y-75750000D02*
X212016666Y-75750000D01*
X212116666Y-75683333D01*
X212183333Y-75616666D01*
X212216666Y-75550000D01*
X212016666Y-76383333D02*
X212016666Y-76450000D01*
X212050000Y-76516666D01*
X212083333Y-76550000D01*
X212150000Y-76583333D01*
X212283333Y-76616666D01*
X212450000Y-76616666D01*
X212583333Y-76583333D01*
X212650000Y-76550000D01*
X212683333Y-76516666D01*
X212716666Y-76450000D01*
X212716666Y-76383333D01*
X212683333Y-76316666D01*
X212650000Y-76283333D01*
X212583333Y-76250000D01*
X212450000Y-76216666D01*
X212283333Y-76216666D01*
X212150000Y-76250000D01*
X212083333Y-76283333D01*
X212050000Y-76316666D01*
X212016666Y-76383333D01*
X212083333Y-76883333D02*
X212050000Y-76916666D01*
X212016666Y-76983333D01*
X212016666Y-77150000D01*
X212050000Y-77216666D01*
X212083333Y-77250000D01*
X212150000Y-77283333D01*
X212216666Y-77283333D01*
X212316666Y-77250000D01*
X212716666Y-76850000D01*
X212716666Y-77283333D01*
G04 #@! TO.C,JP101*
X209416666Y-74550000D02*
X209916666Y-74550000D01*
X210016666Y-74516666D01*
X210083333Y-74450000D01*
X210116666Y-74350000D01*
X210116666Y-74283333D01*
X210116666Y-74883333D02*
X209416666Y-74883333D01*
X209416666Y-75150000D01*
X209450000Y-75216666D01*
X209483333Y-75250000D01*
X209550000Y-75283333D01*
X209650000Y-75283333D01*
X209716666Y-75250000D01*
X209750000Y-75216666D01*
X209783333Y-75150000D01*
X209783333Y-74883333D01*
X210116666Y-75950000D02*
X210116666Y-75550000D01*
X210116666Y-75750000D02*
X209416666Y-75750000D01*
X209516666Y-75683333D01*
X209583333Y-75616666D01*
X209616666Y-75550000D01*
X209416666Y-76383333D02*
X209416666Y-76450000D01*
X209450000Y-76516666D01*
X209483333Y-76550000D01*
X209550000Y-76583333D01*
X209683333Y-76616666D01*
X209850000Y-76616666D01*
X209983333Y-76583333D01*
X210050000Y-76550000D01*
X210083333Y-76516666D01*
X210116666Y-76450000D01*
X210116666Y-76383333D01*
X210083333Y-76316666D01*
X210050000Y-76283333D01*
X209983333Y-76250000D01*
X209850000Y-76216666D01*
X209683333Y-76216666D01*
X209550000Y-76250000D01*
X209483333Y-76283333D01*
X209450000Y-76316666D01*
X209416666Y-76383333D01*
X210116666Y-77283333D02*
X210116666Y-76883333D01*
X210116666Y-77083333D02*
X209416666Y-77083333D01*
X209516666Y-77016666D01*
X209583333Y-76950000D01*
X209616666Y-76883333D01*
G04 #@! TO.C,C305*
X183368333Y-50546800D02*
X183401666Y-50580133D01*
X183501666Y-50613466D01*
X183568333Y-50613466D01*
X183668333Y-50580133D01*
X183735000Y-50513466D01*
X183768333Y-50446800D01*
X183801666Y-50313466D01*
X183801666Y-50213466D01*
X183768333Y-50080133D01*
X183735000Y-50013466D01*
X183668333Y-49946800D01*
X183568333Y-49913466D01*
X183501666Y-49913466D01*
X183401666Y-49946800D01*
X183368333Y-49980133D01*
X183135000Y-49913466D02*
X182701666Y-49913466D01*
X182935000Y-50180133D01*
X182835000Y-50180133D01*
X182768333Y-50213466D01*
X182735000Y-50246800D01*
X182701666Y-50313466D01*
X182701666Y-50480133D01*
X182735000Y-50546800D01*
X182768333Y-50580133D01*
X182835000Y-50613466D01*
X183035000Y-50613466D01*
X183101666Y-50580133D01*
X183135000Y-50546800D01*
X182268333Y-49913466D02*
X182201666Y-49913466D01*
X182135000Y-49946800D01*
X182101666Y-49980133D01*
X182068333Y-50046800D01*
X182035000Y-50180133D01*
X182035000Y-50346800D01*
X182068333Y-50480133D01*
X182101666Y-50546800D01*
X182135000Y-50580133D01*
X182201666Y-50613466D01*
X182268333Y-50613466D01*
X182335000Y-50580133D01*
X182368333Y-50546800D01*
X182401666Y-50480133D01*
X182435000Y-50346800D01*
X182435000Y-50180133D01*
X182401666Y-50046800D01*
X182368333Y-49980133D01*
X182335000Y-49946800D01*
X182268333Y-49913466D01*
X181401666Y-49913466D02*
X181735000Y-49913466D01*
X181768333Y-50246800D01*
X181735000Y-50213466D01*
X181668333Y-50180133D01*
X181501666Y-50180133D01*
X181435000Y-50213466D01*
X181401666Y-50246800D01*
X181368333Y-50313466D01*
X181368333Y-50480133D01*
X181401666Y-50546800D01*
X181435000Y-50580133D01*
X181501666Y-50613466D01*
X181668333Y-50613466D01*
X181735000Y-50580133D01*
X181768333Y-50546800D01*
G04 #@! TO.C,C307*
X151183333Y-43170000D02*
X151216666Y-43203333D01*
X151316666Y-43236666D01*
X151383333Y-43236666D01*
X151483333Y-43203333D01*
X151550000Y-43136666D01*
X151583333Y-43070000D01*
X151616666Y-42936666D01*
X151616666Y-42836666D01*
X151583333Y-42703333D01*
X151550000Y-42636666D01*
X151483333Y-42570000D01*
X151383333Y-42536666D01*
X151316666Y-42536666D01*
X151216666Y-42570000D01*
X151183333Y-42603333D01*
X150950000Y-42536666D02*
X150516666Y-42536666D01*
X150750000Y-42803333D01*
X150650000Y-42803333D01*
X150583333Y-42836666D01*
X150550000Y-42870000D01*
X150516666Y-42936666D01*
X150516666Y-43103333D01*
X150550000Y-43170000D01*
X150583333Y-43203333D01*
X150650000Y-43236666D01*
X150850000Y-43236666D01*
X150916666Y-43203333D01*
X150950000Y-43170000D01*
X150083333Y-42536666D02*
X150016666Y-42536666D01*
X149950000Y-42570000D01*
X149916666Y-42603333D01*
X149883333Y-42670000D01*
X149850000Y-42803333D01*
X149850000Y-42970000D01*
X149883333Y-43103333D01*
X149916666Y-43170000D01*
X149950000Y-43203333D01*
X150016666Y-43236666D01*
X150083333Y-43236666D01*
X150150000Y-43203333D01*
X150183333Y-43170000D01*
X150216666Y-43103333D01*
X150250000Y-42970000D01*
X150250000Y-42803333D01*
X150216666Y-42670000D01*
X150183333Y-42603333D01*
X150150000Y-42570000D01*
X150083333Y-42536666D01*
X149616666Y-42536666D02*
X149150000Y-42536666D01*
X149450000Y-43236666D01*
G04 #@! TO.C,C313*
X159983333Y-41570000D02*
X160016666Y-41603333D01*
X160116666Y-41636666D01*
X160183333Y-41636666D01*
X160283333Y-41603333D01*
X160350000Y-41536666D01*
X160383333Y-41470000D01*
X160416666Y-41336666D01*
X160416666Y-41236666D01*
X160383333Y-41103333D01*
X160350000Y-41036666D01*
X160283333Y-40970000D01*
X160183333Y-40936666D01*
X160116666Y-40936666D01*
X160016666Y-40970000D01*
X159983333Y-41003333D01*
X159750000Y-40936666D02*
X159316666Y-40936666D01*
X159550000Y-41203333D01*
X159450000Y-41203333D01*
X159383333Y-41236666D01*
X159350000Y-41270000D01*
X159316666Y-41336666D01*
X159316666Y-41503333D01*
X159350000Y-41570000D01*
X159383333Y-41603333D01*
X159450000Y-41636666D01*
X159650000Y-41636666D01*
X159716666Y-41603333D01*
X159750000Y-41570000D01*
X158650000Y-41636666D02*
X159050000Y-41636666D01*
X158850000Y-41636666D02*
X158850000Y-40936666D01*
X158916666Y-41036666D01*
X158983333Y-41103333D01*
X159050000Y-41136666D01*
X158416666Y-40936666D02*
X157983333Y-40936666D01*
X158216666Y-41203333D01*
X158116666Y-41203333D01*
X158050000Y-41236666D01*
X158016666Y-41270000D01*
X157983333Y-41336666D01*
X157983333Y-41503333D01*
X158016666Y-41570000D01*
X158050000Y-41603333D01*
X158116666Y-41636666D01*
X158316666Y-41636666D01*
X158383333Y-41603333D01*
X158416666Y-41570000D01*
G04 #@! TO.C,C314*
X189883333Y-43550000D02*
X189916666Y-43583333D01*
X190016666Y-43616666D01*
X190083333Y-43616666D01*
X190183333Y-43583333D01*
X190250000Y-43516666D01*
X190283333Y-43450000D01*
X190316666Y-43316666D01*
X190316666Y-43216666D01*
X190283333Y-43083333D01*
X190250000Y-43016666D01*
X190183333Y-42950000D01*
X190083333Y-42916666D01*
X190016666Y-42916666D01*
X189916666Y-42950000D01*
X189883333Y-42983333D01*
X189650000Y-42916666D02*
X189216666Y-42916666D01*
X189450000Y-43183333D01*
X189350000Y-43183333D01*
X189283333Y-43216666D01*
X189250000Y-43250000D01*
X189216666Y-43316666D01*
X189216666Y-43483333D01*
X189250000Y-43550000D01*
X189283333Y-43583333D01*
X189350000Y-43616666D01*
X189550000Y-43616666D01*
X189616666Y-43583333D01*
X189650000Y-43550000D01*
X188550000Y-43616666D02*
X188950000Y-43616666D01*
X188750000Y-43616666D02*
X188750000Y-42916666D01*
X188816666Y-43016666D01*
X188883333Y-43083333D01*
X188950000Y-43116666D01*
X187950000Y-43150000D02*
X187950000Y-43616666D01*
X188116666Y-42883333D02*
X188283333Y-43383333D01*
X187850000Y-43383333D01*
G04 #@! TO.C,C315*
X151183333Y-39770000D02*
X151216666Y-39803333D01*
X151316666Y-39836666D01*
X151383333Y-39836666D01*
X151483333Y-39803333D01*
X151550000Y-39736666D01*
X151583333Y-39670000D01*
X151616666Y-39536666D01*
X151616666Y-39436666D01*
X151583333Y-39303333D01*
X151550000Y-39236666D01*
X151483333Y-39170000D01*
X151383333Y-39136666D01*
X151316666Y-39136666D01*
X151216666Y-39170000D01*
X151183333Y-39203333D01*
X150950000Y-39136666D02*
X150516666Y-39136666D01*
X150750000Y-39403333D01*
X150650000Y-39403333D01*
X150583333Y-39436666D01*
X150550000Y-39470000D01*
X150516666Y-39536666D01*
X150516666Y-39703333D01*
X150550000Y-39770000D01*
X150583333Y-39803333D01*
X150650000Y-39836666D01*
X150850000Y-39836666D01*
X150916666Y-39803333D01*
X150950000Y-39770000D01*
X149850000Y-39836666D02*
X150250000Y-39836666D01*
X150050000Y-39836666D02*
X150050000Y-39136666D01*
X150116666Y-39236666D01*
X150183333Y-39303333D01*
X150250000Y-39336666D01*
X149216666Y-39136666D02*
X149550000Y-39136666D01*
X149583333Y-39470000D01*
X149550000Y-39436666D01*
X149483333Y-39403333D01*
X149316666Y-39403333D01*
X149250000Y-39436666D01*
X149216666Y-39470000D01*
X149183333Y-39536666D01*
X149183333Y-39703333D01*
X149216666Y-39770000D01*
X149250000Y-39803333D01*
X149316666Y-39836666D01*
X149483333Y-39836666D01*
X149550000Y-39803333D01*
X149583333Y-39770000D01*
G04 #@! TO.C,C316*
X189883333Y-45070000D02*
X189916666Y-45103333D01*
X190016666Y-45136666D01*
X190083333Y-45136666D01*
X190183333Y-45103333D01*
X190250000Y-45036666D01*
X190283333Y-44970000D01*
X190316666Y-44836666D01*
X190316666Y-44736666D01*
X190283333Y-44603333D01*
X190250000Y-44536666D01*
X190183333Y-44470000D01*
X190083333Y-44436666D01*
X190016666Y-44436666D01*
X189916666Y-44470000D01*
X189883333Y-44503333D01*
X189650000Y-44436666D02*
X189216666Y-44436666D01*
X189450000Y-44703333D01*
X189350000Y-44703333D01*
X189283333Y-44736666D01*
X189250000Y-44770000D01*
X189216666Y-44836666D01*
X189216666Y-45003333D01*
X189250000Y-45070000D01*
X189283333Y-45103333D01*
X189350000Y-45136666D01*
X189550000Y-45136666D01*
X189616666Y-45103333D01*
X189650000Y-45070000D01*
X188550000Y-45136666D02*
X188950000Y-45136666D01*
X188750000Y-45136666D02*
X188750000Y-44436666D01*
X188816666Y-44536666D01*
X188883333Y-44603333D01*
X188950000Y-44636666D01*
X187950000Y-44436666D02*
X188083333Y-44436666D01*
X188150000Y-44470000D01*
X188183333Y-44503333D01*
X188250000Y-44603333D01*
X188283333Y-44736666D01*
X188283333Y-45003333D01*
X188250000Y-45070000D01*
X188216666Y-45103333D01*
X188150000Y-45136666D01*
X188016666Y-45136666D01*
X187950000Y-45103333D01*
X187916666Y-45070000D01*
X187883333Y-45003333D01*
X187883333Y-44836666D01*
X187916666Y-44770000D01*
X187950000Y-44736666D01*
X188016666Y-44703333D01*
X188150000Y-44703333D01*
X188216666Y-44736666D01*
X188250000Y-44770000D01*
X188283333Y-44836666D01*
G04 #@! TO.C,C318*
X145598533Y-34950000D02*
X145631866Y-34983333D01*
X145731866Y-35016666D01*
X145798533Y-35016666D01*
X145898533Y-34983333D01*
X145965200Y-34916666D01*
X145998533Y-34850000D01*
X146031866Y-34716666D01*
X146031866Y-34616666D01*
X145998533Y-34483333D01*
X145965200Y-34416666D01*
X145898533Y-34350000D01*
X145798533Y-34316666D01*
X145731866Y-34316666D01*
X145631866Y-34350000D01*
X145598533Y-34383333D01*
X145365200Y-34316666D02*
X144931866Y-34316666D01*
X145165200Y-34583333D01*
X145065200Y-34583333D01*
X144998533Y-34616666D01*
X144965200Y-34650000D01*
X144931866Y-34716666D01*
X144931866Y-34883333D01*
X144965200Y-34950000D01*
X144998533Y-34983333D01*
X145065200Y-35016666D01*
X145265200Y-35016666D01*
X145331866Y-34983333D01*
X145365200Y-34950000D01*
X144265200Y-35016666D02*
X144665200Y-35016666D01*
X144465200Y-35016666D02*
X144465200Y-34316666D01*
X144531866Y-34416666D01*
X144598533Y-34483333D01*
X144665200Y-34516666D01*
X143865200Y-34616666D02*
X143931866Y-34583333D01*
X143965200Y-34550000D01*
X143998533Y-34483333D01*
X143998533Y-34450000D01*
X143965200Y-34383333D01*
X143931866Y-34350000D01*
X143865200Y-34316666D01*
X143731866Y-34316666D01*
X143665200Y-34350000D01*
X143631866Y-34383333D01*
X143598533Y-34450000D01*
X143598533Y-34483333D01*
X143631866Y-34550000D01*
X143665200Y-34583333D01*
X143731866Y-34616666D01*
X143865200Y-34616666D01*
X143931866Y-34650000D01*
X143965200Y-34683333D01*
X143998533Y-34750000D01*
X143998533Y-34883333D01*
X143965200Y-34950000D01*
X143931866Y-34983333D01*
X143865200Y-35016666D01*
X143731866Y-35016666D01*
X143665200Y-34983333D01*
X143631866Y-34950000D01*
X143598533Y-34883333D01*
X143598533Y-34750000D01*
X143631866Y-34683333D01*
X143665200Y-34650000D01*
X143731866Y-34616666D01*
G04 #@! TO.C,C102*
X217358333Y-36950000D02*
X217391666Y-36983333D01*
X217491666Y-37016666D01*
X217558333Y-37016666D01*
X217658333Y-36983333D01*
X217725000Y-36916666D01*
X217758333Y-36850000D01*
X217791666Y-36716666D01*
X217791666Y-36616666D01*
X217758333Y-36483333D01*
X217725000Y-36416666D01*
X217658333Y-36350000D01*
X217558333Y-36316666D01*
X217491666Y-36316666D01*
X217391666Y-36350000D01*
X217358333Y-36383333D01*
X216691666Y-37016666D02*
X217091666Y-37016666D01*
X216891666Y-37016666D02*
X216891666Y-36316666D01*
X216958333Y-36416666D01*
X217025000Y-36483333D01*
X217091666Y-36516666D01*
X216258333Y-36316666D02*
X216191666Y-36316666D01*
X216125000Y-36350000D01*
X216091666Y-36383333D01*
X216058333Y-36450000D01*
X216025000Y-36583333D01*
X216025000Y-36750000D01*
X216058333Y-36883333D01*
X216091666Y-36950000D01*
X216125000Y-36983333D01*
X216191666Y-37016666D01*
X216258333Y-37016666D01*
X216325000Y-36983333D01*
X216358333Y-36950000D01*
X216391666Y-36883333D01*
X216425000Y-36750000D01*
X216425000Y-36583333D01*
X216391666Y-36450000D01*
X216358333Y-36383333D01*
X216325000Y-36350000D01*
X216258333Y-36316666D01*
X215758333Y-36383333D02*
X215725000Y-36350000D01*
X215658333Y-36316666D01*
X215491666Y-36316666D01*
X215425000Y-36350000D01*
X215391666Y-36383333D01*
X215358333Y-36450000D01*
X215358333Y-36516666D01*
X215391666Y-36616666D01*
X215791666Y-37016666D01*
X215358333Y-37016666D01*
G04 #@! TO.C,D310*
X176116666Y-43136666D02*
X175416666Y-43136666D01*
X175416666Y-43303333D01*
X175450000Y-43403333D01*
X175516666Y-43470000D01*
X175583333Y-43503333D01*
X175716666Y-43536666D01*
X175816666Y-43536666D01*
X175950000Y-43503333D01*
X176016666Y-43470000D01*
X176083333Y-43403333D01*
X176116666Y-43303333D01*
X176116666Y-43136666D01*
X175416666Y-43770000D02*
X175416666Y-44203333D01*
X175683333Y-43970000D01*
X175683333Y-44070000D01*
X175716666Y-44136666D01*
X175750000Y-44170000D01*
X175816666Y-44203333D01*
X175983333Y-44203333D01*
X176050000Y-44170000D01*
X176083333Y-44136666D01*
X176116666Y-44070000D01*
X176116666Y-43870000D01*
X176083333Y-43803333D01*
X176050000Y-43770000D01*
X176116666Y-44870000D02*
X176116666Y-44470000D01*
X176116666Y-44670000D02*
X175416666Y-44670000D01*
X175516666Y-44603333D01*
X175583333Y-44536666D01*
X175616666Y-44470000D01*
X175416666Y-45303333D02*
X175416666Y-45370000D01*
X175450000Y-45436666D01*
X175483333Y-45470000D01*
X175550000Y-45503333D01*
X175683333Y-45536666D01*
X175850000Y-45536666D01*
X175983333Y-45503333D01*
X176050000Y-45470000D01*
X176083333Y-45436666D01*
X176116666Y-45370000D01*
X176116666Y-45303333D01*
X176083333Y-45236666D01*
X176050000Y-45203333D01*
X175983333Y-45170000D01*
X175850000Y-45136666D01*
X175683333Y-45136666D01*
X175550000Y-45170000D01*
X175483333Y-45203333D01*
X175450000Y-45236666D01*
X175416666Y-45303333D01*
G04 #@! TO.C,R301*
X135276666Y-47616666D02*
X134943333Y-47383333D01*
X135276666Y-47216666D02*
X134576666Y-47216666D01*
X134576666Y-47483333D01*
X134610000Y-47550000D01*
X134643333Y-47583333D01*
X134710000Y-47616666D01*
X134810000Y-47616666D01*
X134876666Y-47583333D01*
X134910000Y-47550000D01*
X134943333Y-47483333D01*
X134943333Y-47216666D01*
X134576666Y-47850000D02*
X134576666Y-48283333D01*
X134843333Y-48050000D01*
X134843333Y-48150000D01*
X134876666Y-48216666D01*
X134910000Y-48250000D01*
X134976666Y-48283333D01*
X135143333Y-48283333D01*
X135210000Y-48250000D01*
X135243333Y-48216666D01*
X135276666Y-48150000D01*
X135276666Y-47950000D01*
X135243333Y-47883333D01*
X135210000Y-47850000D01*
X134576666Y-48716666D02*
X134576666Y-48783333D01*
X134610000Y-48850000D01*
X134643333Y-48883333D01*
X134710000Y-48916666D01*
X134843333Y-48950000D01*
X135010000Y-48950000D01*
X135143333Y-48916666D01*
X135210000Y-48883333D01*
X135243333Y-48850000D01*
X135276666Y-48783333D01*
X135276666Y-48716666D01*
X135243333Y-48650000D01*
X135210000Y-48616666D01*
X135143333Y-48583333D01*
X135010000Y-48550000D01*
X134843333Y-48550000D01*
X134710000Y-48583333D01*
X134643333Y-48616666D01*
X134610000Y-48650000D01*
X134576666Y-48716666D01*
X135276666Y-49616666D02*
X135276666Y-49216666D01*
X135276666Y-49416666D02*
X134576666Y-49416666D01*
X134676666Y-49350000D01*
X134743333Y-49283333D01*
X134776666Y-49216666D01*
G04 #@! TO.C,R306*
X131874933Y-41464666D02*
X132108266Y-41131333D01*
X132274933Y-41464666D02*
X132274933Y-40764666D01*
X132008266Y-40764666D01*
X131941600Y-40798000D01*
X131908266Y-40831333D01*
X131874933Y-40898000D01*
X131874933Y-40998000D01*
X131908266Y-41064666D01*
X131941600Y-41098000D01*
X132008266Y-41131333D01*
X132274933Y-41131333D01*
X131641600Y-40764666D02*
X131208266Y-40764666D01*
X131441600Y-41031333D01*
X131341600Y-41031333D01*
X131274933Y-41064666D01*
X131241600Y-41098000D01*
X131208266Y-41164666D01*
X131208266Y-41331333D01*
X131241600Y-41398000D01*
X131274933Y-41431333D01*
X131341600Y-41464666D01*
X131541600Y-41464666D01*
X131608266Y-41431333D01*
X131641600Y-41398000D01*
X130774933Y-40764666D02*
X130708266Y-40764666D01*
X130641600Y-40798000D01*
X130608266Y-40831333D01*
X130574933Y-40898000D01*
X130541600Y-41031333D01*
X130541600Y-41198000D01*
X130574933Y-41331333D01*
X130608266Y-41398000D01*
X130641600Y-41431333D01*
X130708266Y-41464666D01*
X130774933Y-41464666D01*
X130841600Y-41431333D01*
X130874933Y-41398000D01*
X130908266Y-41331333D01*
X130941600Y-41198000D01*
X130941600Y-41031333D01*
X130908266Y-40898000D01*
X130874933Y-40831333D01*
X130841600Y-40798000D01*
X130774933Y-40764666D01*
X129941600Y-40764666D02*
X130074933Y-40764666D01*
X130141600Y-40798000D01*
X130174933Y-40831333D01*
X130241600Y-40931333D01*
X130274933Y-41064666D01*
X130274933Y-41331333D01*
X130241600Y-41398000D01*
X130208266Y-41431333D01*
X130141600Y-41464666D01*
X130008266Y-41464666D01*
X129941600Y-41431333D01*
X129908266Y-41398000D01*
X129874933Y-41331333D01*
X129874933Y-41164666D01*
X129908266Y-41098000D01*
X129941600Y-41064666D01*
X130008266Y-41031333D01*
X130141600Y-41031333D01*
X130208266Y-41064666D01*
X130241600Y-41098000D01*
X130274933Y-41164666D01*
G04 #@! TO.C,R307*
X131925733Y-43141066D02*
X132159066Y-42807733D01*
X132325733Y-43141066D02*
X132325733Y-42441066D01*
X132059066Y-42441066D01*
X131992400Y-42474400D01*
X131959066Y-42507733D01*
X131925733Y-42574400D01*
X131925733Y-42674400D01*
X131959066Y-42741066D01*
X131992400Y-42774400D01*
X132059066Y-42807733D01*
X132325733Y-42807733D01*
X131692400Y-42441066D02*
X131259066Y-42441066D01*
X131492400Y-42707733D01*
X131392400Y-42707733D01*
X131325733Y-42741066D01*
X131292400Y-42774400D01*
X131259066Y-42841066D01*
X131259066Y-43007733D01*
X131292400Y-43074400D01*
X131325733Y-43107733D01*
X131392400Y-43141066D01*
X131592400Y-43141066D01*
X131659066Y-43107733D01*
X131692400Y-43074400D01*
X130825733Y-42441066D02*
X130759066Y-42441066D01*
X130692400Y-42474400D01*
X130659066Y-42507733D01*
X130625733Y-42574400D01*
X130592400Y-42707733D01*
X130592400Y-42874400D01*
X130625733Y-43007733D01*
X130659066Y-43074400D01*
X130692400Y-43107733D01*
X130759066Y-43141066D01*
X130825733Y-43141066D01*
X130892400Y-43107733D01*
X130925733Y-43074400D01*
X130959066Y-43007733D01*
X130992400Y-42874400D01*
X130992400Y-42707733D01*
X130959066Y-42574400D01*
X130925733Y-42507733D01*
X130892400Y-42474400D01*
X130825733Y-42441066D01*
X130359066Y-42441066D02*
X129892400Y-42441066D01*
X130192400Y-43141066D01*
G04 #@! TO.C,R308*
X187016666Y-45536666D02*
X186683333Y-45303333D01*
X187016666Y-45136666D02*
X186316666Y-45136666D01*
X186316666Y-45403333D01*
X186350000Y-45470000D01*
X186383333Y-45503333D01*
X186450000Y-45536666D01*
X186550000Y-45536666D01*
X186616666Y-45503333D01*
X186650000Y-45470000D01*
X186683333Y-45403333D01*
X186683333Y-45136666D01*
X186316666Y-45770000D02*
X186316666Y-46203333D01*
X186583333Y-45970000D01*
X186583333Y-46070000D01*
X186616666Y-46136666D01*
X186650000Y-46170000D01*
X186716666Y-46203333D01*
X186883333Y-46203333D01*
X186950000Y-46170000D01*
X186983333Y-46136666D01*
X187016666Y-46070000D01*
X187016666Y-45870000D01*
X186983333Y-45803333D01*
X186950000Y-45770000D01*
X186316666Y-46636666D02*
X186316666Y-46703333D01*
X186350000Y-46770000D01*
X186383333Y-46803333D01*
X186450000Y-46836666D01*
X186583333Y-46870000D01*
X186750000Y-46870000D01*
X186883333Y-46836666D01*
X186950000Y-46803333D01*
X186983333Y-46770000D01*
X187016666Y-46703333D01*
X187016666Y-46636666D01*
X186983333Y-46570000D01*
X186950000Y-46536666D01*
X186883333Y-46503333D01*
X186750000Y-46470000D01*
X186583333Y-46470000D01*
X186450000Y-46503333D01*
X186383333Y-46536666D01*
X186350000Y-46570000D01*
X186316666Y-46636666D01*
X186616666Y-47270000D02*
X186583333Y-47203333D01*
X186550000Y-47170000D01*
X186483333Y-47136666D01*
X186450000Y-47136666D01*
X186383333Y-47170000D01*
X186350000Y-47203333D01*
X186316666Y-47270000D01*
X186316666Y-47403333D01*
X186350000Y-47470000D01*
X186383333Y-47503333D01*
X186450000Y-47536666D01*
X186483333Y-47536666D01*
X186550000Y-47503333D01*
X186583333Y-47470000D01*
X186616666Y-47403333D01*
X186616666Y-47270000D01*
X186650000Y-47203333D01*
X186683333Y-47170000D01*
X186750000Y-47136666D01*
X186883333Y-47136666D01*
X186950000Y-47170000D01*
X186983333Y-47203333D01*
X187016666Y-47270000D01*
X187016666Y-47403333D01*
X186983333Y-47470000D01*
X186950000Y-47503333D01*
X186883333Y-47536666D01*
X186750000Y-47536666D01*
X186683333Y-47503333D01*
X186650000Y-47470000D01*
X186616666Y-47403333D01*
G04 #@! TO.C,R311*
X151183333Y-45036666D02*
X151416666Y-44703333D01*
X151583333Y-45036666D02*
X151583333Y-44336666D01*
X151316666Y-44336666D01*
X151250000Y-44370000D01*
X151216666Y-44403333D01*
X151183333Y-44470000D01*
X151183333Y-44570000D01*
X151216666Y-44636666D01*
X151250000Y-44670000D01*
X151316666Y-44703333D01*
X151583333Y-44703333D01*
X150950000Y-44336666D02*
X150516666Y-44336666D01*
X150750000Y-44603333D01*
X150650000Y-44603333D01*
X150583333Y-44636666D01*
X150550000Y-44670000D01*
X150516666Y-44736666D01*
X150516666Y-44903333D01*
X150550000Y-44970000D01*
X150583333Y-45003333D01*
X150650000Y-45036666D01*
X150850000Y-45036666D01*
X150916666Y-45003333D01*
X150950000Y-44970000D01*
X149850000Y-45036666D02*
X150250000Y-45036666D01*
X150050000Y-45036666D02*
X150050000Y-44336666D01*
X150116666Y-44436666D01*
X150183333Y-44503333D01*
X150250000Y-44536666D01*
X149183333Y-45036666D02*
X149583333Y-45036666D01*
X149383333Y-45036666D02*
X149383333Y-44336666D01*
X149450000Y-44436666D01*
X149516666Y-44503333D01*
X149583333Y-44536666D01*
G04 #@! TO.C,R313*
X182183333Y-47216666D02*
X182416666Y-46883333D01*
X182583333Y-47216666D02*
X182583333Y-46516666D01*
X182316666Y-46516666D01*
X182250000Y-46550000D01*
X182216666Y-46583333D01*
X182183333Y-46650000D01*
X182183333Y-46750000D01*
X182216666Y-46816666D01*
X182250000Y-46850000D01*
X182316666Y-46883333D01*
X182583333Y-46883333D01*
X181950000Y-46516666D02*
X181516666Y-46516666D01*
X181750000Y-46783333D01*
X181650000Y-46783333D01*
X181583333Y-46816666D01*
X181550000Y-46850000D01*
X181516666Y-46916666D01*
X181516666Y-47083333D01*
X181550000Y-47150000D01*
X181583333Y-47183333D01*
X181650000Y-47216666D01*
X181850000Y-47216666D01*
X181916666Y-47183333D01*
X181950000Y-47150000D01*
X180850000Y-47216666D02*
X181250000Y-47216666D01*
X181050000Y-47216666D02*
X181050000Y-46516666D01*
X181116666Y-46616666D01*
X181183333Y-46683333D01*
X181250000Y-46716666D01*
X180616666Y-46516666D02*
X180183333Y-46516666D01*
X180416666Y-46783333D01*
X180316666Y-46783333D01*
X180250000Y-46816666D01*
X180216666Y-46850000D01*
X180183333Y-46916666D01*
X180183333Y-47083333D01*
X180216666Y-47150000D01*
X180250000Y-47183333D01*
X180316666Y-47216666D01*
X180516666Y-47216666D01*
X180583333Y-47183333D01*
X180616666Y-47150000D01*
G04 #@! TO.C,R314*
X179361866Y-37016666D02*
X179028533Y-36783333D01*
X179361866Y-36616666D02*
X178661866Y-36616666D01*
X178661866Y-36883333D01*
X178695200Y-36950000D01*
X178728533Y-36983333D01*
X178795200Y-37016666D01*
X178895200Y-37016666D01*
X178961866Y-36983333D01*
X178995200Y-36950000D01*
X179028533Y-36883333D01*
X179028533Y-36616666D01*
X178661866Y-37250000D02*
X178661866Y-37683333D01*
X178928533Y-37450000D01*
X178928533Y-37550000D01*
X178961866Y-37616666D01*
X178995200Y-37650000D01*
X179061866Y-37683333D01*
X179228533Y-37683333D01*
X179295200Y-37650000D01*
X179328533Y-37616666D01*
X179361866Y-37550000D01*
X179361866Y-37350000D01*
X179328533Y-37283333D01*
X179295200Y-37250000D01*
X179361866Y-38350000D02*
X179361866Y-37950000D01*
X179361866Y-38150000D02*
X178661866Y-38150000D01*
X178761866Y-38083333D01*
X178828533Y-38016666D01*
X178861866Y-37950000D01*
X178895200Y-38950000D02*
X179361866Y-38950000D01*
X178628533Y-38783333D02*
X179128533Y-38616666D01*
X179128533Y-39050000D01*
G04 #@! TO.C,R315*
X187016666Y-42549066D02*
X186683333Y-42315733D01*
X187016666Y-42149066D02*
X186316666Y-42149066D01*
X186316666Y-42415733D01*
X186350000Y-42482400D01*
X186383333Y-42515733D01*
X186450000Y-42549066D01*
X186550000Y-42549066D01*
X186616666Y-42515733D01*
X186650000Y-42482400D01*
X186683333Y-42415733D01*
X186683333Y-42149066D01*
X186316666Y-42782400D02*
X186316666Y-43215733D01*
X186583333Y-42982400D01*
X186583333Y-43082400D01*
X186616666Y-43149066D01*
X186650000Y-43182400D01*
X186716666Y-43215733D01*
X186883333Y-43215733D01*
X186950000Y-43182400D01*
X186983333Y-43149066D01*
X187016666Y-43082400D01*
X187016666Y-42882400D01*
X186983333Y-42815733D01*
X186950000Y-42782400D01*
X187016666Y-43882400D02*
X187016666Y-43482400D01*
X187016666Y-43682400D02*
X186316666Y-43682400D01*
X186416666Y-43615733D01*
X186483333Y-43549066D01*
X186516666Y-43482400D01*
X186316666Y-44515733D02*
X186316666Y-44182400D01*
X186650000Y-44149066D01*
X186616666Y-44182400D01*
X186583333Y-44249066D01*
X186583333Y-44415733D01*
X186616666Y-44482400D01*
X186650000Y-44515733D01*
X186716666Y-44549066D01*
X186883333Y-44549066D01*
X186950000Y-44515733D01*
X186983333Y-44482400D01*
X187016666Y-44415733D01*
X187016666Y-44249066D01*
X186983333Y-44182400D01*
X186950000Y-44149066D01*
G04 #@! TO.C,R316*
X151183333Y-41436666D02*
X151416666Y-41103333D01*
X151583333Y-41436666D02*
X151583333Y-40736666D01*
X151316666Y-40736666D01*
X151250000Y-40770000D01*
X151216666Y-40803333D01*
X151183333Y-40870000D01*
X151183333Y-40970000D01*
X151216666Y-41036666D01*
X151250000Y-41070000D01*
X151316666Y-41103333D01*
X151583333Y-41103333D01*
X150950000Y-40736666D02*
X150516666Y-40736666D01*
X150750000Y-41003333D01*
X150650000Y-41003333D01*
X150583333Y-41036666D01*
X150550000Y-41070000D01*
X150516666Y-41136666D01*
X150516666Y-41303333D01*
X150550000Y-41370000D01*
X150583333Y-41403333D01*
X150650000Y-41436666D01*
X150850000Y-41436666D01*
X150916666Y-41403333D01*
X150950000Y-41370000D01*
X149850000Y-41436666D02*
X150250000Y-41436666D01*
X150050000Y-41436666D02*
X150050000Y-40736666D01*
X150116666Y-40836666D01*
X150183333Y-40903333D01*
X150250000Y-40936666D01*
X149250000Y-40736666D02*
X149383333Y-40736666D01*
X149450000Y-40770000D01*
X149483333Y-40803333D01*
X149550000Y-40903333D01*
X149583333Y-41036666D01*
X149583333Y-41303333D01*
X149550000Y-41370000D01*
X149516666Y-41403333D01*
X149450000Y-41436666D01*
X149316666Y-41436666D01*
X149250000Y-41403333D01*
X149216666Y-41370000D01*
X149183333Y-41303333D01*
X149183333Y-41136666D01*
X149216666Y-41070000D01*
X149250000Y-41036666D01*
X149316666Y-41003333D01*
X149450000Y-41003333D01*
X149516666Y-41036666D01*
X149550000Y-41070000D01*
X149583333Y-41136666D01*
G04 #@! TO.C,R317*
X133676666Y-47616666D02*
X133343333Y-47383333D01*
X133676666Y-47216666D02*
X132976666Y-47216666D01*
X132976666Y-47483333D01*
X133010000Y-47550000D01*
X133043333Y-47583333D01*
X133110000Y-47616666D01*
X133210000Y-47616666D01*
X133276666Y-47583333D01*
X133310000Y-47550000D01*
X133343333Y-47483333D01*
X133343333Y-47216666D01*
X132976666Y-47850000D02*
X132976666Y-48283333D01*
X133243333Y-48050000D01*
X133243333Y-48150000D01*
X133276666Y-48216666D01*
X133310000Y-48250000D01*
X133376666Y-48283333D01*
X133543333Y-48283333D01*
X133610000Y-48250000D01*
X133643333Y-48216666D01*
X133676666Y-48150000D01*
X133676666Y-47950000D01*
X133643333Y-47883333D01*
X133610000Y-47850000D01*
X133676666Y-48950000D02*
X133676666Y-48550000D01*
X133676666Y-48750000D02*
X132976666Y-48750000D01*
X133076666Y-48683333D01*
X133143333Y-48616666D01*
X133176666Y-48550000D01*
X132976666Y-49183333D02*
X132976666Y-49650000D01*
X133676666Y-49350000D01*
G04 #@! TO.C,R319*
X180733466Y-40313866D02*
X180400133Y-40080533D01*
X180733466Y-39913866D02*
X180033466Y-39913866D01*
X180033466Y-40180533D01*
X180066800Y-40247200D01*
X180100133Y-40280533D01*
X180166800Y-40313866D01*
X180266800Y-40313866D01*
X180333466Y-40280533D01*
X180366800Y-40247200D01*
X180400133Y-40180533D01*
X180400133Y-39913866D01*
X180033466Y-40547200D02*
X180033466Y-40980533D01*
X180300133Y-40747200D01*
X180300133Y-40847200D01*
X180333466Y-40913866D01*
X180366800Y-40947200D01*
X180433466Y-40980533D01*
X180600133Y-40980533D01*
X180666800Y-40947200D01*
X180700133Y-40913866D01*
X180733466Y-40847200D01*
X180733466Y-40647200D01*
X180700133Y-40580533D01*
X180666800Y-40547200D01*
X180733466Y-41647200D02*
X180733466Y-41247200D01*
X180733466Y-41447200D02*
X180033466Y-41447200D01*
X180133466Y-41380533D01*
X180200133Y-41313866D01*
X180233466Y-41247200D01*
X180733466Y-41980533D02*
X180733466Y-42113866D01*
X180700133Y-42180533D01*
X180666800Y-42213866D01*
X180566800Y-42280533D01*
X180433466Y-42313866D01*
X180166800Y-42313866D01*
X180100133Y-42280533D01*
X180066800Y-42247200D01*
X180033466Y-42180533D01*
X180033466Y-42047200D01*
X180066800Y-41980533D01*
X180100133Y-41947200D01*
X180166800Y-41913866D01*
X180333466Y-41913866D01*
X180400133Y-41947200D01*
X180433466Y-41980533D01*
X180466800Y-42047200D01*
X180466800Y-42180533D01*
X180433466Y-42247200D01*
X180400133Y-42280533D01*
X180333466Y-42313866D01*
G04 #@! TO.C,R320*
X145598533Y-34016666D02*
X145831866Y-33683333D01*
X145998533Y-34016666D02*
X145998533Y-33316666D01*
X145731866Y-33316666D01*
X145665200Y-33350000D01*
X145631866Y-33383333D01*
X145598533Y-33450000D01*
X145598533Y-33550000D01*
X145631866Y-33616666D01*
X145665200Y-33650000D01*
X145731866Y-33683333D01*
X145998533Y-33683333D01*
X145365200Y-33316666D02*
X144931866Y-33316666D01*
X145165200Y-33583333D01*
X145065200Y-33583333D01*
X144998533Y-33616666D01*
X144965200Y-33650000D01*
X144931866Y-33716666D01*
X144931866Y-33883333D01*
X144965200Y-33950000D01*
X144998533Y-33983333D01*
X145065200Y-34016666D01*
X145265200Y-34016666D01*
X145331866Y-33983333D01*
X145365200Y-33950000D01*
X144665200Y-33383333D02*
X144631866Y-33350000D01*
X144565200Y-33316666D01*
X144398533Y-33316666D01*
X144331866Y-33350000D01*
X144298533Y-33383333D01*
X144265200Y-33450000D01*
X144265200Y-33516666D01*
X144298533Y-33616666D01*
X144698533Y-34016666D01*
X144265200Y-34016666D01*
X143831866Y-33316666D02*
X143765200Y-33316666D01*
X143698533Y-33350000D01*
X143665200Y-33383333D01*
X143631866Y-33450000D01*
X143598533Y-33583333D01*
X143598533Y-33750000D01*
X143631866Y-33883333D01*
X143665200Y-33950000D01*
X143698533Y-33983333D01*
X143765200Y-34016666D01*
X143831866Y-34016666D01*
X143898533Y-33983333D01*
X143931866Y-33950000D01*
X143965200Y-33883333D01*
X143998533Y-33750000D01*
X143998533Y-33583333D01*
X143965200Y-33450000D01*
X143931866Y-33383333D01*
X143898533Y-33350000D01*
X143831866Y-33316666D01*
G04 #@! TO.C,R324*
X187016666Y-39536666D02*
X186683333Y-39303333D01*
X187016666Y-39136666D02*
X186316666Y-39136666D01*
X186316666Y-39403333D01*
X186350000Y-39470000D01*
X186383333Y-39503333D01*
X186450000Y-39536666D01*
X186550000Y-39536666D01*
X186616666Y-39503333D01*
X186650000Y-39470000D01*
X186683333Y-39403333D01*
X186683333Y-39136666D01*
X186316666Y-39770000D02*
X186316666Y-40203333D01*
X186583333Y-39970000D01*
X186583333Y-40070000D01*
X186616666Y-40136666D01*
X186650000Y-40170000D01*
X186716666Y-40203333D01*
X186883333Y-40203333D01*
X186950000Y-40170000D01*
X186983333Y-40136666D01*
X187016666Y-40070000D01*
X187016666Y-39870000D01*
X186983333Y-39803333D01*
X186950000Y-39770000D01*
X186383333Y-40470000D02*
X186350000Y-40503333D01*
X186316666Y-40570000D01*
X186316666Y-40736666D01*
X186350000Y-40803333D01*
X186383333Y-40836666D01*
X186450000Y-40870000D01*
X186516666Y-40870000D01*
X186616666Y-40836666D01*
X187016666Y-40436666D01*
X187016666Y-40870000D01*
X186550000Y-41470000D02*
X187016666Y-41470000D01*
X186283333Y-41303333D02*
X186783333Y-41136666D01*
X186783333Y-41570000D01*
G04 #@! TO.C,C701*
X149177123Y-102130677D02*
X149177123Y-102177817D01*
X149224264Y-102272098D01*
X149271404Y-102319238D01*
X149365685Y-102366379D01*
X149459966Y-102366379D01*
X149530677Y-102342809D01*
X149648528Y-102272098D01*
X149719238Y-102201387D01*
X149789949Y-102083536D01*
X149813519Y-102012825D01*
X149813519Y-101918544D01*
X149766379Y-101824264D01*
X149719238Y-101777123D01*
X149624957Y-101729983D01*
X149577817Y-101729983D01*
X149459966Y-101517851D02*
X149129983Y-101187867D01*
X148847140Y-101894974D01*
X148847140Y-100905025D02*
X148800000Y-100857884D01*
X148729289Y-100834314D01*
X148682148Y-100834314D01*
X148611438Y-100857884D01*
X148493587Y-100928595D01*
X148375735Y-101046446D01*
X148305025Y-101164297D01*
X148281455Y-101235008D01*
X148281455Y-101282148D01*
X148305025Y-101352859D01*
X148352165Y-101400000D01*
X148422876Y-101423570D01*
X148470016Y-101423570D01*
X148540727Y-101399999D01*
X148658578Y-101329289D01*
X148776429Y-101211438D01*
X148847140Y-101093587D01*
X148870710Y-101022876D01*
X148870710Y-100975735D01*
X148847140Y-100905025D01*
X147715769Y-100763603D02*
X147998612Y-101046446D01*
X147857190Y-100905025D02*
X148352165Y-100410050D01*
X148328595Y-100527901D01*
X148328595Y-100622182D01*
X148352165Y-100692893D01*
G04 #@! TO.C,C702*
X154277123Y-96930677D02*
X154277123Y-96977817D01*
X154324264Y-97072098D01*
X154371404Y-97119238D01*
X154465685Y-97166379D01*
X154559966Y-97166379D01*
X154630677Y-97142809D01*
X154748528Y-97072098D01*
X154819238Y-97001387D01*
X154889949Y-96883536D01*
X154913519Y-96812825D01*
X154913519Y-96718544D01*
X154866379Y-96624264D01*
X154819238Y-96577123D01*
X154724957Y-96529983D01*
X154677817Y-96529983D01*
X154559966Y-96317851D02*
X154229983Y-95987867D01*
X153947140Y-96694974D01*
X153947140Y-95705025D02*
X153900000Y-95657884D01*
X153829289Y-95634314D01*
X153782148Y-95634314D01*
X153711438Y-95657884D01*
X153593587Y-95728595D01*
X153475735Y-95846446D01*
X153405025Y-95964297D01*
X153381455Y-96035008D01*
X153381455Y-96082148D01*
X153405025Y-96152859D01*
X153452165Y-96200000D01*
X153522876Y-96223570D01*
X153570016Y-96223570D01*
X153640727Y-96199999D01*
X153758578Y-96129289D01*
X153876429Y-96011438D01*
X153947140Y-95893587D01*
X153970710Y-95822876D01*
X153970710Y-95775735D01*
X153947140Y-95705025D01*
X153546446Y-95398612D02*
X153546446Y-95351471D01*
X153522876Y-95280761D01*
X153405025Y-95162910D01*
X153334314Y-95139339D01*
X153287174Y-95139339D01*
X153216463Y-95162910D01*
X153169322Y-95210050D01*
X153122182Y-95304331D01*
X153122182Y-95870016D01*
X152815769Y-95563603D01*
G04 #@! TO.C,U301*
X141960000Y-39286666D02*
X141960000Y-39853333D01*
X141926666Y-39920000D01*
X141893333Y-39953333D01*
X141826666Y-39986666D01*
X141693333Y-39986666D01*
X141626666Y-39953333D01*
X141593333Y-39920000D01*
X141560000Y-39853333D01*
X141560000Y-39286666D01*
X141293333Y-39286666D02*
X140860000Y-39286666D01*
X141093333Y-39553333D01*
X140993333Y-39553333D01*
X140926666Y-39586666D01*
X140893333Y-39620000D01*
X140860000Y-39686666D01*
X140860000Y-39853333D01*
X140893333Y-39920000D01*
X140926666Y-39953333D01*
X140993333Y-39986666D01*
X141193333Y-39986666D01*
X141260000Y-39953333D01*
X141293333Y-39920000D01*
X140426666Y-39286666D02*
X140360000Y-39286666D01*
X140293333Y-39320000D01*
X140260000Y-39353333D01*
X140226666Y-39420000D01*
X140193333Y-39553333D01*
X140193333Y-39720000D01*
X140226666Y-39853333D01*
X140260000Y-39920000D01*
X140293333Y-39953333D01*
X140360000Y-39986666D01*
X140426666Y-39986666D01*
X140493333Y-39953333D01*
X140526666Y-39920000D01*
X140560000Y-39853333D01*
X140593333Y-39720000D01*
X140593333Y-39553333D01*
X140560000Y-39420000D01*
X140526666Y-39353333D01*
X140493333Y-39320000D01*
X140426666Y-39286666D01*
X139526666Y-39986666D02*
X139926666Y-39986666D01*
X139726666Y-39986666D02*
X139726666Y-39286666D01*
X139793333Y-39386666D01*
X139860000Y-39453333D01*
X139926666Y-39486666D01*
G04 #@! TO.C,U302*
X183960000Y-37916666D02*
X183960000Y-38483333D01*
X183926666Y-38550000D01*
X183893333Y-38583333D01*
X183826666Y-38616666D01*
X183693333Y-38616666D01*
X183626666Y-38583333D01*
X183593333Y-38550000D01*
X183560000Y-38483333D01*
X183560000Y-37916666D01*
X183293333Y-37916666D02*
X182860000Y-37916666D01*
X183093333Y-38183333D01*
X182993333Y-38183333D01*
X182926666Y-38216666D01*
X182893333Y-38250000D01*
X182860000Y-38316666D01*
X182860000Y-38483333D01*
X182893333Y-38550000D01*
X182926666Y-38583333D01*
X182993333Y-38616666D01*
X183193333Y-38616666D01*
X183260000Y-38583333D01*
X183293333Y-38550000D01*
X182426666Y-37916666D02*
X182360000Y-37916666D01*
X182293333Y-37950000D01*
X182260000Y-37983333D01*
X182226666Y-38050000D01*
X182193333Y-38183333D01*
X182193333Y-38350000D01*
X182226666Y-38483333D01*
X182260000Y-38550000D01*
X182293333Y-38583333D01*
X182360000Y-38616666D01*
X182426666Y-38616666D01*
X182493333Y-38583333D01*
X182526666Y-38550000D01*
X182560000Y-38483333D01*
X182593333Y-38350000D01*
X182593333Y-38183333D01*
X182560000Y-38050000D01*
X182526666Y-37983333D01*
X182493333Y-37950000D01*
X182426666Y-37916666D01*
X181926666Y-37983333D02*
X181893333Y-37950000D01*
X181826666Y-37916666D01*
X181660000Y-37916666D01*
X181593333Y-37950000D01*
X181560000Y-37983333D01*
X181526666Y-38050000D01*
X181526666Y-38116666D01*
X181560000Y-38216666D01*
X181960000Y-38616666D01*
X181526666Y-38616666D01*
G04 #@! TO.C,U701*
X153477470Y-99080414D02*
X153878164Y-99481108D01*
X153901734Y-99551818D01*
X153901734Y-99598959D01*
X153878164Y-99669669D01*
X153783883Y-99763950D01*
X153713172Y-99787521D01*
X153666032Y-99787521D01*
X153595321Y-99763950D01*
X153194627Y-99363256D01*
X153006066Y-99551818D02*
X152676082Y-99881801D01*
X153383189Y-100164644D01*
X152393240Y-100164644D02*
X152346099Y-100211785D01*
X152322529Y-100282495D01*
X152322529Y-100329636D01*
X152346099Y-100400346D01*
X152416810Y-100518198D01*
X152534661Y-100636049D01*
X152652512Y-100706759D01*
X152723223Y-100730330D01*
X152770363Y-100730330D01*
X152841074Y-100706759D01*
X152888214Y-100659619D01*
X152911785Y-100588908D01*
X152911785Y-100541768D01*
X152888214Y-100471057D01*
X152817504Y-100353206D01*
X152699653Y-100235355D01*
X152581801Y-100164644D01*
X152511091Y-100141074D01*
X152463950Y-100141074D01*
X152393240Y-100164644D01*
X152251818Y-101296015D02*
X152534661Y-101013172D01*
X152393240Y-101154594D02*
X151898265Y-100659619D01*
X152016116Y-100683189D01*
X152110397Y-100683189D01*
X152181108Y-100659619D01*
G04 #@! TO.C,FB701*
X149748528Y-95180761D02*
X149913519Y-95015769D01*
X150172792Y-95275042D02*
X149677817Y-94780067D01*
X149442115Y-95015769D01*
X149324264Y-95605025D02*
X149277123Y-95699306D01*
X149277123Y-95746446D01*
X149300693Y-95817157D01*
X149371404Y-95887867D01*
X149442115Y-95911438D01*
X149489255Y-95911438D01*
X149559966Y-95887867D01*
X149748528Y-95699306D01*
X149253553Y-95204331D01*
X149088561Y-95369322D01*
X149064991Y-95440033D01*
X149064991Y-95487174D01*
X149088561Y-95557884D01*
X149135702Y-95605025D01*
X149206412Y-95628595D01*
X149253553Y-95628595D01*
X149324264Y-95605025D01*
X149489255Y-95440033D01*
X148805719Y-95652165D02*
X148475735Y-95982148D01*
X149182842Y-96264991D01*
X148192893Y-96264991D02*
X148145752Y-96312132D01*
X148122182Y-96382842D01*
X148122182Y-96429983D01*
X148145752Y-96500693D01*
X148216463Y-96618544D01*
X148334314Y-96736396D01*
X148452165Y-96807106D01*
X148522876Y-96830677D01*
X148570016Y-96830677D01*
X148640727Y-96807106D01*
X148687867Y-96759966D01*
X148711438Y-96689255D01*
X148711438Y-96642115D01*
X148687867Y-96571404D01*
X148617157Y-96453553D01*
X148499306Y-96335702D01*
X148381455Y-96264991D01*
X148310744Y-96241421D01*
X148263603Y-96241421D01*
X148192893Y-96264991D01*
X148051471Y-97396362D02*
X148334314Y-97113519D01*
X148192893Y-97254941D02*
X147697918Y-96759966D01*
X147815769Y-96783536D01*
X147910050Y-96783536D01*
X147980761Y-96759966D01*
G04 #@! TO.C,TP601*
X124716666Y-77050000D02*
X124716666Y-77450000D01*
X125416666Y-77250000D02*
X124716666Y-77250000D01*
X125416666Y-77683333D02*
X124716666Y-77683333D01*
X124716666Y-77950000D01*
X124750000Y-78016666D01*
X124783333Y-78050000D01*
X124850000Y-78083333D01*
X124950000Y-78083333D01*
X125016666Y-78050000D01*
X125050000Y-78016666D01*
X125083333Y-77950000D01*
X125083333Y-77683333D01*
X124716666Y-78683333D02*
X124716666Y-78550000D01*
X124750000Y-78483333D01*
X124783333Y-78450000D01*
X124883333Y-78383333D01*
X125016666Y-78350000D01*
X125283333Y-78350000D01*
X125350000Y-78383333D01*
X125383333Y-78416666D01*
X125416666Y-78483333D01*
X125416666Y-78616666D01*
X125383333Y-78683333D01*
X125350000Y-78716666D01*
X125283333Y-78750000D01*
X125116666Y-78750000D01*
X125050000Y-78716666D01*
X125016666Y-78683333D01*
X124983333Y-78616666D01*
X124983333Y-78483333D01*
X125016666Y-78416666D01*
X125050000Y-78383333D01*
X125116666Y-78350000D01*
X124716666Y-79183333D02*
X124716666Y-79250000D01*
X124750000Y-79316666D01*
X124783333Y-79350000D01*
X124850000Y-79383333D01*
X124983333Y-79416666D01*
X125150000Y-79416666D01*
X125283333Y-79383333D01*
X125350000Y-79350000D01*
X125383333Y-79316666D01*
X125416666Y-79250000D01*
X125416666Y-79183333D01*
X125383333Y-79116666D01*
X125350000Y-79083333D01*
X125283333Y-79050000D01*
X125150000Y-79016666D01*
X124983333Y-79016666D01*
X124850000Y-79050000D01*
X124783333Y-79083333D01*
X124750000Y-79116666D01*
X124716666Y-79183333D01*
X125416666Y-80083333D02*
X125416666Y-79683333D01*
X125416666Y-79883333D02*
X124716666Y-79883333D01*
X124816666Y-79816666D01*
X124883333Y-79750000D01*
X124916666Y-79683333D01*
G04 #@! TO.C,TP602*
X128816666Y-72350000D02*
X128816666Y-72750000D01*
X129516666Y-72550000D02*
X128816666Y-72550000D01*
X129516666Y-72983333D02*
X128816666Y-72983333D01*
X128816666Y-73250000D01*
X128850000Y-73316666D01*
X128883333Y-73350000D01*
X128950000Y-73383333D01*
X129050000Y-73383333D01*
X129116666Y-73350000D01*
X129150000Y-73316666D01*
X129183333Y-73250000D01*
X129183333Y-72983333D01*
X128816666Y-73983333D02*
X128816666Y-73850000D01*
X128850000Y-73783333D01*
X128883333Y-73750000D01*
X128983333Y-73683333D01*
X129116666Y-73650000D01*
X129383333Y-73650000D01*
X129450000Y-73683333D01*
X129483333Y-73716666D01*
X129516666Y-73783333D01*
X129516666Y-73916666D01*
X129483333Y-73983333D01*
X129450000Y-74016666D01*
X129383333Y-74050000D01*
X129216666Y-74050000D01*
X129150000Y-74016666D01*
X129116666Y-73983333D01*
X129083333Y-73916666D01*
X129083333Y-73783333D01*
X129116666Y-73716666D01*
X129150000Y-73683333D01*
X129216666Y-73650000D01*
X128816666Y-74483333D02*
X128816666Y-74550000D01*
X128850000Y-74616666D01*
X128883333Y-74650000D01*
X128950000Y-74683333D01*
X129083333Y-74716666D01*
X129250000Y-74716666D01*
X129383333Y-74683333D01*
X129450000Y-74650000D01*
X129483333Y-74616666D01*
X129516666Y-74550000D01*
X129516666Y-74483333D01*
X129483333Y-74416666D01*
X129450000Y-74383333D01*
X129383333Y-74350000D01*
X129250000Y-74316666D01*
X129083333Y-74316666D01*
X128950000Y-74350000D01*
X128883333Y-74383333D01*
X128850000Y-74416666D01*
X128816666Y-74483333D01*
X128883333Y-74983333D02*
X128850000Y-75016666D01*
X128816666Y-75083333D01*
X128816666Y-75250000D01*
X128850000Y-75316666D01*
X128883333Y-75350000D01*
X128950000Y-75383333D01*
X129016666Y-75383333D01*
X129116666Y-75350000D01*
X129516666Y-74950000D01*
X129516666Y-75383333D01*
G04 #@! TO.C,TP603*
X130816666Y-72350000D02*
X130816666Y-72750000D01*
X131516666Y-72550000D02*
X130816666Y-72550000D01*
X131516666Y-72983333D02*
X130816666Y-72983333D01*
X130816666Y-73250000D01*
X130850000Y-73316666D01*
X130883333Y-73350000D01*
X130950000Y-73383333D01*
X131050000Y-73383333D01*
X131116666Y-73350000D01*
X131150000Y-73316666D01*
X131183333Y-73250000D01*
X131183333Y-72983333D01*
X130816666Y-73983333D02*
X130816666Y-73850000D01*
X130850000Y-73783333D01*
X130883333Y-73750000D01*
X130983333Y-73683333D01*
X131116666Y-73650000D01*
X131383333Y-73650000D01*
X131450000Y-73683333D01*
X131483333Y-73716666D01*
X131516666Y-73783333D01*
X131516666Y-73916666D01*
X131483333Y-73983333D01*
X131450000Y-74016666D01*
X131383333Y-74050000D01*
X131216666Y-74050000D01*
X131150000Y-74016666D01*
X131116666Y-73983333D01*
X131083333Y-73916666D01*
X131083333Y-73783333D01*
X131116666Y-73716666D01*
X131150000Y-73683333D01*
X131216666Y-73650000D01*
X130816666Y-74483333D02*
X130816666Y-74550000D01*
X130850000Y-74616666D01*
X130883333Y-74650000D01*
X130950000Y-74683333D01*
X131083333Y-74716666D01*
X131250000Y-74716666D01*
X131383333Y-74683333D01*
X131450000Y-74650000D01*
X131483333Y-74616666D01*
X131516666Y-74550000D01*
X131516666Y-74483333D01*
X131483333Y-74416666D01*
X131450000Y-74383333D01*
X131383333Y-74350000D01*
X131250000Y-74316666D01*
X131083333Y-74316666D01*
X130950000Y-74350000D01*
X130883333Y-74383333D01*
X130850000Y-74416666D01*
X130816666Y-74483333D01*
X130816666Y-74950000D02*
X130816666Y-75383333D01*
X131083333Y-75150000D01*
X131083333Y-75250000D01*
X131116666Y-75316666D01*
X131150000Y-75350000D01*
X131216666Y-75383333D01*
X131383333Y-75383333D01*
X131450000Y-75350000D01*
X131483333Y-75316666D01*
X131516666Y-75250000D01*
X131516666Y-75050000D01*
X131483333Y-74983333D01*
X131450000Y-74950000D01*
G04 #@! TO.C,C811*
X213050000Y-33716666D02*
X213083333Y-33683333D01*
X213116666Y-33583333D01*
X213116666Y-33516666D01*
X213083333Y-33416666D01*
X213016666Y-33350000D01*
X212950000Y-33316666D01*
X212816666Y-33283333D01*
X212716666Y-33283333D01*
X212583333Y-33316666D01*
X212516666Y-33350000D01*
X212450000Y-33416666D01*
X212416666Y-33516666D01*
X212416666Y-33583333D01*
X212450000Y-33683333D01*
X212483333Y-33716666D01*
X212716666Y-34116666D02*
X212683333Y-34050000D01*
X212650000Y-34016666D01*
X212583333Y-33983333D01*
X212550000Y-33983333D01*
X212483333Y-34016666D01*
X212450000Y-34050000D01*
X212416666Y-34116666D01*
X212416666Y-34250000D01*
X212450000Y-34316666D01*
X212483333Y-34350000D01*
X212550000Y-34383333D01*
X212583333Y-34383333D01*
X212650000Y-34350000D01*
X212683333Y-34316666D01*
X212716666Y-34250000D01*
X212716666Y-34116666D01*
X212750000Y-34050000D01*
X212783333Y-34016666D01*
X212850000Y-33983333D01*
X212983333Y-33983333D01*
X213050000Y-34016666D01*
X213083333Y-34050000D01*
X213116666Y-34116666D01*
X213116666Y-34250000D01*
X213083333Y-34316666D01*
X213050000Y-34350000D01*
X212983333Y-34383333D01*
X212850000Y-34383333D01*
X212783333Y-34350000D01*
X212750000Y-34316666D01*
X212716666Y-34250000D01*
X213116666Y-35050000D02*
X213116666Y-34650000D01*
X213116666Y-34850000D02*
X212416666Y-34850000D01*
X212516666Y-34783333D01*
X212583333Y-34716666D01*
X212616666Y-34650000D01*
X213116666Y-35716666D02*
X213116666Y-35316666D01*
X213116666Y-35516666D02*
X212416666Y-35516666D01*
X212516666Y-35450000D01*
X212583333Y-35383333D01*
X212616666Y-35316666D01*
G04 #@! TO.C,JP103*
X209450000Y-85416666D02*
X209450000Y-85916666D01*
X209483333Y-86016666D01*
X209550000Y-86083333D01*
X209650000Y-86116666D01*
X209716666Y-86116666D01*
X209116666Y-86116666D02*
X209116666Y-85416666D01*
X208850000Y-85416666D01*
X208783333Y-85450000D01*
X208750000Y-85483333D01*
X208716666Y-85550000D01*
X208716666Y-85650000D01*
X208750000Y-85716666D01*
X208783333Y-85750000D01*
X208850000Y-85783333D01*
X209116666Y-85783333D01*
X208050000Y-86116666D02*
X208450000Y-86116666D01*
X208250000Y-86116666D02*
X208250000Y-85416666D01*
X208316666Y-85516666D01*
X208383333Y-85583333D01*
X208450000Y-85616666D01*
X207616666Y-85416666D02*
X207550000Y-85416666D01*
X207483333Y-85450000D01*
X207450000Y-85483333D01*
X207416666Y-85550000D01*
X207383333Y-85683333D01*
X207383333Y-85850000D01*
X207416666Y-85983333D01*
X207450000Y-86050000D01*
X207483333Y-86083333D01*
X207550000Y-86116666D01*
X207616666Y-86116666D01*
X207683333Y-86083333D01*
X207716666Y-86050000D01*
X207750000Y-85983333D01*
X207783333Y-85850000D01*
X207783333Y-85683333D01*
X207750000Y-85550000D01*
X207716666Y-85483333D01*
X207683333Y-85450000D01*
X207616666Y-85416666D01*
X207150000Y-85416666D02*
X206716666Y-85416666D01*
X206950000Y-85683333D01*
X206850000Y-85683333D01*
X206783333Y-85716666D01*
X206750000Y-85750000D01*
X206716666Y-85816666D01*
X206716666Y-85983333D01*
X206750000Y-86050000D01*
X206783333Y-86083333D01*
X206850000Y-86116666D01*
X207050000Y-86116666D01*
X207116666Y-86083333D01*
X207150000Y-86050000D01*
G04 #@! TO.C,R812*
X203483333Y-31786666D02*
X203716666Y-31453333D01*
X203883333Y-31786666D02*
X203883333Y-31086666D01*
X203616666Y-31086666D01*
X203550000Y-31120000D01*
X203516666Y-31153333D01*
X203483333Y-31220000D01*
X203483333Y-31320000D01*
X203516666Y-31386666D01*
X203550000Y-31420000D01*
X203616666Y-31453333D01*
X203883333Y-31453333D01*
X203083333Y-31386666D02*
X203150000Y-31353333D01*
X203183333Y-31320000D01*
X203216666Y-31253333D01*
X203216666Y-31220000D01*
X203183333Y-31153333D01*
X203150000Y-31120000D01*
X203083333Y-31086666D01*
X202950000Y-31086666D01*
X202883333Y-31120000D01*
X202850000Y-31153333D01*
X202816666Y-31220000D01*
X202816666Y-31253333D01*
X202850000Y-31320000D01*
X202883333Y-31353333D01*
X202950000Y-31386666D01*
X203083333Y-31386666D01*
X203150000Y-31420000D01*
X203183333Y-31453333D01*
X203216666Y-31520000D01*
X203216666Y-31653333D01*
X203183333Y-31720000D01*
X203150000Y-31753333D01*
X203083333Y-31786666D01*
X202950000Y-31786666D01*
X202883333Y-31753333D01*
X202850000Y-31720000D01*
X202816666Y-31653333D01*
X202816666Y-31520000D01*
X202850000Y-31453333D01*
X202883333Y-31420000D01*
X202950000Y-31386666D01*
X202150000Y-31786666D02*
X202550000Y-31786666D01*
X202350000Y-31786666D02*
X202350000Y-31086666D01*
X202416666Y-31186666D01*
X202483333Y-31253333D01*
X202550000Y-31286666D01*
X201883333Y-31153333D02*
X201850000Y-31120000D01*
X201783333Y-31086666D01*
X201616666Y-31086666D01*
X201550000Y-31120000D01*
X201516666Y-31153333D01*
X201483333Y-31220000D01*
X201483333Y-31286666D01*
X201516666Y-31386666D01*
X201916666Y-31786666D01*
X201483333Y-31786666D01*
G04 #@! TO.C,R813*
X200483333Y-31786666D02*
X200716666Y-31453333D01*
X200883333Y-31786666D02*
X200883333Y-31086666D01*
X200616666Y-31086666D01*
X200550000Y-31120000D01*
X200516666Y-31153333D01*
X200483333Y-31220000D01*
X200483333Y-31320000D01*
X200516666Y-31386666D01*
X200550000Y-31420000D01*
X200616666Y-31453333D01*
X200883333Y-31453333D01*
X200083333Y-31386666D02*
X200150000Y-31353333D01*
X200183333Y-31320000D01*
X200216666Y-31253333D01*
X200216666Y-31220000D01*
X200183333Y-31153333D01*
X200150000Y-31120000D01*
X200083333Y-31086666D01*
X199950000Y-31086666D01*
X199883333Y-31120000D01*
X199850000Y-31153333D01*
X199816666Y-31220000D01*
X199816666Y-31253333D01*
X199850000Y-31320000D01*
X199883333Y-31353333D01*
X199950000Y-31386666D01*
X200083333Y-31386666D01*
X200150000Y-31420000D01*
X200183333Y-31453333D01*
X200216666Y-31520000D01*
X200216666Y-31653333D01*
X200183333Y-31720000D01*
X200150000Y-31753333D01*
X200083333Y-31786666D01*
X199950000Y-31786666D01*
X199883333Y-31753333D01*
X199850000Y-31720000D01*
X199816666Y-31653333D01*
X199816666Y-31520000D01*
X199850000Y-31453333D01*
X199883333Y-31420000D01*
X199950000Y-31386666D01*
X199150000Y-31786666D02*
X199550000Y-31786666D01*
X199350000Y-31786666D02*
X199350000Y-31086666D01*
X199416666Y-31186666D01*
X199483333Y-31253333D01*
X199550000Y-31286666D01*
X198916666Y-31086666D02*
X198483333Y-31086666D01*
X198716666Y-31353333D01*
X198616666Y-31353333D01*
X198550000Y-31386666D01*
X198516666Y-31420000D01*
X198483333Y-31486666D01*
X198483333Y-31653333D01*
X198516666Y-31720000D01*
X198550000Y-31753333D01*
X198616666Y-31786666D01*
X198816666Y-31786666D01*
X198883333Y-31753333D01*
X198916666Y-31720000D01*
G04 #@! TO.C,C317*
X177729750Y-37016666D02*
X177763083Y-36983333D01*
X177796416Y-36883333D01*
X177796416Y-36816666D01*
X177763083Y-36716666D01*
X177696416Y-36650000D01*
X177629750Y-36616666D01*
X177496416Y-36583333D01*
X177396416Y-36583333D01*
X177263083Y-36616666D01*
X177196416Y-36650000D01*
X177129750Y-36716666D01*
X177096416Y-36816666D01*
X177096416Y-36883333D01*
X177129750Y-36983333D01*
X177163083Y-37016666D01*
X177096416Y-37250000D02*
X177096416Y-37683333D01*
X177363083Y-37450000D01*
X177363083Y-37550000D01*
X177396416Y-37616666D01*
X177429750Y-37650000D01*
X177496416Y-37683333D01*
X177663083Y-37683333D01*
X177729750Y-37650000D01*
X177763083Y-37616666D01*
X177796416Y-37550000D01*
X177796416Y-37350000D01*
X177763083Y-37283333D01*
X177729750Y-37250000D01*
X177796416Y-38350000D02*
X177796416Y-37950000D01*
X177796416Y-38150000D02*
X177096416Y-38150000D01*
X177196416Y-38083333D01*
X177263083Y-38016666D01*
X177296416Y-37950000D01*
X177096416Y-38583333D02*
X177096416Y-39050000D01*
X177796416Y-38750000D01*
G04 #@! TO.C,R302*
X180083333Y-50613466D02*
X180316666Y-50280133D01*
X180483333Y-50613466D02*
X180483333Y-49913466D01*
X180216666Y-49913466D01*
X180150000Y-49946800D01*
X180116666Y-49980133D01*
X180083333Y-50046800D01*
X180083333Y-50146800D01*
X180116666Y-50213466D01*
X180150000Y-50246800D01*
X180216666Y-50280133D01*
X180483333Y-50280133D01*
X179850000Y-49913466D02*
X179416666Y-49913466D01*
X179650000Y-50180133D01*
X179550000Y-50180133D01*
X179483333Y-50213466D01*
X179450000Y-50246800D01*
X179416666Y-50313466D01*
X179416666Y-50480133D01*
X179450000Y-50546800D01*
X179483333Y-50580133D01*
X179550000Y-50613466D01*
X179750000Y-50613466D01*
X179816666Y-50580133D01*
X179850000Y-50546800D01*
X178983333Y-49913466D02*
X178916666Y-49913466D01*
X178850000Y-49946800D01*
X178816666Y-49980133D01*
X178783333Y-50046800D01*
X178750000Y-50180133D01*
X178750000Y-50346800D01*
X178783333Y-50480133D01*
X178816666Y-50546800D01*
X178850000Y-50580133D01*
X178916666Y-50613466D01*
X178983333Y-50613466D01*
X179050000Y-50580133D01*
X179083333Y-50546800D01*
X179116666Y-50480133D01*
X179150000Y-50346800D01*
X179150000Y-50180133D01*
X179116666Y-50046800D01*
X179083333Y-49980133D01*
X179050000Y-49946800D01*
X178983333Y-49913466D01*
X178483333Y-49980133D02*
X178450000Y-49946800D01*
X178383333Y-49913466D01*
X178216666Y-49913466D01*
X178150000Y-49946800D01*
X178116666Y-49980133D01*
X178083333Y-50046800D01*
X178083333Y-50113466D01*
X178116666Y-50213466D01*
X178516666Y-50613466D01*
X178083333Y-50613466D01*
G04 #@! TO.C,R326*
X148583333Y-34016666D02*
X148816666Y-33683333D01*
X148983333Y-34016666D02*
X148983333Y-33316666D01*
X148716666Y-33316666D01*
X148650000Y-33350000D01*
X148616666Y-33383333D01*
X148583333Y-33450000D01*
X148583333Y-33550000D01*
X148616666Y-33616666D01*
X148650000Y-33650000D01*
X148716666Y-33683333D01*
X148983333Y-33683333D01*
X148350000Y-33316666D02*
X147916666Y-33316666D01*
X148150000Y-33583333D01*
X148050000Y-33583333D01*
X147983333Y-33616666D01*
X147950000Y-33650000D01*
X147916666Y-33716666D01*
X147916666Y-33883333D01*
X147950000Y-33950000D01*
X147983333Y-33983333D01*
X148050000Y-34016666D01*
X148250000Y-34016666D01*
X148316666Y-33983333D01*
X148350000Y-33950000D01*
X147650000Y-33383333D02*
X147616666Y-33350000D01*
X147550000Y-33316666D01*
X147383333Y-33316666D01*
X147316666Y-33350000D01*
X147283333Y-33383333D01*
X147250000Y-33450000D01*
X147250000Y-33516666D01*
X147283333Y-33616666D01*
X147683333Y-34016666D01*
X147250000Y-34016666D01*
X146650000Y-33316666D02*
X146783333Y-33316666D01*
X146850000Y-33350000D01*
X146883333Y-33383333D01*
X146950000Y-33483333D01*
X146983333Y-33616666D01*
X146983333Y-33883333D01*
X146950000Y-33950000D01*
X146916666Y-33983333D01*
X146850000Y-34016666D01*
X146716666Y-34016666D01*
X146650000Y-33983333D01*
X146616666Y-33950000D01*
X146583333Y-33883333D01*
X146583333Y-33716666D01*
X146616666Y-33650000D01*
X146650000Y-33616666D01*
X146716666Y-33583333D01*
X146850000Y-33583333D01*
X146916666Y-33616666D01*
X146950000Y-33650000D01*
X146983333Y-33716666D01*
G04 #@! TD*
M02*
