G04 #@! TF.GenerationSoftware,KiCad,Pcbnew,5.1.7-a382d34a8~87~ubuntu18.04.1*
G04 #@! TF.CreationDate,2021-01-18T13:43:01-05:00*
G04 #@! TF.ProjectId,SD1,5344312e-6b69-4636-9164-5f7063625858,0*
G04 #@! TF.SameCoordinates,Original*
G04 #@! TF.FileFunction,Paste,Top*
G04 #@! TF.FilePolarity,Positive*
%FSLAX46Y46*%
G04 Gerber Fmt 4.6, Leading zero omitted, Abs format (unit mm)*
G04 Created by KiCad (PCBNEW 5.1.7-a382d34a8~87~ubuntu18.04.1) date 2021-01-18 13:43:01*
%MOMM*%
%LPD*%
G01*
G04 APERTURE LIST*
%ADD10R,2.400000X0.740000*%
%ADD11R,0.700000X0.400000*%
%ADD12R,1.600000X1.900000*%
%ADD13R,3.800000X2.000000*%
%ADD14R,1.500000X2.000000*%
%ADD15R,0.650000X1.050000*%
%ADD16R,1.200000X1.400000*%
%ADD17O,1.250000X0.950000*%
%ADD18R,1.200000X1.550000*%
%ADD19O,0.890000X1.550000*%
%ADD20R,1.500000X1.550000*%
%ADD21R,0.400000X1.350000*%
%ADD22R,1.500000X0.800000*%
%ADD23C,0.100000*%
%ADD24R,0.700000X0.450000*%
%ADD25R,0.900000X0.800000*%
%ADD26R,0.800000X0.550000*%
%ADD27R,1.000000X1.400000*%
%ADD28R,2.500000X3.300000*%
%ADD29R,1.800000X2.500000*%
%ADD30R,1.750000X0.450000*%
%ADD31R,0.250000X0.600000*%
%ADD32R,1.050000X1.050000*%
%ADD33R,1.000000X0.300000*%
%ADD34R,1.300000X2.200000*%
%ADD35R,0.600000X0.400000*%
%ADD36R,1.500000X2.300000*%
%ADD37R,0.700000X3.600000*%
%ADD38R,0.650000X1.060000*%
%ADD39R,1.060000X0.650000*%
%ADD40R,0.350000X0.500000*%
%ADD41R,0.800000X0.900000*%
%ADD42R,1.200000X3.700000*%
%ADD43R,2.030000X1.270000*%
G04 APERTURE END LIST*
D10*
G04 #@! TO.C,J404*
X204850000Y-97140000D03*
X200950000Y-97140000D03*
X204850000Y-95870000D03*
X200950000Y-95870000D03*
X204850000Y-94600000D03*
X200950000Y-94600000D03*
X204850000Y-93330000D03*
X200950000Y-93330000D03*
X204850000Y-92060000D03*
X200950000Y-92060000D03*
G04 #@! TD*
G04 #@! TO.C,R806*
G36*
G01*
X198650000Y-34643750D02*
X198650000Y-35156250D01*
G75*
G02*
X198431250Y-35375000I-218750J0D01*
G01*
X197993750Y-35375000D01*
G75*
G02*
X197775000Y-35156250I0J218750D01*
G01*
X197775000Y-34643750D01*
G75*
G02*
X197993750Y-34425000I218750J0D01*
G01*
X198431250Y-34425000D01*
G75*
G02*
X198650000Y-34643750I0J-218750D01*
G01*
G37*
G36*
G01*
X200225000Y-34643750D02*
X200225000Y-35156250D01*
G75*
G02*
X200006250Y-35375000I-218750J0D01*
G01*
X199568750Y-35375000D01*
G75*
G02*
X199350000Y-35156250I0J218750D01*
G01*
X199350000Y-34643750D01*
G75*
G02*
X199568750Y-34425000I218750J0D01*
G01*
X200006250Y-34425000D01*
G75*
G02*
X200225000Y-34643750I0J-218750D01*
G01*
G37*
G04 #@! TD*
G04 #@! TO.C,C802*
G36*
G01*
X208929700Y-34605450D02*
X208929700Y-34092950D01*
G75*
G02*
X209148450Y-33874200I218750J0D01*
G01*
X209585950Y-33874200D01*
G75*
G02*
X209804700Y-34092950I0J-218750D01*
G01*
X209804700Y-34605450D01*
G75*
G02*
X209585950Y-34824200I-218750J0D01*
G01*
X209148450Y-34824200D01*
G75*
G02*
X208929700Y-34605450I0J218750D01*
G01*
G37*
G36*
G01*
X207354700Y-34605450D02*
X207354700Y-34092950D01*
G75*
G02*
X207573450Y-33874200I218750J0D01*
G01*
X208010950Y-33874200D01*
G75*
G02*
X208229700Y-34092950I0J-218750D01*
G01*
X208229700Y-34605450D01*
G75*
G02*
X208010950Y-34824200I-218750J0D01*
G01*
X207573450Y-34824200D01*
G75*
G02*
X207354700Y-34605450I0J218750D01*
G01*
G37*
G04 #@! TD*
G04 #@! TO.C,R809*
G36*
G01*
X196473450Y-36010700D02*
X196985950Y-36010700D01*
G75*
G02*
X197204700Y-36229450I0J-218750D01*
G01*
X197204700Y-36666950D01*
G75*
G02*
X196985950Y-36885700I-218750J0D01*
G01*
X196473450Y-36885700D01*
G75*
G02*
X196254700Y-36666950I0J218750D01*
G01*
X196254700Y-36229450D01*
G75*
G02*
X196473450Y-36010700I218750J0D01*
G01*
G37*
G36*
G01*
X196473450Y-37585700D02*
X196985950Y-37585700D01*
G75*
G02*
X197204700Y-37804450I0J-218750D01*
G01*
X197204700Y-38241950D01*
G75*
G02*
X196985950Y-38460700I-218750J0D01*
G01*
X196473450Y-38460700D01*
G75*
G02*
X196254700Y-38241950I0J218750D01*
G01*
X196254700Y-37804450D01*
G75*
G02*
X196473450Y-37585700I218750J0D01*
G01*
G37*
G04 #@! TD*
G04 #@! TO.C,U801*
G36*
G01*
X208435000Y-38120400D02*
X208310000Y-38120400D01*
G75*
G02*
X208247500Y-38057900I0J62500D01*
G01*
X208247500Y-37732900D01*
G75*
G02*
X208310000Y-37670400I62500J0D01*
G01*
X208435000Y-37670400D01*
G75*
G02*
X208497500Y-37732900I0J-62500D01*
G01*
X208497500Y-38057900D01*
G75*
G02*
X208435000Y-38120400I-62500J0D01*
G01*
G37*
G36*
G01*
X208935000Y-38120400D02*
X208810000Y-38120400D01*
G75*
G02*
X208747500Y-38057900I0J62500D01*
G01*
X208747500Y-37732900D01*
G75*
G02*
X208810000Y-37670400I62500J0D01*
G01*
X208935000Y-37670400D01*
G75*
G02*
X208997500Y-37732900I0J-62500D01*
G01*
X208997500Y-38057900D01*
G75*
G02*
X208935000Y-38120400I-62500J0D01*
G01*
G37*
G36*
G01*
X207935000Y-38120400D02*
X207810000Y-38120400D01*
G75*
G02*
X207747500Y-38057900I0J62500D01*
G01*
X207747500Y-37732900D01*
G75*
G02*
X207810000Y-37670400I62500J0D01*
G01*
X207935000Y-37670400D01*
G75*
G02*
X207997500Y-37732900I0J-62500D01*
G01*
X207997500Y-38057900D01*
G75*
G02*
X207935000Y-38120400I-62500J0D01*
G01*
G37*
G36*
G01*
X207435000Y-38120400D02*
X207310000Y-38120400D01*
G75*
G02*
X207247500Y-38057900I0J62500D01*
G01*
X207247500Y-37732900D01*
G75*
G02*
X207310000Y-37670400I62500J0D01*
G01*
X207435000Y-37670400D01*
G75*
G02*
X207497500Y-37732900I0J-62500D01*
G01*
X207497500Y-38057900D01*
G75*
G02*
X207435000Y-38120400I-62500J0D01*
G01*
G37*
G36*
G01*
X208171670Y-40058365D02*
X208073330Y-40058365D01*
G75*
G02*
X208024160Y-40009195I0J49170D01*
G01*
X208024160Y-38681605D01*
G75*
G02*
X208073330Y-38632435I49170J0D01*
G01*
X208171670Y-38632435D01*
G75*
G02*
X208220840Y-38681605I0J-49170D01*
G01*
X208220840Y-40009195D01*
G75*
G02*
X208171670Y-40058365I-49170J0D01*
G01*
G37*
G36*
G01*
X208758548Y-40060855D02*
X208586452Y-40060855D01*
G75*
G02*
X208500405Y-39974808I0J86047D01*
G01*
X208500405Y-39015992D01*
G75*
G02*
X208586452Y-38929945I86047J0D01*
G01*
X208758548Y-38929945D01*
G75*
G02*
X208844595Y-39015992I0J-86047D01*
G01*
X208844595Y-39974808D01*
G75*
G02*
X208758548Y-40060855I-86047J0D01*
G01*
G37*
G36*
G01*
X207658548Y-40060855D02*
X207486452Y-40060855D01*
G75*
G02*
X207400405Y-39974808I0J86047D01*
G01*
X207400405Y-39015992D01*
G75*
G02*
X207486452Y-38929945I86047J0D01*
G01*
X207658548Y-38929945D01*
G75*
G02*
X207744595Y-39015992I0J-86047D01*
G01*
X207744595Y-39974808D01*
G75*
G02*
X207658548Y-40060855I-86047J0D01*
G01*
G37*
G04 #@! TD*
G04 #@! TO.C,R802*
G36*
G01*
X210961600Y-36154850D02*
X210961600Y-35642350D01*
G75*
G02*
X211180350Y-35423600I218750J0D01*
G01*
X211617850Y-35423600D01*
G75*
G02*
X211836600Y-35642350I0J-218750D01*
G01*
X211836600Y-36154850D01*
G75*
G02*
X211617850Y-36373600I-218750J0D01*
G01*
X211180350Y-36373600D01*
G75*
G02*
X210961600Y-36154850I0J218750D01*
G01*
G37*
G36*
G01*
X212536600Y-36154850D02*
X212536600Y-35642350D01*
G75*
G02*
X212755350Y-35423600I218750J0D01*
G01*
X213192850Y-35423600D01*
G75*
G02*
X213411600Y-35642350I0J-218750D01*
G01*
X213411600Y-36154850D01*
G75*
G02*
X213192850Y-36373600I-218750J0D01*
G01*
X212755350Y-36373600D01*
G75*
G02*
X212536600Y-36154850I0J218750D01*
G01*
G37*
G04 #@! TD*
G04 #@! TO.C,C801*
G36*
G01*
X207354700Y-36180250D02*
X207354700Y-35667750D01*
G75*
G02*
X207573450Y-35449000I218750J0D01*
G01*
X208010950Y-35449000D01*
G75*
G02*
X208229700Y-35667750I0J-218750D01*
G01*
X208229700Y-36180250D01*
G75*
G02*
X208010950Y-36399000I-218750J0D01*
G01*
X207573450Y-36399000D01*
G75*
G02*
X207354700Y-36180250I0J218750D01*
G01*
G37*
G36*
G01*
X208929700Y-36180250D02*
X208929700Y-35667750D01*
G75*
G02*
X209148450Y-35449000I218750J0D01*
G01*
X209585950Y-35449000D01*
G75*
G02*
X209804700Y-35667750I0J-218750D01*
G01*
X209804700Y-36180250D01*
G75*
G02*
X209585950Y-36399000I-218750J0D01*
G01*
X209148450Y-36399000D01*
G75*
G02*
X208929700Y-36180250I0J218750D01*
G01*
G37*
G04 #@! TD*
D11*
G04 #@! TO.C,U802*
X195295300Y-38048500D03*
X195295300Y-38548500D03*
X193795300Y-38048500D03*
X195295300Y-37548500D03*
X193795300Y-38548500D03*
X193795300Y-37548500D03*
G04 #@! TD*
G04 #@! TO.C,R803*
G36*
G01*
X212536600Y-34630850D02*
X212536600Y-34118350D01*
G75*
G02*
X212755350Y-33899600I218750J0D01*
G01*
X213192850Y-33899600D01*
G75*
G02*
X213411600Y-34118350I0J-218750D01*
G01*
X213411600Y-34630850D01*
G75*
G02*
X213192850Y-34849600I-218750J0D01*
G01*
X212755350Y-34849600D01*
G75*
G02*
X212536600Y-34630850I0J218750D01*
G01*
G37*
G36*
G01*
X210961600Y-34630850D02*
X210961600Y-34118350D01*
G75*
G02*
X211180350Y-33899600I218750J0D01*
G01*
X211617850Y-33899600D01*
G75*
G02*
X211836600Y-34118350I0J-218750D01*
G01*
X211836600Y-34630850D01*
G75*
G02*
X211617850Y-34849600I-218750J0D01*
G01*
X211180350Y-34849600D01*
G75*
G02*
X210961600Y-34630850I0J218750D01*
G01*
G37*
G04 #@! TD*
G04 #@! TO.C,C807*
G36*
G01*
X199521450Y-36010700D02*
X200033950Y-36010700D01*
G75*
G02*
X200252700Y-36229450I0J-218750D01*
G01*
X200252700Y-36666950D01*
G75*
G02*
X200033950Y-36885700I-218750J0D01*
G01*
X199521450Y-36885700D01*
G75*
G02*
X199302700Y-36666950I0J218750D01*
G01*
X199302700Y-36229450D01*
G75*
G02*
X199521450Y-36010700I218750J0D01*
G01*
G37*
G36*
G01*
X199521450Y-37585700D02*
X200033950Y-37585700D01*
G75*
G02*
X200252700Y-37804450I0J-218750D01*
G01*
X200252700Y-38241950D01*
G75*
G02*
X200033950Y-38460700I-218750J0D01*
G01*
X199521450Y-38460700D01*
G75*
G02*
X199302700Y-38241950I0J218750D01*
G01*
X199302700Y-37804450D01*
G75*
G02*
X199521450Y-37585700I218750J0D01*
G01*
G37*
G04 #@! TD*
G04 #@! TO.C,C805*
G36*
G01*
X210147500Y-44196200D02*
X210147500Y-46346200D01*
G75*
G02*
X209897500Y-46596200I-250000J0D01*
G01*
X209147500Y-46596200D01*
G75*
G02*
X208897500Y-46346200I0J250000D01*
G01*
X208897500Y-44196200D01*
G75*
G02*
X209147500Y-43946200I250000J0D01*
G01*
X209897500Y-43946200D01*
G75*
G02*
X210147500Y-44196200I0J-250000D01*
G01*
G37*
G36*
G01*
X207347500Y-44196200D02*
X207347500Y-46346200D01*
G75*
G02*
X207097500Y-46596200I-250000J0D01*
G01*
X206347500Y-46596200D01*
G75*
G02*
X206097500Y-46346200I0J250000D01*
G01*
X206097500Y-44196200D01*
G75*
G02*
X206347500Y-43946200I250000J0D01*
G01*
X207097500Y-43946200D01*
G75*
G02*
X207347500Y-44196200I0J-250000D01*
G01*
G37*
G04 #@! TD*
D12*
G04 #@! TO.C,L801*
X203956900Y-37415200D03*
X203956900Y-33315200D03*
G04 #@! TD*
G04 #@! TO.C,C810*
G36*
G01*
X193421900Y-33021550D02*
X193421900Y-32509050D01*
G75*
G02*
X193640650Y-32290300I218750J0D01*
G01*
X194078150Y-32290300D01*
G75*
G02*
X194296900Y-32509050I0J-218750D01*
G01*
X194296900Y-33021550D01*
G75*
G02*
X194078150Y-33240300I-218750J0D01*
G01*
X193640650Y-33240300D01*
G75*
G02*
X193421900Y-33021550I0J218750D01*
G01*
G37*
G36*
G01*
X194996900Y-33021550D02*
X194996900Y-32509050D01*
G75*
G02*
X195215650Y-32290300I218750J0D01*
G01*
X195653150Y-32290300D01*
G75*
G02*
X195871900Y-32509050I0J-218750D01*
G01*
X195871900Y-33021550D01*
G75*
G02*
X195653150Y-33240300I-218750J0D01*
G01*
X195215650Y-33240300D01*
G75*
G02*
X194996900Y-33021550I0J218750D01*
G01*
G37*
G04 #@! TD*
G04 #@! TO.C,C804*
G36*
G01*
X207347500Y-40945000D02*
X207347500Y-43095000D01*
G75*
G02*
X207097500Y-43345000I-250000J0D01*
G01*
X206347500Y-43345000D01*
G75*
G02*
X206097500Y-43095000I0J250000D01*
G01*
X206097500Y-40945000D01*
G75*
G02*
X206347500Y-40695000I250000J0D01*
G01*
X207097500Y-40695000D01*
G75*
G02*
X207347500Y-40945000I0J-250000D01*
G01*
G37*
G36*
G01*
X210147500Y-40945000D02*
X210147500Y-43095000D01*
G75*
G02*
X209897500Y-43345000I-250000J0D01*
G01*
X209147500Y-43345000D01*
G75*
G02*
X208897500Y-43095000I0J250000D01*
G01*
X208897500Y-40945000D01*
G75*
G02*
X209147500Y-40695000I250000J0D01*
G01*
X209897500Y-40695000D01*
G75*
G02*
X210147500Y-40945000I0J-250000D01*
G01*
G37*
G04 #@! TD*
G04 #@! TO.C,C809*
G36*
G01*
X194996900Y-34545550D02*
X194996900Y-34033050D01*
G75*
G02*
X195215650Y-33814300I218750J0D01*
G01*
X195653150Y-33814300D01*
G75*
G02*
X195871900Y-34033050I0J-218750D01*
G01*
X195871900Y-34545550D01*
G75*
G02*
X195653150Y-34764300I-218750J0D01*
G01*
X195215650Y-34764300D01*
G75*
G02*
X194996900Y-34545550I0J218750D01*
G01*
G37*
G36*
G01*
X193421900Y-34545550D02*
X193421900Y-34033050D01*
G75*
G02*
X193640650Y-33814300I218750J0D01*
G01*
X194078150Y-33814300D01*
G75*
G02*
X194296900Y-34033050I0J-218750D01*
G01*
X194296900Y-34545550D01*
G75*
G02*
X194078150Y-34764300I-218750J0D01*
G01*
X193640650Y-34764300D01*
G75*
G02*
X193421900Y-34545550I0J218750D01*
G01*
G37*
G04 #@! TD*
G04 #@! TO.C,C806*
G36*
G01*
X193117100Y-40336750D02*
X193117100Y-39824250D01*
G75*
G02*
X193335850Y-39605500I218750J0D01*
G01*
X193773350Y-39605500D01*
G75*
G02*
X193992100Y-39824250I0J-218750D01*
G01*
X193992100Y-40336750D01*
G75*
G02*
X193773350Y-40555500I-218750J0D01*
G01*
X193335850Y-40555500D01*
G75*
G02*
X193117100Y-40336750I0J218750D01*
G01*
G37*
G36*
G01*
X194692100Y-40336750D02*
X194692100Y-39824250D01*
G75*
G02*
X194910850Y-39605500I218750J0D01*
G01*
X195348350Y-39605500D01*
G75*
G02*
X195567100Y-39824250I0J-218750D01*
G01*
X195567100Y-40336750D01*
G75*
G02*
X195348350Y-40555500I-218750J0D01*
G01*
X194910850Y-40555500D01*
G75*
G02*
X194692100Y-40336750I0J218750D01*
G01*
G37*
G04 #@! TD*
G04 #@! TO.C,C803*
G36*
G01*
X213411600Y-37191750D02*
X213411600Y-37704250D01*
G75*
G02*
X213192850Y-37923000I-218750J0D01*
G01*
X212755350Y-37923000D01*
G75*
G02*
X212536600Y-37704250I0J218750D01*
G01*
X212536600Y-37191750D01*
G75*
G02*
X212755350Y-36973000I218750J0D01*
G01*
X213192850Y-36973000D01*
G75*
G02*
X213411600Y-37191750I0J-218750D01*
G01*
G37*
G36*
G01*
X211836600Y-37191750D02*
X211836600Y-37704250D01*
G75*
G02*
X211617850Y-37923000I-218750J0D01*
G01*
X211180350Y-37923000D01*
G75*
G02*
X210961600Y-37704250I0J218750D01*
G01*
X210961600Y-37191750D01*
G75*
G02*
X211180350Y-36973000I218750J0D01*
G01*
X211617850Y-36973000D01*
G75*
G02*
X211836600Y-37191750I0J-218750D01*
G01*
G37*
G04 #@! TD*
G04 #@! TO.C,C706*
G36*
G01*
X150519314Y-103390831D02*
X150872868Y-103744385D01*
G75*
G02*
X150872868Y-104062583I-159099J-159099D01*
G01*
X150554670Y-104380781D01*
G75*
G02*
X150236472Y-104380781I-159099J159099D01*
G01*
X149882918Y-104027227D01*
G75*
G02*
X149882918Y-103709029I159099J159099D01*
G01*
X150201116Y-103390831D01*
G75*
G02*
X150519314Y-103390831I159099J-159099D01*
G01*
G37*
G36*
G01*
X151615330Y-102294815D02*
X151968884Y-102648369D01*
G75*
G02*
X151968884Y-102966567I-159099J-159099D01*
G01*
X151650686Y-103284765D01*
G75*
G02*
X151332488Y-103284765I-159099J159099D01*
G01*
X150978934Y-102931211D01*
G75*
G02*
X150978934Y-102613013I159099J159099D01*
G01*
X151297132Y-102294815D01*
G75*
G02*
X151615330Y-102294815I159099J-159099D01*
G01*
G37*
G04 #@! TD*
G04 #@! TO.C,C705*
G36*
G01*
X152728882Y-103408367D02*
X153082436Y-103761921D01*
G75*
G02*
X153082436Y-104080119I-159099J-159099D01*
G01*
X152764238Y-104398317D01*
G75*
G02*
X152446040Y-104398317I-159099J159099D01*
G01*
X152092486Y-104044763D01*
G75*
G02*
X152092486Y-103726565I159099J159099D01*
G01*
X152410684Y-103408367D01*
G75*
G02*
X152728882Y-103408367I159099J-159099D01*
G01*
G37*
G36*
G01*
X151632866Y-104504383D02*
X151986420Y-104857937D01*
G75*
G02*
X151986420Y-105176135I-159099J-159099D01*
G01*
X151668222Y-105494333D01*
G75*
G02*
X151350024Y-105494333I-159099J159099D01*
G01*
X150996470Y-105140779D01*
G75*
G02*
X150996470Y-104822581I159099J159099D01*
G01*
X151314668Y-104504383D01*
G75*
G02*
X151632866Y-104504383I159099J-159099D01*
G01*
G37*
G04 #@! TD*
D13*
G04 #@! TO.C,Q303*
X155360000Y-42470000D03*
D14*
X155360000Y-36170000D03*
X153060000Y-36170000D03*
X157660000Y-36170000D03*
G04 #@! TD*
D15*
G04 #@! TO.C,SW401*
X170894600Y-112823000D03*
X170894600Y-108673000D03*
X173044600Y-112823000D03*
X173044600Y-108673000D03*
G04 #@! TD*
G04 #@! TO.C,R212*
G36*
G01*
X187045000Y-10695000D02*
X187595000Y-10695000D01*
G75*
G02*
X187795000Y-10895000I0J-200000D01*
G01*
X187795000Y-11295000D01*
G75*
G02*
X187595000Y-11495000I-200000J0D01*
G01*
X187045000Y-11495000D01*
G75*
G02*
X186845000Y-11295000I0J200000D01*
G01*
X186845000Y-10895000D01*
G75*
G02*
X187045000Y-10695000I200000J0D01*
G01*
G37*
G36*
G01*
X187045000Y-12345000D02*
X187595000Y-12345000D01*
G75*
G02*
X187795000Y-12545000I0J-200000D01*
G01*
X187795000Y-12945000D01*
G75*
G02*
X187595000Y-13145000I-200000J0D01*
G01*
X187045000Y-13145000D01*
G75*
G02*
X186845000Y-12945000I0J200000D01*
G01*
X186845000Y-12545000D01*
G75*
G02*
X187045000Y-12345000I200000J0D01*
G01*
G37*
G04 #@! TD*
G04 #@! TO.C,R204*
G36*
G01*
X176945000Y-12445000D02*
X176945000Y-12995000D01*
G75*
G02*
X176745000Y-13195000I-200000J0D01*
G01*
X176345000Y-13195000D01*
G75*
G02*
X176145000Y-12995000I0J200000D01*
G01*
X176145000Y-12445000D01*
G75*
G02*
X176345000Y-12245000I200000J0D01*
G01*
X176745000Y-12245000D01*
G75*
G02*
X176945000Y-12445000I0J-200000D01*
G01*
G37*
G36*
G01*
X175295000Y-12445000D02*
X175295000Y-12995000D01*
G75*
G02*
X175095000Y-13195000I-200000J0D01*
G01*
X174695000Y-13195000D01*
G75*
G02*
X174495000Y-12995000I0J200000D01*
G01*
X174495000Y-12445000D01*
G75*
G02*
X174695000Y-12245000I200000J0D01*
G01*
X175095000Y-12245000D01*
G75*
G02*
X175295000Y-12445000I0J-200000D01*
G01*
G37*
G04 #@! TD*
G04 #@! TO.C,C217*
G36*
G01*
X190925000Y-17570000D02*
X190925000Y-17070000D01*
G75*
G02*
X191150000Y-16845000I225000J0D01*
G01*
X191600000Y-16845000D01*
G75*
G02*
X191825000Y-17070000I0J-225000D01*
G01*
X191825000Y-17570000D01*
G75*
G02*
X191600000Y-17795000I-225000J0D01*
G01*
X191150000Y-17795000D01*
G75*
G02*
X190925000Y-17570000I0J225000D01*
G01*
G37*
G36*
G01*
X192475000Y-17570000D02*
X192475000Y-17070000D01*
G75*
G02*
X192700000Y-16845000I225000J0D01*
G01*
X193150000Y-16845000D01*
G75*
G02*
X193375000Y-17070000I0J-225000D01*
G01*
X193375000Y-17570000D01*
G75*
G02*
X193150000Y-17795000I-225000J0D01*
G01*
X192700000Y-17795000D01*
G75*
G02*
X192475000Y-17570000I0J225000D01*
G01*
G37*
G04 #@! TD*
G04 #@! TO.C,FB201*
G36*
G01*
X175245000Y-26256250D02*
X175245000Y-25743750D01*
G75*
G02*
X175463750Y-25525000I218750J0D01*
G01*
X175901250Y-25525000D01*
G75*
G02*
X176120000Y-25743750I0J-218750D01*
G01*
X176120000Y-26256250D01*
G75*
G02*
X175901250Y-26475000I-218750J0D01*
G01*
X175463750Y-26475000D01*
G75*
G02*
X175245000Y-26256250I0J218750D01*
G01*
G37*
G36*
G01*
X176820000Y-26256250D02*
X176820000Y-25743750D01*
G75*
G02*
X177038750Y-25525000I218750J0D01*
G01*
X177476250Y-25525000D01*
G75*
G02*
X177695000Y-25743750I0J-218750D01*
G01*
X177695000Y-26256250D01*
G75*
G02*
X177476250Y-26475000I-218750J0D01*
G01*
X177038750Y-26475000D01*
G75*
G02*
X176820000Y-26256250I0J218750D01*
G01*
G37*
G04 #@! TD*
G04 #@! TO.C,R209*
G36*
G01*
X189545000Y-19095000D02*
X190095000Y-19095000D01*
G75*
G02*
X190295000Y-19295000I0J-200000D01*
G01*
X190295000Y-19695000D01*
G75*
G02*
X190095000Y-19895000I-200000J0D01*
G01*
X189545000Y-19895000D01*
G75*
G02*
X189345000Y-19695000I0J200000D01*
G01*
X189345000Y-19295000D01*
G75*
G02*
X189545000Y-19095000I200000J0D01*
G01*
G37*
G36*
G01*
X189545000Y-20745000D02*
X190095000Y-20745000D01*
G75*
G02*
X190295000Y-20945000I0J-200000D01*
G01*
X190295000Y-21345000D01*
G75*
G02*
X190095000Y-21545000I-200000J0D01*
G01*
X189545000Y-21545000D01*
G75*
G02*
X189345000Y-21345000I0J200000D01*
G01*
X189345000Y-20945000D01*
G75*
G02*
X189545000Y-20745000I200000J0D01*
G01*
G37*
G04 #@! TD*
G04 #@! TO.C,C201*
G36*
G01*
X190925000Y-26530000D02*
X190925000Y-26030000D01*
G75*
G02*
X191150000Y-25805000I225000J0D01*
G01*
X191600000Y-25805000D01*
G75*
G02*
X191825000Y-26030000I0J-225000D01*
G01*
X191825000Y-26530000D01*
G75*
G02*
X191600000Y-26755000I-225000J0D01*
G01*
X191150000Y-26755000D01*
G75*
G02*
X190925000Y-26530000I0J225000D01*
G01*
G37*
G36*
G01*
X192475000Y-26530000D02*
X192475000Y-26030000D01*
G75*
G02*
X192700000Y-25805000I225000J0D01*
G01*
X193150000Y-25805000D01*
G75*
G02*
X193375000Y-26030000I0J-225000D01*
G01*
X193375000Y-26530000D01*
G75*
G02*
X193150000Y-26755000I-225000J0D01*
G01*
X192700000Y-26755000D01*
G75*
G02*
X192475000Y-26530000I0J225000D01*
G01*
G37*
G04 #@! TD*
G04 #@! TO.C,R210*
G36*
G01*
X190085000Y-10695000D02*
X190635000Y-10695000D01*
G75*
G02*
X190835000Y-10895000I0J-200000D01*
G01*
X190835000Y-11295000D01*
G75*
G02*
X190635000Y-11495000I-200000J0D01*
G01*
X190085000Y-11495000D01*
G75*
G02*
X189885000Y-11295000I0J200000D01*
G01*
X189885000Y-10895000D01*
G75*
G02*
X190085000Y-10695000I200000J0D01*
G01*
G37*
G36*
G01*
X190085000Y-12345000D02*
X190635000Y-12345000D01*
G75*
G02*
X190835000Y-12545000I0J-200000D01*
G01*
X190835000Y-12945000D01*
G75*
G02*
X190635000Y-13145000I-200000J0D01*
G01*
X190085000Y-13145000D01*
G75*
G02*
X189885000Y-12945000I0J200000D01*
G01*
X189885000Y-12545000D01*
G75*
G02*
X190085000Y-12345000I200000J0D01*
G01*
G37*
G04 #@! TD*
G04 #@! TO.C,R215*
G36*
G01*
X187995000Y-29545000D02*
X187445000Y-29545000D01*
G75*
G02*
X187245000Y-29345000I0J200000D01*
G01*
X187245000Y-28945000D01*
G75*
G02*
X187445000Y-28745000I200000J0D01*
G01*
X187995000Y-28745000D01*
G75*
G02*
X188195000Y-28945000I0J-200000D01*
G01*
X188195000Y-29345000D01*
G75*
G02*
X187995000Y-29545000I-200000J0D01*
G01*
G37*
G36*
G01*
X187995000Y-27895000D02*
X187445000Y-27895000D01*
G75*
G02*
X187245000Y-27695000I0J200000D01*
G01*
X187245000Y-27295000D01*
G75*
G02*
X187445000Y-27095000I200000J0D01*
G01*
X187995000Y-27095000D01*
G75*
G02*
X188195000Y-27295000I0J-200000D01*
G01*
X188195000Y-27695000D01*
G75*
G02*
X187995000Y-27895000I-200000J0D01*
G01*
G37*
G04 #@! TD*
G04 #@! TO.C,JP203*
G36*
G01*
X182419500Y-12196000D02*
X182620500Y-12196000D01*
G75*
G02*
X182700000Y-12275500I0J-79500D01*
G01*
X182700000Y-12434500D01*
G75*
G02*
X182620500Y-12514000I-79500J0D01*
G01*
X182419500Y-12514000D01*
G75*
G02*
X182340000Y-12434500I0J79500D01*
G01*
X182340000Y-12275500D01*
G75*
G02*
X182419500Y-12196000I79500J0D01*
G01*
G37*
G36*
G01*
X182419500Y-12886000D02*
X182620500Y-12886000D01*
G75*
G02*
X182700000Y-12965500I0J-79500D01*
G01*
X182700000Y-13124500D01*
G75*
G02*
X182620500Y-13204000I-79500J0D01*
G01*
X182419500Y-13204000D01*
G75*
G02*
X182340000Y-13124500I0J79500D01*
G01*
X182340000Y-12965500D01*
G75*
G02*
X182419500Y-12886000I79500J0D01*
G01*
G37*
G04 #@! TD*
G04 #@! TO.C,C205*
G36*
G01*
X176945000Y-18270000D02*
X176945000Y-18770000D01*
G75*
G02*
X176720000Y-18995000I-225000J0D01*
G01*
X176270000Y-18995000D01*
G75*
G02*
X176045000Y-18770000I0J225000D01*
G01*
X176045000Y-18270000D01*
G75*
G02*
X176270000Y-18045000I225000J0D01*
G01*
X176720000Y-18045000D01*
G75*
G02*
X176945000Y-18270000I0J-225000D01*
G01*
G37*
G36*
G01*
X175395000Y-18270000D02*
X175395000Y-18770000D01*
G75*
G02*
X175170000Y-18995000I-225000J0D01*
G01*
X174720000Y-18995000D01*
G75*
G02*
X174495000Y-18770000I0J225000D01*
G01*
X174495000Y-18270000D01*
G75*
G02*
X174720000Y-18045000I225000J0D01*
G01*
X175170000Y-18045000D01*
G75*
G02*
X175395000Y-18270000I0J-225000D01*
G01*
G37*
G04 #@! TD*
G04 #@! TO.C,C207*
G36*
G01*
X184270000Y-27095000D02*
X184770000Y-27095000D01*
G75*
G02*
X184995000Y-27320000I0J-225000D01*
G01*
X184995000Y-27770000D01*
G75*
G02*
X184770000Y-27995000I-225000J0D01*
G01*
X184270000Y-27995000D01*
G75*
G02*
X184045000Y-27770000I0J225000D01*
G01*
X184045000Y-27320000D01*
G75*
G02*
X184270000Y-27095000I225000J0D01*
G01*
G37*
G36*
G01*
X184270000Y-28645000D02*
X184770000Y-28645000D01*
G75*
G02*
X184995000Y-28870000I0J-225000D01*
G01*
X184995000Y-29320000D01*
G75*
G02*
X184770000Y-29545000I-225000J0D01*
G01*
X184270000Y-29545000D01*
G75*
G02*
X184045000Y-29320000I0J225000D01*
G01*
X184045000Y-28870000D01*
G75*
G02*
X184270000Y-28645000I225000J0D01*
G01*
G37*
G04 #@! TD*
G04 #@! TO.C,C209*
G36*
G01*
X178670000Y-27095000D02*
X179170000Y-27095000D01*
G75*
G02*
X179395000Y-27320000I0J-225000D01*
G01*
X179395000Y-27770000D01*
G75*
G02*
X179170000Y-27995000I-225000J0D01*
G01*
X178670000Y-27995000D01*
G75*
G02*
X178445000Y-27770000I0J225000D01*
G01*
X178445000Y-27320000D01*
G75*
G02*
X178670000Y-27095000I225000J0D01*
G01*
G37*
G36*
G01*
X178670000Y-28645000D02*
X179170000Y-28645000D01*
G75*
G02*
X179395000Y-28870000I0J-225000D01*
G01*
X179395000Y-29320000D01*
G75*
G02*
X179170000Y-29545000I-225000J0D01*
G01*
X178670000Y-29545000D01*
G75*
G02*
X178445000Y-29320000I0J225000D01*
G01*
X178445000Y-28870000D01*
G75*
G02*
X178670000Y-28645000I225000J0D01*
G01*
G37*
G04 #@! TD*
G04 #@! TO.C,R205*
G36*
G01*
X176945000Y-10895000D02*
X176945000Y-11445000D01*
G75*
G02*
X176745000Y-11645000I-200000J0D01*
G01*
X176345000Y-11645000D01*
G75*
G02*
X176145000Y-11445000I0J200000D01*
G01*
X176145000Y-10895000D01*
G75*
G02*
X176345000Y-10695000I200000J0D01*
G01*
X176745000Y-10695000D01*
G75*
G02*
X176945000Y-10895000I0J-200000D01*
G01*
G37*
G36*
G01*
X175295000Y-10895000D02*
X175295000Y-11445000D01*
G75*
G02*
X175095000Y-11645000I-200000J0D01*
G01*
X174695000Y-11645000D01*
G75*
G02*
X174495000Y-11445000I0J200000D01*
G01*
X174495000Y-10895000D01*
G75*
G02*
X174695000Y-10695000I200000J0D01*
G01*
X175095000Y-10695000D01*
G75*
G02*
X175295000Y-10895000I0J-200000D01*
G01*
G37*
G04 #@! TD*
D16*
G04 #@! TO.C,Y201*
X191520000Y-19120000D03*
X191520000Y-21320000D03*
X193220000Y-21320000D03*
X193220000Y-19120000D03*
G04 #@! TD*
G04 #@! TO.C,U201*
G36*
G01*
X178620000Y-17445000D02*
X178620000Y-17295000D01*
G75*
G02*
X178695000Y-17220000I75000J0D01*
G01*
X180020000Y-17220000D01*
G75*
G02*
X180095000Y-17295000I0J-75000D01*
G01*
X180095000Y-17445000D01*
G75*
G02*
X180020000Y-17520000I-75000J0D01*
G01*
X178695000Y-17520000D01*
G75*
G02*
X178620000Y-17445000I0J75000D01*
G01*
G37*
G36*
G01*
X178620000Y-17945000D02*
X178620000Y-17795000D01*
G75*
G02*
X178695000Y-17720000I75000J0D01*
G01*
X180020000Y-17720000D01*
G75*
G02*
X180095000Y-17795000I0J-75000D01*
G01*
X180095000Y-17945000D01*
G75*
G02*
X180020000Y-18020000I-75000J0D01*
G01*
X178695000Y-18020000D01*
G75*
G02*
X178620000Y-17945000I0J75000D01*
G01*
G37*
G36*
G01*
X178620000Y-18445000D02*
X178620000Y-18295000D01*
G75*
G02*
X178695000Y-18220000I75000J0D01*
G01*
X180020000Y-18220000D01*
G75*
G02*
X180095000Y-18295000I0J-75000D01*
G01*
X180095000Y-18445000D01*
G75*
G02*
X180020000Y-18520000I-75000J0D01*
G01*
X178695000Y-18520000D01*
G75*
G02*
X178620000Y-18445000I0J75000D01*
G01*
G37*
G36*
G01*
X178620000Y-18945000D02*
X178620000Y-18795000D01*
G75*
G02*
X178695000Y-18720000I75000J0D01*
G01*
X180020000Y-18720000D01*
G75*
G02*
X180095000Y-18795000I0J-75000D01*
G01*
X180095000Y-18945000D01*
G75*
G02*
X180020000Y-19020000I-75000J0D01*
G01*
X178695000Y-19020000D01*
G75*
G02*
X178620000Y-18945000I0J75000D01*
G01*
G37*
G36*
G01*
X178620000Y-19445000D02*
X178620000Y-19295000D01*
G75*
G02*
X178695000Y-19220000I75000J0D01*
G01*
X180020000Y-19220000D01*
G75*
G02*
X180095000Y-19295000I0J-75000D01*
G01*
X180095000Y-19445000D01*
G75*
G02*
X180020000Y-19520000I-75000J0D01*
G01*
X178695000Y-19520000D01*
G75*
G02*
X178620000Y-19445000I0J75000D01*
G01*
G37*
G36*
G01*
X178620000Y-19945000D02*
X178620000Y-19795000D01*
G75*
G02*
X178695000Y-19720000I75000J0D01*
G01*
X180020000Y-19720000D01*
G75*
G02*
X180095000Y-19795000I0J-75000D01*
G01*
X180095000Y-19945000D01*
G75*
G02*
X180020000Y-20020000I-75000J0D01*
G01*
X178695000Y-20020000D01*
G75*
G02*
X178620000Y-19945000I0J75000D01*
G01*
G37*
G36*
G01*
X178620000Y-20445000D02*
X178620000Y-20295000D01*
G75*
G02*
X178695000Y-20220000I75000J0D01*
G01*
X180020000Y-20220000D01*
G75*
G02*
X180095000Y-20295000I0J-75000D01*
G01*
X180095000Y-20445000D01*
G75*
G02*
X180020000Y-20520000I-75000J0D01*
G01*
X178695000Y-20520000D01*
G75*
G02*
X178620000Y-20445000I0J75000D01*
G01*
G37*
G36*
G01*
X178620000Y-20945000D02*
X178620000Y-20795000D01*
G75*
G02*
X178695000Y-20720000I75000J0D01*
G01*
X180020000Y-20720000D01*
G75*
G02*
X180095000Y-20795000I0J-75000D01*
G01*
X180095000Y-20945000D01*
G75*
G02*
X180020000Y-21020000I-75000J0D01*
G01*
X178695000Y-21020000D01*
G75*
G02*
X178620000Y-20945000I0J75000D01*
G01*
G37*
G36*
G01*
X178620000Y-21445000D02*
X178620000Y-21295000D01*
G75*
G02*
X178695000Y-21220000I75000J0D01*
G01*
X180020000Y-21220000D01*
G75*
G02*
X180095000Y-21295000I0J-75000D01*
G01*
X180095000Y-21445000D01*
G75*
G02*
X180020000Y-21520000I-75000J0D01*
G01*
X178695000Y-21520000D01*
G75*
G02*
X178620000Y-21445000I0J75000D01*
G01*
G37*
G36*
G01*
X178620000Y-21945000D02*
X178620000Y-21795000D01*
G75*
G02*
X178695000Y-21720000I75000J0D01*
G01*
X180020000Y-21720000D01*
G75*
G02*
X180095000Y-21795000I0J-75000D01*
G01*
X180095000Y-21945000D01*
G75*
G02*
X180020000Y-22020000I-75000J0D01*
G01*
X178695000Y-22020000D01*
G75*
G02*
X178620000Y-21945000I0J75000D01*
G01*
G37*
G36*
G01*
X178620000Y-22445000D02*
X178620000Y-22295000D01*
G75*
G02*
X178695000Y-22220000I75000J0D01*
G01*
X180020000Y-22220000D01*
G75*
G02*
X180095000Y-22295000I0J-75000D01*
G01*
X180095000Y-22445000D01*
G75*
G02*
X180020000Y-22520000I-75000J0D01*
G01*
X178695000Y-22520000D01*
G75*
G02*
X178620000Y-22445000I0J75000D01*
G01*
G37*
G36*
G01*
X178620000Y-22945000D02*
X178620000Y-22795000D01*
G75*
G02*
X178695000Y-22720000I75000J0D01*
G01*
X180020000Y-22720000D01*
G75*
G02*
X180095000Y-22795000I0J-75000D01*
G01*
X180095000Y-22945000D01*
G75*
G02*
X180020000Y-23020000I-75000J0D01*
G01*
X178695000Y-23020000D01*
G75*
G02*
X178620000Y-22945000I0J75000D01*
G01*
G37*
G36*
G01*
X180620000Y-24945000D02*
X180620000Y-23620000D01*
G75*
G02*
X180695000Y-23545000I75000J0D01*
G01*
X180845000Y-23545000D01*
G75*
G02*
X180920000Y-23620000I0J-75000D01*
G01*
X180920000Y-24945000D01*
G75*
G02*
X180845000Y-25020000I-75000J0D01*
G01*
X180695000Y-25020000D01*
G75*
G02*
X180620000Y-24945000I0J75000D01*
G01*
G37*
G36*
G01*
X181120000Y-24945000D02*
X181120000Y-23620000D01*
G75*
G02*
X181195000Y-23545000I75000J0D01*
G01*
X181345000Y-23545000D01*
G75*
G02*
X181420000Y-23620000I0J-75000D01*
G01*
X181420000Y-24945000D01*
G75*
G02*
X181345000Y-25020000I-75000J0D01*
G01*
X181195000Y-25020000D01*
G75*
G02*
X181120000Y-24945000I0J75000D01*
G01*
G37*
G36*
G01*
X181620000Y-24945000D02*
X181620000Y-23620000D01*
G75*
G02*
X181695000Y-23545000I75000J0D01*
G01*
X181845000Y-23545000D01*
G75*
G02*
X181920000Y-23620000I0J-75000D01*
G01*
X181920000Y-24945000D01*
G75*
G02*
X181845000Y-25020000I-75000J0D01*
G01*
X181695000Y-25020000D01*
G75*
G02*
X181620000Y-24945000I0J75000D01*
G01*
G37*
G36*
G01*
X182120000Y-24945000D02*
X182120000Y-23620000D01*
G75*
G02*
X182195000Y-23545000I75000J0D01*
G01*
X182345000Y-23545000D01*
G75*
G02*
X182420000Y-23620000I0J-75000D01*
G01*
X182420000Y-24945000D01*
G75*
G02*
X182345000Y-25020000I-75000J0D01*
G01*
X182195000Y-25020000D01*
G75*
G02*
X182120000Y-24945000I0J75000D01*
G01*
G37*
G36*
G01*
X182620000Y-24945000D02*
X182620000Y-23620000D01*
G75*
G02*
X182695000Y-23545000I75000J0D01*
G01*
X182845000Y-23545000D01*
G75*
G02*
X182920000Y-23620000I0J-75000D01*
G01*
X182920000Y-24945000D01*
G75*
G02*
X182845000Y-25020000I-75000J0D01*
G01*
X182695000Y-25020000D01*
G75*
G02*
X182620000Y-24945000I0J75000D01*
G01*
G37*
G36*
G01*
X183120000Y-24945000D02*
X183120000Y-23620000D01*
G75*
G02*
X183195000Y-23545000I75000J0D01*
G01*
X183345000Y-23545000D01*
G75*
G02*
X183420000Y-23620000I0J-75000D01*
G01*
X183420000Y-24945000D01*
G75*
G02*
X183345000Y-25020000I-75000J0D01*
G01*
X183195000Y-25020000D01*
G75*
G02*
X183120000Y-24945000I0J75000D01*
G01*
G37*
G36*
G01*
X183620000Y-24945000D02*
X183620000Y-23620000D01*
G75*
G02*
X183695000Y-23545000I75000J0D01*
G01*
X183845000Y-23545000D01*
G75*
G02*
X183920000Y-23620000I0J-75000D01*
G01*
X183920000Y-24945000D01*
G75*
G02*
X183845000Y-25020000I-75000J0D01*
G01*
X183695000Y-25020000D01*
G75*
G02*
X183620000Y-24945000I0J75000D01*
G01*
G37*
G36*
G01*
X184120000Y-24945000D02*
X184120000Y-23620000D01*
G75*
G02*
X184195000Y-23545000I75000J0D01*
G01*
X184345000Y-23545000D01*
G75*
G02*
X184420000Y-23620000I0J-75000D01*
G01*
X184420000Y-24945000D01*
G75*
G02*
X184345000Y-25020000I-75000J0D01*
G01*
X184195000Y-25020000D01*
G75*
G02*
X184120000Y-24945000I0J75000D01*
G01*
G37*
G36*
G01*
X184620000Y-24945000D02*
X184620000Y-23620000D01*
G75*
G02*
X184695000Y-23545000I75000J0D01*
G01*
X184845000Y-23545000D01*
G75*
G02*
X184920000Y-23620000I0J-75000D01*
G01*
X184920000Y-24945000D01*
G75*
G02*
X184845000Y-25020000I-75000J0D01*
G01*
X184695000Y-25020000D01*
G75*
G02*
X184620000Y-24945000I0J75000D01*
G01*
G37*
G36*
G01*
X185120000Y-24945000D02*
X185120000Y-23620000D01*
G75*
G02*
X185195000Y-23545000I75000J0D01*
G01*
X185345000Y-23545000D01*
G75*
G02*
X185420000Y-23620000I0J-75000D01*
G01*
X185420000Y-24945000D01*
G75*
G02*
X185345000Y-25020000I-75000J0D01*
G01*
X185195000Y-25020000D01*
G75*
G02*
X185120000Y-24945000I0J75000D01*
G01*
G37*
G36*
G01*
X185620000Y-24945000D02*
X185620000Y-23620000D01*
G75*
G02*
X185695000Y-23545000I75000J0D01*
G01*
X185845000Y-23545000D01*
G75*
G02*
X185920000Y-23620000I0J-75000D01*
G01*
X185920000Y-24945000D01*
G75*
G02*
X185845000Y-25020000I-75000J0D01*
G01*
X185695000Y-25020000D01*
G75*
G02*
X185620000Y-24945000I0J75000D01*
G01*
G37*
G36*
G01*
X186120000Y-24945000D02*
X186120000Y-23620000D01*
G75*
G02*
X186195000Y-23545000I75000J0D01*
G01*
X186345000Y-23545000D01*
G75*
G02*
X186420000Y-23620000I0J-75000D01*
G01*
X186420000Y-24945000D01*
G75*
G02*
X186345000Y-25020000I-75000J0D01*
G01*
X186195000Y-25020000D01*
G75*
G02*
X186120000Y-24945000I0J75000D01*
G01*
G37*
G36*
G01*
X186945000Y-22945000D02*
X186945000Y-22795000D01*
G75*
G02*
X187020000Y-22720000I75000J0D01*
G01*
X188345000Y-22720000D01*
G75*
G02*
X188420000Y-22795000I0J-75000D01*
G01*
X188420000Y-22945000D01*
G75*
G02*
X188345000Y-23020000I-75000J0D01*
G01*
X187020000Y-23020000D01*
G75*
G02*
X186945000Y-22945000I0J75000D01*
G01*
G37*
G36*
G01*
X186945000Y-22445000D02*
X186945000Y-22295000D01*
G75*
G02*
X187020000Y-22220000I75000J0D01*
G01*
X188345000Y-22220000D01*
G75*
G02*
X188420000Y-22295000I0J-75000D01*
G01*
X188420000Y-22445000D01*
G75*
G02*
X188345000Y-22520000I-75000J0D01*
G01*
X187020000Y-22520000D01*
G75*
G02*
X186945000Y-22445000I0J75000D01*
G01*
G37*
G36*
G01*
X186945000Y-21945000D02*
X186945000Y-21795000D01*
G75*
G02*
X187020000Y-21720000I75000J0D01*
G01*
X188345000Y-21720000D01*
G75*
G02*
X188420000Y-21795000I0J-75000D01*
G01*
X188420000Y-21945000D01*
G75*
G02*
X188345000Y-22020000I-75000J0D01*
G01*
X187020000Y-22020000D01*
G75*
G02*
X186945000Y-21945000I0J75000D01*
G01*
G37*
G36*
G01*
X186945000Y-21445000D02*
X186945000Y-21295000D01*
G75*
G02*
X187020000Y-21220000I75000J0D01*
G01*
X188345000Y-21220000D01*
G75*
G02*
X188420000Y-21295000I0J-75000D01*
G01*
X188420000Y-21445000D01*
G75*
G02*
X188345000Y-21520000I-75000J0D01*
G01*
X187020000Y-21520000D01*
G75*
G02*
X186945000Y-21445000I0J75000D01*
G01*
G37*
G36*
G01*
X186945000Y-20945000D02*
X186945000Y-20795000D01*
G75*
G02*
X187020000Y-20720000I75000J0D01*
G01*
X188345000Y-20720000D01*
G75*
G02*
X188420000Y-20795000I0J-75000D01*
G01*
X188420000Y-20945000D01*
G75*
G02*
X188345000Y-21020000I-75000J0D01*
G01*
X187020000Y-21020000D01*
G75*
G02*
X186945000Y-20945000I0J75000D01*
G01*
G37*
G36*
G01*
X186945000Y-20445000D02*
X186945000Y-20295000D01*
G75*
G02*
X187020000Y-20220000I75000J0D01*
G01*
X188345000Y-20220000D01*
G75*
G02*
X188420000Y-20295000I0J-75000D01*
G01*
X188420000Y-20445000D01*
G75*
G02*
X188345000Y-20520000I-75000J0D01*
G01*
X187020000Y-20520000D01*
G75*
G02*
X186945000Y-20445000I0J75000D01*
G01*
G37*
G36*
G01*
X186945000Y-19945000D02*
X186945000Y-19795000D01*
G75*
G02*
X187020000Y-19720000I75000J0D01*
G01*
X188345000Y-19720000D01*
G75*
G02*
X188420000Y-19795000I0J-75000D01*
G01*
X188420000Y-19945000D01*
G75*
G02*
X188345000Y-20020000I-75000J0D01*
G01*
X187020000Y-20020000D01*
G75*
G02*
X186945000Y-19945000I0J75000D01*
G01*
G37*
G36*
G01*
X186945000Y-19445000D02*
X186945000Y-19295000D01*
G75*
G02*
X187020000Y-19220000I75000J0D01*
G01*
X188345000Y-19220000D01*
G75*
G02*
X188420000Y-19295000I0J-75000D01*
G01*
X188420000Y-19445000D01*
G75*
G02*
X188345000Y-19520000I-75000J0D01*
G01*
X187020000Y-19520000D01*
G75*
G02*
X186945000Y-19445000I0J75000D01*
G01*
G37*
G36*
G01*
X186945000Y-18945000D02*
X186945000Y-18795000D01*
G75*
G02*
X187020000Y-18720000I75000J0D01*
G01*
X188345000Y-18720000D01*
G75*
G02*
X188420000Y-18795000I0J-75000D01*
G01*
X188420000Y-18945000D01*
G75*
G02*
X188345000Y-19020000I-75000J0D01*
G01*
X187020000Y-19020000D01*
G75*
G02*
X186945000Y-18945000I0J75000D01*
G01*
G37*
G36*
G01*
X186945000Y-18445000D02*
X186945000Y-18295000D01*
G75*
G02*
X187020000Y-18220000I75000J0D01*
G01*
X188345000Y-18220000D01*
G75*
G02*
X188420000Y-18295000I0J-75000D01*
G01*
X188420000Y-18445000D01*
G75*
G02*
X188345000Y-18520000I-75000J0D01*
G01*
X187020000Y-18520000D01*
G75*
G02*
X186945000Y-18445000I0J75000D01*
G01*
G37*
G36*
G01*
X186945000Y-17945000D02*
X186945000Y-17795000D01*
G75*
G02*
X187020000Y-17720000I75000J0D01*
G01*
X188345000Y-17720000D01*
G75*
G02*
X188420000Y-17795000I0J-75000D01*
G01*
X188420000Y-17945000D01*
G75*
G02*
X188345000Y-18020000I-75000J0D01*
G01*
X187020000Y-18020000D01*
G75*
G02*
X186945000Y-17945000I0J75000D01*
G01*
G37*
G36*
G01*
X186945000Y-17445000D02*
X186945000Y-17295000D01*
G75*
G02*
X187020000Y-17220000I75000J0D01*
G01*
X188345000Y-17220000D01*
G75*
G02*
X188420000Y-17295000I0J-75000D01*
G01*
X188420000Y-17445000D01*
G75*
G02*
X188345000Y-17520000I-75000J0D01*
G01*
X187020000Y-17520000D01*
G75*
G02*
X186945000Y-17445000I0J75000D01*
G01*
G37*
G36*
G01*
X186120000Y-16620000D02*
X186120000Y-15295000D01*
G75*
G02*
X186195000Y-15220000I75000J0D01*
G01*
X186345000Y-15220000D01*
G75*
G02*
X186420000Y-15295000I0J-75000D01*
G01*
X186420000Y-16620000D01*
G75*
G02*
X186345000Y-16695000I-75000J0D01*
G01*
X186195000Y-16695000D01*
G75*
G02*
X186120000Y-16620000I0J75000D01*
G01*
G37*
G36*
G01*
X185620000Y-16620000D02*
X185620000Y-15295000D01*
G75*
G02*
X185695000Y-15220000I75000J0D01*
G01*
X185845000Y-15220000D01*
G75*
G02*
X185920000Y-15295000I0J-75000D01*
G01*
X185920000Y-16620000D01*
G75*
G02*
X185845000Y-16695000I-75000J0D01*
G01*
X185695000Y-16695000D01*
G75*
G02*
X185620000Y-16620000I0J75000D01*
G01*
G37*
G36*
G01*
X185120000Y-16620000D02*
X185120000Y-15295000D01*
G75*
G02*
X185195000Y-15220000I75000J0D01*
G01*
X185345000Y-15220000D01*
G75*
G02*
X185420000Y-15295000I0J-75000D01*
G01*
X185420000Y-16620000D01*
G75*
G02*
X185345000Y-16695000I-75000J0D01*
G01*
X185195000Y-16695000D01*
G75*
G02*
X185120000Y-16620000I0J75000D01*
G01*
G37*
G36*
G01*
X184620000Y-16620000D02*
X184620000Y-15295000D01*
G75*
G02*
X184695000Y-15220000I75000J0D01*
G01*
X184845000Y-15220000D01*
G75*
G02*
X184920000Y-15295000I0J-75000D01*
G01*
X184920000Y-16620000D01*
G75*
G02*
X184845000Y-16695000I-75000J0D01*
G01*
X184695000Y-16695000D01*
G75*
G02*
X184620000Y-16620000I0J75000D01*
G01*
G37*
G36*
G01*
X184120000Y-16620000D02*
X184120000Y-15295000D01*
G75*
G02*
X184195000Y-15220000I75000J0D01*
G01*
X184345000Y-15220000D01*
G75*
G02*
X184420000Y-15295000I0J-75000D01*
G01*
X184420000Y-16620000D01*
G75*
G02*
X184345000Y-16695000I-75000J0D01*
G01*
X184195000Y-16695000D01*
G75*
G02*
X184120000Y-16620000I0J75000D01*
G01*
G37*
G36*
G01*
X183620000Y-16620000D02*
X183620000Y-15295000D01*
G75*
G02*
X183695000Y-15220000I75000J0D01*
G01*
X183845000Y-15220000D01*
G75*
G02*
X183920000Y-15295000I0J-75000D01*
G01*
X183920000Y-16620000D01*
G75*
G02*
X183845000Y-16695000I-75000J0D01*
G01*
X183695000Y-16695000D01*
G75*
G02*
X183620000Y-16620000I0J75000D01*
G01*
G37*
G36*
G01*
X183120000Y-16620000D02*
X183120000Y-15295000D01*
G75*
G02*
X183195000Y-15220000I75000J0D01*
G01*
X183345000Y-15220000D01*
G75*
G02*
X183420000Y-15295000I0J-75000D01*
G01*
X183420000Y-16620000D01*
G75*
G02*
X183345000Y-16695000I-75000J0D01*
G01*
X183195000Y-16695000D01*
G75*
G02*
X183120000Y-16620000I0J75000D01*
G01*
G37*
G36*
G01*
X182620000Y-16620000D02*
X182620000Y-15295000D01*
G75*
G02*
X182695000Y-15220000I75000J0D01*
G01*
X182845000Y-15220000D01*
G75*
G02*
X182920000Y-15295000I0J-75000D01*
G01*
X182920000Y-16620000D01*
G75*
G02*
X182845000Y-16695000I-75000J0D01*
G01*
X182695000Y-16695000D01*
G75*
G02*
X182620000Y-16620000I0J75000D01*
G01*
G37*
G36*
G01*
X182120000Y-16620000D02*
X182120000Y-15295000D01*
G75*
G02*
X182195000Y-15220000I75000J0D01*
G01*
X182345000Y-15220000D01*
G75*
G02*
X182420000Y-15295000I0J-75000D01*
G01*
X182420000Y-16620000D01*
G75*
G02*
X182345000Y-16695000I-75000J0D01*
G01*
X182195000Y-16695000D01*
G75*
G02*
X182120000Y-16620000I0J75000D01*
G01*
G37*
G36*
G01*
X181620000Y-16620000D02*
X181620000Y-15295000D01*
G75*
G02*
X181695000Y-15220000I75000J0D01*
G01*
X181845000Y-15220000D01*
G75*
G02*
X181920000Y-15295000I0J-75000D01*
G01*
X181920000Y-16620000D01*
G75*
G02*
X181845000Y-16695000I-75000J0D01*
G01*
X181695000Y-16695000D01*
G75*
G02*
X181620000Y-16620000I0J75000D01*
G01*
G37*
G36*
G01*
X181120000Y-16620000D02*
X181120000Y-15295000D01*
G75*
G02*
X181195000Y-15220000I75000J0D01*
G01*
X181345000Y-15220000D01*
G75*
G02*
X181420000Y-15295000I0J-75000D01*
G01*
X181420000Y-16620000D01*
G75*
G02*
X181345000Y-16695000I-75000J0D01*
G01*
X181195000Y-16695000D01*
G75*
G02*
X181120000Y-16620000I0J75000D01*
G01*
G37*
G36*
G01*
X180620000Y-16620000D02*
X180620000Y-15295000D01*
G75*
G02*
X180695000Y-15220000I75000J0D01*
G01*
X180845000Y-15220000D01*
G75*
G02*
X180920000Y-15295000I0J-75000D01*
G01*
X180920000Y-16620000D01*
G75*
G02*
X180845000Y-16695000I-75000J0D01*
G01*
X180695000Y-16695000D01*
G75*
G02*
X180620000Y-16620000I0J75000D01*
G01*
G37*
G04 #@! TD*
G04 #@! TO.C,C208*
G36*
G01*
X180270000Y-27095000D02*
X180770000Y-27095000D01*
G75*
G02*
X180995000Y-27320000I0J-225000D01*
G01*
X180995000Y-27770000D01*
G75*
G02*
X180770000Y-27995000I-225000J0D01*
G01*
X180270000Y-27995000D01*
G75*
G02*
X180045000Y-27770000I0J225000D01*
G01*
X180045000Y-27320000D01*
G75*
G02*
X180270000Y-27095000I225000J0D01*
G01*
G37*
G36*
G01*
X180270000Y-28645000D02*
X180770000Y-28645000D01*
G75*
G02*
X180995000Y-28870000I0J-225000D01*
G01*
X180995000Y-29320000D01*
G75*
G02*
X180770000Y-29545000I-225000J0D01*
G01*
X180270000Y-29545000D01*
G75*
G02*
X180045000Y-29320000I0J225000D01*
G01*
X180045000Y-28870000D01*
G75*
G02*
X180270000Y-28645000I225000J0D01*
G01*
G37*
G04 #@! TD*
G04 #@! TO.C,R216*
G36*
G01*
X174495000Y-22595000D02*
X174495000Y-22045000D01*
G75*
G02*
X174695000Y-21845000I200000J0D01*
G01*
X175095000Y-21845000D01*
G75*
G02*
X175295000Y-22045000I0J-200000D01*
G01*
X175295000Y-22595000D01*
G75*
G02*
X175095000Y-22795000I-200000J0D01*
G01*
X174695000Y-22795000D01*
G75*
G02*
X174495000Y-22595000I0J200000D01*
G01*
G37*
G36*
G01*
X176145000Y-22595000D02*
X176145000Y-22045000D01*
G75*
G02*
X176345000Y-21845000I200000J0D01*
G01*
X176745000Y-21845000D01*
G75*
G02*
X176945000Y-22045000I0J-200000D01*
G01*
X176945000Y-22595000D01*
G75*
G02*
X176745000Y-22795000I-200000J0D01*
G01*
X176345000Y-22795000D01*
G75*
G02*
X176145000Y-22595000I0J200000D01*
G01*
G37*
G04 #@! TD*
G04 #@! TO.C,R206*
G36*
G01*
X182945000Y-10895000D02*
X182945000Y-11445000D01*
G75*
G02*
X182745000Y-11645000I-200000J0D01*
G01*
X182345000Y-11645000D01*
G75*
G02*
X182145000Y-11445000I0J200000D01*
G01*
X182145000Y-10895000D01*
G75*
G02*
X182345000Y-10695000I200000J0D01*
G01*
X182745000Y-10695000D01*
G75*
G02*
X182945000Y-10895000I0J-200000D01*
G01*
G37*
G36*
G01*
X181295000Y-10895000D02*
X181295000Y-11445000D01*
G75*
G02*
X181095000Y-11645000I-200000J0D01*
G01*
X180695000Y-11645000D01*
G75*
G02*
X180495000Y-11445000I0J200000D01*
G01*
X180495000Y-10895000D01*
G75*
G02*
X180695000Y-10695000I200000J0D01*
G01*
X181095000Y-10695000D01*
G75*
G02*
X181295000Y-10895000I0J-200000D01*
G01*
G37*
G04 #@! TD*
G04 #@! TO.C,R213*
G36*
G01*
X185445000Y-10695000D02*
X185995000Y-10695000D01*
G75*
G02*
X186195000Y-10895000I0J-200000D01*
G01*
X186195000Y-11295000D01*
G75*
G02*
X185995000Y-11495000I-200000J0D01*
G01*
X185445000Y-11495000D01*
G75*
G02*
X185245000Y-11295000I0J200000D01*
G01*
X185245000Y-10895000D01*
G75*
G02*
X185445000Y-10695000I200000J0D01*
G01*
G37*
G36*
G01*
X185445000Y-12345000D02*
X185995000Y-12345000D01*
G75*
G02*
X186195000Y-12545000I0J-200000D01*
G01*
X186195000Y-12945000D01*
G75*
G02*
X185995000Y-13145000I-200000J0D01*
G01*
X185445000Y-13145000D01*
G75*
G02*
X185245000Y-12945000I0J200000D01*
G01*
X185245000Y-12545000D01*
G75*
G02*
X185445000Y-12345000I200000J0D01*
G01*
G37*
G04 #@! TD*
G04 #@! TO.C,R214*
G36*
G01*
X183845000Y-10695000D02*
X184395000Y-10695000D01*
G75*
G02*
X184595000Y-10895000I0J-200000D01*
G01*
X184595000Y-11295000D01*
G75*
G02*
X184395000Y-11495000I-200000J0D01*
G01*
X183845000Y-11495000D01*
G75*
G02*
X183645000Y-11295000I0J200000D01*
G01*
X183645000Y-10895000D01*
G75*
G02*
X183845000Y-10695000I200000J0D01*
G01*
G37*
G36*
G01*
X183845000Y-12345000D02*
X184395000Y-12345000D01*
G75*
G02*
X184595000Y-12545000I0J-200000D01*
G01*
X184595000Y-12945000D01*
G75*
G02*
X184395000Y-13145000I-200000J0D01*
G01*
X183845000Y-13145000D01*
G75*
G02*
X183645000Y-12945000I0J200000D01*
G01*
X183645000Y-12545000D01*
G75*
G02*
X183845000Y-12345000I200000J0D01*
G01*
G37*
G04 #@! TD*
G04 #@! TO.C,C202*
G36*
G01*
X190925000Y-28130000D02*
X190925000Y-27630000D01*
G75*
G02*
X191150000Y-27405000I225000J0D01*
G01*
X191600000Y-27405000D01*
G75*
G02*
X191825000Y-27630000I0J-225000D01*
G01*
X191825000Y-28130000D01*
G75*
G02*
X191600000Y-28355000I-225000J0D01*
G01*
X191150000Y-28355000D01*
G75*
G02*
X190925000Y-28130000I0J225000D01*
G01*
G37*
G36*
G01*
X192475000Y-28130000D02*
X192475000Y-27630000D01*
G75*
G02*
X192700000Y-27405000I225000J0D01*
G01*
X193150000Y-27405000D01*
G75*
G02*
X193375000Y-27630000I0J-225000D01*
G01*
X193375000Y-28130000D01*
G75*
G02*
X193150000Y-28355000I-225000J0D01*
G01*
X192700000Y-28355000D01*
G75*
G02*
X192475000Y-28130000I0J225000D01*
G01*
G37*
G04 #@! TD*
G04 #@! TO.C,C210*
G36*
G01*
X177070000Y-27095000D02*
X177570000Y-27095000D01*
G75*
G02*
X177795000Y-27320000I0J-225000D01*
G01*
X177795000Y-27770000D01*
G75*
G02*
X177570000Y-27995000I-225000J0D01*
G01*
X177070000Y-27995000D01*
G75*
G02*
X176845000Y-27770000I0J225000D01*
G01*
X176845000Y-27320000D01*
G75*
G02*
X177070000Y-27095000I225000J0D01*
G01*
G37*
G36*
G01*
X177070000Y-28645000D02*
X177570000Y-28645000D01*
G75*
G02*
X177795000Y-28870000I0J-225000D01*
G01*
X177795000Y-29320000D01*
G75*
G02*
X177570000Y-29545000I-225000J0D01*
G01*
X177070000Y-29545000D01*
G75*
G02*
X176845000Y-29320000I0J225000D01*
G01*
X176845000Y-28870000D01*
G75*
G02*
X177070000Y-28645000I225000J0D01*
G01*
G37*
G04 #@! TD*
G04 #@! TO.C,C206*
G36*
G01*
X176945000Y-20470000D02*
X176945000Y-20970000D01*
G75*
G02*
X176720000Y-21195000I-225000J0D01*
G01*
X176270000Y-21195000D01*
G75*
G02*
X176045000Y-20970000I0J225000D01*
G01*
X176045000Y-20470000D01*
G75*
G02*
X176270000Y-20245000I225000J0D01*
G01*
X176720000Y-20245000D01*
G75*
G02*
X176945000Y-20470000I0J-225000D01*
G01*
G37*
G36*
G01*
X175395000Y-20470000D02*
X175395000Y-20970000D01*
G75*
G02*
X175170000Y-21195000I-225000J0D01*
G01*
X174720000Y-21195000D01*
G75*
G02*
X174495000Y-20970000I0J225000D01*
G01*
X174495000Y-20470000D01*
G75*
G02*
X174720000Y-20245000I225000J0D01*
G01*
X175170000Y-20245000D01*
G75*
G02*
X175395000Y-20470000I0J-225000D01*
G01*
G37*
G04 #@! TD*
G04 #@! TO.C,C203*
G36*
G01*
X190925000Y-24970000D02*
X190925000Y-24470000D01*
G75*
G02*
X191150000Y-24245000I225000J0D01*
G01*
X191600000Y-24245000D01*
G75*
G02*
X191825000Y-24470000I0J-225000D01*
G01*
X191825000Y-24970000D01*
G75*
G02*
X191600000Y-25195000I-225000J0D01*
G01*
X191150000Y-25195000D01*
G75*
G02*
X190925000Y-24970000I0J225000D01*
G01*
G37*
G36*
G01*
X192475000Y-24970000D02*
X192475000Y-24470000D01*
G75*
G02*
X192700000Y-24245000I225000J0D01*
G01*
X193150000Y-24245000D01*
G75*
G02*
X193375000Y-24470000I0J-225000D01*
G01*
X193375000Y-24970000D01*
G75*
G02*
X193150000Y-25195000I-225000J0D01*
G01*
X192700000Y-25195000D01*
G75*
G02*
X192475000Y-24970000I0J225000D01*
G01*
G37*
G04 #@! TD*
G04 #@! TO.C,C216*
G36*
G01*
X190925000Y-23376250D02*
X190925000Y-22863750D01*
G75*
G02*
X191143750Y-22645000I218750J0D01*
G01*
X191581250Y-22645000D01*
G75*
G02*
X191800000Y-22863750I0J-218750D01*
G01*
X191800000Y-23376250D01*
G75*
G02*
X191581250Y-23595000I-218750J0D01*
G01*
X191143750Y-23595000D01*
G75*
G02*
X190925000Y-23376250I0J218750D01*
G01*
G37*
G36*
G01*
X192500000Y-23376250D02*
X192500000Y-22863750D01*
G75*
G02*
X192718750Y-22645000I218750J0D01*
G01*
X193156250Y-22645000D01*
G75*
G02*
X193375000Y-22863750I0J-218750D01*
G01*
X193375000Y-23376250D01*
G75*
G02*
X193156250Y-23595000I-218750J0D01*
G01*
X192718750Y-23595000D01*
G75*
G02*
X192500000Y-23376250I0J218750D01*
G01*
G37*
G04 #@! TD*
G04 #@! TO.C,JP202*
G36*
G01*
X181619500Y-12196000D02*
X181820500Y-12196000D01*
G75*
G02*
X181900000Y-12275500I0J-79500D01*
G01*
X181900000Y-12434500D01*
G75*
G02*
X181820500Y-12514000I-79500J0D01*
G01*
X181619500Y-12514000D01*
G75*
G02*
X181540000Y-12434500I0J79500D01*
G01*
X181540000Y-12275500D01*
G75*
G02*
X181619500Y-12196000I79500J0D01*
G01*
G37*
G36*
G01*
X181619500Y-12886000D02*
X181820500Y-12886000D01*
G75*
G02*
X181900000Y-12965500I0J-79500D01*
G01*
X181900000Y-13124500D01*
G75*
G02*
X181820500Y-13204000I-79500J0D01*
G01*
X181619500Y-13204000D01*
G75*
G02*
X181540000Y-13124500I0J79500D01*
G01*
X181540000Y-12965500D01*
G75*
G02*
X181619500Y-12886000I79500J0D01*
G01*
G37*
G04 #@! TD*
G04 #@! TO.C,JP201*
G36*
G01*
X180819500Y-12196000D02*
X181020500Y-12196000D01*
G75*
G02*
X181100000Y-12275500I0J-79500D01*
G01*
X181100000Y-12434500D01*
G75*
G02*
X181020500Y-12514000I-79500J0D01*
G01*
X180819500Y-12514000D01*
G75*
G02*
X180740000Y-12434500I0J79500D01*
G01*
X180740000Y-12275500D01*
G75*
G02*
X180819500Y-12196000I79500J0D01*
G01*
G37*
G36*
G01*
X180819500Y-12886000D02*
X181020500Y-12886000D01*
G75*
G02*
X181100000Y-12965500I0J-79500D01*
G01*
X181100000Y-13124500D01*
G75*
G02*
X181020500Y-13204000I-79500J0D01*
G01*
X180819500Y-13204000D01*
G75*
G02*
X180740000Y-13124500I0J79500D01*
G01*
X180740000Y-12965500D01*
G75*
G02*
X180819500Y-12886000I79500J0D01*
G01*
G37*
G04 #@! TD*
G04 #@! TO.C,C218*
G36*
G01*
X185870000Y-27070000D02*
X186370000Y-27070000D01*
G75*
G02*
X186595000Y-27295000I0J-225000D01*
G01*
X186595000Y-27745000D01*
G75*
G02*
X186370000Y-27970000I-225000J0D01*
G01*
X185870000Y-27970000D01*
G75*
G02*
X185645000Y-27745000I0J225000D01*
G01*
X185645000Y-27295000D01*
G75*
G02*
X185870000Y-27070000I225000J0D01*
G01*
G37*
G36*
G01*
X185870000Y-28620000D02*
X186370000Y-28620000D01*
G75*
G02*
X186595000Y-28845000I0J-225000D01*
G01*
X186595000Y-29295000D01*
G75*
G02*
X186370000Y-29520000I-225000J0D01*
G01*
X185870000Y-29520000D01*
G75*
G02*
X185645000Y-29295000I0J225000D01*
G01*
X185645000Y-28845000D01*
G75*
G02*
X185870000Y-28620000I225000J0D01*
G01*
G37*
G04 #@! TD*
G04 #@! TO.C,R211*
G36*
G01*
X188565000Y-10695000D02*
X189115000Y-10695000D01*
G75*
G02*
X189315000Y-10895000I0J-200000D01*
G01*
X189315000Y-11295000D01*
G75*
G02*
X189115000Y-11495000I-200000J0D01*
G01*
X188565000Y-11495000D01*
G75*
G02*
X188365000Y-11295000I0J200000D01*
G01*
X188365000Y-10895000D01*
G75*
G02*
X188565000Y-10695000I200000J0D01*
G01*
G37*
G36*
G01*
X188565000Y-12345000D02*
X189115000Y-12345000D01*
G75*
G02*
X189315000Y-12545000I0J-200000D01*
G01*
X189315000Y-12945000D01*
G75*
G02*
X189115000Y-13145000I-200000J0D01*
G01*
X188565000Y-13145000D01*
G75*
G02*
X188365000Y-12945000I0J200000D01*
G01*
X188365000Y-12545000D01*
G75*
G02*
X188565000Y-12345000I200000J0D01*
G01*
G37*
G04 #@! TD*
G04 #@! TO.C,C211*
G36*
G01*
X175470000Y-27095000D02*
X175970000Y-27095000D01*
G75*
G02*
X176195000Y-27320000I0J-225000D01*
G01*
X176195000Y-27770000D01*
G75*
G02*
X175970000Y-27995000I-225000J0D01*
G01*
X175470000Y-27995000D01*
G75*
G02*
X175245000Y-27770000I0J225000D01*
G01*
X175245000Y-27320000D01*
G75*
G02*
X175470000Y-27095000I225000J0D01*
G01*
G37*
G36*
G01*
X175470000Y-28645000D02*
X175970000Y-28645000D01*
G75*
G02*
X176195000Y-28870000I0J-225000D01*
G01*
X176195000Y-29320000D01*
G75*
G02*
X175970000Y-29545000I-225000J0D01*
G01*
X175470000Y-29545000D01*
G75*
G02*
X175245000Y-29320000I0J225000D01*
G01*
X175245000Y-28870000D01*
G75*
G02*
X175470000Y-28645000I225000J0D01*
G01*
G37*
G04 #@! TD*
G04 #@! TO.C,R202*
G36*
G01*
X167445000Y-28295000D02*
X167995000Y-28295000D01*
G75*
G02*
X168195000Y-28495000I0J-200000D01*
G01*
X168195000Y-28895000D01*
G75*
G02*
X167995000Y-29095000I-200000J0D01*
G01*
X167445000Y-29095000D01*
G75*
G02*
X167245000Y-28895000I0J200000D01*
G01*
X167245000Y-28495000D01*
G75*
G02*
X167445000Y-28295000I200000J0D01*
G01*
G37*
G36*
G01*
X167445000Y-29945000D02*
X167995000Y-29945000D01*
G75*
G02*
X168195000Y-30145000I0J-200000D01*
G01*
X168195000Y-30545000D01*
G75*
G02*
X167995000Y-30745000I-200000J0D01*
G01*
X167445000Y-30745000D01*
G75*
G02*
X167245000Y-30545000I0J200000D01*
G01*
X167245000Y-30145000D01*
G75*
G02*
X167445000Y-29945000I200000J0D01*
G01*
G37*
G04 #@! TD*
G04 #@! TO.C,R203*
G36*
G01*
X165845000Y-28295000D02*
X166395000Y-28295000D01*
G75*
G02*
X166595000Y-28495000I0J-200000D01*
G01*
X166595000Y-28895000D01*
G75*
G02*
X166395000Y-29095000I-200000J0D01*
G01*
X165845000Y-29095000D01*
G75*
G02*
X165645000Y-28895000I0J200000D01*
G01*
X165645000Y-28495000D01*
G75*
G02*
X165845000Y-28295000I200000J0D01*
G01*
G37*
G36*
G01*
X165845000Y-29945000D02*
X166395000Y-29945000D01*
G75*
G02*
X166595000Y-30145000I0J-200000D01*
G01*
X166595000Y-30545000D01*
G75*
G02*
X166395000Y-30745000I-200000J0D01*
G01*
X165845000Y-30745000D01*
G75*
G02*
X165645000Y-30545000I0J200000D01*
G01*
X165645000Y-30145000D01*
G75*
G02*
X165845000Y-29945000I200000J0D01*
G01*
G37*
G04 #@! TD*
G04 #@! TO.C,R208*
G36*
G01*
X156245000Y-28295000D02*
X156795000Y-28295000D01*
G75*
G02*
X156995000Y-28495000I0J-200000D01*
G01*
X156995000Y-28895000D01*
G75*
G02*
X156795000Y-29095000I-200000J0D01*
G01*
X156245000Y-29095000D01*
G75*
G02*
X156045000Y-28895000I0J200000D01*
G01*
X156045000Y-28495000D01*
G75*
G02*
X156245000Y-28295000I200000J0D01*
G01*
G37*
G36*
G01*
X156245000Y-29945000D02*
X156795000Y-29945000D01*
G75*
G02*
X156995000Y-30145000I0J-200000D01*
G01*
X156995000Y-30545000D01*
G75*
G02*
X156795000Y-30745000I-200000J0D01*
G01*
X156245000Y-30745000D01*
G75*
G02*
X156045000Y-30545000I0J200000D01*
G01*
X156045000Y-30145000D01*
G75*
G02*
X156245000Y-29945000I200000J0D01*
G01*
G37*
G04 #@! TD*
G04 #@! TO.C,C213*
G36*
G01*
X154670000Y-28295000D02*
X155170000Y-28295000D01*
G75*
G02*
X155395000Y-28520000I0J-225000D01*
G01*
X155395000Y-28970000D01*
G75*
G02*
X155170000Y-29195000I-225000J0D01*
G01*
X154670000Y-29195000D01*
G75*
G02*
X154445000Y-28970000I0J225000D01*
G01*
X154445000Y-28520000D01*
G75*
G02*
X154670000Y-28295000I225000J0D01*
G01*
G37*
G36*
G01*
X154670000Y-29845000D02*
X155170000Y-29845000D01*
G75*
G02*
X155395000Y-30070000I0J-225000D01*
G01*
X155395000Y-30520000D01*
G75*
G02*
X155170000Y-30745000I-225000J0D01*
G01*
X154670000Y-30745000D01*
G75*
G02*
X154445000Y-30520000I0J225000D01*
G01*
X154445000Y-30070000D01*
G75*
G02*
X154670000Y-29845000I225000J0D01*
G01*
G37*
G04 #@! TD*
G04 #@! TO.C,R207*
G36*
G01*
X159445000Y-28295000D02*
X159995000Y-28295000D01*
G75*
G02*
X160195000Y-28495000I0J-200000D01*
G01*
X160195000Y-28895000D01*
G75*
G02*
X159995000Y-29095000I-200000J0D01*
G01*
X159445000Y-29095000D01*
G75*
G02*
X159245000Y-28895000I0J200000D01*
G01*
X159245000Y-28495000D01*
G75*
G02*
X159445000Y-28295000I200000J0D01*
G01*
G37*
G36*
G01*
X159445000Y-29945000D02*
X159995000Y-29945000D01*
G75*
G02*
X160195000Y-30145000I0J-200000D01*
G01*
X160195000Y-30545000D01*
G75*
G02*
X159995000Y-30745000I-200000J0D01*
G01*
X159445000Y-30745000D01*
G75*
G02*
X159245000Y-30545000I0J200000D01*
G01*
X159245000Y-30145000D01*
G75*
G02*
X159445000Y-29945000I200000J0D01*
G01*
G37*
G04 #@! TD*
G04 #@! TO.C,C214*
G36*
G01*
X157870000Y-28320000D02*
X158370000Y-28320000D01*
G75*
G02*
X158595000Y-28545000I0J-225000D01*
G01*
X158595000Y-28995000D01*
G75*
G02*
X158370000Y-29220000I-225000J0D01*
G01*
X157870000Y-29220000D01*
G75*
G02*
X157645000Y-28995000I0J225000D01*
G01*
X157645000Y-28545000D01*
G75*
G02*
X157870000Y-28320000I225000J0D01*
G01*
G37*
G36*
G01*
X157870000Y-29870000D02*
X158370000Y-29870000D01*
G75*
G02*
X158595000Y-30095000I0J-225000D01*
G01*
X158595000Y-30545000D01*
G75*
G02*
X158370000Y-30770000I-225000J0D01*
G01*
X157870000Y-30770000D01*
G75*
G02*
X157645000Y-30545000I0J225000D01*
G01*
X157645000Y-30095000D01*
G75*
G02*
X157870000Y-29870000I225000J0D01*
G01*
G37*
G04 #@! TD*
G04 #@! TO.C,R201*
G36*
G01*
X164245000Y-28295000D02*
X164795000Y-28295000D01*
G75*
G02*
X164995000Y-28495000I0J-200000D01*
G01*
X164995000Y-28895000D01*
G75*
G02*
X164795000Y-29095000I-200000J0D01*
G01*
X164245000Y-29095000D01*
G75*
G02*
X164045000Y-28895000I0J200000D01*
G01*
X164045000Y-28495000D01*
G75*
G02*
X164245000Y-28295000I200000J0D01*
G01*
G37*
G36*
G01*
X164245000Y-29945000D02*
X164795000Y-29945000D01*
G75*
G02*
X164995000Y-30145000I0J-200000D01*
G01*
X164995000Y-30545000D01*
G75*
G02*
X164795000Y-30745000I-200000J0D01*
G01*
X164245000Y-30745000D01*
G75*
G02*
X164045000Y-30545000I0J200000D01*
G01*
X164045000Y-30145000D01*
G75*
G02*
X164245000Y-29945000I200000J0D01*
G01*
G37*
G04 #@! TD*
G04 #@! TO.C,C212*
G36*
G01*
X162670000Y-28295000D02*
X163170000Y-28295000D01*
G75*
G02*
X163395000Y-28520000I0J-225000D01*
G01*
X163395000Y-28970000D01*
G75*
G02*
X163170000Y-29195000I-225000J0D01*
G01*
X162670000Y-29195000D01*
G75*
G02*
X162445000Y-28970000I0J225000D01*
G01*
X162445000Y-28520000D01*
G75*
G02*
X162670000Y-28295000I225000J0D01*
G01*
G37*
G36*
G01*
X162670000Y-29845000D02*
X163170000Y-29845000D01*
G75*
G02*
X163395000Y-30070000I0J-225000D01*
G01*
X163395000Y-30520000D01*
G75*
G02*
X163170000Y-30745000I-225000J0D01*
G01*
X162670000Y-30745000D01*
G75*
G02*
X162445000Y-30520000I0J225000D01*
G01*
X162445000Y-30070000D01*
G75*
G02*
X162670000Y-29845000I225000J0D01*
G01*
G37*
G04 #@! TD*
D17*
G04 #@! TO.C,J403*
X199700000Y-10580000D03*
X204700000Y-10580000D03*
D18*
X199300000Y-7880000D03*
X205100000Y-7880000D03*
D19*
X198700000Y-7880000D03*
D20*
X201200000Y-7880000D03*
X203200000Y-7880000D03*
D19*
X205700000Y-7880000D03*
D21*
X200900000Y-10580000D03*
X201550000Y-10580000D03*
X202200000Y-10580000D03*
X202850000Y-10580000D03*
X203500000Y-10580000D03*
G04 #@! TD*
G04 #@! TO.C,C215*
G36*
G01*
X161070000Y-29845000D02*
X161570000Y-29845000D01*
G75*
G02*
X161795000Y-30070000I0J-225000D01*
G01*
X161795000Y-30520000D01*
G75*
G02*
X161570000Y-30745000I-225000J0D01*
G01*
X161070000Y-30745000D01*
G75*
G02*
X160845000Y-30520000I0J225000D01*
G01*
X160845000Y-30070000D01*
G75*
G02*
X161070000Y-29845000I225000J0D01*
G01*
G37*
G36*
G01*
X161070000Y-28295000D02*
X161570000Y-28295000D01*
G75*
G02*
X161795000Y-28520000I0J-225000D01*
G01*
X161795000Y-28970000D01*
G75*
G02*
X161570000Y-29195000I-225000J0D01*
G01*
X161070000Y-29195000D01*
G75*
G02*
X160845000Y-28970000I0J225000D01*
G01*
X160845000Y-28520000D01*
G75*
G02*
X161070000Y-28295000I225000J0D01*
G01*
G37*
G04 #@! TD*
D22*
G04 #@! TO.C,U103*
X178250000Y-102000000D03*
X178250000Y-100730000D03*
X178250000Y-99460000D03*
X178250000Y-98190000D03*
X178250000Y-96920000D03*
X178250000Y-95650000D03*
X178250000Y-94380000D03*
X178250000Y-93110000D03*
X178250000Y-91840000D03*
X178250000Y-90570000D03*
X178250000Y-89300000D03*
X178250000Y-88030000D03*
X178250000Y-86760000D03*
X178250000Y-85490000D03*
X194150000Y-85490000D03*
X194150000Y-86760000D03*
X194150000Y-88030000D03*
X194150000Y-89300000D03*
X194150000Y-90570000D03*
X194150000Y-91840000D03*
X194150000Y-93110000D03*
X194150000Y-94380000D03*
X194150000Y-95650000D03*
X194150000Y-96920000D03*
X194150000Y-98190000D03*
X194150000Y-99460000D03*
X194150000Y-100730000D03*
X178250000Y-108750000D03*
X178250000Y-107480000D03*
X194150000Y-102000000D03*
G04 #@! TD*
G04 #@! TO.C,U401*
G36*
G01*
X212112500Y-21975000D02*
X212787500Y-21975000D01*
G75*
G02*
X212850000Y-22037500I0J-62500D01*
G01*
X212850000Y-22162500D01*
G75*
G02*
X212787500Y-22225000I-62500J0D01*
G01*
X212112500Y-22225000D01*
G75*
G02*
X212050000Y-22162500I0J62500D01*
G01*
X212050000Y-22037500D01*
G75*
G02*
X212112500Y-21975000I62500J0D01*
G01*
G37*
G36*
G01*
X212112500Y-22475000D02*
X212787500Y-22475000D01*
G75*
G02*
X212850000Y-22537500I0J-62500D01*
G01*
X212850000Y-22662500D01*
G75*
G02*
X212787500Y-22725000I-62500J0D01*
G01*
X212112500Y-22725000D01*
G75*
G02*
X212050000Y-22662500I0J62500D01*
G01*
X212050000Y-22537500D01*
G75*
G02*
X212112500Y-22475000I62500J0D01*
G01*
G37*
G36*
G01*
X212112500Y-22975000D02*
X212787500Y-22975000D01*
G75*
G02*
X212850000Y-23037500I0J-62500D01*
G01*
X212850000Y-23162500D01*
G75*
G02*
X212787500Y-23225000I-62500J0D01*
G01*
X212112500Y-23225000D01*
G75*
G02*
X212050000Y-23162500I0J62500D01*
G01*
X212050000Y-23037500D01*
G75*
G02*
X212112500Y-22975000I62500J0D01*
G01*
G37*
G36*
G01*
X212112500Y-23475000D02*
X212787500Y-23475000D01*
G75*
G02*
X212850000Y-23537500I0J-62500D01*
G01*
X212850000Y-23662500D01*
G75*
G02*
X212787500Y-23725000I-62500J0D01*
G01*
X212112500Y-23725000D01*
G75*
G02*
X212050000Y-23662500I0J62500D01*
G01*
X212050000Y-23537500D01*
G75*
G02*
X212112500Y-23475000I62500J0D01*
G01*
G37*
G36*
G01*
X212112500Y-23975000D02*
X212787500Y-23975000D01*
G75*
G02*
X212850000Y-24037500I0J-62500D01*
G01*
X212850000Y-24162500D01*
G75*
G02*
X212787500Y-24225000I-62500J0D01*
G01*
X212112500Y-24225000D01*
G75*
G02*
X212050000Y-24162500I0J62500D01*
G01*
X212050000Y-24037500D01*
G75*
G02*
X212112500Y-23975000I62500J0D01*
G01*
G37*
G36*
G01*
X212112500Y-24475000D02*
X212787500Y-24475000D01*
G75*
G02*
X212850000Y-24537500I0J-62500D01*
G01*
X212850000Y-24662500D01*
G75*
G02*
X212787500Y-24725000I-62500J0D01*
G01*
X212112500Y-24725000D01*
G75*
G02*
X212050000Y-24662500I0J62500D01*
G01*
X212050000Y-24537500D01*
G75*
G02*
X212112500Y-24475000I62500J0D01*
G01*
G37*
G36*
G01*
X212112500Y-24975000D02*
X212787500Y-24975000D01*
G75*
G02*
X212850000Y-25037500I0J-62500D01*
G01*
X212850000Y-25162500D01*
G75*
G02*
X212787500Y-25225000I-62500J0D01*
G01*
X212112500Y-25225000D01*
G75*
G02*
X212050000Y-25162500I0J62500D01*
G01*
X212050000Y-25037500D01*
G75*
G02*
X212112500Y-24975000I62500J0D01*
G01*
G37*
G36*
G01*
X211437500Y-25650000D02*
X211562500Y-25650000D01*
G75*
G02*
X211625000Y-25712500I0J-62500D01*
G01*
X211625000Y-26387500D01*
G75*
G02*
X211562500Y-26450000I-62500J0D01*
G01*
X211437500Y-26450000D01*
G75*
G02*
X211375000Y-26387500I0J62500D01*
G01*
X211375000Y-25712500D01*
G75*
G02*
X211437500Y-25650000I62500J0D01*
G01*
G37*
G36*
G01*
X210937500Y-25650000D02*
X211062500Y-25650000D01*
G75*
G02*
X211125000Y-25712500I0J-62500D01*
G01*
X211125000Y-26387500D01*
G75*
G02*
X211062500Y-26450000I-62500J0D01*
G01*
X210937500Y-26450000D01*
G75*
G02*
X210875000Y-26387500I0J62500D01*
G01*
X210875000Y-25712500D01*
G75*
G02*
X210937500Y-25650000I62500J0D01*
G01*
G37*
G36*
G01*
X210437500Y-25650000D02*
X210562500Y-25650000D01*
G75*
G02*
X210625000Y-25712500I0J-62500D01*
G01*
X210625000Y-26387500D01*
G75*
G02*
X210562500Y-26450000I-62500J0D01*
G01*
X210437500Y-26450000D01*
G75*
G02*
X210375000Y-26387500I0J62500D01*
G01*
X210375000Y-25712500D01*
G75*
G02*
X210437500Y-25650000I62500J0D01*
G01*
G37*
G36*
G01*
X209937500Y-25650000D02*
X210062500Y-25650000D01*
G75*
G02*
X210125000Y-25712500I0J-62500D01*
G01*
X210125000Y-26387500D01*
G75*
G02*
X210062500Y-26450000I-62500J0D01*
G01*
X209937500Y-26450000D01*
G75*
G02*
X209875000Y-26387500I0J62500D01*
G01*
X209875000Y-25712500D01*
G75*
G02*
X209937500Y-25650000I62500J0D01*
G01*
G37*
G36*
G01*
X209437500Y-25650000D02*
X209562500Y-25650000D01*
G75*
G02*
X209625000Y-25712500I0J-62500D01*
G01*
X209625000Y-26387500D01*
G75*
G02*
X209562500Y-26450000I-62500J0D01*
G01*
X209437500Y-26450000D01*
G75*
G02*
X209375000Y-26387500I0J62500D01*
G01*
X209375000Y-25712500D01*
G75*
G02*
X209437500Y-25650000I62500J0D01*
G01*
G37*
G36*
G01*
X208937500Y-25650000D02*
X209062500Y-25650000D01*
G75*
G02*
X209125000Y-25712500I0J-62500D01*
G01*
X209125000Y-26387500D01*
G75*
G02*
X209062500Y-26450000I-62500J0D01*
G01*
X208937500Y-26450000D01*
G75*
G02*
X208875000Y-26387500I0J62500D01*
G01*
X208875000Y-25712500D01*
G75*
G02*
X208937500Y-25650000I62500J0D01*
G01*
G37*
G36*
G01*
X208437500Y-25650000D02*
X208562500Y-25650000D01*
G75*
G02*
X208625000Y-25712500I0J-62500D01*
G01*
X208625000Y-26387500D01*
G75*
G02*
X208562500Y-26450000I-62500J0D01*
G01*
X208437500Y-26450000D01*
G75*
G02*
X208375000Y-26387500I0J62500D01*
G01*
X208375000Y-25712500D01*
G75*
G02*
X208437500Y-25650000I62500J0D01*
G01*
G37*
G36*
G01*
X207212500Y-24975000D02*
X207887500Y-24975000D01*
G75*
G02*
X207950000Y-25037500I0J-62500D01*
G01*
X207950000Y-25162500D01*
G75*
G02*
X207887500Y-25225000I-62500J0D01*
G01*
X207212500Y-25225000D01*
G75*
G02*
X207150000Y-25162500I0J62500D01*
G01*
X207150000Y-25037500D01*
G75*
G02*
X207212500Y-24975000I62500J0D01*
G01*
G37*
G36*
G01*
X207212500Y-24475000D02*
X207887500Y-24475000D01*
G75*
G02*
X207950000Y-24537500I0J-62500D01*
G01*
X207950000Y-24662500D01*
G75*
G02*
X207887500Y-24725000I-62500J0D01*
G01*
X207212500Y-24725000D01*
G75*
G02*
X207150000Y-24662500I0J62500D01*
G01*
X207150000Y-24537500D01*
G75*
G02*
X207212500Y-24475000I62500J0D01*
G01*
G37*
G36*
G01*
X207212500Y-23975000D02*
X207887500Y-23975000D01*
G75*
G02*
X207950000Y-24037500I0J-62500D01*
G01*
X207950000Y-24162500D01*
G75*
G02*
X207887500Y-24225000I-62500J0D01*
G01*
X207212500Y-24225000D01*
G75*
G02*
X207150000Y-24162500I0J62500D01*
G01*
X207150000Y-24037500D01*
G75*
G02*
X207212500Y-23975000I62500J0D01*
G01*
G37*
G36*
G01*
X207212500Y-23475000D02*
X207887500Y-23475000D01*
G75*
G02*
X207950000Y-23537500I0J-62500D01*
G01*
X207950000Y-23662500D01*
G75*
G02*
X207887500Y-23725000I-62500J0D01*
G01*
X207212500Y-23725000D01*
G75*
G02*
X207150000Y-23662500I0J62500D01*
G01*
X207150000Y-23537500D01*
G75*
G02*
X207212500Y-23475000I62500J0D01*
G01*
G37*
G36*
G01*
X207212500Y-22975000D02*
X207887500Y-22975000D01*
G75*
G02*
X207950000Y-23037500I0J-62500D01*
G01*
X207950000Y-23162500D01*
G75*
G02*
X207887500Y-23225000I-62500J0D01*
G01*
X207212500Y-23225000D01*
G75*
G02*
X207150000Y-23162500I0J62500D01*
G01*
X207150000Y-23037500D01*
G75*
G02*
X207212500Y-22975000I62500J0D01*
G01*
G37*
G36*
G01*
X207212500Y-22475000D02*
X207887500Y-22475000D01*
G75*
G02*
X207950000Y-22537500I0J-62500D01*
G01*
X207950000Y-22662500D01*
G75*
G02*
X207887500Y-22725000I-62500J0D01*
G01*
X207212500Y-22725000D01*
G75*
G02*
X207150000Y-22662500I0J62500D01*
G01*
X207150000Y-22537500D01*
G75*
G02*
X207212500Y-22475000I62500J0D01*
G01*
G37*
G36*
G01*
X207212500Y-21975000D02*
X207887500Y-21975000D01*
G75*
G02*
X207950000Y-22037500I0J-62500D01*
G01*
X207950000Y-22162500D01*
G75*
G02*
X207887500Y-22225000I-62500J0D01*
G01*
X207212500Y-22225000D01*
G75*
G02*
X207150000Y-22162500I0J62500D01*
G01*
X207150000Y-22037500D01*
G75*
G02*
X207212500Y-21975000I62500J0D01*
G01*
G37*
G36*
G01*
X208437500Y-20750000D02*
X208562500Y-20750000D01*
G75*
G02*
X208625000Y-20812500I0J-62500D01*
G01*
X208625000Y-21487500D01*
G75*
G02*
X208562500Y-21550000I-62500J0D01*
G01*
X208437500Y-21550000D01*
G75*
G02*
X208375000Y-21487500I0J62500D01*
G01*
X208375000Y-20812500D01*
G75*
G02*
X208437500Y-20750000I62500J0D01*
G01*
G37*
G36*
G01*
X208937500Y-20750000D02*
X209062500Y-20750000D01*
G75*
G02*
X209125000Y-20812500I0J-62500D01*
G01*
X209125000Y-21487500D01*
G75*
G02*
X209062500Y-21550000I-62500J0D01*
G01*
X208937500Y-21550000D01*
G75*
G02*
X208875000Y-21487500I0J62500D01*
G01*
X208875000Y-20812500D01*
G75*
G02*
X208937500Y-20750000I62500J0D01*
G01*
G37*
G36*
G01*
X209437500Y-20750000D02*
X209562500Y-20750000D01*
G75*
G02*
X209625000Y-20812500I0J-62500D01*
G01*
X209625000Y-21487500D01*
G75*
G02*
X209562500Y-21550000I-62500J0D01*
G01*
X209437500Y-21550000D01*
G75*
G02*
X209375000Y-21487500I0J62500D01*
G01*
X209375000Y-20812500D01*
G75*
G02*
X209437500Y-20750000I62500J0D01*
G01*
G37*
G36*
G01*
X209937500Y-20750000D02*
X210062500Y-20750000D01*
G75*
G02*
X210125000Y-20812500I0J-62500D01*
G01*
X210125000Y-21487500D01*
G75*
G02*
X210062500Y-21550000I-62500J0D01*
G01*
X209937500Y-21550000D01*
G75*
G02*
X209875000Y-21487500I0J62500D01*
G01*
X209875000Y-20812500D01*
G75*
G02*
X209937500Y-20750000I62500J0D01*
G01*
G37*
G36*
G01*
X210437500Y-20750000D02*
X210562500Y-20750000D01*
G75*
G02*
X210625000Y-20812500I0J-62500D01*
G01*
X210625000Y-21487500D01*
G75*
G02*
X210562500Y-21550000I-62500J0D01*
G01*
X210437500Y-21550000D01*
G75*
G02*
X210375000Y-21487500I0J62500D01*
G01*
X210375000Y-20812500D01*
G75*
G02*
X210437500Y-20750000I62500J0D01*
G01*
G37*
G36*
G01*
X210937500Y-20750000D02*
X211062500Y-20750000D01*
G75*
G02*
X211125000Y-20812500I0J-62500D01*
G01*
X211125000Y-21487500D01*
G75*
G02*
X211062500Y-21550000I-62500J0D01*
G01*
X210937500Y-21550000D01*
G75*
G02*
X210875000Y-21487500I0J62500D01*
G01*
X210875000Y-20812500D01*
G75*
G02*
X210937500Y-20750000I62500J0D01*
G01*
G37*
G36*
G01*
X211437500Y-20750000D02*
X211562500Y-20750000D01*
G75*
G02*
X211625000Y-20812500I0J-62500D01*
G01*
X211625000Y-21487500D01*
G75*
G02*
X211562500Y-21550000I-62500J0D01*
G01*
X211437500Y-21550000D01*
G75*
G02*
X211375000Y-21487500I0J62500D01*
G01*
X211375000Y-20812500D01*
G75*
G02*
X211437500Y-20750000I62500J0D01*
G01*
G37*
G36*
G01*
X208655000Y-24270000D02*
X209105000Y-24270000D01*
G75*
G02*
X209330000Y-24495000I0J-225000D01*
G01*
X209330000Y-24945000D01*
G75*
G02*
X209105000Y-25170000I-225000J0D01*
G01*
X208655000Y-25170000D01*
G75*
G02*
X208430000Y-24945000I0J225000D01*
G01*
X208430000Y-24495000D01*
G75*
G02*
X208655000Y-24270000I225000J0D01*
G01*
G37*
G36*
G01*
X209775000Y-24270000D02*
X210225000Y-24270000D01*
G75*
G02*
X210450000Y-24495000I0J-225000D01*
G01*
X210450000Y-24945000D01*
G75*
G02*
X210225000Y-25170000I-225000J0D01*
G01*
X209775000Y-25170000D01*
G75*
G02*
X209550000Y-24945000I0J225000D01*
G01*
X209550000Y-24495000D01*
G75*
G02*
X209775000Y-24270000I225000J0D01*
G01*
G37*
G36*
G01*
X210895000Y-24270000D02*
X211345000Y-24270000D01*
G75*
G02*
X211570000Y-24495000I0J-225000D01*
G01*
X211570000Y-24945000D01*
G75*
G02*
X211345000Y-25170000I-225000J0D01*
G01*
X210895000Y-25170000D01*
G75*
G02*
X210670000Y-24945000I0J225000D01*
G01*
X210670000Y-24495000D01*
G75*
G02*
X210895000Y-24270000I225000J0D01*
G01*
G37*
G36*
G01*
X208655000Y-23150000D02*
X209105000Y-23150000D01*
G75*
G02*
X209330000Y-23375000I0J-225000D01*
G01*
X209330000Y-23825000D01*
G75*
G02*
X209105000Y-24050000I-225000J0D01*
G01*
X208655000Y-24050000D01*
G75*
G02*
X208430000Y-23825000I0J225000D01*
G01*
X208430000Y-23375000D01*
G75*
G02*
X208655000Y-23150000I225000J0D01*
G01*
G37*
G36*
G01*
X209775000Y-23150000D02*
X210225000Y-23150000D01*
G75*
G02*
X210450000Y-23375000I0J-225000D01*
G01*
X210450000Y-23825000D01*
G75*
G02*
X210225000Y-24050000I-225000J0D01*
G01*
X209775000Y-24050000D01*
G75*
G02*
X209550000Y-23825000I0J225000D01*
G01*
X209550000Y-23375000D01*
G75*
G02*
X209775000Y-23150000I225000J0D01*
G01*
G37*
G36*
G01*
X210895000Y-23150000D02*
X211345000Y-23150000D01*
G75*
G02*
X211570000Y-23375000I0J-225000D01*
G01*
X211570000Y-23825000D01*
G75*
G02*
X211345000Y-24050000I-225000J0D01*
G01*
X210895000Y-24050000D01*
G75*
G02*
X210670000Y-23825000I0J225000D01*
G01*
X210670000Y-23375000D01*
G75*
G02*
X210895000Y-23150000I225000J0D01*
G01*
G37*
G36*
G01*
X208655000Y-22030000D02*
X209105000Y-22030000D01*
G75*
G02*
X209330000Y-22255000I0J-225000D01*
G01*
X209330000Y-22705000D01*
G75*
G02*
X209105000Y-22930000I-225000J0D01*
G01*
X208655000Y-22930000D01*
G75*
G02*
X208430000Y-22705000I0J225000D01*
G01*
X208430000Y-22255000D01*
G75*
G02*
X208655000Y-22030000I225000J0D01*
G01*
G37*
G36*
G01*
X209775000Y-22030000D02*
X210225000Y-22030000D01*
G75*
G02*
X210450000Y-22255000I0J-225000D01*
G01*
X210450000Y-22705000D01*
G75*
G02*
X210225000Y-22930000I-225000J0D01*
G01*
X209775000Y-22930000D01*
G75*
G02*
X209550000Y-22705000I0J225000D01*
G01*
X209550000Y-22255000D01*
G75*
G02*
X209775000Y-22030000I225000J0D01*
G01*
G37*
G36*
G01*
X210895000Y-22030000D02*
X211345000Y-22030000D01*
G75*
G02*
X211570000Y-22255000I0J-225000D01*
G01*
X211570000Y-22705000D01*
G75*
G02*
X211345000Y-22930000I-225000J0D01*
G01*
X210895000Y-22930000D01*
G75*
G02*
X210670000Y-22705000I0J225000D01*
G01*
X210670000Y-22255000D01*
G75*
G02*
X210895000Y-22030000I225000J0D01*
G01*
G37*
G04 #@! TD*
D23*
G04 #@! TO.C,SW101*
G36*
X126134493Y-66270279D02*
G01*
X127407285Y-67543071D01*
X125993071Y-68957285D01*
X124720279Y-67684493D01*
X126134493Y-66270279D01*
G37*
G36*
X124844024Y-60383616D02*
G01*
X125551130Y-61090722D01*
X124596536Y-62045316D01*
X123889430Y-61338210D01*
X124844024Y-60383616D01*
G37*
G36*
X125851651Y-61391243D02*
G01*
X126558757Y-62098349D01*
X125604163Y-63052943D01*
X124897057Y-62345837D01*
X125851651Y-61391243D01*
G37*
G36*
X126859278Y-62398870D02*
G01*
X127566384Y-63105976D01*
X126611790Y-64060570D01*
X125904684Y-63353464D01*
X126859278Y-62398870D01*
G37*
G36*
X121803464Y-67454684D02*
G01*
X122510570Y-68161790D01*
X121555976Y-69116384D01*
X120848870Y-68409278D01*
X121803464Y-67454684D01*
G37*
G36*
X120795837Y-66447057D02*
G01*
X121502943Y-67154163D01*
X120548349Y-68108757D01*
X119841243Y-67401651D01*
X120795837Y-66447057D01*
G37*
G36*
X119788210Y-65439430D02*
G01*
X120495316Y-66146536D01*
X119540722Y-67101130D01*
X118833616Y-66394024D01*
X119788210Y-65439430D01*
G37*
G36*
X120406929Y-60542715D02*
G01*
X121679721Y-61815507D01*
X120265507Y-63229721D01*
X118992715Y-61956929D01*
X120406929Y-60542715D01*
G37*
G04 #@! TD*
G04 #@! TO.C,R103*
G36*
G01*
X159850000Y-73943750D02*
X159850000Y-74456250D01*
G75*
G02*
X159631250Y-74675000I-218750J0D01*
G01*
X159193750Y-74675000D01*
G75*
G02*
X158975000Y-74456250I0J218750D01*
G01*
X158975000Y-73943750D01*
G75*
G02*
X159193750Y-73725000I218750J0D01*
G01*
X159631250Y-73725000D01*
G75*
G02*
X159850000Y-73943750I0J-218750D01*
G01*
G37*
G36*
G01*
X161425000Y-73943750D02*
X161425000Y-74456250D01*
G75*
G02*
X161206250Y-74675000I-218750J0D01*
G01*
X160768750Y-74675000D01*
G75*
G02*
X160550000Y-74456250I0J218750D01*
G01*
X160550000Y-73943750D01*
G75*
G02*
X160768750Y-73725000I218750J0D01*
G01*
X161206250Y-73725000D01*
G75*
G02*
X161425000Y-73943750I0J-218750D01*
G01*
G37*
G04 #@! TD*
G04 #@! TO.C,R112*
G36*
G01*
X134850000Y-62943750D02*
X134850000Y-63456250D01*
G75*
G02*
X134631250Y-63675000I-218750J0D01*
G01*
X134193750Y-63675000D01*
G75*
G02*
X133975000Y-63456250I0J218750D01*
G01*
X133975000Y-62943750D01*
G75*
G02*
X134193750Y-62725000I218750J0D01*
G01*
X134631250Y-62725000D01*
G75*
G02*
X134850000Y-62943750I0J-218750D01*
G01*
G37*
G36*
G01*
X136425000Y-62943750D02*
X136425000Y-63456250D01*
G75*
G02*
X136206250Y-63675000I-218750J0D01*
G01*
X135768750Y-63675000D01*
G75*
G02*
X135550000Y-63456250I0J218750D01*
G01*
X135550000Y-62943750D01*
G75*
G02*
X135768750Y-62725000I218750J0D01*
G01*
X136206250Y-62725000D01*
G75*
G02*
X136425000Y-62943750I0J-218750D01*
G01*
G37*
G04 #@! TD*
G04 #@! TO.C,R111*
G36*
G01*
X134850000Y-64493750D02*
X134850000Y-65006250D01*
G75*
G02*
X134631250Y-65225000I-218750J0D01*
G01*
X134193750Y-65225000D01*
G75*
G02*
X133975000Y-65006250I0J218750D01*
G01*
X133975000Y-64493750D01*
G75*
G02*
X134193750Y-64275000I218750J0D01*
G01*
X134631250Y-64275000D01*
G75*
G02*
X134850000Y-64493750I0J-218750D01*
G01*
G37*
G36*
G01*
X136425000Y-64493750D02*
X136425000Y-65006250D01*
G75*
G02*
X136206250Y-65225000I-218750J0D01*
G01*
X135768750Y-65225000D01*
G75*
G02*
X135550000Y-65006250I0J218750D01*
G01*
X135550000Y-64493750D01*
G75*
G02*
X135768750Y-64275000I218750J0D01*
G01*
X136206250Y-64275000D01*
G75*
G02*
X136425000Y-64493750I0J-218750D01*
G01*
G37*
G04 #@! TD*
G04 #@! TO.C,R110*
G36*
G01*
X134850000Y-66043750D02*
X134850000Y-66556250D01*
G75*
G02*
X134631250Y-66775000I-218750J0D01*
G01*
X134193750Y-66775000D01*
G75*
G02*
X133975000Y-66556250I0J218750D01*
G01*
X133975000Y-66043750D01*
G75*
G02*
X134193750Y-65825000I218750J0D01*
G01*
X134631250Y-65825000D01*
G75*
G02*
X134850000Y-66043750I0J-218750D01*
G01*
G37*
G36*
G01*
X136425000Y-66043750D02*
X136425000Y-66556250D01*
G75*
G02*
X136206250Y-66775000I-218750J0D01*
G01*
X135768750Y-66775000D01*
G75*
G02*
X135550000Y-66556250I0J218750D01*
G01*
X135550000Y-66043750D01*
G75*
G02*
X135768750Y-65825000I218750J0D01*
G01*
X136206250Y-65825000D01*
G75*
G02*
X136425000Y-66043750I0J-218750D01*
G01*
G37*
G04 #@! TD*
G04 #@! TO.C,R114*
G36*
G01*
X157030000Y-59743750D02*
X157030000Y-60256250D01*
G75*
G02*
X156811250Y-60475000I-218750J0D01*
G01*
X156373750Y-60475000D01*
G75*
G02*
X156155000Y-60256250I0J218750D01*
G01*
X156155000Y-59743750D01*
G75*
G02*
X156373750Y-59525000I218750J0D01*
G01*
X156811250Y-59525000D01*
G75*
G02*
X157030000Y-59743750I0J-218750D01*
G01*
G37*
G36*
G01*
X158605000Y-59743750D02*
X158605000Y-60256250D01*
G75*
G02*
X158386250Y-60475000I-218750J0D01*
G01*
X157948750Y-60475000D01*
G75*
G02*
X157730000Y-60256250I0J218750D01*
G01*
X157730000Y-59743750D01*
G75*
G02*
X157948750Y-59525000I218750J0D01*
G01*
X158386250Y-59525000D01*
G75*
G02*
X158605000Y-59743750I0J-218750D01*
G01*
G37*
G04 #@! TD*
G04 #@! TO.C,R113*
G36*
G01*
X155356250Y-60400000D02*
X154843750Y-60400000D01*
G75*
G02*
X154625000Y-60181250I0J218750D01*
G01*
X154625000Y-59743750D01*
G75*
G02*
X154843750Y-59525000I218750J0D01*
G01*
X155356250Y-59525000D01*
G75*
G02*
X155575000Y-59743750I0J-218750D01*
G01*
X155575000Y-60181250D01*
G75*
G02*
X155356250Y-60400000I-218750J0D01*
G01*
G37*
G36*
G01*
X155356250Y-61975000D02*
X154843750Y-61975000D01*
G75*
G02*
X154625000Y-61756250I0J218750D01*
G01*
X154625000Y-61318750D01*
G75*
G02*
X154843750Y-61100000I218750J0D01*
G01*
X155356250Y-61100000D01*
G75*
G02*
X155575000Y-61318750I0J-218750D01*
G01*
X155575000Y-61756250D01*
G75*
G02*
X155356250Y-61975000I-218750J0D01*
G01*
G37*
G04 #@! TD*
G04 #@! TO.C,R406*
G36*
G01*
X197456250Y-18950000D02*
X196943750Y-18950000D01*
G75*
G02*
X196725000Y-18731250I0J218750D01*
G01*
X196725000Y-18293750D01*
G75*
G02*
X196943750Y-18075000I218750J0D01*
G01*
X197456250Y-18075000D01*
G75*
G02*
X197675000Y-18293750I0J-218750D01*
G01*
X197675000Y-18731250D01*
G75*
G02*
X197456250Y-18950000I-218750J0D01*
G01*
G37*
G36*
G01*
X197456250Y-20525000D02*
X196943750Y-20525000D01*
G75*
G02*
X196725000Y-20306250I0J218750D01*
G01*
X196725000Y-19868750D01*
G75*
G02*
X196943750Y-19650000I218750J0D01*
G01*
X197456250Y-19650000D01*
G75*
G02*
X197675000Y-19868750I0J-218750D01*
G01*
X197675000Y-20306250D01*
G75*
G02*
X197456250Y-20525000I-218750J0D01*
G01*
G37*
G04 #@! TD*
G04 #@! TO.C,R405*
G36*
G01*
X200656250Y-18950000D02*
X200143750Y-18950000D01*
G75*
G02*
X199925000Y-18731250I0J218750D01*
G01*
X199925000Y-18293750D01*
G75*
G02*
X200143750Y-18075000I218750J0D01*
G01*
X200656250Y-18075000D01*
G75*
G02*
X200875000Y-18293750I0J-218750D01*
G01*
X200875000Y-18731250D01*
G75*
G02*
X200656250Y-18950000I-218750J0D01*
G01*
G37*
G36*
G01*
X200656250Y-20525000D02*
X200143750Y-20525000D01*
G75*
G02*
X199925000Y-20306250I0J218750D01*
G01*
X199925000Y-19868750D01*
G75*
G02*
X200143750Y-19650000I218750J0D01*
G01*
X200656250Y-19650000D01*
G75*
G02*
X200875000Y-19868750I0J-218750D01*
G01*
X200875000Y-20306250D01*
G75*
G02*
X200656250Y-20525000I-218750J0D01*
G01*
G37*
G04 #@! TD*
G04 #@! TO.C,R404*
G36*
G01*
X199056250Y-18950000D02*
X198543750Y-18950000D01*
G75*
G02*
X198325000Y-18731250I0J218750D01*
G01*
X198325000Y-18293750D01*
G75*
G02*
X198543750Y-18075000I218750J0D01*
G01*
X199056250Y-18075000D01*
G75*
G02*
X199275000Y-18293750I0J-218750D01*
G01*
X199275000Y-18731250D01*
G75*
G02*
X199056250Y-18950000I-218750J0D01*
G01*
G37*
G36*
G01*
X199056250Y-20525000D02*
X198543750Y-20525000D01*
G75*
G02*
X198325000Y-20306250I0J218750D01*
G01*
X198325000Y-19868750D01*
G75*
G02*
X198543750Y-19650000I218750J0D01*
G01*
X199056250Y-19650000D01*
G75*
G02*
X199275000Y-19868750I0J-218750D01*
G01*
X199275000Y-20306250D01*
G75*
G02*
X199056250Y-20525000I-218750J0D01*
G01*
G37*
G04 #@! TD*
G04 #@! TO.C,R403*
G36*
G01*
X203450000Y-24043750D02*
X203450000Y-24556250D01*
G75*
G02*
X203231250Y-24775000I-218750J0D01*
G01*
X202793750Y-24775000D01*
G75*
G02*
X202575000Y-24556250I0J218750D01*
G01*
X202575000Y-24043750D01*
G75*
G02*
X202793750Y-23825000I218750J0D01*
G01*
X203231250Y-23825000D01*
G75*
G02*
X203450000Y-24043750I0J-218750D01*
G01*
G37*
G36*
G01*
X205025000Y-24043750D02*
X205025000Y-24556250D01*
G75*
G02*
X204806250Y-24775000I-218750J0D01*
G01*
X204368750Y-24775000D01*
G75*
G02*
X204150000Y-24556250I0J218750D01*
G01*
X204150000Y-24043750D01*
G75*
G02*
X204368750Y-23825000I218750J0D01*
G01*
X204806250Y-23825000D01*
G75*
G02*
X205025000Y-24043750I0J-218750D01*
G01*
G37*
G04 #@! TD*
G04 #@! TO.C,R402*
G36*
G01*
X204150000Y-21556250D02*
X204150000Y-21043750D01*
G75*
G02*
X204368750Y-20825000I218750J0D01*
G01*
X204806250Y-20825000D01*
G75*
G02*
X205025000Y-21043750I0J-218750D01*
G01*
X205025000Y-21556250D01*
G75*
G02*
X204806250Y-21775000I-218750J0D01*
G01*
X204368750Y-21775000D01*
G75*
G02*
X204150000Y-21556250I0J218750D01*
G01*
G37*
G36*
G01*
X202575000Y-21556250D02*
X202575000Y-21043750D01*
G75*
G02*
X202793750Y-20825000I218750J0D01*
G01*
X203231250Y-20825000D01*
G75*
G02*
X203450000Y-21043750I0J-218750D01*
G01*
X203450000Y-21556250D01*
G75*
G02*
X203231250Y-21775000I-218750J0D01*
G01*
X202793750Y-21775000D01*
G75*
G02*
X202575000Y-21556250I0J218750D01*
G01*
G37*
G04 #@! TD*
G04 #@! TO.C,R401*
G36*
G01*
X203450000Y-22543750D02*
X203450000Y-23056250D01*
G75*
G02*
X203231250Y-23275000I-218750J0D01*
G01*
X202793750Y-23275000D01*
G75*
G02*
X202575000Y-23056250I0J218750D01*
G01*
X202575000Y-22543750D01*
G75*
G02*
X202793750Y-22325000I218750J0D01*
G01*
X203231250Y-22325000D01*
G75*
G02*
X203450000Y-22543750I0J-218750D01*
G01*
G37*
G36*
G01*
X205025000Y-22543750D02*
X205025000Y-23056250D01*
G75*
G02*
X204806250Y-23275000I-218750J0D01*
G01*
X204368750Y-23275000D01*
G75*
G02*
X204150000Y-23056250I0J218750D01*
G01*
X204150000Y-22543750D01*
G75*
G02*
X204368750Y-22325000I218750J0D01*
G01*
X204806250Y-22325000D01*
G75*
G02*
X205025000Y-22543750I0J-218750D01*
G01*
G37*
G04 #@! TD*
D24*
G04 #@! TO.C,Q102*
X158600000Y-66800000D03*
X156600000Y-67450000D03*
X156600000Y-66150000D03*
G04 #@! TD*
D25*
G04 #@! TO.C,Q101*
X158600000Y-62502400D03*
X156600000Y-63452400D03*
X156600000Y-61552400D03*
G04 #@! TD*
G04 #@! TO.C,J102*
G36*
G01*
X210875000Y-106550001D02*
X210875000Y-104049999D01*
G75*
G02*
X211124999Y-103800000I249999J0D01*
G01*
X212725001Y-103800000D01*
G75*
G02*
X212975000Y-104049999I0J-249999D01*
G01*
X212975000Y-106550001D01*
G75*
G02*
X212725001Y-106800000I-249999J0D01*
G01*
X211124999Y-106800000D01*
G75*
G02*
X210875000Y-106550001I0J249999D01*
G01*
G37*
G36*
G01*
X197025000Y-106550001D02*
X197025000Y-104049999D01*
G75*
G02*
X197274999Y-103800000I249999J0D01*
G01*
X198875001Y-103800000D01*
G75*
G02*
X199125000Y-104049999I0J-249999D01*
G01*
X199125000Y-106550001D01*
G75*
G02*
X198875001Y-106800000I-249999J0D01*
G01*
X197274999Y-106800000D01*
G75*
G02*
X197025000Y-106550001I0J249999D01*
G01*
G37*
G36*
G01*
X208975000Y-103000000D02*
X208975000Y-102100000D01*
G75*
G02*
X209175000Y-101900000I200000J0D01*
G01*
X209575000Y-101900000D01*
G75*
G02*
X209775000Y-102100000I0J-200000D01*
G01*
X209775000Y-103000000D01*
G75*
G02*
X209575000Y-103200000I-200000J0D01*
G01*
X209175000Y-103200000D01*
G75*
G02*
X208975000Y-103000000I0J200000D01*
G01*
G37*
G36*
G01*
X207725000Y-103000000D02*
X207725000Y-102100000D01*
G75*
G02*
X207925000Y-101900000I200000J0D01*
G01*
X208325000Y-101900000D01*
G75*
G02*
X208525000Y-102100000I0J-200000D01*
G01*
X208525000Y-103000000D01*
G75*
G02*
X208325000Y-103200000I-200000J0D01*
G01*
X207925000Y-103200000D01*
G75*
G02*
X207725000Y-103000000I0J200000D01*
G01*
G37*
G36*
G01*
X206475000Y-103000000D02*
X206475000Y-102100000D01*
G75*
G02*
X206675000Y-101900000I200000J0D01*
G01*
X207075000Y-101900000D01*
G75*
G02*
X207275000Y-102100000I0J-200000D01*
G01*
X207275000Y-103000000D01*
G75*
G02*
X207075000Y-103200000I-200000J0D01*
G01*
X206675000Y-103200000D01*
G75*
G02*
X206475000Y-103000000I0J200000D01*
G01*
G37*
G36*
G01*
X205225000Y-103000000D02*
X205225000Y-102100000D01*
G75*
G02*
X205425000Y-101900000I200000J0D01*
G01*
X205825000Y-101900000D01*
G75*
G02*
X206025000Y-102100000I0J-200000D01*
G01*
X206025000Y-103000000D01*
G75*
G02*
X205825000Y-103200000I-200000J0D01*
G01*
X205425000Y-103200000D01*
G75*
G02*
X205225000Y-103000000I0J200000D01*
G01*
G37*
G36*
G01*
X203975000Y-103000000D02*
X203975000Y-102100000D01*
G75*
G02*
X204175000Y-101900000I200000J0D01*
G01*
X204575000Y-101900000D01*
G75*
G02*
X204775000Y-102100000I0J-200000D01*
G01*
X204775000Y-103000000D01*
G75*
G02*
X204575000Y-103200000I-200000J0D01*
G01*
X204175000Y-103200000D01*
G75*
G02*
X203975000Y-103000000I0J200000D01*
G01*
G37*
G36*
G01*
X202725000Y-103000000D02*
X202725000Y-102100000D01*
G75*
G02*
X202925000Y-101900000I200000J0D01*
G01*
X203325000Y-101900000D01*
G75*
G02*
X203525000Y-102100000I0J-200000D01*
G01*
X203525000Y-103000000D01*
G75*
G02*
X203325000Y-103200000I-200000J0D01*
G01*
X202925000Y-103200000D01*
G75*
G02*
X202725000Y-103000000I0J200000D01*
G01*
G37*
G36*
G01*
X201475000Y-103000000D02*
X201475000Y-102100000D01*
G75*
G02*
X201675000Y-101900000I200000J0D01*
G01*
X202075000Y-101900000D01*
G75*
G02*
X202275000Y-102100000I0J-200000D01*
G01*
X202275000Y-103000000D01*
G75*
G02*
X202075000Y-103200000I-200000J0D01*
G01*
X201675000Y-103200000D01*
G75*
G02*
X201475000Y-103000000I0J200000D01*
G01*
G37*
G36*
G01*
X200225000Y-103000000D02*
X200225000Y-102100000D01*
G75*
G02*
X200425000Y-101900000I200000J0D01*
G01*
X200825000Y-101900000D01*
G75*
G02*
X201025000Y-102100000I0J-200000D01*
G01*
X201025000Y-103000000D01*
G75*
G02*
X200825000Y-103200000I-200000J0D01*
G01*
X200425000Y-103200000D01*
G75*
G02*
X200225000Y-103000000I0J200000D01*
G01*
G37*
G04 #@! TD*
D26*
G04 #@! TO.C,D101*
X131400000Y-64300000D03*
X133000000Y-64300000D03*
X131400000Y-65200000D03*
X133000000Y-65200000D03*
G04 #@! TD*
G04 #@! TO.C,D404*
G36*
G01*
X197456250Y-21950000D02*
X196943750Y-21950000D01*
G75*
G02*
X196725000Y-21731250I0J218750D01*
G01*
X196725000Y-21293750D01*
G75*
G02*
X196943750Y-21075000I218750J0D01*
G01*
X197456250Y-21075000D01*
G75*
G02*
X197675000Y-21293750I0J-218750D01*
G01*
X197675000Y-21731250D01*
G75*
G02*
X197456250Y-21950000I-218750J0D01*
G01*
G37*
G36*
G01*
X197456250Y-23525000D02*
X196943750Y-23525000D01*
G75*
G02*
X196725000Y-23306250I0J218750D01*
G01*
X196725000Y-22868750D01*
G75*
G02*
X196943750Y-22650000I218750J0D01*
G01*
X197456250Y-22650000D01*
G75*
G02*
X197675000Y-22868750I0J-218750D01*
G01*
X197675000Y-23306250D01*
G75*
G02*
X197456250Y-23525000I-218750J0D01*
G01*
G37*
G04 #@! TD*
G04 #@! TO.C,D403*
G36*
G01*
X200656250Y-21950000D02*
X200143750Y-21950000D01*
G75*
G02*
X199925000Y-21731250I0J218750D01*
G01*
X199925000Y-21293750D01*
G75*
G02*
X200143750Y-21075000I218750J0D01*
G01*
X200656250Y-21075000D01*
G75*
G02*
X200875000Y-21293750I0J-218750D01*
G01*
X200875000Y-21731250D01*
G75*
G02*
X200656250Y-21950000I-218750J0D01*
G01*
G37*
G36*
G01*
X200656250Y-23525000D02*
X200143750Y-23525000D01*
G75*
G02*
X199925000Y-23306250I0J218750D01*
G01*
X199925000Y-22868750D01*
G75*
G02*
X200143750Y-22650000I218750J0D01*
G01*
X200656250Y-22650000D01*
G75*
G02*
X200875000Y-22868750I0J-218750D01*
G01*
X200875000Y-23306250D01*
G75*
G02*
X200656250Y-23525000I-218750J0D01*
G01*
G37*
G04 #@! TD*
G04 #@! TO.C,D402*
G36*
G01*
X199056250Y-21950000D02*
X198543750Y-21950000D01*
G75*
G02*
X198325000Y-21731250I0J218750D01*
G01*
X198325000Y-21293750D01*
G75*
G02*
X198543750Y-21075000I218750J0D01*
G01*
X199056250Y-21075000D01*
G75*
G02*
X199275000Y-21293750I0J-218750D01*
G01*
X199275000Y-21731250D01*
G75*
G02*
X199056250Y-21950000I-218750J0D01*
G01*
G37*
G36*
G01*
X199056250Y-23525000D02*
X198543750Y-23525000D01*
G75*
G02*
X198325000Y-23306250I0J218750D01*
G01*
X198325000Y-22868750D01*
G75*
G02*
X198543750Y-22650000I218750J0D01*
G01*
X199056250Y-22650000D01*
G75*
G02*
X199275000Y-22868750I0J-218750D01*
G01*
X199275000Y-23306250D01*
G75*
G02*
X199056250Y-23525000I-218750J0D01*
G01*
G37*
G04 #@! TD*
D27*
G04 #@! TO.C,D401*
X200450000Y-12800000D03*
X202350000Y-12800000D03*
X202350000Y-15000000D03*
D16*
X200630000Y-15000000D03*
G04 #@! TD*
G04 #@! TO.C,C101*
G36*
G01*
X174356250Y-75450000D02*
X173843750Y-75450000D01*
G75*
G02*
X173625000Y-75231250I0J218750D01*
G01*
X173625000Y-74793750D01*
G75*
G02*
X173843750Y-74575000I218750J0D01*
G01*
X174356250Y-74575000D01*
G75*
G02*
X174575000Y-74793750I0J-218750D01*
G01*
X174575000Y-75231250D01*
G75*
G02*
X174356250Y-75450000I-218750J0D01*
G01*
G37*
G36*
G01*
X174356250Y-77025000D02*
X173843750Y-77025000D01*
G75*
G02*
X173625000Y-76806250I0J218750D01*
G01*
X173625000Y-76368750D01*
G75*
G02*
X173843750Y-76150000I218750J0D01*
G01*
X174356250Y-76150000D01*
G75*
G02*
X174575000Y-76368750I0J-218750D01*
G01*
X174575000Y-76806250D01*
G75*
G02*
X174356250Y-77025000I-218750J0D01*
G01*
G37*
G04 #@! TD*
G04 #@! TO.C,C404*
G36*
G01*
X207250000Y-17343750D02*
X207250000Y-17856250D01*
G75*
G02*
X207031250Y-18075000I-218750J0D01*
G01*
X206593750Y-18075000D01*
G75*
G02*
X206375000Y-17856250I0J218750D01*
G01*
X206375000Y-17343750D01*
G75*
G02*
X206593750Y-17125000I218750J0D01*
G01*
X207031250Y-17125000D01*
G75*
G02*
X207250000Y-17343750I0J-218750D01*
G01*
G37*
G36*
G01*
X208825000Y-17343750D02*
X208825000Y-17856250D01*
G75*
G02*
X208606250Y-18075000I-218750J0D01*
G01*
X208168750Y-18075000D01*
G75*
G02*
X207950000Y-17856250I0J218750D01*
G01*
X207950000Y-17343750D01*
G75*
G02*
X208168750Y-17125000I218750J0D01*
G01*
X208606250Y-17125000D01*
G75*
G02*
X208825000Y-17343750I0J-218750D01*
G01*
G37*
G04 #@! TD*
G04 #@! TO.C,C403*
G36*
G01*
X207250000Y-18943750D02*
X207250000Y-19456250D01*
G75*
G02*
X207031250Y-19675000I-218750J0D01*
G01*
X206593750Y-19675000D01*
G75*
G02*
X206375000Y-19456250I0J218750D01*
G01*
X206375000Y-18943750D01*
G75*
G02*
X206593750Y-18725000I218750J0D01*
G01*
X207031250Y-18725000D01*
G75*
G02*
X207250000Y-18943750I0J-218750D01*
G01*
G37*
G36*
G01*
X208825000Y-18943750D02*
X208825000Y-19456250D01*
G75*
G02*
X208606250Y-19675000I-218750J0D01*
G01*
X208168750Y-19675000D01*
G75*
G02*
X207950000Y-19456250I0J218750D01*
G01*
X207950000Y-18943750D01*
G75*
G02*
X208168750Y-18725000I218750J0D01*
G01*
X208606250Y-18725000D01*
G75*
G02*
X208825000Y-18943750I0J-218750D01*
G01*
G37*
G04 #@! TD*
G04 #@! TO.C,C402*
G36*
G01*
X203450000Y-17343750D02*
X203450000Y-17856250D01*
G75*
G02*
X203231250Y-18075000I-218750J0D01*
G01*
X202793750Y-18075000D01*
G75*
G02*
X202575000Y-17856250I0J218750D01*
G01*
X202575000Y-17343750D01*
G75*
G02*
X202793750Y-17125000I218750J0D01*
G01*
X203231250Y-17125000D01*
G75*
G02*
X203450000Y-17343750I0J-218750D01*
G01*
G37*
G36*
G01*
X205025000Y-17343750D02*
X205025000Y-17856250D01*
G75*
G02*
X204806250Y-18075000I-218750J0D01*
G01*
X204368750Y-18075000D01*
G75*
G02*
X204150000Y-17856250I0J218750D01*
G01*
X204150000Y-17343750D01*
G75*
G02*
X204368750Y-17125000I218750J0D01*
G01*
X204806250Y-17125000D01*
G75*
G02*
X205025000Y-17343750I0J-218750D01*
G01*
G37*
G04 #@! TD*
G04 #@! TO.C,C401*
G36*
G01*
X203450000Y-18943750D02*
X203450000Y-19456250D01*
G75*
G02*
X203231250Y-19675000I-218750J0D01*
G01*
X202793750Y-19675000D01*
G75*
G02*
X202575000Y-19456250I0J218750D01*
G01*
X202575000Y-18943750D01*
G75*
G02*
X202793750Y-18725000I218750J0D01*
G01*
X203231250Y-18725000D01*
G75*
G02*
X203450000Y-18943750I0J-218750D01*
G01*
G37*
G36*
G01*
X205025000Y-18943750D02*
X205025000Y-19456250D01*
G75*
G02*
X204806250Y-19675000I-218750J0D01*
G01*
X204368750Y-19675000D01*
G75*
G02*
X204150000Y-19456250I0J218750D01*
G01*
X204150000Y-18943750D01*
G75*
G02*
X204368750Y-18725000I218750J0D01*
G01*
X204806250Y-18725000D01*
G75*
G02*
X205025000Y-18943750I0J-218750D01*
G01*
G37*
G04 #@! TD*
G04 #@! TO.C,C204*
G36*
G01*
X175395000Y-23670000D02*
X175395000Y-24170000D01*
G75*
G02*
X175170000Y-24395000I-225000J0D01*
G01*
X174720000Y-24395000D01*
G75*
G02*
X174495000Y-24170000I0J225000D01*
G01*
X174495000Y-23670000D01*
G75*
G02*
X174720000Y-23445000I225000J0D01*
G01*
X175170000Y-23445000D01*
G75*
G02*
X175395000Y-23670000I0J-225000D01*
G01*
G37*
G36*
G01*
X176945000Y-23670000D02*
X176945000Y-24170000D01*
G75*
G02*
X176720000Y-24395000I-225000J0D01*
G01*
X176270000Y-24395000D01*
G75*
G02*
X176045000Y-24170000I0J225000D01*
G01*
X176045000Y-23670000D01*
G75*
G02*
X176270000Y-23445000I225000J0D01*
G01*
X176720000Y-23445000D01*
G75*
G02*
X176945000Y-23670000I0J-225000D01*
G01*
G37*
G04 #@! TD*
G04 #@! TO.C,C301*
G36*
G01*
X170110000Y-52069999D02*
X170110000Y-54970001D01*
G75*
G02*
X169860001Y-55220000I-249999J0D01*
G01*
X168959999Y-55220000D01*
G75*
G02*
X168710000Y-54970001I0J249999D01*
G01*
X168710000Y-52069999D01*
G75*
G02*
X168959999Y-51820000I249999J0D01*
G01*
X169860001Y-51820000D01*
G75*
G02*
X170110000Y-52069999I0J-249999D01*
G01*
G37*
G36*
G01*
X166010000Y-52069999D02*
X166010000Y-54970001D01*
G75*
G02*
X165760001Y-55220000I-249999J0D01*
G01*
X164859999Y-55220000D01*
G75*
G02*
X164610000Y-54970001I0J249999D01*
G01*
X164610000Y-52069999D01*
G75*
G02*
X164859999Y-51820000I249999J0D01*
G01*
X165760001Y-51820000D01*
G75*
G02*
X166010000Y-52069999I0J-249999D01*
G01*
G37*
G04 #@! TD*
G04 #@! TO.C,C302*
G36*
G01*
X146560001Y-45020000D02*
X144359999Y-45020000D01*
G75*
G02*
X144110000Y-44770001I0J249999D01*
G01*
X144110000Y-44119999D01*
G75*
G02*
X144359999Y-43870000I249999J0D01*
G01*
X146560001Y-43870000D01*
G75*
G02*
X146810000Y-44119999I0J-249999D01*
G01*
X146810000Y-44770001D01*
G75*
G02*
X146560001Y-45020000I-249999J0D01*
G01*
G37*
G36*
G01*
X146560001Y-47970000D02*
X144359999Y-47970000D01*
G75*
G02*
X144110000Y-47720001I0J249999D01*
G01*
X144110000Y-47069999D01*
G75*
G02*
X144359999Y-46820000I249999J0D01*
G01*
X146560001Y-46820000D01*
G75*
G02*
X146810000Y-47069999I0J-249999D01*
G01*
X146810000Y-47720001D01*
G75*
G02*
X146560001Y-47970000I-249999J0D01*
G01*
G37*
G04 #@! TD*
G04 #@! TO.C,C303*
G36*
G01*
X139610000Y-44520000D02*
X140710000Y-44520000D01*
G75*
G02*
X140960000Y-44770000I0J-250000D01*
G01*
X140960000Y-47595000D01*
G75*
G02*
X140710000Y-47845000I-250000J0D01*
G01*
X139610000Y-47845000D01*
G75*
G02*
X139360000Y-47595000I0J250000D01*
G01*
X139360000Y-44770000D01*
G75*
G02*
X139610000Y-44520000I250000J0D01*
G01*
G37*
G36*
G01*
X139610000Y-49595000D02*
X140710000Y-49595000D01*
G75*
G02*
X140960000Y-49845000I0J-250000D01*
G01*
X140960000Y-52670000D01*
G75*
G02*
X140710000Y-52920000I-250000J0D01*
G01*
X139610000Y-52920000D01*
G75*
G02*
X139360000Y-52670000I0J250000D01*
G01*
X139360000Y-49845000D01*
G75*
G02*
X139610000Y-49595000I250000J0D01*
G01*
G37*
G04 #@! TD*
G04 #@! TO.C,C304*
G36*
G01*
X150560001Y-47970000D02*
X148359999Y-47970000D01*
G75*
G02*
X148110000Y-47720001I0J249999D01*
G01*
X148110000Y-47069999D01*
G75*
G02*
X148359999Y-46820000I249999J0D01*
G01*
X150560001Y-46820000D01*
G75*
G02*
X150810000Y-47069999I0J-249999D01*
G01*
X150810000Y-47720001D01*
G75*
G02*
X150560001Y-47970000I-249999J0D01*
G01*
G37*
G36*
G01*
X150560001Y-45020000D02*
X148359999Y-45020000D01*
G75*
G02*
X148110000Y-44770001I0J249999D01*
G01*
X148110000Y-44119999D01*
G75*
G02*
X148359999Y-43870000I249999J0D01*
G01*
X150560001Y-43870000D01*
G75*
G02*
X150810000Y-44119999I0J-249999D01*
G01*
X150810000Y-44770001D01*
G75*
G02*
X150560001Y-45020000I-249999J0D01*
G01*
G37*
G04 #@! TD*
G04 #@! TO.C,C306*
G36*
G01*
X152410000Y-51020000D02*
X153510000Y-51020000D01*
G75*
G02*
X153760000Y-51270000I0J-250000D01*
G01*
X153760000Y-53370000D01*
G75*
G02*
X153510000Y-53620000I-250000J0D01*
G01*
X152410000Y-53620000D01*
G75*
G02*
X152160000Y-53370000I0J250000D01*
G01*
X152160000Y-51270000D01*
G75*
G02*
X152410000Y-51020000I250000J0D01*
G01*
G37*
G36*
G01*
X152410000Y-47420000D02*
X153510000Y-47420000D01*
G75*
G02*
X153760000Y-47670000I0J-250000D01*
G01*
X153760000Y-49770000D01*
G75*
G02*
X153510000Y-50020000I-250000J0D01*
G01*
X152410000Y-50020000D01*
G75*
G02*
X152160000Y-49770000I0J250000D01*
G01*
X152160000Y-47670000D01*
G75*
G02*
X152410000Y-47420000I250000J0D01*
G01*
G37*
G04 #@! TD*
G04 #@! TO.C,C308*
G36*
G01*
X185260001Y-44295000D02*
X183059999Y-44295000D01*
G75*
G02*
X182810000Y-44045001I0J249999D01*
G01*
X182810000Y-43394999D01*
G75*
G02*
X183059999Y-43145000I249999J0D01*
G01*
X185260001Y-43145000D01*
G75*
G02*
X185510000Y-43394999I0J-249999D01*
G01*
X185510000Y-44045001D01*
G75*
G02*
X185260001Y-44295000I-249999J0D01*
G01*
G37*
G36*
G01*
X185260001Y-41345000D02*
X183059999Y-41345000D01*
G75*
G02*
X182810000Y-41095001I0J249999D01*
G01*
X182810000Y-40444999D01*
G75*
G02*
X183059999Y-40195000I249999J0D01*
G01*
X185260001Y-40195000D01*
G75*
G02*
X185510000Y-40444999I0J-249999D01*
G01*
X185510000Y-41095001D01*
G75*
G02*
X185260001Y-41345000I-249999J0D01*
G01*
G37*
G04 #@! TD*
G04 #@! TO.C,C309*
G36*
G01*
X188910000Y-46620000D02*
X187810000Y-46620000D01*
G75*
G02*
X187560000Y-46370000I0J250000D01*
G01*
X187560000Y-44270000D01*
G75*
G02*
X187810000Y-44020000I250000J0D01*
G01*
X188910000Y-44020000D01*
G75*
G02*
X189160000Y-44270000I0J-250000D01*
G01*
X189160000Y-46370000D01*
G75*
G02*
X188910000Y-46620000I-250000J0D01*
G01*
G37*
G36*
G01*
X188910000Y-43020000D02*
X187810000Y-43020000D01*
G75*
G02*
X187560000Y-42770000I0J250000D01*
G01*
X187560000Y-40670000D01*
G75*
G02*
X187810000Y-40420000I250000J0D01*
G01*
X188910000Y-40420000D01*
G75*
G02*
X189160000Y-40670000I0J-250000D01*
G01*
X189160000Y-42770000D01*
G75*
G02*
X188910000Y-43020000I-250000J0D01*
G01*
G37*
G04 #@! TD*
G04 #@! TO.C,C310*
G36*
G01*
X182060001Y-41345000D02*
X179859999Y-41345000D01*
G75*
G02*
X179610000Y-41095001I0J249999D01*
G01*
X179610000Y-40444999D01*
G75*
G02*
X179859999Y-40195000I249999J0D01*
G01*
X182060001Y-40195000D01*
G75*
G02*
X182310000Y-40444999I0J-249999D01*
G01*
X182310000Y-41095001D01*
G75*
G02*
X182060001Y-41345000I-249999J0D01*
G01*
G37*
G36*
G01*
X182060001Y-44295000D02*
X179859999Y-44295000D01*
G75*
G02*
X179610000Y-44045001I0J249999D01*
G01*
X179610000Y-43394999D01*
G75*
G02*
X179859999Y-43145000I249999J0D01*
G01*
X182060001Y-43145000D01*
G75*
G02*
X182310000Y-43394999I0J-249999D01*
G01*
X182310000Y-44045001D01*
G75*
G02*
X182060001Y-44295000I-249999J0D01*
G01*
G37*
G04 #@! TD*
G04 #@! TO.C,C311*
G36*
G01*
X129085000Y-47270000D02*
X130035000Y-47270000D01*
G75*
G02*
X130285000Y-47520000I0J-250000D01*
G01*
X130285000Y-48020000D01*
G75*
G02*
X130035000Y-48270000I-250000J0D01*
G01*
X129085000Y-48270000D01*
G75*
G02*
X128835000Y-48020000I0J250000D01*
G01*
X128835000Y-47520000D01*
G75*
G02*
X129085000Y-47270000I250000J0D01*
G01*
G37*
G36*
G01*
X129085000Y-49170000D02*
X130035000Y-49170000D01*
G75*
G02*
X130285000Y-49420000I0J-250000D01*
G01*
X130285000Y-49920000D01*
G75*
G02*
X130035000Y-50170000I-250000J0D01*
G01*
X129085000Y-50170000D01*
G75*
G02*
X128835000Y-49920000I0J250000D01*
G01*
X128835000Y-49420000D01*
G75*
G02*
X129085000Y-49170000I250000J0D01*
G01*
G37*
G04 #@! TD*
G04 #@! TO.C,C312*
G36*
G01*
X131085000Y-47270000D02*
X132035000Y-47270000D01*
G75*
G02*
X132285000Y-47520000I0J-250000D01*
G01*
X132285000Y-48020000D01*
G75*
G02*
X132035000Y-48270000I-250000J0D01*
G01*
X131085000Y-48270000D01*
G75*
G02*
X130835000Y-48020000I0J250000D01*
G01*
X130835000Y-47520000D01*
G75*
G02*
X131085000Y-47270000I250000J0D01*
G01*
G37*
G36*
G01*
X131085000Y-49170000D02*
X132035000Y-49170000D01*
G75*
G02*
X132285000Y-49420000I0J-250000D01*
G01*
X132285000Y-49920000D01*
G75*
G02*
X132035000Y-50170000I-250000J0D01*
G01*
X131085000Y-50170000D01*
G75*
G02*
X130835000Y-49920000I0J250000D01*
G01*
X130835000Y-49420000D01*
G75*
G02*
X131085000Y-49170000I250000J0D01*
G01*
G37*
G04 #@! TD*
D28*
G04 #@! TO.C,D308*
X184160000Y-48120000D03*
X177360000Y-48120000D03*
G04 #@! TD*
D29*
G04 #@! TO.C,D309*
X134560000Y-50720000D03*
X134560000Y-46720000D03*
G04 #@! TD*
G04 #@! TO.C,R304*
G36*
G01*
X157135000Y-48345000D02*
X157135000Y-48895000D01*
G75*
G02*
X156935000Y-49095000I-200000J0D01*
G01*
X156535000Y-49095000D01*
G75*
G02*
X156335000Y-48895000I0J200000D01*
G01*
X156335000Y-48345000D01*
G75*
G02*
X156535000Y-48145000I200000J0D01*
G01*
X156935000Y-48145000D01*
G75*
G02*
X157135000Y-48345000I0J-200000D01*
G01*
G37*
G36*
G01*
X158785000Y-48345000D02*
X158785000Y-48895000D01*
G75*
G02*
X158585000Y-49095000I-200000J0D01*
G01*
X158185000Y-49095000D01*
G75*
G02*
X157985000Y-48895000I0J200000D01*
G01*
X157985000Y-48345000D01*
G75*
G02*
X158185000Y-48145000I200000J0D01*
G01*
X158585000Y-48145000D01*
G75*
G02*
X158785000Y-48345000I0J-200000D01*
G01*
G37*
G04 #@! TD*
G04 #@! TO.C,R318*
G36*
G01*
X149734997Y-39295000D02*
X150985003Y-39295000D01*
G75*
G02*
X151235000Y-39544997I0J-249997D01*
G01*
X151235000Y-40170003D01*
G75*
G02*
X150985003Y-40420000I-249997J0D01*
G01*
X149734997Y-40420000D01*
G75*
G02*
X149485000Y-40170003I0J249997D01*
G01*
X149485000Y-39544997D01*
G75*
G02*
X149734997Y-39295000I249997J0D01*
G01*
G37*
G36*
G01*
X149734997Y-42220000D02*
X150985003Y-42220000D01*
G75*
G02*
X151235000Y-42469997I0J-249997D01*
G01*
X151235000Y-43095003D01*
G75*
G02*
X150985003Y-43345000I-249997J0D01*
G01*
X149734997Y-43345000D01*
G75*
G02*
X149485000Y-43095003I0J249997D01*
G01*
X149485000Y-42469997D01*
G75*
G02*
X149734997Y-42220000I249997J0D01*
G01*
G37*
G04 #@! TD*
G04 #@! TO.C,R102*
G36*
G01*
X158975000Y-76075000D02*
X158975000Y-75525000D01*
G75*
G02*
X159175000Y-75325000I200000J0D01*
G01*
X159575000Y-75325000D01*
G75*
G02*
X159775000Y-75525000I0J-200000D01*
G01*
X159775000Y-76075000D01*
G75*
G02*
X159575000Y-76275000I-200000J0D01*
G01*
X159175000Y-76275000D01*
G75*
G02*
X158975000Y-76075000I0J200000D01*
G01*
G37*
G36*
G01*
X160625000Y-76075000D02*
X160625000Y-75525000D01*
G75*
G02*
X160825000Y-75325000I200000J0D01*
G01*
X161225000Y-75325000D01*
G75*
G02*
X161425000Y-75525000I0J-200000D01*
G01*
X161425000Y-76075000D01*
G75*
G02*
X161225000Y-76275000I-200000J0D01*
G01*
X160825000Y-76275000D01*
G75*
G02*
X160625000Y-76075000I0J200000D01*
G01*
G37*
G04 #@! TD*
G04 #@! TO.C,R104*
G36*
G01*
X159775000Y-72325000D02*
X159775000Y-72875000D01*
G75*
G02*
X159575000Y-73075000I-200000J0D01*
G01*
X159175000Y-73075000D01*
G75*
G02*
X158975000Y-72875000I0J200000D01*
G01*
X158975000Y-72325000D01*
G75*
G02*
X159175000Y-72125000I200000J0D01*
G01*
X159575000Y-72125000D01*
G75*
G02*
X159775000Y-72325000I0J-200000D01*
G01*
G37*
G36*
G01*
X161425000Y-72325000D02*
X161425000Y-72875000D01*
G75*
G02*
X161225000Y-73075000I-200000J0D01*
G01*
X160825000Y-73075000D01*
G75*
G02*
X160625000Y-72875000I0J200000D01*
G01*
X160625000Y-72325000D01*
G75*
G02*
X160825000Y-72125000I200000J0D01*
G01*
X161225000Y-72125000D01*
G75*
G02*
X161425000Y-72325000I0J-200000D01*
G01*
G37*
G04 #@! TD*
D30*
G04 #@! TO.C,U102*
X172000000Y-81425000D03*
X172000000Y-80775000D03*
X172000000Y-80125000D03*
X172000000Y-79475000D03*
X172000000Y-78825000D03*
X172000000Y-78175000D03*
X172000000Y-77525000D03*
X172000000Y-76875000D03*
X172000000Y-76225000D03*
X172000000Y-75575000D03*
X172000000Y-74925000D03*
X172000000Y-74275000D03*
X172000000Y-73625000D03*
X172000000Y-72975000D03*
X164800000Y-72975000D03*
X164800000Y-73625000D03*
X164800000Y-74275000D03*
X164800000Y-74925000D03*
X164800000Y-75575000D03*
X164800000Y-76225000D03*
X164800000Y-76875000D03*
X164800000Y-77525000D03*
X164800000Y-78175000D03*
X164800000Y-78825000D03*
X164800000Y-79475000D03*
X164800000Y-80125000D03*
X164800000Y-80775000D03*
X164800000Y-81425000D03*
G04 #@! TD*
G04 #@! TO.C,C405*
G36*
G01*
X170850000Y-107150000D02*
X170850000Y-106650000D01*
G75*
G02*
X171075000Y-106425000I225000J0D01*
G01*
X171525000Y-106425000D01*
G75*
G02*
X171750000Y-106650000I0J-225000D01*
G01*
X171750000Y-107150000D01*
G75*
G02*
X171525000Y-107375000I-225000J0D01*
G01*
X171075000Y-107375000D01*
G75*
G02*
X170850000Y-107150000I0J225000D01*
G01*
G37*
G36*
G01*
X172400000Y-107150000D02*
X172400000Y-106650000D01*
G75*
G02*
X172625000Y-106425000I225000J0D01*
G01*
X173075000Y-106425000D01*
G75*
G02*
X173300000Y-106650000I0J-225000D01*
G01*
X173300000Y-107150000D01*
G75*
G02*
X173075000Y-107375000I-225000J0D01*
G01*
X172625000Y-107375000D01*
G75*
G02*
X172400000Y-107150000I0J225000D01*
G01*
G37*
G04 #@! TD*
G04 #@! TO.C,R407*
G36*
G01*
X197425000Y-91200000D02*
X197975000Y-91200000D01*
G75*
G02*
X198175000Y-91400000I0J-200000D01*
G01*
X198175000Y-91800000D01*
G75*
G02*
X197975000Y-92000000I-200000J0D01*
G01*
X197425000Y-92000000D01*
G75*
G02*
X197225000Y-91800000I0J200000D01*
G01*
X197225000Y-91400000D01*
G75*
G02*
X197425000Y-91200000I200000J0D01*
G01*
G37*
G36*
G01*
X197425000Y-92850000D02*
X197975000Y-92850000D01*
G75*
G02*
X198175000Y-93050000I0J-200000D01*
G01*
X198175000Y-93450000D01*
G75*
G02*
X197975000Y-93650000I-200000J0D01*
G01*
X197425000Y-93650000D01*
G75*
G02*
X197225000Y-93450000I0J200000D01*
G01*
X197225000Y-93050000D01*
G75*
G02*
X197425000Y-92850000I200000J0D01*
G01*
G37*
G04 #@! TD*
G04 #@! TO.C,C602*
G36*
G01*
X128866600Y-80276000D02*
X128866600Y-79776000D01*
G75*
G02*
X129091600Y-79551000I225000J0D01*
G01*
X129541600Y-79551000D01*
G75*
G02*
X129766600Y-79776000I0J-225000D01*
G01*
X129766600Y-80276000D01*
G75*
G02*
X129541600Y-80501000I-225000J0D01*
G01*
X129091600Y-80501000D01*
G75*
G02*
X128866600Y-80276000I0J225000D01*
G01*
G37*
G36*
G01*
X130416600Y-80276000D02*
X130416600Y-79776000D01*
G75*
G02*
X130641600Y-79551000I225000J0D01*
G01*
X131091600Y-79551000D01*
G75*
G02*
X131316600Y-79776000I0J-225000D01*
G01*
X131316600Y-80276000D01*
G75*
G02*
X131091600Y-80501000I-225000J0D01*
G01*
X130641600Y-80501000D01*
G75*
G02*
X130416600Y-80276000I0J225000D01*
G01*
G37*
G04 #@! TD*
G04 #@! TO.C,C501*
G36*
G01*
X150675000Y-85950000D02*
X150675000Y-86450000D01*
G75*
G02*
X150450000Y-86675000I-225000J0D01*
G01*
X150000000Y-86675000D01*
G75*
G02*
X149775000Y-86450000I0J225000D01*
G01*
X149775000Y-85950000D01*
G75*
G02*
X150000000Y-85725000I225000J0D01*
G01*
X150450000Y-85725000D01*
G75*
G02*
X150675000Y-85950000I0J-225000D01*
G01*
G37*
G36*
G01*
X152225000Y-85950000D02*
X152225000Y-86450000D01*
G75*
G02*
X152000000Y-86675000I-225000J0D01*
G01*
X151550000Y-86675000D01*
G75*
G02*
X151325000Y-86450000I0J225000D01*
G01*
X151325000Y-85950000D01*
G75*
G02*
X151550000Y-85725000I225000J0D01*
G01*
X152000000Y-85725000D01*
G75*
G02*
X152225000Y-85950000I0J-225000D01*
G01*
G37*
G04 #@! TD*
G04 #@! TO.C,R115*
G36*
G01*
X118683400Y-104707400D02*
X118683400Y-104157400D01*
G75*
G02*
X118883400Y-103957400I200000J0D01*
G01*
X119283400Y-103957400D01*
G75*
G02*
X119483400Y-104157400I0J-200000D01*
G01*
X119483400Y-104707400D01*
G75*
G02*
X119283400Y-104907400I-200000J0D01*
G01*
X118883400Y-104907400D01*
G75*
G02*
X118683400Y-104707400I0J200000D01*
G01*
G37*
G36*
G01*
X117033400Y-104707400D02*
X117033400Y-104157400D01*
G75*
G02*
X117233400Y-103957400I200000J0D01*
G01*
X117633400Y-103957400D01*
G75*
G02*
X117833400Y-104157400I0J-200000D01*
G01*
X117833400Y-104707400D01*
G75*
G02*
X117633400Y-104907400I-200000J0D01*
G01*
X117233400Y-104907400D01*
G75*
G02*
X117033400Y-104707400I0J200000D01*
G01*
G37*
G04 #@! TD*
G04 #@! TO.C,R602*
G36*
G01*
X130516600Y-78726200D02*
X130516600Y-78176200D01*
G75*
G02*
X130716600Y-77976200I200000J0D01*
G01*
X131116600Y-77976200D01*
G75*
G02*
X131316600Y-78176200I0J-200000D01*
G01*
X131316600Y-78726200D01*
G75*
G02*
X131116600Y-78926200I-200000J0D01*
G01*
X130716600Y-78926200D01*
G75*
G02*
X130516600Y-78726200I0J200000D01*
G01*
G37*
G36*
G01*
X128866600Y-78726200D02*
X128866600Y-78176200D01*
G75*
G02*
X129066600Y-77976200I200000J0D01*
G01*
X129466600Y-77976200D01*
G75*
G02*
X129666600Y-78176200I0J-200000D01*
G01*
X129666600Y-78726200D01*
G75*
G02*
X129466600Y-78926200I-200000J0D01*
G01*
X129066600Y-78926200D01*
G75*
G02*
X128866600Y-78726200I0J200000D01*
G01*
G37*
G04 #@! TD*
G04 #@! TO.C,R601*
G36*
G01*
X128075000Y-89000000D02*
X127525000Y-89000000D01*
G75*
G02*
X127325000Y-88800000I0J200000D01*
G01*
X127325000Y-88400000D01*
G75*
G02*
X127525000Y-88200000I200000J0D01*
G01*
X128075000Y-88200000D01*
G75*
G02*
X128275000Y-88400000I0J-200000D01*
G01*
X128275000Y-88800000D01*
G75*
G02*
X128075000Y-89000000I-200000J0D01*
G01*
G37*
G36*
G01*
X128075000Y-87350000D02*
X127525000Y-87350000D01*
G75*
G02*
X127325000Y-87150000I0J200000D01*
G01*
X127325000Y-86750000D01*
G75*
G02*
X127525000Y-86550000I200000J0D01*
G01*
X128075000Y-86550000D01*
G75*
G02*
X128275000Y-86750000I0J-200000D01*
G01*
X128275000Y-87150000D01*
G75*
G02*
X128075000Y-87350000I-200000J0D01*
G01*
G37*
G04 #@! TD*
G04 #@! TO.C,R501*
G36*
G01*
X152225000Y-77725000D02*
X152225000Y-78275000D01*
G75*
G02*
X152025000Y-78475000I-200000J0D01*
G01*
X151625000Y-78475000D01*
G75*
G02*
X151425000Y-78275000I0J200000D01*
G01*
X151425000Y-77725000D01*
G75*
G02*
X151625000Y-77525000I200000J0D01*
G01*
X152025000Y-77525000D01*
G75*
G02*
X152225000Y-77725000I0J-200000D01*
G01*
G37*
G36*
G01*
X150575000Y-77725000D02*
X150575000Y-78275000D01*
G75*
G02*
X150375000Y-78475000I-200000J0D01*
G01*
X149975000Y-78475000D01*
G75*
G02*
X149775000Y-78275000I0J200000D01*
G01*
X149775000Y-77725000D01*
G75*
G02*
X149975000Y-77525000I200000J0D01*
G01*
X150375000Y-77525000D01*
G75*
G02*
X150575000Y-77725000I0J-200000D01*
G01*
G37*
G04 #@! TD*
G04 #@! TO.C,R502*
G36*
G01*
X152225000Y-79325000D02*
X152225000Y-79875000D01*
G75*
G02*
X152025000Y-80075000I-200000J0D01*
G01*
X151625000Y-80075000D01*
G75*
G02*
X151425000Y-79875000I0J200000D01*
G01*
X151425000Y-79325000D01*
G75*
G02*
X151625000Y-79125000I200000J0D01*
G01*
X152025000Y-79125000D01*
G75*
G02*
X152225000Y-79325000I0J-200000D01*
G01*
G37*
G36*
G01*
X150575000Y-79325000D02*
X150575000Y-79875000D01*
G75*
G02*
X150375000Y-80075000I-200000J0D01*
G01*
X149975000Y-80075000D01*
G75*
G02*
X149775000Y-79875000I0J200000D01*
G01*
X149775000Y-79325000D01*
G75*
G02*
X149975000Y-79125000I200000J0D01*
G01*
X150375000Y-79125000D01*
G75*
G02*
X150575000Y-79325000I0J-200000D01*
G01*
G37*
G04 #@! TD*
G04 #@! TO.C,R503*
G36*
G01*
X153525000Y-85875000D02*
X154075000Y-85875000D01*
G75*
G02*
X154275000Y-86075000I0J-200000D01*
G01*
X154275000Y-86475000D01*
G75*
G02*
X154075000Y-86675000I-200000J0D01*
G01*
X153525000Y-86675000D01*
G75*
G02*
X153325000Y-86475000I0J200000D01*
G01*
X153325000Y-86075000D01*
G75*
G02*
X153525000Y-85875000I200000J0D01*
G01*
G37*
G36*
G01*
X153525000Y-84225000D02*
X154075000Y-84225000D01*
G75*
G02*
X154275000Y-84425000I0J-200000D01*
G01*
X154275000Y-84825000D01*
G75*
G02*
X154075000Y-85025000I-200000J0D01*
G01*
X153525000Y-85025000D01*
G75*
G02*
X153325000Y-84825000I0J200000D01*
G01*
X153325000Y-84425000D01*
G75*
G02*
X153525000Y-84225000I200000J0D01*
G01*
G37*
G04 #@! TD*
D31*
G04 #@! TO.C,U602*
X124900000Y-81725000D03*
X125400000Y-81725000D03*
X125900000Y-81725000D03*
X126400000Y-81725000D03*
X126900000Y-81725000D03*
X127400000Y-81725000D03*
X127900000Y-81725000D03*
X127900000Y-85525000D03*
X127400000Y-85525000D03*
X126900000Y-85525000D03*
X126400000Y-85525000D03*
X125900000Y-85525000D03*
X125400000Y-85525000D03*
X124900000Y-85525000D03*
D32*
X125750000Y-84275000D03*
X125750000Y-82975000D03*
X127050000Y-82975000D03*
X127050000Y-84275000D03*
G04 #@! TD*
D23*
G04 #@! TO.C,U501*
G36*
X150350000Y-81850000D02*
G01*
X150650000Y-81550000D01*
X151350000Y-81550000D01*
X151650000Y-81850000D01*
X150350000Y-81850000D01*
G37*
D33*
X151150000Y-81700000D03*
D34*
X151000000Y-82950000D03*
D35*
X152050000Y-84000000D03*
X152050000Y-83400000D03*
X152050000Y-81600000D03*
X152050000Y-82200000D03*
X149950000Y-84000000D03*
X149950000Y-81600000D03*
X149950000Y-82200000D03*
X149950000Y-82800000D03*
X149950000Y-83400000D03*
X152050000Y-82800000D03*
G04 #@! TD*
G04 #@! TO.C,C108*
G36*
G01*
X117933400Y-105757200D02*
X117933400Y-106257200D01*
G75*
G02*
X117708400Y-106482200I-225000J0D01*
G01*
X117258400Y-106482200D01*
G75*
G02*
X117033400Y-106257200I0J225000D01*
G01*
X117033400Y-105757200D01*
G75*
G02*
X117258400Y-105532200I225000J0D01*
G01*
X117708400Y-105532200D01*
G75*
G02*
X117933400Y-105757200I0J-225000D01*
G01*
G37*
G36*
G01*
X119483400Y-105757200D02*
X119483400Y-106257200D01*
G75*
G02*
X119258400Y-106482200I-225000J0D01*
G01*
X118808400Y-106482200D01*
G75*
G02*
X118583400Y-106257200I0J225000D01*
G01*
X118583400Y-105757200D01*
G75*
G02*
X118808400Y-105532200I225000J0D01*
G01*
X119258400Y-105532200D01*
G75*
G02*
X119483400Y-105757200I0J-225000D01*
G01*
G37*
G04 #@! TD*
G04 #@! TO.C,C703*
G36*
G01*
X150110749Y-98651378D02*
X149757195Y-98297824D01*
G75*
G02*
X149757195Y-97979626I159099J159099D01*
G01*
X150075393Y-97661428D01*
G75*
G02*
X150393591Y-97661428I159099J-159099D01*
G01*
X150747145Y-98014982D01*
G75*
G02*
X150747145Y-98333180I-159099J-159099D01*
G01*
X150428947Y-98651378D01*
G75*
G02*
X150110749Y-98651378I-159099J159099D01*
G01*
G37*
G36*
G01*
X151206765Y-97555362D02*
X150853211Y-97201808D01*
G75*
G02*
X150853211Y-96883610I159099J159099D01*
G01*
X151171409Y-96565412D01*
G75*
G02*
X151489607Y-96565412I159099J-159099D01*
G01*
X151843161Y-96918966D01*
G75*
G02*
X151843161Y-97237164I-159099J-159099D01*
G01*
X151524963Y-97555362D01*
G75*
G02*
X151206765Y-97555362I-159099J159099D01*
G01*
G37*
G04 #@! TD*
G04 #@! TO.C,C704*
G36*
G01*
X149423723Y-102295240D02*
X149777277Y-102648794D01*
G75*
G02*
X149777277Y-102966992I-159099J-159099D01*
G01*
X149459079Y-103285190D01*
G75*
G02*
X149140881Y-103285190I-159099J159099D01*
G01*
X148787327Y-102931636D01*
G75*
G02*
X148787327Y-102613438I159099J159099D01*
G01*
X149105525Y-102295240D01*
G75*
G02*
X149423723Y-102295240I159099J-159099D01*
G01*
G37*
G36*
G01*
X150519739Y-101199224D02*
X150873293Y-101552778D01*
G75*
G02*
X150873293Y-101870976I-159099J-159099D01*
G01*
X150555095Y-102189174D01*
G75*
G02*
X150236897Y-102189174I-159099J159099D01*
G01*
X149883343Y-101835620D01*
G75*
G02*
X149883343Y-101517422I159099J159099D01*
G01*
X150201541Y-101199224D01*
G75*
G02*
X150519739Y-101199224I159099J-159099D01*
G01*
G37*
G04 #@! TD*
G04 #@! TO.C,C707*
G36*
G01*
X148997197Y-97537826D02*
X148643643Y-97184272D01*
G75*
G02*
X148643643Y-96866074I159099J159099D01*
G01*
X148961841Y-96547876D01*
G75*
G02*
X149280039Y-96547876I159099J-159099D01*
G01*
X149633593Y-96901430D01*
G75*
G02*
X149633593Y-97219628I-159099J-159099D01*
G01*
X149315395Y-97537826D01*
G75*
G02*
X148997197Y-97537826I-159099J159099D01*
G01*
G37*
G36*
G01*
X150093213Y-96441810D02*
X149739659Y-96088256D01*
G75*
G02*
X149739659Y-95770058I159099J159099D01*
G01*
X150057857Y-95451860D01*
G75*
G02*
X150376055Y-95451860I159099J-159099D01*
G01*
X150729609Y-95805414D01*
G75*
G02*
X150729609Y-96123612I-159099J-159099D01*
G01*
X150411411Y-96441810D01*
G75*
G02*
X150093213Y-96441810I-159099J159099D01*
G01*
G37*
G04 #@! TD*
G04 #@! TO.C,R701*
G36*
G01*
X154403028Y-97232214D02*
X154014119Y-96843305D01*
G75*
G02*
X154014119Y-96560463I141421J141421D01*
G01*
X154296962Y-96277620D01*
G75*
G02*
X154579804Y-96277620I141421J-141421D01*
G01*
X154968713Y-96666529D01*
G75*
G02*
X154968713Y-96949371I-141421J-141421D01*
G01*
X154685870Y-97232214D01*
G75*
G02*
X154403028Y-97232214I-141421J141421D01*
G01*
G37*
G36*
G01*
X155569754Y-96065488D02*
X155180845Y-95676579D01*
G75*
G02*
X155180845Y-95393737I141421J141421D01*
G01*
X155463688Y-95110894D01*
G75*
G02*
X155746530Y-95110894I141421J-141421D01*
G01*
X156135439Y-95499803D01*
G75*
G02*
X156135439Y-95782645I-141421J-141421D01*
G01*
X155852596Y-96065488D01*
G75*
G02*
X155569754Y-96065488I-141421J141421D01*
G01*
G37*
G04 #@! TD*
D23*
G04 #@! TO.C,U702*
G36*
X154325246Y-99468086D02*
G01*
X154113114Y-99255954D01*
X154509094Y-98859974D01*
X154721226Y-99072106D01*
X154325246Y-99468086D01*
G37*
G36*
X154678799Y-99821639D02*
G01*
X154466667Y-99609507D01*
X154862647Y-99213527D01*
X155074779Y-99425659D01*
X154678799Y-99821639D01*
G37*
G36*
X153971693Y-99114533D02*
G01*
X153759561Y-98902401D01*
X154155541Y-98506421D01*
X154367673Y-98718553D01*
X153971693Y-99114533D01*
G37*
G36*
X155032353Y-100175193D02*
G01*
X154820221Y-99963061D01*
X155216201Y-99567081D01*
X155428333Y-99779213D01*
X155032353Y-100175193D01*
G37*
G36*
X153618139Y-98760979D02*
G01*
X153406007Y-98548847D01*
X153801987Y-98152867D01*
X154014119Y-98364999D01*
X153618139Y-98760979D01*
G37*
G36*
X153264586Y-98407426D02*
G01*
X153052454Y-98195294D01*
X153448434Y-97799314D01*
X153660566Y-98011446D01*
X153264586Y-98407426D01*
G37*
G36*
X155385906Y-100528746D02*
G01*
X155173774Y-100316614D01*
X155569754Y-99920634D01*
X155781886Y-100132766D01*
X155385906Y-100528746D01*
G37*
G36*
X150987702Y-100684310D02*
G01*
X150775570Y-100472178D01*
X151171550Y-100076198D01*
X151383682Y-100288330D01*
X150987702Y-100684310D01*
G37*
G36*
X151341255Y-101037863D02*
G01*
X151129123Y-100825731D01*
X151525103Y-100429751D01*
X151737235Y-100641883D01*
X151341255Y-101037863D01*
G37*
G36*
X151694809Y-101391417D02*
G01*
X151482677Y-101179285D01*
X151878657Y-100783305D01*
X152090789Y-100995437D01*
X151694809Y-101391417D01*
G37*
G36*
X152585763Y-101490411D02*
G01*
X152797895Y-101702543D01*
X152401915Y-102098523D01*
X152189783Y-101886391D01*
X152585763Y-101490411D01*
G37*
G36*
X152048362Y-101744970D02*
G01*
X151836230Y-101532838D01*
X152232210Y-101136858D01*
X152444342Y-101348990D01*
X152048362Y-101744970D01*
G37*
G36*
X152755469Y-102452077D02*
G01*
X152543337Y-102239945D01*
X152939317Y-101843965D01*
X153151449Y-102056097D01*
X152755469Y-102452077D01*
G37*
G36*
X153109022Y-102805630D02*
G01*
X152896890Y-102593498D01*
X153292870Y-102197518D01*
X153505002Y-102409650D01*
X153109022Y-102805630D01*
G37*
G36*
X154933358Y-102169234D02*
G01*
X154537378Y-101773254D01*
X154749510Y-101561122D01*
X155145490Y-101957102D01*
X154933358Y-102169234D01*
G37*
G36*
X155640465Y-101462127D02*
G01*
X155244485Y-101066147D01*
X155456617Y-100854015D01*
X155852597Y-101249995D01*
X155640465Y-101462127D01*
G37*
G36*
X154226251Y-102876341D02*
G01*
X153830271Y-102480361D01*
X154042403Y-102268229D01*
X154438383Y-102664209D01*
X154226251Y-102876341D01*
G37*
G36*
X155286911Y-101815681D02*
G01*
X154890931Y-101419701D01*
X155103063Y-101207569D01*
X155499043Y-101603549D01*
X155286911Y-101815681D01*
G37*
G36*
X154579805Y-102522787D02*
G01*
X154183825Y-102126807D01*
X154395957Y-101914675D01*
X154791937Y-102310655D01*
X154579805Y-102522787D01*
G37*
G36*
X152515053Y-98336715D02*
G01*
X152119073Y-97940735D01*
X152331205Y-97728603D01*
X152727185Y-98124583D01*
X152515053Y-98336715D01*
G37*
G36*
X151100839Y-99750929D02*
G01*
X150704859Y-99354949D01*
X150916991Y-99142817D01*
X151312971Y-99538797D01*
X151100839Y-99750929D01*
G37*
G36*
X152161499Y-98690269D02*
G01*
X151765519Y-98294289D01*
X151977651Y-98082157D01*
X152373631Y-98478137D01*
X152161499Y-98690269D01*
G37*
G36*
X151807946Y-99043822D02*
G01*
X151411966Y-98647842D01*
X151624098Y-98435710D01*
X152020078Y-98831690D01*
X151807946Y-99043822D01*
G37*
G36*
X151454393Y-99397375D02*
G01*
X151058413Y-99001395D01*
X151270545Y-98789263D01*
X151666525Y-99185243D01*
X151454393Y-99397375D01*
G37*
G04 #@! TD*
D36*
G04 #@! TO.C,J103*
X199750000Y-111700000D03*
X209850000Y-111700000D03*
D37*
X201800000Y-109650000D03*
X203300000Y-109650000D03*
X204800000Y-109650000D03*
X206300000Y-109650000D03*
X207800000Y-109650000D03*
G04 #@! TD*
G04 #@! TO.C,C105*
G36*
G01*
X144275000Y-83750000D02*
X144275000Y-84250000D01*
G75*
G02*
X144050000Y-84475000I-225000J0D01*
G01*
X143600000Y-84475000D01*
G75*
G02*
X143375000Y-84250000I0J225000D01*
G01*
X143375000Y-83750000D01*
G75*
G02*
X143600000Y-83525000I225000J0D01*
G01*
X144050000Y-83525000D01*
G75*
G02*
X144275000Y-83750000I0J-225000D01*
G01*
G37*
G36*
G01*
X145825000Y-83750000D02*
X145825000Y-84250000D01*
G75*
G02*
X145600000Y-84475000I-225000J0D01*
G01*
X145150000Y-84475000D01*
G75*
G02*
X144925000Y-84250000I0J225000D01*
G01*
X144925000Y-83750000D01*
G75*
G02*
X145150000Y-83525000I225000J0D01*
G01*
X145600000Y-83525000D01*
G75*
G02*
X145825000Y-83750000I0J-225000D01*
G01*
G37*
G04 #@! TD*
G04 #@! TO.C,C106*
G36*
G01*
X141850000Y-82625000D02*
X141350000Y-82625000D01*
G75*
G02*
X141125000Y-82400000I0J225000D01*
G01*
X141125000Y-81950000D01*
G75*
G02*
X141350000Y-81725000I225000J0D01*
G01*
X141850000Y-81725000D01*
G75*
G02*
X142075000Y-81950000I0J-225000D01*
G01*
X142075000Y-82400000D01*
G75*
G02*
X141850000Y-82625000I-225000J0D01*
G01*
G37*
G36*
G01*
X141850000Y-81075000D02*
X141350000Y-81075000D01*
G75*
G02*
X141125000Y-80850000I0J225000D01*
G01*
X141125000Y-80400000D01*
G75*
G02*
X141350000Y-80175000I225000J0D01*
G01*
X141850000Y-80175000D01*
G75*
G02*
X142075000Y-80400000I0J-225000D01*
G01*
X142075000Y-80850000D01*
G75*
G02*
X141850000Y-81075000I-225000J0D01*
G01*
G37*
G04 #@! TD*
G04 #@! TO.C,C107*
G36*
G01*
X179825000Y-76750000D02*
X179825000Y-76250000D01*
G75*
G02*
X180050000Y-76025000I225000J0D01*
G01*
X180500000Y-76025000D01*
G75*
G02*
X180725000Y-76250000I0J-225000D01*
G01*
X180725000Y-76750000D01*
G75*
G02*
X180500000Y-76975000I-225000J0D01*
G01*
X180050000Y-76975000D01*
G75*
G02*
X179825000Y-76750000I0J225000D01*
G01*
G37*
G36*
G01*
X178275000Y-76750000D02*
X178275000Y-76250000D01*
G75*
G02*
X178500000Y-76025000I225000J0D01*
G01*
X178950000Y-76025000D01*
G75*
G02*
X179175000Y-76250000I0J-225000D01*
G01*
X179175000Y-76750000D01*
G75*
G02*
X178950000Y-76975000I-225000J0D01*
G01*
X178500000Y-76975000D01*
G75*
G02*
X178275000Y-76750000I0J225000D01*
G01*
G37*
G04 #@! TD*
D29*
G04 #@! TO.C,D301*
X142895001Y-22904999D03*
X142895001Y-26904999D03*
G04 #@! TD*
G04 #@! TO.C,D302*
X146520000Y-26904999D03*
X146520000Y-22904999D03*
G04 #@! TD*
G04 #@! TO.C,D303*
X131045001Y-22904999D03*
X131045001Y-26904999D03*
G04 #@! TD*
G04 #@! TO.C,D304*
X134620000Y-26920000D03*
X134620000Y-22920000D03*
G04 #@! TD*
G04 #@! TO.C,FB101*
G36*
G01*
X144950000Y-85856250D02*
X144950000Y-85343750D01*
G75*
G02*
X145168750Y-85125000I218750J0D01*
G01*
X145606250Y-85125000D01*
G75*
G02*
X145825000Y-85343750I0J-218750D01*
G01*
X145825000Y-85856250D01*
G75*
G02*
X145606250Y-86075000I-218750J0D01*
G01*
X145168750Y-86075000D01*
G75*
G02*
X144950000Y-85856250I0J218750D01*
G01*
G37*
G36*
G01*
X143375000Y-85856250D02*
X143375000Y-85343750D01*
G75*
G02*
X143593750Y-85125000I218750J0D01*
G01*
X144031250Y-85125000D01*
G75*
G02*
X144250000Y-85343750I0J-218750D01*
G01*
X144250000Y-85856250D01*
G75*
G02*
X144031250Y-86075000I-218750J0D01*
G01*
X143593750Y-86075000D01*
G75*
G02*
X143375000Y-85856250I0J218750D01*
G01*
G37*
G04 #@! TD*
G04 #@! TO.C,FB601*
G36*
G01*
X130743750Y-83375000D02*
X131256250Y-83375000D01*
G75*
G02*
X131475000Y-83593750I0J-218750D01*
G01*
X131475000Y-84031250D01*
G75*
G02*
X131256250Y-84250000I-218750J0D01*
G01*
X130743750Y-84250000D01*
G75*
G02*
X130525000Y-84031250I0J218750D01*
G01*
X130525000Y-83593750D01*
G75*
G02*
X130743750Y-83375000I218750J0D01*
G01*
G37*
G36*
G01*
X130743750Y-84950000D02*
X131256250Y-84950000D01*
G75*
G02*
X131475000Y-85168750I0J-218750D01*
G01*
X131475000Y-85606250D01*
G75*
G02*
X131256250Y-85825000I-218750J0D01*
G01*
X130743750Y-85825000D01*
G75*
G02*
X130525000Y-85606250I0J218750D01*
G01*
X130525000Y-85168750D01*
G75*
G02*
X130743750Y-84950000I218750J0D01*
G01*
G37*
G04 #@! TD*
D12*
G04 #@! TO.C,L802*
X190100000Y-38050000D03*
X190100000Y-33950000D03*
G04 #@! TD*
D38*
G04 #@! TO.C,Q301*
X197510000Y-43820000D03*
X196560000Y-43820000D03*
X195610000Y-43820000D03*
X195610000Y-46020000D03*
X197510000Y-46020000D03*
X196560000Y-46020000D03*
G04 #@! TD*
G04 #@! TO.C,Q302*
X195610000Y-49820000D03*
X196560000Y-49820000D03*
X197510000Y-49820000D03*
X197510000Y-47620000D03*
X195610000Y-47620000D03*
X196560000Y-47620000D03*
G04 #@! TD*
D39*
G04 #@! TO.C,Q801*
X209400000Y-48950000D03*
X209400000Y-49900000D03*
X209400000Y-48000000D03*
X211600000Y-48000000D03*
X211600000Y-48950000D03*
X211600000Y-49900000D03*
G04 #@! TD*
G04 #@! TO.C,Q802*
X205500000Y-47982000D03*
X205500000Y-48932000D03*
X205500000Y-49882000D03*
X207700000Y-49882000D03*
X207700000Y-47982000D03*
X207700000Y-48932000D03*
G04 #@! TD*
G04 #@! TO.C,R322*
G36*
G01*
X192085000Y-48770000D02*
X192635000Y-48770000D01*
G75*
G02*
X192835000Y-48970000I0J-200000D01*
G01*
X192835000Y-49370000D01*
G75*
G02*
X192635000Y-49570000I-200000J0D01*
G01*
X192085000Y-49570000D01*
G75*
G02*
X191885000Y-49370000I0J200000D01*
G01*
X191885000Y-48970000D01*
G75*
G02*
X192085000Y-48770000I200000J0D01*
G01*
G37*
G36*
G01*
X192085000Y-47120000D02*
X192635000Y-47120000D01*
G75*
G02*
X192835000Y-47320000I0J-200000D01*
G01*
X192835000Y-47720000D01*
G75*
G02*
X192635000Y-47920000I-200000J0D01*
G01*
X192085000Y-47920000D01*
G75*
G02*
X191885000Y-47720000I0J200000D01*
G01*
X191885000Y-47320000D01*
G75*
G02*
X192085000Y-47120000I200000J0D01*
G01*
G37*
G04 #@! TD*
G04 #@! TO.C,R107*
G36*
G01*
X147075000Y-82625000D02*
X146525000Y-82625000D01*
G75*
G02*
X146325000Y-82425000I0J200000D01*
G01*
X146325000Y-82025000D01*
G75*
G02*
X146525000Y-81825000I200000J0D01*
G01*
X147075000Y-81825000D01*
G75*
G02*
X147275000Y-82025000I0J-200000D01*
G01*
X147275000Y-82425000D01*
G75*
G02*
X147075000Y-82625000I-200000J0D01*
G01*
G37*
G36*
G01*
X147075000Y-80975000D02*
X146525000Y-80975000D01*
G75*
G02*
X146325000Y-80775000I0J200000D01*
G01*
X146325000Y-80375000D01*
G75*
G02*
X146525000Y-80175000I200000J0D01*
G01*
X147075000Y-80175000D01*
G75*
G02*
X147275000Y-80375000I0J-200000D01*
G01*
X147275000Y-80775000D01*
G75*
G02*
X147075000Y-80975000I-200000J0D01*
G01*
G37*
G04 #@! TD*
G04 #@! TO.C,R108*
G36*
G01*
X145025000Y-79075000D02*
X145025000Y-78525000D01*
G75*
G02*
X145225000Y-78325000I200000J0D01*
G01*
X145625000Y-78325000D01*
G75*
G02*
X145825000Y-78525000I0J-200000D01*
G01*
X145825000Y-79075000D01*
G75*
G02*
X145625000Y-79275000I-200000J0D01*
G01*
X145225000Y-79275000D01*
G75*
G02*
X145025000Y-79075000I0J200000D01*
G01*
G37*
G36*
G01*
X143375000Y-79075000D02*
X143375000Y-78525000D01*
G75*
G02*
X143575000Y-78325000I200000J0D01*
G01*
X143975000Y-78325000D01*
G75*
G02*
X144175000Y-78525000I0J-200000D01*
G01*
X144175000Y-79075000D01*
G75*
G02*
X143975000Y-79275000I-200000J0D01*
G01*
X143575000Y-79275000D01*
G75*
G02*
X143375000Y-79075000I0J200000D01*
G01*
G37*
G04 #@! TD*
G04 #@! TO.C,R105*
G36*
G01*
X171425000Y-99275000D02*
X171975000Y-99275000D01*
G75*
G02*
X172175000Y-99475000I0J-200000D01*
G01*
X172175000Y-99875000D01*
G75*
G02*
X171975000Y-100075000I-200000J0D01*
G01*
X171425000Y-100075000D01*
G75*
G02*
X171225000Y-99875000I0J200000D01*
G01*
X171225000Y-99475000D01*
G75*
G02*
X171425000Y-99275000I200000J0D01*
G01*
G37*
G36*
G01*
X171425000Y-100925000D02*
X171975000Y-100925000D01*
G75*
G02*
X172175000Y-101125000I0J-200000D01*
G01*
X172175000Y-101525000D01*
G75*
G02*
X171975000Y-101725000I-200000J0D01*
G01*
X171425000Y-101725000D01*
G75*
G02*
X171225000Y-101525000I0J200000D01*
G01*
X171225000Y-101125000D01*
G75*
G02*
X171425000Y-100925000I200000J0D01*
G01*
G37*
G04 #@! TD*
G04 #@! TO.C,R106*
G36*
G01*
X173025000Y-100925000D02*
X173575000Y-100925000D01*
G75*
G02*
X173775000Y-101125000I0J-200000D01*
G01*
X173775000Y-101525000D01*
G75*
G02*
X173575000Y-101725000I-200000J0D01*
G01*
X173025000Y-101725000D01*
G75*
G02*
X172825000Y-101525000I0J200000D01*
G01*
X172825000Y-101125000D01*
G75*
G02*
X173025000Y-100925000I200000J0D01*
G01*
G37*
G36*
G01*
X173025000Y-99275000D02*
X173575000Y-99275000D01*
G75*
G02*
X173775000Y-99475000I0J-200000D01*
G01*
X173775000Y-99875000D01*
G75*
G02*
X173575000Y-100075000I-200000J0D01*
G01*
X173025000Y-100075000D01*
G75*
G02*
X172825000Y-99875000I0J200000D01*
G01*
X172825000Y-99475000D01*
G75*
G02*
X173025000Y-99275000I200000J0D01*
G01*
G37*
G04 #@! TD*
G04 #@! TO.C,R303*
G36*
G01*
X137800000Y-40325000D02*
X137800000Y-40875000D01*
G75*
G02*
X137600000Y-41075000I-200000J0D01*
G01*
X137200000Y-41075000D01*
G75*
G02*
X137000000Y-40875000I0J200000D01*
G01*
X137000000Y-40325000D01*
G75*
G02*
X137200000Y-40125000I200000J0D01*
G01*
X137600000Y-40125000D01*
G75*
G02*
X137800000Y-40325000I0J-200000D01*
G01*
G37*
G36*
G01*
X136150000Y-40325000D02*
X136150000Y-40875000D01*
G75*
G02*
X135950000Y-41075000I-200000J0D01*
G01*
X135550000Y-41075000D01*
G75*
G02*
X135350000Y-40875000I0J200000D01*
G01*
X135350000Y-40325000D01*
G75*
G02*
X135550000Y-40125000I200000J0D01*
G01*
X135950000Y-40125000D01*
G75*
G02*
X136150000Y-40325000I0J-200000D01*
G01*
G37*
G04 #@! TD*
G04 #@! TO.C,R305*
G36*
G01*
X134625000Y-40325000D02*
X134625000Y-40875000D01*
G75*
G02*
X134425000Y-41075000I-200000J0D01*
G01*
X134025000Y-41075000D01*
G75*
G02*
X133825000Y-40875000I0J200000D01*
G01*
X133825000Y-40325000D01*
G75*
G02*
X134025000Y-40125000I200000J0D01*
G01*
X134425000Y-40125000D01*
G75*
G02*
X134625000Y-40325000I0J-200000D01*
G01*
G37*
G36*
G01*
X132975000Y-40325000D02*
X132975000Y-40875000D01*
G75*
G02*
X132775000Y-41075000I-200000J0D01*
G01*
X132375000Y-41075000D01*
G75*
G02*
X132175000Y-40875000I0J200000D01*
G01*
X132175000Y-40325000D01*
G75*
G02*
X132375000Y-40125000I200000J0D01*
G01*
X132775000Y-40125000D01*
G75*
G02*
X132975000Y-40325000I0J-200000D01*
G01*
G37*
G04 #@! TD*
G04 #@! TO.C,R309*
G36*
G01*
X193685000Y-48770000D02*
X194235000Y-48770000D01*
G75*
G02*
X194435000Y-48970000I0J-200000D01*
G01*
X194435000Y-49370000D01*
G75*
G02*
X194235000Y-49570000I-200000J0D01*
G01*
X193685000Y-49570000D01*
G75*
G02*
X193485000Y-49370000I0J200000D01*
G01*
X193485000Y-48970000D01*
G75*
G02*
X193685000Y-48770000I200000J0D01*
G01*
G37*
G36*
G01*
X193685000Y-47120000D02*
X194235000Y-47120000D01*
G75*
G02*
X194435000Y-47320000I0J-200000D01*
G01*
X194435000Y-47720000D01*
G75*
G02*
X194235000Y-47920000I-200000J0D01*
G01*
X193685000Y-47920000D01*
G75*
G02*
X193485000Y-47720000I0J200000D01*
G01*
X193485000Y-47320000D01*
G75*
G02*
X193685000Y-47120000I200000J0D01*
G01*
G37*
G04 #@! TD*
G04 #@! TO.C,R310*
G36*
G01*
X199435000Y-49545000D02*
X198885000Y-49545000D01*
G75*
G02*
X198685000Y-49345000I0J200000D01*
G01*
X198685000Y-48945000D01*
G75*
G02*
X198885000Y-48745000I200000J0D01*
G01*
X199435000Y-48745000D01*
G75*
G02*
X199635000Y-48945000I0J-200000D01*
G01*
X199635000Y-49345000D01*
G75*
G02*
X199435000Y-49545000I-200000J0D01*
G01*
G37*
G36*
G01*
X199435000Y-47895000D02*
X198885000Y-47895000D01*
G75*
G02*
X198685000Y-47695000I0J200000D01*
G01*
X198685000Y-47295000D01*
G75*
G02*
X198885000Y-47095000I200000J0D01*
G01*
X199435000Y-47095000D01*
G75*
G02*
X199635000Y-47295000I0J-200000D01*
G01*
X199635000Y-47695000D01*
G75*
G02*
X199435000Y-47895000I-200000J0D01*
G01*
G37*
G04 #@! TD*
G04 #@! TO.C,R321*
G36*
G01*
X190585000Y-51245000D02*
X190585000Y-51795000D01*
G75*
G02*
X190385000Y-51995000I-200000J0D01*
G01*
X189985000Y-51995000D01*
G75*
G02*
X189785000Y-51795000I0J200000D01*
G01*
X189785000Y-51245000D01*
G75*
G02*
X189985000Y-51045000I200000J0D01*
G01*
X190385000Y-51045000D01*
G75*
G02*
X190585000Y-51245000I0J-200000D01*
G01*
G37*
G36*
G01*
X188935000Y-51245000D02*
X188935000Y-51795000D01*
G75*
G02*
X188735000Y-51995000I-200000J0D01*
G01*
X188335000Y-51995000D01*
G75*
G02*
X188135000Y-51795000I0J200000D01*
G01*
X188135000Y-51245000D01*
G75*
G02*
X188335000Y-51045000I200000J0D01*
G01*
X188735000Y-51045000D01*
G75*
G02*
X188935000Y-51245000I0J-200000D01*
G01*
G37*
G04 #@! TD*
G04 #@! TO.C,R325*
G36*
G01*
X191935000Y-51245000D02*
X191935000Y-51795000D01*
G75*
G02*
X191735000Y-51995000I-200000J0D01*
G01*
X191335000Y-51995000D01*
G75*
G02*
X191135000Y-51795000I0J200000D01*
G01*
X191135000Y-51245000D01*
G75*
G02*
X191335000Y-51045000I200000J0D01*
G01*
X191735000Y-51045000D01*
G75*
G02*
X191935000Y-51245000I0J-200000D01*
G01*
G37*
G36*
G01*
X193585000Y-51245000D02*
X193585000Y-51795000D01*
G75*
G02*
X193385000Y-51995000I-200000J0D01*
G01*
X192985000Y-51995000D01*
G75*
G02*
X192785000Y-51795000I0J200000D01*
G01*
X192785000Y-51245000D01*
G75*
G02*
X192985000Y-51045000I200000J0D01*
G01*
X193385000Y-51045000D01*
G75*
G02*
X193585000Y-51245000I0J-200000D01*
G01*
G37*
G04 #@! TD*
G04 #@! TO.C,R801*
G36*
G01*
X209804700Y-32325000D02*
X209804700Y-32875000D01*
G75*
G02*
X209604700Y-33075000I-200000J0D01*
G01*
X209204700Y-33075000D01*
G75*
G02*
X209004700Y-32875000I0J200000D01*
G01*
X209004700Y-32325000D01*
G75*
G02*
X209204700Y-32125000I200000J0D01*
G01*
X209604700Y-32125000D01*
G75*
G02*
X209804700Y-32325000I0J-200000D01*
G01*
G37*
G36*
G01*
X208154700Y-32325000D02*
X208154700Y-32875000D01*
G75*
G02*
X207954700Y-33075000I-200000J0D01*
G01*
X207554700Y-33075000D01*
G75*
G02*
X207354700Y-32875000I0J200000D01*
G01*
X207354700Y-32325000D01*
G75*
G02*
X207554700Y-32125000I200000J0D01*
G01*
X207954700Y-32125000D01*
G75*
G02*
X208154700Y-32325000I0J-200000D01*
G01*
G37*
G04 #@! TD*
G04 #@! TO.C,R804*
G36*
G01*
X204175000Y-48475000D02*
X203625000Y-48475000D01*
G75*
G02*
X203425000Y-48275000I0J200000D01*
G01*
X203425000Y-47875000D01*
G75*
G02*
X203625000Y-47675000I200000J0D01*
G01*
X204175000Y-47675000D01*
G75*
G02*
X204375000Y-47875000I0J-200000D01*
G01*
X204375000Y-48275000D01*
G75*
G02*
X204175000Y-48475000I-200000J0D01*
G01*
G37*
G36*
G01*
X204175000Y-50125000D02*
X203625000Y-50125000D01*
G75*
G02*
X203425000Y-49925000I0J200000D01*
G01*
X203425000Y-49525000D01*
G75*
G02*
X203625000Y-49325000I200000J0D01*
G01*
X204175000Y-49325000D01*
G75*
G02*
X204375000Y-49525000I0J-200000D01*
G01*
X204375000Y-49925000D01*
G75*
G02*
X204175000Y-50125000I-200000J0D01*
G01*
G37*
G04 #@! TD*
G04 #@! TO.C,R805*
G36*
G01*
X202125000Y-49325000D02*
X202675000Y-49325000D01*
G75*
G02*
X202875000Y-49525000I0J-200000D01*
G01*
X202875000Y-49925000D01*
G75*
G02*
X202675000Y-50125000I-200000J0D01*
G01*
X202125000Y-50125000D01*
G75*
G02*
X201925000Y-49925000I0J200000D01*
G01*
X201925000Y-49525000D01*
G75*
G02*
X202125000Y-49325000I200000J0D01*
G01*
G37*
G36*
G01*
X202125000Y-47675000D02*
X202675000Y-47675000D01*
G75*
G02*
X202875000Y-47875000I0J-200000D01*
G01*
X202875000Y-48275000D01*
G75*
G02*
X202675000Y-48475000I-200000J0D01*
G01*
X202125000Y-48475000D01*
G75*
G02*
X201925000Y-48275000I0J200000D01*
G01*
X201925000Y-47875000D01*
G75*
G02*
X202125000Y-47675000I200000J0D01*
G01*
G37*
G04 #@! TD*
G04 #@! TO.C,R807*
G36*
G01*
X197978700Y-36010700D02*
X198528700Y-36010700D01*
G75*
G02*
X198728700Y-36210700I0J-200000D01*
G01*
X198728700Y-36610700D01*
G75*
G02*
X198528700Y-36810700I-200000J0D01*
G01*
X197978700Y-36810700D01*
G75*
G02*
X197778700Y-36610700I0J200000D01*
G01*
X197778700Y-36210700D01*
G75*
G02*
X197978700Y-36010700I200000J0D01*
G01*
G37*
G36*
G01*
X197978700Y-37660700D02*
X198528700Y-37660700D01*
G75*
G02*
X198728700Y-37860700I0J-200000D01*
G01*
X198728700Y-38260700D01*
G75*
G02*
X198528700Y-38460700I-200000J0D01*
G01*
X197978700Y-38460700D01*
G75*
G02*
X197778700Y-38260700I0J200000D01*
G01*
X197778700Y-37860700D01*
G75*
G02*
X197978700Y-37660700I200000J0D01*
G01*
G37*
G04 #@! TD*
D40*
G04 #@! TO.C,U105*
X145175000Y-80375000D03*
X144525000Y-80375000D03*
X143875000Y-80375000D03*
X143225000Y-80375000D03*
X143225000Y-82425000D03*
X143875000Y-82425000D03*
X144525000Y-82425000D03*
X145175000Y-82425000D03*
G04 #@! TD*
G04 #@! TO.C,C219*
G36*
G01*
X182270000Y-28645000D02*
X182770000Y-28645000D01*
G75*
G02*
X182995000Y-28870000I0J-225000D01*
G01*
X182995000Y-29320000D01*
G75*
G02*
X182770000Y-29545000I-225000J0D01*
G01*
X182270000Y-29545000D01*
G75*
G02*
X182045000Y-29320000I0J225000D01*
G01*
X182045000Y-28870000D01*
G75*
G02*
X182270000Y-28645000I225000J0D01*
G01*
G37*
G36*
G01*
X182270000Y-27095000D02*
X182770000Y-27095000D01*
G75*
G02*
X182995000Y-27320000I0J-225000D01*
G01*
X182995000Y-27770000D01*
G75*
G02*
X182770000Y-27995000I-225000J0D01*
G01*
X182270000Y-27995000D01*
G75*
G02*
X182045000Y-27770000I0J225000D01*
G01*
X182045000Y-27320000D01*
G75*
G02*
X182270000Y-27095000I225000J0D01*
G01*
G37*
G04 #@! TD*
G04 #@! TO.C,C601*
G36*
G01*
X129650000Y-85825000D02*
X129150000Y-85825000D01*
G75*
G02*
X128925000Y-85600000I0J225000D01*
G01*
X128925000Y-85150000D01*
G75*
G02*
X129150000Y-84925000I225000J0D01*
G01*
X129650000Y-84925000D01*
G75*
G02*
X129875000Y-85150000I0J-225000D01*
G01*
X129875000Y-85600000D01*
G75*
G02*
X129650000Y-85825000I-225000J0D01*
G01*
G37*
G36*
G01*
X129650000Y-84275000D02*
X129150000Y-84275000D01*
G75*
G02*
X128925000Y-84050000I0J225000D01*
G01*
X128925000Y-83600000D01*
G75*
G02*
X129150000Y-83375000I225000J0D01*
G01*
X129650000Y-83375000D01*
G75*
G02*
X129875000Y-83600000I0J-225000D01*
G01*
X129875000Y-84050000D01*
G75*
G02*
X129650000Y-84275000I-225000J0D01*
G01*
G37*
G04 #@! TD*
D25*
G04 #@! TO.C,D307*
X158360000Y-52120000D03*
X158360000Y-50220000D03*
X156360000Y-51170000D03*
G04 #@! TD*
G04 #@! TO.C,D311*
G36*
G01*
X191016250Y-49570000D02*
X190503750Y-49570000D01*
G75*
G02*
X190285000Y-49351250I0J218750D01*
G01*
X190285000Y-48913750D01*
G75*
G02*
X190503750Y-48695000I218750J0D01*
G01*
X191016250Y-48695000D01*
G75*
G02*
X191235000Y-48913750I0J-218750D01*
G01*
X191235000Y-49351250D01*
G75*
G02*
X191016250Y-49570000I-218750J0D01*
G01*
G37*
G36*
G01*
X191016250Y-47995000D02*
X190503750Y-47995000D01*
G75*
G02*
X190285000Y-47776250I0J218750D01*
G01*
X190285000Y-47338750D01*
G75*
G02*
X190503750Y-47120000I218750J0D01*
G01*
X191016250Y-47120000D01*
G75*
G02*
X191235000Y-47338750I0J-218750D01*
G01*
X191235000Y-47776250D01*
G75*
G02*
X191016250Y-47995000I-218750J0D01*
G01*
G37*
G04 #@! TD*
D41*
G04 #@! TO.C,D801*
X211900000Y-30800000D03*
X212850000Y-32800000D03*
X210950000Y-32800000D03*
G04 #@! TD*
D42*
G04 #@! TO.C,L301*
X146060000Y-50620000D03*
X148860000Y-50620000D03*
G04 #@! TD*
D43*
G04 #@! TO.C,T301*
X160505000Y-48670000D03*
X160505000Y-46170000D03*
X174215000Y-43670000D03*
X174215000Y-41170000D03*
X160505000Y-43670000D03*
X160505000Y-41170000D03*
X174215000Y-48670000D03*
X174215000Y-46170000D03*
G04 #@! TD*
G04 #@! TO.C,U303*
G36*
G01*
X171410000Y-37017500D02*
X171410000Y-37292500D01*
G75*
G02*
X171272500Y-37430000I-137500J0D01*
G01*
X169947500Y-37430000D01*
G75*
G02*
X169810000Y-37292500I0J137500D01*
G01*
X169810000Y-37017500D01*
G75*
G02*
X169947500Y-36880000I137500J0D01*
G01*
X171272500Y-36880000D01*
G75*
G02*
X171410000Y-37017500I0J-137500D01*
G01*
G37*
G36*
G01*
X171410000Y-35747500D02*
X171410000Y-36022500D01*
G75*
G02*
X171272500Y-36160000I-137500J0D01*
G01*
X169947500Y-36160000D01*
G75*
G02*
X169810000Y-36022500I0J137500D01*
G01*
X169810000Y-35747500D01*
G75*
G02*
X169947500Y-35610000I137500J0D01*
G01*
X171272500Y-35610000D01*
G75*
G02*
X171410000Y-35747500I0J-137500D01*
G01*
G37*
G36*
G01*
X164910000Y-35747500D02*
X164910000Y-36022500D01*
G75*
G02*
X164772500Y-36160000I-137500J0D01*
G01*
X163447500Y-36160000D01*
G75*
G02*
X163310000Y-36022500I0J137500D01*
G01*
X163310000Y-35747500D01*
G75*
G02*
X163447500Y-35610000I137500J0D01*
G01*
X164772500Y-35610000D01*
G75*
G02*
X164910000Y-35747500I0J-137500D01*
G01*
G37*
G36*
G01*
X164910000Y-37017500D02*
X164910000Y-37292500D01*
G75*
G02*
X164772500Y-37430000I-137500J0D01*
G01*
X163447500Y-37430000D01*
G75*
G02*
X163310000Y-37292500I0J137500D01*
G01*
X163310000Y-37017500D01*
G75*
G02*
X163447500Y-36880000I137500J0D01*
G01*
X164772500Y-36880000D01*
G75*
G02*
X164910000Y-37017500I0J-137500D01*
G01*
G37*
G04 #@! TD*
G04 #@! TO.C,R101*
G36*
G01*
X212125000Y-87175000D02*
X212675000Y-87175000D01*
G75*
G02*
X212875000Y-87375000I0J-200000D01*
G01*
X212875000Y-87775000D01*
G75*
G02*
X212675000Y-87975000I-200000J0D01*
G01*
X212125000Y-87975000D01*
G75*
G02*
X211925000Y-87775000I0J200000D01*
G01*
X211925000Y-87375000D01*
G75*
G02*
X212125000Y-87175000I200000J0D01*
G01*
G37*
G36*
G01*
X212125000Y-88825000D02*
X212675000Y-88825000D01*
G75*
G02*
X212875000Y-89025000I0J-200000D01*
G01*
X212875000Y-89425000D01*
G75*
G02*
X212675000Y-89625000I-200000J0D01*
G01*
X212125000Y-89625000D01*
G75*
G02*
X211925000Y-89425000I0J200000D01*
G01*
X211925000Y-89025000D01*
G75*
G02*
X212125000Y-88825000I200000J0D01*
G01*
G37*
G04 #@! TD*
G04 #@! TO.C,C808*
G36*
G01*
X177450000Y-35595000D02*
X176950000Y-35595000D01*
G75*
G02*
X176725000Y-35370000I0J225000D01*
G01*
X176725000Y-34920000D01*
G75*
G02*
X176950000Y-34695000I225000J0D01*
G01*
X177450000Y-34695000D01*
G75*
G02*
X177675000Y-34920000I0J-225000D01*
G01*
X177675000Y-35370000D01*
G75*
G02*
X177450000Y-35595000I-225000J0D01*
G01*
G37*
G36*
G01*
X177450000Y-37145000D02*
X176950000Y-37145000D01*
G75*
G02*
X176725000Y-36920000I0J225000D01*
G01*
X176725000Y-36470000D01*
G75*
G02*
X176950000Y-36245000I225000J0D01*
G01*
X177450000Y-36245000D01*
G75*
G02*
X177675000Y-36470000I0J-225000D01*
G01*
X177675000Y-36920000D01*
G75*
G02*
X177450000Y-37145000I-225000J0D01*
G01*
G37*
G04 #@! TD*
G04 #@! TO.C,D802*
G36*
G01*
X182756250Y-33205000D02*
X182243750Y-33205000D01*
G75*
G02*
X182025000Y-32986250I0J218750D01*
G01*
X182025000Y-32548750D01*
G75*
G02*
X182243750Y-32330000I218750J0D01*
G01*
X182756250Y-32330000D01*
G75*
G02*
X182975000Y-32548750I0J-218750D01*
G01*
X182975000Y-32986250D01*
G75*
G02*
X182756250Y-33205000I-218750J0D01*
G01*
G37*
G36*
G01*
X182756250Y-31630000D02*
X182243750Y-31630000D01*
G75*
G02*
X182025000Y-31411250I0J218750D01*
G01*
X182025000Y-30973750D01*
G75*
G02*
X182243750Y-30755000I218750J0D01*
G01*
X182756250Y-30755000D01*
G75*
G02*
X182975000Y-30973750I0J-218750D01*
G01*
X182975000Y-31411250D01*
G75*
G02*
X182756250Y-31630000I-218750J0D01*
G01*
G37*
G04 #@! TD*
G04 #@! TO.C,D803*
G36*
G01*
X183843750Y-32370000D02*
X184356250Y-32370000D01*
G75*
G02*
X184575000Y-32588750I0J-218750D01*
G01*
X184575000Y-33026250D01*
G75*
G02*
X184356250Y-33245000I-218750J0D01*
G01*
X183843750Y-33245000D01*
G75*
G02*
X183625000Y-33026250I0J218750D01*
G01*
X183625000Y-32588750D01*
G75*
G02*
X183843750Y-32370000I218750J0D01*
G01*
G37*
G36*
G01*
X183843750Y-30795000D02*
X184356250Y-30795000D01*
G75*
G02*
X184575000Y-31013750I0J-218750D01*
G01*
X184575000Y-31451250D01*
G75*
G02*
X184356250Y-31670000I-218750J0D01*
G01*
X183843750Y-31670000D01*
G75*
G02*
X183625000Y-31451250I0J218750D01*
G01*
X183625000Y-31013750D01*
G75*
G02*
X183843750Y-30795000I218750J0D01*
G01*
G37*
G04 #@! TD*
G04 #@! TO.C,R811*
G36*
G01*
X185425000Y-32425000D02*
X185975000Y-32425000D01*
G75*
G02*
X186175000Y-32625000I0J-200000D01*
G01*
X186175000Y-33025000D01*
G75*
G02*
X185975000Y-33225000I-200000J0D01*
G01*
X185425000Y-33225000D01*
G75*
G02*
X185225000Y-33025000I0J200000D01*
G01*
X185225000Y-32625000D01*
G75*
G02*
X185425000Y-32425000I200000J0D01*
G01*
G37*
G36*
G01*
X185425000Y-30775000D02*
X185975000Y-30775000D01*
G75*
G02*
X186175000Y-30975000I0J-200000D01*
G01*
X186175000Y-31375000D01*
G75*
G02*
X185975000Y-31575000I-200000J0D01*
G01*
X185425000Y-31575000D01*
G75*
G02*
X185225000Y-31375000I0J200000D01*
G01*
X185225000Y-30975000D01*
G75*
G02*
X185425000Y-30775000I200000J0D01*
G01*
G37*
G04 #@! TD*
G04 #@! TO.C,R808*
G36*
G01*
X182675000Y-37145000D02*
X182125000Y-37145000D01*
G75*
G02*
X181925000Y-36945000I0J200000D01*
G01*
X181925000Y-36545000D01*
G75*
G02*
X182125000Y-36345000I200000J0D01*
G01*
X182675000Y-36345000D01*
G75*
G02*
X182875000Y-36545000I0J-200000D01*
G01*
X182875000Y-36945000D01*
G75*
G02*
X182675000Y-37145000I-200000J0D01*
G01*
G37*
G36*
G01*
X182675000Y-35495000D02*
X182125000Y-35495000D01*
G75*
G02*
X181925000Y-35295000I0J200000D01*
G01*
X181925000Y-34895000D01*
G75*
G02*
X182125000Y-34695000I200000J0D01*
G01*
X182675000Y-34695000D01*
G75*
G02*
X182875000Y-34895000I0J-200000D01*
G01*
X182875000Y-35295000D01*
G75*
G02*
X182675000Y-35495000I-200000J0D01*
G01*
G37*
G04 #@! TD*
D38*
G04 #@! TO.C,U803*
X180750000Y-36600000D03*
X178850000Y-36600000D03*
X178850000Y-34400000D03*
X179800000Y-34400000D03*
X180750000Y-34400000D03*
G04 #@! TD*
G04 #@! TO.C,R810*
G36*
G01*
X184375000Y-34675000D02*
X183825000Y-34675000D01*
G75*
G02*
X183625000Y-34475000I0J200000D01*
G01*
X183625000Y-34075000D01*
G75*
G02*
X183825000Y-33875000I200000J0D01*
G01*
X184375000Y-33875000D01*
G75*
G02*
X184575000Y-34075000I0J-200000D01*
G01*
X184575000Y-34475000D01*
G75*
G02*
X184375000Y-34675000I-200000J0D01*
G01*
G37*
G36*
G01*
X184375000Y-36325000D02*
X183825000Y-36325000D01*
G75*
G02*
X183625000Y-36125000I0J200000D01*
G01*
X183625000Y-35725000D01*
G75*
G02*
X183825000Y-35525000I200000J0D01*
G01*
X184375000Y-35525000D01*
G75*
G02*
X184575000Y-35725000I0J-200000D01*
G01*
X184575000Y-36125000D01*
G75*
G02*
X184375000Y-36325000I-200000J0D01*
G01*
G37*
G04 #@! TD*
G04 #@! TO.C,J101*
G36*
G01*
X215400000Y-103575000D02*
X214500000Y-103575000D01*
G75*
G02*
X214300000Y-103375000I0J200000D01*
G01*
X214300000Y-102975000D01*
G75*
G02*
X214500000Y-102775000I200000J0D01*
G01*
X215400000Y-102775000D01*
G75*
G02*
X215600000Y-102975000I0J-200000D01*
G01*
X215600000Y-103375000D01*
G75*
G02*
X215400000Y-103575000I-200000J0D01*
G01*
G37*
G36*
G01*
X215400000Y-102325000D02*
X214500000Y-102325000D01*
G75*
G02*
X214300000Y-102125000I0J200000D01*
G01*
X214300000Y-101725000D01*
G75*
G02*
X214500000Y-101525000I200000J0D01*
G01*
X215400000Y-101525000D01*
G75*
G02*
X215600000Y-101725000I0J-200000D01*
G01*
X215600000Y-102125000D01*
G75*
G02*
X215400000Y-102325000I-200000J0D01*
G01*
G37*
G36*
G01*
X215400000Y-101075000D02*
X214500000Y-101075000D01*
G75*
G02*
X214300000Y-100875000I0J200000D01*
G01*
X214300000Y-100475000D01*
G75*
G02*
X214500000Y-100275000I200000J0D01*
G01*
X215400000Y-100275000D01*
G75*
G02*
X215600000Y-100475000I0J-200000D01*
G01*
X215600000Y-100875000D01*
G75*
G02*
X215400000Y-101075000I-200000J0D01*
G01*
G37*
G36*
G01*
X215400000Y-99825000D02*
X214500000Y-99825000D01*
G75*
G02*
X214300000Y-99625000I0J200000D01*
G01*
X214300000Y-99225000D01*
G75*
G02*
X214500000Y-99025000I200000J0D01*
G01*
X215400000Y-99025000D01*
G75*
G02*
X215600000Y-99225000I0J-200000D01*
G01*
X215600000Y-99625000D01*
G75*
G02*
X215400000Y-99825000I-200000J0D01*
G01*
G37*
G36*
G01*
X215400000Y-98575000D02*
X214500000Y-98575000D01*
G75*
G02*
X214300000Y-98375000I0J200000D01*
G01*
X214300000Y-97975000D01*
G75*
G02*
X214500000Y-97775000I200000J0D01*
G01*
X215400000Y-97775000D01*
G75*
G02*
X215600000Y-97975000I0J-200000D01*
G01*
X215600000Y-98375000D01*
G75*
G02*
X215400000Y-98575000I-200000J0D01*
G01*
G37*
G36*
G01*
X215400000Y-97325000D02*
X214500000Y-97325000D01*
G75*
G02*
X214300000Y-97125000I0J200000D01*
G01*
X214300000Y-96725000D01*
G75*
G02*
X214500000Y-96525000I200000J0D01*
G01*
X215400000Y-96525000D01*
G75*
G02*
X215600000Y-96725000I0J-200000D01*
G01*
X215600000Y-97125000D01*
G75*
G02*
X215400000Y-97325000I-200000J0D01*
G01*
G37*
G36*
G01*
X215400000Y-96075000D02*
X214500000Y-96075000D01*
G75*
G02*
X214300000Y-95875000I0J200000D01*
G01*
X214300000Y-95475000D01*
G75*
G02*
X214500000Y-95275000I200000J0D01*
G01*
X215400000Y-95275000D01*
G75*
G02*
X215600000Y-95475000I0J-200000D01*
G01*
X215600000Y-95875000D01*
G75*
G02*
X215400000Y-96075000I-200000J0D01*
G01*
G37*
G36*
G01*
X215400000Y-94825000D02*
X214500000Y-94825000D01*
G75*
G02*
X214300000Y-94625000I0J200000D01*
G01*
X214300000Y-94225000D01*
G75*
G02*
X214500000Y-94025000I200000J0D01*
G01*
X215400000Y-94025000D01*
G75*
G02*
X215600000Y-94225000I0J-200000D01*
G01*
X215600000Y-94625000D01*
G75*
G02*
X215400000Y-94825000I-200000J0D01*
G01*
G37*
G36*
G01*
X218950001Y-106775000D02*
X216449999Y-106775000D01*
G75*
G02*
X216200000Y-106525001I0J249999D01*
G01*
X216200000Y-104924999D01*
G75*
G02*
X216449999Y-104675000I249999J0D01*
G01*
X218950001Y-104675000D01*
G75*
G02*
X219200000Y-104924999I0J-249999D01*
G01*
X219200000Y-106525001D01*
G75*
G02*
X218950001Y-106775000I-249999J0D01*
G01*
G37*
G36*
G01*
X218950001Y-92925000D02*
X216449999Y-92925000D01*
G75*
G02*
X216200000Y-92675001I0J249999D01*
G01*
X216200000Y-91074999D01*
G75*
G02*
X216449999Y-90825000I249999J0D01*
G01*
X218950001Y-90825000D01*
G75*
G02*
X219200000Y-91074999I0J-249999D01*
G01*
X219200000Y-92675001D01*
G75*
G02*
X218950001Y-92925000I-249999J0D01*
G01*
G37*
G04 #@! TD*
D41*
G04 #@! TO.C,D305*
X138800000Y-24200000D03*
X137850000Y-22200000D03*
X139750000Y-22200000D03*
G04 #@! TD*
G04 #@! TO.C,D306*
X137850000Y-27800000D03*
X139750000Y-27800000D03*
X138800000Y-25800000D03*
G04 #@! TD*
G04 #@! TO.C,C103*
G36*
G01*
X199050000Y-87025000D02*
X198550000Y-87025000D01*
G75*
G02*
X198325000Y-86800000I0J225000D01*
G01*
X198325000Y-86350000D01*
G75*
G02*
X198550000Y-86125000I225000J0D01*
G01*
X199050000Y-86125000D01*
G75*
G02*
X199275000Y-86350000I0J-225000D01*
G01*
X199275000Y-86800000D01*
G75*
G02*
X199050000Y-87025000I-225000J0D01*
G01*
G37*
G36*
G01*
X199050000Y-85475000D02*
X198550000Y-85475000D01*
G75*
G02*
X198325000Y-85250000I0J225000D01*
G01*
X198325000Y-84800000D01*
G75*
G02*
X198550000Y-84575000I225000J0D01*
G01*
X199050000Y-84575000D01*
G75*
G02*
X199275000Y-84800000I0J-225000D01*
G01*
X199275000Y-85250000D01*
G75*
G02*
X199050000Y-85475000I-225000J0D01*
G01*
G37*
G04 #@! TD*
G04 #@! TO.C,C104*
G36*
G01*
X197550000Y-85475000D02*
X197050000Y-85475000D01*
G75*
G02*
X196825000Y-85250000I0J225000D01*
G01*
X196825000Y-84800000D01*
G75*
G02*
X197050000Y-84575000I225000J0D01*
G01*
X197550000Y-84575000D01*
G75*
G02*
X197775000Y-84800000I0J-225000D01*
G01*
X197775000Y-85250000D01*
G75*
G02*
X197550000Y-85475000I-225000J0D01*
G01*
G37*
G36*
G01*
X197550000Y-87025000D02*
X197050000Y-87025000D01*
G75*
G02*
X196825000Y-86800000I0J225000D01*
G01*
X196825000Y-86350000D01*
G75*
G02*
X197050000Y-86125000I225000J0D01*
G01*
X197550000Y-86125000D01*
G75*
G02*
X197775000Y-86350000I0J-225000D01*
G01*
X197775000Y-86800000D01*
G75*
G02*
X197550000Y-87025000I-225000J0D01*
G01*
G37*
G04 #@! TD*
G04 #@! TO.C,FB301*
G36*
G01*
X130610000Y-45863750D02*
X130610000Y-46376250D01*
G75*
G02*
X130391250Y-46595000I-218750J0D01*
G01*
X129953750Y-46595000D01*
G75*
G02*
X129735000Y-46376250I0J218750D01*
G01*
X129735000Y-45863750D01*
G75*
G02*
X129953750Y-45645000I218750J0D01*
G01*
X130391250Y-45645000D01*
G75*
G02*
X130610000Y-45863750I0J-218750D01*
G01*
G37*
G36*
G01*
X132185000Y-45863750D02*
X132185000Y-46376250D01*
G75*
G02*
X131966250Y-46595000I-218750J0D01*
G01*
X131528750Y-46595000D01*
G75*
G02*
X131310000Y-46376250I0J218750D01*
G01*
X131310000Y-45863750D01*
G75*
G02*
X131528750Y-45645000I218750J0D01*
G01*
X131966250Y-45645000D01*
G75*
G02*
X132185000Y-45863750I0J-218750D01*
G01*
G37*
G04 #@! TD*
G04 #@! TO.C,FB302*
G36*
G01*
X132185000Y-51063750D02*
X132185000Y-51576250D01*
G75*
G02*
X131966250Y-51795000I-218750J0D01*
G01*
X131528750Y-51795000D01*
G75*
G02*
X131310000Y-51576250I0J218750D01*
G01*
X131310000Y-51063750D01*
G75*
G02*
X131528750Y-50845000I218750J0D01*
G01*
X131966250Y-50845000D01*
G75*
G02*
X132185000Y-51063750I0J-218750D01*
G01*
G37*
G36*
G01*
X130610000Y-51063750D02*
X130610000Y-51576250D01*
G75*
G02*
X130391250Y-51795000I-218750J0D01*
G01*
X129953750Y-51795000D01*
G75*
G02*
X129735000Y-51576250I0J218750D01*
G01*
X129735000Y-51063750D01*
G75*
G02*
X129953750Y-50845000I218750J0D01*
G01*
X130391250Y-50845000D01*
G75*
G02*
X130610000Y-51063750I0J-218750D01*
G01*
G37*
G04 #@! TD*
M02*
