G04 #@! TF.GenerationSoftware,KiCad,Pcbnew,5.1.7-a382d34a8~87~ubuntu18.04.1*
G04 #@! TF.CreationDate,2021-01-18T13:43:01-05:00*
G04 #@! TF.ProjectId,SD1,5344312e-6b69-4636-9164-5f7063625858,0*
G04 #@! TF.SameCoordinates,Original*
G04 #@! TF.FileFunction,Paste,Bot*
G04 #@! TF.FilePolarity,Positive*
%FSLAX46Y46*%
G04 Gerber Fmt 4.6, Leading zero omitted, Abs format (unit mm)*
G04 Created by KiCad (PCBNEW 5.1.7-a382d34a8~87~ubuntu18.04.1) date 2021-01-18 13:43:01*
%MOMM*%
%LPD*%
G01*
G04 APERTURE LIST*
%ADD10R,0.900000X0.800000*%
%ADD11C,0.100000*%
G04 APERTURE END LIST*
G04 #@! TO.C,R323*
G36*
G01*
X147375000Y-37425000D02*
X147375000Y-37975000D01*
G75*
G02*
X147175000Y-38175000I-200000J0D01*
G01*
X146775000Y-38175000D01*
G75*
G02*
X146575000Y-37975000I0J200000D01*
G01*
X146575000Y-37425000D01*
G75*
G02*
X146775000Y-37225000I200000J0D01*
G01*
X147175000Y-37225000D01*
G75*
G02*
X147375000Y-37425000I0J-200000D01*
G01*
G37*
G36*
G01*
X149025000Y-37425000D02*
X149025000Y-37975000D01*
G75*
G02*
X148825000Y-38175000I-200000J0D01*
G01*
X148425000Y-38175000D01*
G75*
G02*
X148225000Y-37975000I0J200000D01*
G01*
X148225000Y-37425000D01*
G75*
G02*
X148425000Y-37225000I200000J0D01*
G01*
X148825000Y-37225000D01*
G75*
G02*
X149025000Y-37425000I0J-200000D01*
G01*
G37*
G04 #@! TD*
G04 #@! TO.C,R312*
G36*
G01*
X158322500Y-44995001D02*
X158322500Y-42844999D01*
G75*
G02*
X158572499Y-42595000I249999J0D01*
G01*
X159297501Y-42595000D01*
G75*
G02*
X159547500Y-42844999I0J-249999D01*
G01*
X159547500Y-44995001D01*
G75*
G02*
X159297501Y-45245000I-249999J0D01*
G01*
X158572499Y-45245000D01*
G75*
G02*
X158322500Y-44995001I0J249999D01*
G01*
G37*
G36*
G01*
X162947500Y-44995001D02*
X162947500Y-42844999D01*
G75*
G02*
X163197499Y-42595000I249999J0D01*
G01*
X163922501Y-42595000D01*
G75*
G02*
X164172500Y-42844999I0J-249999D01*
G01*
X164172500Y-44995001D01*
G75*
G02*
X163922501Y-45245000I-249999J0D01*
G01*
X163197499Y-45245000D01*
G75*
G02*
X162947500Y-44995001I0J249999D01*
G01*
G37*
G04 #@! TD*
G04 #@! TO.C,R109*
G36*
G01*
X169456250Y-62820784D02*
X168943750Y-62820784D01*
G75*
G02*
X168725000Y-62602034I0J218750D01*
G01*
X168725000Y-62164534D01*
G75*
G02*
X168943750Y-61945784I218750J0D01*
G01*
X169456250Y-61945784D01*
G75*
G02*
X169675000Y-62164534I0J-218750D01*
G01*
X169675000Y-62602034D01*
G75*
G02*
X169456250Y-62820784I-218750J0D01*
G01*
G37*
G36*
G01*
X169456250Y-64395784D02*
X168943750Y-64395784D01*
G75*
G02*
X168725000Y-64177034I0J218750D01*
G01*
X168725000Y-63739534D01*
G75*
G02*
X168943750Y-63520784I218750J0D01*
G01*
X169456250Y-63520784D01*
G75*
G02*
X169675000Y-63739534I0J-218750D01*
G01*
X169675000Y-64177034D01*
G75*
G02*
X169456250Y-64395784I-218750J0D01*
G01*
G37*
G04 #@! TD*
G04 #@! TO.C,C305*
G36*
G01*
X182260000Y-48690000D02*
X182260000Y-49190000D01*
G75*
G02*
X182035000Y-49415000I-225000J0D01*
G01*
X181585000Y-49415000D01*
G75*
G02*
X181360000Y-49190000I0J225000D01*
G01*
X181360000Y-48690000D01*
G75*
G02*
X181585000Y-48465000I225000J0D01*
G01*
X182035000Y-48465000D01*
G75*
G02*
X182260000Y-48690000I0J-225000D01*
G01*
G37*
G36*
G01*
X183810000Y-48690000D02*
X183810000Y-49190000D01*
G75*
G02*
X183585000Y-49415000I-225000J0D01*
G01*
X183135000Y-49415000D01*
G75*
G02*
X182910000Y-49190000I0J225000D01*
G01*
X182910000Y-48690000D01*
G75*
G02*
X183135000Y-48465000I225000J0D01*
G01*
X183585000Y-48465000D01*
G75*
G02*
X183810000Y-48690000I0J-225000D01*
G01*
G37*
G04 #@! TD*
G04 #@! TO.C,C307*
G36*
G01*
X147410000Y-43395000D02*
X147410000Y-42445000D01*
G75*
G02*
X147660000Y-42195000I250000J0D01*
G01*
X148160000Y-42195000D01*
G75*
G02*
X148410000Y-42445000I0J-250000D01*
G01*
X148410000Y-43395000D01*
G75*
G02*
X148160000Y-43645000I-250000J0D01*
G01*
X147660000Y-43645000D01*
G75*
G02*
X147410000Y-43395000I0J250000D01*
G01*
G37*
G36*
G01*
X145510000Y-43395000D02*
X145510000Y-42445000D01*
G75*
G02*
X145760000Y-42195000I250000J0D01*
G01*
X146260000Y-42195000D01*
G75*
G02*
X146510000Y-42445000I0J-250000D01*
G01*
X146510000Y-43395000D01*
G75*
G02*
X146260000Y-43645000I-250000J0D01*
G01*
X145760000Y-43645000D01*
G75*
G02*
X145510000Y-43395000I0J250000D01*
G01*
G37*
G04 #@! TD*
G04 #@! TO.C,C313*
G36*
G01*
X164210000Y-40845000D02*
X164210000Y-41795000D01*
G75*
G02*
X163960000Y-42045000I-250000J0D01*
G01*
X163460000Y-42045000D01*
G75*
G02*
X163210000Y-41795000I0J250000D01*
G01*
X163210000Y-40845000D01*
G75*
G02*
X163460000Y-40595000I250000J0D01*
G01*
X163960000Y-40595000D01*
G75*
G02*
X164210000Y-40845000I0J-250000D01*
G01*
G37*
G36*
G01*
X162310000Y-40845000D02*
X162310000Y-41795000D01*
G75*
G02*
X162060000Y-42045000I-250000J0D01*
G01*
X161560000Y-42045000D01*
G75*
G02*
X161310000Y-41795000I0J250000D01*
G01*
X161310000Y-40845000D01*
G75*
G02*
X161560000Y-40595000I250000J0D01*
G01*
X162060000Y-40595000D01*
G75*
G02*
X162310000Y-40845000I0J-250000D01*
G01*
G37*
G04 #@! TD*
G04 #@! TO.C,C314*
G36*
G01*
X184185000Y-43050000D02*
X184185000Y-43550000D01*
G75*
G02*
X183960000Y-43775000I-225000J0D01*
G01*
X183510000Y-43775000D01*
G75*
G02*
X183285000Y-43550000I0J225000D01*
G01*
X183285000Y-43050000D01*
G75*
G02*
X183510000Y-42825000I225000J0D01*
G01*
X183960000Y-42825000D01*
G75*
G02*
X184185000Y-43050000I0J-225000D01*
G01*
G37*
G36*
G01*
X182635000Y-43050000D02*
X182635000Y-43550000D01*
G75*
G02*
X182410000Y-43775000I-225000J0D01*
G01*
X181960000Y-43775000D01*
G75*
G02*
X181735000Y-43550000I0J225000D01*
G01*
X181735000Y-43050000D01*
G75*
G02*
X181960000Y-42825000I225000J0D01*
G01*
X182410000Y-42825000D01*
G75*
G02*
X182635000Y-43050000I0J-225000D01*
G01*
G37*
G04 #@! TD*
G04 #@! TO.C,C315*
G36*
G01*
X147085000Y-39770000D02*
X147085000Y-39270000D01*
G75*
G02*
X147310000Y-39045000I225000J0D01*
G01*
X147760000Y-39045000D01*
G75*
G02*
X147985000Y-39270000I0J-225000D01*
G01*
X147985000Y-39770000D01*
G75*
G02*
X147760000Y-39995000I-225000J0D01*
G01*
X147310000Y-39995000D01*
G75*
G02*
X147085000Y-39770000I0J225000D01*
G01*
G37*
G36*
G01*
X145535000Y-39770000D02*
X145535000Y-39270000D01*
G75*
G02*
X145760000Y-39045000I225000J0D01*
G01*
X146210000Y-39045000D01*
G75*
G02*
X146435000Y-39270000I0J-225000D01*
G01*
X146435000Y-39770000D01*
G75*
G02*
X146210000Y-39995000I-225000J0D01*
G01*
X145760000Y-39995000D01*
G75*
G02*
X145535000Y-39770000I0J225000D01*
G01*
G37*
G04 #@! TD*
G04 #@! TO.C,C316*
G36*
G01*
X184185000Y-44570000D02*
X184185000Y-45070000D01*
G75*
G02*
X183960000Y-45295000I-225000J0D01*
G01*
X183510000Y-45295000D01*
G75*
G02*
X183285000Y-45070000I0J225000D01*
G01*
X183285000Y-44570000D01*
G75*
G02*
X183510000Y-44345000I225000J0D01*
G01*
X183960000Y-44345000D01*
G75*
G02*
X184185000Y-44570000I0J-225000D01*
G01*
G37*
G36*
G01*
X182635000Y-44570000D02*
X182635000Y-45070000D01*
G75*
G02*
X182410000Y-45295000I-225000J0D01*
G01*
X181960000Y-45295000D01*
G75*
G02*
X181735000Y-45070000I0J225000D01*
G01*
X181735000Y-44570000D01*
G75*
G02*
X181960000Y-44345000I225000J0D01*
G01*
X182410000Y-44345000D01*
G75*
G02*
X182635000Y-44570000I0J-225000D01*
G01*
G37*
G04 #@! TD*
G04 #@! TO.C,C318*
G36*
G01*
X143575000Y-37950000D02*
X143575000Y-37450000D01*
G75*
G02*
X143800000Y-37225000I225000J0D01*
G01*
X144250000Y-37225000D01*
G75*
G02*
X144475000Y-37450000I0J-225000D01*
G01*
X144475000Y-37950000D01*
G75*
G02*
X144250000Y-38175000I-225000J0D01*
G01*
X143800000Y-38175000D01*
G75*
G02*
X143575000Y-37950000I0J225000D01*
G01*
G37*
G36*
G01*
X145125000Y-37950000D02*
X145125000Y-37450000D01*
G75*
G02*
X145350000Y-37225000I225000J0D01*
G01*
X145800000Y-37225000D01*
G75*
G02*
X146025000Y-37450000I0J-225000D01*
G01*
X146025000Y-37950000D01*
G75*
G02*
X145800000Y-38175000I-225000J0D01*
G01*
X145350000Y-38175000D01*
G75*
G02*
X145125000Y-37950000I0J225000D01*
G01*
G37*
G04 #@! TD*
G04 #@! TO.C,C102*
G36*
G01*
X217800000Y-37650000D02*
X217800000Y-38150000D01*
G75*
G02*
X217575000Y-38375000I-225000J0D01*
G01*
X217125000Y-38375000D01*
G75*
G02*
X216900000Y-38150000I0J225000D01*
G01*
X216900000Y-37650000D01*
G75*
G02*
X217125000Y-37425000I225000J0D01*
G01*
X217575000Y-37425000D01*
G75*
G02*
X217800000Y-37650000I0J-225000D01*
G01*
G37*
G36*
G01*
X216250000Y-37650000D02*
X216250000Y-38150000D01*
G75*
G02*
X216025000Y-38375000I-225000J0D01*
G01*
X215575000Y-38375000D01*
G75*
G02*
X215350000Y-38150000I0J225000D01*
G01*
X215350000Y-37650000D01*
G75*
G02*
X215575000Y-37425000I225000J0D01*
G01*
X216025000Y-37425000D01*
G75*
G02*
X216250000Y-37650000I0J-225000D01*
G01*
G37*
G04 #@! TD*
D10*
G04 #@! TO.C,D310*
X179160000Y-43370000D03*
X179160000Y-45270000D03*
X177160000Y-44320000D03*
G04 #@! TD*
G04 #@! TO.C,R301*
G36*
G01*
X135235000Y-46545000D02*
X134685000Y-46545000D01*
G75*
G02*
X134485000Y-46345000I0J200000D01*
G01*
X134485000Y-45945000D01*
G75*
G02*
X134685000Y-45745000I200000J0D01*
G01*
X135235000Y-45745000D01*
G75*
G02*
X135435000Y-45945000I0J-200000D01*
G01*
X135435000Y-46345000D01*
G75*
G02*
X135235000Y-46545000I-200000J0D01*
G01*
G37*
G36*
G01*
X135235000Y-44895000D02*
X134685000Y-44895000D01*
G75*
G02*
X134485000Y-44695000I0J200000D01*
G01*
X134485000Y-44295000D01*
G75*
G02*
X134685000Y-44095000I200000J0D01*
G01*
X135235000Y-44095000D01*
G75*
G02*
X135435000Y-44295000I0J-200000D01*
G01*
X135435000Y-44695000D01*
G75*
G02*
X135235000Y-44895000I-200000J0D01*
G01*
G37*
G04 #@! TD*
G04 #@! TO.C,R306*
G36*
G01*
X133785000Y-40845000D02*
X133785000Y-41395000D01*
G75*
G02*
X133585000Y-41595000I-200000J0D01*
G01*
X133185000Y-41595000D01*
G75*
G02*
X132985000Y-41395000I0J200000D01*
G01*
X132985000Y-40845000D01*
G75*
G02*
X133185000Y-40645000I200000J0D01*
G01*
X133585000Y-40645000D01*
G75*
G02*
X133785000Y-40845000I0J-200000D01*
G01*
G37*
G36*
G01*
X135435000Y-40845000D02*
X135435000Y-41395000D01*
G75*
G02*
X135235000Y-41595000I-200000J0D01*
G01*
X134835000Y-41595000D01*
G75*
G02*
X134635000Y-41395000I0J200000D01*
G01*
X134635000Y-40845000D01*
G75*
G02*
X134835000Y-40645000I200000J0D01*
G01*
X135235000Y-40645000D01*
G75*
G02*
X135435000Y-40845000I0J-200000D01*
G01*
G37*
G04 #@! TD*
G04 #@! TO.C,R307*
G36*
G01*
X135435000Y-42445000D02*
X135435000Y-42995000D01*
G75*
G02*
X135235000Y-43195000I-200000J0D01*
G01*
X134835000Y-43195000D01*
G75*
G02*
X134635000Y-42995000I0J200000D01*
G01*
X134635000Y-42445000D01*
G75*
G02*
X134835000Y-42245000I200000J0D01*
G01*
X135235000Y-42245000D01*
G75*
G02*
X135435000Y-42445000I0J-200000D01*
G01*
G37*
G36*
G01*
X133785000Y-42445000D02*
X133785000Y-42995000D01*
G75*
G02*
X133585000Y-43195000I-200000J0D01*
G01*
X133185000Y-43195000D01*
G75*
G02*
X132985000Y-42995000I0J200000D01*
G01*
X132985000Y-42445000D01*
G75*
G02*
X133185000Y-42245000I200000J0D01*
G01*
X133585000Y-42245000D01*
G75*
G02*
X133785000Y-42445000I0J-200000D01*
G01*
G37*
G04 #@! TD*
G04 #@! TO.C,R308*
G36*
G01*
X184985000Y-46745000D02*
X185535000Y-46745000D01*
G75*
G02*
X185735000Y-46945000I0J-200000D01*
G01*
X185735000Y-47345000D01*
G75*
G02*
X185535000Y-47545000I-200000J0D01*
G01*
X184985000Y-47545000D01*
G75*
G02*
X184785000Y-47345000I0J200000D01*
G01*
X184785000Y-46945000D01*
G75*
G02*
X184985000Y-46745000I200000J0D01*
G01*
G37*
G36*
G01*
X184985000Y-45095000D02*
X185535000Y-45095000D01*
G75*
G02*
X185735000Y-45295000I0J-200000D01*
G01*
X185735000Y-45695000D01*
G75*
G02*
X185535000Y-45895000I-200000J0D01*
G01*
X184985000Y-45895000D01*
G75*
G02*
X184785000Y-45695000I0J200000D01*
G01*
X184785000Y-45295000D01*
G75*
G02*
X184985000Y-45095000I200000J0D01*
G01*
G37*
G04 #@! TD*
G04 #@! TO.C,R311*
G36*
G01*
X147985000Y-44445000D02*
X147985000Y-44995000D01*
G75*
G02*
X147785000Y-45195000I-200000J0D01*
G01*
X147385000Y-45195000D01*
G75*
G02*
X147185000Y-44995000I0J200000D01*
G01*
X147185000Y-44445000D01*
G75*
G02*
X147385000Y-44245000I200000J0D01*
G01*
X147785000Y-44245000D01*
G75*
G02*
X147985000Y-44445000I0J-200000D01*
G01*
G37*
G36*
G01*
X146335000Y-44445000D02*
X146335000Y-44995000D01*
G75*
G02*
X146135000Y-45195000I-200000J0D01*
G01*
X145735000Y-45195000D01*
G75*
G02*
X145535000Y-44995000I0J200000D01*
G01*
X145535000Y-44445000D01*
G75*
G02*
X145735000Y-44245000I200000J0D01*
G01*
X146135000Y-44245000D01*
G75*
G02*
X146335000Y-44445000I0J-200000D01*
G01*
G37*
G04 #@! TD*
G04 #@! TO.C,R313*
G36*
G01*
X179605000Y-46645000D02*
X179605000Y-47195000D01*
G75*
G02*
X179405000Y-47395000I-200000J0D01*
G01*
X179005000Y-47395000D01*
G75*
G02*
X178805000Y-47195000I0J200000D01*
G01*
X178805000Y-46645000D01*
G75*
G02*
X179005000Y-46445000I200000J0D01*
G01*
X179405000Y-46445000D01*
G75*
G02*
X179605000Y-46645000I0J-200000D01*
G01*
G37*
G36*
G01*
X177955000Y-46645000D02*
X177955000Y-47195000D01*
G75*
G02*
X177755000Y-47395000I-200000J0D01*
G01*
X177355000Y-47395000D01*
G75*
G02*
X177155000Y-47195000I0J200000D01*
G01*
X177155000Y-46645000D01*
G75*
G02*
X177355000Y-46445000I200000J0D01*
G01*
X177755000Y-46445000D01*
G75*
G02*
X177955000Y-46645000I0J-200000D01*
G01*
G37*
G04 #@! TD*
G04 #@! TO.C,R314*
G36*
G01*
X179405000Y-40495000D02*
X178855000Y-40495000D01*
G75*
G02*
X178655000Y-40295000I0J200000D01*
G01*
X178655000Y-39895000D01*
G75*
G02*
X178855000Y-39695000I200000J0D01*
G01*
X179405000Y-39695000D01*
G75*
G02*
X179605000Y-39895000I0J-200000D01*
G01*
X179605000Y-40295000D01*
G75*
G02*
X179405000Y-40495000I-200000J0D01*
G01*
G37*
G36*
G01*
X179405000Y-42145000D02*
X178855000Y-42145000D01*
G75*
G02*
X178655000Y-41945000I0J200000D01*
G01*
X178655000Y-41545000D01*
G75*
G02*
X178855000Y-41345000I200000J0D01*
G01*
X179405000Y-41345000D01*
G75*
G02*
X179605000Y-41545000I0J-200000D01*
G01*
X179605000Y-41945000D01*
G75*
G02*
X179405000Y-42145000I-200000J0D01*
G01*
G37*
G04 #@! TD*
G04 #@! TO.C,R315*
G36*
G01*
X184985000Y-42095000D02*
X185535000Y-42095000D01*
G75*
G02*
X185735000Y-42295000I0J-200000D01*
G01*
X185735000Y-42695000D01*
G75*
G02*
X185535000Y-42895000I-200000J0D01*
G01*
X184985000Y-42895000D01*
G75*
G02*
X184785000Y-42695000I0J200000D01*
G01*
X184785000Y-42295000D01*
G75*
G02*
X184985000Y-42095000I200000J0D01*
G01*
G37*
G36*
G01*
X184985000Y-43745000D02*
X185535000Y-43745000D01*
G75*
G02*
X185735000Y-43945000I0J-200000D01*
G01*
X185735000Y-44345000D01*
G75*
G02*
X185535000Y-44545000I-200000J0D01*
G01*
X184985000Y-44545000D01*
G75*
G02*
X184785000Y-44345000I0J200000D01*
G01*
X184785000Y-43945000D01*
G75*
G02*
X184985000Y-43745000I200000J0D01*
G01*
G37*
G04 #@! TD*
G04 #@! TO.C,R316*
G36*
G01*
X146335000Y-40845000D02*
X146335000Y-41395000D01*
G75*
G02*
X146135000Y-41595000I-200000J0D01*
G01*
X145735000Y-41595000D01*
G75*
G02*
X145535000Y-41395000I0J200000D01*
G01*
X145535000Y-40845000D01*
G75*
G02*
X145735000Y-40645000I200000J0D01*
G01*
X146135000Y-40645000D01*
G75*
G02*
X146335000Y-40845000I0J-200000D01*
G01*
G37*
G36*
G01*
X147985000Y-40845000D02*
X147985000Y-41395000D01*
G75*
G02*
X147785000Y-41595000I-200000J0D01*
G01*
X147385000Y-41595000D01*
G75*
G02*
X147185000Y-41395000I0J200000D01*
G01*
X147185000Y-40845000D01*
G75*
G02*
X147385000Y-40645000I200000J0D01*
G01*
X147785000Y-40645000D01*
G75*
G02*
X147985000Y-40845000I0J-200000D01*
G01*
G37*
G04 #@! TD*
G04 #@! TO.C,R317*
G36*
G01*
X133085000Y-45745000D02*
X133635000Y-45745000D01*
G75*
G02*
X133835000Y-45945000I0J-200000D01*
G01*
X133835000Y-46345000D01*
G75*
G02*
X133635000Y-46545000I-200000J0D01*
G01*
X133085000Y-46545000D01*
G75*
G02*
X132885000Y-46345000I0J200000D01*
G01*
X132885000Y-45945000D01*
G75*
G02*
X133085000Y-45745000I200000J0D01*
G01*
G37*
G36*
G01*
X133085000Y-44095000D02*
X133635000Y-44095000D01*
G75*
G02*
X133835000Y-44295000I0J-200000D01*
G01*
X133835000Y-44695000D01*
G75*
G02*
X133635000Y-44895000I-200000J0D01*
G01*
X133085000Y-44895000D01*
G75*
G02*
X132885000Y-44695000I0J200000D01*
G01*
X132885000Y-44295000D01*
G75*
G02*
X133085000Y-44095000I200000J0D01*
G01*
G37*
G04 #@! TD*
G04 #@! TO.C,R319*
G36*
G01*
X180935000Y-43625000D02*
X180385000Y-43625000D01*
G75*
G02*
X180185000Y-43425000I0J200000D01*
G01*
X180185000Y-43025000D01*
G75*
G02*
X180385000Y-42825000I200000J0D01*
G01*
X180935000Y-42825000D01*
G75*
G02*
X181135000Y-43025000I0J-200000D01*
G01*
X181135000Y-43425000D01*
G75*
G02*
X180935000Y-43625000I-200000J0D01*
G01*
G37*
G36*
G01*
X180935000Y-45275000D02*
X180385000Y-45275000D01*
G75*
G02*
X180185000Y-45075000I0J200000D01*
G01*
X180185000Y-44675000D01*
G75*
G02*
X180385000Y-44475000I200000J0D01*
G01*
X180935000Y-44475000D01*
G75*
G02*
X181135000Y-44675000I0J-200000D01*
G01*
X181135000Y-45075000D01*
G75*
G02*
X180935000Y-45275000I-200000J0D01*
G01*
G37*
G04 #@! TD*
G04 #@! TO.C,R320*
G36*
G01*
X146025000Y-35895000D02*
X146025000Y-36445000D01*
G75*
G02*
X145825000Y-36645000I-200000J0D01*
G01*
X145425000Y-36645000D01*
G75*
G02*
X145225000Y-36445000I0J200000D01*
G01*
X145225000Y-35895000D01*
G75*
G02*
X145425000Y-35695000I200000J0D01*
G01*
X145825000Y-35695000D01*
G75*
G02*
X146025000Y-35895000I0J-200000D01*
G01*
G37*
G36*
G01*
X144375000Y-35895000D02*
X144375000Y-36445000D01*
G75*
G02*
X144175000Y-36645000I-200000J0D01*
G01*
X143775000Y-36645000D01*
G75*
G02*
X143575000Y-36445000I0J200000D01*
G01*
X143575000Y-35895000D01*
G75*
G02*
X143775000Y-35695000I200000J0D01*
G01*
X144175000Y-35695000D01*
G75*
G02*
X144375000Y-35895000I0J-200000D01*
G01*
G37*
G04 #@! TD*
G04 #@! TO.C,R324*
G36*
G01*
X185535000Y-41545000D02*
X184985000Y-41545000D01*
G75*
G02*
X184785000Y-41345000I0J200000D01*
G01*
X184785000Y-40945000D01*
G75*
G02*
X184985000Y-40745000I200000J0D01*
G01*
X185535000Y-40745000D01*
G75*
G02*
X185735000Y-40945000I0J-200000D01*
G01*
X185735000Y-41345000D01*
G75*
G02*
X185535000Y-41545000I-200000J0D01*
G01*
G37*
G36*
G01*
X185535000Y-39895000D02*
X184985000Y-39895000D01*
G75*
G02*
X184785000Y-39695000I0J200000D01*
G01*
X184785000Y-39295000D01*
G75*
G02*
X184985000Y-39095000I200000J0D01*
G01*
X185535000Y-39095000D01*
G75*
G02*
X185735000Y-39295000I0J-200000D01*
G01*
X185735000Y-39695000D01*
G75*
G02*
X185535000Y-39895000I-200000J0D01*
G01*
G37*
G04 #@! TD*
G04 #@! TO.C,C701*
G36*
G01*
X150801451Y-101243348D02*
X150447897Y-101596902D01*
G75*
G02*
X150129699Y-101596902I-159099J159099D01*
G01*
X149811501Y-101278704D01*
G75*
G02*
X149811501Y-100960506I159099J159099D01*
G01*
X150165055Y-100606952D01*
G75*
G02*
X150483253Y-100606952I159099J-159099D01*
G01*
X150801451Y-100925150D01*
G75*
G02*
X150801451Y-101243348I-159099J-159099D01*
G01*
G37*
G36*
G01*
X149705435Y-100147332D02*
X149351881Y-100500886D01*
G75*
G02*
X149033683Y-100500886I-159099J159099D01*
G01*
X148715485Y-100182688D01*
G75*
G02*
X148715485Y-99864490I159099J159099D01*
G01*
X149069039Y-99510936D01*
G75*
G02*
X149387237Y-99510936I159099J-159099D01*
G01*
X149705435Y-99829134D01*
G75*
G02*
X149705435Y-100147332I-159099J-159099D01*
G01*
G37*
G04 #@! TD*
G04 #@! TO.C,C702*
G36*
G01*
X153028130Y-96645032D02*
X152674576Y-96998586D01*
G75*
G02*
X152356378Y-96998586I-159099J159099D01*
G01*
X152038180Y-96680388D01*
G75*
G02*
X152038180Y-96362190I159099J159099D01*
G01*
X152391734Y-96008636D01*
G75*
G02*
X152709932Y-96008636I159099J-159099D01*
G01*
X153028130Y-96326834D01*
G75*
G02*
X153028130Y-96645032I-159099J-159099D01*
G01*
G37*
G36*
G01*
X154124146Y-97741048D02*
X153770592Y-98094602D01*
G75*
G02*
X153452394Y-98094602I-159099J159099D01*
G01*
X153134196Y-97776404D01*
G75*
G02*
X153134196Y-97458206I159099J159099D01*
G01*
X153487750Y-97104652D01*
G75*
G02*
X153805948Y-97104652I159099J-159099D01*
G01*
X154124146Y-97422850D01*
G75*
G02*
X154124146Y-97741048I-159099J-159099D01*
G01*
G37*
G04 #@! TD*
G04 #@! TO.C,U301*
G36*
G01*
X144360000Y-41070000D02*
X144360000Y-41270000D01*
G75*
G02*
X144260000Y-41370000I-100000J0D01*
G01*
X142985000Y-41370000D01*
G75*
G02*
X142885000Y-41270000I0J100000D01*
G01*
X142885000Y-41070000D01*
G75*
G02*
X142985000Y-40970000I100000J0D01*
G01*
X144260000Y-40970000D01*
G75*
G02*
X144360000Y-41070000I0J-100000D01*
G01*
G37*
G36*
G01*
X144360000Y-41720000D02*
X144360000Y-41920000D01*
G75*
G02*
X144260000Y-42020000I-100000J0D01*
G01*
X142985000Y-42020000D01*
G75*
G02*
X142885000Y-41920000I0J100000D01*
G01*
X142885000Y-41720000D01*
G75*
G02*
X142985000Y-41620000I100000J0D01*
G01*
X144260000Y-41620000D01*
G75*
G02*
X144360000Y-41720000I0J-100000D01*
G01*
G37*
G36*
G01*
X144360000Y-42370000D02*
X144360000Y-42570000D01*
G75*
G02*
X144260000Y-42670000I-100000J0D01*
G01*
X142985000Y-42670000D01*
G75*
G02*
X142885000Y-42570000I0J100000D01*
G01*
X142885000Y-42370000D01*
G75*
G02*
X142985000Y-42270000I100000J0D01*
G01*
X144260000Y-42270000D01*
G75*
G02*
X144360000Y-42370000I0J-100000D01*
G01*
G37*
G36*
G01*
X144360000Y-43020000D02*
X144360000Y-43220000D01*
G75*
G02*
X144260000Y-43320000I-100000J0D01*
G01*
X142985000Y-43320000D01*
G75*
G02*
X142885000Y-43220000I0J100000D01*
G01*
X142885000Y-43020000D01*
G75*
G02*
X142985000Y-42920000I100000J0D01*
G01*
X144260000Y-42920000D01*
G75*
G02*
X144360000Y-43020000I0J-100000D01*
G01*
G37*
G36*
G01*
X144360000Y-43670000D02*
X144360000Y-43870000D01*
G75*
G02*
X144260000Y-43970000I-100000J0D01*
G01*
X142985000Y-43970000D01*
G75*
G02*
X142885000Y-43870000I0J100000D01*
G01*
X142885000Y-43670000D01*
G75*
G02*
X142985000Y-43570000I100000J0D01*
G01*
X144260000Y-43570000D01*
G75*
G02*
X144360000Y-43670000I0J-100000D01*
G01*
G37*
G36*
G01*
X144360000Y-44320000D02*
X144360000Y-44520000D01*
G75*
G02*
X144260000Y-44620000I-100000J0D01*
G01*
X142985000Y-44620000D01*
G75*
G02*
X142885000Y-44520000I0J100000D01*
G01*
X142885000Y-44320000D01*
G75*
G02*
X142985000Y-44220000I100000J0D01*
G01*
X144260000Y-44220000D01*
G75*
G02*
X144360000Y-44320000I0J-100000D01*
G01*
G37*
G36*
G01*
X144360000Y-44970000D02*
X144360000Y-45170000D01*
G75*
G02*
X144260000Y-45270000I-100000J0D01*
G01*
X142985000Y-45270000D01*
G75*
G02*
X142885000Y-45170000I0J100000D01*
G01*
X142885000Y-44970000D01*
G75*
G02*
X142985000Y-44870000I100000J0D01*
G01*
X144260000Y-44870000D01*
G75*
G02*
X144360000Y-44970000I0J-100000D01*
G01*
G37*
G36*
G01*
X138635000Y-44970000D02*
X138635000Y-45170000D01*
G75*
G02*
X138535000Y-45270000I-100000J0D01*
G01*
X137260000Y-45270000D01*
G75*
G02*
X137160000Y-45170000I0J100000D01*
G01*
X137160000Y-44970000D01*
G75*
G02*
X137260000Y-44870000I100000J0D01*
G01*
X138535000Y-44870000D01*
G75*
G02*
X138635000Y-44970000I0J-100000D01*
G01*
G37*
G36*
G01*
X138635000Y-44320000D02*
X138635000Y-44520000D01*
G75*
G02*
X138535000Y-44620000I-100000J0D01*
G01*
X137260000Y-44620000D01*
G75*
G02*
X137160000Y-44520000I0J100000D01*
G01*
X137160000Y-44320000D01*
G75*
G02*
X137260000Y-44220000I100000J0D01*
G01*
X138535000Y-44220000D01*
G75*
G02*
X138635000Y-44320000I0J-100000D01*
G01*
G37*
G36*
G01*
X138635000Y-43670000D02*
X138635000Y-43870000D01*
G75*
G02*
X138535000Y-43970000I-100000J0D01*
G01*
X137260000Y-43970000D01*
G75*
G02*
X137160000Y-43870000I0J100000D01*
G01*
X137160000Y-43670000D01*
G75*
G02*
X137260000Y-43570000I100000J0D01*
G01*
X138535000Y-43570000D01*
G75*
G02*
X138635000Y-43670000I0J-100000D01*
G01*
G37*
G36*
G01*
X138635000Y-43020000D02*
X138635000Y-43220000D01*
G75*
G02*
X138535000Y-43320000I-100000J0D01*
G01*
X137260000Y-43320000D01*
G75*
G02*
X137160000Y-43220000I0J100000D01*
G01*
X137160000Y-43020000D01*
G75*
G02*
X137260000Y-42920000I100000J0D01*
G01*
X138535000Y-42920000D01*
G75*
G02*
X138635000Y-43020000I0J-100000D01*
G01*
G37*
G36*
G01*
X138635000Y-42370000D02*
X138635000Y-42570000D01*
G75*
G02*
X138535000Y-42670000I-100000J0D01*
G01*
X137260000Y-42670000D01*
G75*
G02*
X137160000Y-42570000I0J100000D01*
G01*
X137160000Y-42370000D01*
G75*
G02*
X137260000Y-42270000I100000J0D01*
G01*
X138535000Y-42270000D01*
G75*
G02*
X138635000Y-42370000I0J-100000D01*
G01*
G37*
G36*
G01*
X138635000Y-41720000D02*
X138635000Y-41920000D01*
G75*
G02*
X138535000Y-42020000I-100000J0D01*
G01*
X137260000Y-42020000D01*
G75*
G02*
X137160000Y-41920000I0J100000D01*
G01*
X137160000Y-41720000D01*
G75*
G02*
X137260000Y-41620000I100000J0D01*
G01*
X138535000Y-41620000D01*
G75*
G02*
X138635000Y-41720000I0J-100000D01*
G01*
G37*
G36*
G01*
X138635000Y-41070000D02*
X138635000Y-41270000D01*
G75*
G02*
X138535000Y-41370000I-100000J0D01*
G01*
X137260000Y-41370000D01*
G75*
G02*
X137160000Y-41270000I0J100000D01*
G01*
X137160000Y-41070000D01*
G75*
G02*
X137260000Y-40970000I100000J0D01*
G01*
X138535000Y-40970000D01*
G75*
G02*
X138635000Y-41070000I0J-100000D01*
G01*
G37*
G04 #@! TD*
G04 #@! TO.C,U302*
X181760000Y-41600000D03*
X181760000Y-39700000D03*
X183760000Y-40650000D03*
G04 #@! TD*
D11*
G04 #@! TO.C,U701*
G36*
X151074394Y-100260470D02*
G01*
X150791551Y-99977627D01*
X151251170Y-99518008D01*
X151534013Y-99800851D01*
X151074394Y-100260470D01*
G37*
G36*
X150155155Y-99341231D02*
G01*
X149872312Y-99058388D01*
X150331931Y-98598769D01*
X150614774Y-98881612D01*
X150155155Y-99341231D01*
G37*
G36*
X150614775Y-99800850D02*
G01*
X150331932Y-99518007D01*
X150791551Y-99058388D01*
X151074394Y-99341231D01*
X150614775Y-99800850D01*
G37*
G36*
X151498658Y-97997728D02*
G01*
X151215815Y-97714885D01*
X151675434Y-97255266D01*
X151958277Y-97538109D01*
X151498658Y-97997728D01*
G37*
G36*
X152417897Y-98916967D02*
G01*
X152135054Y-98634124D01*
X152594673Y-98174505D01*
X152877516Y-98457348D01*
X152417897Y-98916967D01*
G37*
G04 #@! TD*
G04 #@! TO.C,FB701*
G36*
G01*
X150533280Y-96004216D02*
X150895673Y-96366609D01*
G75*
G02*
X150895673Y-96675969I-154680J-154680D01*
G01*
X150586314Y-96985328D01*
G75*
G02*
X150276954Y-96985328I-154680J154680D01*
G01*
X149914561Y-96622935D01*
G75*
G02*
X149914561Y-96313575I154680J154680D01*
G01*
X150223920Y-96004216D01*
G75*
G02*
X150533280Y-96004216I154680J-154680D01*
G01*
G37*
G36*
G01*
X149419586Y-97117910D02*
X149781979Y-97480303D01*
G75*
G02*
X149781979Y-97789663I-154680J-154680D01*
G01*
X149472620Y-98099022D01*
G75*
G02*
X149163260Y-98099022I-154680J154680D01*
G01*
X148800867Y-97736629D01*
G75*
G02*
X148800867Y-97427269I154680J154680D01*
G01*
X149110226Y-97117910D01*
G75*
G02*
X149419586Y-97117910I154680J-154680D01*
G01*
G37*
G04 #@! TD*
G04 #@! TO.C,C811*
G36*
G01*
X214550000Y-34175000D02*
X214050000Y-34175000D01*
G75*
G02*
X213825000Y-33950000I0J225000D01*
G01*
X213825000Y-33500000D01*
G75*
G02*
X214050000Y-33275000I225000J0D01*
G01*
X214550000Y-33275000D01*
G75*
G02*
X214775000Y-33500000I0J-225000D01*
G01*
X214775000Y-33950000D01*
G75*
G02*
X214550000Y-34175000I-225000J0D01*
G01*
G37*
G36*
G01*
X214550000Y-35725000D02*
X214050000Y-35725000D01*
G75*
G02*
X213825000Y-35500000I0J225000D01*
G01*
X213825000Y-35050000D01*
G75*
G02*
X214050000Y-34825000I225000J0D01*
G01*
X214550000Y-34825000D01*
G75*
G02*
X214775000Y-35050000I0J-225000D01*
G01*
X214775000Y-35500000D01*
G75*
G02*
X214550000Y-35725000I-225000J0D01*
G01*
G37*
G04 #@! TD*
G04 #@! TO.C,R812*
G36*
G01*
X203925000Y-32425000D02*
X203925000Y-32975000D01*
G75*
G02*
X203725000Y-33175000I-200000J0D01*
G01*
X203325000Y-33175000D01*
G75*
G02*
X203125000Y-32975000I0J200000D01*
G01*
X203125000Y-32425000D01*
G75*
G02*
X203325000Y-32225000I200000J0D01*
G01*
X203725000Y-32225000D01*
G75*
G02*
X203925000Y-32425000I0J-200000D01*
G01*
G37*
G36*
G01*
X202275000Y-32425000D02*
X202275000Y-32975000D01*
G75*
G02*
X202075000Y-33175000I-200000J0D01*
G01*
X201675000Y-33175000D01*
G75*
G02*
X201475000Y-32975000I0J200000D01*
G01*
X201475000Y-32425000D01*
G75*
G02*
X201675000Y-32225000I200000J0D01*
G01*
X202075000Y-32225000D01*
G75*
G02*
X202275000Y-32425000I0J-200000D01*
G01*
G37*
G04 #@! TD*
G04 #@! TO.C,R813*
G36*
G01*
X199275000Y-32425000D02*
X199275000Y-32975000D01*
G75*
G02*
X199075000Y-33175000I-200000J0D01*
G01*
X198675000Y-33175000D01*
G75*
G02*
X198475000Y-32975000I0J200000D01*
G01*
X198475000Y-32425000D01*
G75*
G02*
X198675000Y-32225000I200000J0D01*
G01*
X199075000Y-32225000D01*
G75*
G02*
X199275000Y-32425000I0J-200000D01*
G01*
G37*
G36*
G01*
X200925000Y-32425000D02*
X200925000Y-32975000D01*
G75*
G02*
X200725000Y-33175000I-200000J0D01*
G01*
X200325000Y-33175000D01*
G75*
G02*
X200125000Y-32975000I0J200000D01*
G01*
X200125000Y-32425000D01*
G75*
G02*
X200325000Y-32225000I200000J0D01*
G01*
X200725000Y-32225000D01*
G75*
G02*
X200925000Y-32425000I0J-200000D01*
G01*
G37*
G04 #@! TD*
G04 #@! TO.C,C317*
G36*
G01*
X177750000Y-42125000D02*
X177250000Y-42125000D01*
G75*
G02*
X177025000Y-41900000I0J225000D01*
G01*
X177025000Y-41450000D01*
G75*
G02*
X177250000Y-41225000I225000J0D01*
G01*
X177750000Y-41225000D01*
G75*
G02*
X177975000Y-41450000I0J-225000D01*
G01*
X177975000Y-41900000D01*
G75*
G02*
X177750000Y-42125000I-225000J0D01*
G01*
G37*
G36*
G01*
X177750000Y-40575000D02*
X177250000Y-40575000D01*
G75*
G02*
X177025000Y-40350000I0J225000D01*
G01*
X177025000Y-39900000D01*
G75*
G02*
X177250000Y-39675000I225000J0D01*
G01*
X177750000Y-39675000D01*
G75*
G02*
X177975000Y-39900000I0J-225000D01*
G01*
X177975000Y-40350000D01*
G75*
G02*
X177750000Y-40575000I-225000J0D01*
G01*
G37*
G04 #@! TD*
G04 #@! TO.C,R302*
G36*
G01*
X180525000Y-48665000D02*
X180525000Y-49215000D01*
G75*
G02*
X180325000Y-49415000I-200000J0D01*
G01*
X179925000Y-49415000D01*
G75*
G02*
X179725000Y-49215000I0J200000D01*
G01*
X179725000Y-48665000D01*
G75*
G02*
X179925000Y-48465000I200000J0D01*
G01*
X180325000Y-48465000D01*
G75*
G02*
X180525000Y-48665000I0J-200000D01*
G01*
G37*
G36*
G01*
X178875000Y-48665000D02*
X178875000Y-49215000D01*
G75*
G02*
X178675000Y-49415000I-200000J0D01*
G01*
X178275000Y-49415000D01*
G75*
G02*
X178075000Y-49215000I0J200000D01*
G01*
X178075000Y-48665000D01*
G75*
G02*
X178275000Y-48465000I200000J0D01*
G01*
X178675000Y-48465000D01*
G75*
G02*
X178875000Y-48665000I0J-200000D01*
G01*
G37*
G04 #@! TD*
G04 #@! TO.C,R326*
G36*
G01*
X146575000Y-36445000D02*
X146575000Y-35895000D01*
G75*
G02*
X146775000Y-35695000I200000J0D01*
G01*
X147175000Y-35695000D01*
G75*
G02*
X147375000Y-35895000I0J-200000D01*
G01*
X147375000Y-36445000D01*
G75*
G02*
X147175000Y-36645000I-200000J0D01*
G01*
X146775000Y-36645000D01*
G75*
G02*
X146575000Y-36445000I0J200000D01*
G01*
G37*
G36*
G01*
X148225000Y-36445000D02*
X148225000Y-35895000D01*
G75*
G02*
X148425000Y-35695000I200000J0D01*
G01*
X148825000Y-35695000D01*
G75*
G02*
X149025000Y-35895000I0J-200000D01*
G01*
X149025000Y-36445000D01*
G75*
G02*
X148825000Y-36645000I-200000J0D01*
G01*
X148425000Y-36645000D01*
G75*
G02*
X148225000Y-36445000I0J200000D01*
G01*
G37*
G04 #@! TD*
M02*
