M48
; DRILL file {KiCad 5.1.7-a382d34a8~87~ubuntu18.04.1} date Mon Jan 18 17:29:04 2021
; FORMAT={-:-/ absolute / inch / decimal}
; #@! TF.CreationDate,2021-01-18T17:29:04-05:00
; #@! TF.GenerationSoftware,Kicad,Pcbnew,5.1.7-a382d34a8~87~ubuntu18.04.1
; #@! TF.FileFunction,Plated,1,2,PTH
FMAT,2
INCH
T1C0.0157
T2C0.0197
T3C0.0394
T4C0.0400
T5C0.0630
T6C0.1260
%
G90
G05
T1
X3.6969Y-4.4252
X3.7323Y-3.8976
X3.752Y-4.063
X3.752Y-4.1732
X3.752Y-4.4213
X3.8071Y-4.5472
X3.9016Y-3.9409
X3.9016Y-3.9764
X3.9016Y-4.378
X3.9016Y-4.4134
X3.9055Y-4.1063
X3.9055Y-4.1417
X3.9055Y-4.5551
X3.9055Y-4.5906
X3.9449Y-3.9409
X3.9449Y-3.9764
X3.9449Y-4.378
X3.9449Y-4.4134
X3.9488Y-4.1063
X3.9488Y-4.1417
X3.9488Y-4.5551
X3.9488Y-4.5906
X4.0354Y-3.8937
X4.0394Y-4.3386
X4.0433Y-4.5157
X4.0433Y-4.0669
X4.3Y-4.6685
X4.4Y-4.6685
X4.5Y-4.6685
X4.6Y-4.6685
X4.7Y-4.6685
X4.8Y-4.6685
X5.0466Y-3.9499
X5.0466Y-4.5405
X5.0472Y-3.6546
X5.0472Y-4.2452
X5.2966Y-3.9499
X5.2966Y-4.5405
X5.2972Y-3.6546
X5.2972Y-4.2452
X5.334Y-3.9499
X5.334Y-4.5405
X5.3346Y-3.6546
X5.3346Y-4.2452
X5.3694Y-4.1582
X5.3694Y-4.7488
X5.3701Y-3.863
X5.3701Y-4.4535
X5.3714Y-3.9499
X5.3714Y-4.5405
X5.372Y-3.6546
X5.372Y-4.2452
X5.4017Y-3.9993
X5.4017Y-4.5898
X5.4023Y-3.704
X5.4023Y-4.2945
X5.5502Y-4.4105
X5.5551Y-4.6378
X5.5591Y-3.8661
X5.5591Y-3.7677
X5.5591Y-3.9646
X5.5591Y-4.0441
X5.5906Y-3.7165
X5.5906Y-3.8161
X5.5906Y-3.9134
X5.7047Y-4.3583
X5.7047Y-4.4055
X5.7047Y-4.4882
X5.7047Y-4.5354
X5.7047Y-4.5866
X5.7047Y-4.311
X5.7323Y-4.0
X5.7677Y-3.7638
X5.7717Y-3.8622
X5.7717Y-3.9646
X5.8848Y-4.1501
X5.8898Y-4.5354
X5.8976Y-4.7008
X5.8976Y-4.7638
X5.8976Y-4.6378
X5.9264Y-3.8161
X5.9331Y-4.5354
X5.9606Y-4.2126
X5.9616Y-3.9134
X5.9764Y-4.5354
X5.9843Y-4.1654
T2
X5.9331Y-4.3937
T3
X6.189Y-4.2992
X6.189Y-4.3992
X6.189Y-4.4992
T4
X4.218Y-4.0775
X4.218Y-4.3239
X4.2741Y-3.9803
X4.2741Y-4.4211
X4.8131Y-3.9803
X4.8131Y-4.4211
X4.8692Y-4.0775
X4.8692Y-4.3239
T5
X6.0472Y-4.0276
X6.1654Y-3.8425
X6.2835Y-4.0276
T6
X3.75Y-3.675
X6.45Y-4.775
X3.75Y-4.775
X6.45Y-3.675
T0
M30
