  0
SECTION
  2
HEADER
  9
$ANGBASE
  50
0.0
  9
$ANGDIR
  70
1
  9
$MEASUREMENT
  70
0
  0
ENDSEC
  0
SECTION
  2
TABLES
  0
TABLE
  2
LTYPE
  70
4
  0
LTYPE
  5
40F
  2
CONTINUOUS
  70
0
  3
Solid line
  72
65
  73
0
  40
0.0
  0
LTYPE
  5
410
  2
DASHDOT
 70
0
  3
Dash Dot ____ _ ____ _
 72
65
 73
4
 40
2.0
 49
1.25
 49
-0.25
 49
0.25
 49
-0.25
  0
LTYPE
  5
411
  2
DASHED
 70
0
  3
Dashed __ __ __ __ __
 72
65
 73
2
 40
0.75
 49
0.5
 49
-0.25
  0
LTYPE
  5
43B
  2
DOTTED
 70
0
  3
Dotted .  .  .  .
 72
65
 73
2
 40
0.2
 49
0.0
 49
-0.2
  0
ENDTAB
  0
TABLE
  2
STYLE
  70
4
  0
STYLE
  2
KICAD
  70
0
  40
0
  41
1
  42
1
  50
0
  71
0
  3
isocp.shx
  0
STYLE
  2
KICADB
  70
0
  40
0
  41
1
  42
1
  50
0
  71
0
  3
isocp.shx
  0
STYLE
  2
KICADI
  70
0
  40
0
  41
1
  42
1
  50
15
  71
0
  3
isocp.shx
  0
STYLE
  2
KICADBI
  70
0
  40
0
  41
1
  42
1
  50
15
  71
0
  3
isocp.shx
  0
ENDTAB
  0
TABLE
  2
LAYER
  70
1
  0
LAYER
  2
BLACK
  70
0
  62
7
  6
CONTINUOUS
  0
ENDTAB
  0
ENDSEC
  0
SECTION
  2
ENTITIES
0
LINE
8
BLACK
6
CONTINUOUS
10
6.6
20
-4.925
11
6.6
21
-3.525
0
LINE
8
BLACK
6
CONTINUOUS
10
3.6
20
-4.925
11
6.6
21
-4.925
0
LINE
8
BLACK
6
CONTINUOUS
10
3.6
20
-3.525
11
3.6
21
-4.925
0
LINE
8
BLACK
6
CONTINUOUS
10
6.6
20
-3.525
11
3.6
21
-3.525
0
LINE
8
BLACK
6
CONTINUOUS
10
3.71178
20
-5.10934
11
3.71178
21
-4.99123
0
LINE
8
BLACK
6
CONTINUOUS
10
3.71178
20
-4.99123
11
3.7399
21
-4.99123
0
LINE
8
BLACK
6
CONTINUOUS
10
3.7399
20
-4.99123
11
3.75678
21
-4.99685
0
LINE
8
BLACK
6
CONTINUOUS
10
3.75678
20
-4.99685
11
3.76803
21
-5.0081
0
LINE
8
BLACK
6
CONTINUOUS
10
3.76803
20
-5.0081
11
3.77365
21
-5.01935
0
LINE
8
BLACK
6
CONTINUOUS
10
3.77365
20
-5.01935
11
3.77927
21
-5.04184
0
LINE
8
BLACK
6
CONTINUOUS
10
3.77927
20
-5.04184
11
3.77927
21
-5.05872
0
LINE
8
BLACK
6
CONTINUOUS
10
3.77927
20
-5.05872
11
3.77365
21
-5.08121
0
LINE
8
BLACK
6
CONTINUOUS
10
3.77365
20
-5.08121
11
3.76803
21
-5.09246
0
LINE
8
BLACK
6
CONTINUOUS
10
3.76803
20
-5.09246
11
3.75678
21
-5.10371
0
LINE
8
BLACK
6
CONTINUOUS
10
3.75678
20
-5.10371
11
3.7399
21
-5.10934
0
LINE
8
BLACK
6
CONTINUOUS
10
3.7399
20
-5.10934
11
3.71178
21
-5.10934
0
LINE
8
BLACK
6
CONTINUOUS
10
3.82989
20
-5.10934
11
3.82989
21
-5.0306
0
LINE
8
BLACK
6
CONTINUOUS
10
3.82989
20
-5.05309
11
3.83552
21
-5.04184
0
LINE
8
BLACK
6
CONTINUOUS
10
3.83552
20
-5.04184
11
3.84114
21
-5.03622
0
LINE
8
BLACK
6
CONTINUOUS
10
3.84114
20
-5.03622
11
3.85239
21
-5.0306
0
LINE
8
BLACK
6
CONTINUOUS
10
3.85239
20
-5.0306
11
3.86364
21
-5.0306
0
LINE
8
BLACK
6
CONTINUOUS
10
3.90301
20
-5.10934
11
3.90301
21
-5.0306
0
LINE
8
BLACK
6
CONTINUOUS
10
3.90301
20
-4.99123
11
3.89738
21
-4.99685
0
LINE
8
BLACK
6
CONTINUOUS
10
3.89738
20
-4.99685
11
3.90301
21
-5.00247
0
LINE
8
BLACK
6
CONTINUOUS
10
3.90301
20
-5.00247
11
3.90863
21
-4.99685
0
LINE
8
BLACK
6
CONTINUOUS
10
3.90863
20
-4.99685
11
3.90301
21
-4.99123
0
LINE
8
BLACK
6
CONTINUOUS
10
3.90301
20
-4.99123
11
3.90301
21
-5.00247
0
LINE
8
BLACK
6
CONTINUOUS
10
3.97612
20
-5.10934
11
3.96488
21
-5.10371
0
LINE
8
BLACK
6
CONTINUOUS
10
3.96488
20
-5.10371
11
3.95925
21
-5.09246
0
LINE
8
BLACK
6
CONTINUOUS
10
3.95925
20
-5.09246
11
3.95925
21
-4.99123
0
LINE
8
BLACK
6
CONTINUOUS
10
4.03799
20
-5.10934
11
4.02674
21
-5.10371
0
LINE
8
BLACK
6
CONTINUOUS
10
4.02674
20
-5.10371
11
4.02112
21
-5.09246
0
LINE
8
BLACK
6
CONTINUOUS
10
4.02112
20
-5.09246
11
4.02112
21
-4.99123
0
LINE
8
BLACK
6
CONTINUOUS
10
4.17298
20
-5.10934
11
4.17298
21
-4.99123
0
LINE
8
BLACK
6
CONTINUOUS
10
4.17298
20
-4.99123
11
4.21235
21
-5.07559
0
LINE
8
BLACK
6
CONTINUOUS
10
4.21235
20
-5.07559
11
4.25172
21
-4.99123
0
LINE
8
BLACK
6
CONTINUOUS
10
4.25172
20
-4.99123
11
4.25172
21
-5.10934
0
LINE
8
BLACK
6
CONTINUOUS
10
4.35858
20
-5.10934
11
4.35858
21
-5.04747
0
LINE
8
BLACK
6
CONTINUOUS
10
4.35858
20
-5.04747
11
4.35295
21
-5.03622
0
LINE
8
BLACK
6
CONTINUOUS
10
4.35295
20
-5.03622
11
4.3417
21
-5.0306
0
LINE
8
BLACK
6
CONTINUOUS
10
4.3417
20
-5.0306
11
4.31921
21
-5.0306
0
LINE
8
BLACK
6
CONTINUOUS
10
4.31921
20
-5.0306
11
4.30796
21
-5.03622
0
LINE
8
BLACK
6
CONTINUOUS
10
4.35858
20
-5.10371
11
4.34733
21
-5.10934
0
LINE
8
BLACK
6
CONTINUOUS
10
4.34733
20
-5.10934
11
4.31921
21
-5.10934
0
LINE
8
BLACK
6
CONTINUOUS
10
4.31921
20
-5.10934
11
4.30796
21
-5.10371
0
LINE
8
BLACK
6
CONTINUOUS
10
4.30796
20
-5.10371
11
4.30233
21
-5.09246
0
LINE
8
BLACK
6
CONTINUOUS
10
4.30233
20
-5.09246
11
4.30233
21
-5.08121
0
LINE
8
BLACK
6
CONTINUOUS
10
4.30233
20
-5.08121
11
4.30796
21
-5.06997
0
LINE
8
BLACK
6
CONTINUOUS
10
4.30796
20
-5.06997
11
4.31921
21
-5.06434
0
LINE
8
BLACK
6
CONTINUOUS
10
4.31921
20
-5.06434
11
4.34733
21
-5.06434
0
LINE
8
BLACK
6
CONTINUOUS
10
4.34733
20
-5.06434
11
4.35858
21
-5.05872
0
LINE
8
BLACK
6
CONTINUOUS
10
4.41482
20
-5.0306
11
4.41482
21
-5.14871
0
LINE
8
BLACK
6
CONTINUOUS
10
4.41482
20
-5.03622
11
4.42607
21
-5.0306
0
LINE
8
BLACK
6
CONTINUOUS
10
4.42607
20
-5.0306
11
4.44857
21
-5.0306
0
LINE
8
BLACK
6
CONTINUOUS
10
4.44857
20
-5.0306
11
4.45981
21
-5.03622
0
LINE
8
BLACK
6
CONTINUOUS
10
4.45981
20
-5.03622
11
4.46544
21
-5.04184
0
LINE
8
BLACK
6
CONTINUOUS
10
4.46544
20
-5.04184
11
4.47106
21
-5.05309
0
LINE
8
BLACK
6
CONTINUOUS
10
4.47106
20
-5.05309
11
4.47106
21
-5.08684
0
LINE
8
BLACK
6
CONTINUOUS
10
4.47106
20
-5.08684
11
4.46544
21
-5.09809
0
LINE
8
BLACK
6
CONTINUOUS
10
4.46544
20
-5.09809
11
4.45981
21
-5.10371
0
LINE
8
BLACK
6
CONTINUOUS
10
4.45981
20
-5.10371
11
4.44857
21
-5.10934
0
LINE
8
BLACK
6
CONTINUOUS
10
4.44857
20
-5.10934
11
4.42607
21
-5.10934
0
LINE
8
BLACK
6
CONTINUOUS
10
4.42607
20
-5.10934
11
4.41482
21
-5.10371
0
LINE
8
BLACK
6
CONTINUOUS
10
4.52168
20
-5.09809
11
4.52731
21
-5.10371
0
LINE
8
BLACK
6
CONTINUOUS
10
4.52731
20
-5.10371
11
4.52168
21
-5.10934
0
LINE
8
BLACK
6
CONTINUOUS
10
4.52168
20
-5.10934
11
4.51606
21
-5.10371
0
LINE
8
BLACK
6
CONTINUOUS
10
4.51606
20
-5.10371
11
4.52168
21
-5.09809
0
LINE
8
BLACK
6
CONTINUOUS
10
4.52168
20
-5.09809
11
4.52168
21
-5.10934
0
LINE
8
BLACK
6
CONTINUOUS
10
4.52168
20
-5.03622
11
4.52731
21
-5.04184
0
LINE
8
BLACK
6
CONTINUOUS
10
4.52731
20
-5.04184
11
4.52168
21
-5.04747
0
LINE
8
BLACK
6
CONTINUOUS
10
4.52168
20
-5.04747
11
4.51606
21
-5.04184
0
LINE
8
BLACK
6
CONTINUOUS
10
4.51606
20
-5.04184
11
4.52168
21
-5.03622
0
LINE
8
BLACK
6
CONTINUOUS
10
4.52168
20
-5.03622
11
4.52168
21
-5.04747
  0
ENDSEC
  0
EOF
