G04 #@! TF.GenerationSoftware,KiCad,Pcbnew,5.1.7-a382d34a8~87~ubuntu18.04.1*
G04 #@! TF.CreationDate,2021-01-18T17:29:04-05:00*
G04 #@! TF.ProjectId,Cree_XML_Driver,43726565-5f58-44d4-9c5f-447269766572,r0*
G04 #@! TF.SameCoordinates,Original*
G04 #@! TF.FileFunction,Soldermask,Bot*
G04 #@! TF.FilePolarity,Negative*
%FSLAX46Y46*%
G04 Gerber Fmt 4.6, Leading zero omitted, Abs format (unit mm)*
G04 Created by KiCad (PCBNEW 5.1.7-a382d34a8~87~ubuntu18.04.1) date 2021-01-18 17:29:04*
%MOMM*%
%LPD*%
G01*
G04 APERTURE LIST*
%ADD10O,1.801600X1.801600*%
%ADD11C,2.701600*%
%ADD12C,4.301600*%
G04 APERTURE END LIST*
D10*
G04 #@! TO.C,J102*
X157200000Y-114280000D03*
X157200000Y-111740000D03*
G36*
G01*
X156299200Y-110050000D02*
X156299200Y-108350000D01*
G75*
G02*
X156350000Y-108299200I50800J0D01*
G01*
X158050000Y-108299200D01*
G75*
G02*
X158100800Y-108350000I0J-50800D01*
G01*
X158100800Y-110050000D01*
G75*
G02*
X158050000Y-110100800I-50800J0D01*
G01*
X156350000Y-110100800D01*
G75*
G02*
X156299200Y-110050000I0J50800D01*
G01*
G37*
G04 #@! TD*
G04 #@! TO.C,D101*
G36*
G01*
X109408923Y-100751826D02*
X108683923Y-102007562D01*
G75*
G02*
X108614529Y-102026156I-43994J25400D01*
G01*
X106854765Y-101010156D01*
G75*
G02*
X106836171Y-100940762I25400J43994D01*
G01*
X107561171Y-99685026D01*
G75*
G02*
X107630565Y-99666432I43994J-25400D01*
G01*
X109390329Y-100682432D01*
G75*
G02*
X109408923Y-100751826I-25400J-43994D01*
G01*
G37*
G36*
G01*
X107983923Y-103219998D02*
X107258923Y-104475734D01*
G75*
G02*
X107189529Y-104494328I-43994J25400D01*
G01*
X105429765Y-103478328D01*
G75*
G02*
X105411171Y-103408934I25400J43994D01*
G01*
X106136171Y-102153198D01*
G75*
G02*
X106205565Y-102134604I43994J-25400D01*
G01*
X107965329Y-103150604D01*
G75*
G02*
X107983923Y-103219998I-25400J-43994D01*
G01*
G37*
G36*
G01*
X107258923Y-108920266D02*
X107983923Y-110176002D01*
G75*
G02*
X107965329Y-110245396I-43994J-25400D01*
G01*
X106205565Y-111261396D01*
G75*
G02*
X106136171Y-111242802I-25400J43994D01*
G01*
X105411171Y-109987066D01*
G75*
G02*
X105429765Y-109917672I43994J25400D01*
G01*
X107189529Y-108901672D01*
G75*
G02*
X107258923Y-108920266I25400J-43994D01*
G01*
G37*
G36*
G01*
X108683923Y-111388439D02*
X109408923Y-112644175D01*
G75*
G02*
X109390329Y-112713569I-43994J-25400D01*
G01*
X107630565Y-113729569D01*
G75*
G02*
X107561171Y-113710975I-25400J43994D01*
G01*
X106836171Y-112455239D01*
G75*
G02*
X106854765Y-112385845I43994J25400D01*
G01*
X108614529Y-111369845D01*
G75*
G02*
X108683923Y-111388439I25400J-43994D01*
G01*
G37*
G36*
G01*
X121407077Y-112644174D02*
X122132077Y-111388438D01*
G75*
G02*
X122201471Y-111369844I43994J-25400D01*
G01*
X123961235Y-112385844D01*
G75*
G02*
X123979829Y-112455238I-25400J-43994D01*
G01*
X123254829Y-113710974D01*
G75*
G02*
X123185435Y-113729568I-43994J25400D01*
G01*
X121425671Y-112713568D01*
G75*
G02*
X121407077Y-112644174I25400J43994D01*
G01*
G37*
G36*
G01*
X122832077Y-110176002D02*
X123557077Y-108920266D01*
G75*
G02*
X123626471Y-108901672I43994J-25400D01*
G01*
X125386235Y-109917672D01*
G75*
G02*
X125404829Y-109987066I-25400J-43994D01*
G01*
X124679829Y-111242802D01*
G75*
G02*
X124610435Y-111261396I-43994J25400D01*
G01*
X122850671Y-110245396D01*
G75*
G02*
X122832077Y-110176002I25400J43994D01*
G01*
G37*
G36*
G01*
X123557077Y-104475734D02*
X122832077Y-103219998D01*
G75*
G02*
X122850671Y-103150604I43994J25400D01*
G01*
X124610435Y-102134604D01*
G75*
G02*
X124679829Y-102153198I25400J-43994D01*
G01*
X125404829Y-103408934D01*
G75*
G02*
X125386235Y-103478328I-43994J-25400D01*
G01*
X123626471Y-104494328D01*
G75*
G02*
X123557077Y-104475734I-25400J43994D01*
G01*
G37*
G36*
G01*
X122132077Y-102007561D02*
X121407077Y-100751825D01*
G75*
G02*
X121425671Y-100682431I43994J25400D01*
G01*
X123185435Y-99666431D01*
G75*
G02*
X123254829Y-99685025I25400J-43994D01*
G01*
X123979829Y-100940761D01*
G75*
G02*
X123961235Y-101010155I-43994J-25400D01*
G01*
X122201471Y-102026155D01*
G75*
G02*
X122132077Y-102007561I-25400J43994D01*
G01*
G37*
G04 #@! TD*
G04 #@! TO.C,J101*
G36*
G01*
X154900000Y-103650800D02*
X152300000Y-103650800D01*
G75*
G02*
X152249200Y-103600000I0J50800D01*
G01*
X152249200Y-101000000D01*
G75*
G02*
X152300000Y-100949200I50800J0D01*
G01*
X154900000Y-100949200D01*
G75*
G02*
X154950800Y-101000000I0J-50800D01*
G01*
X154950800Y-103600000D01*
G75*
G02*
X154900000Y-103650800I-50800J0D01*
G01*
G37*
D11*
X159600000Y-102300000D03*
X156600000Y-97600000D03*
G04 #@! TD*
D12*
G04 #@! TO.C,MK101*
X95250000Y-93345000D03*
G04 #@! TD*
G04 #@! TO.C,MK102*
X163830000Y-93345000D03*
G04 #@! TD*
G04 #@! TO.C,MK103*
X163830000Y-121285000D03*
G04 #@! TD*
G04 #@! TO.C,MK104*
X95250000Y-121285000D03*
G04 #@! TD*
G04 #@! TO.C,TP101*
G36*
G01*
X151200000Y-112150800D02*
X150200000Y-112150800D01*
G75*
G02*
X150149200Y-112100000I0J50800D01*
G01*
X150149200Y-111100000D01*
G75*
G02*
X150200000Y-111049200I50800J0D01*
G01*
X151200000Y-111049200D01*
G75*
G02*
X151250800Y-111100000I0J-50800D01*
G01*
X151250800Y-112100000D01*
G75*
G02*
X151200000Y-112150800I-50800J0D01*
G01*
G37*
G04 #@! TD*
G04 #@! TO.C,JP101*
G36*
G01*
X93449200Y-101450000D02*
X93449200Y-99950000D01*
G75*
G02*
X93500000Y-99899200I50800J0D01*
G01*
X94500000Y-99899200D01*
G75*
G02*
X94550800Y-99950000I0J-50800D01*
G01*
X94550800Y-101450000D01*
G75*
G02*
X94500000Y-101500800I-50800J0D01*
G01*
X93500000Y-101500800D01*
G75*
G02*
X93449200Y-101450000I0J50800D01*
G01*
G37*
G36*
G01*
X96049200Y-101450000D02*
X96049200Y-99950000D01*
G75*
G02*
X96100000Y-99899200I50800J0D01*
G01*
X97100000Y-99899200D01*
G75*
G02*
X97150800Y-99950000I0J-50800D01*
G01*
X97150800Y-101450000D01*
G75*
G02*
X97100000Y-101500800I-50800J0D01*
G01*
X96100000Y-101500800D01*
G75*
G02*
X96049200Y-101450000I0J50800D01*
G01*
G37*
G36*
G01*
X94749200Y-101450000D02*
X94749200Y-99950000D01*
G75*
G02*
X94800000Y-99899200I50800J0D01*
G01*
X95800000Y-99899200D01*
G75*
G02*
X95850800Y-99950000I0J-50800D01*
G01*
X95850800Y-101450000D01*
G75*
G02*
X95800000Y-101500800I-50800J0D01*
G01*
X94800000Y-101500800D01*
G75*
G02*
X94749200Y-101450000I0J50800D01*
G01*
G37*
G04 #@! TD*
G04 #@! TO.C,JP102*
G36*
G01*
X94749200Y-103950000D02*
X94749200Y-102450000D01*
G75*
G02*
X94800000Y-102399200I50800J0D01*
G01*
X95800000Y-102399200D01*
G75*
G02*
X95850800Y-102450000I0J-50800D01*
G01*
X95850800Y-103950000D01*
G75*
G02*
X95800000Y-104000800I-50800J0D01*
G01*
X94800000Y-104000800D01*
G75*
G02*
X94749200Y-103950000I0J50800D01*
G01*
G37*
G36*
G01*
X96049200Y-103950000D02*
X96049200Y-102450000D01*
G75*
G02*
X96100000Y-102399200I50800J0D01*
G01*
X97100000Y-102399200D01*
G75*
G02*
X97150800Y-102450000I0J-50800D01*
G01*
X97150800Y-103950000D01*
G75*
G02*
X97100000Y-104000800I-50800J0D01*
G01*
X96100000Y-104000800D01*
G75*
G02*
X96049200Y-103950000I0J50800D01*
G01*
G37*
G36*
G01*
X93449200Y-103950000D02*
X93449200Y-102450000D01*
G75*
G02*
X93500000Y-102399200I50800J0D01*
G01*
X94500000Y-102399200D01*
G75*
G02*
X94550800Y-102450000I0J-50800D01*
G01*
X94550800Y-103950000D01*
G75*
G02*
X94500000Y-104000800I-50800J0D01*
G01*
X93500000Y-104000800D01*
G75*
G02*
X93449200Y-103950000I0J50800D01*
G01*
G37*
G04 #@! TD*
G04 #@! TO.C,JP103*
G36*
G01*
X93449200Y-106450000D02*
X93449200Y-104950000D01*
G75*
G02*
X93500000Y-104899200I50800J0D01*
G01*
X94500000Y-104899200D01*
G75*
G02*
X94550800Y-104950000I0J-50800D01*
G01*
X94550800Y-106450000D01*
G75*
G02*
X94500000Y-106500800I-50800J0D01*
G01*
X93500000Y-106500800D01*
G75*
G02*
X93449200Y-106450000I0J50800D01*
G01*
G37*
G36*
G01*
X96049200Y-106450000D02*
X96049200Y-104950000D01*
G75*
G02*
X96100000Y-104899200I50800J0D01*
G01*
X97100000Y-104899200D01*
G75*
G02*
X97150800Y-104950000I0J-50800D01*
G01*
X97150800Y-106450000D01*
G75*
G02*
X97100000Y-106500800I-50800J0D01*
G01*
X96100000Y-106500800D01*
G75*
G02*
X96049200Y-106450000I0J50800D01*
G01*
G37*
G36*
G01*
X94749200Y-106450000D02*
X94749200Y-104950000D01*
G75*
G02*
X94800000Y-104899200I50800J0D01*
G01*
X95800000Y-104899200D01*
G75*
G02*
X95850800Y-104950000I0J-50800D01*
G01*
X95850800Y-106450000D01*
G75*
G02*
X95800000Y-106500800I-50800J0D01*
G01*
X94800000Y-106500800D01*
G75*
G02*
X94749200Y-106450000I0J50800D01*
G01*
G37*
G04 #@! TD*
G04 #@! TO.C,JP104*
G36*
G01*
X95850800Y-107450000D02*
X95850800Y-108950000D01*
G75*
G02*
X95800000Y-109000800I-50800J0D01*
G01*
X94800000Y-109000800D01*
G75*
G02*
X94749200Y-108950000I0J50800D01*
G01*
X94749200Y-107450000D01*
G75*
G02*
X94800000Y-107399200I50800J0D01*
G01*
X95800000Y-107399200D01*
G75*
G02*
X95850800Y-107450000I0J-50800D01*
G01*
G37*
G36*
G01*
X94550800Y-107450000D02*
X94550800Y-108950000D01*
G75*
G02*
X94500000Y-109000800I-50800J0D01*
G01*
X93500000Y-109000800D01*
G75*
G02*
X93449200Y-108950000I0J50800D01*
G01*
X93449200Y-107450000D01*
G75*
G02*
X93500000Y-107399200I50800J0D01*
G01*
X94500000Y-107399200D01*
G75*
G02*
X94550800Y-107450000I0J-50800D01*
G01*
G37*
G36*
G01*
X97150800Y-107450000D02*
X97150800Y-108950000D01*
G75*
G02*
X97100000Y-109000800I-50800J0D01*
G01*
X96100000Y-109000800D01*
G75*
G02*
X96049200Y-108950000I0J50800D01*
G01*
X96049200Y-107450000D01*
G75*
G02*
X96100000Y-107399200I50800J0D01*
G01*
X97100000Y-107399200D01*
G75*
G02*
X97150800Y-107450000I0J-50800D01*
G01*
G37*
G04 #@! TD*
G04 #@! TO.C,J103*
G36*
G01*
X159974600Y-104974200D02*
X161225400Y-104974200D01*
G75*
G02*
X161450800Y-105199600I0J-225400D01*
G01*
X161450800Y-105650400D01*
G75*
G02*
X161225400Y-105875800I-225400J0D01*
G01*
X159974600Y-105875800D01*
G75*
G02*
X159749200Y-105650400I0J225400D01*
G01*
X159749200Y-105199600D01*
G75*
G02*
X159974600Y-104974200I225400J0D01*
G01*
G37*
G36*
G01*
X159974600Y-106224200D02*
X161225400Y-106224200D01*
G75*
G02*
X161450800Y-106449600I0J-225400D01*
G01*
X161450800Y-106900400D01*
G75*
G02*
X161225400Y-107125800I-225400J0D01*
G01*
X159974600Y-107125800D01*
G75*
G02*
X159749200Y-106900400I0J225400D01*
G01*
X159749200Y-106449600D01*
G75*
G02*
X159974600Y-106224200I225400J0D01*
G01*
G37*
G36*
G01*
X159974600Y-107474200D02*
X161225400Y-107474200D01*
G75*
G02*
X161450800Y-107699600I0J-225400D01*
G01*
X161450800Y-108150400D01*
G75*
G02*
X161225400Y-108375800I-225400J0D01*
G01*
X159974600Y-108375800D01*
G75*
G02*
X159749200Y-108150400I0J225400D01*
G01*
X159749200Y-107699600D01*
G75*
G02*
X159974600Y-107474200I225400J0D01*
G01*
G37*
G36*
G01*
X159974600Y-108724200D02*
X161225400Y-108724200D01*
G75*
G02*
X161450800Y-108949600I0J-225400D01*
G01*
X161450800Y-109400400D01*
G75*
G02*
X161225400Y-109625800I-225400J0D01*
G01*
X159974600Y-109625800D01*
G75*
G02*
X159749200Y-109400400I0J225400D01*
G01*
X159749200Y-108949600D01*
G75*
G02*
X159974600Y-108724200I225400J0D01*
G01*
G37*
G36*
G01*
X159974600Y-109974200D02*
X161225400Y-109974200D01*
G75*
G02*
X161450800Y-110199600I0J-225400D01*
G01*
X161450800Y-110650400D01*
G75*
G02*
X161225400Y-110875800I-225400J0D01*
G01*
X159974600Y-110875800D01*
G75*
G02*
X159749200Y-110650400I0J225400D01*
G01*
X159749200Y-110199600D01*
G75*
G02*
X159974600Y-109974200I225400J0D01*
G01*
G37*
G36*
G01*
X159974600Y-111224200D02*
X161225400Y-111224200D01*
G75*
G02*
X161450800Y-111449600I0J-225400D01*
G01*
X161450800Y-111900400D01*
G75*
G02*
X161225400Y-112125800I-225400J0D01*
G01*
X159974600Y-112125800D01*
G75*
G02*
X159749200Y-111900400I0J225400D01*
G01*
X159749200Y-111449600D01*
G75*
G02*
X159974600Y-111224200I225400J0D01*
G01*
G37*
G36*
G01*
X159974600Y-112474200D02*
X161225400Y-112474200D01*
G75*
G02*
X161450800Y-112699600I0J-225400D01*
G01*
X161450800Y-113150400D01*
G75*
G02*
X161225400Y-113375800I-225400J0D01*
G01*
X159974600Y-113375800D01*
G75*
G02*
X159749200Y-113150400I0J225400D01*
G01*
X159749200Y-112699600D01*
G75*
G02*
X159974600Y-112474200I225400J0D01*
G01*
G37*
G36*
G01*
X159974600Y-113724200D02*
X161225400Y-113724200D01*
G75*
G02*
X161450800Y-113949600I0J-225400D01*
G01*
X161450800Y-114400400D01*
G75*
G02*
X161225400Y-114625800I-225400J0D01*
G01*
X159974600Y-114625800D01*
G75*
G02*
X159749200Y-114400400I0J225400D01*
G01*
X159749200Y-113949600D01*
G75*
G02*
X159974600Y-113724200I225400J0D01*
G01*
G37*
G36*
G01*
X162211294Y-101774200D02*
X164788706Y-101774200D01*
G75*
G02*
X165050800Y-102036294I0J-262094D01*
G01*
X165050800Y-103713706D01*
G75*
G02*
X164788706Y-103975800I-262094J0D01*
G01*
X162211294Y-103975800D01*
G75*
G02*
X161949200Y-103713706I0J262094D01*
G01*
X161949200Y-102036294D01*
G75*
G02*
X162211294Y-101774200I262094J0D01*
G01*
G37*
G36*
G01*
X162211294Y-115624200D02*
X164788706Y-115624200D01*
G75*
G02*
X165050800Y-115886294I0J-262094D01*
G01*
X165050800Y-117563706D01*
G75*
G02*
X164788706Y-117825800I-262094J0D01*
G01*
X162211294Y-117825800D01*
G75*
G02*
X161949200Y-117563706I0J262094D01*
G01*
X161949200Y-115886294D01*
G75*
G02*
X162211294Y-115624200I262094J0D01*
G01*
G37*
G04 #@! TD*
M02*
