  0
SECTION
  2
HEADER
  9
$ANGBASE
  50
0.0
  9
$ANGDIR
  70
1
  9
$MEASUREMENT
  70
0
  0
ENDSEC
  0
SECTION
  2
TABLES
  0
TABLE
  2
LTYPE
  70
4
  0
LTYPE
  5
40F
  2
CONTINUOUS
  70
0
  3
Solid line
  72
65
  73
0
  40
0.0
  0
LTYPE
  5
410
  2
DASHDOT
 70
0
  3
Dash Dot ____ _ ____ _
 72
65
 73
4
 40
2.0
 49
1.25
 49
-0.25
 49
0.25
 49
-0.25
  0
LTYPE
  5
411
  2
DASHED
 70
0
  3
Dashed __ __ __ __ __
 72
65
 73
2
 40
0.75
 49
0.5
 49
-0.25
  0
LTYPE
  5
43B
  2
DOTTED
 70
0
  3
Dotted .  .  .  .
 72
65
 73
2
 40
0.2
 49
0.0
 49
-0.2
  0
ENDTAB
  0
TABLE
  2
STYLE
  70
4
  0
STYLE
  2
KICAD
  70
0
  40
0
  41
1
  42
1
  50
0
  71
0
  3
isocp.shx
  0
STYLE
  2
KICADB
  70
0
  40
0
  41
1
  42
1
  50
0
  71
0
  3
isocp.shx
  0
STYLE
  2
KICADI
  70
0
  40
0
  41
1
  42
1
  50
15
  71
0
  3
isocp.shx
  0
STYLE
  2
KICADBI
  70
0
  40
0
  41
1
  42
1
  50
15
  71
0
  3
isocp.shx
  0
ENDTAB
  0
TABLE
  2
LAYER
  70
1
  0
LAYER
  2
BLACK
  70
0
  62
7
  6
CONTINUOUS
  0
ENDTAB
  0
ENDSEC
  0
SECTION
  2
ENTITIES
0
LINE
8
BLACK
6
CONTINUOUS
10
6.6
20
-4.925
11
6.6
21
-3.525
0
LINE
8
BLACK
6
CONTINUOUS
10
3.6
20
-4.925
11
6.6
21
-4.925
0
LINE
8
BLACK
6
CONTINUOUS
10
3.6
20
-3.525
11
3.6
21
-4.925
0
LINE
8
BLACK
6
CONTINUOUS
10
6.6
20
-3.525
11
3.6
21
-3.525
0
LINE
8
BLACK
6
CONTINUOUS
10
3.68898
20
-4.41732
11
3.70472
21
-4.43307
0
LINE
8
BLACK
6
CONTINUOUS
10
3.70472
20
-4.41732
11
3.68898
21
-4.43307
0
LINE
8
BLACK
6
CONTINUOUS
10
3.72441
20
-3.88976
11
3.74016
21
-3.90551
0
LINE
8
BLACK
6
CONTINUOUS
10
3.74016
20
-3.88976
11
3.72441
21
-3.90551
0
LINE
8
BLACK
6
CONTINUOUS
10
3.74409
20
-4.05512
11
3.75984
21
-4.07087
0
LINE
8
BLACK
6
CONTINUOUS
10
3.75984
20
-4.05512
11
3.74409
21
-4.07087
0
LINE
8
BLACK
6
CONTINUOUS
10
3.74409
20
-4.16535
11
3.75984
21
-4.1811
0
LINE
8
BLACK
6
CONTINUOUS
10
3.75984
20
-4.16535
11
3.74409
21
-4.1811
0
LINE
8
BLACK
6
CONTINUOUS
10
3.74409
20
-4.41339
11
3.75984
21
-4.42913
0
LINE
8
BLACK
6
CONTINUOUS
10
3.75984
20
-4.41339
11
3.74409
21
-4.42913
0
LINE
8
BLACK
6
CONTINUOUS
10
3.79921
20
-4.53937
11
3.81496
21
-4.55512
0
LINE
8
BLACK
6
CONTINUOUS
10
3.81496
20
-4.53937
11
3.79921
21
-4.55512
0
LINE
8
BLACK
6
CONTINUOUS
10
3.8937
20
-3.93307
11
3.90945
21
-3.94882
0
LINE
8
BLACK
6
CONTINUOUS
10
3.90945
20
-3.93307
11
3.8937
21
-3.94882
0
LINE
8
BLACK
6
CONTINUOUS
10
3.8937
20
-3.9685
11
3.90945
21
-3.98425
0
LINE
8
BLACK
6
CONTINUOUS
10
3.90945
20
-3.9685
11
3.8937
21
-3.98425
0
LINE
8
BLACK
6
CONTINUOUS
10
3.8937
20
-4.37008
11
3.90945
21
-4.38583
0
LINE
8
BLACK
6
CONTINUOUS
10
3.90945
20
-4.37008
11
3.8937
21
-4.38583
0
LINE
8
BLACK
6
CONTINUOUS
10
3.8937
20
-4.40551
11
3.90945
21
-4.42126
0
LINE
8
BLACK
6
CONTINUOUS
10
3.90945
20
-4.40551
11
3.8937
21
-4.42126
0
LINE
8
BLACK
6
CONTINUOUS
10
3.89764
20
-4.09843
11
3.91339
21
-4.11417
0
LINE
8
BLACK
6
CONTINUOUS
10
3.91339
20
-4.09843
11
3.89764
21
-4.11417
0
LINE
8
BLACK
6
CONTINUOUS
10
3.89764
20
-4.13386
11
3.91339
21
-4.14961
0
LINE
8
BLACK
6
CONTINUOUS
10
3.91339
20
-4.13386
11
3.89764
21
-4.14961
0
LINE
8
BLACK
6
CONTINUOUS
10
3.89764
20
-4.54724
11
3.91339
21
-4.56299
0
LINE
8
BLACK
6
CONTINUOUS
10
3.91339
20
-4.54724
11
3.89764
21
-4.56299
0
LINE
8
BLACK
6
CONTINUOUS
10
3.89764
20
-4.58268
11
3.91339
21
-4.59843
0
LINE
8
BLACK
6
CONTINUOUS
10
3.91339
20
-4.58268
11
3.89764
21
-4.59843
0
LINE
8
BLACK
6
CONTINUOUS
10
3.93701
20
-3.93307
11
3.95276
21
-3.94882
0
LINE
8
BLACK
6
CONTINUOUS
10
3.95276
20
-3.93307
11
3.93701
21
-3.94882
0
LINE
8
BLACK
6
CONTINUOUS
10
3.93701
20
-3.9685
11
3.95276
21
-3.98425
0
LINE
8
BLACK
6
CONTINUOUS
10
3.95276
20
-3.9685
11
3.93701
21
-3.98425
0
LINE
8
BLACK
6
CONTINUOUS
10
3.93701
20
-4.37008
11
3.95276
21
-4.38583
0
LINE
8
BLACK
6
CONTINUOUS
10
3.95276
20
-4.37008
11
3.93701
21
-4.38583
0
LINE
8
BLACK
6
CONTINUOUS
10
3.93701
20
-4.40551
11
3.95276
21
-4.42126
0
LINE
8
BLACK
6
CONTINUOUS
10
3.95276
20
-4.40551
11
3.93701
21
-4.42126
0
LINE
8
BLACK
6
CONTINUOUS
10
3.94094
20
-4.09843
11
3.95669
21
-4.11417
0
LINE
8
BLACK
6
CONTINUOUS
10
3.95669
20
-4.09843
11
3.94094
21
-4.11417
0
LINE
8
BLACK
6
CONTINUOUS
10
3.94094
20
-4.13386
11
3.95669
21
-4.14961
0
LINE
8
BLACK
6
CONTINUOUS
10
3.95669
20
-4.13386
11
3.94094
21
-4.14961
0
LINE
8
BLACK
6
CONTINUOUS
10
3.94094
20
-4.54724
11
3.95669
21
-4.56299
0
LINE
8
BLACK
6
CONTINUOUS
10
3.95669
20
-4.54724
11
3.94094
21
-4.56299
0
LINE
8
BLACK
6
CONTINUOUS
10
3.94094
20
-4.58268
11
3.95669
21
-4.59843
0
LINE
8
BLACK
6
CONTINUOUS
10
3.95669
20
-4.58268
11
3.94094
21
-4.59843
0
LINE
8
BLACK
6
CONTINUOUS
10
4.02756
20
-3.88583
11
4.04331
21
-3.90157
0
LINE
8
BLACK
6
CONTINUOUS
10
4.04331
20
-3.88583
11
4.02756
21
-3.90157
0
LINE
8
BLACK
6
CONTINUOUS
10
4.0315
20
-4.33071
11
4.04724
21
-4.34646
0
LINE
8
BLACK
6
CONTINUOUS
10
4.04724
20
-4.33071
11
4.0315
21
-4.34646
0
LINE
8
BLACK
6
CONTINUOUS
10
4.03543
20
-4.50787
11
4.05118
21
-4.52362
0
LINE
8
BLACK
6
CONTINUOUS
10
4.05118
20
-4.50787
11
4.03543
21
-4.52362
0
LINE
8
BLACK
6
CONTINUOUS
10
4.03543
20
-4.05905
11
4.05118
21
-4.0748
0
LINE
8
BLACK
6
CONTINUOUS
10
4.05118
20
-4.05905
11
4.03543
21
-4.0748
0
LINE
8
BLACK
6
CONTINUOUS
10
4.29213
20
-4.66063
11
4.30787
21
-4.67638
0
LINE
8
BLACK
6
CONTINUOUS
10
4.30787
20
-4.66063
11
4.29213
21
-4.67638
0
LINE
8
BLACK
6
CONTINUOUS
10
4.39213
20
-4.66063
11
4.40787
21
-4.67638
0
LINE
8
BLACK
6
CONTINUOUS
10
4.40787
20
-4.66063
11
4.39213
21
-4.67638
0
LINE
8
BLACK
6
CONTINUOUS
10
4.49213
20
-4.66063
11
4.50787
21
-4.67638
0
LINE
8
BLACK
6
CONTINUOUS
10
4.50787
20
-4.66063
11
4.49213
21
-4.67638
0
LINE
8
BLACK
6
CONTINUOUS
10
4.59213
20
-4.66063
11
4.60787
21
-4.67638
0
LINE
8
BLACK
6
CONTINUOUS
10
4.60787
20
-4.66063
11
4.59213
21
-4.67638
0
LINE
8
BLACK
6
CONTINUOUS
10
4.69213
20
-4.66063
11
4.70787
21
-4.67638
0
LINE
8
BLACK
6
CONTINUOUS
10
4.70787
20
-4.66063
11
4.69213
21
-4.67638
0
LINE
8
BLACK
6
CONTINUOUS
10
4.79213
20
-4.66063
11
4.80787
21
-4.67638
0
LINE
8
BLACK
6
CONTINUOUS
10
4.80787
20
-4.66063
11
4.79213
21
-4.67638
0
LINE
8
BLACK
6
CONTINUOUS
10
5.03874
20
-3.94205
11
5.05449
21
-3.9578
0
LINE
8
BLACK
6
CONTINUOUS
10
5.05449
20
-3.94205
11
5.03874
21
-3.9578
0
LINE
8
BLACK
6
CONTINUOUS
10
5.03874
20
-4.5326
11
5.05449
21
-4.54835
0
LINE
8
BLACK
6
CONTINUOUS
10
5.05449
20
-4.5326
11
5.03874
21
-4.54835
0
LINE
8
BLACK
6
CONTINUOUS
10
5.03937
20
-3.64677
11
5.05512
21
-3.66252
0
LINE
8
BLACK
6
CONTINUOUS
10
5.05512
20
-3.64677
11
5.03937
21
-3.66252
0
LINE
8
BLACK
6
CONTINUOUS
10
5.03937
20
-4.23732
11
5.05512
21
-4.25307
0
LINE
8
BLACK
6
CONTINUOUS
10
5.05512
20
-4.23732
11
5.03937
21
-4.25307
0
LINE
8
BLACK
6
CONTINUOUS
10
5.28874
20
-3.94205
11
5.30449
21
-3.9578
0
LINE
8
BLACK
6
CONTINUOUS
10
5.30449
20
-3.94205
11
5.28874
21
-3.9578
0
LINE
8
BLACK
6
CONTINUOUS
10
5.28874
20
-4.5326
11
5.30449
21
-4.54835
0
LINE
8
BLACK
6
CONTINUOUS
10
5.30449
20
-4.5326
11
5.28874
21
-4.54835
0
LINE
8
BLACK
6
CONTINUOUS
10
5.28937
20
-3.64677
11
5.30512
21
-3.66252
0
LINE
8
BLACK
6
CONTINUOUS
10
5.30512
20
-3.64677
11
5.28937
21
-3.66252
0
LINE
8
BLACK
6
CONTINUOUS
10
5.28937
20
-4.23732
11
5.30512
21
-4.25307
0
LINE
8
BLACK
6
CONTINUOUS
10
5.30512
20
-4.23732
11
5.28937
21
-4.25307
0
LINE
8
BLACK
6
CONTINUOUS
10
5.32614
20
-3.94205
11
5.34189
21
-3.9578
0
LINE
8
BLACK
6
CONTINUOUS
10
5.34189
20
-3.94205
11
5.32614
21
-3.9578
0
LINE
8
BLACK
6
CONTINUOUS
10
5.32614
20
-4.5326
11
5.34189
21
-4.54835
0
LINE
8
BLACK
6
CONTINUOUS
10
5.34189
20
-4.5326
11
5.32614
21
-4.54835
0
LINE
8
BLACK
6
CONTINUOUS
10
5.32677
20
-3.64677
11
5.34252
21
-3.66252
0
LINE
8
BLACK
6
CONTINUOUS
10
5.34252
20
-3.64677
11
5.32677
21
-3.66252
0
LINE
8
BLACK
6
CONTINUOUS
10
5.32677
20
-4.23732
11
5.34252
21
-4.25307
0
LINE
8
BLACK
6
CONTINUOUS
10
5.34252
20
-4.23732
11
5.32677
21
-4.25307
0
LINE
8
BLACK
6
CONTINUOUS
10
5.36158
20
-4.15035
11
5.37732
21
-4.1661
0
LINE
8
BLACK
6
CONTINUOUS
10
5.37732
20
-4.15035
11
5.36158
21
-4.1661
0
LINE
8
BLACK
6
CONTINUOUS
10
5.36158
20
-4.74091
11
5.37732
21
-4.75665
0
LINE
8
BLACK
6
CONTINUOUS
10
5.37732
20
-4.74091
11
5.36158
21
-4.75665
0
LINE
8
BLACK
6
CONTINUOUS
10
5.3622
20
-3.85508
11
5.37795
21
-3.87083
0
LINE
8
BLACK
6
CONTINUOUS
10
5.37795
20
-3.85508
11
5.3622
21
-3.87083
0
LINE
8
BLACK
6
CONTINUOUS
10
5.3622
20
-4.44563
11
5.37795
21
-4.46138
0
LINE
8
BLACK
6
CONTINUOUS
10
5.37795
20
-4.44563
11
5.3622
21
-4.46138
0
LINE
8
BLACK
6
CONTINUOUS
10
5.36354
20
-3.94205
11
5.37929
21
-3.9578
0
LINE
8
BLACK
6
CONTINUOUS
10
5.37929
20
-3.94205
11
5.36354
21
-3.9578
0
LINE
8
BLACK
6
CONTINUOUS
10
5.36354
20
-4.5326
11
5.37929
21
-4.54835
0
LINE
8
BLACK
6
CONTINUOUS
10
5.37929
20
-4.5326
11
5.36354
21
-4.54835
0
LINE
8
BLACK
6
CONTINUOUS
10
5.36417
20
-3.64677
11
5.37992
21
-3.66252
0
LINE
8
BLACK
6
CONTINUOUS
10
5.37992
20
-3.64677
11
5.36417
21
-3.66252
0
LINE
8
BLACK
6
CONTINUOUS
10
5.36417
20
-4.23732
11
5.37992
21
-4.25307
0
LINE
8
BLACK
6
CONTINUOUS
10
5.37992
20
-4.23732
11
5.36417
21
-4.25307
0
LINE
8
BLACK
6
CONTINUOUS
10
5.39382
20
-3.99138
11
5.40957
21
-4.00713
0
LINE
8
BLACK
6
CONTINUOUS
10
5.40957
20
-3.99138
11
5.39382
21
-4.00713
0
LINE
8
BLACK
6
CONTINUOUS
10
5.39382
20
-4.58193
11
5.40957
21
-4.59768
0
LINE
8
BLACK
6
CONTINUOUS
10
5.40957
20
-4.58193
11
5.39382
21
-4.59768
0
LINE
8
BLACK
6
CONTINUOUS
10
5.39445
20
-3.6961
11
5.4102
21
-3.71185
0
LINE
8
BLACK
6
CONTINUOUS
10
5.4102
20
-3.6961
11
5.39445
21
-3.71185
0
LINE
8
BLACK
6
CONTINUOUS
10
5.39445
20
-4.28665
11
5.4102
21
-4.3024
0
LINE
8
BLACK
6
CONTINUOUS
10
5.4102
20
-4.28665
11
5.39445
21
-4.3024
0
LINE
8
BLACK
6
CONTINUOUS
10
5.54232
20
-4.40258
11
5.55807
21
-4.41832
0
LINE
8
BLACK
6
CONTINUOUS
10
5.55807
20
-4.40258
11
5.54232
21
-4.41832
0
LINE
8
BLACK
6
CONTINUOUS
10
5.54724
20
-4.62992
11
5.56299
21
-4.64567
0
LINE
8
BLACK
6
CONTINUOUS
10
5.56299
20
-4.62992
11
5.54724
21
-4.64567
0
LINE
8
BLACK
6
CONTINUOUS
10
5.55118
20
-3.85827
11
5.56693
21
-3.87402
0
LINE
8
BLACK
6
CONTINUOUS
10
5.56693
20
-3.85827
11
5.55118
21
-3.87402
0
LINE
8
BLACK
6
CONTINUOUS
10
5.55118
20
-3.75984
11
5.56693
21
-3.77559
0
LINE
8
BLACK
6
CONTINUOUS
10
5.56693
20
-3.75984
11
5.55118
21
-3.77559
0
LINE
8
BLACK
6
CONTINUOUS
10
5.55118
20
-3.95669
11
5.56693
21
-3.97244
0
LINE
8
BLACK
6
CONTINUOUS
10
5.56693
20
-3.95669
11
5.55118
21
-3.97244
0
LINE
8
BLACK
6
CONTINUOUS
10
5.55118
20
-4.03618
11
5.56693
21
-4.05193
0
LINE
8
BLACK
6
CONTINUOUS
10
5.56693
20
-4.03618
11
5.55118
21
-4.05193
0
LINE
8
BLACK
6
CONTINUOUS
10
5.58268
20
-3.70866
11
5.59843
21
-3.72441
0
LINE
8
BLACK
6
CONTINUOUS
10
5.59843
20
-3.70866
11
5.58268
21
-3.72441
0
LINE
8
BLACK
6
CONTINUOUS
10
5.58268
20
-3.80827
11
5.59843
21
-3.82402
0
LINE
8
BLACK
6
CONTINUOUS
10
5.59843
20
-3.80827
11
5.58268
21
-3.82402
0
LINE
8
BLACK
6
CONTINUOUS
10
5.58268
20
-3.90551
11
5.59843
21
-3.92126
0
LINE
8
BLACK
6
CONTINUOUS
10
5.59843
20
-3.90551
11
5.58268
21
-3.92126
0
LINE
8
BLACK
6
CONTINUOUS
10
5.69685
20
-4.35039
11
5.7126
21
-4.36614
0
LINE
8
BLACK
6
CONTINUOUS
10
5.7126
20
-4.35039
11
5.69685
21
-4.36614
0
LINE
8
BLACK
6
CONTINUOUS
10
5.69685
20
-4.39764
11
5.7126
21
-4.41339
0
LINE
8
BLACK
6
CONTINUOUS
10
5.7126
20
-4.39764
11
5.69685
21
-4.41339
0
LINE
8
BLACK
6
CONTINUOUS
10
5.69685
20
-4.48031
11
5.7126
21
-4.49606
0
LINE
8
BLACK
6
CONTINUOUS
10
5.7126
20
-4.48031
11
5.69685
21
-4.49606
0
LINE
8
BLACK
6
CONTINUOUS
10
5.69685
20
-4.52756
11
5.7126
21
-4.54331
0
LINE
8
BLACK
6
CONTINUOUS
10
5.7126
20
-4.52756
11
5.69685
21
-4.54331
0
LINE
8
BLACK
6
CONTINUOUS
10
5.69685
20
-4.57874
11
5.7126
21
-4.59449
0
LINE
8
BLACK
6
CONTINUOUS
10
5.7126
20
-4.57874
11
5.69685
21
-4.59449
0
LINE
8
BLACK
6
CONTINUOUS
10
5.69685
20
-4.30315
11
5.7126
21
-4.3189
0
LINE
8
BLACK
6
CONTINUOUS
10
5.7126
20
-4.30315
11
5.69685
21
-4.3189
0
LINE
8
BLACK
6
CONTINUOUS
10
5.72441
20
-3.99213
11
5.74016
21
-4.00787
0
LINE
8
BLACK
6
CONTINUOUS
10
5.74016
20
-3.99213
11
5.72441
21
-4.00787
0
LINE
8
BLACK
6
CONTINUOUS
10
5.75984
20
-3.75591
11
5.77559
21
-3.77165
0
LINE
8
BLACK
6
CONTINUOUS
10
5.77559
20
-3.75591
11
5.75984
21
-3.77165
0
LINE
8
BLACK
6
CONTINUOUS
10
5.76378
20
-3.85433
11
5.77953
21
-3.87008
0
LINE
8
BLACK
6
CONTINUOUS
10
5.77953
20
-3.85433
11
5.76378
21
-3.87008
0
LINE
8
BLACK
6
CONTINUOUS
10
5.76378
20
-3.95669
11
5.77953
21
-3.97244
0
LINE
8
BLACK
6
CONTINUOUS
10
5.77953
20
-3.95669
11
5.76378
21
-3.97244
0
LINE
8
BLACK
6
CONTINUOUS
10
5.87697
20
-4.14219
11
5.89272
21
-4.15794
0
LINE
8
BLACK
6
CONTINUOUS
10
5.89272
20
-4.14219
11
5.87697
21
-4.15794
0
LINE
8
BLACK
6
CONTINUOUS
10
5.88189
20
-4.52756
11
5.89764
21
-4.54331
0
LINE
8
BLACK
6
CONTINUOUS
10
5.89764
20
-4.52756
11
5.88189
21
-4.54331
0
LINE
8
BLACK
6
CONTINUOUS
10
5.88976
20
-4.69291
11
5.90551
21
-4.70866
0
LINE
8
BLACK
6
CONTINUOUS
10
5.90551
20
-4.69291
11
5.88976
21
-4.70866
0
LINE
8
BLACK
6
CONTINUOUS
10
5.88976
20
-4.75591
11
5.90551
21
-4.77165
0
LINE
8
BLACK
6
CONTINUOUS
10
5.90551
20
-4.75591
11
5.88976
21
-4.77165
0
LINE
8
BLACK
6
CONTINUOUS
10
5.88976
20
-4.62992
11
5.90551
21
-4.64567
0
LINE
8
BLACK
6
CONTINUOUS
10
5.90551
20
-4.62992
11
5.88976
21
-4.64567
0
LINE
8
BLACK
6
CONTINUOUS
10
5.9185
20
-3.80827
11
5.93425
21
-3.82402
0
LINE
8
BLACK
6
CONTINUOUS
10
5.93425
20
-3.80827
11
5.9185
21
-3.82402
0
LINE
8
BLACK
6
CONTINUOUS
10
5.9252
20
-4.52756
11
5.94094
21
-4.54331
0
LINE
8
BLACK
6
CONTINUOUS
10
5.94094
20
-4.52756
11
5.9252
21
-4.54331
0
LINE
8
BLACK
6
CONTINUOUS
10
5.95276
20
-4.20472
11
5.9685
21
-4.22047
0
LINE
8
BLACK
6
CONTINUOUS
10
5.9685
20
-4.20472
11
5.95276
21
-4.22047
0
LINE
8
BLACK
6
CONTINUOUS
10
5.95374
20
-3.90551
11
5.96949
21
-3.92126
0
LINE
8
BLACK
6
CONTINUOUS
10
5.96949
20
-3.90551
11
5.95374
21
-3.92126
0
LINE
8
BLACK
6
CONTINUOUS
10
5.9685
20
-4.52756
11
5.98425
21
-4.54331
0
LINE
8
BLACK
6
CONTINUOUS
10
5.98425
20
-4.52756
11
5.9685
21
-4.54331
0
LINE
8
BLACK
6
CONTINUOUS
10
5.97638
20
-4.15748
11
5.99213
21
-4.17323
0
LINE
8
BLACK
6
CONTINUOUS
10
5.99213
20
-4.15748
11
5.97638
21
-4.17323
0
CIRCLE
8
BLACK
10
5.93307
20
-4.3937
40
0.00984252
0
LINE
8
BLACK
6
CONTINUOUS
10
6.18898
20
-4.27953
11
6.18898
21
-4.3189
0
LINE
8
BLACK
6
CONTINUOUS
10
6.16929
20
-4.29921
11
6.20866
21
-4.29921
0
LINE
8
BLACK
6
CONTINUOUS
10
6.18898
20
-4.37953
11
6.18898
21
-4.4189
0
LINE
8
BLACK
6
CONTINUOUS
10
6.16929
20
-4.39921
11
6.20866
21
-4.39921
0
LINE
8
BLACK
6
CONTINUOUS
10
6.18898
20
-4.47953
11
6.18898
21
-4.5189
0
LINE
8
BLACK
6
CONTINUOUS
10
6.16929
20
-4.49921
11
6.20866
21
-4.49921
0
LINE
8
BLACK
6
CONTINUOUS
10
4.23215
20
-4.09164
11
4.23215
21
-4.06336
0
LINE
8
BLACK
6
CONTINUOUS
10
4.23215
20
-4.06336
11
4.20387
21
-4.06336
0
LINE
8
BLACK
6
CONTINUOUS
10
4.20387
20
-4.06336
11
4.20387
21
-4.09164
0
LINE
8
BLACK
6
CONTINUOUS
10
4.20387
20
-4.09164
11
4.23215
21
-4.09164
0
LINE
8
BLACK
6
CONTINUOUS
10
4.23215
20
-4.33806
11
4.23215
21
-4.30978
0
LINE
8
BLACK
6
CONTINUOUS
10
4.23215
20
-4.30978
11
4.20387
21
-4.30978
0
LINE
8
BLACK
6
CONTINUOUS
10
4.20387
20
-4.30978
11
4.20387
21
-4.33806
0
LINE
8
BLACK
6
CONTINUOUS
10
4.20387
20
-4.33806
11
4.23215
21
-4.33806
0
LINE
8
BLACK
6
CONTINUOUS
10
4.28826
20
-3.99447
11
4.28826
21
-3.96618
0
LINE
8
BLACK
6
CONTINUOUS
10
4.28826
20
-3.96618
11
4.25997
21
-3.96618
0
LINE
8
BLACK
6
CONTINUOUS
10
4.25997
20
-3.96618
11
4.25997
21
-3.99447
0
LINE
8
BLACK
6
CONTINUOUS
10
4.25997
20
-3.99447
11
4.28826
21
-3.99447
0
LINE
8
BLACK
6
CONTINUOUS
10
4.28826
20
-4.43523
11
4.28826
21
-4.40695
0
LINE
8
BLACK
6
CONTINUOUS
10
4.28826
20
-4.40695
11
4.25997
21
-4.40695
0
LINE
8
BLACK
6
CONTINUOUS
10
4.25997
20
-4.40695
11
4.25997
21
-4.43523
0
LINE
8
BLACK
6
CONTINUOUS
10
4.25997
20
-4.43523
11
4.28826
21
-4.43523
0
LINE
8
BLACK
6
CONTINUOUS
10
4.82727
20
-3.99447
11
4.82727
21
-3.96618
0
LINE
8
BLACK
6
CONTINUOUS
10
4.82727
20
-3.96618
11
4.79899
21
-3.96618
0
LINE
8
BLACK
6
CONTINUOUS
10
4.79899
20
-3.96618
11
4.79899
21
-3.99447
0
LINE
8
BLACK
6
CONTINUOUS
10
4.79899
20
-3.99447
11
4.82727
21
-3.99447
0
LINE
8
BLACK
6
CONTINUOUS
10
4.82727
20
-4.43523
11
4.82727
21
-4.40695
0
LINE
8
BLACK
6
CONTINUOUS
10
4.82727
20
-4.40695
11
4.79899
21
-4.40695
0
LINE
8
BLACK
6
CONTINUOUS
10
4.79899
20
-4.40695
11
4.79899
21
-4.43523
0
LINE
8
BLACK
6
CONTINUOUS
10
4.79899
20
-4.43523
11
4.82727
21
-4.43523
0
LINE
8
BLACK
6
CONTINUOUS
10
4.88338
20
-4.09164
11
4.88338
21
-4.06336
0
LINE
8
BLACK
6
CONTINUOUS
10
4.88338
20
-4.06336
11
4.85509
21
-4.06336
0
LINE
8
BLACK
6
CONTINUOUS
10
4.85509
20
-4.06336
11
4.85509
21
-4.09164
0
LINE
8
BLACK
6
CONTINUOUS
10
4.85509
20
-4.09164
11
4.88338
21
-4.09164
0
LINE
8
BLACK
6
CONTINUOUS
10
4.88338
20
-4.33806
11
4.88338
21
-4.30978
0
LINE
8
BLACK
6
CONTINUOUS
10
4.88338
20
-4.30978
11
4.85509
21
-4.30978
0
LINE
8
BLACK
6
CONTINUOUS
10
4.85509
20
-4.30978
11
4.85509
21
-4.33806
0
LINE
8
BLACK
6
CONTINUOUS
10
4.85509
20
-4.33806
11
4.88338
21
-4.33806
0
LINE
8
BLACK
6
CONTINUOUS
10
6.04724
20
-4.05906
11
6.07874
21
-4.02756
0
LINE
8
BLACK
6
CONTINUOUS
10
6.07874
20
-4.02756
11
6.04724
21
-3.99606
0
LINE
8
BLACK
6
CONTINUOUS
10
6.04724
20
-3.99606
11
6.01575
21
-4.02756
0
LINE
8
BLACK
6
CONTINUOUS
10
6.01575
20
-4.02756
11
6.04724
21
-4.05906
0
LINE
8
BLACK
6
CONTINUOUS
10
6.16535
20
-3.87402
11
6.19685
21
-3.84252
0
LINE
8
BLACK
6
CONTINUOUS
10
6.19685
20
-3.84252
11
6.16535
21
-3.81102
0
LINE
8
BLACK
6
CONTINUOUS
10
6.16535
20
-3.81102
11
6.13386
21
-3.84252
0
LINE
8
BLACK
6
CONTINUOUS
10
6.13386
20
-3.84252
11
6.16535
21
-3.87402
0
LINE
8
BLACK
6
CONTINUOUS
10
6.28346
20
-4.05906
11
6.31496
21
-4.02756
0
LINE
8
BLACK
6
CONTINUOUS
10
6.31496
20
-4.02756
11
6.28346
21
-3.99606
0
LINE
8
BLACK
6
CONTINUOUS
10
6.28346
20
-3.99606
11
6.25197
21
-4.02756
0
LINE
8
BLACK
6
CONTINUOUS
10
6.25197
20
-4.02756
11
6.28346
21
-4.05906
0
LINE
8
BLACK
6
CONTINUOUS
10
3.68701
20
-3.61201
11
3.81299
21
-3.73799
0
LINE
8
BLACK
6
CONTINUOUS
10
3.81299
20
-3.61201
11
3.68701
21
-3.73799
0
CIRCLE
8
BLACK
10
3.75
20
-3.675
40
0.0629921
0
LINE
8
BLACK
6
CONTINUOUS
10
6.38701
20
-4.71201
11
6.51299
21
-4.83799
0
LINE
8
BLACK
6
CONTINUOUS
10
6.51299
20
-4.71201
11
6.38701
21
-4.83799
0
CIRCLE
8
BLACK
10
6.45
20
-4.775
40
0.0629921
0
LINE
8
BLACK
6
CONTINUOUS
10
3.68701
20
-4.71201
11
3.81299
21
-4.83799
0
LINE
8
BLACK
6
CONTINUOUS
10
3.81299
20
-4.71201
11
3.68701
21
-4.83799
0
CIRCLE
8
BLACK
10
3.75
20
-4.775
40
0.0629921
0
LINE
8
BLACK
6
CONTINUOUS
10
6.38701
20
-3.61201
11
6.51299
21
-3.73799
0
LINE
8
BLACK
6
CONTINUOUS
10
6.51299
20
-3.61201
11
6.38701
21
-3.73799
0
CIRCLE
8
BLACK
10
6.45
20
-3.675
40
0.0629921
0
LINE
8
BLACK
6
CONTINUOUS
10
3.71178
20
-5.10934
11
3.71178
21
-4.99123
0
LINE
8
BLACK
6
CONTINUOUS
10
3.71178
20
-4.99123
11
3.7399
21
-4.99123
0
LINE
8
BLACK
6
CONTINUOUS
10
3.7399
20
-4.99123
11
3.75678
21
-4.99685
0
LINE
8
BLACK
6
CONTINUOUS
10
3.75678
20
-4.99685
11
3.76803
21
-5.0081
0
LINE
8
BLACK
6
CONTINUOUS
10
3.76803
20
-5.0081
11
3.77365
21
-5.01935
0
LINE
8
BLACK
6
CONTINUOUS
10
3.77365
20
-5.01935
11
3.77927
21
-5.04184
0
LINE
8
BLACK
6
CONTINUOUS
10
3.77927
20
-5.04184
11
3.77927
21
-5.05872
0
LINE
8
BLACK
6
CONTINUOUS
10
3.77927
20
-5.05872
11
3.77365
21
-5.08121
0
LINE
8
BLACK
6
CONTINUOUS
10
3.77365
20
-5.08121
11
3.76803
21
-5.09246
0
LINE
8
BLACK
6
CONTINUOUS
10
3.76803
20
-5.09246
11
3.75678
21
-5.10371
0
LINE
8
BLACK
6
CONTINUOUS
10
3.75678
20
-5.10371
11
3.7399
21
-5.10934
0
LINE
8
BLACK
6
CONTINUOUS
10
3.7399
20
-5.10934
11
3.71178
21
-5.10934
0
LINE
8
BLACK
6
CONTINUOUS
10
3.82989
20
-5.10934
11
3.82989
21
-5.0306
0
LINE
8
BLACK
6
CONTINUOUS
10
3.82989
20
-5.05309
11
3.83552
21
-5.04184
0
LINE
8
BLACK
6
CONTINUOUS
10
3.83552
20
-5.04184
11
3.84114
21
-5.03622
0
LINE
8
BLACK
6
CONTINUOUS
10
3.84114
20
-5.03622
11
3.85239
21
-5.0306
0
LINE
8
BLACK
6
CONTINUOUS
10
3.85239
20
-5.0306
11
3.86364
21
-5.0306
0
LINE
8
BLACK
6
CONTINUOUS
10
3.90301
20
-5.10934
11
3.90301
21
-5.0306
0
LINE
8
BLACK
6
CONTINUOUS
10
3.90301
20
-4.99123
11
3.89738
21
-4.99685
0
LINE
8
BLACK
6
CONTINUOUS
10
3.89738
20
-4.99685
11
3.90301
21
-5.00247
0
LINE
8
BLACK
6
CONTINUOUS
10
3.90301
20
-5.00247
11
3.90863
21
-4.99685
0
LINE
8
BLACK
6
CONTINUOUS
10
3.90863
20
-4.99685
11
3.90301
21
-4.99123
0
LINE
8
BLACK
6
CONTINUOUS
10
3.90301
20
-4.99123
11
3.90301
21
-5.00247
0
LINE
8
BLACK
6
CONTINUOUS
10
3.97612
20
-5.10934
11
3.96488
21
-5.10371
0
LINE
8
BLACK
6
CONTINUOUS
10
3.96488
20
-5.10371
11
3.95925
21
-5.09246
0
LINE
8
BLACK
6
CONTINUOUS
10
3.95925
20
-5.09246
11
3.95925
21
-4.99123
0
LINE
8
BLACK
6
CONTINUOUS
10
4.03799
20
-5.10934
11
4.02674
21
-5.10371
0
LINE
8
BLACK
6
CONTINUOUS
10
4.02674
20
-5.10371
11
4.02112
21
-5.09246
0
LINE
8
BLACK
6
CONTINUOUS
10
4.02112
20
-5.09246
11
4.02112
21
-4.99123
0
LINE
8
BLACK
6
CONTINUOUS
10
4.17298
20
-5.10934
11
4.17298
21
-4.99123
0
LINE
8
BLACK
6
CONTINUOUS
10
4.17298
20
-4.99123
11
4.21235
21
-5.07559
0
LINE
8
BLACK
6
CONTINUOUS
10
4.21235
20
-5.07559
11
4.25172
21
-4.99123
0
LINE
8
BLACK
6
CONTINUOUS
10
4.25172
20
-4.99123
11
4.25172
21
-5.10934
0
LINE
8
BLACK
6
CONTINUOUS
10
4.35858
20
-5.10934
11
4.35858
21
-5.04747
0
LINE
8
BLACK
6
CONTINUOUS
10
4.35858
20
-5.04747
11
4.35295
21
-5.03622
0
LINE
8
BLACK
6
CONTINUOUS
10
4.35295
20
-5.03622
11
4.3417
21
-5.0306
0
LINE
8
BLACK
6
CONTINUOUS
10
4.3417
20
-5.0306
11
4.31921
21
-5.0306
0
LINE
8
BLACK
6
CONTINUOUS
10
4.31921
20
-5.0306
11
4.30796
21
-5.03622
0
LINE
8
BLACK
6
CONTINUOUS
10
4.35858
20
-5.10371
11
4.34733
21
-5.10934
0
LINE
8
BLACK
6
CONTINUOUS
10
4.34733
20
-5.10934
11
4.31921
21
-5.10934
0
LINE
8
BLACK
6
CONTINUOUS
10
4.31921
20
-5.10934
11
4.30796
21
-5.10371
0
LINE
8
BLACK
6
CONTINUOUS
10
4.30796
20
-5.10371
11
4.30233
21
-5.09246
0
LINE
8
BLACK
6
CONTINUOUS
10
4.30233
20
-5.09246
11
4.30233
21
-5.08121
0
LINE
8
BLACK
6
CONTINUOUS
10
4.30233
20
-5.08121
11
4.30796
21
-5.06997
0
LINE
8
BLACK
6
CONTINUOUS
10
4.30796
20
-5.06997
11
4.31921
21
-5.06434
0
LINE
8
BLACK
6
CONTINUOUS
10
4.31921
20
-5.06434
11
4.34733
21
-5.06434
0
LINE
8
BLACK
6
CONTINUOUS
10
4.34733
20
-5.06434
11
4.35858
21
-5.05872
0
LINE
8
BLACK
6
CONTINUOUS
10
4.41482
20
-5.0306
11
4.41482
21
-5.14871
0
LINE
8
BLACK
6
CONTINUOUS
10
4.41482
20
-5.03622
11
4.42607
21
-5.0306
0
LINE
8
BLACK
6
CONTINUOUS
10
4.42607
20
-5.0306
11
4.44857
21
-5.0306
0
LINE
8
BLACK
6
CONTINUOUS
10
4.44857
20
-5.0306
11
4.45981
21
-5.03622
0
LINE
8
BLACK
6
CONTINUOUS
10
4.45981
20
-5.03622
11
4.46544
21
-5.04184
0
LINE
8
BLACK
6
CONTINUOUS
10
4.46544
20
-5.04184
11
4.47106
21
-5.05309
0
LINE
8
BLACK
6
CONTINUOUS
10
4.47106
20
-5.05309
11
4.47106
21
-5.08684
0
LINE
8
BLACK
6
CONTINUOUS
10
4.47106
20
-5.08684
11
4.46544
21
-5.09809
0
LINE
8
BLACK
6
CONTINUOUS
10
4.46544
20
-5.09809
11
4.45981
21
-5.10371
0
LINE
8
BLACK
6
CONTINUOUS
10
4.45981
20
-5.10371
11
4.44857
21
-5.10934
0
LINE
8
BLACK
6
CONTINUOUS
10
4.44857
20
-5.10934
11
4.42607
21
-5.10934
0
LINE
8
BLACK
6
CONTINUOUS
10
4.42607
20
-5.10934
11
4.41482
21
-5.10371
0
LINE
8
BLACK
6
CONTINUOUS
10
4.52168
20
-5.09809
11
4.52731
21
-5.10371
0
LINE
8
BLACK
6
CONTINUOUS
10
4.52731
20
-5.10371
11
4.52168
21
-5.10934
0
LINE
8
BLACK
6
CONTINUOUS
10
4.52168
20
-5.10934
11
4.51606
21
-5.10371
0
LINE
8
BLACK
6
CONTINUOUS
10
4.51606
20
-5.10371
11
4.52168
21
-5.09809
0
LINE
8
BLACK
6
CONTINUOUS
10
4.52168
20
-5.09809
11
4.52168
21
-5.10934
0
LINE
8
BLACK
6
CONTINUOUS
10
4.52168
20
-5.03622
11
4.52731
21
-5.04184
0
LINE
8
BLACK
6
CONTINUOUS
10
4.52731
20
-5.04184
11
4.52168
21
-5.04747
0
LINE
8
BLACK
6
CONTINUOUS
10
4.52168
20
-5.04747
11
4.51606
21
-5.04184
0
LINE
8
BLACK
6
CONTINUOUS
10
4.51606
20
-5.04184
11
4.52168
21
-5.03622
0
LINE
8
BLACK
6
CONTINUOUS
10
4.52168
20
-5.03622
11
4.52168
21
-5.04747
0
LINE
8
BLACK
6
CONTINUOUS
10
3.58327
20
-5.29606
11
3.59902
21
-5.31181
0
LINE
8
BLACK
6
CONTINUOUS
10
3.59902
20
-5.29606
11
3.58327
21
-5.31181
0
LINE
8
BLACK
6
CONTINUOUS
10
3.73428
20
-5.23926
11
3.74553
21
-5.23926
0
LINE
8
BLACK
6
CONTINUOUS
10
3.74553
20
-5.23926
11
3.75678
21
-5.24488
0
LINE
8
BLACK
6
CONTINUOUS
10
3.75678
20
-5.24488
11
3.7624
21
-5.25051
0
LINE
8
BLACK
6
CONTINUOUS
10
3.7624
20
-5.25051
11
3.76803
21
-5.26175
0
LINE
8
BLACK
6
CONTINUOUS
10
3.76803
20
-5.26175
11
3.77365
21
-5.28425
0
LINE
8
BLACK
6
CONTINUOUS
10
3.77365
20
-5.28425
11
3.77365
21
-5.31237
0
LINE
8
BLACK
6
CONTINUOUS
10
3.77365
20
-5.31237
11
3.76803
21
-5.33487
0
LINE
8
BLACK
6
CONTINUOUS
10
3.76803
20
-5.33487
11
3.7624
21
-5.34612
0
LINE
8
BLACK
6
CONTINUOUS
10
3.7624
20
-5.34612
11
3.75678
21
-5.35174
0
LINE
8
BLACK
6
CONTINUOUS
10
3.75678
20
-5.35174
11
3.74553
21
-5.35737
0
LINE
8
BLACK
6
CONTINUOUS
10
3.74553
20
-5.35737
11
3.73428
21
-5.35737
0
LINE
8
BLACK
6
CONTINUOUS
10
3.73428
20
-5.35737
11
3.72303
21
-5.35174
0
LINE
8
BLACK
6
CONTINUOUS
10
3.72303
20
-5.35174
11
3.71741
21
-5.34612
0
LINE
8
BLACK
6
CONTINUOUS
10
3.71741
20
-5.34612
11
3.71178
21
-5.33487
0
LINE
8
BLACK
6
CONTINUOUS
10
3.71178
20
-5.33487
11
3.70616
21
-5.31237
0
LINE
8
BLACK
6
CONTINUOUS
10
3.70616
20
-5.31237
11
3.70616
21
-5.28425
0
LINE
8
BLACK
6
CONTINUOUS
10
3.70616
20
-5.28425
11
3.71178
21
-5.26175
0
LINE
8
BLACK
6
CONTINUOUS
10
3.71178
20
-5.26175
11
3.71741
21
-5.25051
0
LINE
8
BLACK
6
CONTINUOUS
10
3.71741
20
-5.25051
11
3.72303
21
-5.24488
0
LINE
8
BLACK
6
CONTINUOUS
10
3.72303
20
-5.24488
11
3.73428
21
-5.23926
0
LINE
8
BLACK
6
CONTINUOUS
10
3.82427
20
-5.34612
11
3.82989
21
-5.35174
0
LINE
8
BLACK
6
CONTINUOUS
10
3.82989
20
-5.35174
11
3.82427
21
-5.35737
0
LINE
8
BLACK
6
CONTINUOUS
10
3.82427
20
-5.35737
11
3.81864
21
-5.35174
0
LINE
8
BLACK
6
CONTINUOUS
10
3.81864
20
-5.35174
11
3.82427
21
-5.34612
0
LINE
8
BLACK
6
CONTINUOUS
10
3.82427
20
-5.34612
11
3.82427
21
-5.35737
0
LINE
8
BLACK
6
CONTINUOUS
10
3.93113
20
-5.27863
11
3.93113
21
-5.35737
0
LINE
8
BLACK
6
CONTINUOUS
10
3.90301
20
-5.23363
11
3.87489
21
-5.318
0
LINE
8
BLACK
6
CONTINUOUS
10
3.87489
20
-5.318
11
3.948
21
-5.318
0
LINE
8
BLACK
6
CONTINUOUS
10
4.01549
20
-5.23926
11
4.02674
21
-5.23926
0
LINE
8
BLACK
6
CONTINUOUS
10
4.02674
20
-5.23926
11
4.03799
21
-5.24488
0
LINE
8
BLACK
6
CONTINUOUS
10
4.03799
20
-5.24488
11
4.04362
21
-5.25051
0
LINE
8
BLACK
6
CONTINUOUS
10
4.04362
20
-5.25051
11
4.04924
21
-5.26175
0
LINE
8
BLACK
6
CONTINUOUS
10
4.04924
20
-5.26175
11
4.05486
21
-5.28425
0
LINE
8
BLACK
6
CONTINUOUS
10
4.05486
20
-5.28425
11
4.05486
21
-5.31237
0
LINE
8
BLACK
6
CONTINUOUS
10
4.05486
20
-5.31237
11
4.04924
21
-5.33487
0
LINE
8
BLACK
6
CONTINUOUS
10
4.04924
20
-5.33487
11
4.04362
21
-5.34612
0
LINE
8
BLACK
6
CONTINUOUS
10
4.04362
20
-5.34612
11
4.03799
21
-5.35174
0
LINE
8
BLACK
6
CONTINUOUS
10
4.03799
20
-5.35174
11
4.02674
21
-5.35737
0
LINE
8
BLACK
6
CONTINUOUS
10
4.02674
20
-5.35737
11
4.01549
21
-5.35737
0
LINE
8
BLACK
6
CONTINUOUS
10
4.01549
20
-5.35737
11
4.00425
21
-5.35174
0
LINE
8
BLACK
6
CONTINUOUS
10
4.00425
20
-5.35174
11
3.99862
21
-5.34612
0
LINE
8
BLACK
6
CONTINUOUS
10
3.99862
20
-5.34612
11
3.993
21
-5.33487
0
LINE
8
BLACK
6
CONTINUOUS
10
3.993
20
-5.33487
11
3.98737
21
-5.31237
0
LINE
8
BLACK
6
CONTINUOUS
10
3.98737
20
-5.31237
11
3.98737
21
-5.28425
0
LINE
8
BLACK
6
CONTINUOUS
10
3.98737
20
-5.28425
11
3.993
21
-5.26175
0
LINE
8
BLACK
6
CONTINUOUS
10
3.993
20
-5.26175
11
3.99862
21
-5.25051
0
LINE
8
BLACK
6
CONTINUOUS
10
3.99862
20
-5.25051
11
4.00425
21
-5.24488
0
LINE
8
BLACK
6
CONTINUOUS
10
4.00425
20
-5.24488
11
4.01549
21
-5.23926
0
LINE
8
BLACK
6
CONTINUOUS
10
4.10548
20
-5.35737
11
4.10548
21
-5.27863
0
LINE
8
BLACK
6
CONTINUOUS
10
4.10548
20
-5.28988
11
4.11111
21
-5.28425
0
LINE
8
BLACK
6
CONTINUOUS
10
4.11111
20
-5.28425
11
4.12236
21
-5.27863
0
LINE
8
BLACK
6
CONTINUOUS
10
4.12236
20
-5.27863
11
4.13923
21
-5.27863
0
LINE
8
BLACK
6
CONTINUOUS
10
4.13923
20
-5.27863
11
4.15048
21
-5.28425
0
LINE
8
BLACK
6
CONTINUOUS
10
4.15048
20
-5.28425
11
4.1561
21
-5.2955
0
LINE
8
BLACK
6
CONTINUOUS
10
4.1561
20
-5.2955
11
4.1561
21
-5.35737
0
LINE
8
BLACK
6
CONTINUOUS
10
4.1561
20
-5.2955
11
4.16173
21
-5.28425
0
LINE
8
BLACK
6
CONTINUOUS
10
4.16173
20
-5.28425
11
4.17298
21
-5.27863
0
LINE
8
BLACK
6
CONTINUOUS
10
4.17298
20
-5.27863
11
4.18985
21
-5.27863
0
LINE
8
BLACK
6
CONTINUOUS
10
4.18985
20
-5.27863
11
4.2011
21
-5.28425
0
LINE
8
BLACK
6
CONTINUOUS
10
4.2011
20
-5.28425
11
4.20672
21
-5.2955
0
LINE
8
BLACK
6
CONTINUOUS
10
4.20672
20
-5.2955
11
4.20672
21
-5.35737
0
LINE
8
BLACK
6
CONTINUOUS
10
4.26296
20
-5.35737
11
4.26296
21
-5.27863
0
LINE
8
BLACK
6
CONTINUOUS
10
4.26296
20
-5.28988
11
4.26859
21
-5.28425
0
LINE
8
BLACK
6
CONTINUOUS
10
4.26859
20
-5.28425
11
4.27984
21
-5.27863
0
LINE
8
BLACK
6
CONTINUOUS
10
4.27984
20
-5.27863
11
4.29671
21
-5.27863
0
LINE
8
BLACK
6
CONTINUOUS
10
4.29671
20
-5.27863
11
4.30796
21
-5.28425
0
LINE
8
BLACK
6
CONTINUOUS
10
4.30796
20
-5.28425
11
4.31358
21
-5.2955
0
LINE
8
BLACK
6
CONTINUOUS
10
4.31358
20
-5.2955
11
4.31358
21
-5.35737
0
LINE
8
BLACK
6
CONTINUOUS
10
4.31358
20
-5.2955
11
4.31921
21
-5.28425
0
LINE
8
BLACK
6
CONTINUOUS
10
4.31921
20
-5.28425
11
4.33046
21
-5.27863
0
LINE
8
BLACK
6
CONTINUOUS
10
4.33046
20
-5.27863
11
4.34733
21
-5.27863
0
LINE
8
BLACK
6
CONTINUOUS
10
4.34733
20
-5.27863
11
4.35858
21
-5.28425
0
LINE
8
BLACK
6
CONTINUOUS
10
4.35858
20
-5.28425
11
4.3642
21
-5.2955
0
LINE
8
BLACK
6
CONTINUOUS
10
4.3642
20
-5.2955
11
4.3642
21
-5.35737
0
LINE
8
BLACK
6
CONTINUOUS
10
4.5948
20
-5.23363
11
4.49356
21
-5.38549
0
LINE
8
BLACK
6
CONTINUOUS
10
4.74665
20
-5.23926
11
4.7579
21
-5.23926
0
LINE
8
BLACK
6
CONTINUOUS
10
4.7579
20
-5.23926
11
4.76915
21
-5.24488
0
LINE
8
BLACK
6
CONTINUOUS
10
4.76915
20
-5.24488
11
4.77477
21
-5.25051
0
LINE
8
BLACK
6
CONTINUOUS
10
4.77477
20
-5.25051
11
4.7804
21
-5.26175
0
LINE
8
BLACK
6
CONTINUOUS
10
4.7804
20
-5.26175
11
4.78602
21
-5.28425
0
LINE
8
BLACK
6
CONTINUOUS
10
4.78602
20
-5.28425
11
4.78602
21
-5.31237
0
LINE
8
BLACK
6
CONTINUOUS
10
4.78602
20
-5.31237
11
4.7804
21
-5.33487
0
LINE
8
BLACK
6
CONTINUOUS
10
4.7804
20
-5.33487
11
4.77477
21
-5.34612
0
LINE
8
BLACK
6
CONTINUOUS
10
4.77477
20
-5.34612
11
4.76915
21
-5.35174
0
LINE
8
BLACK
6
CONTINUOUS
10
4.76915
20
-5.35174
11
4.7579
21
-5.35737
0
LINE
8
BLACK
6
CONTINUOUS
10
4.7579
20
-5.35737
11
4.74665
21
-5.35737
0
LINE
8
BLACK
6
CONTINUOUS
10
4.74665
20
-5.35737
11
4.7354
21
-5.35174
0
LINE
8
BLACK
6
CONTINUOUS
10
4.7354
20
-5.35174
11
4.72978
21
-5.34612
0
LINE
8
BLACK
6
CONTINUOUS
10
4.72978
20
-5.34612
11
4.72416
21
-5.33487
0
LINE
8
BLACK
6
CONTINUOUS
10
4.72416
20
-5.33487
11
4.71853
21
-5.31237
0
LINE
8
BLACK
6
CONTINUOUS
10
4.71853
20
-5.31237
11
4.71853
21
-5.28425
0
LINE
8
BLACK
6
CONTINUOUS
10
4.71853
20
-5.28425
11
4.72416
21
-5.26175
0
LINE
8
BLACK
6
CONTINUOUS
10
4.72416
20
-5.26175
11
4.72978
21
-5.25051
0
LINE
8
BLACK
6
CONTINUOUS
10
4.72978
20
-5.25051
11
4.7354
21
-5.24488
0
LINE
8
BLACK
6
CONTINUOUS
10
4.7354
20
-5.24488
11
4.74665
21
-5.23926
0
LINE
8
BLACK
6
CONTINUOUS
10
4.83664
20
-5.34612
11
4.84227
21
-5.35174
0
LINE
8
BLACK
6
CONTINUOUS
10
4.84227
20
-5.35174
11
4.83664
21
-5.35737
0
LINE
8
BLACK
6
CONTINUOUS
10
4.83664
20
-5.35737
11
4.83102
21
-5.35174
0
LINE
8
BLACK
6
CONTINUOUS
10
4.83102
20
-5.35174
11
4.83664
21
-5.34612
0
LINE
8
BLACK
6
CONTINUOUS
10
4.83664
20
-5.34612
11
4.83664
21
-5.35737
0
LINE
8
BLACK
6
CONTINUOUS
10
4.91538
20
-5.23926
11
4.92663
21
-5.23926
0
LINE
8
BLACK
6
CONTINUOUS
10
4.92663
20
-5.23926
11
4.93788
21
-5.24488
0
LINE
8
BLACK
6
CONTINUOUS
10
4.93788
20
-5.24488
11
4.9435
21
-5.25051
0
LINE
8
BLACK
6
CONTINUOUS
10
4.9435
20
-5.25051
11
4.94913
21
-5.26175
0
LINE
8
BLACK
6
CONTINUOUS
10
4.94913
20
-5.26175
11
4.95475
21
-5.28425
0
LINE
8
BLACK
6
CONTINUOUS
10
4.95475
20
-5.28425
11
4.95475
21
-5.31237
0
LINE
8
BLACK
6
CONTINUOUS
10
4.95475
20
-5.31237
11
4.94913
21
-5.33487
0
LINE
8
BLACK
6
CONTINUOUS
10
4.94913
20
-5.33487
11
4.9435
21
-5.34612
0
LINE
8
BLACK
6
CONTINUOUS
10
4.9435
20
-5.34612
11
4.93788
21
-5.35174
0
LINE
8
BLACK
6
CONTINUOUS
10
4.93788
20
-5.35174
11
4.92663
21
-5.35737
0
LINE
8
BLACK
6
CONTINUOUS
10
4.92663
20
-5.35737
11
4.91538
21
-5.35737
0
LINE
8
BLACK
6
CONTINUOUS
10
4.91538
20
-5.35737
11
4.90413
21
-5.35174
0
LINE
8
BLACK
6
CONTINUOUS
10
4.90413
20
-5.35174
11
4.89851
21
-5.34612
0
LINE
8
BLACK
6
CONTINUOUS
10
4.89851
20
-5.34612
11
4.89289
21
-5.33487
0
LINE
8
BLACK
6
CONTINUOUS
10
4.89289
20
-5.33487
11
4.88726
21
-5.31237
0
LINE
8
BLACK
6
CONTINUOUS
10
4.88726
20
-5.31237
11
4.88726
21
-5.28425
0
LINE
8
BLACK
6
CONTINUOUS
10
4.88726
20
-5.28425
11
4.89289
21
-5.26175
0
LINE
8
BLACK
6
CONTINUOUS
10
4.89289
20
-5.26175
11
4.89851
21
-5.25051
0
LINE
8
BLACK
6
CONTINUOUS
10
4.89851
20
-5.25051
11
4.90413
21
-5.24488
0
LINE
8
BLACK
6
CONTINUOUS
10
4.90413
20
-5.24488
11
4.91538
21
-5.23926
0
LINE
8
BLACK
6
CONTINUOUS
10
5.06724
20
-5.35737
11
4.99975
21
-5.35737
0
LINE
8
BLACK
6
CONTINUOUS
10
5.03349
20
-5.35737
11
5.03349
21
-5.23926
0
LINE
8
BLACK
6
CONTINUOUS
10
5.03349
20
-5.23926
11
5.02224
21
-5.25613
0
LINE
8
BLACK
6
CONTINUOUS
10
5.02224
20
-5.25613
11
5.011
21
-5.26738
0
LINE
8
BLACK
6
CONTINUOUS
10
5.011
20
-5.26738
11
4.99975
21
-5.273
0
LINE
8
BLACK
6
CONTINUOUS
10
5.16848
20
-5.23926
11
5.14598
21
-5.23926
0
LINE
8
BLACK
6
CONTINUOUS
10
5.14598
20
-5.23926
11
5.13473
21
-5.24488
0
LINE
8
BLACK
6
CONTINUOUS
10
5.13473
20
-5.24488
11
5.12911
21
-5.25051
0
LINE
8
BLACK
6
CONTINUOUS
10
5.12911
20
-5.25051
11
5.11786
21
-5.26738
0
LINE
8
BLACK
6
CONTINUOUS
10
5.11786
20
-5.26738
11
5.11223
21
-5.28988
0
LINE
8
BLACK
6
CONTINUOUS
10
5.11223
20
-5.28988
11
5.11223
21
-5.33487
0
LINE
8
BLACK
6
CONTINUOUS
10
5.11223
20
-5.33487
11
5.11786
21
-5.34612
0
LINE
8
BLACK
6
CONTINUOUS
10
5.11786
20
-5.34612
11
5.12348
21
-5.35174
0
LINE
8
BLACK
6
CONTINUOUS
10
5.12348
20
-5.35174
11
5.13473
21
-5.35737
0
LINE
8
BLACK
6
CONTINUOUS
10
5.13473
20
-5.35737
11
5.15723
21
-5.35737
0
LINE
8
BLACK
6
CONTINUOUS
10
5.15723
20
-5.35737
11
5.16848
21
-5.35174
0
LINE
8
BLACK
6
CONTINUOUS
10
5.16848
20
-5.35174
11
5.1741
21
-5.34612
0
LINE
8
BLACK
6
CONTINUOUS
10
5.1741
20
-5.34612
11
5.17972
21
-5.33487
0
LINE
8
BLACK
6
CONTINUOUS
10
5.17972
20
-5.33487
11
5.17972
21
-5.30675
0
LINE
8
BLACK
6
CONTINUOUS
10
5.17972
20
-5.30675
11
5.1741
21
-5.2955
0
LINE
8
BLACK
6
CONTINUOUS
10
5.1741
20
-5.2955
11
5.16848
21
-5.28988
0
LINE
8
BLACK
6
CONTINUOUS
10
5.16848
20
-5.28988
11
5.15723
21
-5.28425
0
LINE
8
BLACK
6
CONTINUOUS
10
5.15723
20
-5.28425
11
5.13473
21
-5.28425
0
LINE
8
BLACK
6
CONTINUOUS
10
5.13473
20
-5.28425
11
5.12348
21
-5.28988
0
LINE
8
BLACK
6
CONTINUOUS
10
5.12348
20
-5.28988
11
5.11786
21
-5.2955
0
LINE
8
BLACK
6
CONTINUOUS
10
5.11786
20
-5.2955
11
5.11223
21
-5.30675
0
LINE
8
BLACK
6
CONTINUOUS
10
5.22472
20
-5.23926
11
5.22472
21
-5.26175
0
LINE
8
BLACK
6
CONTINUOUS
10
5.26971
20
-5.23926
11
5.26971
21
-5.26175
0
LINE
8
BLACK
6
CONTINUOUS
10
5.44407
20
-5.40236
11
5.43844
21
-5.39674
0
LINE
8
BLACK
6
CONTINUOUS
10
5.43844
20
-5.39674
11
5.42719
21
-5.37987
0
LINE
8
BLACK
6
CONTINUOUS
10
5.42719
20
-5.37987
11
5.42157
21
-5.36862
0
LINE
8
BLACK
6
CONTINUOUS
10
5.42157
20
-5.36862
11
5.41594
21
-5.35174
0
LINE
8
BLACK
6
CONTINUOUS
10
5.41594
20
-5.35174
11
5.41032
21
-5.32362
0
LINE
8
BLACK
6
CONTINUOUS
10
5.41032
20
-5.32362
11
5.41032
21
-5.30112
0
LINE
8
BLACK
6
CONTINUOUS
10
5.41032
20
-5.30112
11
5.41594
21
-5.273
0
LINE
8
BLACK
6
CONTINUOUS
10
5.41594
20
-5.273
11
5.42157
21
-5.25613
0
LINE
8
BLACK
6
CONTINUOUS
10
5.42157
20
-5.25613
11
5.42719
21
-5.24488
0
LINE
8
BLACK
6
CONTINUOUS
10
5.42719
20
-5.24488
11
5.43844
21
-5.22801
0
LINE
8
BLACK
6
CONTINUOUS
10
5.43844
20
-5.22801
11
5.44407
21
-5.22238
0
LINE
8
BLACK
6
CONTINUOUS
10
5.50593
20
-5.28988
11
5.49468
21
-5.28425
0
LINE
8
BLACK
6
CONTINUOUS
10
5.49468
20
-5.28425
11
5.48906
21
-5.27863
0
LINE
8
BLACK
6
CONTINUOUS
10
5.48906
20
-5.27863
11
5.48344
21
-5.26738
0
LINE
8
BLACK
6
CONTINUOUS
10
5.48344
20
-5.26738
11
5.48344
21
-5.26175
0
LINE
8
BLACK
6
CONTINUOUS
10
5.48344
20
-5.26175
11
5.48906
21
-5.25051
0
LINE
8
BLACK
6
CONTINUOUS
10
5.48906
20
-5.25051
11
5.49468
21
-5.24488
0
LINE
8
BLACK
6
CONTINUOUS
10
5.49468
20
-5.24488
11
5.50593
21
-5.23926
0
LINE
8
BLACK
6
CONTINUOUS
10
5.50593
20
-5.23926
11
5.52843
21
-5.23926
0
LINE
8
BLACK
6
CONTINUOUS
10
5.52843
20
-5.23926
11
5.53968
21
-5.24488
0
LINE
8
BLACK
6
CONTINUOUS
10
5.53968
20
-5.24488
11
5.5453
21
-5.25051
0
LINE
8
BLACK
6
CONTINUOUS
10
5.5453
20
-5.25051
11
5.55093
21
-5.26175
0
LINE
8
BLACK
6
CONTINUOUS
10
5.55093
20
-5.26175
11
5.55093
21
-5.26738
0
LINE
8
BLACK
6
CONTINUOUS
10
5.55093
20
-5.26738
11
5.5453
21
-5.27863
0
LINE
8
BLACK
6
CONTINUOUS
10
5.5453
20
-5.27863
11
5.53968
21
-5.28425
0
LINE
8
BLACK
6
CONTINUOUS
10
5.53968
20
-5.28425
11
5.52843
21
-5.28988
0
LINE
8
BLACK
6
CONTINUOUS
10
5.52843
20
-5.28988
11
5.50593
21
-5.28988
0
LINE
8
BLACK
6
CONTINUOUS
10
5.50593
20
-5.28988
11
5.49468
21
-5.2955
0
LINE
8
BLACK
6
CONTINUOUS
10
5.49468
20
-5.2955
11
5.48906
21
-5.30112
0
LINE
8
BLACK
6
CONTINUOUS
10
5.48906
20
-5.30112
11
5.48344
21
-5.31237
0
LINE
8
BLACK
6
CONTINUOUS
10
5.48344
20
-5.31237
11
5.48344
21
-5.33487
0
LINE
8
BLACK
6
CONTINUOUS
10
5.48344
20
-5.33487
11
5.48906
21
-5.34612
0
LINE
8
BLACK
6
CONTINUOUS
10
5.48906
20
-5.34612
11
5.49468
21
-5.35174
0
LINE
8
BLACK
6
CONTINUOUS
10
5.49468
20
-5.35174
11
5.50593
21
-5.35737
0
LINE
8
BLACK
6
CONTINUOUS
10
5.50593
20
-5.35737
11
5.52843
21
-5.35737
0
LINE
8
BLACK
6
CONTINUOUS
10
5.52843
20
-5.35737
11
5.53968
21
-5.35174
0
LINE
8
BLACK
6
CONTINUOUS
10
5.53968
20
-5.35174
11
5.5453
21
-5.34612
0
LINE
8
BLACK
6
CONTINUOUS
10
5.5453
20
-5.34612
11
5.55093
21
-5.33487
0
LINE
8
BLACK
6
CONTINUOUS
10
5.55093
20
-5.33487
11
5.55093
21
-5.31237
0
LINE
8
BLACK
6
CONTINUOUS
10
5.55093
20
-5.31237
11
5.5453
21
-5.30112
0
LINE
8
BLACK
6
CONTINUOUS
10
5.5453
20
-5.30112
11
5.53968
21
-5.2955
0
LINE
8
BLACK
6
CONTINUOUS
10
5.53968
20
-5.2955
11
5.52843
21
-5.28988
0
LINE
8
BLACK
6
CONTINUOUS
10
5.65217
20
-5.23926
11
5.62967
21
-5.23926
0
LINE
8
BLACK
6
CONTINUOUS
10
5.62967
20
-5.23926
11
5.61842
21
-5.24488
0
LINE
8
BLACK
6
CONTINUOUS
10
5.61842
20
-5.24488
11
5.6128
21
-5.25051
0
LINE
8
BLACK
6
CONTINUOUS
10
5.6128
20
-5.25051
11
5.60155
21
-5.26738
0
LINE
8
BLACK
6
CONTINUOUS
10
5.60155
20
-5.26738
11
5.59592
21
-5.28988
0
LINE
8
BLACK
6
CONTINUOUS
10
5.59592
20
-5.28988
11
5.59592
21
-5.33487
0
LINE
8
BLACK
6
CONTINUOUS
10
5.59592
20
-5.33487
11
5.60155
21
-5.34612
0
LINE
8
BLACK
6
CONTINUOUS
10
5.60155
20
-5.34612
11
5.60717
21
-5.35174
0
LINE
8
BLACK
6
CONTINUOUS
10
5.60717
20
-5.35174
11
5.61842
21
-5.35737
0
LINE
8
BLACK
6
CONTINUOUS
10
5.61842
20
-5.35737
11
5.64092
21
-5.35737
0
LINE
8
BLACK
6
CONTINUOUS
10
5.64092
20
-5.35737
11
5.65217
21
-5.35174
0
LINE
8
BLACK
6
CONTINUOUS
10
5.65217
20
-5.35174
11
5.65779
21
-5.34612
0
LINE
8
BLACK
6
CONTINUOUS
10
5.65779
20
-5.34612
11
5.66341
21
-5.33487
0
LINE
8
BLACK
6
CONTINUOUS
10
5.66341
20
-5.33487
11
5.66341
21
-5.30675
0
LINE
8
BLACK
6
CONTINUOUS
10
5.66341
20
-5.30675
11
5.65779
21
-5.2955
0
LINE
8
BLACK
6
CONTINUOUS
10
5.65779
20
-5.2955
11
5.65217
21
-5.28988
0
LINE
8
BLACK
6
CONTINUOUS
10
5.65217
20
-5.28988
11
5.64092
21
-5.28425
0
LINE
8
BLACK
6
CONTINUOUS
10
5.64092
20
-5.28425
11
5.61842
21
-5.28425
0
LINE
8
BLACK
6
CONTINUOUS
10
5.61842
20
-5.28425
11
5.60717
21
-5.28988
0
LINE
8
BLACK
6
CONTINUOUS
10
5.60717
20
-5.28988
11
5.60155
21
-5.2955
0
LINE
8
BLACK
6
CONTINUOUS
10
5.60155
20
-5.2955
11
5.59592
21
-5.30675
0
LINE
8
BLACK
6
CONTINUOUS
10
5.80402
20
-5.35737
11
5.80402
21
-5.23926
0
LINE
8
BLACK
6
CONTINUOUS
10
5.85464
20
-5.35737
11
5.85464
21
-5.2955
0
LINE
8
BLACK
6
CONTINUOUS
10
5.85464
20
-5.2955
11
5.84902
21
-5.28425
0
LINE
8
BLACK
6
CONTINUOUS
10
5.84902
20
-5.28425
11
5.83777
21
-5.27863
0
LINE
8
BLACK
6
CONTINUOUS
10
5.83777
20
-5.27863
11
5.82089
21
-5.27863
0
LINE
8
BLACK
6
CONTINUOUS
10
5.82089
20
-5.27863
11
5.80965
21
-5.28425
0
LINE
8
BLACK
6
CONTINUOUS
10
5.80965
20
-5.28425
11
5.80402
21
-5.28988
0
LINE
8
BLACK
6
CONTINUOUS
10
5.92776
20
-5.35737
11
5.91651
21
-5.35174
0
LINE
8
BLACK
6
CONTINUOUS
10
5.91651
20
-5.35174
11
5.91088
21
-5.34612
0
LINE
8
BLACK
6
CONTINUOUS
10
5.91088
20
-5.34612
11
5.90526
21
-5.33487
0
LINE
8
BLACK
6
CONTINUOUS
10
5.90526
20
-5.33487
11
5.90526
21
-5.30112
0
LINE
8
BLACK
6
CONTINUOUS
10
5.90526
20
-5.30112
11
5.91088
21
-5.28988
0
LINE
8
BLACK
6
CONTINUOUS
10
5.91088
20
-5.28988
11
5.91651
21
-5.28425
0
LINE
8
BLACK
6
CONTINUOUS
10
5.91651
20
-5.28425
11
5.92776
21
-5.27863
0
LINE
8
BLACK
6
CONTINUOUS
10
5.92776
20
-5.27863
11
5.94463
21
-5.27863
0
LINE
8
BLACK
6
CONTINUOUS
10
5.94463
20
-5.27863
11
5.95588
21
-5.28425
0
LINE
8
BLACK
6
CONTINUOUS
10
5.95588
20
-5.28425
11
5.9615
21
-5.28988
0
LINE
8
BLACK
6
CONTINUOUS
10
5.9615
20
-5.28988
11
5.96713
21
-5.30112
0
LINE
8
BLACK
6
CONTINUOUS
10
5.96713
20
-5.30112
11
5.96713
21
-5.33487
0
LINE
8
BLACK
6
CONTINUOUS
10
5.96713
20
-5.33487
11
5.9615
21
-5.34612
0
LINE
8
BLACK
6
CONTINUOUS
10
5.9615
20
-5.34612
11
5.95588
21
-5.35174
0
LINE
8
BLACK
6
CONTINUOUS
10
5.95588
20
-5.35174
11
5.94463
21
-5.35737
0
LINE
8
BLACK
6
CONTINUOUS
10
5.94463
20
-5.35737
11
5.92776
21
-5.35737
0
LINE
8
BLACK
6
CONTINUOUS
10
6.03462
20
-5.35737
11
6.02337
21
-5.35174
0
LINE
8
BLACK
6
CONTINUOUS
10
6.02337
20
-5.35174
11
6.01774
21
-5.34049
0
LINE
8
BLACK
6
CONTINUOUS
10
6.01774
20
-5.34049
11
6.01774
21
-5.23926
0
LINE
8
BLACK
6
CONTINUOUS
10
6.12461
20
-5.35174
11
6.11336
21
-5.35737
0
LINE
8
BLACK
6
CONTINUOUS
10
6.11336
20
-5.35737
11
6.09086
21
-5.35737
0
LINE
8
BLACK
6
CONTINUOUS
10
6.09086
20
-5.35737
11
6.07961
21
-5.35174
0
LINE
8
BLACK
6
CONTINUOUS
10
6.07961
20
-5.35174
11
6.07399
21
-5.34049
0
LINE
8
BLACK
6
CONTINUOUS
10
6.07399
20
-5.34049
11
6.07399
21
-5.2955
0
LINE
8
BLACK
6
CONTINUOUS
10
6.07399
20
-5.2955
11
6.07961
21
-5.28425
0
LINE
8
BLACK
6
CONTINUOUS
10
6.07961
20
-5.28425
11
6.09086
21
-5.27863
0
LINE
8
BLACK
6
CONTINUOUS
10
6.09086
20
-5.27863
11
6.11336
21
-5.27863
0
LINE
8
BLACK
6
CONTINUOUS
10
6.11336
20
-5.27863
11
6.12461
21
-5.28425
0
LINE
8
BLACK
6
CONTINUOUS
10
6.12461
20
-5.28425
11
6.13023
21
-5.2955
0
LINE
8
BLACK
6
CONTINUOUS
10
6.13023
20
-5.2955
11
6.13023
21
-5.30675
0
LINE
8
BLACK
6
CONTINUOUS
10
6.13023
20
-5.30675
11
6.07399
21
-5.318
0
LINE
8
BLACK
6
CONTINUOUS
10
6.17522
20
-5.35174
11
6.18647
21
-5.35737
0
LINE
8
BLACK
6
CONTINUOUS
10
6.18647
20
-5.35737
11
6.20897
21
-5.35737
0
LINE
8
BLACK
6
CONTINUOUS
10
6.20897
20
-5.35737
11
6.22022
21
-5.35174
0
LINE
8
BLACK
6
CONTINUOUS
10
6.22022
20
-5.35174
11
6.22584
21
-5.34049
0
LINE
8
BLACK
6
CONTINUOUS
10
6.22584
20
-5.34049
11
6.22584
21
-5.33487
0
LINE
8
BLACK
6
CONTINUOUS
10
6.22584
20
-5.33487
11
6.22022
21
-5.32362
0
LINE
8
BLACK
6
CONTINUOUS
10
6.22022
20
-5.32362
11
6.20897
21
-5.318
0
LINE
8
BLACK
6
CONTINUOUS
10
6.20897
20
-5.318
11
6.1921
21
-5.318
0
LINE
8
BLACK
6
CONTINUOUS
10
6.1921
20
-5.318
11
6.18085
21
-5.31237
0
LINE
8
BLACK
6
CONTINUOUS
10
6.18085
20
-5.31237
11
6.17522
21
-5.30112
0
LINE
8
BLACK
6
CONTINUOUS
10
6.17522
20
-5.30112
11
6.17522
21
-5.2955
0
LINE
8
BLACK
6
CONTINUOUS
10
6.17522
20
-5.2955
11
6.18085
21
-5.28425
0
LINE
8
BLACK
6
CONTINUOUS
10
6.18085
20
-5.28425
11
6.1921
21
-5.27863
0
LINE
8
BLACK
6
CONTINUOUS
10
6.1921
20
-5.27863
11
6.20897
21
-5.27863
0
LINE
8
BLACK
6
CONTINUOUS
10
6.20897
20
-5.27863
11
6.22022
21
-5.28425
0
LINE
8
BLACK
6
CONTINUOUS
10
6.26521
20
-5.40236
11
6.27084
21
-5.39674
0
LINE
8
BLACK
6
CONTINUOUS
10
6.27084
20
-5.39674
11
6.28209
21
-5.37987
0
LINE
8
BLACK
6
CONTINUOUS
10
6.28209
20
-5.37987
11
6.28771
21
-5.36862
0
LINE
8
BLACK
6
CONTINUOUS
10
6.28771
20
-5.36862
11
6.29334
21
-5.35174
0
LINE
8
BLACK
6
CONTINUOUS
10
6.29334
20
-5.35174
11
6.29896
21
-5.32362
0
LINE
8
BLACK
6
CONTINUOUS
10
6.29896
20
-5.32362
11
6.29896
21
-5.30112
0
LINE
8
BLACK
6
CONTINUOUS
10
6.29896
20
-5.30112
11
6.29334
21
-5.273
0
LINE
8
BLACK
6
CONTINUOUS
10
6.29334
20
-5.273
11
6.28771
21
-5.25613
0
LINE
8
BLACK
6
CONTINUOUS
10
6.28771
20
-5.25613
11
6.28209
21
-5.24488
0
LINE
8
BLACK
6
CONTINUOUS
10
6.28209
20
-5.24488
11
6.27084
21
-5.22801
0
LINE
8
BLACK
6
CONTINUOUS
10
6.27084
20
-5.22801
11
6.26521
21
-5.22238
0
CIRCLE
8
BLACK
10
3.58917
20
-5.45984
40
0.00984252
0
LINE
8
BLACK
6
CONTINUOUS
10
3.73428
20
-5.39516
11
3.74553
21
-5.39516
0
LINE
8
BLACK
6
CONTINUOUS
10
3.74553
20
-5.39516
11
3.75678
21
-5.40079
0
LINE
8
BLACK
6
CONTINUOUS
10
3.75678
20
-5.40079
11
3.7624
21
-5.40641
0
LINE
8
BLACK
6
CONTINUOUS
10
3.7624
20
-5.40641
11
3.76803
21
-5.41766
0
LINE
8
BLACK
6
CONTINUOUS
10
3.76803
20
-5.41766
11
3.77365
21
-5.44016
0
LINE
8
BLACK
6
CONTINUOUS
10
3.77365
20
-5.44016
11
3.77365
21
-5.46828
0
LINE
8
BLACK
6
CONTINUOUS
10
3.77365
20
-5.46828
11
3.76803
21
-5.49078
0
LINE
8
BLACK
6
CONTINUOUS
10
3.76803
20
-5.49078
11
3.7624
21
-5.50202
0
LINE
8
BLACK
6
CONTINUOUS
10
3.7624
20
-5.50202
11
3.75678
21
-5.50765
0
LINE
8
BLACK
6
CONTINUOUS
10
3.75678
20
-5.50765
11
3.74553
21
-5.51327
0
LINE
8
BLACK
6
CONTINUOUS
10
3.74553
20
-5.51327
11
3.73428
21
-5.51327
0
LINE
8
BLACK
6
CONTINUOUS
10
3.73428
20
-5.51327
11
3.72303
21
-5.50765
0
LINE
8
BLACK
6
CONTINUOUS
10
3.72303
20
-5.50765
11
3.71741
21
-5.50202
0
LINE
8
BLACK
6
CONTINUOUS
10
3.71741
20
-5.50202
11
3.71178
21
-5.49078
0
LINE
8
BLACK
6
CONTINUOUS
10
3.71178
20
-5.49078
11
3.70616
21
-5.46828
0
LINE
8
BLACK
6
CONTINUOUS
10
3.70616
20
-5.46828
11
3.70616
21
-5.44016
0
LINE
8
BLACK
6
CONTINUOUS
10
3.70616
20
-5.44016
11
3.71178
21
-5.41766
0
LINE
8
BLACK
6
CONTINUOUS
10
3.71178
20
-5.41766
11
3.71741
21
-5.40641
0
LINE
8
BLACK
6
CONTINUOUS
10
3.71741
20
-5.40641
11
3.72303
21
-5.40079
0
LINE
8
BLACK
6
CONTINUOUS
10
3.72303
20
-5.40079
11
3.73428
21
-5.39516
0
LINE
8
BLACK
6
CONTINUOUS
10
3.82427
20
-5.50202
11
3.82989
21
-5.50765
0
LINE
8
BLACK
6
CONTINUOUS
10
3.82989
20
-5.50765
11
3.82427
21
-5.51327
0
LINE
8
BLACK
6
CONTINUOUS
10
3.82427
20
-5.51327
11
3.81864
21
-5.50765
0
LINE
8
BLACK
6
CONTINUOUS
10
3.81864
20
-5.50765
11
3.82427
21
-5.50202
0
LINE
8
BLACK
6
CONTINUOUS
10
3.82427
20
-5.50202
11
3.82427
21
-5.51327
0
LINE
8
BLACK
6
CONTINUOUS
10
3.93675
20
-5.39516
11
3.88051
21
-5.39516
0
LINE
8
BLACK
6
CONTINUOUS
10
3.88051
20
-5.39516
11
3.87489
21
-5.45141
0
LINE
8
BLACK
6
CONTINUOUS
10
3.87489
20
-5.45141
11
3.88051
21
-5.44578
0
LINE
8
BLACK
6
CONTINUOUS
10
3.88051
20
-5.44578
11
3.89176
21
-5.44016
0
LINE
8
BLACK
6
CONTINUOUS
10
3.89176
20
-5.44016
11
3.91988
21
-5.44016
0
LINE
8
BLACK
6
CONTINUOUS
10
3.91988
20
-5.44016
11
3.93113
21
-5.44578
0
LINE
8
BLACK
6
CONTINUOUS
10
3.93113
20
-5.44578
11
3.93675
21
-5.45141
0
LINE
8
BLACK
6
CONTINUOUS
10
3.93675
20
-5.45141
11
3.94238
21
-5.46265
0
LINE
8
BLACK
6
CONTINUOUS
10
3.94238
20
-5.46265
11
3.94238
21
-5.49078
0
LINE
8
BLACK
6
CONTINUOUS
10
3.94238
20
-5.49078
11
3.93675
21
-5.50202
0
LINE
8
BLACK
6
CONTINUOUS
10
3.93675
20
-5.50202
11
3.93113
21
-5.50765
0
LINE
8
BLACK
6
CONTINUOUS
10
3.93113
20
-5.50765
11
3.91988
21
-5.51327
0
LINE
8
BLACK
6
CONTINUOUS
10
3.91988
20
-5.51327
11
3.89176
21
-5.51327
0
LINE
8
BLACK
6
CONTINUOUS
10
3.89176
20
-5.51327
11
3.88051
21
-5.50765
0
LINE
8
BLACK
6
CONTINUOUS
10
3.88051
20
-5.50765
11
3.87489
21
-5.50202
0
LINE
8
BLACK
6
CONTINUOUS
10
4.01549
20
-5.39516
11
4.02674
21
-5.39516
0
LINE
8
BLACK
6
CONTINUOUS
10
4.02674
20
-5.39516
11
4.03799
21
-5.40079
0
LINE
8
BLACK
6
CONTINUOUS
10
4.03799
20
-5.40079
11
4.04362
21
-5.40641
0
LINE
8
BLACK
6
CONTINUOUS
10
4.04362
20
-5.40641
11
4.04924
21
-5.41766
0
LINE
8
BLACK
6
CONTINUOUS
10
4.04924
20
-5.41766
11
4.05486
21
-5.44016
0
LINE
8
BLACK
6
CONTINUOUS
10
4.05486
20
-5.44016
11
4.05486
21
-5.46828
0
LINE
8
BLACK
6
CONTINUOUS
10
4.05486
20
-5.46828
11
4.04924
21
-5.49078
0
LINE
8
BLACK
6
CONTINUOUS
10
4.04924
20
-5.49078
11
4.04362
21
-5.50202
0
LINE
8
BLACK
6
CONTINUOUS
10
4.04362
20
-5.50202
11
4.03799
21
-5.50765
0
LINE
8
BLACK
6
CONTINUOUS
10
4.03799
20
-5.50765
11
4.02674
21
-5.51327
0
LINE
8
BLACK
6
CONTINUOUS
10
4.02674
20
-5.51327
11
4.01549
21
-5.51327
0
LINE
8
BLACK
6
CONTINUOUS
10
4.01549
20
-5.51327
11
4.00425
21
-5.50765
0
LINE
8
BLACK
6
CONTINUOUS
10
4.00425
20
-5.50765
11
3.99862
21
-5.50202
0
LINE
8
BLACK
6
CONTINUOUS
10
3.99862
20
-5.50202
11
3.993
21
-5.49078
0
LINE
8
BLACK
6
CONTINUOUS
10
3.993
20
-5.49078
11
3.98737
21
-5.46828
0
LINE
8
BLACK
6
CONTINUOUS
10
3.98737
20
-5.46828
11
3.98737
21
-5.44016
0
LINE
8
BLACK
6
CONTINUOUS
10
3.98737
20
-5.44016
11
3.993
21
-5.41766
0
LINE
8
BLACK
6
CONTINUOUS
10
3.993
20
-5.41766
11
3.99862
21
-5.40641
0
LINE
8
BLACK
6
CONTINUOUS
10
3.99862
20
-5.40641
11
4.00425
21
-5.40079
0
LINE
8
BLACK
6
CONTINUOUS
10
4.00425
20
-5.40079
11
4.01549
21
-5.39516
0
LINE
8
BLACK
6
CONTINUOUS
10
4.10548
20
-5.51327
11
4.10548
21
-5.43453
0
LINE
8
BLACK
6
CONTINUOUS
10
4.10548
20
-5.44578
11
4.11111
21
-5.44016
0
LINE
8
BLACK
6
CONTINUOUS
10
4.11111
20
-5.44016
11
4.12236
21
-5.43453
0
LINE
8
BLACK
6
CONTINUOUS
10
4.12236
20
-5.43453
11
4.13923
21
-5.43453
0
LINE
8
BLACK
6
CONTINUOUS
10
4.13923
20
-5.43453
11
4.15048
21
-5.44016
0
LINE
8
BLACK
6
CONTINUOUS
10
4.15048
20
-5.44016
11
4.1561
21
-5.45141
0
LINE
8
BLACK
6
CONTINUOUS
10
4.1561
20
-5.45141
11
4.1561
21
-5.51327
0
LINE
8
BLACK
6
CONTINUOUS
10
4.1561
20
-5.45141
11
4.16173
21
-5.44016
0
LINE
8
BLACK
6
CONTINUOUS
10
4.16173
20
-5.44016
11
4.17298
21
-5.43453
0
LINE
8
BLACK
6
CONTINUOUS
10
4.17298
20
-5.43453
11
4.18985
21
-5.43453
0
LINE
8
BLACK
6
CONTINUOUS
10
4.18985
20
-5.43453
11
4.2011
21
-5.44016
0
LINE
8
BLACK
6
CONTINUOUS
10
4.2011
20
-5.44016
11
4.20672
21
-5.45141
0
LINE
8
BLACK
6
CONTINUOUS
10
4.20672
20
-5.45141
11
4.20672
21
-5.51327
0
LINE
8
BLACK
6
CONTINUOUS
10
4.26296
20
-5.51327
11
4.26296
21
-5.43453
0
LINE
8
BLACK
6
CONTINUOUS
10
4.26296
20
-5.44578
11
4.26859
21
-5.44016
0
LINE
8
BLACK
6
CONTINUOUS
10
4.26859
20
-5.44016
11
4.27984
21
-5.43453
0
LINE
8
BLACK
6
CONTINUOUS
10
4.27984
20
-5.43453
11
4.29671
21
-5.43453
0
LINE
8
BLACK
6
CONTINUOUS
10
4.29671
20
-5.43453
11
4.30796
21
-5.44016
0
LINE
8
BLACK
6
CONTINUOUS
10
4.30796
20
-5.44016
11
4.31358
21
-5.45141
0
LINE
8
BLACK
6
CONTINUOUS
10
4.31358
20
-5.45141
11
4.31358
21
-5.51327
0
LINE
8
BLACK
6
CONTINUOUS
10
4.31358
20
-5.45141
11
4.31921
21
-5.44016
0
LINE
8
BLACK
6
CONTINUOUS
10
4.31921
20
-5.44016
11
4.33046
21
-5.43453
0
LINE
8
BLACK
6
CONTINUOUS
10
4.33046
20
-5.43453
11
4.34733
21
-5.43453
0
LINE
8
BLACK
6
CONTINUOUS
10
4.34733
20
-5.43453
11
4.35858
21
-5.44016
0
LINE
8
BLACK
6
CONTINUOUS
10
4.35858
20
-5.44016
11
4.3642
21
-5.45141
0
LINE
8
BLACK
6
CONTINUOUS
10
4.3642
20
-5.45141
11
4.3642
21
-5.51327
0
LINE
8
BLACK
6
CONTINUOUS
10
4.5948
20
-5.38954
11
4.49356
21
-5.54139
0
LINE
8
BLACK
6
CONTINUOUS
10
4.74665
20
-5.39516
11
4.7579
21
-5.39516
0
LINE
8
BLACK
6
CONTINUOUS
10
4.7579
20
-5.39516
11
4.76915
21
-5.40079
0
LINE
8
BLACK
6
CONTINUOUS
10
4.76915
20
-5.40079
11
4.77477
21
-5.40641
0
LINE
8
BLACK
6
CONTINUOUS
10
4.77477
20
-5.40641
11
4.7804
21
-5.41766
0
LINE
8
BLACK
6
CONTINUOUS
10
4.7804
20
-5.41766
11
4.78602
21
-5.44016
0
LINE
8
BLACK
6
CONTINUOUS
10
4.78602
20
-5.44016
11
4.78602
21
-5.46828
0
LINE
8
BLACK
6
CONTINUOUS
10
4.78602
20
-5.46828
11
4.7804
21
-5.49078
0
LINE
8
BLACK
6
CONTINUOUS
10
4.7804
20
-5.49078
11
4.77477
21
-5.50202
0
LINE
8
BLACK
6
CONTINUOUS
10
4.77477
20
-5.50202
11
4.76915
21
-5.50765
0
LINE
8
BLACK
6
CONTINUOUS
10
4.76915
20
-5.50765
11
4.7579
21
-5.51327
0
LINE
8
BLACK
6
CONTINUOUS
10
4.7579
20
-5.51327
11
4.74665
21
-5.51327
0
LINE
8
BLACK
6
CONTINUOUS
10
4.74665
20
-5.51327
11
4.7354
21
-5.50765
0
LINE
8
BLACK
6
CONTINUOUS
10
4.7354
20
-5.50765
11
4.72978
21
-5.50202
0
LINE
8
BLACK
6
CONTINUOUS
10
4.72978
20
-5.50202
11
4.72416
21
-5.49078
0
LINE
8
BLACK
6
CONTINUOUS
10
4.72416
20
-5.49078
11
4.71853
21
-5.46828
0
LINE
8
BLACK
6
CONTINUOUS
10
4.71853
20
-5.46828
11
4.71853
21
-5.44016
0
LINE
8
BLACK
6
CONTINUOUS
10
4.71853
20
-5.44016
11
4.72416
21
-5.41766
0
LINE
8
BLACK
6
CONTINUOUS
10
4.72416
20
-5.41766
11
4.72978
21
-5.40641
0
LINE
8
BLACK
6
CONTINUOUS
10
4.72978
20
-5.40641
11
4.7354
21
-5.40079
0
LINE
8
BLACK
6
CONTINUOUS
10
4.7354
20
-5.40079
11
4.74665
21
-5.39516
0
LINE
8
BLACK
6
CONTINUOUS
10
4.83664
20
-5.50202
11
4.84227
21
-5.50765
0
LINE
8
BLACK
6
CONTINUOUS
10
4.84227
20
-5.50765
11
4.83664
21
-5.51327
0
LINE
8
BLACK
6
CONTINUOUS
10
4.83664
20
-5.51327
11
4.83102
21
-5.50765
0
LINE
8
BLACK
6
CONTINUOUS
10
4.83102
20
-5.50765
11
4.83664
21
-5.50202
0
LINE
8
BLACK
6
CONTINUOUS
10
4.83664
20
-5.50202
11
4.83664
21
-5.51327
0
LINE
8
BLACK
6
CONTINUOUS
10
4.91538
20
-5.39516
11
4.92663
21
-5.39516
0
LINE
8
BLACK
6
CONTINUOUS
10
4.92663
20
-5.39516
11
4.93788
21
-5.40079
0
LINE
8
BLACK
6
CONTINUOUS
10
4.93788
20
-5.40079
11
4.9435
21
-5.40641
0
LINE
8
BLACK
6
CONTINUOUS
10
4.9435
20
-5.40641
11
4.94913
21
-5.41766
0
LINE
8
BLACK
6
CONTINUOUS
10
4.94913
20
-5.41766
11
4.95475
21
-5.44016
0
LINE
8
BLACK
6
CONTINUOUS
10
4.95475
20
-5.44016
11
4.95475
21
-5.46828
0
LINE
8
BLACK
6
CONTINUOUS
10
4.95475
20
-5.46828
11
4.94913
21
-5.49078
0
LINE
8
BLACK
6
CONTINUOUS
10
4.94913
20
-5.49078
11
4.9435
21
-5.50202
0
LINE
8
BLACK
6
CONTINUOUS
10
4.9435
20
-5.50202
11
4.93788
21
-5.50765
0
LINE
8
BLACK
6
CONTINUOUS
10
4.93788
20
-5.50765
11
4.92663
21
-5.51327
0
LINE
8
BLACK
6
CONTINUOUS
10
4.92663
20
-5.51327
11
4.91538
21
-5.51327
0
LINE
8
BLACK
6
CONTINUOUS
10
4.91538
20
-5.51327
11
4.90413
21
-5.50765
0
LINE
8
BLACK
6
CONTINUOUS
10
4.90413
20
-5.50765
11
4.89851
21
-5.50202
0
LINE
8
BLACK
6
CONTINUOUS
10
4.89851
20
-5.50202
11
4.89289
21
-5.49078
0
LINE
8
BLACK
6
CONTINUOUS
10
4.89289
20
-5.49078
11
4.88726
21
-5.46828
0
LINE
8
BLACK
6
CONTINUOUS
10
4.88726
20
-5.46828
11
4.88726
21
-5.44016
0
LINE
8
BLACK
6
CONTINUOUS
10
4.88726
20
-5.44016
11
4.89289
21
-5.41766
0
LINE
8
BLACK
6
CONTINUOUS
10
4.89289
20
-5.41766
11
4.89851
21
-5.40641
0
LINE
8
BLACK
6
CONTINUOUS
10
4.89851
20
-5.40641
11
4.90413
21
-5.40079
0
LINE
8
BLACK
6
CONTINUOUS
10
4.90413
20
-5.40079
11
4.91538
21
-5.39516
0
LINE
8
BLACK
6
CONTINUOUS
10
4.99975
20
-5.40641
11
5.00537
21
-5.40079
0
LINE
8
BLACK
6
CONTINUOUS
10
5.00537
20
-5.40079
11
5.01662
21
-5.39516
0
LINE
8
BLACK
6
CONTINUOUS
10
5.01662
20
-5.39516
11
5.04474
21
-5.39516
0
LINE
8
BLACK
6
CONTINUOUS
10
5.04474
20
-5.39516
11
5.05599
21
-5.40079
0
LINE
8
BLACK
6
CONTINUOUS
10
5.05599
20
-5.40079
11
5.06161
21
-5.40641
0
LINE
8
BLACK
6
CONTINUOUS
10
5.06161
20
-5.40641
11
5.06724
21
-5.41766
0
LINE
8
BLACK
6
CONTINUOUS
10
5.06724
20
-5.41766
11
5.06724
21
-5.42891
0
LINE
8
BLACK
6
CONTINUOUS
10
5.06724
20
-5.42891
11
5.06161
21
-5.44578
0
LINE
8
BLACK
6
CONTINUOUS
10
5.06161
20
-5.44578
11
4.99412
21
-5.51327
0
LINE
8
BLACK
6
CONTINUOUS
10
4.99412
20
-5.51327
11
5.06724
21
-5.51327
0
LINE
8
BLACK
6
CONTINUOUS
10
5.14035
20
-5.39516
11
5.1516
21
-5.39516
0
LINE
8
BLACK
6
CONTINUOUS
10
5.1516
20
-5.39516
11
5.16285
21
-5.40079
0
LINE
8
BLACK
6
CONTINUOUS
10
5.16285
20
-5.40079
11
5.16848
21
-5.40641
0
LINE
8
BLACK
6
CONTINUOUS
10
5.16848
20
-5.40641
11
5.1741
21
-5.41766
0
LINE
8
BLACK
6
CONTINUOUS
10
5.1741
20
-5.41766
11
5.17972
21
-5.44016
0
LINE
8
BLACK
6
CONTINUOUS
10
5.17972
20
-5.44016
11
5.17972
21
-5.46828
0
LINE
8
BLACK
6
CONTINUOUS
10
5.17972
20
-5.46828
11
5.1741
21
-5.49078
0
LINE
8
BLACK
6
CONTINUOUS
10
5.1741
20
-5.49078
11
5.16848
21
-5.50202
0
LINE
8
BLACK
6
CONTINUOUS
10
5.16848
20
-5.50202
11
5.16285
21
-5.50765
0
LINE
8
BLACK
6
CONTINUOUS
10
5.16285
20
-5.50765
11
5.1516
21
-5.51327
0
LINE
8
BLACK
6
CONTINUOUS
10
5.1516
20
-5.51327
11
5.14035
21
-5.51327
0
LINE
8
BLACK
6
CONTINUOUS
10
5.14035
20
-5.51327
11
5.12911
21
-5.50765
0
LINE
8
BLACK
6
CONTINUOUS
10
5.12911
20
-5.50765
11
5.12348
21
-5.50202
0
LINE
8
BLACK
6
CONTINUOUS
10
5.12348
20
-5.50202
11
5.11786
21
-5.49078
0
LINE
8
BLACK
6
CONTINUOUS
10
5.11786
20
-5.49078
11
5.11223
21
-5.46828
0
LINE
8
BLACK
6
CONTINUOUS
10
5.11223
20
-5.46828
11
5.11223
21
-5.44016
0
LINE
8
BLACK
6
CONTINUOUS
10
5.11223
20
-5.44016
11
5.11786
21
-5.41766
0
LINE
8
BLACK
6
CONTINUOUS
10
5.11786
20
-5.41766
11
5.12348
21
-5.40641
0
LINE
8
BLACK
6
CONTINUOUS
10
5.12348
20
-5.40641
11
5.12911
21
-5.40079
0
LINE
8
BLACK
6
CONTINUOUS
10
5.12911
20
-5.40079
11
5.14035
21
-5.39516
0
LINE
8
BLACK
6
CONTINUOUS
10
5.22472
20
-5.39516
11
5.22472
21
-5.41766
0
LINE
8
BLACK
6
CONTINUOUS
10
5.26971
20
-5.39516
11
5.26971
21
-5.41766
0
LINE
8
BLACK
6
CONTINUOUS
10
5.44407
20
-5.55827
11
5.43844
21
-5.55264
0
LINE
8
BLACK
6
CONTINUOUS
10
5.43844
20
-5.55264
11
5.42719
21
-5.53577
0
LINE
8
BLACK
6
CONTINUOUS
10
5.42719
20
-5.53577
11
5.42157
21
-5.52452
0
LINE
8
BLACK
6
CONTINUOUS
10
5.42157
20
-5.52452
11
5.41594
21
-5.50765
0
LINE
8
BLACK
6
CONTINUOUS
10
5.41594
20
-5.50765
11
5.41032
21
-5.47953
0
LINE
8
BLACK
6
CONTINUOUS
10
5.41032
20
-5.47953
11
5.41032
21
-5.45703
0
LINE
8
BLACK
6
CONTINUOUS
10
5.41032
20
-5.45703
11
5.41594
21
-5.42891
0
LINE
8
BLACK
6
CONTINUOUS
10
5.41594
20
-5.42891
11
5.42157
21
-5.41204
0
LINE
8
BLACK
6
CONTINUOUS
10
5.42157
20
-5.41204
11
5.42719
21
-5.40079
0
LINE
8
BLACK
6
CONTINUOUS
10
5.42719
20
-5.40079
11
5.43844
21
-5.38391
0
LINE
8
BLACK
6
CONTINUOUS
10
5.43844
20
-5.38391
11
5.44407
21
-5.37829
0
LINE
8
BLACK
6
CONTINUOUS
10
5.55093
20
-5.51327
11
5.48344
21
-5.51327
0
LINE
8
BLACK
6
CONTINUOUS
10
5.51718
20
-5.51327
11
5.51718
21
-5.39516
0
LINE
8
BLACK
6
CONTINUOUS
10
5.51718
20
-5.39516
11
5.50593
21
-5.41204
0
LINE
8
BLACK
6
CONTINUOUS
10
5.50593
20
-5.41204
11
5.49468
21
-5.42328
0
LINE
8
BLACK
6
CONTINUOUS
10
5.49468
20
-5.42328
11
5.48344
21
-5.42891
0
LINE
8
BLACK
6
CONTINUOUS
10
5.69154
20
-5.51327
11
5.69154
21
-5.39516
0
LINE
8
BLACK
6
CONTINUOUS
10
5.74215
20
-5.51327
11
5.74215
21
-5.45141
0
LINE
8
BLACK
6
CONTINUOUS
10
5.74215
20
-5.45141
11
5.73653
21
-5.44016
0
LINE
8
BLACK
6
CONTINUOUS
10
5.73653
20
-5.44016
11
5.72528
21
-5.43453
0
LINE
8
BLACK
6
CONTINUOUS
10
5.72528
20
-5.43453
11
5.70841
21
-5.43453
0
LINE
8
BLACK
6
CONTINUOUS
10
5.70841
20
-5.43453
11
5.69716
21
-5.44016
0
LINE
8
BLACK
6
CONTINUOUS
10
5.69716
20
-5.44016
11
5.69154
21
-5.44578
0
LINE
8
BLACK
6
CONTINUOUS
10
5.81527
20
-5.51327
11
5.80402
21
-5.50765
0
LINE
8
BLACK
6
CONTINUOUS
10
5.80402
20
-5.50765
11
5.7984
21
-5.50202
0
LINE
8
BLACK
6
CONTINUOUS
10
5.7984
20
-5.50202
11
5.79277
21
-5.49078
0
LINE
8
BLACK
6
CONTINUOUS
10
5.79277
20
-5.49078
11
5.79277
21
-5.45703
0
LINE
8
BLACK
6
CONTINUOUS
10
5.79277
20
-5.45703
11
5.7984
21
-5.44578
0
LINE
8
BLACK
6
CONTINUOUS
10
5.7984
20
-5.44578
11
5.80402
21
-5.44016
0
LINE
8
BLACK
6
CONTINUOUS
10
5.80402
20
-5.44016
11
5.81527
21
-5.43453
0
LINE
8
BLACK
6
CONTINUOUS
10
5.81527
20
-5.43453
11
5.83214
21
-5.43453
0
LINE
8
BLACK
6
CONTINUOUS
10
5.83214
20
-5.43453
11
5.84339
21
-5.44016
0
LINE
8
BLACK
6
CONTINUOUS
10
5.84339
20
-5.44016
11
5.84902
21
-5.44578
0
LINE
8
BLACK
6
CONTINUOUS
10
5.84902
20
-5.44578
11
5.85464
21
-5.45703
0
LINE
8
BLACK
6
CONTINUOUS
10
5.85464
20
-5.45703
11
5.85464
21
-5.49078
0
LINE
8
BLACK
6
CONTINUOUS
10
5.85464
20
-5.49078
11
5.84902
21
-5.50202
0
LINE
8
BLACK
6
CONTINUOUS
10
5.84902
20
-5.50202
11
5.84339
21
-5.50765
0
LINE
8
BLACK
6
CONTINUOUS
10
5.84339
20
-5.50765
11
5.83214
21
-5.51327
0
LINE
8
BLACK
6
CONTINUOUS
10
5.83214
20
-5.51327
11
5.81527
21
-5.51327
0
LINE
8
BLACK
6
CONTINUOUS
10
5.92213
20
-5.51327
11
5.91088
21
-5.50765
0
LINE
8
BLACK
6
CONTINUOUS
10
5.91088
20
-5.50765
11
5.90526
21
-5.4964
0
LINE
8
BLACK
6
CONTINUOUS
10
5.90526
20
-5.4964
11
5.90526
21
-5.39516
0
LINE
8
BLACK
6
CONTINUOUS
10
6.01212
20
-5.50765
11
6.00087
21
-5.51327
0
LINE
8
BLACK
6
CONTINUOUS
10
6.00087
20
-5.51327
11
5.97837
21
-5.51327
0
LINE
8
BLACK
6
CONTINUOUS
10
5.97837
20
-5.51327
11
5.96713
21
-5.50765
0
LINE
8
BLACK
6
CONTINUOUS
10
5.96713
20
-5.50765
11
5.9615
21
-5.4964
0
LINE
8
BLACK
6
CONTINUOUS
10
5.9615
20
-5.4964
11
5.9615
21
-5.45141
0
LINE
8
BLACK
6
CONTINUOUS
10
5.9615
20
-5.45141
11
5.96713
21
-5.44016
0
LINE
8
BLACK
6
CONTINUOUS
10
5.96713
20
-5.44016
11
5.97837
21
-5.43453
0
LINE
8
BLACK
6
CONTINUOUS
10
5.97837
20
-5.43453
11
6.00087
21
-5.43453
0
LINE
8
BLACK
6
CONTINUOUS
10
6.00087
20
-5.43453
11
6.01212
21
-5.44016
0
LINE
8
BLACK
6
CONTINUOUS
10
6.01212
20
-5.44016
11
6.01774
21
-5.45141
0
LINE
8
BLACK
6
CONTINUOUS
10
6.01774
20
-5.45141
11
6.01774
21
-5.46265
0
LINE
8
BLACK
6
CONTINUOUS
10
6.01774
20
-5.46265
11
5.9615
21
-5.4739
0
LINE
8
BLACK
6
CONTINUOUS
10
6.05711
20
-5.55827
11
6.06274
21
-5.55264
0
LINE
8
BLACK
6
CONTINUOUS
10
6.06274
20
-5.55264
11
6.07399
21
-5.53577
0
LINE
8
BLACK
6
CONTINUOUS
10
6.07399
20
-5.53577
11
6.07961
21
-5.52452
0
LINE
8
BLACK
6
CONTINUOUS
10
6.07961
20
-5.52452
11
6.08524
21
-5.50765
0
LINE
8
BLACK
6
CONTINUOUS
10
6.08524
20
-5.50765
11
6.09086
21
-5.47953
0
LINE
8
BLACK
6
CONTINUOUS
10
6.09086
20
-5.47953
11
6.09086
21
-5.45703
0
LINE
8
BLACK
6
CONTINUOUS
10
6.09086
20
-5.45703
11
6.08524
21
-5.42891
0
LINE
8
BLACK
6
CONTINUOUS
10
6.08524
20
-5.42891
11
6.07961
21
-5.41204
0
LINE
8
BLACK
6
CONTINUOUS
10
6.07961
20
-5.41204
11
6.07399
21
-5.40079
0
LINE
8
BLACK
6
CONTINUOUS
10
6.07399
20
-5.40079
11
6.06274
21
-5.38391
0
LINE
8
BLACK
6
CONTINUOUS
10
6.06274
20
-5.38391
11
6.05711
21
-5.37829
0
LINE
8
BLACK
6
CONTINUOUS
10
3.57933
20
-5.59606
11
3.57933
21
-5.63543
0
LINE
8
BLACK
6
CONTINUOUS
10
3.55965
20
-5.61575
11
3.59902
21
-5.61575
0
LINE
8
BLACK
6
CONTINUOUS
10
3.77365
20
-5.66918
11
3.70616
21
-5.66918
0
LINE
8
BLACK
6
CONTINUOUS
10
3.7399
20
-5.66918
11
3.7399
21
-5.55107
0
LINE
8
BLACK
6
CONTINUOUS
10
3.7399
20
-5.55107
11
3.72866
21
-5.56794
0
LINE
8
BLACK
6
CONTINUOUS
10
3.72866
20
-5.56794
11
3.71741
21
-5.57919
0
LINE
8
BLACK
6
CONTINUOUS
10
3.71741
20
-5.57919
11
3.70616
21
-5.58481
0
LINE
8
BLACK
6
CONTINUOUS
10
3.82427
20
-5.65793
11
3.82989
21
-5.66355
0
LINE
8
BLACK
6
CONTINUOUS
10
3.82989
20
-5.66355
11
3.82427
21
-5.66918
0
LINE
8
BLACK
6
CONTINUOUS
10
3.82427
20
-5.66918
11
3.81864
21
-5.66355
0
LINE
8
BLACK
6
CONTINUOUS
10
3.81864
20
-5.66355
11
3.82427
21
-5.65793
0
LINE
8
BLACK
6
CONTINUOUS
10
3.82427
20
-5.65793
11
3.82427
21
-5.66918
0
LINE
8
BLACK
6
CONTINUOUS
10
3.90301
20
-5.55107
11
3.91426
21
-5.55107
0
LINE
8
BLACK
6
CONTINUOUS
10
3.91426
20
-5.55107
11
3.92551
21
-5.55669
0
LINE
8
BLACK
6
CONTINUOUS
10
3.92551
20
-5.55669
11
3.93113
21
-5.56232
0
LINE
8
BLACK
6
CONTINUOUS
10
3.93113
20
-5.56232
11
3.93675
21
-5.57357
0
LINE
8
BLACK
6
CONTINUOUS
10
3.93675
20
-5.57357
11
3.94238
21
-5.59606
0
LINE
8
BLACK
6
CONTINUOUS
10
3.94238
20
-5.59606
11
3.94238
21
-5.62418
0
LINE
8
BLACK
6
CONTINUOUS
10
3.94238
20
-5.62418
11
3.93675
21
-5.64668
0
LINE
8
BLACK
6
CONTINUOUS
10
3.93675
20
-5.64668
11
3.93113
21
-5.65793
0
LINE
8
BLACK
6
CONTINUOUS
10
3.93113
20
-5.65793
11
3.92551
21
-5.66355
0
LINE
8
BLACK
6
CONTINUOUS
10
3.92551
20
-5.66355
11
3.91426
21
-5.66918
0
LINE
8
BLACK
6
CONTINUOUS
10
3.91426
20
-5.66918
11
3.90301
21
-5.66918
0
LINE
8
BLACK
6
CONTINUOUS
10
3.90301
20
-5.66918
11
3.89176
21
-5.66355
0
LINE
8
BLACK
6
CONTINUOUS
10
3.89176
20
-5.66355
11
3.88614
21
-5.65793
0
LINE
8
BLACK
6
CONTINUOUS
10
3.88614
20
-5.65793
11
3.88051
21
-5.64668
0
LINE
8
BLACK
6
CONTINUOUS
10
3.88051
20
-5.64668
11
3.87489
21
-5.62418
0
LINE
8
BLACK
6
CONTINUOUS
10
3.87489
20
-5.62418
11
3.87489
21
-5.59606
0
LINE
8
BLACK
6
CONTINUOUS
10
3.87489
20
-5.59606
11
3.88051
21
-5.57357
0
LINE
8
BLACK
6
CONTINUOUS
10
3.88051
20
-5.57357
11
3.88614
21
-5.56232
0
LINE
8
BLACK
6
CONTINUOUS
10
3.88614
20
-5.56232
11
3.89176
21
-5.55669
0
LINE
8
BLACK
6
CONTINUOUS
10
3.89176
20
-5.55669
11
3.90301
21
-5.55107
0
LINE
8
BLACK
6
CONTINUOUS
10
4.01549
20
-5.55107
11
4.02674
21
-5.55107
0
LINE
8
BLACK
6
CONTINUOUS
10
4.02674
20
-5.55107
11
4.03799
21
-5.55669
0
LINE
8
BLACK
6
CONTINUOUS
10
4.03799
20
-5.55669
11
4.04362
21
-5.56232
0
LINE
8
BLACK
6
CONTINUOUS
10
4.04362
20
-5.56232
11
4.04924
21
-5.57357
0
LINE
8
BLACK
6
CONTINUOUS
10
4.04924
20
-5.57357
11
4.05486
21
-5.59606
0
LINE
8
BLACK
6
CONTINUOUS
10
4.05486
20
-5.59606
11
4.05486
21
-5.62418
0
LINE
8
BLACK
6
CONTINUOUS
10
4.05486
20
-5.62418
11
4.04924
21
-5.64668
0
LINE
8
BLACK
6
CONTINUOUS
10
4.04924
20
-5.64668
11
4.04362
21
-5.65793
0
LINE
8
BLACK
6
CONTINUOUS
10
4.04362
20
-5.65793
11
4.03799
21
-5.66355
0
LINE
8
BLACK
6
CONTINUOUS
10
4.03799
20
-5.66355
11
4.02674
21
-5.66918
0
LINE
8
BLACK
6
CONTINUOUS
10
4.02674
20
-5.66918
11
4.01549
21
-5.66918
0
LINE
8
BLACK
6
CONTINUOUS
10
4.01549
20
-5.66918
11
4.00425
21
-5.66355
0
LINE
8
BLACK
6
CONTINUOUS
10
4.00425
20
-5.66355
11
3.99862
21
-5.65793
0
LINE
8
BLACK
6
CONTINUOUS
10
3.99862
20
-5.65793
11
3.993
21
-5.64668
0
LINE
8
BLACK
6
CONTINUOUS
10
3.993
20
-5.64668
11
3.98737
21
-5.62418
0
LINE
8
BLACK
6
CONTINUOUS
10
3.98737
20
-5.62418
11
3.98737
21
-5.59606
0
LINE
8
BLACK
6
CONTINUOUS
10
3.98737
20
-5.59606
11
3.993
21
-5.57357
0
LINE
8
BLACK
6
CONTINUOUS
10
3.993
20
-5.57357
11
3.99862
21
-5.56232
0
LINE
8
BLACK
6
CONTINUOUS
10
3.99862
20
-5.56232
11
4.00425
21
-5.55669
0
LINE
8
BLACK
6
CONTINUOUS
10
4.00425
20
-5.55669
11
4.01549
21
-5.55107
0
LINE
8
BLACK
6
CONTINUOUS
10
4.10548
20
-5.66918
11
4.10548
21
-5.59044
0
LINE
8
BLACK
6
CONTINUOUS
10
4.10548
20
-5.60169
11
4.11111
21
-5.59606
0
LINE
8
BLACK
6
CONTINUOUS
10
4.11111
20
-5.59606
11
4.12236
21
-5.59044
0
LINE
8
BLACK
6
CONTINUOUS
10
4.12236
20
-5.59044
11
4.13923
21
-5.59044
0
LINE
8
BLACK
6
CONTINUOUS
10
4.13923
20
-5.59044
11
4.15048
21
-5.59606
0
LINE
8
BLACK
6
CONTINUOUS
10
4.15048
20
-5.59606
11
4.1561
21
-5.60731
0
LINE
8
BLACK
6
CONTINUOUS
10
4.1561
20
-5.60731
11
4.1561
21
-5.66918
0
LINE
8
BLACK
6
CONTINUOUS
10
4.1561
20
-5.60731
11
4.16173
21
-5.59606
0
LINE
8
BLACK
6
CONTINUOUS
10
4.16173
20
-5.59606
11
4.17298
21
-5.59044
0
LINE
8
BLACK
6
CONTINUOUS
10
4.17298
20
-5.59044
11
4.18985
21
-5.59044
0
LINE
8
BLACK
6
CONTINUOUS
10
4.18985
20
-5.59044
11
4.2011
21
-5.59606
0
LINE
8
BLACK
6
CONTINUOUS
10
4.2011
20
-5.59606
11
4.20672
21
-5.60731
0
LINE
8
BLACK
6
CONTINUOUS
10
4.20672
20
-5.60731
11
4.20672
21
-5.66918
0
LINE
8
BLACK
6
CONTINUOUS
10
4.26296
20
-5.66918
11
4.26296
21
-5.59044
0
LINE
8
BLACK
6
CONTINUOUS
10
4.26296
20
-5.60169
11
4.26859
21
-5.59606
0
LINE
8
BLACK
6
CONTINUOUS
10
4.26859
20
-5.59606
11
4.27984
21
-5.59044
0
LINE
8
BLACK
6
CONTINUOUS
10
4.27984
20
-5.59044
11
4.29671
21
-5.59044
0
LINE
8
BLACK
6
CONTINUOUS
10
4.29671
20
-5.59044
11
4.30796
21
-5.59606
0
LINE
8
BLACK
6
CONTINUOUS
10
4.30796
20
-5.59606
11
4.31358
21
-5.60731
0
LINE
8
BLACK
6
CONTINUOUS
10
4.31358
20
-5.60731
11
4.31358
21
-5.66918
0
LINE
8
BLACK
6
CONTINUOUS
10
4.31358
20
-5.60731
11
4.31921
21
-5.59606
0
LINE
8
BLACK
6
CONTINUOUS
10
4.31921
20
-5.59606
11
4.33046
21
-5.59044
0
LINE
8
BLACK
6
CONTINUOUS
10
4.33046
20
-5.59044
11
4.34733
21
-5.59044
0
LINE
8
BLACK
6
CONTINUOUS
10
4.34733
20
-5.59044
11
4.35858
21
-5.59606
0
LINE
8
BLACK
6
CONTINUOUS
10
4.35858
20
-5.59606
11
4.3642
21
-5.60731
0
LINE
8
BLACK
6
CONTINUOUS
10
4.3642
20
-5.60731
11
4.3642
21
-5.66918
0
LINE
8
BLACK
6
CONTINUOUS
10
4.5948
20
-5.54544
11
4.49356
21
-5.6973
0
LINE
8
BLACK
6
CONTINUOUS
10
4.74665
20
-5.55107
11
4.7579
21
-5.55107
0
LINE
8
BLACK
6
CONTINUOUS
10
4.7579
20
-5.55107
11
4.76915
21
-5.55669
0
LINE
8
BLACK
6
CONTINUOUS
10
4.76915
20
-5.55669
11
4.77477
21
-5.56232
0
LINE
8
BLACK
6
CONTINUOUS
10
4.77477
20
-5.56232
11
4.7804
21
-5.57357
0
LINE
8
BLACK
6
CONTINUOUS
10
4.7804
20
-5.57357
11
4.78602
21
-5.59606
0
LINE
8
BLACK
6
CONTINUOUS
10
4.78602
20
-5.59606
11
4.78602
21
-5.62418
0
LINE
8
BLACK
6
CONTINUOUS
10
4.78602
20
-5.62418
11
4.7804
21
-5.64668
0
LINE
8
BLACK
6
CONTINUOUS
10
4.7804
20
-5.64668
11
4.77477
21
-5.65793
0
LINE
8
BLACK
6
CONTINUOUS
10
4.77477
20
-5.65793
11
4.76915
21
-5.66355
0
LINE
8
BLACK
6
CONTINUOUS
10
4.76915
20
-5.66355
11
4.7579
21
-5.66918
0
LINE
8
BLACK
6
CONTINUOUS
10
4.7579
20
-5.66918
11
4.74665
21
-5.66918
0
LINE
8
BLACK
6
CONTINUOUS
10
4.74665
20
-5.66918
11
4.7354
21
-5.66355
0
LINE
8
BLACK
6
CONTINUOUS
10
4.7354
20
-5.66355
11
4.72978
21
-5.65793
0
LINE
8
BLACK
6
CONTINUOUS
10
4.72978
20
-5.65793
11
4.72416
21
-5.64668
0
LINE
8
BLACK
6
CONTINUOUS
10
4.72416
20
-5.64668
11
4.71853
21
-5.62418
0
LINE
8
BLACK
6
CONTINUOUS
10
4.71853
20
-5.62418
11
4.71853
21
-5.59606
0
LINE
8
BLACK
6
CONTINUOUS
10
4.71853
20
-5.59606
11
4.72416
21
-5.57357
0
LINE
8
BLACK
6
CONTINUOUS
10
4.72416
20
-5.57357
11
4.72978
21
-5.56232
0
LINE
8
BLACK
6
CONTINUOUS
10
4.72978
20
-5.56232
11
4.7354
21
-5.55669
0
LINE
8
BLACK
6
CONTINUOUS
10
4.7354
20
-5.55669
11
4.74665
21
-5.55107
0
LINE
8
BLACK
6
CONTINUOUS
10
4.83664
20
-5.65793
11
4.84227
21
-5.66355
0
LINE
8
BLACK
6
CONTINUOUS
10
4.84227
20
-5.66355
11
4.83664
21
-5.66918
0
LINE
8
BLACK
6
CONTINUOUS
10
4.83664
20
-5.66918
11
4.83102
21
-5.66355
0
LINE
8
BLACK
6
CONTINUOUS
10
4.83102
20
-5.66355
11
4.83664
21
-5.65793
0
LINE
8
BLACK
6
CONTINUOUS
10
4.83664
20
-5.65793
11
4.83664
21
-5.66918
0
LINE
8
BLACK
6
CONTINUOUS
10
4.91538
20
-5.55107
11
4.92663
21
-5.55107
0
LINE
8
BLACK
6
CONTINUOUS
10
4.92663
20
-5.55107
11
4.93788
21
-5.55669
0
LINE
8
BLACK
6
CONTINUOUS
10
4.93788
20
-5.55669
11
4.9435
21
-5.56232
0
LINE
8
BLACK
6
CONTINUOUS
10
4.9435
20
-5.56232
11
4.94913
21
-5.57357
0
LINE
8
BLACK
6
CONTINUOUS
10
4.94913
20
-5.57357
11
4.95475
21
-5.59606
0
LINE
8
BLACK
6
CONTINUOUS
10
4.95475
20
-5.59606
11
4.95475
21
-5.62418
0
LINE
8
BLACK
6
CONTINUOUS
10
4.95475
20
-5.62418
11
4.94913
21
-5.64668
0
LINE
8
BLACK
6
CONTINUOUS
10
4.94913
20
-5.64668
11
4.9435
21
-5.65793
0
LINE
8
BLACK
6
CONTINUOUS
10
4.9435
20
-5.65793
11
4.93788
21
-5.66355
0
LINE
8
BLACK
6
CONTINUOUS
10
4.93788
20
-5.66355
11
4.92663
21
-5.66918
0
LINE
8
BLACK
6
CONTINUOUS
10
4.92663
20
-5.66918
11
4.91538
21
-5.66918
0
LINE
8
BLACK
6
CONTINUOUS
10
4.91538
20
-5.66918
11
4.90413
21
-5.66355
0
LINE
8
BLACK
6
CONTINUOUS
10
4.90413
20
-5.66355
11
4.89851
21
-5.65793
0
LINE
8
BLACK
6
CONTINUOUS
10
4.89851
20
-5.65793
11
4.89289
21
-5.64668
0
LINE
8
BLACK
6
CONTINUOUS
10
4.89289
20
-5.64668
11
4.88726
21
-5.62418
0
LINE
8
BLACK
6
CONTINUOUS
10
4.88726
20
-5.62418
11
4.88726
21
-5.59606
0
LINE
8
BLACK
6
CONTINUOUS
10
4.88726
20
-5.59606
11
4.89289
21
-5.57357
0
LINE
8
BLACK
6
CONTINUOUS
10
4.89289
20
-5.57357
11
4.89851
21
-5.56232
0
LINE
8
BLACK
6
CONTINUOUS
10
4.89851
20
-5.56232
11
4.90413
21
-5.55669
0
LINE
8
BLACK
6
CONTINUOUS
10
4.90413
20
-5.55669
11
4.91538
21
-5.55107
0
LINE
8
BLACK
6
CONTINUOUS
10
4.99412
20
-5.55107
11
5.06724
21
-5.55107
0
LINE
8
BLACK
6
CONTINUOUS
10
5.06724
20
-5.55107
11
5.02787
21
-5.59606
0
LINE
8
BLACK
6
CONTINUOUS
10
5.02787
20
-5.59606
11
5.04474
21
-5.59606
0
LINE
8
BLACK
6
CONTINUOUS
10
5.04474
20
-5.59606
11
5.05599
21
-5.60169
0
LINE
8
BLACK
6
CONTINUOUS
10
5.05599
20
-5.60169
11
5.06161
21
-5.60731
0
LINE
8
BLACK
6
CONTINUOUS
10
5.06161
20
-5.60731
11
5.06724
21
-5.61856
0
LINE
8
BLACK
6
CONTINUOUS
10
5.06724
20
-5.61856
11
5.06724
21
-5.64668
0
LINE
8
BLACK
6
CONTINUOUS
10
5.06724
20
-5.64668
11
5.06161
21
-5.65793
0
LINE
8
BLACK
6
CONTINUOUS
10
5.06161
20
-5.65793
11
5.05599
21
-5.66355
0
LINE
8
BLACK
6
CONTINUOUS
10
5.05599
20
-5.66355
11
5.04474
21
-5.66918
0
LINE
8
BLACK
6
CONTINUOUS
10
5.04474
20
-5.66918
11
5.011
21
-5.66918
0
LINE
8
BLACK
6
CONTINUOUS
10
5.011
20
-5.66918
11
4.99975
21
-5.66355
0
LINE
8
BLACK
6
CONTINUOUS
10
4.99975
20
-5.66355
11
4.99412
21
-5.65793
0
LINE
8
BLACK
6
CONTINUOUS
10
5.12348
20
-5.66918
11
5.14598
21
-5.66918
0
LINE
8
BLACK
6
CONTINUOUS
10
5.14598
20
-5.66918
11
5.15723
21
-5.66355
0
LINE
8
BLACK
6
CONTINUOUS
10
5.15723
20
-5.66355
11
5.16285
21
-5.65793
0
LINE
8
BLACK
6
CONTINUOUS
10
5.16285
20
-5.65793
11
5.1741
21
-5.64106
0
LINE
8
BLACK
6
CONTINUOUS
10
5.1741
20
-5.64106
11
5.17972
21
-5.61856
0
LINE
8
BLACK
6
CONTINUOUS
10
5.17972
20
-5.61856
11
5.17972
21
-5.57357
0
LINE
8
BLACK
6
CONTINUOUS
10
5.17972
20
-5.57357
11
5.1741
21
-5.56232
0
LINE
8
BLACK
6
CONTINUOUS
10
5.1741
20
-5.56232
11
5.16848
21
-5.55669
0
LINE
8
BLACK
6
CONTINUOUS
10
5.16848
20
-5.55669
11
5.15723
21
-5.55107
0
LINE
8
BLACK
6
CONTINUOUS
10
5.15723
20
-5.55107
11
5.13473
21
-5.55107
0
LINE
8
BLACK
6
CONTINUOUS
10
5.13473
20
-5.55107
11
5.12348
21
-5.55669
0
LINE
8
BLACK
6
CONTINUOUS
10
5.12348
20
-5.55669
11
5.11786
21
-5.56232
0
LINE
8
BLACK
6
CONTINUOUS
10
5.11786
20
-5.56232
11
5.11223
21
-5.57357
0
LINE
8
BLACK
6
CONTINUOUS
10
5.11223
20
-5.57357
11
5.11223
21
-5.60169
0
LINE
8
BLACK
6
CONTINUOUS
10
5.11223
20
-5.60169
11
5.11786
21
-5.61294
0
LINE
8
BLACK
6
CONTINUOUS
10
5.11786
20
-5.61294
11
5.12348
21
-5.61856
0
LINE
8
BLACK
6
CONTINUOUS
10
5.12348
20
-5.61856
11
5.13473
21
-5.62418
0
LINE
8
BLACK
6
CONTINUOUS
10
5.13473
20
-5.62418
11
5.15723
21
-5.62418
0
LINE
8
BLACK
6
CONTINUOUS
10
5.15723
20
-5.62418
11
5.16848
21
-5.61856
0
LINE
8
BLACK
6
CONTINUOUS
10
5.16848
20
-5.61856
11
5.1741
21
-5.61294
0
LINE
8
BLACK
6
CONTINUOUS
10
5.1741
20
-5.61294
11
5.17972
21
-5.60169
0
LINE
8
BLACK
6
CONTINUOUS
10
5.22472
20
-5.55107
11
5.22472
21
-5.57357
0
LINE
8
BLACK
6
CONTINUOUS
10
5.26971
20
-5.55107
11
5.26971
21
-5.57357
0
LINE
8
BLACK
6
CONTINUOUS
10
5.44407
20
-5.71417
11
5.43844
21
-5.70855
0
LINE
8
BLACK
6
CONTINUOUS
10
5.43844
20
-5.70855
11
5.42719
21
-5.69168
0
LINE
8
BLACK
6
CONTINUOUS
10
5.42719
20
-5.69168
11
5.42157
21
-5.68043
0
LINE
8
BLACK
6
CONTINUOUS
10
5.42157
20
-5.68043
11
5.41594
21
-5.66355
0
LINE
8
BLACK
6
CONTINUOUS
10
5.41594
20
-5.66355
11
5.41032
21
-5.63543
0
LINE
8
BLACK
6
CONTINUOUS
10
5.41032
20
-5.63543
11
5.41032
21
-5.61294
0
LINE
8
BLACK
6
CONTINUOUS
10
5.41032
20
-5.61294
11
5.41594
21
-5.58481
0
LINE
8
BLACK
6
CONTINUOUS
10
5.41594
20
-5.58481
11
5.42157
21
-5.56794
0
LINE
8
BLACK
6
CONTINUOUS
10
5.42157
20
-5.56794
11
5.42719
21
-5.55669
0
LINE
8
BLACK
6
CONTINUOUS
10
5.42719
20
-5.55669
11
5.43844
21
-5.53982
0
LINE
8
BLACK
6
CONTINUOUS
10
5.43844
20
-5.53982
11
5.44407
21
-5.5342
0
LINE
8
BLACK
6
CONTINUOUS
10
5.47781
20
-5.55107
11
5.55093
21
-5.55107
0
LINE
8
BLACK
6
CONTINUOUS
10
5.55093
20
-5.55107
11
5.51156
21
-5.59606
0
LINE
8
BLACK
6
CONTINUOUS
10
5.51156
20
-5.59606
11
5.52843
21
-5.59606
0
LINE
8
BLACK
6
CONTINUOUS
10
5.52843
20
-5.59606
11
5.53968
21
-5.60169
0
LINE
8
BLACK
6
CONTINUOUS
10
5.53968
20
-5.60169
11
5.5453
21
-5.60731
0
LINE
8
BLACK
6
CONTINUOUS
10
5.5453
20
-5.60731
11
5.55093
21
-5.61856
0
LINE
8
BLACK
6
CONTINUOUS
10
5.55093
20
-5.61856
11
5.55093
21
-5.64668
0
LINE
8
BLACK
6
CONTINUOUS
10
5.55093
20
-5.64668
11
5.5453
21
-5.65793
0
LINE
8
BLACK
6
CONTINUOUS
10
5.5453
20
-5.65793
11
5.53968
21
-5.66355
0
LINE
8
BLACK
6
CONTINUOUS
10
5.53968
20
-5.66355
11
5.52843
21
-5.66918
0
LINE
8
BLACK
6
CONTINUOUS
10
5.52843
20
-5.66918
11
5.49468
21
-5.66918
0
LINE
8
BLACK
6
CONTINUOUS
10
5.49468
20
-5.66918
11
5.48344
21
-5.66355
0
LINE
8
BLACK
6
CONTINUOUS
10
5.48344
20
-5.66355
11
5.47781
21
-5.65793
0
LINE
8
BLACK
6
CONTINUOUS
10
5.69154
20
-5.66918
11
5.69154
21
-5.55107
0
LINE
8
BLACK
6
CONTINUOUS
10
5.74215
20
-5.66918
11
5.74215
21
-5.60731
0
LINE
8
BLACK
6
CONTINUOUS
10
5.74215
20
-5.60731
11
5.73653
21
-5.59606
0
LINE
8
BLACK
6
CONTINUOUS
10
5.73653
20
-5.59606
11
5.72528
21
-5.59044
0
LINE
8
BLACK
6
CONTINUOUS
10
5.72528
20
-5.59044
11
5.70841
21
-5.59044
0
LINE
8
BLACK
6
CONTINUOUS
10
5.70841
20
-5.59044
11
5.69716
21
-5.59606
0
LINE
8
BLACK
6
CONTINUOUS
10
5.69716
20
-5.59606
11
5.69154
21
-5.60169
0
LINE
8
BLACK
6
CONTINUOUS
10
5.81527
20
-5.66918
11
5.80402
21
-5.66355
0
LINE
8
BLACK
6
CONTINUOUS
10
5.80402
20
-5.66355
11
5.7984
21
-5.65793
0
LINE
8
BLACK
6
CONTINUOUS
10
5.7984
20
-5.65793
11
5.79277
21
-5.64668
0
LINE
8
BLACK
6
CONTINUOUS
10
5.79277
20
-5.64668
11
5.79277
21
-5.61294
0
LINE
8
BLACK
6
CONTINUOUS
10
5.79277
20
-5.61294
11
5.7984
21
-5.60169
0
LINE
8
BLACK
6
CONTINUOUS
10
5.7984
20
-5.60169
11
5.80402
21
-5.59606
0
LINE
8
BLACK
6
CONTINUOUS
10
5.80402
20
-5.59606
11
5.81527
21
-5.59044
0
LINE
8
BLACK
6
CONTINUOUS
10
5.81527
20
-5.59044
11
5.83214
21
-5.59044
0
LINE
8
BLACK
6
CONTINUOUS
10
5.83214
20
-5.59044
11
5.84339
21
-5.59606
0
LINE
8
BLACK
6
CONTINUOUS
10
5.84339
20
-5.59606
11
5.84902
21
-5.60169
0
LINE
8
BLACK
6
CONTINUOUS
10
5.84902
20
-5.60169
11
5.85464
21
-5.61294
0
LINE
8
BLACK
6
CONTINUOUS
10
5.85464
20
-5.61294
11
5.85464
21
-5.64668
0
LINE
8
BLACK
6
CONTINUOUS
10
5.85464
20
-5.64668
11
5.84902
21
-5.65793
0
LINE
8
BLACK
6
CONTINUOUS
10
5.84902
20
-5.65793
11
5.84339
21
-5.66355
0
LINE
8
BLACK
6
CONTINUOUS
10
5.84339
20
-5.66355
11
5.83214
21
-5.66918
0
LINE
8
BLACK
6
CONTINUOUS
10
5.83214
20
-5.66918
11
5.81527
21
-5.66918
0
LINE
8
BLACK
6
CONTINUOUS
10
5.92213
20
-5.66918
11
5.91088
21
-5.66355
0
LINE
8
BLACK
6
CONTINUOUS
10
5.91088
20
-5.66355
11
5.90526
21
-5.65231
0
LINE
8
BLACK
6
CONTINUOUS
10
5.90526
20
-5.65231
11
5.90526
21
-5.55107
0
LINE
8
BLACK
6
CONTINUOUS
10
6.01212
20
-5.66355
11
6.00087
21
-5.66918
0
LINE
8
BLACK
6
CONTINUOUS
10
6.00087
20
-5.66918
11
5.97837
21
-5.66918
0
LINE
8
BLACK
6
CONTINUOUS
10
5.97837
20
-5.66918
11
5.96713
21
-5.66355
0
LINE
8
BLACK
6
CONTINUOUS
10
5.96713
20
-5.66355
11
5.9615
21
-5.65231
0
LINE
8
BLACK
6
CONTINUOUS
10
5.9615
20
-5.65231
11
5.9615
21
-5.60731
0
LINE
8
BLACK
6
CONTINUOUS
10
5.9615
20
-5.60731
11
5.96713
21
-5.59606
0
LINE
8
BLACK
6
CONTINUOUS
10
5.96713
20
-5.59606
11
5.97837
21
-5.59044
0
LINE
8
BLACK
6
CONTINUOUS
10
5.97837
20
-5.59044
11
6.00087
21
-5.59044
0
LINE
8
BLACK
6
CONTINUOUS
10
6.00087
20
-5.59044
11
6.01212
21
-5.59606
0
LINE
8
BLACK
6
CONTINUOUS
10
6.01212
20
-5.59606
11
6.01774
21
-5.60731
0
LINE
8
BLACK
6
CONTINUOUS
10
6.01774
20
-5.60731
11
6.01774
21
-5.61856
0
LINE
8
BLACK
6
CONTINUOUS
10
6.01774
20
-5.61856
11
5.9615
21
-5.62981
0
LINE
8
BLACK
6
CONTINUOUS
10
6.06274
20
-5.66355
11
6.07399
21
-5.66918
0
LINE
8
BLACK
6
CONTINUOUS
10
6.07399
20
-5.66918
11
6.09648
21
-5.66918
0
LINE
8
BLACK
6
CONTINUOUS
10
6.09648
20
-5.66918
11
6.10773
21
-5.66355
0
LINE
8
BLACK
6
CONTINUOUS
10
6.10773
20
-5.66355
11
6.11336
21
-5.65231
0
LINE
8
BLACK
6
CONTINUOUS
10
6.11336
20
-5.65231
11
6.11336
21
-5.64668
0
LINE
8
BLACK
6
CONTINUOUS
10
6.11336
20
-5.64668
11
6.10773
21
-5.63543
0
LINE
8
BLACK
6
CONTINUOUS
10
6.10773
20
-5.63543
11
6.09648
21
-5.62981
0
LINE
8
BLACK
6
CONTINUOUS
10
6.09648
20
-5.62981
11
6.07961
21
-5.62981
0
LINE
8
BLACK
6
CONTINUOUS
10
6.07961
20
-5.62981
11
6.06836
21
-5.62418
0
LINE
8
BLACK
6
CONTINUOUS
10
6.06836
20
-5.62418
11
6.06274
21
-5.61294
0
LINE
8
BLACK
6
CONTINUOUS
10
6.06274
20
-5.61294
11
6.06274
21
-5.60731
0
LINE
8
BLACK
6
CONTINUOUS
10
6.06274
20
-5.60731
11
6.06836
21
-5.59606
0
LINE
8
BLACK
6
CONTINUOUS
10
6.06836
20
-5.59606
11
6.07961
21
-5.59044
0
LINE
8
BLACK
6
CONTINUOUS
10
6.07961
20
-5.59044
11
6.09648
21
-5.59044
0
LINE
8
BLACK
6
CONTINUOUS
10
6.09648
20
-5.59044
11
6.10773
21
-5.59606
0
LINE
8
BLACK
6
CONTINUOUS
10
6.15273
20
-5.71417
11
6.15835
21
-5.70855
0
LINE
8
BLACK
6
CONTINUOUS
10
6.15835
20
-5.70855
11
6.1696
21
-5.69168
0
LINE
8
BLACK
6
CONTINUOUS
10
6.1696
20
-5.69168
11
6.17522
21
-5.68043
0
LINE
8
BLACK
6
CONTINUOUS
10
6.17522
20
-5.68043
11
6.18085
21
-5.66355
0
LINE
8
BLACK
6
CONTINUOUS
10
6.18085
20
-5.66355
11
6.18647
21
-5.63543
0
LINE
8
BLACK
6
CONTINUOUS
10
6.18647
20
-5.63543
11
6.18647
21
-5.61294
0
LINE
8
BLACK
6
CONTINUOUS
10
6.18647
20
-5.61294
11
6.18085
21
-5.58481
0
LINE
8
BLACK
6
CONTINUOUS
10
6.18085
20
-5.58481
11
6.17522
21
-5.56794
0
LINE
8
BLACK
6
CONTINUOUS
10
6.17522
20
-5.56794
11
6.1696
21
-5.55669
0
LINE
8
BLACK
6
CONTINUOUS
10
6.1696
20
-5.55669
11
6.15835
21
-5.53982
0
LINE
8
BLACK
6
CONTINUOUS
10
6.15835
20
-5.53982
11
6.15273
21
-5.5342
0
LINE
8
BLACK
6
CONTINUOUS
10
3.59316
20
-5.7858
11
3.59316
21
-5.75751
0
LINE
8
BLACK
6
CONTINUOUS
10
3.59316
20
-5.75751
11
3.56487
21
-5.75751
0
LINE
8
BLACK
6
CONTINUOUS
10
3.56487
20
-5.75751
11
3.56487
21
-5.7858
0
LINE
8
BLACK
6
CONTINUOUS
10
3.56487
20
-5.7858
11
3.59316
21
-5.7858
0
LINE
8
BLACK
6
CONTINUOUS
10
3.77365
20
-5.82508
11
3.70616
21
-5.82508
0
LINE
8
BLACK
6
CONTINUOUS
10
3.7399
20
-5.82508
11
3.7399
21
-5.70697
0
LINE
8
BLACK
6
CONTINUOUS
10
3.7399
20
-5.70697
11
3.72866
21
-5.72385
0
LINE
8
BLACK
6
CONTINUOUS
10
3.72866
20
-5.72385
11
3.71741
21
-5.7351
0
LINE
8
BLACK
6
CONTINUOUS
10
3.71741
20
-5.7351
11
3.70616
21
-5.74072
0
LINE
8
BLACK
6
CONTINUOUS
10
3.82427
20
-5.81384
11
3.82989
21
-5.81946
0
LINE
8
BLACK
6
CONTINUOUS
10
3.82989
20
-5.81946
11
3.82427
21
-5.82508
0
LINE
8
BLACK
6
CONTINUOUS
10
3.82427
20
-5.82508
11
3.81864
21
-5.81946
0
LINE
8
BLACK
6
CONTINUOUS
10
3.81864
20
-5.81946
11
3.82427
21
-5.81384
0
LINE
8
BLACK
6
CONTINUOUS
10
3.82427
20
-5.81384
11
3.82427
21
-5.82508
0
LINE
8
BLACK
6
CONTINUOUS
10
3.90301
20
-5.70697
11
3.91426
21
-5.70697
0
LINE
8
BLACK
6
CONTINUOUS
10
3.91426
20
-5.70697
11
3.92551
21
-5.7126
0
LINE
8
BLACK
6
CONTINUOUS
10
3.92551
20
-5.7126
11
3.93113
21
-5.71822
0
LINE
8
BLACK
6
CONTINUOUS
10
3.93113
20
-5.71822
11
3.93675
21
-5.72947
0
LINE
8
BLACK
6
CONTINUOUS
10
3.93675
20
-5.72947
11
3.94238
21
-5.75197
0
LINE
8
BLACK
6
CONTINUOUS
10
3.94238
20
-5.75197
11
3.94238
21
-5.78009
0
LINE
8
BLACK
6
CONTINUOUS
10
3.94238
20
-5.78009
11
3.93675
21
-5.80259
0
LINE
8
BLACK
6
CONTINUOUS
10
3.93675
20
-5.80259
11
3.93113
21
-5.81384
0
LINE
8
BLACK
6
CONTINUOUS
10
3.93113
20
-5.81384
11
3.92551
21
-5.81946
0
LINE
8
BLACK
6
CONTINUOUS
10
3.92551
20
-5.81946
11
3.91426
21
-5.82508
0
LINE
8
BLACK
6
CONTINUOUS
10
3.91426
20
-5.82508
11
3.90301
21
-5.82508
0
LINE
8
BLACK
6
CONTINUOUS
10
3.90301
20
-5.82508
11
3.89176
21
-5.81946
0
LINE
8
BLACK
6
CONTINUOUS
10
3.89176
20
-5.81946
11
3.88614
21
-5.81384
0
LINE
8
BLACK
6
CONTINUOUS
10
3.88614
20
-5.81384
11
3.88051
21
-5.80259
0
LINE
8
BLACK
6
CONTINUOUS
10
3.88051
20
-5.80259
11
3.87489
21
-5.78009
0
LINE
8
BLACK
6
CONTINUOUS
10
3.87489
20
-5.78009
11
3.87489
21
-5.75197
0
LINE
8
BLACK
6
CONTINUOUS
10
3.87489
20
-5.75197
11
3.88051
21
-5.72947
0
LINE
8
BLACK
6
CONTINUOUS
10
3.88051
20
-5.72947
11
3.88614
21
-5.71822
0
LINE
8
BLACK
6
CONTINUOUS
10
3.88614
20
-5.71822
11
3.89176
21
-5.7126
0
LINE
8
BLACK
6
CONTINUOUS
10
3.89176
20
-5.7126
11
3.90301
21
-5.70697
0
LINE
8
BLACK
6
CONTINUOUS
10
3.98737
20
-5.71822
11
3.993
21
-5.7126
0
LINE
8
BLACK
6
CONTINUOUS
10
3.993
20
-5.7126
11
4.00425
21
-5.70697
0
LINE
8
BLACK
6
CONTINUOUS
10
4.00425
20
-5.70697
11
4.03237
21
-5.70697
0
LINE
8
BLACK
6
CONTINUOUS
10
4.03237
20
-5.70697
11
4.04362
21
-5.7126
0
LINE
8
BLACK
6
CONTINUOUS
10
4.04362
20
-5.7126
11
4.04924
21
-5.71822
0
LINE
8
BLACK
6
CONTINUOUS
10
4.04924
20
-5.71822
11
4.05486
21
-5.72947
0
LINE
8
BLACK
6
CONTINUOUS
10
4.05486
20
-5.72947
11
4.05486
21
-5.74072
0
LINE
8
BLACK
6
CONTINUOUS
10
4.05486
20
-5.74072
11
4.04924
21
-5.75759
0
LINE
8
BLACK
6
CONTINUOUS
10
4.04924
20
-5.75759
11
3.98175
21
-5.82508
0
LINE
8
BLACK
6
CONTINUOUS
10
3.98175
20
-5.82508
11
4.05486
21
-5.82508
0
LINE
8
BLACK
6
CONTINUOUS
10
4.10548
20
-5.82508
11
4.10548
21
-5.74634
0
LINE
8
BLACK
6
CONTINUOUS
10
4.10548
20
-5.75759
11
4.11111
21
-5.75197
0
LINE
8
BLACK
6
CONTINUOUS
10
4.11111
20
-5.75197
11
4.12236
21
-5.74634
0
LINE
8
BLACK
6
CONTINUOUS
10
4.12236
20
-5.74634
11
4.13923
21
-5.74634
0
LINE
8
BLACK
6
CONTINUOUS
10
4.13923
20
-5.74634
11
4.15048
21
-5.75197
0
LINE
8
BLACK
6
CONTINUOUS
10
4.15048
20
-5.75197
11
4.1561
21
-5.76322
0
LINE
8
BLACK
6
CONTINUOUS
10
4.1561
20
-5.76322
11
4.1561
21
-5.82508
0
LINE
8
BLACK
6
CONTINUOUS
10
4.1561
20
-5.76322
11
4.16173
21
-5.75197
0
LINE
8
BLACK
6
CONTINUOUS
10
4.16173
20
-5.75197
11
4.17298
21
-5.74634
0
LINE
8
BLACK
6
CONTINUOUS
10
4.17298
20
-5.74634
11
4.18985
21
-5.74634
0
LINE
8
BLACK
6
CONTINUOUS
10
4.18985
20
-5.74634
11
4.2011
21
-5.75197
0
LINE
8
BLACK
6
CONTINUOUS
10
4.2011
20
-5.75197
11
4.20672
21
-5.76322
0
LINE
8
BLACK
6
CONTINUOUS
10
4.20672
20
-5.76322
11
4.20672
21
-5.82508
0
LINE
8
BLACK
6
CONTINUOUS
10
4.26296
20
-5.82508
11
4.26296
21
-5.74634
0
LINE
8
BLACK
6
CONTINUOUS
10
4.26296
20
-5.75759
11
4.26859
21
-5.75197
0
LINE
8
BLACK
6
CONTINUOUS
10
4.26859
20
-5.75197
11
4.27984
21
-5.74634
0
LINE
8
BLACK
6
CONTINUOUS
10
4.27984
20
-5.74634
11
4.29671
21
-5.74634
0
LINE
8
BLACK
6
CONTINUOUS
10
4.29671
20
-5.74634
11
4.30796
21
-5.75197
0
LINE
8
BLACK
6
CONTINUOUS
10
4.30796
20
-5.75197
11
4.31358
21
-5.76322
0
LINE
8
BLACK
6
CONTINUOUS
10
4.31358
20
-5.76322
11
4.31358
21
-5.82508
0
LINE
8
BLACK
6
CONTINUOUS
10
4.31358
20
-5.76322
11
4.31921
21
-5.75197
0
LINE
8
BLACK
6
CONTINUOUS
10
4.31921
20
-5.75197
11
4.33046
21
-5.74634
0
LINE
8
BLACK
6
CONTINUOUS
10
4.33046
20
-5.74634
11
4.34733
21
-5.74634
0
LINE
8
BLACK
6
CONTINUOUS
10
4.34733
20
-5.74634
11
4.35858
21
-5.75197
0
LINE
8
BLACK
6
CONTINUOUS
10
4.35858
20
-5.75197
11
4.3642
21
-5.76322
0
LINE
8
BLACK
6
CONTINUOUS
10
4.3642
20
-5.76322
11
4.3642
21
-5.82508
0
LINE
8
BLACK
6
CONTINUOUS
10
4.5948
20
-5.70135
11
4.49356
21
-5.85321
0
LINE
8
BLACK
6
CONTINUOUS
10
4.74665
20
-5.70697
11
4.7579
21
-5.70697
0
LINE
8
BLACK
6
CONTINUOUS
10
4.7579
20
-5.70697
11
4.76915
21
-5.7126
0
LINE
8
BLACK
6
CONTINUOUS
10
4.76915
20
-5.7126
11
4.77477
21
-5.71822
0
LINE
8
BLACK
6
CONTINUOUS
10
4.77477
20
-5.71822
11
4.7804
21
-5.72947
0
LINE
8
BLACK
6
CONTINUOUS
10
4.7804
20
-5.72947
11
4.78602
21
-5.75197
0
LINE
8
BLACK
6
CONTINUOUS
10
4.78602
20
-5.75197
11
4.78602
21
-5.78009
0
LINE
8
BLACK
6
CONTINUOUS
10
4.78602
20
-5.78009
11
4.7804
21
-5.80259
0
LINE
8
BLACK
6
CONTINUOUS
10
4.7804
20
-5.80259
11
4.77477
21
-5.81384
0
LINE
8
BLACK
6
CONTINUOUS
10
4.77477
20
-5.81384
11
4.76915
21
-5.81946
0
LINE
8
BLACK
6
CONTINUOUS
10
4.76915
20
-5.81946
11
4.7579
21
-5.82508
0
LINE
8
BLACK
6
CONTINUOUS
10
4.7579
20
-5.82508
11
4.74665
21
-5.82508
0
LINE
8
BLACK
6
CONTINUOUS
10
4.74665
20
-5.82508
11
4.7354
21
-5.81946
0
LINE
8
BLACK
6
CONTINUOUS
10
4.7354
20
-5.81946
11
4.72978
21
-5.81384
0
LINE
8
BLACK
6
CONTINUOUS
10
4.72978
20
-5.81384
11
4.72416
21
-5.80259
0
LINE
8
BLACK
6
CONTINUOUS
10
4.72416
20
-5.80259
11
4.71853
21
-5.78009
0
LINE
8
BLACK
6
CONTINUOUS
10
4.71853
20
-5.78009
11
4.71853
21
-5.75197
0
LINE
8
BLACK
6
CONTINUOUS
10
4.71853
20
-5.75197
11
4.72416
21
-5.72947
0
LINE
8
BLACK
6
CONTINUOUS
10
4.72416
20
-5.72947
11
4.72978
21
-5.71822
0
LINE
8
BLACK
6
CONTINUOUS
10
4.72978
20
-5.71822
11
4.7354
21
-5.7126
0
LINE
8
BLACK
6
CONTINUOUS
10
4.7354
20
-5.7126
11
4.74665
21
-5.70697
0
LINE
8
BLACK
6
CONTINUOUS
10
4.83664
20
-5.81384
11
4.84227
21
-5.81946
0
LINE
8
BLACK
6
CONTINUOUS
10
4.84227
20
-5.81946
11
4.83664
21
-5.82508
0
LINE
8
BLACK
6
CONTINUOUS
10
4.83664
20
-5.82508
11
4.83102
21
-5.81946
0
LINE
8
BLACK
6
CONTINUOUS
10
4.83102
20
-5.81946
11
4.83664
21
-5.81384
0
LINE
8
BLACK
6
CONTINUOUS
10
4.83664
20
-5.81384
11
4.83664
21
-5.82508
0
LINE
8
BLACK
6
CONTINUOUS
10
4.91538
20
-5.70697
11
4.92663
21
-5.70697
0
LINE
8
BLACK
6
CONTINUOUS
10
4.92663
20
-5.70697
11
4.93788
21
-5.7126
0
LINE
8
BLACK
6
CONTINUOUS
10
4.93788
20
-5.7126
11
4.9435
21
-5.71822
0
LINE
8
BLACK
6
CONTINUOUS
10
4.9435
20
-5.71822
11
4.94913
21
-5.72947
0
LINE
8
BLACK
6
CONTINUOUS
10
4.94913
20
-5.72947
11
4.95475
21
-5.75197
0
LINE
8
BLACK
6
CONTINUOUS
10
4.95475
20
-5.75197
11
4.95475
21
-5.78009
0
LINE
8
BLACK
6
CONTINUOUS
10
4.95475
20
-5.78009
11
4.94913
21
-5.80259
0
LINE
8
BLACK
6
CONTINUOUS
10
4.94913
20
-5.80259
11
4.9435
21
-5.81384
0
LINE
8
BLACK
6
CONTINUOUS
10
4.9435
20
-5.81384
11
4.93788
21
-5.81946
0
LINE
8
BLACK
6
CONTINUOUS
10
4.93788
20
-5.81946
11
4.92663
21
-5.82508
0
LINE
8
BLACK
6
CONTINUOUS
10
4.92663
20
-5.82508
11
4.91538
21
-5.82508
0
LINE
8
BLACK
6
CONTINUOUS
10
4.91538
20
-5.82508
11
4.90413
21
-5.81946
0
LINE
8
BLACK
6
CONTINUOUS
10
4.90413
20
-5.81946
11
4.89851
21
-5.81384
0
LINE
8
BLACK
6
CONTINUOUS
10
4.89851
20
-5.81384
11
4.89289
21
-5.80259
0
LINE
8
BLACK
6
CONTINUOUS
10
4.89289
20
-5.80259
11
4.88726
21
-5.78009
0
LINE
8
BLACK
6
CONTINUOUS
10
4.88726
20
-5.78009
11
4.88726
21
-5.75197
0
LINE
8
BLACK
6
CONTINUOUS
10
4.88726
20
-5.75197
11
4.89289
21
-5.72947
0
LINE
8
BLACK
6
CONTINUOUS
10
4.89289
20
-5.72947
11
4.89851
21
-5.71822
0
LINE
8
BLACK
6
CONTINUOUS
10
4.89851
20
-5.71822
11
4.90413
21
-5.7126
0
LINE
8
BLACK
6
CONTINUOUS
10
4.90413
20
-5.7126
11
4.91538
21
-5.70697
0
LINE
8
BLACK
6
CONTINUOUS
10
5.05599
20
-5.74634
11
5.05599
21
-5.82508
0
LINE
8
BLACK
6
CONTINUOUS
10
5.02787
20
-5.70135
11
4.99975
21
-5.78571
0
LINE
8
BLACK
6
CONTINUOUS
10
4.99975
20
-5.78571
11
5.07286
21
-5.78571
0
LINE
8
BLACK
6
CONTINUOUS
10
5.14035
20
-5.70697
11
5.1516
21
-5.70697
0
LINE
8
BLACK
6
CONTINUOUS
10
5.1516
20
-5.70697
11
5.16285
21
-5.7126
0
LINE
8
BLACK
6
CONTINUOUS
10
5.16285
20
-5.7126
11
5.16848
21
-5.71822
0
LINE
8
BLACK
6
CONTINUOUS
10
5.16848
20
-5.71822
11
5.1741
21
-5.72947
0
LINE
8
BLACK
6
CONTINUOUS
10
5.1741
20
-5.72947
11
5.17972
21
-5.75197
0
LINE
8
BLACK
6
CONTINUOUS
10
5.17972
20
-5.75197
11
5.17972
21
-5.78009
0
LINE
8
BLACK
6
CONTINUOUS
10
5.17972
20
-5.78009
11
5.1741
21
-5.80259
0
LINE
8
BLACK
6
CONTINUOUS
10
5.1741
20
-5.80259
11
5.16848
21
-5.81384
0
LINE
8
BLACK
6
CONTINUOUS
10
5.16848
20
-5.81384
11
5.16285
21
-5.81946
0
LINE
8
BLACK
6
CONTINUOUS
10
5.16285
20
-5.81946
11
5.1516
21
-5.82508
0
LINE
8
BLACK
6
CONTINUOUS
10
5.1516
20
-5.82508
11
5.14035
21
-5.82508
0
LINE
8
BLACK
6
CONTINUOUS
10
5.14035
20
-5.82508
11
5.12911
21
-5.81946
0
LINE
8
BLACK
6
CONTINUOUS
10
5.12911
20
-5.81946
11
5.12348
21
-5.81384
0
LINE
8
BLACK
6
CONTINUOUS
10
5.12348
20
-5.81384
11
5.11786
21
-5.80259
0
LINE
8
BLACK
6
CONTINUOUS
10
5.11786
20
-5.80259
11
5.11223
21
-5.78009
0
LINE
8
BLACK
6
CONTINUOUS
10
5.11223
20
-5.78009
11
5.11223
21
-5.75197
0
LINE
8
BLACK
6
CONTINUOUS
10
5.11223
20
-5.75197
11
5.11786
21
-5.72947
0
LINE
8
BLACK
6
CONTINUOUS
10
5.11786
20
-5.72947
11
5.12348
21
-5.71822
0
LINE
8
BLACK
6
CONTINUOUS
10
5.12348
20
-5.71822
11
5.12911
21
-5.7126
0
LINE
8
BLACK
6
CONTINUOUS
10
5.12911
20
-5.7126
11
5.14035
21
-5.70697
0
LINE
8
BLACK
6
CONTINUOUS
10
5.22472
20
-5.70697
11
5.22472
21
-5.72947
0
LINE
8
BLACK
6
CONTINUOUS
10
5.26971
20
-5.70697
11
5.26971
21
-5.72947
0
LINE
8
BLACK
6
CONTINUOUS
10
5.44407
20
-5.87008
11
5.43844
21
-5.86445
0
LINE
8
BLACK
6
CONTINUOUS
10
5.43844
20
-5.86445
11
5.42719
21
-5.84758
0
LINE
8
BLACK
6
CONTINUOUS
10
5.42719
20
-5.84758
11
5.42157
21
-5.83633
0
LINE
8
BLACK
6
CONTINUOUS
10
5.42157
20
-5.83633
11
5.41594
21
-5.81946
0
LINE
8
BLACK
6
CONTINUOUS
10
5.41594
20
-5.81946
11
5.41032
21
-5.79134
0
LINE
8
BLACK
6
CONTINUOUS
10
5.41032
20
-5.79134
11
5.41032
21
-5.76884
0
LINE
8
BLACK
6
CONTINUOUS
10
5.41032
20
-5.76884
11
5.41594
21
-5.74072
0
LINE
8
BLACK
6
CONTINUOUS
10
5.41594
20
-5.74072
11
5.42157
21
-5.72385
0
LINE
8
BLACK
6
CONTINUOUS
10
5.42157
20
-5.72385
11
5.42719
21
-5.7126
0
LINE
8
BLACK
6
CONTINUOUS
10
5.42719
20
-5.7126
11
5.43844
21
-5.69573
0
LINE
8
BLACK
6
CONTINUOUS
10
5.43844
20
-5.69573
11
5.44407
21
-5.6901
0
LINE
8
BLACK
6
CONTINUOUS
10
5.50593
20
-5.75759
11
5.49468
21
-5.75197
0
LINE
8
BLACK
6
CONTINUOUS
10
5.49468
20
-5.75197
11
5.48906
21
-5.74634
0
LINE
8
BLACK
6
CONTINUOUS
10
5.48906
20
-5.74634
11
5.48344
21
-5.7351
0
LINE
8
BLACK
6
CONTINUOUS
10
5.48344
20
-5.7351
11
5.48344
21
-5.72947
0
LINE
8
BLACK
6
CONTINUOUS
10
5.48344
20
-5.72947
11
5.48906
21
-5.71822
0
LINE
8
BLACK
6
CONTINUOUS
10
5.48906
20
-5.71822
11
5.49468
21
-5.7126
0
LINE
8
BLACK
6
CONTINUOUS
10
5.49468
20
-5.7126
11
5.50593
21
-5.70697
0
LINE
8
BLACK
6
CONTINUOUS
10
5.50593
20
-5.70697
11
5.52843
21
-5.70697
0
LINE
8
BLACK
6
CONTINUOUS
10
5.52843
20
-5.70697
11
5.53968
21
-5.7126
0
LINE
8
BLACK
6
CONTINUOUS
10
5.53968
20
-5.7126
11
5.5453
21
-5.71822
0
LINE
8
BLACK
6
CONTINUOUS
10
5.5453
20
-5.71822
11
5.55093
21
-5.72947
0
LINE
8
BLACK
6
CONTINUOUS
10
5.55093
20
-5.72947
11
5.55093
21
-5.7351
0
LINE
8
BLACK
6
CONTINUOUS
10
5.55093
20
-5.7351
11
5.5453
21
-5.74634
0
LINE
8
BLACK
6
CONTINUOUS
10
5.5453
20
-5.74634
11
5.53968
21
-5.75197
0
LINE
8
BLACK
6
CONTINUOUS
10
5.53968
20
-5.75197
11
5.52843
21
-5.75759
0
LINE
8
BLACK
6
CONTINUOUS
10
5.52843
20
-5.75759
11
5.50593
21
-5.75759
0
LINE
8
BLACK
6
CONTINUOUS
10
5.50593
20
-5.75759
11
5.49468
21
-5.76322
0
LINE
8
BLACK
6
CONTINUOUS
10
5.49468
20
-5.76322
11
5.48906
21
-5.76884
0
LINE
8
BLACK
6
CONTINUOUS
10
5.48906
20
-5.76884
11
5.48344
21
-5.78009
0
LINE
8
BLACK
6
CONTINUOUS
10
5.48344
20
-5.78009
11
5.48344
21
-5.80259
0
LINE
8
BLACK
6
CONTINUOUS
10
5.48344
20
-5.80259
11
5.48906
21
-5.81384
0
LINE
8
BLACK
6
CONTINUOUS
10
5.48906
20
-5.81384
11
5.49468
21
-5.81946
0
LINE
8
BLACK
6
CONTINUOUS
10
5.49468
20
-5.81946
11
5.50593
21
-5.82508
0
LINE
8
BLACK
6
CONTINUOUS
10
5.50593
20
-5.82508
11
5.52843
21
-5.82508
0
LINE
8
BLACK
6
CONTINUOUS
10
5.52843
20
-5.82508
11
5.53968
21
-5.81946
0
LINE
8
BLACK
6
CONTINUOUS
10
5.53968
20
-5.81946
11
5.5453
21
-5.81384
0
LINE
8
BLACK
6
CONTINUOUS
10
5.5453
20
-5.81384
11
5.55093
21
-5.80259
0
LINE
8
BLACK
6
CONTINUOUS
10
5.55093
20
-5.80259
11
5.55093
21
-5.78009
0
LINE
8
BLACK
6
CONTINUOUS
10
5.55093
20
-5.78009
11
5.5453
21
-5.76884
0
LINE
8
BLACK
6
CONTINUOUS
10
5.5453
20
-5.76884
11
5.53968
21
-5.76322
0
LINE
8
BLACK
6
CONTINUOUS
10
5.53968
20
-5.76322
11
5.52843
21
-5.75759
0
LINE
8
BLACK
6
CONTINUOUS
10
5.69154
20
-5.82508
11
5.69154
21
-5.70697
0
LINE
8
BLACK
6
CONTINUOUS
10
5.74215
20
-5.82508
11
5.74215
21
-5.76322
0
LINE
8
BLACK
6
CONTINUOUS
10
5.74215
20
-5.76322
11
5.73653
21
-5.75197
0
LINE
8
BLACK
6
CONTINUOUS
10
5.73653
20
-5.75197
11
5.72528
21
-5.74634
0
LINE
8
BLACK
6
CONTINUOUS
10
5.72528
20
-5.74634
11
5.70841
21
-5.74634
0
LINE
8
BLACK
6
CONTINUOUS
10
5.70841
20
-5.74634
11
5.69716
21
-5.75197
0
LINE
8
BLACK
6
CONTINUOUS
10
5.69716
20
-5.75197
11
5.69154
21
-5.75759
0
LINE
8
BLACK
6
CONTINUOUS
10
5.81527
20
-5.82508
11
5.80402
21
-5.81946
0
LINE
8
BLACK
6
CONTINUOUS
10
5.80402
20
-5.81946
11
5.7984
21
-5.81384
0
LINE
8
BLACK
6
CONTINUOUS
10
5.7984
20
-5.81384
11
5.79277
21
-5.80259
0
LINE
8
BLACK
6
CONTINUOUS
10
5.79277
20
-5.80259
11
5.79277
21
-5.76884
0
LINE
8
BLACK
6
CONTINUOUS
10
5.79277
20
-5.76884
11
5.7984
21
-5.75759
0
LINE
8
BLACK
6
CONTINUOUS
10
5.7984
20
-5.75759
11
5.80402
21
-5.75197
0
LINE
8
BLACK
6
CONTINUOUS
10
5.80402
20
-5.75197
11
5.81527
21
-5.74634
0
LINE
8
BLACK
6
CONTINUOUS
10
5.81527
20
-5.74634
11
5.83214
21
-5.74634
0
LINE
8
BLACK
6
CONTINUOUS
10
5.83214
20
-5.74634
11
5.84339
21
-5.75197
0
LINE
8
BLACK
6
CONTINUOUS
10
5.84339
20
-5.75197
11
5.84902
21
-5.75759
0
LINE
8
BLACK
6
CONTINUOUS
10
5.84902
20
-5.75759
11
5.85464
21
-5.76884
0
LINE
8
BLACK
6
CONTINUOUS
10
5.85464
20
-5.76884
11
5.85464
21
-5.80259
0
LINE
8
BLACK
6
CONTINUOUS
10
5.85464
20
-5.80259
11
5.84902
21
-5.81384
0
LINE
8
BLACK
6
CONTINUOUS
10
5.84902
20
-5.81384
11
5.84339
21
-5.81946
0
LINE
8
BLACK
6
CONTINUOUS
10
5.84339
20
-5.81946
11
5.83214
21
-5.82508
0
LINE
8
BLACK
6
CONTINUOUS
10
5.83214
20
-5.82508
11
5.81527
21
-5.82508
0
LINE
8
BLACK
6
CONTINUOUS
10
5.92213
20
-5.82508
11
5.91088
21
-5.81946
0
LINE
8
BLACK
6
CONTINUOUS
10
5.91088
20
-5.81946
11
5.90526
21
-5.80821
0
LINE
8
BLACK
6
CONTINUOUS
10
5.90526
20
-5.80821
11
5.90526
21
-5.70697
0
LINE
8
BLACK
6
CONTINUOUS
10
6.01212
20
-5.81946
11
6.00087
21
-5.82508
0
LINE
8
BLACK
6
CONTINUOUS
10
6.00087
20
-5.82508
11
5.97837
21
-5.82508
0
LINE
8
BLACK
6
CONTINUOUS
10
5.97837
20
-5.82508
11
5.96713
21
-5.81946
0
LINE
8
BLACK
6
CONTINUOUS
10
5.96713
20
-5.81946
11
5.9615
21
-5.80821
0
LINE
8
BLACK
6
CONTINUOUS
10
5.9615
20
-5.80821
11
5.9615
21
-5.76322
0
LINE
8
BLACK
6
CONTINUOUS
10
5.9615
20
-5.76322
11
5.96713
21
-5.75197
0
LINE
8
BLACK
6
CONTINUOUS
10
5.96713
20
-5.75197
11
5.97837
21
-5.74634
0
LINE
8
BLACK
6
CONTINUOUS
10
5.97837
20
-5.74634
11
6.00087
21
-5.74634
0
LINE
8
BLACK
6
CONTINUOUS
10
6.00087
20
-5.74634
11
6.01212
21
-5.75197
0
LINE
8
BLACK
6
CONTINUOUS
10
6.01212
20
-5.75197
11
6.01774
21
-5.76322
0
LINE
8
BLACK
6
CONTINUOUS
10
6.01774
20
-5.76322
11
6.01774
21
-5.77447
0
LINE
8
BLACK
6
CONTINUOUS
10
6.01774
20
-5.77447
11
5.9615
21
-5.78571
0
LINE
8
BLACK
6
CONTINUOUS
10
6.06274
20
-5.81946
11
6.07399
21
-5.82508
0
LINE
8
BLACK
6
CONTINUOUS
10
6.07399
20
-5.82508
11
6.09648
21
-5.82508
0
LINE
8
BLACK
6
CONTINUOUS
10
6.09648
20
-5.82508
11
6.10773
21
-5.81946
0
LINE
8
BLACK
6
CONTINUOUS
10
6.10773
20
-5.81946
11
6.11336
21
-5.80821
0
LINE
8
BLACK
6
CONTINUOUS
10
6.11336
20
-5.80821
11
6.11336
21
-5.80259
0
LINE
8
BLACK
6
CONTINUOUS
10
6.11336
20
-5.80259
11
6.10773
21
-5.79134
0
LINE
8
BLACK
6
CONTINUOUS
10
6.10773
20
-5.79134
11
6.09648
21
-5.78571
0
LINE
8
BLACK
6
CONTINUOUS
10
6.09648
20
-5.78571
11
6.07961
21
-5.78571
0
LINE
8
BLACK
6
CONTINUOUS
10
6.07961
20
-5.78571
11
6.06836
21
-5.78009
0
LINE
8
BLACK
6
CONTINUOUS
10
6.06836
20
-5.78009
11
6.06274
21
-5.76884
0
LINE
8
BLACK
6
CONTINUOUS
10
6.06274
20
-5.76884
11
6.06274
21
-5.76322
0
LINE
8
BLACK
6
CONTINUOUS
10
6.06274
20
-5.76322
11
6.06836
21
-5.75197
0
LINE
8
BLACK
6
CONTINUOUS
10
6.06836
20
-5.75197
11
6.07961
21
-5.74634
0
LINE
8
BLACK
6
CONTINUOUS
10
6.07961
20
-5.74634
11
6.09648
21
-5.74634
0
LINE
8
BLACK
6
CONTINUOUS
10
6.09648
20
-5.74634
11
6.10773
21
-5.75197
0
LINE
8
BLACK
6
CONTINUOUS
10
6.15273
20
-5.87008
11
6.15835
21
-5.86445
0
LINE
8
BLACK
6
CONTINUOUS
10
6.15835
20
-5.86445
11
6.1696
21
-5.84758
0
LINE
8
BLACK
6
CONTINUOUS
10
6.1696
20
-5.84758
11
6.17522
21
-5.83633
0
LINE
8
BLACK
6
CONTINUOUS
10
6.17522
20
-5.83633
11
6.18085
21
-5.81946
0
LINE
8
BLACK
6
CONTINUOUS
10
6.18085
20
-5.81946
11
6.18647
21
-5.79134
0
LINE
8
BLACK
6
CONTINUOUS
10
6.18647
20
-5.79134
11
6.18647
21
-5.76884
0
LINE
8
BLACK
6
CONTINUOUS
10
6.18647
20
-5.76884
11
6.18085
21
-5.74072
0
LINE
8
BLACK
6
CONTINUOUS
10
6.18085
20
-5.74072
11
6.17522
21
-5.72385
0
LINE
8
BLACK
6
CONTINUOUS
10
6.17522
20
-5.72385
11
6.1696
21
-5.7126
0
LINE
8
BLACK
6
CONTINUOUS
10
6.1696
20
-5.7126
11
6.15835
21
-5.69573
0
LINE
8
BLACK
6
CONTINUOUS
10
6.15835
20
-5.69573
11
6.15273
21
-5.6901
0
LINE
8
BLACK
6
CONTINUOUS
10
3.56752
20
-5.95906
11
3.59902
21
-5.92756
0
LINE
8
BLACK
6
CONTINUOUS
10
3.59902
20
-5.92756
11
3.56752
21
-5.89606
0
LINE
8
BLACK
6
CONTINUOUS
10
3.56752
20
-5.89606
11
3.53602
21
-5.92756
0
LINE
8
BLACK
6
CONTINUOUS
10
3.53602
20
-5.92756
11
3.56752
21
-5.95906
0
LINE
8
BLACK
6
CONTINUOUS
10
3.77365
20
-5.98099
11
3.70616
21
-5.98099
0
LINE
8
BLACK
6
CONTINUOUS
10
3.7399
20
-5.98099
11
3.7399
21
-5.86288
0
LINE
8
BLACK
6
CONTINUOUS
10
3.7399
20
-5.86288
11
3.72866
21
-5.87975
0
LINE
8
BLACK
6
CONTINUOUS
10
3.72866
20
-5.87975
11
3.71741
21
-5.891
0
LINE
8
BLACK
6
CONTINUOUS
10
3.71741
20
-5.891
11
3.70616
21
-5.89663
0
LINE
8
BLACK
6
CONTINUOUS
10
3.82427
20
-5.96974
11
3.82989
21
-5.97537
0
LINE
8
BLACK
6
CONTINUOUS
10
3.82989
20
-5.97537
11
3.82427
21
-5.98099
0
LINE
8
BLACK
6
CONTINUOUS
10
3.82427
20
-5.98099
11
3.81864
21
-5.97537
0
LINE
8
BLACK
6
CONTINUOUS
10
3.81864
20
-5.97537
11
3.82427
21
-5.96974
0
LINE
8
BLACK
6
CONTINUOUS
10
3.82427
20
-5.96974
11
3.82427
21
-5.98099
0
LINE
8
BLACK
6
CONTINUOUS
10
3.93113
20
-5.86288
11
3.90863
21
-5.86288
0
LINE
8
BLACK
6
CONTINUOUS
10
3.90863
20
-5.86288
11
3.89738
21
-5.8685
0
LINE
8
BLACK
6
CONTINUOUS
10
3.89738
20
-5.8685
11
3.89176
21
-5.87413
0
LINE
8
BLACK
6
CONTINUOUS
10
3.89176
20
-5.87413
11
3.88051
21
-5.891
0
LINE
8
BLACK
6
CONTINUOUS
10
3.88051
20
-5.891
11
3.87489
21
-5.9135
0
LINE
8
BLACK
6
CONTINUOUS
10
3.87489
20
-5.9135
11
3.87489
21
-5.95849
0
LINE
8
BLACK
6
CONTINUOUS
10
3.87489
20
-5.95849
11
3.88051
21
-5.96974
0
LINE
8
BLACK
6
CONTINUOUS
10
3.88051
20
-5.96974
11
3.88614
21
-5.97537
0
LINE
8
BLACK
6
CONTINUOUS
10
3.88614
20
-5.97537
11
3.89738
21
-5.98099
0
LINE
8
BLACK
6
CONTINUOUS
10
3.89738
20
-5.98099
11
3.91988
21
-5.98099
0
LINE
8
BLACK
6
CONTINUOUS
10
3.91988
20
-5.98099
11
3.93113
21
-5.97537
0
LINE
8
BLACK
6
CONTINUOUS
10
3.93113
20
-5.97537
11
3.93675
21
-5.96974
0
LINE
8
BLACK
6
CONTINUOUS
10
3.93675
20
-5.96974
11
3.94238
21
-5.95849
0
LINE
8
BLACK
6
CONTINUOUS
10
3.94238
20
-5.95849
11
3.94238
21
-5.93037
0
LINE
8
BLACK
6
CONTINUOUS
10
3.94238
20
-5.93037
11
3.93675
21
-5.91912
0
LINE
8
BLACK
6
CONTINUOUS
10
3.93675
20
-5.91912
11
3.93113
21
-5.9135
0
LINE
8
BLACK
6
CONTINUOUS
10
3.93113
20
-5.9135
11
3.91988
21
-5.90787
0
LINE
8
BLACK
6
CONTINUOUS
10
3.91988
20
-5.90787
11
3.89738
21
-5.90787
0
LINE
8
BLACK
6
CONTINUOUS
10
3.89738
20
-5.90787
11
3.88614
21
-5.9135
0
LINE
8
BLACK
6
CONTINUOUS
10
3.88614
20
-5.9135
11
3.88051
21
-5.91912
0
LINE
8
BLACK
6
CONTINUOUS
10
3.88051
20
-5.91912
11
3.87489
21
-5.93037
0
LINE
8
BLACK
6
CONTINUOUS
10
4.01549
20
-5.86288
11
4.02674
21
-5.86288
0
LINE
8
BLACK
6
CONTINUOUS
10
4.02674
20
-5.86288
11
4.03799
21
-5.8685
0
LINE
8
BLACK
6
CONTINUOUS
10
4.03799
20
-5.8685
11
4.04362
21
-5.87413
0
LINE
8
BLACK
6
CONTINUOUS
10
4.04362
20
-5.87413
11
4.04924
21
-5.88538
0
LINE
8
BLACK
6
CONTINUOUS
10
4.04924
20
-5.88538
11
4.05486
21
-5.90787
0
LINE
8
BLACK
6
CONTINUOUS
10
4.05486
20
-5.90787
11
4.05486
21
-5.936
0
LINE
8
BLACK
6
CONTINUOUS
10
4.05486
20
-5.936
11
4.04924
21
-5.95849
0
LINE
8
BLACK
6
CONTINUOUS
10
4.04924
20
-5.95849
11
4.04362
21
-5.96974
0
LINE
8
BLACK
6
CONTINUOUS
10
4.04362
20
-5.96974
11
4.03799
21
-5.97537
0
LINE
8
BLACK
6
CONTINUOUS
10
4.03799
20
-5.97537
11
4.02674
21
-5.98099
0
LINE
8
BLACK
6
CONTINUOUS
10
4.02674
20
-5.98099
11
4.01549
21
-5.98099
0
LINE
8
BLACK
6
CONTINUOUS
10
4.01549
20
-5.98099
11
4.00425
21
-5.97537
0
LINE
8
BLACK
6
CONTINUOUS
10
4.00425
20
-5.97537
11
3.99862
21
-5.96974
0
LINE
8
BLACK
6
CONTINUOUS
10
3.99862
20
-5.96974
11
3.993
21
-5.95849
0
LINE
8
BLACK
6
CONTINUOUS
10
3.993
20
-5.95849
11
3.98737
21
-5.936
0
LINE
8
BLACK
6
CONTINUOUS
10
3.98737
20
-5.936
11
3.98737
21
-5.90787
0
LINE
8
BLACK
6
CONTINUOUS
10
3.98737
20
-5.90787
11
3.993
21
-5.88538
0
LINE
8
BLACK
6
CONTINUOUS
10
3.993
20
-5.88538
11
3.99862
21
-5.87413
0
LINE
8
BLACK
6
CONTINUOUS
10
3.99862
20
-5.87413
11
4.00425
21
-5.8685
0
LINE
8
BLACK
6
CONTINUOUS
10
4.00425
20
-5.8685
11
4.01549
21
-5.86288
0
LINE
8
BLACK
6
CONTINUOUS
10
4.10548
20
-5.98099
11
4.10548
21
-5.90225
0
LINE
8
BLACK
6
CONTINUOUS
10
4.10548
20
-5.9135
11
4.11111
21
-5.90787
0
LINE
8
BLACK
6
CONTINUOUS
10
4.11111
20
-5.90787
11
4.12236
21
-5.90225
0
LINE
8
BLACK
6
CONTINUOUS
10
4.12236
20
-5.90225
11
4.13923
21
-5.90225
0
LINE
8
BLACK
6
CONTINUOUS
10
4.13923
20
-5.90225
11
4.15048
21
-5.90787
0
LINE
8
BLACK
6
CONTINUOUS
10
4.15048
20
-5.90787
11
4.1561
21
-5.91912
0
LINE
8
BLACK
6
CONTINUOUS
10
4.1561
20
-5.91912
11
4.1561
21
-5.98099
0
LINE
8
BLACK
6
CONTINUOUS
10
4.1561
20
-5.91912
11
4.16173
21
-5.90787
0
LINE
8
BLACK
6
CONTINUOUS
10
4.16173
20
-5.90787
11
4.17298
21
-5.90225
0
LINE
8
BLACK
6
CONTINUOUS
10
4.17298
20
-5.90225
11
4.18985
21
-5.90225
0
LINE
8
BLACK
6
CONTINUOUS
10
4.18985
20
-5.90225
11
4.2011
21
-5.90787
0
LINE
8
BLACK
6
CONTINUOUS
10
4.2011
20
-5.90787
11
4.20672
21
-5.91912
0
LINE
8
BLACK
6
CONTINUOUS
10
4.20672
20
-5.91912
11
4.20672
21
-5.98099
0
LINE
8
BLACK
6
CONTINUOUS
10
4.26296
20
-5.98099
11
4.26296
21
-5.90225
0
LINE
8
BLACK
6
CONTINUOUS
10
4.26296
20
-5.9135
11
4.26859
21
-5.90787
0
LINE
8
BLACK
6
CONTINUOUS
10
4.26859
20
-5.90787
11
4.27984
21
-5.90225
0
LINE
8
BLACK
6
CONTINUOUS
10
4.27984
20
-5.90225
11
4.29671
21
-5.90225
0
LINE
8
BLACK
6
CONTINUOUS
10
4.29671
20
-5.90225
11
4.30796
21
-5.90787
0
LINE
8
BLACK
6
CONTINUOUS
10
4.30796
20
-5.90787
11
4.31358
21
-5.91912
0
LINE
8
BLACK
6
CONTINUOUS
10
4.31358
20
-5.91912
11
4.31358
21
-5.98099
0
LINE
8
BLACK
6
CONTINUOUS
10
4.31358
20
-5.91912
11
4.31921
21
-5.90787
0
LINE
8
BLACK
6
CONTINUOUS
10
4.31921
20
-5.90787
11
4.33046
21
-5.90225
0
LINE
8
BLACK
6
CONTINUOUS
10
4.33046
20
-5.90225
11
4.34733
21
-5.90225
0
LINE
8
BLACK
6
CONTINUOUS
10
4.34733
20
-5.90225
11
4.35858
21
-5.90787
0
LINE
8
BLACK
6
CONTINUOUS
10
4.35858
20
-5.90787
11
4.3642
21
-5.91912
0
LINE
8
BLACK
6
CONTINUOUS
10
4.3642
20
-5.91912
11
4.3642
21
-5.98099
0
LINE
8
BLACK
6
CONTINUOUS
10
4.5948
20
-5.85726
11
4.49356
21
-6.00911
0
LINE
8
BLACK
6
CONTINUOUS
10
4.74665
20
-5.86288
11
4.7579
21
-5.86288
0
LINE
8
BLACK
6
CONTINUOUS
10
4.7579
20
-5.86288
11
4.76915
21
-5.8685
0
LINE
8
BLACK
6
CONTINUOUS
10
4.76915
20
-5.8685
11
4.77477
21
-5.87413
0
LINE
8
BLACK
6
CONTINUOUS
10
4.77477
20
-5.87413
11
4.7804
21
-5.88538
0
LINE
8
BLACK
6
CONTINUOUS
10
4.7804
20
-5.88538
11
4.78602
21
-5.90787
0
LINE
8
BLACK
6
CONTINUOUS
10
4.78602
20
-5.90787
11
4.78602
21
-5.936
0
LINE
8
BLACK
6
CONTINUOUS
10
4.78602
20
-5.936
11
4.7804
21
-5.95849
0
LINE
8
BLACK
6
CONTINUOUS
10
4.7804
20
-5.95849
11
4.77477
21
-5.96974
0
LINE
8
BLACK
6
CONTINUOUS
10
4.77477
20
-5.96974
11
4.76915
21
-5.97537
0
LINE
8
BLACK
6
CONTINUOUS
10
4.76915
20
-5.97537
11
4.7579
21
-5.98099
0
LINE
8
BLACK
6
CONTINUOUS
10
4.7579
20
-5.98099
11
4.74665
21
-5.98099
0
LINE
8
BLACK
6
CONTINUOUS
10
4.74665
20
-5.98099
11
4.7354
21
-5.97537
0
LINE
8
BLACK
6
CONTINUOUS
10
4.7354
20
-5.97537
11
4.72978
21
-5.96974
0
LINE
8
BLACK
6
CONTINUOUS
10
4.72978
20
-5.96974
11
4.72416
21
-5.95849
0
LINE
8
BLACK
6
CONTINUOUS
10
4.72416
20
-5.95849
11
4.71853
21
-5.936
0
LINE
8
BLACK
6
CONTINUOUS
10
4.71853
20
-5.936
11
4.71853
21
-5.90787
0
LINE
8
BLACK
6
CONTINUOUS
10
4.71853
20
-5.90787
11
4.72416
21
-5.88538
0
LINE
8
BLACK
6
CONTINUOUS
10
4.72416
20
-5.88538
11
4.72978
21
-5.87413
0
LINE
8
BLACK
6
CONTINUOUS
10
4.72978
20
-5.87413
11
4.7354
21
-5.8685
0
LINE
8
BLACK
6
CONTINUOUS
10
4.7354
20
-5.8685
11
4.74665
21
-5.86288
0
LINE
8
BLACK
6
CONTINUOUS
10
4.83664
20
-5.96974
11
4.84227
21
-5.97537
0
LINE
8
BLACK
6
CONTINUOUS
10
4.84227
20
-5.97537
11
4.83664
21
-5.98099
0
LINE
8
BLACK
6
CONTINUOUS
10
4.83664
20
-5.98099
11
4.83102
21
-5.97537
0
LINE
8
BLACK
6
CONTINUOUS
10
4.83102
20
-5.97537
11
4.83664
21
-5.96974
0
LINE
8
BLACK
6
CONTINUOUS
10
4.83664
20
-5.96974
11
4.83664
21
-5.98099
0
LINE
8
BLACK
6
CONTINUOUS
10
4.91538
20
-5.86288
11
4.92663
21
-5.86288
0
LINE
8
BLACK
6
CONTINUOUS
10
4.92663
20
-5.86288
11
4.93788
21
-5.8685
0
LINE
8
BLACK
6
CONTINUOUS
10
4.93788
20
-5.8685
11
4.9435
21
-5.87413
0
LINE
8
BLACK
6
CONTINUOUS
10
4.9435
20
-5.87413
11
4.94913
21
-5.88538
0
LINE
8
BLACK
6
CONTINUOUS
10
4.94913
20
-5.88538
11
4.95475
21
-5.90787
0
LINE
8
BLACK
6
CONTINUOUS
10
4.95475
20
-5.90787
11
4.95475
21
-5.936
0
LINE
8
BLACK
6
CONTINUOUS
10
4.95475
20
-5.936
11
4.94913
21
-5.95849
0
LINE
8
BLACK
6
CONTINUOUS
10
4.94913
20
-5.95849
11
4.9435
21
-5.96974
0
LINE
8
BLACK
6
CONTINUOUS
10
4.9435
20
-5.96974
11
4.93788
21
-5.97537
0
LINE
8
BLACK
6
CONTINUOUS
10
4.93788
20
-5.97537
11
4.92663
21
-5.98099
0
LINE
8
BLACK
6
CONTINUOUS
10
4.92663
20
-5.98099
11
4.91538
21
-5.98099
0
LINE
8
BLACK
6
CONTINUOUS
10
4.91538
20
-5.98099
11
4.90413
21
-5.97537
0
LINE
8
BLACK
6
CONTINUOUS
10
4.90413
20
-5.97537
11
4.89851
21
-5.96974
0
LINE
8
BLACK
6
CONTINUOUS
10
4.89851
20
-5.96974
11
4.89289
21
-5.95849
0
LINE
8
BLACK
6
CONTINUOUS
10
4.89289
20
-5.95849
11
4.88726
21
-5.936
0
LINE
8
BLACK
6
CONTINUOUS
10
4.88726
20
-5.936
11
4.88726
21
-5.90787
0
LINE
8
BLACK
6
CONTINUOUS
10
4.88726
20
-5.90787
11
4.89289
21
-5.88538
0
LINE
8
BLACK
6
CONTINUOUS
10
4.89289
20
-5.88538
11
4.89851
21
-5.87413
0
LINE
8
BLACK
6
CONTINUOUS
10
4.89851
20
-5.87413
11
4.90413
21
-5.8685
0
LINE
8
BLACK
6
CONTINUOUS
10
4.90413
20
-5.8685
11
4.91538
21
-5.86288
0
LINE
8
BLACK
6
CONTINUOUS
10
5.05599
20
-5.86288
11
5.03349
21
-5.86288
0
LINE
8
BLACK
6
CONTINUOUS
10
5.03349
20
-5.86288
11
5.02224
21
-5.8685
0
LINE
8
BLACK
6
CONTINUOUS
10
5.02224
20
-5.8685
11
5.01662
21
-5.87413
0
LINE
8
BLACK
6
CONTINUOUS
10
5.01662
20
-5.87413
11
5.00537
21
-5.891
0
LINE
8
BLACK
6
CONTINUOUS
10
5.00537
20
-5.891
11
4.99975
21
-5.9135
0
LINE
8
BLACK
6
CONTINUOUS
10
4.99975
20
-5.9135
11
4.99975
21
-5.95849
0
LINE
8
BLACK
6
CONTINUOUS
10
4.99975
20
-5.95849
11
5.00537
21
-5.96974
0
LINE
8
BLACK
6
CONTINUOUS
10
5.00537
20
-5.96974
11
5.011
21
-5.97537
0
LINE
8
BLACK
6
CONTINUOUS
10
5.011
20
-5.97537
11
5.02224
21
-5.98099
0
LINE
8
BLACK
6
CONTINUOUS
10
5.02224
20
-5.98099
11
5.04474
21
-5.98099
0
LINE
8
BLACK
6
CONTINUOUS
10
5.04474
20
-5.98099
11
5.05599
21
-5.97537
0
LINE
8
BLACK
6
CONTINUOUS
10
5.05599
20
-5.97537
11
5.06161
21
-5.96974
0
LINE
8
BLACK
6
CONTINUOUS
10
5.06161
20
-5.96974
11
5.06724
21
-5.95849
0
LINE
8
BLACK
6
CONTINUOUS
10
5.06724
20
-5.95849
11
5.06724
21
-5.93037
0
LINE
8
BLACK
6
CONTINUOUS
10
5.06724
20
-5.93037
11
5.06161
21
-5.91912
0
LINE
8
BLACK
6
CONTINUOUS
10
5.06161
20
-5.91912
11
5.05599
21
-5.9135
0
LINE
8
BLACK
6
CONTINUOUS
10
5.05599
20
-5.9135
11
5.04474
21
-5.90787
0
LINE
8
BLACK
6
CONTINUOUS
10
5.04474
20
-5.90787
11
5.02224
21
-5.90787
0
LINE
8
BLACK
6
CONTINUOUS
10
5.02224
20
-5.90787
11
5.011
21
-5.9135
0
LINE
8
BLACK
6
CONTINUOUS
10
5.011
20
-5.9135
11
5.00537
21
-5.91912
0
LINE
8
BLACK
6
CONTINUOUS
10
5.00537
20
-5.91912
11
4.99975
21
-5.93037
0
LINE
8
BLACK
6
CONTINUOUS
10
5.10661
20
-5.86288
11
5.17972
21
-5.86288
0
LINE
8
BLACK
6
CONTINUOUS
10
5.17972
20
-5.86288
11
5.14035
21
-5.90787
0
LINE
8
BLACK
6
CONTINUOUS
10
5.14035
20
-5.90787
11
5.15723
21
-5.90787
0
LINE
8
BLACK
6
CONTINUOUS
10
5.15723
20
-5.90787
11
5.16848
21
-5.9135
0
LINE
8
BLACK
6
CONTINUOUS
10
5.16848
20
-5.9135
11
5.1741
21
-5.91912
0
LINE
8
BLACK
6
CONTINUOUS
10
5.1741
20
-5.91912
11
5.17972
21
-5.93037
0
LINE
8
BLACK
6
CONTINUOUS
10
5.17972
20
-5.93037
11
5.17972
21
-5.95849
0
LINE
8
BLACK
6
CONTINUOUS
10
5.17972
20
-5.95849
11
5.1741
21
-5.96974
0
LINE
8
BLACK
6
CONTINUOUS
10
5.1741
20
-5.96974
11
5.16848
21
-5.97537
0
LINE
8
BLACK
6
CONTINUOUS
10
5.16848
20
-5.97537
11
5.15723
21
-5.98099
0
LINE
8
BLACK
6
CONTINUOUS
10
5.15723
20
-5.98099
11
5.12348
21
-5.98099
0
LINE
8
BLACK
6
CONTINUOUS
10
5.12348
20
-5.98099
11
5.11223
21
-5.97537
0
LINE
8
BLACK
6
CONTINUOUS
10
5.11223
20
-5.97537
11
5.10661
21
-5.96974
0
LINE
8
BLACK
6
CONTINUOUS
10
5.22472
20
-5.86288
11
5.22472
21
-5.88538
0
LINE
8
BLACK
6
CONTINUOUS
10
5.26971
20
-5.86288
11
5.26971
21
-5.88538
0
LINE
8
BLACK
6
CONTINUOUS
10
5.44407
20
-6.02598
11
5.43844
21
-6.02036
0
LINE
8
BLACK
6
CONTINUOUS
10
5.43844
20
-6.02036
11
5.42719
21
-6.00349
0
LINE
8
BLACK
6
CONTINUOUS
10
5.42719
20
-6.00349
11
5.42157
21
-5.99224
0
LINE
8
BLACK
6
CONTINUOUS
10
5.42157
20
-5.99224
11
5.41594
21
-5.97537
0
LINE
8
BLACK
6
CONTINUOUS
10
5.41594
20
-5.97537
11
5.41032
21
-5.94724
0
LINE
8
BLACK
6
CONTINUOUS
10
5.41032
20
-5.94724
11
5.41032
21
-5.92475
0
LINE
8
BLACK
6
CONTINUOUS
10
5.41032
20
-5.92475
11
5.41594
21
-5.89663
0
LINE
8
BLACK
6
CONTINUOUS
10
5.41594
20
-5.89663
11
5.42157
21
-5.87975
0
LINE
8
BLACK
6
CONTINUOUS
10
5.42157
20
-5.87975
11
5.42719
21
-5.8685
0
LINE
8
BLACK
6
CONTINUOUS
10
5.42719
20
-5.8685
11
5.43844
21
-5.85163
0
LINE
8
BLACK
6
CONTINUOUS
10
5.43844
20
-5.85163
11
5.44407
21
-5.84601
0
LINE
8
BLACK
6
CONTINUOUS
10
5.47781
20
-5.86288
11
5.55093
21
-5.86288
0
LINE
8
BLACK
6
CONTINUOUS
10
5.55093
20
-5.86288
11
5.51156
21
-5.90787
0
LINE
8
BLACK
6
CONTINUOUS
10
5.51156
20
-5.90787
11
5.52843
21
-5.90787
0
LINE
8
BLACK
6
CONTINUOUS
10
5.52843
20
-5.90787
11
5.53968
21
-5.9135
0
LINE
8
BLACK
6
CONTINUOUS
10
5.53968
20
-5.9135
11
5.5453
21
-5.91912
0
LINE
8
BLACK
6
CONTINUOUS
10
5.5453
20
-5.91912
11
5.55093
21
-5.93037
0
LINE
8
BLACK
6
CONTINUOUS
10
5.55093
20
-5.93037
11
5.55093
21
-5.95849
0
LINE
8
BLACK
6
CONTINUOUS
10
5.55093
20
-5.95849
11
5.5453
21
-5.96974
0
LINE
8
BLACK
6
CONTINUOUS
10
5.5453
20
-5.96974
11
5.53968
21
-5.97537
0
LINE
8
BLACK
6
CONTINUOUS
10
5.53968
20
-5.97537
11
5.52843
21
-5.98099
0
LINE
8
BLACK
6
CONTINUOUS
10
5.52843
20
-5.98099
11
5.49468
21
-5.98099
0
LINE
8
BLACK
6
CONTINUOUS
10
5.49468
20
-5.98099
11
5.48344
21
-5.97537
0
LINE
8
BLACK
6
CONTINUOUS
10
5.48344
20
-5.97537
11
5.47781
21
-5.96974
0
LINE
8
BLACK
6
CONTINUOUS
10
5.69154
20
-5.98099
11
5.69154
21
-5.86288
0
LINE
8
BLACK
6
CONTINUOUS
10
5.74215
20
-5.98099
11
5.74215
21
-5.91912
0
LINE
8
BLACK
6
CONTINUOUS
10
5.74215
20
-5.91912
11
5.73653
21
-5.90787
0
LINE
8
BLACK
6
CONTINUOUS
10
5.73653
20
-5.90787
11
5.72528
21
-5.90225
0
LINE
8
BLACK
6
CONTINUOUS
10
5.72528
20
-5.90225
11
5.70841
21
-5.90225
0
LINE
8
BLACK
6
CONTINUOUS
10
5.70841
20
-5.90225
11
5.69716
21
-5.90787
0
LINE
8
BLACK
6
CONTINUOUS
10
5.69716
20
-5.90787
11
5.69154
21
-5.9135
0
LINE
8
BLACK
6
CONTINUOUS
10
5.81527
20
-5.98099
11
5.80402
21
-5.97537
0
LINE
8
BLACK
6
CONTINUOUS
10
5.80402
20
-5.97537
11
5.7984
21
-5.96974
0
LINE
8
BLACK
6
CONTINUOUS
10
5.7984
20
-5.96974
11
5.79277
21
-5.95849
0
LINE
8
BLACK
6
CONTINUOUS
10
5.79277
20
-5.95849
11
5.79277
21
-5.92475
0
LINE
8
BLACK
6
CONTINUOUS
10
5.79277
20
-5.92475
11
5.7984
21
-5.9135
0
LINE
8
BLACK
6
CONTINUOUS
10
5.7984
20
-5.9135
11
5.80402
21
-5.90787
0
LINE
8
BLACK
6
CONTINUOUS
10
5.80402
20
-5.90787
11
5.81527
21
-5.90225
0
LINE
8
BLACK
6
CONTINUOUS
10
5.81527
20
-5.90225
11
5.83214
21
-5.90225
0
LINE
8
BLACK
6
CONTINUOUS
10
5.83214
20
-5.90225
11
5.84339
21
-5.90787
0
LINE
8
BLACK
6
CONTINUOUS
10
5.84339
20
-5.90787
11
5.84902
21
-5.9135
0
LINE
8
BLACK
6
CONTINUOUS
10
5.84902
20
-5.9135
11
5.85464
21
-5.92475
0
LINE
8
BLACK
6
CONTINUOUS
10
5.85464
20
-5.92475
11
5.85464
21
-5.95849
0
LINE
8
BLACK
6
CONTINUOUS
10
5.85464
20
-5.95849
11
5.84902
21
-5.96974
0
LINE
8
BLACK
6
CONTINUOUS
10
5.84902
20
-5.96974
11
5.84339
21
-5.97537
0
LINE
8
BLACK
6
CONTINUOUS
10
5.84339
20
-5.97537
11
5.83214
21
-5.98099
0
LINE
8
BLACK
6
CONTINUOUS
10
5.83214
20
-5.98099
11
5.81527
21
-5.98099
0
LINE
8
BLACK
6
CONTINUOUS
10
5.92213
20
-5.98099
11
5.91088
21
-5.97537
0
LINE
8
BLACK
6
CONTINUOUS
10
5.91088
20
-5.97537
11
5.90526
21
-5.96412
0
LINE
8
BLACK
6
CONTINUOUS
10
5.90526
20
-5.96412
11
5.90526
21
-5.86288
0
LINE
8
BLACK
6
CONTINUOUS
10
6.01212
20
-5.97537
11
6.00087
21
-5.98099
0
LINE
8
BLACK
6
CONTINUOUS
10
6.00087
20
-5.98099
11
5.97837
21
-5.98099
0
LINE
8
BLACK
6
CONTINUOUS
10
5.97837
20
-5.98099
11
5.96713
21
-5.97537
0
LINE
8
BLACK
6
CONTINUOUS
10
5.96713
20
-5.97537
11
5.9615
21
-5.96412
0
LINE
8
BLACK
6
CONTINUOUS
10
5.9615
20
-5.96412
11
5.9615
21
-5.91912
0
LINE
8
BLACK
6
CONTINUOUS
10
5.9615
20
-5.91912
11
5.96713
21
-5.90787
0
LINE
8
BLACK
6
CONTINUOUS
10
5.96713
20
-5.90787
11
5.97837
21
-5.90225
0
LINE
8
BLACK
6
CONTINUOUS
10
5.97837
20
-5.90225
11
6.00087
21
-5.90225
0
LINE
8
BLACK
6
CONTINUOUS
10
6.00087
20
-5.90225
11
6.01212
21
-5.90787
0
LINE
8
BLACK
6
CONTINUOUS
10
6.01212
20
-5.90787
11
6.01774
21
-5.91912
0
LINE
8
BLACK
6
CONTINUOUS
10
6.01774
20
-5.91912
11
6.01774
21
-5.93037
0
LINE
8
BLACK
6
CONTINUOUS
10
6.01774
20
-5.93037
11
5.9615
21
-5.94162
0
LINE
8
BLACK
6
CONTINUOUS
10
6.06274
20
-5.97537
11
6.07399
21
-5.98099
0
LINE
8
BLACK
6
CONTINUOUS
10
6.07399
20
-5.98099
11
6.09648
21
-5.98099
0
LINE
8
BLACK
6
CONTINUOUS
10
6.09648
20
-5.98099
11
6.10773
21
-5.97537
0
LINE
8
BLACK
6
CONTINUOUS
10
6.10773
20
-5.97537
11
6.11336
21
-5.96412
0
LINE
8
BLACK
6
CONTINUOUS
10
6.11336
20
-5.96412
11
6.11336
21
-5.95849
0
LINE
8
BLACK
6
CONTINUOUS
10
6.11336
20
-5.95849
11
6.10773
21
-5.94724
0
LINE
8
BLACK
6
CONTINUOUS
10
6.10773
20
-5.94724
11
6.09648
21
-5.94162
0
LINE
8
BLACK
6
CONTINUOUS
10
6.09648
20
-5.94162
11
6.07961
21
-5.94162
0
LINE
8
BLACK
6
CONTINUOUS
10
6.07961
20
-5.94162
11
6.06836
21
-5.936
0
LINE
8
BLACK
6
CONTINUOUS
10
6.06836
20
-5.936
11
6.06274
21
-5.92475
0
LINE
8
BLACK
6
CONTINUOUS
10
6.06274
20
-5.92475
11
6.06274
21
-5.91912
0
LINE
8
BLACK
6
CONTINUOUS
10
6.06274
20
-5.91912
11
6.06836
21
-5.90787
0
LINE
8
BLACK
6
CONTINUOUS
10
6.06836
20
-5.90787
11
6.07961
21
-5.90225
0
LINE
8
BLACK
6
CONTINUOUS
10
6.07961
20
-5.90225
11
6.09648
21
-5.90225
0
LINE
8
BLACK
6
CONTINUOUS
10
6.09648
20
-5.90225
11
6.10773
21
-5.90787
0
LINE
8
BLACK
6
CONTINUOUS
10
6.15273
20
-6.02598
11
6.15835
21
-6.02036
0
LINE
8
BLACK
6
CONTINUOUS
10
6.15835
20
-6.02036
11
6.1696
21
-6.00349
0
LINE
8
BLACK
6
CONTINUOUS
10
6.1696
20
-6.00349
11
6.17522
21
-5.99224
0
LINE
8
BLACK
6
CONTINUOUS
10
6.17522
20
-5.99224
11
6.18085
21
-5.97537
0
LINE
8
BLACK
6
CONTINUOUS
10
6.18085
20
-5.97537
11
6.18647
21
-5.94724
0
LINE
8
BLACK
6
CONTINUOUS
10
6.18647
20
-5.94724
11
6.18647
21
-5.92475
0
LINE
8
BLACK
6
CONTINUOUS
10
6.18647
20
-5.92475
11
6.18085
21
-5.89663
0
LINE
8
BLACK
6
CONTINUOUS
10
6.18085
20
-5.89663
11
6.17522
21
-5.87975
0
LINE
8
BLACK
6
CONTINUOUS
10
6.17522
20
-5.87975
11
6.1696
21
-5.8685
0
LINE
8
BLACK
6
CONTINUOUS
10
6.1696
20
-5.8685
11
6.15835
21
-5.85163
0
LINE
8
BLACK
6
CONTINUOUS
10
6.15835
20
-5.85163
11
6.15273
21
-5.84601
0
LINE
8
BLACK
6
CONTINUOUS
10
3.47303
20
-6.02047
11
3.59902
21
-6.14646
0
LINE
8
BLACK
6
CONTINUOUS
10
3.59902
20
-6.02047
11
3.47303
21
-6.14646
0
CIRCLE
8
BLACK
10
3.53602
20
-6.08346
40
0.0629921
0
LINE
8
BLACK
6
CONTINUOUS
10
3.70053
20
-6.01879
11
3.77365
21
-6.01879
0
LINE
8
BLACK
6
CONTINUOUS
10
3.77365
20
-6.01879
11
3.73428
21
-6.06378
0
LINE
8
BLACK
6
CONTINUOUS
10
3.73428
20
-6.06378
11
3.75115
21
-6.06378
0
LINE
8
BLACK
6
CONTINUOUS
10
3.75115
20
-6.06378
11
3.7624
21
-6.0694
0
LINE
8
BLACK
6
CONTINUOUS
10
3.7624
20
-6.0694
11
3.76803
21
-6.07503
0
LINE
8
BLACK
6
CONTINUOUS
10
3.76803
20
-6.07503
11
3.77365
21
-6.08628
0
LINE
8
BLACK
6
CONTINUOUS
10
3.77365
20
-6.08628
11
3.77365
21
-6.1144
0
LINE
8
BLACK
6
CONTINUOUS
10
3.77365
20
-6.1144
11
3.76803
21
-6.12565
0
LINE
8
BLACK
6
CONTINUOUS
10
3.76803
20
-6.12565
11
3.7624
21
-6.13127
0
LINE
8
BLACK
6
CONTINUOUS
10
3.7624
20
-6.13127
11
3.75115
21
-6.1369
0
LINE
8
BLACK
6
CONTINUOUS
10
3.75115
20
-6.1369
11
3.71741
21
-6.1369
0
LINE
8
BLACK
6
CONTINUOUS
10
3.71741
20
-6.1369
11
3.70616
21
-6.13127
0
LINE
8
BLACK
6
CONTINUOUS
10
3.70616
20
-6.13127
11
3.70053
21
-6.12565
0
LINE
8
BLACK
6
CONTINUOUS
10
3.82427
20
-6.12565
11
3.82989
21
-6.13127
0
LINE
8
BLACK
6
CONTINUOUS
10
3.82989
20
-6.13127
11
3.82427
21
-6.1369
0
LINE
8
BLACK
6
CONTINUOUS
10
3.82427
20
-6.1369
11
3.81864
21
-6.13127
0
LINE
8
BLACK
6
CONTINUOUS
10
3.81864
20
-6.13127
11
3.82427
21
-6.12565
0
LINE
8
BLACK
6
CONTINUOUS
10
3.82427
20
-6.12565
11
3.82427
21
-6.1369
0
LINE
8
BLACK
6
CONTINUOUS
10
3.87489
20
-6.03003
11
3.88051
21
-6.02441
0
LINE
8
BLACK
6
CONTINUOUS
10
3.88051
20
-6.02441
11
3.89176
21
-6.01879
0
LINE
8
BLACK
6
CONTINUOUS
10
3.89176
20
-6.01879
11
3.91988
21
-6.01879
0
LINE
8
BLACK
6
CONTINUOUS
10
3.91988
20
-6.01879
11
3.93113
21
-6.02441
0
LINE
8
BLACK
6
CONTINUOUS
10
3.93113
20
-6.02441
11
3.93675
21
-6.03003
0
LINE
8
BLACK
6
CONTINUOUS
10
3.93675
20
-6.03003
11
3.94238
21
-6.04128
0
LINE
8
BLACK
6
CONTINUOUS
10
3.94238
20
-6.04128
11
3.94238
21
-6.05253
0
LINE
8
BLACK
6
CONTINUOUS
10
3.94238
20
-6.05253
11
3.93675
21
-6.0694
0
LINE
8
BLACK
6
CONTINUOUS
10
3.93675
20
-6.0694
11
3.86926
21
-6.1369
0
LINE
8
BLACK
6
CONTINUOUS
10
3.86926
20
-6.1369
11
3.94238
21
-6.1369
0
LINE
8
BLACK
6
CONTINUOUS
10
4.01549
20
-6.01879
11
4.02674
21
-6.01879
0
LINE
8
BLACK
6
CONTINUOUS
10
4.02674
20
-6.01879
11
4.03799
21
-6.02441
0
LINE
8
BLACK
6
CONTINUOUS
10
4.03799
20
-6.02441
11
4.04362
21
-6.03003
0
LINE
8
BLACK
6
CONTINUOUS
10
4.04362
20
-6.03003
11
4.04924
21
-6.04128
0
LINE
8
BLACK
6
CONTINUOUS
10
4.04924
20
-6.04128
11
4.05486
21
-6.06378
0
LINE
8
BLACK
6
CONTINUOUS
10
4.05486
20
-6.06378
11
4.05486
21
-6.0919
0
LINE
8
BLACK
6
CONTINUOUS
10
4.05486
20
-6.0919
11
4.04924
21
-6.1144
0
LINE
8
BLACK
6
CONTINUOUS
10
4.04924
20
-6.1144
11
4.04362
21
-6.12565
0
LINE
8
BLACK
6
CONTINUOUS
10
4.04362
20
-6.12565
11
4.03799
21
-6.13127
0
LINE
8
BLACK
6
CONTINUOUS
10
4.03799
20
-6.13127
11
4.02674
21
-6.1369
0
LINE
8
BLACK
6
CONTINUOUS
10
4.02674
20
-6.1369
11
4.01549
21
-6.1369
0
LINE
8
BLACK
6
CONTINUOUS
10
4.01549
20
-6.1369
11
4.00425
21
-6.13127
0
LINE
8
BLACK
6
CONTINUOUS
10
4.00425
20
-6.13127
11
3.99862
21
-6.12565
0
LINE
8
BLACK
6
CONTINUOUS
10
3.99862
20
-6.12565
11
3.993
21
-6.1144
0
LINE
8
BLACK
6
CONTINUOUS
10
3.993
20
-6.1144
11
3.98737
21
-6.0919
0
LINE
8
BLACK
6
CONTINUOUS
10
3.98737
20
-6.0919
11
3.98737
21
-6.06378
0
LINE
8
BLACK
6
CONTINUOUS
10
3.98737
20
-6.06378
11
3.993
21
-6.04128
0
LINE
8
BLACK
6
CONTINUOUS
10
3.993
20
-6.04128
11
3.99862
21
-6.03003
0
LINE
8
BLACK
6
CONTINUOUS
10
3.99862
20
-6.03003
11
4.00425
21
-6.02441
0
LINE
8
BLACK
6
CONTINUOUS
10
4.00425
20
-6.02441
11
4.01549
21
-6.01879
0
LINE
8
BLACK
6
CONTINUOUS
10
4.10548
20
-6.1369
11
4.10548
21
-6.05816
0
LINE
8
BLACK
6
CONTINUOUS
10
4.10548
20
-6.0694
11
4.11111
21
-6.06378
0
LINE
8
BLACK
6
CONTINUOUS
10
4.11111
20
-6.06378
11
4.12236
21
-6.05816
0
LINE
8
BLACK
6
CONTINUOUS
10
4.12236
20
-6.05816
11
4.13923
21
-6.05816
0
LINE
8
BLACK
6
CONTINUOUS
10
4.13923
20
-6.05816
11
4.15048
21
-6.06378
0
LINE
8
BLACK
6
CONTINUOUS
10
4.15048
20
-6.06378
11
4.1561
21
-6.07503
0
LINE
8
BLACK
6
CONTINUOUS
10
4.1561
20
-6.07503
11
4.1561
21
-6.1369
0
LINE
8
BLACK
6
CONTINUOUS
10
4.1561
20
-6.07503
11
4.16173
21
-6.06378
0
LINE
8
BLACK
6
CONTINUOUS
10
4.16173
20
-6.06378
11
4.17298
21
-6.05816
0
LINE
8
BLACK
6
CONTINUOUS
10
4.17298
20
-6.05816
11
4.18985
21
-6.05816
0
LINE
8
BLACK
6
CONTINUOUS
10
4.18985
20
-6.05816
11
4.2011
21
-6.06378
0
LINE
8
BLACK
6
CONTINUOUS
10
4.2011
20
-6.06378
11
4.20672
21
-6.07503
0
LINE
8
BLACK
6
CONTINUOUS
10
4.20672
20
-6.07503
11
4.20672
21
-6.1369
0
LINE
8
BLACK
6
CONTINUOUS
10
4.26296
20
-6.1369
11
4.26296
21
-6.05816
0
LINE
8
BLACK
6
CONTINUOUS
10
4.26296
20
-6.0694
11
4.26859
21
-6.06378
0
LINE
8
BLACK
6
CONTINUOUS
10
4.26859
20
-6.06378
11
4.27984
21
-6.05816
0
LINE
8
BLACK
6
CONTINUOUS
10
4.27984
20
-6.05816
11
4.29671
21
-6.05816
0
LINE
8
BLACK
6
CONTINUOUS
10
4.29671
20
-6.05816
11
4.30796
21
-6.06378
0
LINE
8
BLACK
6
CONTINUOUS
10
4.30796
20
-6.06378
11
4.31358
21
-6.07503
0
LINE
8
BLACK
6
CONTINUOUS
10
4.31358
20
-6.07503
11
4.31358
21
-6.1369
0
LINE
8
BLACK
6
CONTINUOUS
10
4.31358
20
-6.07503
11
4.31921
21
-6.06378
0
LINE
8
BLACK
6
CONTINUOUS
10
4.31921
20
-6.06378
11
4.33046
21
-6.05816
0
LINE
8
BLACK
6
CONTINUOUS
10
4.33046
20
-6.05816
11
4.34733
21
-6.05816
0
LINE
8
BLACK
6
CONTINUOUS
10
4.34733
20
-6.05816
11
4.35858
21
-6.06378
0
LINE
8
BLACK
6
CONTINUOUS
10
4.35858
20
-6.06378
11
4.3642
21
-6.07503
0
LINE
8
BLACK
6
CONTINUOUS
10
4.3642
20
-6.07503
11
4.3642
21
-6.1369
0
LINE
8
BLACK
6
CONTINUOUS
10
4.5948
20
-6.01316
11
4.49356
21
-6.16502
0
LINE
8
BLACK
6
CONTINUOUS
10
4.74665
20
-6.01879
11
4.7579
21
-6.01879
0
LINE
8
BLACK
6
CONTINUOUS
10
4.7579
20
-6.01879
11
4.76915
21
-6.02441
0
LINE
8
BLACK
6
CONTINUOUS
10
4.76915
20
-6.02441
11
4.77477
21
-6.03003
0
LINE
8
BLACK
6
CONTINUOUS
10
4.77477
20
-6.03003
11
4.7804
21
-6.04128
0
LINE
8
BLACK
6
CONTINUOUS
10
4.7804
20
-6.04128
11
4.78602
21
-6.06378
0
LINE
8
BLACK
6
CONTINUOUS
10
4.78602
20
-6.06378
11
4.78602
21
-6.0919
0
LINE
8
BLACK
6
CONTINUOUS
10
4.78602
20
-6.0919
11
4.7804
21
-6.1144
0
LINE
8
BLACK
6
CONTINUOUS
10
4.7804
20
-6.1144
11
4.77477
21
-6.12565
0
LINE
8
BLACK
6
CONTINUOUS
10
4.77477
20
-6.12565
11
4.76915
21
-6.13127
0
LINE
8
BLACK
6
CONTINUOUS
10
4.76915
20
-6.13127
11
4.7579
21
-6.1369
0
LINE
8
BLACK
6
CONTINUOUS
10
4.7579
20
-6.1369
11
4.74665
21
-6.1369
0
LINE
8
BLACK
6
CONTINUOUS
10
4.74665
20
-6.1369
11
4.7354
21
-6.13127
0
LINE
8
BLACK
6
CONTINUOUS
10
4.7354
20
-6.13127
11
4.72978
21
-6.12565
0
LINE
8
BLACK
6
CONTINUOUS
10
4.72978
20
-6.12565
11
4.72416
21
-6.1144
0
LINE
8
BLACK
6
CONTINUOUS
10
4.72416
20
-6.1144
11
4.71853
21
-6.0919
0
LINE
8
BLACK
6
CONTINUOUS
10
4.71853
20
-6.0919
11
4.71853
21
-6.06378
0
LINE
8
BLACK
6
CONTINUOUS
10
4.71853
20
-6.06378
11
4.72416
21
-6.04128
0
LINE
8
BLACK
6
CONTINUOUS
10
4.72416
20
-6.04128
11
4.72978
21
-6.03003
0
LINE
8
BLACK
6
CONTINUOUS
10
4.72978
20
-6.03003
11
4.7354
21
-6.02441
0
LINE
8
BLACK
6
CONTINUOUS
10
4.7354
20
-6.02441
11
4.74665
21
-6.01879
0
LINE
8
BLACK
6
CONTINUOUS
10
4.83664
20
-6.12565
11
4.84227
21
-6.13127
0
LINE
8
BLACK
6
CONTINUOUS
10
4.84227
20
-6.13127
11
4.83664
21
-6.1369
0
LINE
8
BLACK
6
CONTINUOUS
10
4.83664
20
-6.1369
11
4.83102
21
-6.13127
0
LINE
8
BLACK
6
CONTINUOUS
10
4.83102
20
-6.13127
11
4.83664
21
-6.12565
0
LINE
8
BLACK
6
CONTINUOUS
10
4.83664
20
-6.12565
11
4.83664
21
-6.1369
0
LINE
8
BLACK
6
CONTINUOUS
10
4.95475
20
-6.1369
11
4.88726
21
-6.1369
0
LINE
8
BLACK
6
CONTINUOUS
10
4.92101
20
-6.1369
11
4.92101
21
-6.01879
0
LINE
8
BLACK
6
CONTINUOUS
10
4.92101
20
-6.01879
11
4.90976
21
-6.03566
0
LINE
8
BLACK
6
CONTINUOUS
10
4.90976
20
-6.03566
11
4.89851
21
-6.04691
0
LINE
8
BLACK
6
CONTINUOUS
10
4.89851
20
-6.04691
11
4.88726
21
-6.05253
0
LINE
8
BLACK
6
CONTINUOUS
10
4.99975
20
-6.03003
11
5.00537
21
-6.02441
0
LINE
8
BLACK
6
CONTINUOUS
10
5.00537
20
-6.02441
11
5.01662
21
-6.01879
0
LINE
8
BLACK
6
CONTINUOUS
10
5.01662
20
-6.01879
11
5.04474
21
-6.01879
0
LINE
8
BLACK
6
CONTINUOUS
10
5.04474
20
-6.01879
11
5.05599
21
-6.02441
0
LINE
8
BLACK
6
CONTINUOUS
10
5.05599
20
-6.02441
11
5.06161
21
-6.03003
0
LINE
8
BLACK
6
CONTINUOUS
10
5.06161
20
-6.03003
11
5.06724
21
-6.04128
0
LINE
8
BLACK
6
CONTINUOUS
10
5.06724
20
-6.04128
11
5.06724
21
-6.05253
0
LINE
8
BLACK
6
CONTINUOUS
10
5.06724
20
-6.05253
11
5.06161
21
-6.0694
0
LINE
8
BLACK
6
CONTINUOUS
10
5.06161
20
-6.0694
11
4.99412
21
-6.1369
0
LINE
8
BLACK
6
CONTINUOUS
10
4.99412
20
-6.1369
11
5.06724
21
-6.1369
0
LINE
8
BLACK
6
CONTINUOUS
10
5.16848
20
-6.01879
11
5.14598
21
-6.01879
0
LINE
8
BLACK
6
CONTINUOUS
10
5.14598
20
-6.01879
11
5.13473
21
-6.02441
0
LINE
8
BLACK
6
CONTINUOUS
10
5.13473
20
-6.02441
11
5.12911
21
-6.03003
0
LINE
8
BLACK
6
CONTINUOUS
10
5.12911
20
-6.03003
11
5.11786
21
-6.04691
0
LINE
8
BLACK
6
CONTINUOUS
10
5.11786
20
-6.04691
11
5.11223
21
-6.0694
0
LINE
8
BLACK
6
CONTINUOUS
10
5.11223
20
-6.0694
11
5.11223
21
-6.1144
0
LINE
8
BLACK
6
CONTINUOUS
10
5.11223
20
-6.1144
11
5.11786
21
-6.12565
0
LINE
8
BLACK
6
CONTINUOUS
10
5.11786
20
-6.12565
11
5.12348
21
-6.13127
0
LINE
8
BLACK
6
CONTINUOUS
10
5.12348
20
-6.13127
11
5.13473
21
-6.1369
0
LINE
8
BLACK
6
CONTINUOUS
10
5.13473
20
-6.1369
11
5.15723
21
-6.1369
0
LINE
8
BLACK
6
CONTINUOUS
10
5.15723
20
-6.1369
11
5.16848
21
-6.13127
0
LINE
8
BLACK
6
CONTINUOUS
10
5.16848
20
-6.13127
11
5.1741
21
-6.12565
0
LINE
8
BLACK
6
CONTINUOUS
10
5.1741
20
-6.12565
11
5.17972
21
-6.1144
0
LINE
8
BLACK
6
CONTINUOUS
10
5.17972
20
-6.1144
11
5.17972
21
-6.08628
0
LINE
8
BLACK
6
CONTINUOUS
10
5.17972
20
-6.08628
11
5.1741
21
-6.07503
0
LINE
8
BLACK
6
CONTINUOUS
10
5.1741
20
-6.07503
11
5.16848
21
-6.0694
0
LINE
8
BLACK
6
CONTINUOUS
10
5.16848
20
-6.0694
11
5.15723
21
-6.06378
0
LINE
8
BLACK
6
CONTINUOUS
10
5.15723
20
-6.06378
11
5.13473
21
-6.06378
0
LINE
8
BLACK
6
CONTINUOUS
10
5.13473
20
-6.06378
11
5.12348
21
-6.0694
0
LINE
8
BLACK
6
CONTINUOUS
10
5.12348
20
-6.0694
11
5.11786
21
-6.07503
0
LINE
8
BLACK
6
CONTINUOUS
10
5.11786
20
-6.07503
11
5.11223
21
-6.08628
0
LINE
8
BLACK
6
CONTINUOUS
10
5.22472
20
-6.01879
11
5.22472
21
-6.04128
0
LINE
8
BLACK
6
CONTINUOUS
10
5.26971
20
-6.01879
11
5.26971
21
-6.04128
0
LINE
8
BLACK
6
CONTINUOUS
10
5.44407
20
-6.18189
11
5.43844
21
-6.17627
0
LINE
8
BLACK
6
CONTINUOUS
10
5.43844
20
-6.17627
11
5.42719
21
-6.15939
0
LINE
8
BLACK
6
CONTINUOUS
10
5.42719
20
-6.15939
11
5.42157
21
-6.14814
0
LINE
8
BLACK
6
CONTINUOUS
10
5.42157
20
-6.14814
11
5.41594
21
-6.13127
0
LINE
8
BLACK
6
CONTINUOUS
10
5.41594
20
-6.13127
11
5.41032
21
-6.10315
0
LINE
8
BLACK
6
CONTINUOUS
10
5.41032
20
-6.10315
11
5.41032
21
-6.08065
0
LINE
8
BLACK
6
CONTINUOUS
10
5.41032
20
-6.08065
11
5.41594
21
-6.05253
0
LINE
8
BLACK
6
CONTINUOUS
10
5.41594
20
-6.05253
11
5.42157
21
-6.03566
0
LINE
8
BLACK
6
CONTINUOUS
10
5.42157
20
-6.03566
11
5.42719
21
-6.02441
0
LINE
8
BLACK
6
CONTINUOUS
10
5.42719
20
-6.02441
11
5.43844
21
-6.00754
0
LINE
8
BLACK
6
CONTINUOUS
10
5.43844
20
-6.00754
11
5.44407
21
-6.00191
0
LINE
8
BLACK
6
CONTINUOUS
10
5.53968
20
-6.05816
11
5.53968
21
-6.1369
0
LINE
8
BLACK
6
CONTINUOUS
10
5.51156
20
-6.01316
11
5.48344
21
-6.09753
0
LINE
8
BLACK
6
CONTINUOUS
10
5.48344
20
-6.09753
11
5.55655
21
-6.09753
0
LINE
8
BLACK
6
CONTINUOUS
10
5.69154
20
-6.1369
11
5.69154
21
-6.01879
0
LINE
8
BLACK
6
CONTINUOUS
10
5.74215
20
-6.1369
11
5.74215
21
-6.07503
0
LINE
8
BLACK
6
CONTINUOUS
10
5.74215
20
-6.07503
11
5.73653
21
-6.06378
0
LINE
8
BLACK
6
CONTINUOUS
10
5.73653
20
-6.06378
11
5.72528
21
-6.05816
0
LINE
8
BLACK
6
CONTINUOUS
10
5.72528
20
-6.05816
11
5.70841
21
-6.05816
0
LINE
8
BLACK
6
CONTINUOUS
10
5.70841
20
-6.05816
11
5.69716
21
-6.06378
0
LINE
8
BLACK
6
CONTINUOUS
10
5.69716
20
-6.06378
11
5.69154
21
-6.0694
0
LINE
8
BLACK
6
CONTINUOUS
10
5.81527
20
-6.1369
11
5.80402
21
-6.13127
0
LINE
8
BLACK
6
CONTINUOUS
10
5.80402
20
-6.13127
11
5.7984
21
-6.12565
0
LINE
8
BLACK
6
CONTINUOUS
10
5.7984
20
-6.12565
11
5.79277
21
-6.1144
0
LINE
8
BLACK
6
CONTINUOUS
10
5.79277
20
-6.1144
11
5.79277
21
-6.08065
0
LINE
8
BLACK
6
CONTINUOUS
10
5.79277
20
-6.08065
11
5.7984
21
-6.0694
0
LINE
8
BLACK
6
CONTINUOUS
10
5.7984
20
-6.0694
11
5.80402
21
-6.06378
0
LINE
8
BLACK
6
CONTINUOUS
10
5.80402
20
-6.06378
11
5.81527
21
-6.05816
0
LINE
8
BLACK
6
CONTINUOUS
10
5.81527
20
-6.05816
11
5.83214
21
-6.05816
0
LINE
8
BLACK
6
CONTINUOUS
10
5.83214
20
-6.05816
11
5.84339
21
-6.06378
0
LINE
8
BLACK
6
CONTINUOUS
10
5.84339
20
-6.06378
11
5.84902
21
-6.0694
0
LINE
8
BLACK
6
CONTINUOUS
10
5.84902
20
-6.0694
11
5.85464
21
-6.08065
0
LINE
8
BLACK
6
CONTINUOUS
10
5.85464
20
-6.08065
11
5.85464
21
-6.1144
0
LINE
8
BLACK
6
CONTINUOUS
10
5.85464
20
-6.1144
11
5.84902
21
-6.12565
0
LINE
8
BLACK
6
CONTINUOUS
10
5.84902
20
-6.12565
11
5.84339
21
-6.13127
0
LINE
8
BLACK
6
CONTINUOUS
10
5.84339
20
-6.13127
11
5.83214
21
-6.1369
0
LINE
8
BLACK
6
CONTINUOUS
10
5.83214
20
-6.1369
11
5.81527
21
-6.1369
0
LINE
8
BLACK
6
CONTINUOUS
10
5.92213
20
-6.1369
11
5.91088
21
-6.13127
0
LINE
8
BLACK
6
CONTINUOUS
10
5.91088
20
-6.13127
11
5.90526
21
-6.12002
0
LINE
8
BLACK
6
CONTINUOUS
10
5.90526
20
-6.12002
11
5.90526
21
-6.01879
0
LINE
8
BLACK
6
CONTINUOUS
10
6.01212
20
-6.13127
11
6.00087
21
-6.1369
0
LINE
8
BLACK
6
CONTINUOUS
10
6.00087
20
-6.1369
11
5.97837
21
-6.1369
0
LINE
8
BLACK
6
CONTINUOUS
10
5.97837
20
-6.1369
11
5.96713
21
-6.13127
0
LINE
8
BLACK
6
CONTINUOUS
10
5.96713
20
-6.13127
11
5.9615
21
-6.12002
0
LINE
8
BLACK
6
CONTINUOUS
10
5.9615
20
-6.12002
11
5.9615
21
-6.07503
0
LINE
8
BLACK
6
CONTINUOUS
10
5.9615
20
-6.07503
11
5.96713
21
-6.06378
0
LINE
8
BLACK
6
CONTINUOUS
10
5.96713
20
-6.06378
11
5.97837
21
-6.05816
0
LINE
8
BLACK
6
CONTINUOUS
10
5.97837
20
-6.05816
11
6.00087
21
-6.05816
0
LINE
8
BLACK
6
CONTINUOUS
10
6.00087
20
-6.05816
11
6.01212
21
-6.06378
0
LINE
8
BLACK
6
CONTINUOUS
10
6.01212
20
-6.06378
11
6.01774
21
-6.07503
0
LINE
8
BLACK
6
CONTINUOUS
10
6.01774
20
-6.07503
11
6.01774
21
-6.08628
0
LINE
8
BLACK
6
CONTINUOUS
10
6.01774
20
-6.08628
11
5.9615
21
-6.09753
0
LINE
8
BLACK
6
CONTINUOUS
10
6.06274
20
-6.13127
11
6.07399
21
-6.1369
0
LINE
8
BLACK
6
CONTINUOUS
10
6.07399
20
-6.1369
11
6.09648
21
-6.1369
0
LINE
8
BLACK
6
CONTINUOUS
10
6.09648
20
-6.1369
11
6.10773
21
-6.13127
0
LINE
8
BLACK
6
CONTINUOUS
10
6.10773
20
-6.13127
11
6.11336
21
-6.12002
0
LINE
8
BLACK
6
CONTINUOUS
10
6.11336
20
-6.12002
11
6.11336
21
-6.1144
0
LINE
8
BLACK
6
CONTINUOUS
10
6.11336
20
-6.1144
11
6.10773
21
-6.10315
0
LINE
8
BLACK
6
CONTINUOUS
10
6.10773
20
-6.10315
11
6.09648
21
-6.09753
0
LINE
8
BLACK
6
CONTINUOUS
10
6.09648
20
-6.09753
11
6.07961
21
-6.09753
0
LINE
8
BLACK
6
CONTINUOUS
10
6.07961
20
-6.09753
11
6.06836
21
-6.0919
0
LINE
8
BLACK
6
CONTINUOUS
10
6.06836
20
-6.0919
11
6.06274
21
-6.08065
0
LINE
8
BLACK
6
CONTINUOUS
10
6.06274
20
-6.08065
11
6.06274
21
-6.07503
0
LINE
8
BLACK
6
CONTINUOUS
10
6.06274
20
-6.07503
11
6.06836
21
-6.06378
0
LINE
8
BLACK
6
CONTINUOUS
10
6.06836
20
-6.06378
11
6.07961
21
-6.05816
0
LINE
8
BLACK
6
CONTINUOUS
10
6.07961
20
-6.05816
11
6.09648
21
-6.05816
0
LINE
8
BLACK
6
CONTINUOUS
10
6.09648
20
-6.05816
11
6.10773
21
-6.06378
0
LINE
8
BLACK
6
CONTINUOUS
10
6.15273
20
-6.18189
11
6.15835
21
-6.17627
0
LINE
8
BLACK
6
CONTINUOUS
10
6.15835
20
-6.17627
11
6.1696
21
-6.15939
0
LINE
8
BLACK
6
CONTINUOUS
10
6.1696
20
-6.15939
11
6.17522
21
-6.14814
0
LINE
8
BLACK
6
CONTINUOUS
10
6.17522
20
-6.14814
11
6.18085
21
-6.13127
0
LINE
8
BLACK
6
CONTINUOUS
10
6.18085
20
-6.13127
11
6.18647
21
-6.10315
0
LINE
8
BLACK
6
CONTINUOUS
10
6.18647
20
-6.10315
11
6.18647
21
-6.08065
0
LINE
8
BLACK
6
CONTINUOUS
10
6.18647
20
-6.08065
11
6.18085
21
-6.05253
0
LINE
8
BLACK
6
CONTINUOUS
10
6.18085
20
-6.05253
11
6.17522
21
-6.03566
0
LINE
8
BLACK
6
CONTINUOUS
10
6.17522
20
-6.03566
11
6.1696
21
-6.02441
0
LINE
8
BLACK
6
CONTINUOUS
10
6.1696
20
-6.02441
11
6.15835
21
-6.00754
0
LINE
8
BLACK
6
CONTINUOUS
10
6.15835
20
-6.00754
11
6.15273
21
-6.00191
  0
ENDSEC
  0
EOF
