G04 #@! TF.GenerationSoftware,KiCad,Pcbnew,5.1.7-a382d34a8~87~ubuntu18.04.1*
G04 #@! TF.CreationDate,2021-01-18T17:29:04-05:00*
G04 #@! TF.ProjectId,Cree_XML_Driver,43726565-5f58-44d4-9c5f-447269766572,r0*
G04 #@! TF.SameCoordinates,Original*
G04 #@! TF.FileFunction,Paste,Top*
G04 #@! TF.FilePolarity,Positive*
%FSLAX46Y46*%
G04 Gerber Fmt 4.6, Leading zero omitted, Abs format (unit mm)*
G04 Created by KiCad (PCBNEW 5.1.7-a382d34a8~87~ubuntu18.04.1) date 2021-01-18 17:29:04*
%MOMM*%
%LPD*%
G01*
G04 APERTURE LIST*
%ADD10R,1.200000X3.700000*%
%ADD11R,0.900000X0.800000*%
%ADD12R,0.650000X1.220000*%
%ADD13R,1.100000X1.100000*%
G04 APERTURE END LIST*
G04 #@! TO.C,U107*
G36*
G01*
X146900000Y-108645000D02*
X146900000Y-108345000D01*
G75*
G02*
X147050000Y-108195000I150000J0D01*
G01*
X148700000Y-108195000D01*
G75*
G02*
X148850000Y-108345000I0J-150000D01*
G01*
X148850000Y-108645000D01*
G75*
G02*
X148700000Y-108795000I-150000J0D01*
G01*
X147050000Y-108795000D01*
G75*
G02*
X146900000Y-108645000I0J150000D01*
G01*
G37*
G36*
G01*
X146900000Y-109915000D02*
X146900000Y-109615000D01*
G75*
G02*
X147050000Y-109465000I150000J0D01*
G01*
X148700000Y-109465000D01*
G75*
G02*
X148850000Y-109615000I0J-150000D01*
G01*
X148850000Y-109915000D01*
G75*
G02*
X148700000Y-110065000I-150000J0D01*
G01*
X147050000Y-110065000D01*
G75*
G02*
X146900000Y-109915000I0J150000D01*
G01*
G37*
G36*
G01*
X146900000Y-111185000D02*
X146900000Y-110885000D01*
G75*
G02*
X147050000Y-110735000I150000J0D01*
G01*
X148700000Y-110735000D01*
G75*
G02*
X148850000Y-110885000I0J-150000D01*
G01*
X148850000Y-111185000D01*
G75*
G02*
X148700000Y-111335000I-150000J0D01*
G01*
X147050000Y-111335000D01*
G75*
G02*
X146900000Y-111185000I0J150000D01*
G01*
G37*
G36*
G01*
X146900000Y-112455000D02*
X146900000Y-112155000D01*
G75*
G02*
X147050000Y-112005000I150000J0D01*
G01*
X148700000Y-112005000D01*
G75*
G02*
X148850000Y-112155000I0J-150000D01*
G01*
X148850000Y-112455000D01*
G75*
G02*
X148700000Y-112605000I-150000J0D01*
G01*
X147050000Y-112605000D01*
G75*
G02*
X146900000Y-112455000I0J150000D01*
G01*
G37*
G36*
G01*
X141950000Y-112455000D02*
X141950000Y-112155000D01*
G75*
G02*
X142100000Y-112005000I150000J0D01*
G01*
X143750000Y-112005000D01*
G75*
G02*
X143900000Y-112155000I0J-150000D01*
G01*
X143900000Y-112455000D01*
G75*
G02*
X143750000Y-112605000I-150000J0D01*
G01*
X142100000Y-112605000D01*
G75*
G02*
X141950000Y-112455000I0J150000D01*
G01*
G37*
G36*
G01*
X141950000Y-111185000D02*
X141950000Y-110885000D01*
G75*
G02*
X142100000Y-110735000I150000J0D01*
G01*
X143750000Y-110735000D01*
G75*
G02*
X143900000Y-110885000I0J-150000D01*
G01*
X143900000Y-111185000D01*
G75*
G02*
X143750000Y-111335000I-150000J0D01*
G01*
X142100000Y-111335000D01*
G75*
G02*
X141950000Y-111185000I0J150000D01*
G01*
G37*
G36*
G01*
X141950000Y-109915000D02*
X141950000Y-109615000D01*
G75*
G02*
X142100000Y-109465000I150000J0D01*
G01*
X143750000Y-109465000D01*
G75*
G02*
X143900000Y-109615000I0J-150000D01*
G01*
X143900000Y-109915000D01*
G75*
G02*
X143750000Y-110065000I-150000J0D01*
G01*
X142100000Y-110065000D01*
G75*
G02*
X141950000Y-109915000I0J150000D01*
G01*
G37*
G36*
G01*
X141950000Y-108645000D02*
X141950000Y-108345000D01*
G75*
G02*
X142100000Y-108195000I150000J0D01*
G01*
X143750000Y-108195000D01*
G75*
G02*
X143900000Y-108345000I0J-150000D01*
G01*
X143900000Y-108645000D01*
G75*
G02*
X143750000Y-108795000I-150000J0D01*
G01*
X142100000Y-108795000D01*
G75*
G02*
X141950000Y-108645000I0J150000D01*
G01*
G37*
G04 #@! TD*
G04 #@! TO.C,U106*
G36*
G01*
X142750000Y-94540000D02*
X142750000Y-94240000D01*
G75*
G02*
X142900000Y-94090000I150000J0D01*
G01*
X144550000Y-94090000D01*
G75*
G02*
X144700000Y-94240000I0J-150000D01*
G01*
X144700000Y-94540000D01*
G75*
G02*
X144550000Y-94690000I-150000J0D01*
G01*
X142900000Y-94690000D01*
G75*
G02*
X142750000Y-94540000I0J150000D01*
G01*
G37*
G36*
G01*
X142750000Y-95810000D02*
X142750000Y-95510000D01*
G75*
G02*
X142900000Y-95360000I150000J0D01*
G01*
X144550000Y-95360000D01*
G75*
G02*
X144700000Y-95510000I0J-150000D01*
G01*
X144700000Y-95810000D01*
G75*
G02*
X144550000Y-95960000I-150000J0D01*
G01*
X142900000Y-95960000D01*
G75*
G02*
X142750000Y-95810000I0J150000D01*
G01*
G37*
G36*
G01*
X142750000Y-97080000D02*
X142750000Y-96780000D01*
G75*
G02*
X142900000Y-96630000I150000J0D01*
G01*
X144550000Y-96630000D01*
G75*
G02*
X144700000Y-96780000I0J-150000D01*
G01*
X144700000Y-97080000D01*
G75*
G02*
X144550000Y-97230000I-150000J0D01*
G01*
X142900000Y-97230000D01*
G75*
G02*
X142750000Y-97080000I0J150000D01*
G01*
G37*
G36*
G01*
X142750000Y-98350000D02*
X142750000Y-98050000D01*
G75*
G02*
X142900000Y-97900000I150000J0D01*
G01*
X144550000Y-97900000D01*
G75*
G02*
X144700000Y-98050000I0J-150000D01*
G01*
X144700000Y-98350000D01*
G75*
G02*
X144550000Y-98500000I-150000J0D01*
G01*
X142900000Y-98500000D01*
G75*
G02*
X142750000Y-98350000I0J150000D01*
G01*
G37*
G36*
G01*
X142750000Y-99620000D02*
X142750000Y-99320000D01*
G75*
G02*
X142900000Y-99170000I150000J0D01*
G01*
X144550000Y-99170000D01*
G75*
G02*
X144700000Y-99320000I0J-150000D01*
G01*
X144700000Y-99620000D01*
G75*
G02*
X144550000Y-99770000I-150000J0D01*
G01*
X142900000Y-99770000D01*
G75*
G02*
X142750000Y-99620000I0J150000D01*
G01*
G37*
G36*
G01*
X142750000Y-100890000D02*
X142750000Y-100590000D01*
G75*
G02*
X142900000Y-100440000I150000J0D01*
G01*
X144550000Y-100440000D01*
G75*
G02*
X144700000Y-100590000I0J-150000D01*
G01*
X144700000Y-100890000D01*
G75*
G02*
X144550000Y-101040000I-150000J0D01*
G01*
X142900000Y-101040000D01*
G75*
G02*
X142750000Y-100890000I0J150000D01*
G01*
G37*
G36*
G01*
X142750000Y-102160000D02*
X142750000Y-101860000D01*
G75*
G02*
X142900000Y-101710000I150000J0D01*
G01*
X144550000Y-101710000D01*
G75*
G02*
X144700000Y-101860000I0J-150000D01*
G01*
X144700000Y-102160000D01*
G75*
G02*
X144550000Y-102310000I-150000J0D01*
G01*
X142900000Y-102310000D01*
G75*
G02*
X142750000Y-102160000I0J150000D01*
G01*
G37*
G36*
G01*
X147700000Y-102160000D02*
X147700000Y-101860000D01*
G75*
G02*
X147850000Y-101710000I150000J0D01*
G01*
X149500000Y-101710000D01*
G75*
G02*
X149650000Y-101860000I0J-150000D01*
G01*
X149650000Y-102160000D01*
G75*
G02*
X149500000Y-102310000I-150000J0D01*
G01*
X147850000Y-102310000D01*
G75*
G02*
X147700000Y-102160000I0J150000D01*
G01*
G37*
G36*
G01*
X147700000Y-100890000D02*
X147700000Y-100590000D01*
G75*
G02*
X147850000Y-100440000I150000J0D01*
G01*
X149500000Y-100440000D01*
G75*
G02*
X149650000Y-100590000I0J-150000D01*
G01*
X149650000Y-100890000D01*
G75*
G02*
X149500000Y-101040000I-150000J0D01*
G01*
X147850000Y-101040000D01*
G75*
G02*
X147700000Y-100890000I0J150000D01*
G01*
G37*
G36*
G01*
X147700000Y-99620000D02*
X147700000Y-99320000D01*
G75*
G02*
X147850000Y-99170000I150000J0D01*
G01*
X149500000Y-99170000D01*
G75*
G02*
X149650000Y-99320000I0J-150000D01*
G01*
X149650000Y-99620000D01*
G75*
G02*
X149500000Y-99770000I-150000J0D01*
G01*
X147850000Y-99770000D01*
G75*
G02*
X147700000Y-99620000I0J150000D01*
G01*
G37*
G36*
G01*
X147700000Y-98350000D02*
X147700000Y-98050000D01*
G75*
G02*
X147850000Y-97900000I150000J0D01*
G01*
X149500000Y-97900000D01*
G75*
G02*
X149650000Y-98050000I0J-150000D01*
G01*
X149650000Y-98350000D01*
G75*
G02*
X149500000Y-98500000I-150000J0D01*
G01*
X147850000Y-98500000D01*
G75*
G02*
X147700000Y-98350000I0J150000D01*
G01*
G37*
G36*
G01*
X147700000Y-97080000D02*
X147700000Y-96780000D01*
G75*
G02*
X147850000Y-96630000I150000J0D01*
G01*
X149500000Y-96630000D01*
G75*
G02*
X149650000Y-96780000I0J-150000D01*
G01*
X149650000Y-97080000D01*
G75*
G02*
X149500000Y-97230000I-150000J0D01*
G01*
X147850000Y-97230000D01*
G75*
G02*
X147700000Y-97080000I0J150000D01*
G01*
G37*
G36*
G01*
X147700000Y-95810000D02*
X147700000Y-95510000D01*
G75*
G02*
X147850000Y-95360000I150000J0D01*
G01*
X149500000Y-95360000D01*
G75*
G02*
X149650000Y-95510000I0J-150000D01*
G01*
X149650000Y-95810000D01*
G75*
G02*
X149500000Y-95960000I-150000J0D01*
G01*
X147850000Y-95960000D01*
G75*
G02*
X147700000Y-95810000I0J150000D01*
G01*
G37*
G36*
G01*
X147700000Y-94540000D02*
X147700000Y-94240000D01*
G75*
G02*
X147850000Y-94090000I150000J0D01*
G01*
X149500000Y-94090000D01*
G75*
G02*
X149650000Y-94240000I0J-150000D01*
G01*
X149650000Y-94540000D01*
G75*
G02*
X149500000Y-94690000I-150000J0D01*
G01*
X147850000Y-94690000D01*
G75*
G02*
X147700000Y-94540000I0J150000D01*
G01*
G37*
G04 #@! TD*
G04 #@! TO.C,U105*
G36*
G01*
X146900000Y-114145000D02*
X146900000Y-113845000D01*
G75*
G02*
X147050000Y-113695000I150000J0D01*
G01*
X148700000Y-113695000D01*
G75*
G02*
X148850000Y-113845000I0J-150000D01*
G01*
X148850000Y-114145000D01*
G75*
G02*
X148700000Y-114295000I-150000J0D01*
G01*
X147050000Y-114295000D01*
G75*
G02*
X146900000Y-114145000I0J150000D01*
G01*
G37*
G36*
G01*
X146900000Y-115415000D02*
X146900000Y-115115000D01*
G75*
G02*
X147050000Y-114965000I150000J0D01*
G01*
X148700000Y-114965000D01*
G75*
G02*
X148850000Y-115115000I0J-150000D01*
G01*
X148850000Y-115415000D01*
G75*
G02*
X148700000Y-115565000I-150000J0D01*
G01*
X147050000Y-115565000D01*
G75*
G02*
X146900000Y-115415000I0J150000D01*
G01*
G37*
G36*
G01*
X146900000Y-116685000D02*
X146900000Y-116385000D01*
G75*
G02*
X147050000Y-116235000I150000J0D01*
G01*
X148700000Y-116235000D01*
G75*
G02*
X148850000Y-116385000I0J-150000D01*
G01*
X148850000Y-116685000D01*
G75*
G02*
X148700000Y-116835000I-150000J0D01*
G01*
X147050000Y-116835000D01*
G75*
G02*
X146900000Y-116685000I0J150000D01*
G01*
G37*
G36*
G01*
X146900000Y-117955000D02*
X146900000Y-117655000D01*
G75*
G02*
X147050000Y-117505000I150000J0D01*
G01*
X148700000Y-117505000D01*
G75*
G02*
X148850000Y-117655000I0J-150000D01*
G01*
X148850000Y-117955000D01*
G75*
G02*
X148700000Y-118105000I-150000J0D01*
G01*
X147050000Y-118105000D01*
G75*
G02*
X146900000Y-117955000I0J150000D01*
G01*
G37*
G36*
G01*
X141950000Y-117955000D02*
X141950000Y-117655000D01*
G75*
G02*
X142100000Y-117505000I150000J0D01*
G01*
X143750000Y-117505000D01*
G75*
G02*
X143900000Y-117655000I0J-150000D01*
G01*
X143900000Y-117955000D01*
G75*
G02*
X143750000Y-118105000I-150000J0D01*
G01*
X142100000Y-118105000D01*
G75*
G02*
X141950000Y-117955000I0J150000D01*
G01*
G37*
G36*
G01*
X141950000Y-116685000D02*
X141950000Y-116385000D01*
G75*
G02*
X142100000Y-116235000I150000J0D01*
G01*
X143750000Y-116235000D01*
G75*
G02*
X143900000Y-116385000I0J-150000D01*
G01*
X143900000Y-116685000D01*
G75*
G02*
X143750000Y-116835000I-150000J0D01*
G01*
X142100000Y-116835000D01*
G75*
G02*
X141950000Y-116685000I0J150000D01*
G01*
G37*
G36*
G01*
X141950000Y-115415000D02*
X141950000Y-115115000D01*
G75*
G02*
X142100000Y-114965000I150000J0D01*
G01*
X143750000Y-114965000D01*
G75*
G02*
X143900000Y-115115000I0J-150000D01*
G01*
X143900000Y-115415000D01*
G75*
G02*
X143750000Y-115565000I-150000J0D01*
G01*
X142100000Y-115565000D01*
G75*
G02*
X141950000Y-115415000I0J150000D01*
G01*
G37*
G36*
G01*
X141950000Y-114145000D02*
X141950000Y-113845000D01*
G75*
G02*
X142100000Y-113695000I150000J0D01*
G01*
X143750000Y-113695000D01*
G75*
G02*
X143900000Y-113845000I0J-150000D01*
G01*
X143900000Y-114145000D01*
G75*
G02*
X143750000Y-114295000I-150000J0D01*
G01*
X142100000Y-114295000D01*
G75*
G02*
X141950000Y-114145000I0J150000D01*
G01*
G37*
G04 #@! TD*
D10*
G04 #@! TO.C,L102*
X132800000Y-118300000D03*
X130000000Y-118300000D03*
G04 #@! TD*
G04 #@! TO.C,R116*
G36*
G01*
X142143750Y-120550000D02*
X142656250Y-120550000D01*
G75*
G02*
X142875000Y-120768750I0J-218750D01*
G01*
X142875000Y-121206250D01*
G75*
G02*
X142656250Y-121425000I-218750J0D01*
G01*
X142143750Y-121425000D01*
G75*
G02*
X141925000Y-121206250I0J218750D01*
G01*
X141925000Y-120768750D01*
G75*
G02*
X142143750Y-120550000I218750J0D01*
G01*
G37*
G36*
G01*
X142143750Y-118975000D02*
X142656250Y-118975000D01*
G75*
G02*
X142875000Y-119193750I0J-218750D01*
G01*
X142875000Y-119631250D01*
G75*
G02*
X142656250Y-119850000I-218750J0D01*
G01*
X142143750Y-119850000D01*
G75*
G02*
X141925000Y-119631250I0J218750D01*
G01*
X141925000Y-119193750D01*
G75*
G02*
X142143750Y-118975000I218750J0D01*
G01*
G37*
G04 #@! TD*
G04 #@! TO.C,R108*
G36*
G01*
X101950000Y-108743750D02*
X101950000Y-109656250D01*
G75*
G02*
X101706250Y-109900000I-243750J0D01*
G01*
X101218750Y-109900000D01*
G75*
G02*
X100975000Y-109656250I0J243750D01*
G01*
X100975000Y-108743750D01*
G75*
G02*
X101218750Y-108500000I243750J0D01*
G01*
X101706250Y-108500000D01*
G75*
G02*
X101950000Y-108743750I0J-243750D01*
G01*
G37*
G36*
G01*
X103825000Y-108743750D02*
X103825000Y-109656250D01*
G75*
G02*
X103581250Y-109900000I-243750J0D01*
G01*
X103093750Y-109900000D01*
G75*
G02*
X102850000Y-109656250I0J243750D01*
G01*
X102850000Y-108743750D01*
G75*
G02*
X103093750Y-108500000I243750J0D01*
G01*
X103581250Y-108500000D01*
G75*
G02*
X103825000Y-108743750I0J-243750D01*
G01*
G37*
G04 #@! TD*
G04 #@! TO.C,R107*
G36*
G01*
X103825000Y-110643750D02*
X103825000Y-111556250D01*
G75*
G02*
X103581250Y-111800000I-243750J0D01*
G01*
X103093750Y-111800000D01*
G75*
G02*
X102850000Y-111556250I0J243750D01*
G01*
X102850000Y-110643750D01*
G75*
G02*
X103093750Y-110400000I243750J0D01*
G01*
X103581250Y-110400000D01*
G75*
G02*
X103825000Y-110643750I0J-243750D01*
G01*
G37*
G36*
G01*
X101950000Y-110643750D02*
X101950000Y-111556250D01*
G75*
G02*
X101706250Y-111800000I-243750J0D01*
G01*
X101218750Y-111800000D01*
G75*
G02*
X100975000Y-111556250I0J243750D01*
G01*
X100975000Y-110643750D01*
G75*
G02*
X101218750Y-110400000I243750J0D01*
G01*
X101706250Y-110400000D01*
G75*
G02*
X101950000Y-110643750I0J-243750D01*
G01*
G37*
G04 #@! TD*
G04 #@! TO.C,R112*
G36*
G01*
X96812500Y-108743750D02*
X96812500Y-109256250D01*
G75*
G02*
X96593750Y-109475000I-218750J0D01*
G01*
X96156250Y-109475000D01*
G75*
G02*
X95937500Y-109256250I0J218750D01*
G01*
X95937500Y-108743750D01*
G75*
G02*
X96156250Y-108525000I218750J0D01*
G01*
X96593750Y-108525000D01*
G75*
G02*
X96812500Y-108743750I0J-218750D01*
G01*
G37*
G36*
G01*
X95237500Y-108743750D02*
X95237500Y-109256250D01*
G75*
G02*
X95018750Y-109475000I-218750J0D01*
G01*
X94581250Y-109475000D01*
G75*
G02*
X94362500Y-109256250I0J218750D01*
G01*
X94362500Y-108743750D01*
G75*
G02*
X94581250Y-108525000I218750J0D01*
G01*
X95018750Y-108525000D01*
G75*
G02*
X95237500Y-108743750I0J-218750D01*
G01*
G37*
G04 #@! TD*
D11*
G04 #@! TO.C,Q104*
X99900000Y-110000000D03*
X97900000Y-110950000D03*
X97900000Y-109050000D03*
G04 #@! TD*
G04 #@! TO.C,R113*
G36*
G01*
X147156250Y-119850000D02*
X146643750Y-119850000D01*
G75*
G02*
X146425000Y-119631250I0J218750D01*
G01*
X146425000Y-119193750D01*
G75*
G02*
X146643750Y-118975000I218750J0D01*
G01*
X147156250Y-118975000D01*
G75*
G02*
X147375000Y-119193750I0J-218750D01*
G01*
X147375000Y-119631250D01*
G75*
G02*
X147156250Y-119850000I-218750J0D01*
G01*
G37*
G36*
G01*
X147156250Y-121425000D02*
X146643750Y-121425000D01*
G75*
G02*
X146425000Y-121206250I0J218750D01*
G01*
X146425000Y-120768750D01*
G75*
G02*
X146643750Y-120550000I218750J0D01*
G01*
X147156250Y-120550000D01*
G75*
G02*
X147375000Y-120768750I0J-218750D01*
G01*
X147375000Y-121206250D01*
G75*
G02*
X147156250Y-121425000I-218750J0D01*
G01*
G37*
G04 #@! TD*
G04 #@! TO.C,R117*
G36*
G01*
X149575000Y-116856250D02*
X149575000Y-116343750D01*
G75*
G02*
X149793750Y-116125000I218750J0D01*
G01*
X150231250Y-116125000D01*
G75*
G02*
X150450000Y-116343750I0J-218750D01*
G01*
X150450000Y-116856250D01*
G75*
G02*
X150231250Y-117075000I-218750J0D01*
G01*
X149793750Y-117075000D01*
G75*
G02*
X149575000Y-116856250I0J218750D01*
G01*
G37*
G36*
G01*
X151150000Y-116856250D02*
X151150000Y-116343750D01*
G75*
G02*
X151368750Y-116125000I218750J0D01*
G01*
X151806250Y-116125000D01*
G75*
G02*
X152025000Y-116343750I0J-218750D01*
G01*
X152025000Y-116856250D01*
G75*
G02*
X151806250Y-117075000I-218750J0D01*
G01*
X151368750Y-117075000D01*
G75*
G02*
X151150000Y-116856250I0J218750D01*
G01*
G37*
G04 #@! TD*
G04 #@! TO.C,C110*
G36*
G01*
X148050000Y-92443750D02*
X148050000Y-92956250D01*
G75*
G02*
X147831250Y-93175000I-218750J0D01*
G01*
X147393750Y-93175000D01*
G75*
G02*
X147175000Y-92956250I0J218750D01*
G01*
X147175000Y-92443750D01*
G75*
G02*
X147393750Y-92225000I218750J0D01*
G01*
X147831250Y-92225000D01*
G75*
G02*
X148050000Y-92443750I0J-218750D01*
G01*
G37*
G36*
G01*
X149625000Y-92443750D02*
X149625000Y-92956250D01*
G75*
G02*
X149406250Y-93175000I-218750J0D01*
G01*
X148968750Y-93175000D01*
G75*
G02*
X148750000Y-92956250I0J218750D01*
G01*
X148750000Y-92443750D01*
G75*
G02*
X148968750Y-92225000I218750J0D01*
G01*
X149406250Y-92225000D01*
G75*
G02*
X149625000Y-92443750I0J-218750D01*
G01*
G37*
G04 #@! TD*
G04 #@! TO.C,R109*
G36*
G01*
X95350000Y-101843750D02*
X95350000Y-102356250D01*
G75*
G02*
X95131250Y-102575000I-218750J0D01*
G01*
X94693750Y-102575000D01*
G75*
G02*
X94475000Y-102356250I0J218750D01*
G01*
X94475000Y-101843750D01*
G75*
G02*
X94693750Y-101625000I218750J0D01*
G01*
X95131250Y-101625000D01*
G75*
G02*
X95350000Y-101843750I0J-218750D01*
G01*
G37*
G36*
G01*
X96925000Y-101843750D02*
X96925000Y-102356250D01*
G75*
G02*
X96706250Y-102575000I-218750J0D01*
G01*
X96268750Y-102575000D01*
G75*
G02*
X96050000Y-102356250I0J218750D01*
G01*
X96050000Y-101843750D01*
G75*
G02*
X96268750Y-101625000I218750J0D01*
G01*
X96706250Y-101625000D01*
G75*
G02*
X96925000Y-101843750I0J-218750D01*
G01*
G37*
G04 #@! TD*
G04 #@! TO.C,R104*
G36*
G01*
X101950000Y-97443750D02*
X101950000Y-98356250D01*
G75*
G02*
X101706250Y-98600000I-243750J0D01*
G01*
X101218750Y-98600000D01*
G75*
G02*
X100975000Y-98356250I0J243750D01*
G01*
X100975000Y-97443750D01*
G75*
G02*
X101218750Y-97200000I243750J0D01*
G01*
X101706250Y-97200000D01*
G75*
G02*
X101950000Y-97443750I0J-243750D01*
G01*
G37*
G36*
G01*
X103825000Y-97443750D02*
X103825000Y-98356250D01*
G75*
G02*
X103581250Y-98600000I-243750J0D01*
G01*
X103093750Y-98600000D01*
G75*
G02*
X102850000Y-98356250I0J243750D01*
G01*
X102850000Y-97443750D01*
G75*
G02*
X103093750Y-97200000I243750J0D01*
G01*
X103581250Y-97200000D01*
G75*
G02*
X103825000Y-97443750I0J-243750D01*
G01*
G37*
G04 #@! TD*
D12*
G04 #@! TO.C,U101*
X136450000Y-97030000D03*
X134550000Y-97030000D03*
X134550000Y-94410000D03*
X135500000Y-94410000D03*
X136450000Y-94410000D03*
G04 #@! TD*
G04 #@! TO.C,C103*
G36*
G01*
X128656250Y-119155000D02*
X127743750Y-119155000D01*
G75*
G02*
X127500000Y-118911250I0J243750D01*
G01*
X127500000Y-118423750D01*
G75*
G02*
X127743750Y-118180000I243750J0D01*
G01*
X128656250Y-118180000D01*
G75*
G02*
X128900000Y-118423750I0J-243750D01*
G01*
X128900000Y-118911250D01*
G75*
G02*
X128656250Y-119155000I-243750J0D01*
G01*
G37*
G36*
G01*
X128656250Y-117280000D02*
X127743750Y-117280000D01*
G75*
G02*
X127500000Y-117036250I0J243750D01*
G01*
X127500000Y-116548750D01*
G75*
G02*
X127743750Y-116305000I243750J0D01*
G01*
X128656250Y-116305000D01*
G75*
G02*
X128900000Y-116548750I0J-243750D01*
G01*
X128900000Y-117036250D01*
G75*
G02*
X128656250Y-117280000I-243750J0D01*
G01*
G37*
G04 #@! TD*
G04 #@! TO.C,R106*
G36*
G01*
X103887500Y-115243750D02*
X103887500Y-116156250D01*
G75*
G02*
X103643750Y-116400000I-243750J0D01*
G01*
X103156250Y-116400000D01*
G75*
G02*
X102912500Y-116156250I0J243750D01*
G01*
X102912500Y-115243750D01*
G75*
G02*
X103156250Y-115000000I243750J0D01*
G01*
X103643750Y-115000000D01*
G75*
G02*
X103887500Y-115243750I0J-243750D01*
G01*
G37*
G36*
G01*
X102012500Y-115243750D02*
X102012500Y-116156250D01*
G75*
G02*
X101768750Y-116400000I-243750J0D01*
G01*
X101281250Y-116400000D01*
G75*
G02*
X101037500Y-116156250I0J243750D01*
G01*
X101037500Y-115243750D01*
G75*
G02*
X101281250Y-115000000I243750J0D01*
G01*
X101768750Y-115000000D01*
G75*
G02*
X102012500Y-115243750I0J-243750D01*
G01*
G37*
G04 #@! TD*
D11*
G04 #@! TO.C,Q103*
X98000000Y-113550000D03*
X98000000Y-115450000D03*
X100000000Y-114500000D03*
G04 #@! TD*
G04 #@! TO.C,R105*
G36*
G01*
X103887500Y-113243750D02*
X103887500Y-114156250D01*
G75*
G02*
X103643750Y-114400000I-243750J0D01*
G01*
X103156250Y-114400000D01*
G75*
G02*
X102912500Y-114156250I0J243750D01*
G01*
X102912500Y-113243750D01*
G75*
G02*
X103156250Y-113000000I243750J0D01*
G01*
X103643750Y-113000000D01*
G75*
G02*
X103887500Y-113243750I0J-243750D01*
G01*
G37*
G36*
G01*
X102012500Y-113243750D02*
X102012500Y-114156250D01*
G75*
G02*
X101768750Y-114400000I-243750J0D01*
G01*
X101281250Y-114400000D01*
G75*
G02*
X101037500Y-114156250I0J243750D01*
G01*
X101037500Y-113243750D01*
G75*
G02*
X101281250Y-113000000I243750J0D01*
G01*
X101768750Y-113000000D01*
G75*
G02*
X102012500Y-113243750I0J-243750D01*
G01*
G37*
G04 #@! TD*
D12*
G04 #@! TO.C,U102*
X136434000Y-119530000D03*
X134534000Y-119530000D03*
X134534000Y-116910000D03*
X135484000Y-116910000D03*
X136434000Y-116910000D03*
G04 #@! TD*
G04 #@! TO.C,R111*
G36*
G01*
X96925000Y-113243750D02*
X96925000Y-113756250D01*
G75*
G02*
X96706250Y-113975000I-218750J0D01*
G01*
X96268750Y-113975000D01*
G75*
G02*
X96050000Y-113756250I0J218750D01*
G01*
X96050000Y-113243750D01*
G75*
G02*
X96268750Y-113025000I218750J0D01*
G01*
X96706250Y-113025000D01*
G75*
G02*
X96925000Y-113243750I0J-218750D01*
G01*
G37*
G36*
G01*
X95350000Y-113243750D02*
X95350000Y-113756250D01*
G75*
G02*
X95131250Y-113975000I-218750J0D01*
G01*
X94693750Y-113975000D01*
G75*
G02*
X94475000Y-113756250I0J218750D01*
G01*
X94475000Y-113243750D01*
G75*
G02*
X94693750Y-113025000I218750J0D01*
G01*
X95131250Y-113025000D01*
G75*
G02*
X95350000Y-113243750I0J-218750D01*
G01*
G37*
G04 #@! TD*
G04 #@! TO.C,R101*
G36*
G01*
X103825000Y-101843750D02*
X103825000Y-102756250D01*
G75*
G02*
X103581250Y-103000000I-243750J0D01*
G01*
X103093750Y-103000000D01*
G75*
G02*
X102850000Y-102756250I0J243750D01*
G01*
X102850000Y-101843750D01*
G75*
G02*
X103093750Y-101600000I243750J0D01*
G01*
X103581250Y-101600000D01*
G75*
G02*
X103825000Y-101843750I0J-243750D01*
G01*
G37*
G36*
G01*
X101950000Y-101843750D02*
X101950000Y-102756250D01*
G75*
G02*
X101706250Y-103000000I-243750J0D01*
G01*
X101218750Y-103000000D01*
G75*
G02*
X100975000Y-102756250I0J243750D01*
G01*
X100975000Y-101843750D01*
G75*
G02*
X101218750Y-101600000I243750J0D01*
G01*
X101706250Y-101600000D01*
G75*
G02*
X101950000Y-101843750I0J-243750D01*
G01*
G37*
G04 #@! TD*
G04 #@! TO.C,C101*
G36*
G01*
X138656250Y-97825000D02*
X137743750Y-97825000D01*
G75*
G02*
X137500000Y-97581250I0J243750D01*
G01*
X137500000Y-97093750D01*
G75*
G02*
X137743750Y-96850000I243750J0D01*
G01*
X138656250Y-96850000D01*
G75*
G02*
X138900000Y-97093750I0J-243750D01*
G01*
X138900000Y-97581250D01*
G75*
G02*
X138656250Y-97825000I-243750J0D01*
G01*
G37*
G36*
G01*
X138656250Y-95950000D02*
X137743750Y-95950000D01*
G75*
G02*
X137500000Y-95706250I0J243750D01*
G01*
X137500000Y-95218750D01*
G75*
G02*
X137743750Y-94975000I243750J0D01*
G01*
X138656250Y-94975000D01*
G75*
G02*
X138900000Y-95218750I0J-243750D01*
G01*
X138900000Y-95706250D01*
G75*
G02*
X138656250Y-95950000I-243750J0D01*
G01*
G37*
G04 #@! TD*
G04 #@! TO.C,C102*
G36*
G01*
X128656250Y-96655000D02*
X127743750Y-96655000D01*
G75*
G02*
X127500000Y-96411250I0J243750D01*
G01*
X127500000Y-95923750D01*
G75*
G02*
X127743750Y-95680000I243750J0D01*
G01*
X128656250Y-95680000D01*
G75*
G02*
X128900000Y-95923750I0J-243750D01*
G01*
X128900000Y-96411250D01*
G75*
G02*
X128656250Y-96655000I-243750J0D01*
G01*
G37*
G36*
G01*
X128656250Y-94780000D02*
X127743750Y-94780000D01*
G75*
G02*
X127500000Y-94536250I0J243750D01*
G01*
X127500000Y-94048750D01*
G75*
G02*
X127743750Y-93805000I243750J0D01*
G01*
X128656250Y-93805000D01*
G75*
G02*
X128900000Y-94048750I0J-243750D01*
G01*
X128900000Y-94536250D01*
G75*
G02*
X128656250Y-94780000I-243750J0D01*
G01*
G37*
G04 #@! TD*
G04 #@! TO.C,C105*
G36*
G01*
X138640250Y-103450000D02*
X137727750Y-103450000D01*
G75*
G02*
X137484000Y-103206250I0J243750D01*
G01*
X137484000Y-102718750D01*
G75*
G02*
X137727750Y-102475000I243750J0D01*
G01*
X138640250Y-102475000D01*
G75*
G02*
X138884000Y-102718750I0J-243750D01*
G01*
X138884000Y-103206250D01*
G75*
G02*
X138640250Y-103450000I-243750J0D01*
G01*
G37*
G36*
G01*
X138640250Y-105325000D02*
X137727750Y-105325000D01*
G75*
G02*
X137484000Y-105081250I0J243750D01*
G01*
X137484000Y-104593750D01*
G75*
G02*
X137727750Y-104350000I243750J0D01*
G01*
X138640250Y-104350000D01*
G75*
G02*
X138884000Y-104593750I0J-243750D01*
G01*
X138884000Y-105081250D01*
G75*
G02*
X138640250Y-105325000I-243750J0D01*
G01*
G37*
G04 #@! TD*
G04 #@! TO.C,C106*
G36*
G01*
X128656250Y-102280000D02*
X127743750Y-102280000D01*
G75*
G02*
X127500000Y-102036250I0J243750D01*
G01*
X127500000Y-101548750D01*
G75*
G02*
X127743750Y-101305000I243750J0D01*
G01*
X128656250Y-101305000D01*
G75*
G02*
X128900000Y-101548750I0J-243750D01*
G01*
X128900000Y-102036250D01*
G75*
G02*
X128656250Y-102280000I-243750J0D01*
G01*
G37*
G36*
G01*
X128656250Y-104155000D02*
X127743750Y-104155000D01*
G75*
G02*
X127500000Y-103911250I0J243750D01*
G01*
X127500000Y-103423750D01*
G75*
G02*
X127743750Y-103180000I243750J0D01*
G01*
X128656250Y-103180000D01*
G75*
G02*
X128900000Y-103423750I0J-243750D01*
G01*
X128900000Y-103911250D01*
G75*
G02*
X128656250Y-104155000I-243750J0D01*
G01*
G37*
G04 #@! TD*
G04 #@! TO.C,C107*
G36*
G01*
X128656250Y-109780000D02*
X127743750Y-109780000D01*
G75*
G02*
X127500000Y-109536250I0J243750D01*
G01*
X127500000Y-109048750D01*
G75*
G02*
X127743750Y-108805000I243750J0D01*
G01*
X128656250Y-108805000D01*
G75*
G02*
X128900000Y-109048750I0J-243750D01*
G01*
X128900000Y-109536250D01*
G75*
G02*
X128656250Y-109780000I-243750J0D01*
G01*
G37*
G36*
G01*
X128656250Y-111655000D02*
X127743750Y-111655000D01*
G75*
G02*
X127500000Y-111411250I0J243750D01*
G01*
X127500000Y-110923750D01*
G75*
G02*
X127743750Y-110680000I243750J0D01*
G01*
X128656250Y-110680000D01*
G75*
G02*
X128900000Y-110923750I0J-243750D01*
G01*
X128900000Y-111411250D01*
G75*
G02*
X128656250Y-111655000I-243750J0D01*
G01*
G37*
G04 #@! TD*
G04 #@! TO.C,C108*
G36*
G01*
X138656250Y-112825000D02*
X137743750Y-112825000D01*
G75*
G02*
X137500000Y-112581250I0J243750D01*
G01*
X137500000Y-112093750D01*
G75*
G02*
X137743750Y-111850000I243750J0D01*
G01*
X138656250Y-111850000D01*
G75*
G02*
X138900000Y-112093750I0J-243750D01*
G01*
X138900000Y-112581250D01*
G75*
G02*
X138656250Y-112825000I-243750J0D01*
G01*
G37*
G36*
G01*
X138656250Y-110950000D02*
X137743750Y-110950000D01*
G75*
G02*
X137500000Y-110706250I0J243750D01*
G01*
X137500000Y-110218750D01*
G75*
G02*
X137743750Y-109975000I243750J0D01*
G01*
X138656250Y-109975000D01*
G75*
G02*
X138900000Y-110218750I0J-243750D01*
G01*
X138900000Y-110706250D01*
G75*
G02*
X138656250Y-110950000I-243750J0D01*
G01*
G37*
G04 #@! TD*
G04 #@! TO.C,C109*
G36*
G01*
X148143750Y-118975000D02*
X148656250Y-118975000D01*
G75*
G02*
X148875000Y-119193750I0J-218750D01*
G01*
X148875000Y-119631250D01*
G75*
G02*
X148656250Y-119850000I-218750J0D01*
G01*
X148143750Y-119850000D01*
G75*
G02*
X147925000Y-119631250I0J218750D01*
G01*
X147925000Y-119193750D01*
G75*
G02*
X148143750Y-118975000I218750J0D01*
G01*
G37*
G36*
G01*
X148143750Y-120550000D02*
X148656250Y-120550000D01*
G75*
G02*
X148875000Y-120768750I0J-218750D01*
G01*
X148875000Y-121206250D01*
G75*
G02*
X148656250Y-121425000I-218750J0D01*
G01*
X148143750Y-121425000D01*
G75*
G02*
X147925000Y-121206250I0J218750D01*
G01*
X147925000Y-120768750D01*
G75*
G02*
X148143750Y-120550000I218750J0D01*
G01*
G37*
G04 #@! TD*
G04 #@! TO.C,C111*
G36*
G01*
X148656250Y-105750000D02*
X148143750Y-105750000D01*
G75*
G02*
X147925000Y-105531250I0J218750D01*
G01*
X147925000Y-105093750D01*
G75*
G02*
X148143750Y-104875000I218750J0D01*
G01*
X148656250Y-104875000D01*
G75*
G02*
X148875000Y-105093750I0J-218750D01*
G01*
X148875000Y-105531250D01*
G75*
G02*
X148656250Y-105750000I-218750J0D01*
G01*
G37*
G36*
G01*
X148656250Y-107325000D02*
X148143750Y-107325000D01*
G75*
G02*
X147925000Y-107106250I0J218750D01*
G01*
X147925000Y-106668750D01*
G75*
G02*
X148143750Y-106450000I218750J0D01*
G01*
X148656250Y-106450000D01*
G75*
G02*
X148875000Y-106668750I0J-218750D01*
G01*
X148875000Y-107106250D01*
G75*
G02*
X148656250Y-107325000I-218750J0D01*
G01*
G37*
G04 #@! TD*
D13*
G04 #@! TO.C,D102*
X154200000Y-111000000D03*
X154200000Y-108200000D03*
G04 #@! TD*
D11*
G04 #@! TO.C,Q101*
X100000000Y-103100000D03*
X98000000Y-104050000D03*
X98000000Y-102150000D03*
G04 #@! TD*
G04 #@! TO.C,Q102*
X97900000Y-97950000D03*
X97900000Y-99850000D03*
X99900000Y-98900000D03*
G04 #@! TD*
G04 #@! TO.C,R102*
G36*
G01*
X101950000Y-103743750D02*
X101950000Y-104656250D01*
G75*
G02*
X101706250Y-104900000I-243750J0D01*
G01*
X101218750Y-104900000D01*
G75*
G02*
X100975000Y-104656250I0J243750D01*
G01*
X100975000Y-103743750D01*
G75*
G02*
X101218750Y-103500000I243750J0D01*
G01*
X101706250Y-103500000D01*
G75*
G02*
X101950000Y-103743750I0J-243750D01*
G01*
G37*
G36*
G01*
X103825000Y-103743750D02*
X103825000Y-104656250D01*
G75*
G02*
X103581250Y-104900000I-243750J0D01*
G01*
X103093750Y-104900000D01*
G75*
G02*
X102850000Y-104656250I0J243750D01*
G01*
X102850000Y-103743750D01*
G75*
G02*
X103093750Y-103500000I243750J0D01*
G01*
X103581250Y-103500000D01*
G75*
G02*
X103825000Y-103743750I0J-243750D01*
G01*
G37*
G04 #@! TD*
G04 #@! TO.C,R103*
G36*
G01*
X101950000Y-99443750D02*
X101950000Y-100356250D01*
G75*
G02*
X101706250Y-100600000I-243750J0D01*
G01*
X101218750Y-100600000D01*
G75*
G02*
X100975000Y-100356250I0J243750D01*
G01*
X100975000Y-99443750D01*
G75*
G02*
X101218750Y-99200000I243750J0D01*
G01*
X101706250Y-99200000D01*
G75*
G02*
X101950000Y-99443750I0J-243750D01*
G01*
G37*
G36*
G01*
X103825000Y-99443750D02*
X103825000Y-100356250D01*
G75*
G02*
X103581250Y-100600000I-243750J0D01*
G01*
X103093750Y-100600000D01*
G75*
G02*
X102850000Y-100356250I0J243750D01*
G01*
X102850000Y-99443750D01*
G75*
G02*
X103093750Y-99200000I243750J0D01*
G01*
X103581250Y-99200000D01*
G75*
G02*
X103825000Y-99443750I0J-243750D01*
G01*
G37*
G04 #@! TD*
G04 #@! TO.C,R110*
G36*
G01*
X95250000Y-97643750D02*
X95250000Y-98156250D01*
G75*
G02*
X95031250Y-98375000I-218750J0D01*
G01*
X94593750Y-98375000D01*
G75*
G02*
X94375000Y-98156250I0J218750D01*
G01*
X94375000Y-97643750D01*
G75*
G02*
X94593750Y-97425000I218750J0D01*
G01*
X95031250Y-97425000D01*
G75*
G02*
X95250000Y-97643750I0J-218750D01*
G01*
G37*
G36*
G01*
X96825000Y-97643750D02*
X96825000Y-98156250D01*
G75*
G02*
X96606250Y-98375000I-218750J0D01*
G01*
X96168750Y-98375000D01*
G75*
G02*
X95950000Y-98156250I0J218750D01*
G01*
X95950000Y-97643750D01*
G75*
G02*
X96168750Y-97425000I218750J0D01*
G01*
X96606250Y-97425000D01*
G75*
G02*
X96825000Y-97643750I0J-218750D01*
G01*
G37*
G04 #@! TD*
G04 #@! TO.C,R114*
G36*
G01*
X145143750Y-120550000D02*
X145656250Y-120550000D01*
G75*
G02*
X145875000Y-120768750I0J-218750D01*
G01*
X145875000Y-121206250D01*
G75*
G02*
X145656250Y-121425000I-218750J0D01*
G01*
X145143750Y-121425000D01*
G75*
G02*
X144925000Y-121206250I0J218750D01*
G01*
X144925000Y-120768750D01*
G75*
G02*
X145143750Y-120550000I218750J0D01*
G01*
G37*
G36*
G01*
X145143750Y-118975000D02*
X145656250Y-118975000D01*
G75*
G02*
X145875000Y-119193750I0J-218750D01*
G01*
X145875000Y-119631250D01*
G75*
G02*
X145656250Y-119850000I-218750J0D01*
G01*
X145143750Y-119850000D01*
G75*
G02*
X144925000Y-119631250I0J218750D01*
G01*
X144925000Y-119193750D01*
G75*
G02*
X145143750Y-118975000I218750J0D01*
G01*
G37*
G04 #@! TD*
G04 #@! TO.C,R115*
G36*
G01*
X143643750Y-118975000D02*
X144156250Y-118975000D01*
G75*
G02*
X144375000Y-119193750I0J-218750D01*
G01*
X144375000Y-119631250D01*
G75*
G02*
X144156250Y-119850000I-218750J0D01*
G01*
X143643750Y-119850000D01*
G75*
G02*
X143425000Y-119631250I0J218750D01*
G01*
X143425000Y-119193750D01*
G75*
G02*
X143643750Y-118975000I218750J0D01*
G01*
G37*
G36*
G01*
X143643750Y-120550000D02*
X144156250Y-120550000D01*
G75*
G02*
X144375000Y-120768750I0J-218750D01*
G01*
X144375000Y-121206250D01*
G75*
G02*
X144156250Y-121425000I-218750J0D01*
G01*
X143643750Y-121425000D01*
G75*
G02*
X143425000Y-121206250I0J218750D01*
G01*
X143425000Y-120768750D01*
G75*
G02*
X143643750Y-120550000I218750J0D01*
G01*
G37*
G04 #@! TD*
G04 #@! TO.C,R118*
G36*
G01*
X146643750Y-104875000D02*
X147156250Y-104875000D01*
G75*
G02*
X147375000Y-105093750I0J-218750D01*
G01*
X147375000Y-105531250D01*
G75*
G02*
X147156250Y-105750000I-218750J0D01*
G01*
X146643750Y-105750000D01*
G75*
G02*
X146425000Y-105531250I0J218750D01*
G01*
X146425000Y-105093750D01*
G75*
G02*
X146643750Y-104875000I218750J0D01*
G01*
G37*
G36*
G01*
X146643750Y-106450000D02*
X147156250Y-106450000D01*
G75*
G02*
X147375000Y-106668750I0J-218750D01*
G01*
X147375000Y-107106250D01*
G75*
G02*
X147156250Y-107325000I-218750J0D01*
G01*
X146643750Y-107325000D01*
G75*
G02*
X146425000Y-107106250I0J218750D01*
G01*
X146425000Y-106668750D01*
G75*
G02*
X146643750Y-106450000I218750J0D01*
G01*
G37*
G04 #@! TD*
G04 #@! TO.C,R119*
G36*
G01*
X142656250Y-105750000D02*
X142143750Y-105750000D01*
G75*
G02*
X141925000Y-105531250I0J218750D01*
G01*
X141925000Y-105093750D01*
G75*
G02*
X142143750Y-104875000I218750J0D01*
G01*
X142656250Y-104875000D01*
G75*
G02*
X142875000Y-105093750I0J-218750D01*
G01*
X142875000Y-105531250D01*
G75*
G02*
X142656250Y-105750000I-218750J0D01*
G01*
G37*
G36*
G01*
X142656250Y-107325000D02*
X142143750Y-107325000D01*
G75*
G02*
X141925000Y-107106250I0J218750D01*
G01*
X141925000Y-106668750D01*
G75*
G02*
X142143750Y-106450000I218750J0D01*
G01*
X142656250Y-106450000D01*
G75*
G02*
X142875000Y-106668750I0J-218750D01*
G01*
X142875000Y-107106250D01*
G75*
G02*
X142656250Y-107325000I-218750J0D01*
G01*
G37*
G04 #@! TD*
G04 #@! TO.C,R120*
G36*
G01*
X144156250Y-107325000D02*
X143643750Y-107325000D01*
G75*
G02*
X143425000Y-107106250I0J218750D01*
G01*
X143425000Y-106668750D01*
G75*
G02*
X143643750Y-106450000I218750J0D01*
G01*
X144156250Y-106450000D01*
G75*
G02*
X144375000Y-106668750I0J-218750D01*
G01*
X144375000Y-107106250D01*
G75*
G02*
X144156250Y-107325000I-218750J0D01*
G01*
G37*
G36*
G01*
X144156250Y-105750000D02*
X143643750Y-105750000D01*
G75*
G02*
X143425000Y-105531250I0J218750D01*
G01*
X143425000Y-105093750D01*
G75*
G02*
X143643750Y-104875000I218750J0D01*
G01*
X144156250Y-104875000D01*
G75*
G02*
X144375000Y-105093750I0J-218750D01*
G01*
X144375000Y-105531250D01*
G75*
G02*
X144156250Y-105750000I-218750J0D01*
G01*
G37*
G04 #@! TD*
G04 #@! TO.C,R121*
G36*
G01*
X145656250Y-105750000D02*
X145143750Y-105750000D01*
G75*
G02*
X144925000Y-105531250I0J218750D01*
G01*
X144925000Y-105093750D01*
G75*
G02*
X145143750Y-104875000I218750J0D01*
G01*
X145656250Y-104875000D01*
G75*
G02*
X145875000Y-105093750I0J-218750D01*
G01*
X145875000Y-105531250D01*
G75*
G02*
X145656250Y-105750000I-218750J0D01*
G01*
G37*
G36*
G01*
X145656250Y-107325000D02*
X145143750Y-107325000D01*
G75*
G02*
X144925000Y-107106250I0J218750D01*
G01*
X144925000Y-106668750D01*
G75*
G02*
X145143750Y-106450000I218750J0D01*
G01*
X145656250Y-106450000D01*
G75*
G02*
X145875000Y-106668750I0J-218750D01*
G01*
X145875000Y-107106250D01*
G75*
G02*
X145656250Y-107325000I-218750J0D01*
G01*
G37*
G04 #@! TD*
G04 #@! TO.C,R122*
G36*
G01*
X150350000Y-113243750D02*
X150350000Y-113756250D01*
G75*
G02*
X150131250Y-113975000I-218750J0D01*
G01*
X149693750Y-113975000D01*
G75*
G02*
X149475000Y-113756250I0J218750D01*
G01*
X149475000Y-113243750D01*
G75*
G02*
X149693750Y-113025000I218750J0D01*
G01*
X150131250Y-113025000D01*
G75*
G02*
X150350000Y-113243750I0J-218750D01*
G01*
G37*
G36*
G01*
X151925000Y-113243750D02*
X151925000Y-113756250D01*
G75*
G02*
X151706250Y-113975000I-218750J0D01*
G01*
X151268750Y-113975000D01*
G75*
G02*
X151050000Y-113756250I0J218750D01*
G01*
X151050000Y-113243750D01*
G75*
G02*
X151268750Y-113025000I218750J0D01*
G01*
X151706250Y-113025000D01*
G75*
G02*
X151925000Y-113243750I0J-218750D01*
G01*
G37*
G04 #@! TD*
D12*
G04 #@! TO.C,U103*
X136434000Y-101910000D03*
X135484000Y-101910000D03*
X134534000Y-101910000D03*
X134534000Y-104530000D03*
X136434000Y-104530000D03*
G04 #@! TD*
G04 #@! TO.C,U104*
X136450000Y-109390000D03*
X135500000Y-109390000D03*
X134550000Y-109390000D03*
X134550000Y-112010000D03*
X136450000Y-112010000D03*
G04 #@! TD*
D10*
G04 #@! TO.C,L101*
X132816000Y-95800000D03*
X130016000Y-95800000D03*
G04 #@! TD*
G04 #@! TO.C,L103*
X130000000Y-103300000D03*
X132800000Y-103300000D03*
G04 #@! TD*
G04 #@! TO.C,L104*
X130016000Y-110800000D03*
X132816000Y-110800000D03*
G04 #@! TD*
G04 #@! TO.C,C104*
G36*
G01*
X138659000Y-120350000D02*
X137709000Y-120350000D01*
G75*
G02*
X137459000Y-120100000I0J250000D01*
G01*
X137459000Y-119600000D01*
G75*
G02*
X137709000Y-119350000I250000J0D01*
G01*
X138659000Y-119350000D01*
G75*
G02*
X138909000Y-119600000I0J-250000D01*
G01*
X138909000Y-120100000D01*
G75*
G02*
X138659000Y-120350000I-250000J0D01*
G01*
G37*
G36*
G01*
X138659000Y-118450000D02*
X137709000Y-118450000D01*
G75*
G02*
X137459000Y-118200000I0J250000D01*
G01*
X137459000Y-117700000D01*
G75*
G02*
X137709000Y-117450000I250000J0D01*
G01*
X138659000Y-117450000D01*
G75*
G02*
X138909000Y-117700000I0J-250000D01*
G01*
X138909000Y-118200000D01*
G75*
G02*
X138659000Y-118450000I-250000J0D01*
G01*
G37*
G04 #@! TD*
M02*
