  0
SECTION
  2
HEADER
  9
$ANGBASE
  50
0.0
  9
$ANGDIR
  70
1
  9
$MEASUREMENT
  70
0
  0
ENDSEC
  0
SECTION
  2
TABLES
  0
TABLE
  2
LTYPE
  70
4
  0
LTYPE
  5
40F
  2
CONTINUOUS
  70
0
  3
Solid line
  72
65
  73
0
  40
0.0
  0
LTYPE
  5
410
  2
DASHDOT
 70
0
  3
Dash Dot ____ _ ____ _
 72
65
 73
4
 40
2.0
 49
1.25
 49
-0.25
 49
0.25
 49
-0.25
  0
LTYPE
  5
411
  2
DASHED
 70
0
  3
Dashed __ __ __ __ __
 72
65
 73
2
 40
0.75
 49
0.5
 49
-0.25
  0
LTYPE
  5
43B
  2
DOTTED
 70
0
  3
Dotted .  .  .  .
 72
65
 73
2
 40
0.2
 49
0.0
 49
-0.2
  0
ENDTAB
  0
TABLE
  2
STYLE
  70
4
  0
STYLE
  2
KICAD
  70
0
  40
0
  41
1
  42
1
  50
0
  71
0
  3
isocp.shx
  0
STYLE
  2
KICADB
  70
0
  40
0
  41
1
  42
1
  50
0
  71
0
  3
isocp.shx
  0
STYLE
  2
KICADI
  70
0
  40
0
  41
1
  42
1
  50
15
  71
0
  3
isocp.shx
  0
STYLE
  2
KICADBI
  70
0
  40
0
  41
1
  42
1
  50
15
  71
0
  3
isocp.shx
  0
ENDTAB
  0
TABLE
  2
LAYER
  70
1
  0
LAYER
  2
BLACK
  70
0
  62
7
  6
CONTINUOUS
  0
ENDTAB
  0
ENDSEC
  0
SECTION
  2
ENTITIES
0
ARC
8
BLACK
10
8.4375
20
-3.495
40
0.03
50
180
51
270
0
ARC
8
BLACK
10
8.3775
20
-3.405
40
0.03
50
-0
51
90
0
ARC
8
BLACK
10
8.2125
20
-3.405
40
0.03
50
90
51
180
0
ARC
8
BLACK
10
8.6025
20
-3.495
40
0.03
50
-90
51
-0
0
ARC
8
BLACK
10
8.6025
20
-2.655
40
0.03
50
-0
51
90
0
ARC
8
BLACK
10
8.11
20
-3.47
40
0.03
50
180
51
270
0
ARC
8
BLACK
10
8.11
20
-2.655
40
0.03
50
90
51
180
0
LINE
8
BLACK
6
CONTINUOUS
10
8.6025
20
-2.625
11
8.11
21
-2.625
0
LINE
8
BLACK
6
CONTINUOUS
10
8.31
20
-3.1348
11
8.20768
21
-3.1348
0
LINE
8
BLACK
6
CONTINUOUS
10
8.08
20
-3.22
11
8.08
21
-2.655
0
LINE
8
BLACK
6
CONTINUOUS
10
8.08
20
-3.47
11
8.08
21
-3.22
0
LINE
8
BLACK
6
CONTINUOUS
10
8.18268
20
-3.5
11
8.11
21
-3.5
0
LINE
8
BLACK
6
CONTINUOUS
10
8.6025
20
-3.525
11
8.4375
21
-3.5248
0
LINE
8
BLACK
6
CONTINUOUS
10
8.3775
20
-3.375
11
8.2125
21
-3.3748
0
LINE
8
BLACK
6
CONTINUOUS
10
8.4075
20
-3.495
11
8.40768
21
-3.405
0
LINE
8
BLACK
6
CONTINUOUS
10
8.31
20
-3.1848
11
8.31
21
-3.1348
0
LINE
8
BLACK
6
CONTINUOUS
10
8.42268
20
-3.1848
11
8.31
21
-3.185
0
LINE
8
BLACK
6
CONTINUOUS
10
8.42268
20
-3.0498
11
8.42268
21
-3.1848
0
LINE
8
BLACK
6
CONTINUOUS
10
8.20768
20
-3.0498
11
8.42268
21
-3.0498
0
LINE
8
BLACK
6
CONTINUOUS
10
8.20768
20
-3.1348
11
8.20768
21
-3.0498
0
LINE
8
BLACK
6
CONTINUOUS
10
8.6325
20
-2.655
11
8.6325
21
-3.495
0
LINE
8
BLACK
6
CONTINUOUS
10
8.18268
20
-3.5
11
8.1825
21
-3.405
0
LINE
8
BLACK
6
CONTINUOUS
10
8.10213
20
-3.37463
11
8.11787
21
-3.39037
0
LINE
8
BLACK
6
CONTINUOUS
10
8.11787
20
-3.37463
11
8.10213
21
-3.39037
0
LINE
8
BLACK
6
CONTINUOUS
10
8.14713
20
-2.90713
11
8.16287
21
-2.92287
0
LINE
8
BLACK
6
CONTINUOUS
10
8.16287
20
-2.90713
11
8.14713
21
-2.92287
0
LINE
8
BLACK
6
CONTINUOUS
10
8.14713
20
-3.02713
11
8.16287
21
-3.04287
0
LINE
8
BLACK
6
CONTINUOUS
10
8.16287
20
-3.02713
11
8.14713
21
-3.04287
0
LINE
8
BLACK
6
CONTINUOUS
10
8.20713
20
-3.26213
11
8.22287
21
-3.27787
0
LINE
8
BLACK
6
CONTINUOUS
10
8.22287
20
-3.26213
11
8.20713
21
-3.27787
0
LINE
8
BLACK
6
CONTINUOUS
10
8.24793
20
-3.27832
11
8.26367
21
-3.29407
0
LINE
8
BLACK
6
CONTINUOUS
10
8.26367
20
-3.27832
11
8.24793
21
-3.29407
0
LINE
8
BLACK
6
CONTINUOUS
10
8.29713
20
-2.91213
11
8.31287
21
-2.92787
0
LINE
8
BLACK
6
CONTINUOUS
10
8.31287
20
-2.91213
11
8.29713
21
-2.92787
0
LINE
8
BLACK
6
CONTINUOUS
10
8.30713
20
-2.74713
11
8.32287
21
-2.76287
0
LINE
8
BLACK
6
CONTINUOUS
10
8.32287
20
-2.74713
11
8.30713
21
-2.76287
0
LINE
8
BLACK
6
CONTINUOUS
10
8.32213
20
-3.27713
11
8.33787
21
-3.29287
0
LINE
8
BLACK
6
CONTINUOUS
10
8.33787
20
-3.27713
11
8.32213
21
-3.29287
0
CIRCLE
8
BLACK
10
8.48268
20
-1.5748
40
0.019685
0
CIRCLE
8
BLACK
10
8.48268
20
-1.6748
40
0.019685
0
CIRCLE
8
BLACK
10
8.48268
20
-1.7748
40
0.019685
0
CIRCLE
8
BLACK
10
8.48268
20
-1.8748
40
0.019685
0
CIRCLE
8
BLACK
10
8.48268
20
-1.9748
40
0.019685
0
CIRCLE
8
BLACK
10
8.48268
20
-2.0748
40
0.019685
0
CIRCLE
8
BLACK
10
8.48268
20
-2.1748
40
0.019685
0
CIRCLE
8
BLACK
10
8.48268
20
-2.2748
40
0.019685
0
CIRCLE
8
BLACK
10
8.48268
20
-2.3748
40
0.019685
0
CIRCLE
8
BLACK
10
8.48268
20
-2.4748
40
0.019685
0
CIRCLE
8
BLACK
10
8.48268
20
-2.5748
40
0.019685
0
CIRCLE
8
BLACK
10
8.48268
20
-2.6748
40
0.019685
0
CIRCLE
8
BLACK
10
8.48268
20
-2.7748
40
0.019685
0
CIRCLE
8
BLACK
10
8.48268
20
-2.8748
40
0.019685
0
CIRCLE
8
BLACK
10
8.48268
20
-2.9748
40
0.019685
0
CIRCLE
8
BLACK
10
8.48268
20
-3.0748
40
0.019685
0
CIRCLE
8
BLACK
10
8.48268
20
-3.1748
40
0.019685
0
CIRCLE
8
BLACK
10
8.48268
20
-3.2748
40
0.019685
0
CIRCLE
8
BLACK
10
8.48268
20
-3.3748
40
0.019685
0
CIRCLE
8
BLACK
10
8.48268
20
-3.4748
40
0.019685
0
CIRCLE
8
BLACK
10
8.58268
20
-1.5748
40
0.019685
0
CIRCLE
8
BLACK
10
8.58268
20
-1.6748
40
0.019685
0
CIRCLE
8
BLACK
10
8.58268
20
-1.7748
40
0.019685
0
CIRCLE
8
BLACK
10
8.58268
20
-1.8748
40
0.019685
0
CIRCLE
8
BLACK
10
8.58268
20
-1.9748
40
0.019685
0
CIRCLE
8
BLACK
10
8.58268
20
-2.0748
40
0.019685
0
CIRCLE
8
BLACK
10
8.58268
20
-2.1748
40
0.019685
0
CIRCLE
8
BLACK
10
8.58268
20
-2.2748
40
0.019685
0
CIRCLE
8
BLACK
10
8.58268
20
-2.3748
40
0.019685
0
CIRCLE
8
BLACK
10
8.58268
20
-2.4748
40
0.019685
0
CIRCLE
8
BLACK
10
8.58268
20
-2.5748
40
0.019685
0
CIRCLE
8
BLACK
10
8.58268
20
-2.6748
40
0.019685
0
CIRCLE
8
BLACK
10
8.58268
20
-2.7748
40
0.019685
0
CIRCLE
8
BLACK
10
8.58268
20
-2.8748
40
0.019685
0
CIRCLE
8
BLACK
10
8.58268
20
-2.9748
40
0.019685
0
CIRCLE
8
BLACK
10
8.58268
20
-3.0748
40
0.019685
0
CIRCLE
8
BLACK
10
8.58268
20
-3.1748
40
0.019685
0
CIRCLE
8
BLACK
10
8.58268
20
-3.2748
40
0.019685
0
CIRCLE
8
BLACK
10
8.58268
20
-3.3748
40
0.019685
0
CIRCLE
8
BLACK
10
8.58268
20
-3.4748
40
0.019685
0
LINE
8
BLACK
6
CONTINUOUS
10
8.1908
20
-3.71032
11
8.1908
21
-3.59221
0
LINE
8
BLACK
6
CONTINUOUS
10
8.1908
20
-3.59221
11
8.21892
21
-3.59221
0
LINE
8
BLACK
6
CONTINUOUS
10
8.21892
20
-3.59221
11
8.23579
21
-3.59783
0
LINE
8
BLACK
6
CONTINUOUS
10
8.23579
20
-3.59783
11
8.24704
21
-3.60908
0
LINE
8
BLACK
6
CONTINUOUS
10
8.24704
20
-3.60908
11
8.25267
21
-3.62033
0
LINE
8
BLACK
6
CONTINUOUS
10
8.25267
20
-3.62033
11
8.25829
21
-3.64283
0
LINE
8
BLACK
6
CONTINUOUS
10
8.25829
20
-3.64283
11
8.25829
21
-3.6597
0
LINE
8
BLACK
6
CONTINUOUS
10
8.25829
20
-3.6597
11
8.25267
21
-3.6822
0
LINE
8
BLACK
6
CONTINUOUS
10
8.25267
20
-3.6822
11
8.24704
21
-3.69345
0
LINE
8
BLACK
6
CONTINUOUS
10
8.24704
20
-3.69345
11
8.23579
21
-3.7047
0
LINE
8
BLACK
6
CONTINUOUS
10
8.23579
20
-3.7047
11
8.21892
21
-3.71032
0
LINE
8
BLACK
6
CONTINUOUS
10
8.21892
20
-3.71032
11
8.1908
21
-3.71032
0
LINE
8
BLACK
6
CONTINUOUS
10
8.30891
20
-3.71032
11
8.30891
21
-3.63158
0
LINE
8
BLACK
6
CONTINUOUS
10
8.30891
20
-3.65408
11
8.31453
21
-3.64283
0
LINE
8
BLACK
6
CONTINUOUS
10
8.31453
20
-3.64283
11
8.32016
21
-3.6372
0
LINE
8
BLACK
6
CONTINUOUS
10
8.32016
20
-3.6372
11
8.33141
21
-3.63158
0
LINE
8
BLACK
6
CONTINUOUS
10
8.33141
20
-3.63158
11
8.34265
21
-3.63158
0
LINE
8
BLACK
6
CONTINUOUS
10
8.38202
20
-3.71032
11
8.38202
21
-3.63158
0
LINE
8
BLACK
6
CONTINUOUS
10
8.38202
20
-3.59221
11
8.3764
21
-3.59783
0
LINE
8
BLACK
6
CONTINUOUS
10
8.3764
20
-3.59783
11
8.38202
21
-3.60346
0
LINE
8
BLACK
6
CONTINUOUS
10
8.38202
20
-3.60346
11
8.38765
21
-3.59783
0
LINE
8
BLACK
6
CONTINUOUS
10
8.38765
20
-3.59783
11
8.38202
21
-3.59221
0
LINE
8
BLACK
6
CONTINUOUS
10
8.38202
20
-3.59221
11
8.38202
21
-3.60346
0
LINE
8
BLACK
6
CONTINUOUS
10
8.45514
20
-3.71032
11
8.44389
21
-3.7047
0
LINE
8
BLACK
6
CONTINUOUS
10
8.44389
20
-3.7047
11
8.43827
21
-3.69345
0
LINE
8
BLACK
6
CONTINUOUS
10
8.43827
20
-3.69345
11
8.43827
21
-3.59221
0
LINE
8
BLACK
6
CONTINUOUS
10
8.51701
20
-3.71032
11
8.50576
21
-3.7047
0
LINE
8
BLACK
6
CONTINUOUS
10
8.50576
20
-3.7047
11
8.50013
21
-3.69345
0
LINE
8
BLACK
6
CONTINUOUS
10
8.50013
20
-3.69345
11
8.50013
21
-3.59221
0
LINE
8
BLACK
6
CONTINUOUS
10
8.65199
20
-3.71032
11
8.65199
21
-3.59221
0
LINE
8
BLACK
6
CONTINUOUS
10
8.65199
20
-3.59221
11
8.69136
21
-3.67657
0
LINE
8
BLACK
6
CONTINUOUS
10
8.69136
20
-3.67657
11
8.73073
21
-3.59221
0
LINE
8
BLACK
6
CONTINUOUS
10
8.73073
20
-3.59221
11
8.73073
21
-3.71032
0
LINE
8
BLACK
6
CONTINUOUS
10
8.83759
20
-3.71032
11
8.83759
21
-3.64845
0
LINE
8
BLACK
6
CONTINUOUS
10
8.83759
20
-3.64845
11
8.83197
21
-3.6372
0
LINE
8
BLACK
6
CONTINUOUS
10
8.83197
20
-3.6372
11
8.82072
21
-3.63158
0
LINE
8
BLACK
6
CONTINUOUS
10
8.82072
20
-3.63158
11
8.79822
21
-3.63158
0
LINE
8
BLACK
6
CONTINUOUS
10
8.79822
20
-3.63158
11
8.78697
21
-3.6372
0
LINE
8
BLACK
6
CONTINUOUS
10
8.83759
20
-3.7047
11
8.82634
21
-3.71032
0
LINE
8
BLACK
6
CONTINUOUS
10
8.82634
20
-3.71032
11
8.79822
21
-3.71032
0
LINE
8
BLACK
6
CONTINUOUS
10
8.79822
20
-3.71032
11
8.78697
21
-3.7047
0
LINE
8
BLACK
6
CONTINUOUS
10
8.78697
20
-3.7047
11
8.78135
21
-3.69345
0
LINE
8
BLACK
6
CONTINUOUS
10
8.78135
20
-3.69345
11
8.78135
21
-3.6822
0
LINE
8
BLACK
6
CONTINUOUS
10
8.78135
20
-3.6822
11
8.78697
21
-3.67095
0
LINE
8
BLACK
6
CONTINUOUS
10
8.78697
20
-3.67095
11
8.79822
21
-3.66533
0
LINE
8
BLACK
6
CONTINUOUS
10
8.79822
20
-3.66533
11
8.82634
21
-3.66533
0
LINE
8
BLACK
6
CONTINUOUS
10
8.82634
20
-3.66533
11
8.83759
21
-3.6597
0
LINE
8
BLACK
6
CONTINUOUS
10
8.89384
20
-3.63158
11
8.89384
21
-3.74969
0
LINE
8
BLACK
6
CONTINUOUS
10
8.89384
20
-3.6372
11
8.90508
21
-3.63158
0
LINE
8
BLACK
6
CONTINUOUS
10
8.90508
20
-3.63158
11
8.92758
21
-3.63158
0
LINE
8
BLACK
6
CONTINUOUS
10
8.92758
20
-3.63158
11
8.93883
21
-3.6372
0
LINE
8
BLACK
6
CONTINUOUS
10
8.93883
20
-3.6372
11
8.94445
21
-3.64283
0
LINE
8
BLACK
6
CONTINUOUS
10
8.94445
20
-3.64283
11
8.95008
21
-3.65408
0
LINE
8
BLACK
6
CONTINUOUS
10
8.95008
20
-3.65408
11
8.95008
21
-3.68782
0
LINE
8
BLACK
6
CONTINUOUS
10
8.95008
20
-3.68782
11
8.94445
21
-3.69907
0
LINE
8
BLACK
6
CONTINUOUS
10
8.94445
20
-3.69907
11
8.93883
21
-3.7047
0
LINE
8
BLACK
6
CONTINUOUS
10
8.93883
20
-3.7047
11
8.92758
21
-3.71032
0
LINE
8
BLACK
6
CONTINUOUS
10
8.92758
20
-3.71032
11
8.90508
21
-3.71032
0
LINE
8
BLACK
6
CONTINUOUS
10
8.90508
20
-3.71032
11
8.89384
21
-3.7047
0
LINE
8
BLACK
6
CONTINUOUS
10
9.0007
20
-3.69907
11
9.00632
21
-3.7047
0
LINE
8
BLACK
6
CONTINUOUS
10
9.00632
20
-3.7047
11
9.0007
21
-3.71032
0
LINE
8
BLACK
6
CONTINUOUS
10
9.0007
20
-3.71032
11
8.99507
21
-3.7047
0
LINE
8
BLACK
6
CONTINUOUS
10
8.99507
20
-3.7047
11
9.0007
21
-3.69907
0
LINE
8
BLACK
6
CONTINUOUS
10
9.0007
20
-3.69907
11
9.0007
21
-3.71032
0
LINE
8
BLACK
6
CONTINUOUS
10
9.0007
20
-3.6372
11
9.00632
21
-3.64283
0
LINE
8
BLACK
6
CONTINUOUS
10
9.00632
20
-3.64283
11
9.0007
21
-3.64845
0
LINE
8
BLACK
6
CONTINUOUS
10
9.0007
20
-3.64845
11
8.99507
21
-3.64283
0
LINE
8
BLACK
6
CONTINUOUS
10
8.99507
20
-3.64283
11
9.0007
21
-3.6372
0
LINE
8
BLACK
6
CONTINUOUS
10
9.0007
20
-3.6372
11
9.0007
21
-3.64845
0
LINE
8
BLACK
6
CONTINUOUS
10
8.06228
20
-3.89705
11
8.07803
21
-3.9128
0
LINE
8
BLACK
6
CONTINUOUS
10
8.07803
20
-3.89705
11
8.06228
21
-3.9128
0
LINE
8
BLACK
6
CONTINUOUS
10
8.2133
20
-3.84024
11
8.22454
21
-3.84024
0
LINE
8
BLACK
6
CONTINUOUS
10
8.22454
20
-3.84024
11
8.23579
21
-3.84587
0
LINE
8
BLACK
6
CONTINUOUS
10
8.23579
20
-3.84587
11
8.24142
21
-3.85149
0
LINE
8
BLACK
6
CONTINUOUS
10
8.24142
20
-3.85149
11
8.24704
21
-3.86274
0
LINE
8
BLACK
6
CONTINUOUS
10
8.24704
20
-3.86274
11
8.25267
21
-3.88524
0
LINE
8
BLACK
6
CONTINUOUS
10
8.25267
20
-3.88524
11
8.25267
21
-3.91336
0
LINE
8
BLACK
6
CONTINUOUS
10
8.25267
20
-3.91336
11
8.24704
21
-3.93585
0
LINE
8
BLACK
6
CONTINUOUS
10
8.24704
20
-3.93585
11
8.24142
21
-3.9471
0
LINE
8
BLACK
6
CONTINUOUS
10
8.24142
20
-3.9471
11
8.23579
21
-3.95273
0
LINE
8
BLACK
6
CONTINUOUS
10
8.23579
20
-3.95273
11
8.22454
21
-3.95835
0
LINE
8
BLACK
6
CONTINUOUS
10
8.22454
20
-3.95835
11
8.2133
21
-3.95835
0
LINE
8
BLACK
6
CONTINUOUS
10
8.2133
20
-3.95835
11
8.20205
21
-3.95273
0
LINE
8
BLACK
6
CONTINUOUS
10
8.20205
20
-3.95273
11
8.19642
21
-3.9471
0
LINE
8
BLACK
6
CONTINUOUS
10
8.19642
20
-3.9471
11
8.1908
21
-3.93585
0
LINE
8
BLACK
6
CONTINUOUS
10
8.1908
20
-3.93585
11
8.18517
21
-3.91336
0
LINE
8
BLACK
6
CONTINUOUS
10
8.18517
20
-3.91336
11
8.18517
21
-3.88524
0
LINE
8
BLACK
6
CONTINUOUS
10
8.18517
20
-3.88524
11
8.1908
21
-3.86274
0
LINE
8
BLACK
6
CONTINUOUS
10
8.1908
20
-3.86274
11
8.19642
21
-3.85149
0
LINE
8
BLACK
6
CONTINUOUS
10
8.19642
20
-3.85149
11
8.20205
21
-3.84587
0
LINE
8
BLACK
6
CONTINUOUS
10
8.20205
20
-3.84587
11
8.2133
21
-3.84024
0
LINE
8
BLACK
6
CONTINUOUS
10
8.30328
20
-3.9471
11
8.30891
21
-3.95273
0
LINE
8
BLACK
6
CONTINUOUS
10
8.30891
20
-3.95273
11
8.30328
21
-3.95835
0
LINE
8
BLACK
6
CONTINUOUS
10
8.30328
20
-3.95835
11
8.29766
21
-3.95273
0
LINE
8
BLACK
6
CONTINUOUS
10
8.29766
20
-3.95273
11
8.30328
21
-3.9471
0
LINE
8
BLACK
6
CONTINUOUS
10
8.30328
20
-3.9471
11
8.30328
21
-3.95835
0
LINE
8
BLACK
6
CONTINUOUS
10
8.41015
20
-3.87961
11
8.41015
21
-3.95835
0
LINE
8
BLACK
6
CONTINUOUS
10
8.38202
20
-3.83462
11
8.3539
21
-3.91898
0
LINE
8
BLACK
6
CONTINUOUS
10
8.3539
20
-3.91898
11
8.42702
21
-3.91898
0
LINE
8
BLACK
6
CONTINUOUS
10
8.49451
20
-3.84024
11
8.50576
21
-3.84024
0
LINE
8
BLACK
6
CONTINUOUS
10
8.50576
20
-3.84024
11
8.51701
21
-3.84587
0
LINE
8
BLACK
6
CONTINUOUS
10
8.51701
20
-3.84587
11
8.52263
21
-3.85149
0
LINE
8
BLACK
6
CONTINUOUS
10
8.52263
20
-3.85149
11
8.52826
21
-3.86274
0
LINE
8
BLACK
6
CONTINUOUS
10
8.52826
20
-3.86274
11
8.53388
21
-3.88524
0
LINE
8
BLACK
6
CONTINUOUS
10
8.53388
20
-3.88524
11
8.53388
21
-3.91336
0
LINE
8
BLACK
6
CONTINUOUS
10
8.53388
20
-3.91336
11
8.52826
21
-3.93585
0
LINE
8
BLACK
6
CONTINUOUS
10
8.52826
20
-3.93585
11
8.52263
21
-3.9471
0
LINE
8
BLACK
6
CONTINUOUS
10
8.52263
20
-3.9471
11
8.51701
21
-3.95273
0
LINE
8
BLACK
6
CONTINUOUS
10
8.51701
20
-3.95273
11
8.50576
21
-3.95835
0
LINE
8
BLACK
6
CONTINUOUS
10
8.50576
20
-3.95835
11
8.49451
21
-3.95835
0
LINE
8
BLACK
6
CONTINUOUS
10
8.49451
20
-3.95835
11
8.48326
21
-3.95273
0
LINE
8
BLACK
6
CONTINUOUS
10
8.48326
20
-3.95273
11
8.47764
21
-3.9471
0
LINE
8
BLACK
6
CONTINUOUS
10
8.47764
20
-3.9471
11
8.47201
21
-3.93585
0
LINE
8
BLACK
6
CONTINUOUS
10
8.47201
20
-3.93585
11
8.46639
21
-3.91336
0
LINE
8
BLACK
6
CONTINUOUS
10
8.46639
20
-3.91336
11
8.46639
21
-3.88524
0
LINE
8
BLACK
6
CONTINUOUS
10
8.46639
20
-3.88524
11
8.47201
21
-3.86274
0
LINE
8
BLACK
6
CONTINUOUS
10
8.47201
20
-3.86274
11
8.47764
21
-3.85149
0
LINE
8
BLACK
6
CONTINUOUS
10
8.47764
20
-3.85149
11
8.48326
21
-3.84587
0
LINE
8
BLACK
6
CONTINUOUS
10
8.48326
20
-3.84587
11
8.49451
21
-3.84024
0
LINE
8
BLACK
6
CONTINUOUS
10
8.5845
20
-3.95835
11
8.5845
21
-3.87961
0
LINE
8
BLACK
6
CONTINUOUS
10
8.5845
20
-3.89086
11
8.59012
21
-3.88524
0
LINE
8
BLACK
6
CONTINUOUS
10
8.59012
20
-3.88524
11
8.60137
21
-3.87961
0
LINE
8
BLACK
6
CONTINUOUS
10
8.60137
20
-3.87961
11
8.61825
21
-3.87961
0
LINE
8
BLACK
6
CONTINUOUS
10
8.61825
20
-3.87961
11
8.62949
21
-3.88524
0
LINE
8
BLACK
6
CONTINUOUS
10
8.62949
20
-3.88524
11
8.63512
21
-3.89648
0
LINE
8
BLACK
6
CONTINUOUS
10
8.63512
20
-3.89648
11
8.63512
21
-3.95835
0
LINE
8
BLACK
6
CONTINUOUS
10
8.63512
20
-3.89648
11
8.64074
21
-3.88524
0
LINE
8
BLACK
6
CONTINUOUS
10
8.64074
20
-3.88524
11
8.65199
21
-3.87961
0
LINE
8
BLACK
6
CONTINUOUS
10
8.65199
20
-3.87961
11
8.66886
21
-3.87961
0
LINE
8
BLACK
6
CONTINUOUS
10
8.66886
20
-3.87961
11
8.68011
21
-3.88524
0
LINE
8
BLACK
6
CONTINUOUS
10
8.68011
20
-3.88524
11
8.68574
21
-3.89648
0
LINE
8
BLACK
6
CONTINUOUS
10
8.68574
20
-3.89648
11
8.68574
21
-3.95835
0
LINE
8
BLACK
6
CONTINUOUS
10
8.74198
20
-3.95835
11
8.74198
21
-3.87961
0
LINE
8
BLACK
6
CONTINUOUS
10
8.74198
20
-3.89086
11
8.7476
21
-3.88524
0
LINE
8
BLACK
6
CONTINUOUS
10
8.7476
20
-3.88524
11
8.75885
21
-3.87961
0
LINE
8
BLACK
6
CONTINUOUS
10
8.75885
20
-3.87961
11
8.77573
21
-3.87961
0
LINE
8
BLACK
6
CONTINUOUS
10
8.77573
20
-3.87961
11
8.78697
21
-3.88524
0
LINE
8
BLACK
6
CONTINUOUS
10
8.78697
20
-3.88524
11
8.7926
21
-3.89648
0
LINE
8
BLACK
6
CONTINUOUS
10
8.7926
20
-3.89648
11
8.7926
21
-3.95835
0
LINE
8
BLACK
6
CONTINUOUS
10
8.7926
20
-3.89648
11
8.79822
21
-3.88524
0
LINE
8
BLACK
6
CONTINUOUS
10
8.79822
20
-3.88524
11
8.80947
21
-3.87961
0
LINE
8
BLACK
6
CONTINUOUS
10
8.80947
20
-3.87961
11
8.82634
21
-3.87961
0
LINE
8
BLACK
6
CONTINUOUS
10
8.82634
20
-3.87961
11
8.83759
21
-3.88524
0
LINE
8
BLACK
6
CONTINUOUS
10
8.83759
20
-3.88524
11
8.84322
21
-3.89648
0
LINE
8
BLACK
6
CONTINUOUS
10
8.84322
20
-3.89648
11
8.84322
21
-3.95835
0
LINE
8
BLACK
6
CONTINUOUS
10
9.07381
20
-3.83462
11
8.97258
21
-3.98647
0
LINE
8
BLACK
6
CONTINUOUS
10
9.22567
20
-3.84024
11
9.23692
21
-3.84024
0
LINE
8
BLACK
6
CONTINUOUS
10
9.23692
20
-3.84024
11
9.24817
21
-3.84587
0
LINE
8
BLACK
6
CONTINUOUS
10
9.24817
20
-3.84587
11
9.25379
21
-3.85149
0
LINE
8
BLACK
6
CONTINUOUS
10
9.25379
20
-3.85149
11
9.25942
21
-3.86274
0
LINE
8
BLACK
6
CONTINUOUS
10
9.25942
20
-3.86274
11
9.26504
21
-3.88524
0
LINE
8
BLACK
6
CONTINUOUS
10
9.26504
20
-3.88524
11
9.26504
21
-3.91336
0
LINE
8
BLACK
6
CONTINUOUS
10
9.26504
20
-3.91336
11
9.25942
21
-3.93585
0
LINE
8
BLACK
6
CONTINUOUS
10
9.25942
20
-3.93585
11
9.25379
21
-3.9471
0
LINE
8
BLACK
6
CONTINUOUS
10
9.25379
20
-3.9471
11
9.24817
21
-3.95273
0
LINE
8
BLACK
6
CONTINUOUS
10
9.24817
20
-3.95273
11
9.23692
21
-3.95835
0
LINE
8
BLACK
6
CONTINUOUS
10
9.23692
20
-3.95835
11
9.22567
21
-3.95835
0
LINE
8
BLACK
6
CONTINUOUS
10
9.22567
20
-3.95835
11
9.21442
21
-3.95273
0
LINE
8
BLACK
6
CONTINUOUS
10
9.21442
20
-3.95273
11
9.2088
21
-3.9471
0
LINE
8
BLACK
6
CONTINUOUS
10
9.2088
20
-3.9471
11
9.20317
21
-3.93585
0
LINE
8
BLACK
6
CONTINUOUS
10
9.20317
20
-3.93585
11
9.19755
21
-3.91336
0
LINE
8
BLACK
6
CONTINUOUS
10
9.19755
20
-3.91336
11
9.19755
21
-3.88524
0
LINE
8
BLACK
6
CONTINUOUS
10
9.19755
20
-3.88524
11
9.20317
21
-3.86274
0
LINE
8
BLACK
6
CONTINUOUS
10
9.20317
20
-3.86274
11
9.2088
21
-3.85149
0
LINE
8
BLACK
6
CONTINUOUS
10
9.2088
20
-3.85149
11
9.21442
21
-3.84587
0
LINE
8
BLACK
6
CONTINUOUS
10
9.21442
20
-3.84587
11
9.22567
21
-3.84024
0
LINE
8
BLACK
6
CONTINUOUS
10
9.31566
20
-3.9471
11
9.32128
21
-3.95273
0
LINE
8
BLACK
6
CONTINUOUS
10
9.32128
20
-3.95273
11
9.31566
21
-3.95835
0
LINE
8
BLACK
6
CONTINUOUS
10
9.31566
20
-3.95835
11
9.31003
21
-3.95273
0
LINE
8
BLACK
6
CONTINUOUS
10
9.31003
20
-3.95273
11
9.31566
21
-3.9471
0
LINE
8
BLACK
6
CONTINUOUS
10
9.31566
20
-3.9471
11
9.31566
21
-3.95835
0
LINE
8
BLACK
6
CONTINUOUS
10
9.3944
20
-3.84024
11
9.40565
21
-3.84024
0
LINE
8
BLACK
6
CONTINUOUS
10
9.40565
20
-3.84024
11
9.4169
21
-3.84587
0
LINE
8
BLACK
6
CONTINUOUS
10
9.4169
20
-3.84587
11
9.42252
21
-3.85149
0
LINE
8
BLACK
6
CONTINUOUS
10
9.42252
20
-3.85149
11
9.42814
21
-3.86274
0
LINE
8
BLACK
6
CONTINUOUS
10
9.42814
20
-3.86274
11
9.43377
21
-3.88524
0
LINE
8
BLACK
6
CONTINUOUS
10
9.43377
20
-3.88524
11
9.43377
21
-3.91336
0
LINE
8
BLACK
6
CONTINUOUS
10
9.43377
20
-3.91336
11
9.42814
21
-3.93585
0
LINE
8
BLACK
6
CONTINUOUS
10
9.42814
20
-3.93585
11
9.42252
21
-3.9471
0
LINE
8
BLACK
6
CONTINUOUS
10
9.42252
20
-3.9471
11
9.4169
21
-3.95273
0
LINE
8
BLACK
6
CONTINUOUS
10
9.4169
20
-3.95273
11
9.40565
21
-3.95835
0
LINE
8
BLACK
6
CONTINUOUS
10
9.40565
20
-3.95835
11
9.3944
21
-3.95835
0
LINE
8
BLACK
6
CONTINUOUS
10
9.3944
20
-3.95835
11
9.38315
21
-3.95273
0
LINE
8
BLACK
6
CONTINUOUS
10
9.38315
20
-3.95273
11
9.37753
21
-3.9471
0
LINE
8
BLACK
6
CONTINUOUS
10
9.37753
20
-3.9471
11
9.3719
21
-3.93585
0
LINE
8
BLACK
6
CONTINUOUS
10
9.3719
20
-3.93585
11
9.36628
21
-3.91336
0
LINE
8
BLACK
6
CONTINUOUS
10
9.36628
20
-3.91336
11
9.36628
21
-3.88524
0
LINE
8
BLACK
6
CONTINUOUS
10
9.36628
20
-3.88524
11
9.3719
21
-3.86274
0
LINE
8
BLACK
6
CONTINUOUS
10
9.3719
20
-3.86274
11
9.37753
21
-3.85149
0
LINE
8
BLACK
6
CONTINUOUS
10
9.37753
20
-3.85149
11
9.38315
21
-3.84587
0
LINE
8
BLACK
6
CONTINUOUS
10
9.38315
20
-3.84587
11
9.3944
21
-3.84024
0
LINE
8
BLACK
6
CONTINUOUS
10
9.54625
20
-3.95835
11
9.47876
21
-3.95835
0
LINE
8
BLACK
6
CONTINUOUS
10
9.51251
20
-3.95835
11
9.51251
21
-3.84024
0
LINE
8
BLACK
6
CONTINUOUS
10
9.51251
20
-3.84024
11
9.50126
21
-3.85711
0
LINE
8
BLACK
6
CONTINUOUS
10
9.50126
20
-3.85711
11
9.49001
21
-3.86836
0
LINE
8
BLACK
6
CONTINUOUS
10
9.49001
20
-3.86836
11
9.47876
21
-3.87399
0
LINE
8
BLACK
6
CONTINUOUS
10
9.64749
20
-3.84024
11
9.62499
21
-3.84024
0
LINE
8
BLACK
6
CONTINUOUS
10
9.62499
20
-3.84024
11
9.61375
21
-3.84587
0
LINE
8
BLACK
6
CONTINUOUS
10
9.61375
20
-3.84587
11
9.60812
21
-3.85149
0
LINE
8
BLACK
6
CONTINUOUS
10
9.60812
20
-3.85149
11
9.59687
21
-3.86836
0
LINE
8
BLACK
6
CONTINUOUS
10
9.59687
20
-3.86836
11
9.59125
21
-3.89086
0
LINE
8
BLACK
6
CONTINUOUS
10
9.59125
20
-3.89086
11
9.59125
21
-3.93585
0
LINE
8
BLACK
6
CONTINUOUS
10
9.59125
20
-3.93585
11
9.59687
21
-3.9471
0
LINE
8
BLACK
6
CONTINUOUS
10
9.59687
20
-3.9471
11
9.6025
21
-3.95273
0
LINE
8
BLACK
6
CONTINUOUS
10
9.6025
20
-3.95273
11
9.61375
21
-3.95835
0
LINE
8
BLACK
6
CONTINUOUS
10
9.61375
20
-3.95835
11
9.63624
21
-3.95835
0
LINE
8
BLACK
6
CONTINUOUS
10
9.63624
20
-3.95835
11
9.64749
21
-3.95273
0
LINE
8
BLACK
6
CONTINUOUS
10
9.64749
20
-3.95273
11
9.65312
21
-3.9471
0
LINE
8
BLACK
6
CONTINUOUS
10
9.65312
20
-3.9471
11
9.65874
21
-3.93585
0
LINE
8
BLACK
6
CONTINUOUS
10
9.65874
20
-3.93585
11
9.65874
21
-3.90773
0
LINE
8
BLACK
6
CONTINUOUS
10
9.65874
20
-3.90773
11
9.65312
21
-3.89648
0
LINE
8
BLACK
6
CONTINUOUS
10
9.65312
20
-3.89648
11
9.64749
21
-3.89086
0
LINE
8
BLACK
6
CONTINUOUS
10
9.64749
20
-3.89086
11
9.63624
21
-3.88524
0
LINE
8
BLACK
6
CONTINUOUS
10
9.63624
20
-3.88524
11
9.61375
21
-3.88524
0
LINE
8
BLACK
6
CONTINUOUS
10
9.61375
20
-3.88524
11
9.6025
21
-3.89086
0
LINE
8
BLACK
6
CONTINUOUS
10
9.6025
20
-3.89086
11
9.59687
21
-3.89648
0
LINE
8
BLACK
6
CONTINUOUS
10
9.59687
20
-3.89648
11
9.59125
21
-3.90773
0
LINE
8
BLACK
6
CONTINUOUS
10
9.70373
20
-3.84024
11
9.70373
21
-3.86274
0
LINE
8
BLACK
6
CONTINUOUS
10
9.74873
20
-3.84024
11
9.74873
21
-3.86274
0
LINE
8
BLACK
6
CONTINUOUS
10
9.92308
20
-4.00335
11
9.91746
21
-3.99772
0
LINE
8
BLACK
6
CONTINUOUS
10
9.91746
20
-3.99772
11
9.90621
21
-3.98085
0
LINE
8
BLACK
6
CONTINUOUS
10
9.90621
20
-3.98085
11
9.90058
21
-3.9696
0
LINE
8
BLACK
6
CONTINUOUS
10
9.90058
20
-3.9696
11
9.89496
21
-3.95273
0
LINE
8
BLACK
6
CONTINUOUS
10
9.89496
20
-3.95273
11
9.88934
21
-3.92461
0
LINE
8
BLACK
6
CONTINUOUS
10
9.88934
20
-3.92461
11
9.88934
21
-3.90211
0
LINE
8
BLACK
6
CONTINUOUS
10
9.88934
20
-3.90211
11
9.89496
21
-3.87399
0
LINE
8
BLACK
6
CONTINUOUS
10
9.89496
20
-3.87399
11
9.90058
21
-3.85711
0
LINE
8
BLACK
6
CONTINUOUS
10
9.90058
20
-3.85711
11
9.90621
21
-3.84587
0
LINE
8
BLACK
6
CONTINUOUS
10
9.90621
20
-3.84587
11
9.91746
21
-3.82899
0
LINE
8
BLACK
6
CONTINUOUS
10
9.91746
20
-3.82899
11
9.92308
21
-3.82337
0
LINE
8
BLACK
6
CONTINUOUS
10
9.98495
20
-3.89086
11
9.9737
21
-3.88524
0
LINE
8
BLACK
6
CONTINUOUS
10
9.9737
20
-3.88524
11
9.96808
21
-3.87961
0
LINE
8
BLACK
6
CONTINUOUS
10
9.96808
20
-3.87961
11
9.96245
21
-3.86836
0
LINE
8
BLACK
6
CONTINUOUS
10
9.96245
20
-3.86836
11
9.96245
21
-3.86274
0
LINE
8
BLACK
6
CONTINUOUS
10
9.96245
20
-3.86274
11
9.96808
21
-3.85149
0
LINE
8
BLACK
6
CONTINUOUS
10
9.96808
20
-3.85149
11
9.9737
21
-3.84587
0
LINE
8
BLACK
6
CONTINUOUS
10
9.9737
20
-3.84587
11
9.98495
21
-3.84024
0
LINE
8
BLACK
6
CONTINUOUS
10
9.98495
20
-3.84024
11
10.0074
21
-3.84024
0
LINE
8
BLACK
6
CONTINUOUS
10
10.0074
20
-3.84024
11
10.0187
21
-3.84587
0
LINE
8
BLACK
6
CONTINUOUS
10
10.0187
20
-3.84587
11
10.0243
21
-3.85149
0
LINE
8
BLACK
6
CONTINUOUS
10
10.0243
20
-3.85149
11
10.0299
21
-3.86274
0
LINE
8
BLACK
6
CONTINUOUS
10
10.0299
20
-3.86274
11
10.0299
21
-3.86836
0
LINE
8
BLACK
6
CONTINUOUS
10
10.0299
20
-3.86836
11
10.0243
21
-3.87961
0
LINE
8
BLACK
6
CONTINUOUS
10
10.0243
20
-3.87961
11
10.0187
21
-3.88524
0
LINE
8
BLACK
6
CONTINUOUS
10
10.0187
20
-3.88524
11
10.0074
21
-3.89086
0
LINE
8
BLACK
6
CONTINUOUS
10
10.0074
20
-3.89086
11
9.98495
21
-3.89086
0
LINE
8
BLACK
6
CONTINUOUS
10
9.98495
20
-3.89086
11
9.9737
21
-3.89648
0
LINE
8
BLACK
6
CONTINUOUS
10
9.9737
20
-3.89648
11
9.96808
21
-3.90211
0
LINE
8
BLACK
6
CONTINUOUS
10
9.96808
20
-3.90211
11
9.96245
21
-3.91336
0
LINE
8
BLACK
6
CONTINUOUS
10
9.96245
20
-3.91336
11
9.96245
21
-3.93585
0
LINE
8
BLACK
6
CONTINUOUS
10
9.96245
20
-3.93585
11
9.96808
21
-3.9471
0
LINE
8
BLACK
6
CONTINUOUS
10
9.96808
20
-3.9471
11
9.9737
21
-3.95273
0
LINE
8
BLACK
6
CONTINUOUS
10
9.9737
20
-3.95273
11
9.98495
21
-3.95835
0
LINE
8
BLACK
6
CONTINUOUS
10
9.98495
20
-3.95835
11
10.0074
21
-3.95835
0
LINE
8
BLACK
6
CONTINUOUS
10
10.0074
20
-3.95835
11
10.0187
21
-3.95273
0
LINE
8
BLACK
6
CONTINUOUS
10
10.0187
20
-3.95273
11
10.0243
21
-3.9471
0
LINE
8
BLACK
6
CONTINUOUS
10
10.0243
20
-3.9471
11
10.0299
21
-3.93585
0
LINE
8
BLACK
6
CONTINUOUS
10
10.0299
20
-3.93585
11
10.0299
21
-3.91336
0
LINE
8
BLACK
6
CONTINUOUS
10
10.0299
20
-3.91336
11
10.0243
21
-3.90211
0
LINE
8
BLACK
6
CONTINUOUS
10
10.0243
20
-3.90211
11
10.0187
21
-3.89648
0
LINE
8
BLACK
6
CONTINUOUS
10
10.0187
20
-3.89648
11
10.0074
21
-3.89086
0
LINE
8
BLACK
6
CONTINUOUS
10
10.1706
20
-3.95835
11
10.1706
21
-3.84024
0
LINE
8
BLACK
6
CONTINUOUS
10
10.2212
20
-3.95835
11
10.2212
21
-3.89648
0
LINE
8
BLACK
6
CONTINUOUS
10
10.2212
20
-3.89648
11
10.2155
21
-3.88524
0
LINE
8
BLACK
6
CONTINUOUS
10
10.2155
20
-3.88524
11
10.2043
21
-3.87961
0
LINE
8
BLACK
6
CONTINUOUS
10
10.2043
20
-3.87961
11
10.1874
21
-3.87961
0
LINE
8
BLACK
6
CONTINUOUS
10
10.1874
20
-3.87961
11
10.1762
21
-3.88524
0
LINE
8
BLACK
6
CONTINUOUS
10
10.1762
20
-3.88524
11
10.1706
21
-3.89086
0
LINE
8
BLACK
6
CONTINUOUS
10
10.2943
20
-3.95835
11
10.283
21
-3.95273
0
LINE
8
BLACK
6
CONTINUOUS
10
10.283
20
-3.95273
11
10.2774
21
-3.9471
0
LINE
8
BLACK
6
CONTINUOUS
10
10.2774
20
-3.9471
11
10.2718
21
-3.93585
0
LINE
8
BLACK
6
CONTINUOUS
10
10.2718
20
-3.93585
11
10.2718
21
-3.90211
0
LINE
8
BLACK
6
CONTINUOUS
10
10.2718
20
-3.90211
11
10.2774
21
-3.89086
0
LINE
8
BLACK
6
CONTINUOUS
10
10.2774
20
-3.89086
11
10.283
21
-3.88524
0
LINE
8
BLACK
6
CONTINUOUS
10
10.283
20
-3.88524
11
10.2943
21
-3.87961
0
LINE
8
BLACK
6
CONTINUOUS
10
10.2943
20
-3.87961
11
10.3112
21
-3.87961
0
LINE
8
BLACK
6
CONTINUOUS
10
10.3112
20
-3.87961
11
10.3224
21
-3.88524
0
LINE
8
BLACK
6
CONTINUOUS
10
10.3224
20
-3.88524
11
10.328
21
-3.89086
0
LINE
8
BLACK
6
CONTINUOUS
10
10.328
20
-3.89086
11
10.3337
21
-3.90211
0
LINE
8
BLACK
6
CONTINUOUS
10
10.3337
20
-3.90211
11
10.3337
21
-3.93585
0
LINE
8
BLACK
6
CONTINUOUS
10
10.3337
20
-3.93585
11
10.328
21
-3.9471
0
LINE
8
BLACK
6
CONTINUOUS
10
10.328
20
-3.9471
11
10.3224
21
-3.95273
0
LINE
8
BLACK
6
CONTINUOUS
10
10.3224
20
-3.95273
11
10.3112
21
-3.95835
0
LINE
8
BLACK
6
CONTINUOUS
10
10.3112
20
-3.95835
11
10.2943
21
-3.95835
0
LINE
8
BLACK
6
CONTINUOUS
10
10.4011
20
-3.95835
11
10.3899
21
-3.95273
0
LINE
8
BLACK
6
CONTINUOUS
10
10.3899
20
-3.95273
11
10.3843
21
-3.94148
0
LINE
8
BLACK
6
CONTINUOUS
10
10.3843
20
-3.94148
11
10.3843
21
-3.84024
0
LINE
8
BLACK
6
CONTINUOUS
10
10.4911
20
-3.95273
11
10.4799
21
-3.95835
0
LINE
8
BLACK
6
CONTINUOUS
10
10.4799
20
-3.95835
11
10.4574
21
-3.95835
0
LINE
8
BLACK
6
CONTINUOUS
10
10.4574
20
-3.95835
11
10.4461
21
-3.95273
0
LINE
8
BLACK
6
CONTINUOUS
10
10.4461
20
-3.95273
11
10.4405
21
-3.94148
0
LINE
8
BLACK
6
CONTINUOUS
10
10.4405
20
-3.94148
11
10.4405
21
-3.89648
0
LINE
8
BLACK
6
CONTINUOUS
10
10.4405
20
-3.89648
11
10.4461
21
-3.88524
0
LINE
8
BLACK
6
CONTINUOUS
10
10.4461
20
-3.88524
11
10.4574
21
-3.87961
0
LINE
8
BLACK
6
CONTINUOUS
10
10.4574
20
-3.87961
11
10.4799
21
-3.87961
0
LINE
8
BLACK
6
CONTINUOUS
10
10.4799
20
-3.87961
11
10.4911
21
-3.88524
0
LINE
8
BLACK
6
CONTINUOUS
10
10.4911
20
-3.88524
11
10.4968
21
-3.89648
0
LINE
8
BLACK
6
CONTINUOUS
10
10.4968
20
-3.89648
11
10.4968
21
-3.90773
0
LINE
8
BLACK
6
CONTINUOUS
10
10.4968
20
-3.90773
11
10.4405
21
-3.91898
0
LINE
8
BLACK
6
CONTINUOUS
10
10.5418
20
-3.95273
11
10.553
21
-3.95835
0
LINE
8
BLACK
6
CONTINUOUS
10
10.553
20
-3.95835
11
10.5755
21
-3.95835
0
LINE
8
BLACK
6
CONTINUOUS
10
10.5755
20
-3.95835
11
10.5867
21
-3.95273
0
LINE
8
BLACK
6
CONTINUOUS
10
10.5867
20
-3.95273
11
10.5924
21
-3.94148
0
LINE
8
BLACK
6
CONTINUOUS
10
10.5924
20
-3.94148
11
10.5924
21
-3.93585
0
LINE
8
BLACK
6
CONTINUOUS
10
10.5924
20
-3.93585
11
10.5867
21
-3.92461
0
LINE
8
BLACK
6
CONTINUOUS
10
10.5867
20
-3.92461
11
10.5755
21
-3.91898
0
LINE
8
BLACK
6
CONTINUOUS
10
10.5755
20
-3.91898
11
10.5586
21
-3.91898
0
LINE
8
BLACK
6
CONTINUOUS
10
10.5586
20
-3.91898
11
10.5474
21
-3.91336
0
LINE
8
BLACK
6
CONTINUOUS
10
10.5474
20
-3.91336
11
10.5418
21
-3.90211
0
LINE
8
BLACK
6
CONTINUOUS
10
10.5418
20
-3.90211
11
10.5418
21
-3.89648
0
LINE
8
BLACK
6
CONTINUOUS
10
10.5418
20
-3.89648
11
10.5474
21
-3.88524
0
LINE
8
BLACK
6
CONTINUOUS
10
10.5474
20
-3.88524
11
10.5586
21
-3.87961
0
LINE
8
BLACK
6
CONTINUOUS
10
10.5586
20
-3.87961
11
10.5755
21
-3.87961
0
LINE
8
BLACK
6
CONTINUOUS
10
10.5755
20
-3.87961
11
10.5867
21
-3.88524
0
LINE
8
BLACK
6
CONTINUOUS
10
10.6317
20
-4.00335
11
10.6374
21
-3.99772
0
LINE
8
BLACK
6
CONTINUOUS
10
10.6374
20
-3.99772
11
10.6486
21
-3.98085
0
LINE
8
BLACK
6
CONTINUOUS
10
10.6486
20
-3.98085
11
10.6542
21
-3.9696
0
LINE
8
BLACK
6
CONTINUOUS
10
10.6542
20
-3.9696
11
10.6599
21
-3.95273
0
LINE
8
BLACK
6
CONTINUOUS
10
10.6599
20
-3.95273
11
10.6655
21
-3.92461
0
LINE
8
BLACK
6
CONTINUOUS
10
10.6655
20
-3.92461
11
10.6655
21
-3.90211
0
LINE
8
BLACK
6
CONTINUOUS
10
10.6655
20
-3.90211
11
10.6599
21
-3.87399
0
LINE
8
BLACK
6
CONTINUOUS
10
10.6599
20
-3.87399
11
10.6542
21
-3.85711
0
LINE
8
BLACK
6
CONTINUOUS
10
10.6542
20
-3.85711
11
10.6486
21
-3.84587
0
LINE
8
BLACK
6
CONTINUOUS
10
10.6486
20
-3.84587
11
10.6374
21
-3.82899
0
LINE
8
BLACK
6
CONTINUOUS
10
10.6374
20
-3.82899
11
10.6317
21
-3.82337
0
CIRCLE
8
BLACK
10
8.05835
20
-4.06083
40
0.019685
0
LINE
8
BLACK
6
CONTINUOUS
10
8.25267
20
-4.11426
11
8.18517
21
-4.11426
0
LINE
8
BLACK
6
CONTINUOUS
10
8.21892
20
-4.11426
11
8.21892
21
-3.99615
0
LINE
8
BLACK
6
CONTINUOUS
10
8.21892
20
-3.99615
11
8.20767
21
-4.01302
0
LINE
8
BLACK
6
CONTINUOUS
10
8.20767
20
-4.01302
11
8.19642
21
-4.02427
0
LINE
8
BLACK
6
CONTINUOUS
10
8.19642
20
-4.02427
11
8.18517
21
-4.02989
0
LINE
8
BLACK
6
CONTINUOUS
10
8.30328
20
-4.10301
11
8.30891
21
-4.10863
0
LINE
8
BLACK
6
CONTINUOUS
10
8.30891
20
-4.10863
11
8.30328
21
-4.11426
0
LINE
8
BLACK
6
CONTINUOUS
10
8.30328
20
-4.11426
11
8.29766
21
-4.10863
0
LINE
8
BLACK
6
CONTINUOUS
10
8.29766
20
-4.10863
11
8.30328
21
-4.10301
0
LINE
8
BLACK
6
CONTINUOUS
10
8.30328
20
-4.10301
11
8.30328
21
-4.11426
0
LINE
8
BLACK
6
CONTINUOUS
10
8.38202
20
-3.99615
11
8.39327
21
-3.99615
0
LINE
8
BLACK
6
CONTINUOUS
10
8.39327
20
-3.99615
11
8.40452
21
-4.00177
0
LINE
8
BLACK
6
CONTINUOUS
10
8.40452
20
-4.00177
11
8.41015
21
-4.0074
0
LINE
8
BLACK
6
CONTINUOUS
10
8.41015
20
-4.0074
11
8.41577
21
-4.01864
0
LINE
8
BLACK
6
CONTINUOUS
10
8.41577
20
-4.01864
11
8.42139
21
-4.04114
0
LINE
8
BLACK
6
CONTINUOUS
10
8.42139
20
-4.04114
11
8.42139
21
-4.06926
0
LINE
8
BLACK
6
CONTINUOUS
10
8.42139
20
-4.06926
11
8.41577
21
-4.09176
0
LINE
8
BLACK
6
CONTINUOUS
10
8.41577
20
-4.09176
11
8.41015
21
-4.10301
0
LINE
8
BLACK
6
CONTINUOUS
10
8.41015
20
-4.10301
11
8.40452
21
-4.10863
0
LINE
8
BLACK
6
CONTINUOUS
10
8.40452
20
-4.10863
11
8.39327
21
-4.11426
0
LINE
8
BLACK
6
CONTINUOUS
10
8.39327
20
-4.11426
11
8.38202
21
-4.11426
0
LINE
8
BLACK
6
CONTINUOUS
10
8.38202
20
-4.11426
11
8.37078
21
-4.10863
0
LINE
8
BLACK
6
CONTINUOUS
10
8.37078
20
-4.10863
11
8.36515
21
-4.10301
0
LINE
8
BLACK
6
CONTINUOUS
10
8.36515
20
-4.10301
11
8.35953
21
-4.09176
0
LINE
8
BLACK
6
CONTINUOUS
10
8.35953
20
-4.09176
11
8.3539
21
-4.06926
0
LINE
8
BLACK
6
CONTINUOUS
10
8.3539
20
-4.06926
11
8.3539
21
-4.04114
0
LINE
8
BLACK
6
CONTINUOUS
10
8.3539
20
-4.04114
11
8.35953
21
-4.01864
0
LINE
8
BLACK
6
CONTINUOUS
10
8.35953
20
-4.01864
11
8.36515
21
-4.0074
0
LINE
8
BLACK
6
CONTINUOUS
10
8.36515
20
-4.0074
11
8.37078
21
-4.00177
0
LINE
8
BLACK
6
CONTINUOUS
10
8.37078
20
-4.00177
11
8.38202
21
-3.99615
0
LINE
8
BLACK
6
CONTINUOUS
10
8.49451
20
-3.99615
11
8.50576
21
-3.99615
0
LINE
8
BLACK
6
CONTINUOUS
10
8.50576
20
-3.99615
11
8.51701
21
-4.00177
0
LINE
8
BLACK
6
CONTINUOUS
10
8.51701
20
-4.00177
11
8.52263
21
-4.0074
0
LINE
8
BLACK
6
CONTINUOUS
10
8.52263
20
-4.0074
11
8.52826
21
-4.01864
0
LINE
8
BLACK
6
CONTINUOUS
10
8.52826
20
-4.01864
11
8.53388
21
-4.04114
0
LINE
8
BLACK
6
CONTINUOUS
10
8.53388
20
-4.04114
11
8.53388
21
-4.06926
0
LINE
8
BLACK
6
CONTINUOUS
10
8.53388
20
-4.06926
11
8.52826
21
-4.09176
0
LINE
8
BLACK
6
CONTINUOUS
10
8.52826
20
-4.09176
11
8.52263
21
-4.10301
0
LINE
8
BLACK
6
CONTINUOUS
10
8.52263
20
-4.10301
11
8.51701
21
-4.10863
0
LINE
8
BLACK
6
CONTINUOUS
10
8.51701
20
-4.10863
11
8.50576
21
-4.11426
0
LINE
8
BLACK
6
CONTINUOUS
10
8.50576
20
-4.11426
11
8.49451
21
-4.11426
0
LINE
8
BLACK
6
CONTINUOUS
10
8.49451
20
-4.11426
11
8.48326
21
-4.10863
0
LINE
8
BLACK
6
CONTINUOUS
10
8.48326
20
-4.10863
11
8.47764
21
-4.10301
0
LINE
8
BLACK
6
CONTINUOUS
10
8.47764
20
-4.10301
11
8.47201
21
-4.09176
0
LINE
8
BLACK
6
CONTINUOUS
10
8.47201
20
-4.09176
11
8.46639
21
-4.06926
0
LINE
8
BLACK
6
CONTINUOUS
10
8.46639
20
-4.06926
11
8.46639
21
-4.04114
0
LINE
8
BLACK
6
CONTINUOUS
10
8.46639
20
-4.04114
11
8.47201
21
-4.01864
0
LINE
8
BLACK
6
CONTINUOUS
10
8.47201
20
-4.01864
11
8.47764
21
-4.0074
0
LINE
8
BLACK
6
CONTINUOUS
10
8.47764
20
-4.0074
11
8.48326
21
-4.00177
0
LINE
8
BLACK
6
CONTINUOUS
10
8.48326
20
-4.00177
11
8.49451
21
-3.99615
0
LINE
8
BLACK
6
CONTINUOUS
10
8.5845
20
-4.11426
11
8.5845
21
-4.03552
0
LINE
8
BLACK
6
CONTINUOUS
10
8.5845
20
-4.04677
11
8.59012
21
-4.04114
0
LINE
8
BLACK
6
CONTINUOUS
10
8.59012
20
-4.04114
11
8.60137
21
-4.03552
0
LINE
8
BLACK
6
CONTINUOUS
10
8.60137
20
-4.03552
11
8.61825
21
-4.03552
0
LINE
8
BLACK
6
CONTINUOUS
10
8.61825
20
-4.03552
11
8.62949
21
-4.04114
0
LINE
8
BLACK
6
CONTINUOUS
10
8.62949
20
-4.04114
11
8.63512
21
-4.05239
0
LINE
8
BLACK
6
CONTINUOUS
10
8.63512
20
-4.05239
11
8.63512
21
-4.11426
0
LINE
8
BLACK
6
CONTINUOUS
10
8.63512
20
-4.05239
11
8.64074
21
-4.04114
0
LINE
8
BLACK
6
CONTINUOUS
10
8.64074
20
-4.04114
11
8.65199
21
-4.03552
0
LINE
8
BLACK
6
CONTINUOUS
10
8.65199
20
-4.03552
11
8.66886
21
-4.03552
0
LINE
8
BLACK
6
CONTINUOUS
10
8.66886
20
-4.03552
11
8.68011
21
-4.04114
0
LINE
8
BLACK
6
CONTINUOUS
10
8.68011
20
-4.04114
11
8.68574
21
-4.05239
0
LINE
8
BLACK
6
CONTINUOUS
10
8.68574
20
-4.05239
11
8.68574
21
-4.11426
0
LINE
8
BLACK
6
CONTINUOUS
10
8.74198
20
-4.11426
11
8.74198
21
-4.03552
0
LINE
8
BLACK
6
CONTINUOUS
10
8.74198
20
-4.04677
11
8.7476
21
-4.04114
0
LINE
8
BLACK
6
CONTINUOUS
10
8.7476
20
-4.04114
11
8.75885
21
-4.03552
0
LINE
8
BLACK
6
CONTINUOUS
10
8.75885
20
-4.03552
11
8.77573
21
-4.03552
0
LINE
8
BLACK
6
CONTINUOUS
10
8.77573
20
-4.03552
11
8.78697
21
-4.04114
0
LINE
8
BLACK
6
CONTINUOUS
10
8.78697
20
-4.04114
11
8.7926
21
-4.05239
0
LINE
8
BLACK
6
CONTINUOUS
10
8.7926
20
-4.05239
11
8.7926
21
-4.11426
0
LINE
8
BLACK
6
CONTINUOUS
10
8.7926
20
-4.05239
11
8.79822
21
-4.04114
0
LINE
8
BLACK
6
CONTINUOUS
10
8.79822
20
-4.04114
11
8.80947
21
-4.03552
0
LINE
8
BLACK
6
CONTINUOUS
10
8.80947
20
-4.03552
11
8.82634
21
-4.03552
0
LINE
8
BLACK
6
CONTINUOUS
10
8.82634
20
-4.03552
11
8.83759
21
-4.04114
0
LINE
8
BLACK
6
CONTINUOUS
10
8.83759
20
-4.04114
11
8.84322
21
-4.05239
0
LINE
8
BLACK
6
CONTINUOUS
10
8.84322
20
-4.05239
11
8.84322
21
-4.11426
0
LINE
8
BLACK
6
CONTINUOUS
10
9.07381
20
-3.99052
11
8.97258
21
-4.14238
0
LINE
8
BLACK
6
CONTINUOUS
10
9.22567
20
-3.99615
11
9.23692
21
-3.99615
0
LINE
8
BLACK
6
CONTINUOUS
10
9.23692
20
-3.99615
11
9.24817
21
-4.00177
0
LINE
8
BLACK
6
CONTINUOUS
10
9.24817
20
-4.00177
11
9.25379
21
-4.0074
0
LINE
8
BLACK
6
CONTINUOUS
10
9.25379
20
-4.0074
11
9.25942
21
-4.01864
0
LINE
8
BLACK
6
CONTINUOUS
10
9.25942
20
-4.01864
11
9.26504
21
-4.04114
0
LINE
8
BLACK
6
CONTINUOUS
10
9.26504
20
-4.04114
11
9.26504
21
-4.06926
0
LINE
8
BLACK
6
CONTINUOUS
10
9.26504
20
-4.06926
11
9.25942
21
-4.09176
0
LINE
8
BLACK
6
CONTINUOUS
10
9.25942
20
-4.09176
11
9.25379
21
-4.10301
0
LINE
8
BLACK
6
CONTINUOUS
10
9.25379
20
-4.10301
11
9.24817
21
-4.10863
0
LINE
8
BLACK
6
CONTINUOUS
10
9.24817
20
-4.10863
11
9.23692
21
-4.11426
0
LINE
8
BLACK
6
CONTINUOUS
10
9.23692
20
-4.11426
11
9.22567
21
-4.11426
0
LINE
8
BLACK
6
CONTINUOUS
10
9.22567
20
-4.11426
11
9.21442
21
-4.10863
0
LINE
8
BLACK
6
CONTINUOUS
10
9.21442
20
-4.10863
11
9.2088
21
-4.10301
0
LINE
8
BLACK
6
CONTINUOUS
10
9.2088
20
-4.10301
11
9.20317
21
-4.09176
0
LINE
8
BLACK
6
CONTINUOUS
10
9.20317
20
-4.09176
11
9.19755
21
-4.06926
0
LINE
8
BLACK
6
CONTINUOUS
10
9.19755
20
-4.06926
11
9.19755
21
-4.04114
0
LINE
8
BLACK
6
CONTINUOUS
10
9.19755
20
-4.04114
11
9.20317
21
-4.01864
0
LINE
8
BLACK
6
CONTINUOUS
10
9.20317
20
-4.01864
11
9.2088
21
-4.0074
0
LINE
8
BLACK
6
CONTINUOUS
10
9.2088
20
-4.0074
11
9.21442
21
-4.00177
0
LINE
8
BLACK
6
CONTINUOUS
10
9.21442
20
-4.00177
11
9.22567
21
-3.99615
0
LINE
8
BLACK
6
CONTINUOUS
10
9.31566
20
-4.10301
11
9.32128
21
-4.10863
0
LINE
8
BLACK
6
CONTINUOUS
10
9.32128
20
-4.10863
11
9.31566
21
-4.11426
0
LINE
8
BLACK
6
CONTINUOUS
10
9.31566
20
-4.11426
11
9.31003
21
-4.10863
0
LINE
8
BLACK
6
CONTINUOUS
10
9.31003
20
-4.10863
11
9.31566
21
-4.10301
0
LINE
8
BLACK
6
CONTINUOUS
10
9.31566
20
-4.10301
11
9.31566
21
-4.11426
0
LINE
8
BLACK
6
CONTINUOUS
10
9.3944
20
-3.99615
11
9.40565
21
-3.99615
0
LINE
8
BLACK
6
CONTINUOUS
10
9.40565
20
-3.99615
11
9.4169
21
-4.00177
0
LINE
8
BLACK
6
CONTINUOUS
10
9.4169
20
-4.00177
11
9.42252
21
-4.0074
0
LINE
8
BLACK
6
CONTINUOUS
10
9.42252
20
-4.0074
11
9.42814
21
-4.01864
0
LINE
8
BLACK
6
CONTINUOUS
10
9.42814
20
-4.01864
11
9.43377
21
-4.04114
0
LINE
8
BLACK
6
CONTINUOUS
10
9.43377
20
-4.04114
11
9.43377
21
-4.06926
0
LINE
8
BLACK
6
CONTINUOUS
10
9.43377
20
-4.06926
11
9.42814
21
-4.09176
0
LINE
8
BLACK
6
CONTINUOUS
10
9.42814
20
-4.09176
11
9.42252
21
-4.10301
0
LINE
8
BLACK
6
CONTINUOUS
10
9.42252
20
-4.10301
11
9.4169
21
-4.10863
0
LINE
8
BLACK
6
CONTINUOUS
10
9.4169
20
-4.10863
11
9.40565
21
-4.11426
0
LINE
8
BLACK
6
CONTINUOUS
10
9.40565
20
-4.11426
11
9.3944
21
-4.11426
0
LINE
8
BLACK
6
CONTINUOUS
10
9.3944
20
-4.11426
11
9.38315
21
-4.10863
0
LINE
8
BLACK
6
CONTINUOUS
10
9.38315
20
-4.10863
11
9.37753
21
-4.10301
0
LINE
8
BLACK
6
CONTINUOUS
10
9.37753
20
-4.10301
11
9.3719
21
-4.09176
0
LINE
8
BLACK
6
CONTINUOUS
10
9.3719
20
-4.09176
11
9.36628
21
-4.06926
0
LINE
8
BLACK
6
CONTINUOUS
10
9.36628
20
-4.06926
11
9.36628
21
-4.04114
0
LINE
8
BLACK
6
CONTINUOUS
10
9.36628
20
-4.04114
11
9.3719
21
-4.01864
0
LINE
8
BLACK
6
CONTINUOUS
10
9.3719
20
-4.01864
11
9.37753
21
-4.0074
0
LINE
8
BLACK
6
CONTINUOUS
10
9.37753
20
-4.0074
11
9.38315
21
-4.00177
0
LINE
8
BLACK
6
CONTINUOUS
10
9.38315
20
-4.00177
11
9.3944
21
-3.99615
0
LINE
8
BLACK
6
CONTINUOUS
10
9.47314
20
-3.99615
11
9.54625
21
-3.99615
0
LINE
8
BLACK
6
CONTINUOUS
10
9.54625
20
-3.99615
11
9.50688
21
-4.04114
0
LINE
8
BLACK
6
CONTINUOUS
10
9.50688
20
-4.04114
11
9.52376
21
-4.04114
0
LINE
8
BLACK
6
CONTINUOUS
10
9.52376
20
-4.04114
11
9.53501
21
-4.04677
0
LINE
8
BLACK
6
CONTINUOUS
10
9.53501
20
-4.04677
11
9.54063
21
-4.05239
0
LINE
8
BLACK
6
CONTINUOUS
10
9.54063
20
-4.05239
11
9.54625
21
-4.06364
0
LINE
8
BLACK
6
CONTINUOUS
10
9.54625
20
-4.06364
11
9.54625
21
-4.09176
0
LINE
8
BLACK
6
CONTINUOUS
10
9.54625
20
-4.09176
11
9.54063
21
-4.10301
0
LINE
8
BLACK
6
CONTINUOUS
10
9.54063
20
-4.10301
11
9.53501
21
-4.10863
0
LINE
8
BLACK
6
CONTINUOUS
10
9.53501
20
-4.10863
11
9.52376
21
-4.11426
0
LINE
8
BLACK
6
CONTINUOUS
10
9.52376
20
-4.11426
11
9.49001
21
-4.11426
0
LINE
8
BLACK
6
CONTINUOUS
10
9.49001
20
-4.11426
11
9.47876
21
-4.10863
0
LINE
8
BLACK
6
CONTINUOUS
10
9.47876
20
-4.10863
11
9.47314
21
-4.10301
0
LINE
8
BLACK
6
CONTINUOUS
10
9.6025
20
-4.11426
11
9.62499
21
-4.11426
0
LINE
8
BLACK
6
CONTINUOUS
10
9.62499
20
-4.11426
11
9.63624
21
-4.10863
0
LINE
8
BLACK
6
CONTINUOUS
10
9.63624
20
-4.10863
11
9.64187
21
-4.10301
0
LINE
8
BLACK
6
CONTINUOUS
10
9.64187
20
-4.10301
11
9.65312
21
-4.08614
0
LINE
8
BLACK
6
CONTINUOUS
10
9.65312
20
-4.08614
11
9.65874
21
-4.06364
0
LINE
8
BLACK
6
CONTINUOUS
10
9.65874
20
-4.06364
11
9.65874
21
-4.01864
0
LINE
8
BLACK
6
CONTINUOUS
10
9.65874
20
-4.01864
11
9.65312
21
-4.0074
0
LINE
8
BLACK
6
CONTINUOUS
10
9.65312
20
-4.0074
11
9.64749
21
-4.00177
0
LINE
8
BLACK
6
CONTINUOUS
10
9.64749
20
-4.00177
11
9.63624
21
-3.99615
0
LINE
8
BLACK
6
CONTINUOUS
10
9.63624
20
-3.99615
11
9.61375
21
-3.99615
0
LINE
8
BLACK
6
CONTINUOUS
10
9.61375
20
-3.99615
11
9.6025
21
-4.00177
0
LINE
8
BLACK
6
CONTINUOUS
10
9.6025
20
-4.00177
11
9.59687
21
-4.0074
0
LINE
8
BLACK
6
CONTINUOUS
10
9.59687
20
-4.0074
11
9.59125
21
-4.01864
0
LINE
8
BLACK
6
CONTINUOUS
10
9.59125
20
-4.01864
11
9.59125
21
-4.04677
0
LINE
8
BLACK
6
CONTINUOUS
10
9.59125
20
-4.04677
11
9.59687
21
-4.05801
0
LINE
8
BLACK
6
CONTINUOUS
10
9.59687
20
-4.05801
11
9.6025
21
-4.06364
0
LINE
8
BLACK
6
CONTINUOUS
10
9.6025
20
-4.06364
11
9.61375
21
-4.06926
0
LINE
8
BLACK
6
CONTINUOUS
10
9.61375
20
-4.06926
11
9.63624
21
-4.06926
0
LINE
8
BLACK
6
CONTINUOUS
10
9.63624
20
-4.06926
11
9.64749
21
-4.06364
0
LINE
8
BLACK
6
CONTINUOUS
10
9.64749
20
-4.06364
11
9.65312
21
-4.05801
0
LINE
8
BLACK
6
CONTINUOUS
10
9.65312
20
-4.05801
11
9.65874
21
-4.04677
0
LINE
8
BLACK
6
CONTINUOUS
10
9.70373
20
-3.99615
11
9.70373
21
-4.01864
0
LINE
8
BLACK
6
CONTINUOUS
10
9.74873
20
-3.99615
11
9.74873
21
-4.01864
0
LINE
8
BLACK
6
CONTINUOUS
10
9.92308
20
-4.15925
11
9.91746
21
-4.15363
0
LINE
8
BLACK
6
CONTINUOUS
10
9.91746
20
-4.15363
11
9.90621
21
-4.13675
0
LINE
8
BLACK
6
CONTINUOUS
10
9.90621
20
-4.13675
11
9.90058
21
-4.12551
0
LINE
8
BLACK
6
CONTINUOUS
10
9.90058
20
-4.12551
11
9.89496
21
-4.10863
0
LINE
8
BLACK
6
CONTINUOUS
10
9.89496
20
-4.10863
11
9.88934
21
-4.08051
0
LINE
8
BLACK
6
CONTINUOUS
10
9.88934
20
-4.08051
11
9.88934
21
-4.05801
0
LINE
8
BLACK
6
CONTINUOUS
10
9.88934
20
-4.05801
11
9.89496
21
-4.02989
0
LINE
8
BLACK
6
CONTINUOUS
10
9.89496
20
-4.02989
11
9.90058
21
-4.01302
0
LINE
8
BLACK
6
CONTINUOUS
10
9.90058
20
-4.01302
11
9.90621
21
-4.00177
0
LINE
8
BLACK
6
CONTINUOUS
10
9.90621
20
-4.00177
11
9.91746
21
-3.9849
0
LINE
8
BLACK
6
CONTINUOUS
10
9.91746
20
-3.9849
11
9.92308
21
-3.97927
0
LINE
8
BLACK
6
CONTINUOUS
10
10.0187
20
-4.03552
11
10.0187
21
-4.11426
0
LINE
8
BLACK
6
CONTINUOUS
10
9.99057
20
-3.99052
11
9.96245
21
-4.07489
0
LINE
8
BLACK
6
CONTINUOUS
10
9.96245
20
-4.07489
11
10.0356
21
-4.07489
0
LINE
8
BLACK
6
CONTINUOUS
10
10.1031
20
-3.99615
11
10.1143
21
-3.99615
0
LINE
8
BLACK
6
CONTINUOUS
10
10.1143
20
-3.99615
11
10.1256
21
-4.00177
0
LINE
8
BLACK
6
CONTINUOUS
10
10.1256
20
-4.00177
11
10.1312
21
-4.0074
0
LINE
8
BLACK
6
CONTINUOUS
10
10.1312
20
-4.0074
11
10.1368
21
-4.01864
0
LINE
8
BLACK
6
CONTINUOUS
10
10.1368
20
-4.01864
11
10.1424
21
-4.04114
0
LINE
8
BLACK
6
CONTINUOUS
10
10.1424
20
-4.04114
11
10.1424
21
-4.06926
0
LINE
8
BLACK
6
CONTINUOUS
10
10.1424
20
-4.06926
11
10.1368
21
-4.09176
0
LINE
8
BLACK
6
CONTINUOUS
10
10.1368
20
-4.09176
11
10.1312
21
-4.10301
0
LINE
8
BLACK
6
CONTINUOUS
10
10.1312
20
-4.10301
11
10.1256
21
-4.10863
0
LINE
8
BLACK
6
CONTINUOUS
10
10.1256
20
-4.10863
11
10.1143
21
-4.11426
0
LINE
8
BLACK
6
CONTINUOUS
10
10.1143
20
-4.11426
11
10.1031
21
-4.11426
0
LINE
8
BLACK
6
CONTINUOUS
10
10.1031
20
-4.11426
11
10.0918
21
-4.10863
0
LINE
8
BLACK
6
CONTINUOUS
10
10.0918
20
-4.10863
11
10.0862
21
-4.10301
0
LINE
8
BLACK
6
CONTINUOUS
10
10.0862
20
-4.10301
11
10.0806
21
-4.09176
0
LINE
8
BLACK
6
CONTINUOUS
10
10.0806
20
-4.09176
11
10.0749
21
-4.06926
0
LINE
8
BLACK
6
CONTINUOUS
10
10.0749
20
-4.06926
11
10.0749
21
-4.04114
0
LINE
8
BLACK
6
CONTINUOUS
10
10.0749
20
-4.04114
11
10.0806
21
-4.01864
0
LINE
8
BLACK
6
CONTINUOUS
10
10.0806
20
-4.01864
11
10.0862
21
-4.0074
0
LINE
8
BLACK
6
CONTINUOUS
10
10.0862
20
-4.0074
11
10.0918
21
-4.00177
0
LINE
8
BLACK
6
CONTINUOUS
10
10.0918
20
-4.00177
11
10.1031
21
-3.99615
0
LINE
8
BLACK
6
CONTINUOUS
10
10.283
20
-4.11426
11
10.283
21
-3.99615
0
LINE
8
BLACK
6
CONTINUOUS
10
10.3337
20
-4.11426
11
10.3337
21
-4.05239
0
LINE
8
BLACK
6
CONTINUOUS
10
10.3337
20
-4.05239
11
10.328
21
-4.04114
0
LINE
8
BLACK
6
CONTINUOUS
10
10.328
20
-4.04114
11
10.3168
21
-4.03552
0
LINE
8
BLACK
6
CONTINUOUS
10
10.3168
20
-4.03552
11
10.2999
21
-4.03552
0
LINE
8
BLACK
6
CONTINUOUS
10
10.2999
20
-4.03552
11
10.2887
21
-4.04114
0
LINE
8
BLACK
6
CONTINUOUS
10
10.2887
20
-4.04114
11
10.283
21
-4.04677
0
LINE
8
BLACK
6
CONTINUOUS
10
10.4068
20
-4.11426
11
10.3955
21
-4.10863
0
LINE
8
BLACK
6
CONTINUOUS
10
10.3955
20
-4.10863
11
10.3899
21
-4.10301
0
LINE
8
BLACK
6
CONTINUOUS
10
10.3899
20
-4.10301
11
10.3843
21
-4.09176
0
LINE
8
BLACK
6
CONTINUOUS
10
10.3843
20
-4.09176
11
10.3843
21
-4.05801
0
LINE
8
BLACK
6
CONTINUOUS
10
10.3843
20
-4.05801
11
10.3899
21
-4.04677
0
LINE
8
BLACK
6
CONTINUOUS
10
10.3899
20
-4.04677
11
10.3955
21
-4.04114
0
LINE
8
BLACK
6
CONTINUOUS
10
10.3955
20
-4.04114
11
10.4068
21
-4.03552
0
LINE
8
BLACK
6
CONTINUOUS
10
10.4068
20
-4.03552
11
10.4236
21
-4.03552
0
LINE
8
BLACK
6
CONTINUOUS
10
10.4236
20
-4.03552
11
10.4349
21
-4.04114
0
LINE
8
BLACK
6
CONTINUOUS
10
10.4349
20
-4.04114
11
10.4405
21
-4.04677
0
LINE
8
BLACK
6
CONTINUOUS
10
10.4405
20
-4.04677
11
10.4461
21
-4.05801
0
LINE
8
BLACK
6
CONTINUOUS
10
10.4461
20
-4.05801
11
10.4461
21
-4.09176
0
LINE
8
BLACK
6
CONTINUOUS
10
10.4461
20
-4.09176
11
10.4405
21
-4.10301
0
LINE
8
BLACK
6
CONTINUOUS
10
10.4405
20
-4.10301
11
10.4349
21
-4.10863
0
LINE
8
BLACK
6
CONTINUOUS
10
10.4349
20
-4.10863
11
10.4236
21
-4.11426
0
LINE
8
BLACK
6
CONTINUOUS
10
10.4236
20
-4.11426
11
10.4068
21
-4.11426
0
LINE
8
BLACK
6
CONTINUOUS
10
10.5136
20
-4.11426
11
10.5024
21
-4.10863
0
LINE
8
BLACK
6
CONTINUOUS
10
10.5024
20
-4.10863
11
10.4968
21
-4.09738
0
LINE
8
BLACK
6
CONTINUOUS
10
10.4968
20
-4.09738
11
10.4968
21
-3.99615
0
LINE
8
BLACK
6
CONTINUOUS
10
10.6036
20
-4.10863
11
10.5924
21
-4.11426
0
LINE
8
BLACK
6
CONTINUOUS
10
10.5924
20
-4.11426
11
10.5699
21
-4.11426
0
LINE
8
BLACK
6
CONTINUOUS
10
10.5699
20
-4.11426
11
10.5586
21
-4.10863
0
LINE
8
BLACK
6
CONTINUOUS
10
10.5586
20
-4.10863
11
10.553
21
-4.09738
0
LINE
8
BLACK
6
CONTINUOUS
10
10.553
20
-4.09738
11
10.553
21
-4.05239
0
LINE
8
BLACK
6
CONTINUOUS
10
10.553
20
-4.05239
11
10.5586
21
-4.04114
0
LINE
8
BLACK
6
CONTINUOUS
10
10.5586
20
-4.04114
11
10.5699
21
-4.03552
0
LINE
8
BLACK
6
CONTINUOUS
10
10.5699
20
-4.03552
11
10.5924
21
-4.03552
0
LINE
8
BLACK
6
CONTINUOUS
10
10.5924
20
-4.03552
11
10.6036
21
-4.04114
0
LINE
8
BLACK
6
CONTINUOUS
10
10.6036
20
-4.04114
11
10.6092
21
-4.05239
0
LINE
8
BLACK
6
CONTINUOUS
10
10.6092
20
-4.05239
11
10.6092
21
-4.06364
0
LINE
8
BLACK
6
CONTINUOUS
10
10.6092
20
-4.06364
11
10.553
21
-4.07489
0
LINE
8
BLACK
6
CONTINUOUS
10
10.6542
20
-4.10863
11
10.6655
21
-4.11426
0
LINE
8
BLACK
6
CONTINUOUS
10
10.6655
20
-4.11426
11
10.688
21
-4.11426
0
LINE
8
BLACK
6
CONTINUOUS
10
10.688
20
-4.11426
11
10.6992
21
-4.10863
0
LINE
8
BLACK
6
CONTINUOUS
10
10.6992
20
-4.10863
11
10.7049
21
-4.09738
0
LINE
8
BLACK
6
CONTINUOUS
10
10.7049
20
-4.09738
11
10.7049
21
-4.09176
0
LINE
8
BLACK
6
CONTINUOUS
10
10.7049
20
-4.09176
11
10.6992
21
-4.08051
0
LINE
8
BLACK
6
CONTINUOUS
10
10.6992
20
-4.08051
11
10.688
21
-4.07489
0
LINE
8
BLACK
6
CONTINUOUS
10
10.688
20
-4.07489
11
10.6711
21
-4.07489
0
LINE
8
BLACK
6
CONTINUOUS
10
10.6711
20
-4.07489
11
10.6599
21
-4.06926
0
LINE
8
BLACK
6
CONTINUOUS
10
10.6599
20
-4.06926
11
10.6542
21
-4.05801
0
LINE
8
BLACK
6
CONTINUOUS
10
10.6542
20
-4.05801
11
10.6542
21
-4.05239
0
LINE
8
BLACK
6
CONTINUOUS
10
10.6542
20
-4.05239
11
10.6599
21
-4.04114
0
LINE
8
BLACK
6
CONTINUOUS
10
10.6599
20
-4.04114
11
10.6711
21
-4.03552
0
LINE
8
BLACK
6
CONTINUOUS
10
10.6711
20
-4.03552
11
10.688
21
-4.03552
0
LINE
8
BLACK
6
CONTINUOUS
10
10.688
20
-4.03552
11
10.6992
21
-4.04114
0
LINE
8
BLACK
6
CONTINUOUS
10
10.7442
20
-4.15925
11
10.7499
21
-4.15363
0
LINE
8
BLACK
6
CONTINUOUS
10
10.7499
20
-4.15363
11
10.7611
21
-4.13675
0
LINE
8
BLACK
6
CONTINUOUS
10
10.7611
20
-4.13675
11
10.7667
21
-4.12551
0
LINE
8
BLACK
6
CONTINUOUS
10
10.7667
20
-4.12551
11
10.7724
21
-4.10863
0
LINE
8
BLACK
6
CONTINUOUS
10
10.7724
20
-4.10863
11
10.778
21
-4.08051
0
LINE
8
BLACK
6
CONTINUOUS
10
10.778
20
-4.08051
11
10.778
21
-4.05801
0
LINE
8
BLACK
6
CONTINUOUS
10
10.778
20
-4.05801
11
10.7724
21
-4.02989
0
LINE
8
BLACK
6
CONTINUOUS
10
10.7724
20
-4.02989
11
10.7667
21
-4.01302
0
LINE
8
BLACK
6
CONTINUOUS
10
10.7667
20
-4.01302
11
10.7611
21
-4.00177
0
LINE
8
BLACK
6
CONTINUOUS
10
10.7611
20
-4.00177
11
10.7499
21
-3.9849
0
LINE
8
BLACK
6
CONTINUOUS
10
10.7499
20
-3.9849
11
10.7442
21
-3.97927
  0
ENDSEC
  0
EOF
