G04 #@! TF.GenerationSoftware,KiCad,Pcbnew,5.1.7-a382d34a8~87~ubuntu18.04.1*
G04 #@! TF.CreationDate,2021-02-14T20:43:55-05:00*
G04 #@! TF.ProjectId,FLASH_MOD,464c4153-485f-44d4-9f44-2e6b69636164,0*
G04 #@! TF.SameCoordinates,Original*
G04 #@! TF.FileFunction,Copper,L2,Bot*
G04 #@! TF.FilePolarity,Positive*
%FSLAX46Y46*%
G04 Gerber Fmt 4.6, Leading zero omitted, Abs format (unit mm)*
G04 Created by KiCad (PCBNEW 5.1.7-a382d34a8~87~ubuntu18.04.1) date 2021-02-14 20:43:55*
%MOMM*%
%LPD*%
G01*
G04 APERTURE LIST*
G04 #@! TA.AperFunction,NonConductor*
%ADD10C,0.160000*%
G04 #@! TD*
G04 #@! TA.AperFunction,SMDPad,CuDef*
%ADD11R,1.600000X1.100000*%
G04 #@! TD*
G04 #@! TA.AperFunction,SMDPad,CuDef*
%ADD12R,1.100000X1.600000*%
G04 #@! TD*
G04 #@! TA.AperFunction,ComponentPad*
%ADD13O,1.700000X1.700000*%
G04 #@! TD*
G04 #@! TA.AperFunction,ComponentPad*
%ADD14R,1.700000X1.700000*%
G04 #@! TD*
G04 #@! TA.AperFunction,ViaPad*
%ADD15C,0.800000*%
G04 #@! TD*
G04 #@! TA.AperFunction,Conductor*
%ADD16C,0.250000*%
G04 #@! TD*
G04 #@! TA.AperFunction,Conductor*
%ADD17C,0.254000*%
G04 #@! TD*
G04 #@! TA.AperFunction,Conductor*
%ADD18C,0.152400*%
G04 #@! TD*
G04 #@! TA.AperFunction,Conductor*
%ADD19C,0.100000*%
G04 #@! TD*
G04 APERTURE END LIST*
D10*
X206071000Y-77132333D02*
X206071000Y-76899000D01*
X206437666Y-76899000D02*
X205737666Y-76899000D01*
X205737666Y-77232333D01*
X206437666Y-77499000D02*
X205737666Y-77499000D01*
X206237666Y-77732333D01*
X205737666Y-77965666D01*
X206437666Y-77965666D01*
X206437666Y-78399000D02*
X206404333Y-78332333D01*
X206371000Y-78299000D01*
X206304333Y-78265666D01*
X206104333Y-78265666D01*
X206037666Y-78299000D01*
X206004333Y-78332333D01*
X205971000Y-78399000D01*
X205971000Y-78499000D01*
X206004333Y-78565666D01*
X206037666Y-78599000D01*
X206104333Y-78632333D01*
X206304333Y-78632333D01*
X206371000Y-78599000D01*
X206404333Y-78565666D01*
X206437666Y-78499000D01*
X206437666Y-78399000D01*
X206437666Y-79232333D02*
X205737666Y-79232333D01*
X206404333Y-79232333D02*
X206437666Y-79165666D01*
X206437666Y-79032333D01*
X206404333Y-78965666D01*
X206371000Y-78932333D01*
X206304333Y-78899000D01*
X206104333Y-78899000D01*
X206037666Y-78932333D01*
X206004333Y-78965666D01*
X205971000Y-79032333D01*
X205971000Y-79165666D01*
X206004333Y-79232333D01*
X206404333Y-79599000D02*
X206437666Y-79599000D01*
X206504333Y-79565666D01*
X206537666Y-79532333D01*
X205804333Y-80399000D02*
X205771000Y-80432333D01*
X205737666Y-80499000D01*
X205737666Y-80665666D01*
X205771000Y-80732333D01*
X205804333Y-80765666D01*
X205871000Y-80799000D01*
X205937666Y-80799000D01*
X206037666Y-80765666D01*
X206437666Y-80365666D01*
X206437666Y-80799000D01*
X205704333Y-81599000D02*
X206604333Y-80999000D01*
X206437666Y-82199000D02*
X206437666Y-81799000D01*
X206437666Y-81999000D02*
X205737666Y-81999000D01*
X205837666Y-81932333D01*
X205904333Y-81865666D01*
X205937666Y-81799000D01*
X205737666Y-82832333D02*
X205737666Y-82499000D01*
X206071000Y-82465666D01*
X206037666Y-82499000D01*
X206004333Y-82565666D01*
X206004333Y-82732333D01*
X206037666Y-82799000D01*
X206071000Y-82832333D01*
X206137666Y-82865666D01*
X206304333Y-82865666D01*
X206371000Y-82832333D01*
X206404333Y-82799000D01*
X206437666Y-82732333D01*
X206437666Y-82565666D01*
X206404333Y-82499000D01*
X206371000Y-82465666D01*
X205704333Y-83665666D02*
X206604333Y-83065666D01*
X205804333Y-83865666D02*
X205771000Y-83899000D01*
X205737666Y-83965666D01*
X205737666Y-84132333D01*
X205771000Y-84199000D01*
X205804333Y-84232333D01*
X205871000Y-84265666D01*
X205937666Y-84265666D01*
X206037666Y-84232333D01*
X206437666Y-83832333D01*
X206437666Y-84265666D01*
X206437666Y-84932333D02*
X206437666Y-84532333D01*
X206437666Y-84732333D02*
X205737666Y-84732333D01*
X205837666Y-84665666D01*
X205904333Y-84599000D01*
X205937666Y-84532333D01*
D11*
G04 #@! TO.P,TP1,1*
G04 #@! TO.N,+3V3*
X209800000Y-79850000D03*
G04 #@! TD*
D12*
G04 #@! TO.P,TP2,1*
G04 #@! TO.N,/WMCU_RTS*
X207550000Y-87600000D03*
G04 #@! TD*
D13*
G04 #@! TO.P,U101,10*
G04 #@! TO.N,N/C*
X215460000Y-50160000D03*
G04 #@! TO.P,U101,11*
X218000000Y-52700000D03*
G04 #@! TO.P,U101,12*
X215460000Y-52700000D03*
G04 #@! TO.P,U101,13*
X218000000Y-55240000D03*
G04 #@! TO.P,U101,2*
G04 #@! TO.N,+3V3*
X215460000Y-40000000D03*
G04 #@! TO.P,U101,4*
G04 #@! TO.N,N/C*
X215460000Y-42540000D03*
G04 #@! TO.P,U101,7*
X218000000Y-47620000D03*
G04 #@! TO.P,U101,3*
X218000000Y-42540000D03*
G04 #@! TO.P,U101,9*
X218000000Y-50160000D03*
D14*
G04 #@! TO.P,U101,1*
G04 #@! TO.N,GND*
X218000000Y-40000000D03*
D13*
G04 #@! TO.P,U101,8*
G04 #@! TO.N,N/C*
X215460000Y-47620000D03*
G04 #@! TO.P,U101,5*
X218000000Y-45080000D03*
G04 #@! TO.P,U101,6*
X215460000Y-45080000D03*
G04 #@! TO.P,U101,14*
X215460000Y-55240000D03*
G04 #@! TO.P,U101,15*
X218000000Y-57780000D03*
G04 #@! TO.P,U101,16*
X215460000Y-57780000D03*
G04 #@! TO.P,U101,17*
X218000000Y-60320000D03*
G04 #@! TO.P,U101,18*
X215460000Y-60320000D03*
G04 #@! TO.P,U101,19*
X218000000Y-62860000D03*
G04 #@! TO.P,U101,20*
X215460000Y-62860000D03*
G04 #@! TO.P,U101,21*
X218000000Y-65400000D03*
G04 #@! TO.P,U101,22*
X215460000Y-65400000D03*
G04 #@! TO.P,U101,23*
G04 #@! TO.N,/~LCD_CS*
X218000000Y-67940000D03*
G04 #@! TO.P,U101,24*
G04 #@! TO.N,SPI_SCK*
X215460000Y-67940000D03*
G04 #@! TO.P,U101,25*
G04 #@! TO.N,/LCD_DC*
X218000000Y-70480000D03*
G04 #@! TO.P,U101,26*
G04 #@! TO.N,Net-(JP101-Pad1)*
X215460000Y-70480000D03*
G04 #@! TO.P,U101,27*
G04 #@! TO.N,SPI_MOSI*
X218000000Y-73020000D03*
G04 #@! TO.P,U101,28*
G04 #@! TO.N,Net-(JP102-Pad1)*
X215460000Y-73020000D03*
G04 #@! TO.P,U101,29*
G04 #@! TO.N,N/C*
X218000000Y-75560000D03*
G04 #@! TO.P,U101,30*
X215460000Y-75560000D03*
G04 #@! TO.P,U101,31*
X218000000Y-78100000D03*
G04 #@! TO.P,U101,32*
G04 #@! TO.N,SPI_MISO*
X215460000Y-78100000D03*
G04 #@! TO.P,U101,33*
G04 #@! TO.N,SPI_SCK*
X218000000Y-80640000D03*
G04 #@! TO.P,U101,34*
G04 #@! TO.N,SPI_MOSI*
X215460000Y-80640000D03*
G04 #@! TO.P,U101,35*
G04 #@! TO.N,N/C*
X218000000Y-83180000D03*
G04 #@! TO.P,U101,36*
X215460000Y-83180000D03*
G04 #@! TO.P,U101,37*
X218000000Y-85720000D03*
G04 #@! TO.P,U101,38*
X215460000Y-85720000D03*
G04 #@! TO.P,U101,39*
X218000000Y-88260000D03*
G04 #@! TO.P,U101,40*
G04 #@! TO.N,GND*
X215460000Y-88260000D03*
G04 #@! TD*
G04 #@! TO.P,C1,2*
G04 #@! TO.N,GND*
G04 #@! TA.AperFunction,SMDPad,CuDef*
G36*
G01*
X212034000Y-82165000D02*
X212034000Y-81665000D01*
G75*
G02*
X212259000Y-81440000I225000J0D01*
G01*
X212709000Y-81440000D01*
G75*
G02*
X212934000Y-81665000I0J-225000D01*
G01*
X212934000Y-82165000D01*
G75*
G02*
X212709000Y-82390000I-225000J0D01*
G01*
X212259000Y-82390000D01*
G75*
G02*
X212034000Y-82165000I0J225000D01*
G01*
G37*
G04 #@! TD.AperFunction*
G04 #@! TO.P,C1,1*
G04 #@! TO.N,+3V3*
G04 #@! TA.AperFunction,SMDPad,CuDef*
G36*
G01*
X210484000Y-82165000D02*
X210484000Y-81665000D01*
G75*
G02*
X210709000Y-81440000I225000J0D01*
G01*
X211159000Y-81440000D01*
G75*
G02*
X211384000Y-81665000I0J-225000D01*
G01*
X211384000Y-82165000D01*
G75*
G02*
X211159000Y-82390000I-225000J0D01*
G01*
X210709000Y-82390000D01*
G75*
G02*
X210484000Y-82165000I0J225000D01*
G01*
G37*
G04 #@! TD.AperFunction*
G04 #@! TD*
G04 #@! TO.P,C2,1*
G04 #@! TO.N,+3V3*
G04 #@! TA.AperFunction,SMDPad,CuDef*
G36*
G01*
X212475000Y-67609000D02*
X212975000Y-67609000D01*
G75*
G02*
X213200000Y-67834000I0J-225000D01*
G01*
X213200000Y-68284000D01*
G75*
G02*
X212975000Y-68509000I-225000J0D01*
G01*
X212475000Y-68509000D01*
G75*
G02*
X212250000Y-68284000I0J225000D01*
G01*
X212250000Y-67834000D01*
G75*
G02*
X212475000Y-67609000I225000J0D01*
G01*
G37*
G04 #@! TD.AperFunction*
G04 #@! TO.P,C2,2*
G04 #@! TO.N,GND*
G04 #@! TA.AperFunction,SMDPad,CuDef*
G36*
G01*
X212475000Y-69159000D02*
X212975000Y-69159000D01*
G75*
G02*
X213200000Y-69384000I0J-225000D01*
G01*
X213200000Y-69834000D01*
G75*
G02*
X212975000Y-70059000I-225000J0D01*
G01*
X212475000Y-70059000D01*
G75*
G02*
X212250000Y-69834000I0J225000D01*
G01*
X212250000Y-69384000D01*
G75*
G02*
X212475000Y-69159000I225000J0D01*
G01*
G37*
G04 #@! TD.AperFunction*
G04 #@! TD*
G04 #@! TO.P,JP1,1*
G04 #@! TO.N,/LCD_DC*
G04 #@! TA.AperFunction,SMDPad,CuDef*
G36*
G01*
X209577000Y-84032000D02*
X209777000Y-84032000D01*
G75*
G02*
X209877000Y-84132000I0J-100000D01*
G01*
X209877000Y-84392000D01*
G75*
G02*
X209777000Y-84492000I-100000J0D01*
G01*
X209577000Y-84492000D01*
G75*
G02*
X209477000Y-84392000I0J100000D01*
G01*
X209477000Y-84132000D01*
G75*
G02*
X209577000Y-84032000I100000J0D01*
G01*
G37*
G04 #@! TD.AperFunction*
G04 #@! TO.P,JP1,2*
G04 #@! TO.N,Net-(JP1-Pad2)*
G04 #@! TA.AperFunction,SMDPad,CuDef*
G36*
G01*
X209577000Y-84672000D02*
X209777000Y-84672000D01*
G75*
G02*
X209877000Y-84772000I0J-100000D01*
G01*
X209877000Y-85032000D01*
G75*
G02*
X209777000Y-85132000I-100000J0D01*
G01*
X209577000Y-85132000D01*
G75*
G02*
X209477000Y-85032000I0J100000D01*
G01*
X209477000Y-84772000D01*
G75*
G02*
X209577000Y-84672000I100000J0D01*
G01*
G37*
G04 #@! TD.AperFunction*
G04 #@! TD*
G04 #@! TO.P,JP2,2*
G04 #@! TO.N,Net-(JP1-Pad2)*
G04 #@! TA.AperFunction,SMDPad,CuDef*
G36*
G01*
X211482000Y-84672000D02*
X211682000Y-84672000D01*
G75*
G02*
X211782000Y-84772000I0J-100000D01*
G01*
X211782000Y-85032000D01*
G75*
G02*
X211682000Y-85132000I-100000J0D01*
G01*
X211482000Y-85132000D01*
G75*
G02*
X211382000Y-85032000I0J100000D01*
G01*
X211382000Y-84772000D01*
G75*
G02*
X211482000Y-84672000I100000J0D01*
G01*
G37*
G04 #@! TD.AperFunction*
G04 #@! TO.P,JP2,1*
G04 #@! TO.N,/~LCD_CS*
G04 #@! TA.AperFunction,SMDPad,CuDef*
G36*
G01*
X211482000Y-84032000D02*
X211682000Y-84032000D01*
G75*
G02*
X211782000Y-84132000I0J-100000D01*
G01*
X211782000Y-84392000D01*
G75*
G02*
X211682000Y-84492000I-100000J0D01*
G01*
X211482000Y-84492000D01*
G75*
G02*
X211382000Y-84392000I0J100000D01*
G01*
X211382000Y-84132000D01*
G75*
G02*
X211482000Y-84032000I100000J0D01*
G01*
G37*
G04 #@! TD.AperFunction*
G04 #@! TD*
G04 #@! TO.P,JP3,1*
G04 #@! TO.N,/WMCU_RTS*
G04 #@! TA.AperFunction,SMDPad,CuDef*
G36*
G01*
X207872000Y-85132000D02*
X207672000Y-85132000D01*
G75*
G02*
X207572000Y-85032000I0J100000D01*
G01*
X207572000Y-84772000D01*
G75*
G02*
X207672000Y-84672000I100000J0D01*
G01*
X207872000Y-84672000D01*
G75*
G02*
X207972000Y-84772000I0J-100000D01*
G01*
X207972000Y-85032000D01*
G75*
G02*
X207872000Y-85132000I-100000J0D01*
G01*
G37*
G04 #@! TD.AperFunction*
G04 #@! TO.P,JP3,2*
G04 #@! TO.N,Net-(JP1-Pad2)*
G04 #@! TA.AperFunction,SMDPad,CuDef*
G36*
G01*
X207872000Y-84492000D02*
X207672000Y-84492000D01*
G75*
G02*
X207572000Y-84392000I0J100000D01*
G01*
X207572000Y-84132000D01*
G75*
G02*
X207672000Y-84032000I100000J0D01*
G01*
X207872000Y-84032000D01*
G75*
G02*
X207972000Y-84132000I0J-100000D01*
G01*
X207972000Y-84392000D01*
G75*
G02*
X207872000Y-84492000I-100000J0D01*
G01*
G37*
G04 #@! TD.AperFunction*
G04 #@! TD*
G04 #@! TO.P,R1,1*
G04 #@! TO.N,+3V3*
G04 #@! TA.AperFunction,SMDPad,CuDef*
G36*
G01*
X207309000Y-82190000D02*
X207309000Y-81640000D01*
G75*
G02*
X207509000Y-81440000I200000J0D01*
G01*
X207909000Y-81440000D01*
G75*
G02*
X208109000Y-81640000I0J-200000D01*
G01*
X208109000Y-82190000D01*
G75*
G02*
X207909000Y-82390000I-200000J0D01*
G01*
X207509000Y-82390000D01*
G75*
G02*
X207309000Y-82190000I0J200000D01*
G01*
G37*
G04 #@! TD.AperFunction*
G04 #@! TO.P,R1,2*
G04 #@! TO.N,Net-(JP1-Pad2)*
G04 #@! TA.AperFunction,SMDPad,CuDef*
G36*
G01*
X208959000Y-82190000D02*
X208959000Y-81640000D01*
G75*
G02*
X209159000Y-81440000I200000J0D01*
G01*
X209559000Y-81440000D01*
G75*
G02*
X209759000Y-81640000I0J-200000D01*
G01*
X209759000Y-82190000D01*
G75*
G02*
X209559000Y-82390000I-200000J0D01*
G01*
X209159000Y-82390000D01*
G75*
G02*
X208959000Y-82190000I0J200000D01*
G01*
G37*
G04 #@! TD.AperFunction*
G04 #@! TD*
G04 #@! TO.P,U1,1*
G04 #@! TO.N,Net-(JP1-Pad2)*
G04 #@! TA.AperFunction,SMDPad,CuDef*
G36*
G01*
X211097000Y-76409000D02*
X210797000Y-76409000D01*
G75*
G02*
X210647000Y-76259000I0J150000D01*
G01*
X210647000Y-74959000D01*
G75*
G02*
X210797000Y-74809000I150000J0D01*
G01*
X211097000Y-74809000D01*
G75*
G02*
X211247000Y-74959000I0J-150000D01*
G01*
X211247000Y-76259000D01*
G75*
G02*
X211097000Y-76409000I-150000J0D01*
G01*
G37*
G04 #@! TD.AperFunction*
G04 #@! TO.P,U1,2*
G04 #@! TO.N,SPI_MISO*
G04 #@! TA.AperFunction,SMDPad,CuDef*
G36*
G01*
X209827000Y-76409000D02*
X209527000Y-76409000D01*
G75*
G02*
X209377000Y-76259000I0J150000D01*
G01*
X209377000Y-74959000D01*
G75*
G02*
X209527000Y-74809000I150000J0D01*
G01*
X209827000Y-74809000D01*
G75*
G02*
X209977000Y-74959000I0J-150000D01*
G01*
X209977000Y-76259000D01*
G75*
G02*
X209827000Y-76409000I-150000J0D01*
G01*
G37*
G04 #@! TD.AperFunction*
G04 #@! TO.P,U1,3*
G04 #@! TO.N,+3V3*
G04 #@! TA.AperFunction,SMDPad,CuDef*
G36*
G01*
X208557000Y-76409000D02*
X208257000Y-76409000D01*
G75*
G02*
X208107000Y-76259000I0J150000D01*
G01*
X208107000Y-74959000D01*
G75*
G02*
X208257000Y-74809000I150000J0D01*
G01*
X208557000Y-74809000D01*
G75*
G02*
X208707000Y-74959000I0J-150000D01*
G01*
X208707000Y-76259000D01*
G75*
G02*
X208557000Y-76409000I-150000J0D01*
G01*
G37*
G04 #@! TD.AperFunction*
G04 #@! TO.P,U1,4*
G04 #@! TO.N,GND*
G04 #@! TA.AperFunction,SMDPad,CuDef*
G36*
G01*
X207287000Y-76409000D02*
X206987000Y-76409000D01*
G75*
G02*
X206837000Y-76259000I0J150000D01*
G01*
X206837000Y-74959000D01*
G75*
G02*
X206987000Y-74809000I150000J0D01*
G01*
X207287000Y-74809000D01*
G75*
G02*
X207437000Y-74959000I0J-150000D01*
G01*
X207437000Y-76259000D01*
G75*
G02*
X207287000Y-76409000I-150000J0D01*
G01*
G37*
G04 #@! TD.AperFunction*
G04 #@! TO.P,U1,5*
G04 #@! TO.N,SPI_MOSI*
G04 #@! TA.AperFunction,SMDPad,CuDef*
G36*
G01*
X207287000Y-69209000D02*
X206987000Y-69209000D01*
G75*
G02*
X206837000Y-69059000I0J150000D01*
G01*
X206837000Y-67759000D01*
G75*
G02*
X206987000Y-67609000I150000J0D01*
G01*
X207287000Y-67609000D01*
G75*
G02*
X207437000Y-67759000I0J-150000D01*
G01*
X207437000Y-69059000D01*
G75*
G02*
X207287000Y-69209000I-150000J0D01*
G01*
G37*
G04 #@! TD.AperFunction*
G04 #@! TO.P,U1,6*
G04 #@! TO.N,SPI_SCK*
G04 #@! TA.AperFunction,SMDPad,CuDef*
G36*
G01*
X208557000Y-69209000D02*
X208257000Y-69209000D01*
G75*
G02*
X208107000Y-69059000I0J150000D01*
G01*
X208107000Y-67759000D01*
G75*
G02*
X208257000Y-67609000I150000J0D01*
G01*
X208557000Y-67609000D01*
G75*
G02*
X208707000Y-67759000I0J-150000D01*
G01*
X208707000Y-69059000D01*
G75*
G02*
X208557000Y-69209000I-150000J0D01*
G01*
G37*
G04 #@! TD.AperFunction*
G04 #@! TO.P,U1,7*
G04 #@! TO.N,+3V3*
G04 #@! TA.AperFunction,SMDPad,CuDef*
G36*
G01*
X209827000Y-69209000D02*
X209527000Y-69209000D01*
G75*
G02*
X209377000Y-69059000I0J150000D01*
G01*
X209377000Y-67759000D01*
G75*
G02*
X209527000Y-67609000I150000J0D01*
G01*
X209827000Y-67609000D01*
G75*
G02*
X209977000Y-67759000I0J-150000D01*
G01*
X209977000Y-69059000D01*
G75*
G02*
X209827000Y-69209000I-150000J0D01*
G01*
G37*
G04 #@! TD.AperFunction*
G04 #@! TO.P,U1,8*
G04 #@! TA.AperFunction,SMDPad,CuDef*
G36*
G01*
X211097000Y-69209000D02*
X210797000Y-69209000D01*
G75*
G02*
X210647000Y-69059000I0J150000D01*
G01*
X210647000Y-67759000D01*
G75*
G02*
X210797000Y-67609000I150000J0D01*
G01*
X211097000Y-67609000D01*
G75*
G02*
X211247000Y-67759000I0J-150000D01*
G01*
X211247000Y-69059000D01*
G75*
G02*
X211097000Y-69209000I-150000J0D01*
G01*
G37*
G04 #@! TD.AperFunction*
G04 #@! TD*
D15*
G04 #@! TO.N,GND*
X207137000Y-77089000D03*
X211201000Y-69977000D03*
X207137000Y-74041000D03*
G04 #@! TO.N,/WMCU_RTS*
X205994000Y-85915500D03*
G04 #@! TO.N,/LCD_DC*
X209697303Y-83469454D03*
G04 #@! TO.N,/~LCD_CS*
X211582000Y-83439000D03*
G04 #@! TO.N,Net-(JP1-Pad2)*
X210947000Y-74168000D03*
X208661000Y-83058000D03*
G04 #@! TD*
D16*
G04 #@! TO.N,GND*
X218000000Y-39300000D02*
X218000000Y-40000000D01*
D17*
X207137000Y-75609000D02*
X207137000Y-77089000D01*
X212725000Y-69609000D02*
X211569000Y-69609000D01*
X211569000Y-69609000D02*
X211201000Y-69977000D01*
X214122000Y-87122000D02*
X215392000Y-88392000D01*
X212484000Y-81915000D02*
X214122000Y-83553000D01*
X214122000Y-83553000D02*
X214122000Y-87122000D01*
G04 #@! TO.N,+3V3*
X209677000Y-68409000D02*
X209677000Y-67056000D01*
X210693000Y-67056000D02*
X209677000Y-67056000D01*
X212725000Y-67437000D02*
X212725000Y-68059000D01*
X210693000Y-67056000D02*
X212344000Y-67056000D01*
X212344000Y-67056000D02*
X212725000Y-67437000D01*
X210947000Y-67056000D02*
X210693000Y-67056000D01*
X210947000Y-68409000D02*
X210947000Y-67056000D01*
X210693000Y-81915000D02*
X209804000Y-81026000D01*
X210934000Y-81915000D02*
X210693000Y-81915000D01*
X209804000Y-81026000D02*
X209804000Y-80010000D01*
X206629000Y-67056000D02*
X209677000Y-67056000D01*
X206121000Y-67564000D02*
X206629000Y-67056000D01*
X208407000Y-75609000D02*
X208407000Y-76962000D01*
X207709000Y-77660000D02*
X207709000Y-80074000D01*
X208407000Y-76962000D02*
X207709000Y-77660000D01*
X208407000Y-75609000D02*
X208407000Y-72263000D01*
X208407000Y-72263000D02*
X206121000Y-69977000D01*
X206121000Y-69977000D02*
X206121000Y-67564000D01*
X207709000Y-81915000D02*
X207709000Y-80327000D01*
X207709000Y-80327000D02*
X207709000Y-80074000D01*
X207709000Y-80010000D02*
X209804000Y-80010000D01*
X207709000Y-80327000D02*
X207709000Y-80010000D01*
G04 #@! TO.N,SPI_MISO*
X209677000Y-76409000D02*
X210230000Y-76962000D01*
X209677000Y-75609000D02*
X209677000Y-76409000D01*
X210230000Y-76962000D02*
X214249000Y-76962000D01*
X214249000Y-76962000D02*
X215392000Y-78105000D01*
G04 #@! TO.N,SPI_SCK*
X215519000Y-68453000D02*
X215519000Y-68199000D01*
X213233000Y-70739000D02*
X215519000Y-68453000D01*
X209423000Y-70739000D02*
X213233000Y-70739000D01*
X208407000Y-68409000D02*
X208407000Y-69723000D01*
X208407000Y-69723000D02*
X209423000Y-70739000D01*
G04 #@! TO.N,SPI_MOSI*
X209296000Y-71755000D02*
X216789000Y-71755000D01*
X216789000Y-71755000D02*
X218059000Y-73025000D01*
X207137000Y-69596000D02*
X209296000Y-71755000D01*
X207137000Y-68409000D02*
X207137000Y-69596000D01*
G04 #@! TO.N,/WMCU_RTS*
X207550000Y-87600000D02*
X206599000Y-87600000D01*
X206599000Y-87600000D02*
X205994000Y-86995000D01*
X205994000Y-86995000D02*
X205994000Y-85915500D01*
X206946500Y-85915500D02*
X205994000Y-85915500D01*
X207772000Y-84902000D02*
X207772000Y-85090000D01*
X207772000Y-85090000D02*
X206946500Y-85915500D01*
G04 #@! TO.N,/LCD_DC*
X209677000Y-83489757D02*
X209697303Y-83469454D01*
X209677000Y-84262000D02*
X209677000Y-83489757D01*
G04 #@! TO.N,/~LCD_CS*
X211582000Y-84262000D02*
X211582000Y-83439000D01*
G04 #@! TO.N,Net-(JP1-Pad2)*
X210947000Y-75609000D02*
X210947000Y-74168000D01*
X211582000Y-84902000D02*
X210627000Y-84902000D01*
X209677000Y-84902000D02*
X210627000Y-84902000D01*
X208341000Y-84262000D02*
X207772000Y-84262000D01*
X209677000Y-84902000D02*
X208981000Y-84902000D01*
X208981000Y-84902000D02*
X208341000Y-84262000D01*
X209359000Y-81915000D02*
X209359000Y-82360000D01*
X209359000Y-82360000D02*
X208661000Y-83058000D01*
X208341000Y-84262000D02*
X208341000Y-83378000D01*
X208341000Y-83378000D02*
X208661000Y-83058000D01*
G04 #@! TD*
D18*
G04 #@! TO.N,GND*
X206776047Y-67443286D02*
X206718507Y-67490507D01*
X206671286Y-67548047D01*
X206636197Y-67613693D01*
X206614590Y-67684923D01*
X206607294Y-67759000D01*
X206607294Y-69059000D01*
X206614590Y-69133077D01*
X206636197Y-69204307D01*
X206671286Y-69269953D01*
X206718507Y-69327493D01*
X206776047Y-69374714D01*
X206781401Y-69377576D01*
X206781401Y-69578535D01*
X206779681Y-69596000D01*
X206786546Y-69665710D01*
X206806880Y-69732741D01*
X206811008Y-69740463D01*
X206839900Y-69794516D01*
X206884338Y-69848663D01*
X206897901Y-69859794D01*
X209032210Y-71994105D01*
X209043337Y-72007663D01*
X209056895Y-72018790D01*
X209056900Y-72018795D01*
X209091078Y-72046844D01*
X209097484Y-72052101D01*
X209159260Y-72085121D01*
X209197102Y-72096600D01*
X209226289Y-72105454D01*
X209233187Y-72106133D01*
X209278537Y-72110600D01*
X209278544Y-72110600D01*
X209295999Y-72112319D01*
X209313455Y-72110600D01*
X214879585Y-72110600D01*
X214772433Y-72182197D01*
X214622197Y-72332433D01*
X214504157Y-72509091D01*
X214422850Y-72705384D01*
X214381400Y-72913767D01*
X214381400Y-73126233D01*
X214422850Y-73334616D01*
X214504157Y-73530909D01*
X214622197Y-73707567D01*
X214772433Y-73857803D01*
X214949091Y-73975843D01*
X215145384Y-74057150D01*
X215353767Y-74098600D01*
X215566233Y-74098600D01*
X215774616Y-74057150D01*
X215970909Y-73975843D01*
X216147567Y-73857803D01*
X216297803Y-73707567D01*
X216415843Y-73530909D01*
X216497150Y-73334616D01*
X216538600Y-73126233D01*
X216538600Y-72913767D01*
X216497150Y-72705384D01*
X216415843Y-72509091D01*
X216297803Y-72332433D01*
X216147567Y-72182197D01*
X216040415Y-72110600D01*
X216641707Y-72110600D01*
X217042997Y-72511891D01*
X216962850Y-72705384D01*
X216921400Y-72913767D01*
X216921400Y-73126233D01*
X216962850Y-73334616D01*
X217044157Y-73530909D01*
X217162197Y-73707567D01*
X217312433Y-73857803D01*
X217489091Y-73975843D01*
X217685384Y-74057150D01*
X217893767Y-74098600D01*
X218106233Y-74098600D01*
X218314616Y-74057150D01*
X218510909Y-73975843D01*
X218687567Y-73857803D01*
X218837803Y-73707567D01*
X218955843Y-73530909D01*
X218986900Y-73455930D01*
X218986900Y-75124070D01*
X218955843Y-75049091D01*
X218837803Y-74872433D01*
X218687567Y-74722197D01*
X218510909Y-74604157D01*
X218314616Y-74522850D01*
X218106233Y-74481400D01*
X217893767Y-74481400D01*
X217685384Y-74522850D01*
X217489091Y-74604157D01*
X217312433Y-74722197D01*
X217162197Y-74872433D01*
X217044157Y-75049091D01*
X216962850Y-75245384D01*
X216921400Y-75453767D01*
X216921400Y-75666233D01*
X216962850Y-75874616D01*
X217044157Y-76070909D01*
X217162197Y-76247567D01*
X217312433Y-76397803D01*
X217489091Y-76515843D01*
X217685384Y-76597150D01*
X217893767Y-76638600D01*
X218106233Y-76638600D01*
X218314616Y-76597150D01*
X218510909Y-76515843D01*
X218687567Y-76397803D01*
X218837803Y-76247567D01*
X218955843Y-76070909D01*
X218986900Y-75995930D01*
X218986900Y-77664071D01*
X218955843Y-77589091D01*
X218837803Y-77412433D01*
X218687567Y-77262197D01*
X218510909Y-77144157D01*
X218314616Y-77062850D01*
X218106233Y-77021400D01*
X217893767Y-77021400D01*
X217685384Y-77062850D01*
X217489091Y-77144157D01*
X217312433Y-77262197D01*
X217162197Y-77412433D01*
X217044157Y-77589091D01*
X216962850Y-77785384D01*
X216921400Y-77993767D01*
X216921400Y-78206233D01*
X216962850Y-78414616D01*
X217044157Y-78610909D01*
X217162197Y-78787567D01*
X217312433Y-78937803D01*
X217489091Y-79055843D01*
X217685384Y-79137150D01*
X217893767Y-79178600D01*
X218106233Y-79178600D01*
X218314616Y-79137150D01*
X218510909Y-79055843D01*
X218687567Y-78937803D01*
X218837803Y-78787567D01*
X218955843Y-78610909D01*
X218986901Y-78535929D01*
X218986901Y-80204071D01*
X218955843Y-80129091D01*
X218837803Y-79952433D01*
X218687567Y-79802197D01*
X218510909Y-79684157D01*
X218314616Y-79602850D01*
X218106233Y-79561400D01*
X217893767Y-79561400D01*
X217685384Y-79602850D01*
X217489091Y-79684157D01*
X217312433Y-79802197D01*
X217162197Y-79952433D01*
X217044157Y-80129091D01*
X216962850Y-80325384D01*
X216921400Y-80533767D01*
X216921400Y-80746233D01*
X216962850Y-80954616D01*
X217044157Y-81150909D01*
X217162197Y-81327567D01*
X217312433Y-81477803D01*
X217489091Y-81595843D01*
X217685384Y-81677150D01*
X217893767Y-81718600D01*
X218106233Y-81718600D01*
X218314616Y-81677150D01*
X218510909Y-81595843D01*
X218687567Y-81477803D01*
X218837803Y-81327567D01*
X218955843Y-81150909D01*
X218986901Y-81075929D01*
X218986901Y-82744071D01*
X218955843Y-82669091D01*
X218837803Y-82492433D01*
X218687567Y-82342197D01*
X218510909Y-82224157D01*
X218314616Y-82142850D01*
X218106233Y-82101400D01*
X217893767Y-82101400D01*
X217685384Y-82142850D01*
X217489091Y-82224157D01*
X217312433Y-82342197D01*
X217162197Y-82492433D01*
X217044157Y-82669091D01*
X216962850Y-82865384D01*
X216921400Y-83073767D01*
X216921400Y-83286233D01*
X216962850Y-83494616D01*
X217044157Y-83690909D01*
X217162197Y-83867567D01*
X217312433Y-84017803D01*
X217489091Y-84135843D01*
X217685384Y-84217150D01*
X217893767Y-84258600D01*
X218106233Y-84258600D01*
X218314616Y-84217150D01*
X218510909Y-84135843D01*
X218687567Y-84017803D01*
X218837803Y-83867567D01*
X218955843Y-83690909D01*
X218986901Y-83615929D01*
X218986901Y-85284071D01*
X218955843Y-85209091D01*
X218837803Y-85032433D01*
X218687567Y-84882197D01*
X218510909Y-84764157D01*
X218314616Y-84682850D01*
X218106233Y-84641400D01*
X217893767Y-84641400D01*
X217685384Y-84682850D01*
X217489091Y-84764157D01*
X217312433Y-84882197D01*
X217162197Y-85032433D01*
X217044157Y-85209091D01*
X216962850Y-85405384D01*
X216921400Y-85613767D01*
X216921400Y-85826233D01*
X216962850Y-86034616D01*
X217044157Y-86230909D01*
X217162197Y-86407567D01*
X217312433Y-86557803D01*
X217489091Y-86675843D01*
X217685384Y-86757150D01*
X217893767Y-86798600D01*
X218106233Y-86798600D01*
X218314616Y-86757150D01*
X218510909Y-86675843D01*
X218687567Y-86557803D01*
X218837803Y-86407567D01*
X218955843Y-86230909D01*
X218986901Y-86155928D01*
X218986901Y-87824072D01*
X218955843Y-87749091D01*
X218837803Y-87572433D01*
X218687567Y-87422197D01*
X218510909Y-87304157D01*
X218314616Y-87222850D01*
X218106233Y-87181400D01*
X217893767Y-87181400D01*
X217685384Y-87222850D01*
X217489091Y-87304157D01*
X217312433Y-87422197D01*
X217162197Y-87572433D01*
X217044157Y-87749091D01*
X216962850Y-87945384D01*
X216921400Y-88153767D01*
X216921400Y-88366233D01*
X216962850Y-88574616D01*
X217044157Y-88770909D01*
X217162197Y-88947567D01*
X217312433Y-89097803D01*
X217489091Y-89215843D01*
X217584358Y-89255304D01*
X214299146Y-89251384D01*
X214287009Y-89252565D01*
X214218867Y-89245884D01*
X214128802Y-89218691D01*
X214045731Y-89174522D01*
X213972822Y-89115059D01*
X213912851Y-89042567D01*
X213868103Y-88959808D01*
X213840283Y-88869933D01*
X213829118Y-88763710D01*
X213833626Y-86473862D01*
X213829675Y-86432927D01*
X213823249Y-86411593D01*
X213812010Y-86304657D01*
X213806942Y-86279969D01*
X213802202Y-86255120D01*
X213801077Y-86251396D01*
X213757101Y-86109330D01*
X213747309Y-86086036D01*
X213737856Y-86062639D01*
X213736030Y-86059204D01*
X213736030Y-86059203D01*
X213736029Y-86059202D01*
X213665297Y-85928386D01*
X213651165Y-85907434D01*
X213637350Y-85886323D01*
X213634892Y-85883308D01*
X213540095Y-85768720D01*
X213522181Y-85750931D01*
X213504511Y-85732887D01*
X213501514Y-85730407D01*
X213386267Y-85636414D01*
X213365277Y-85622469D01*
X213352569Y-85613767D01*
X214381400Y-85613767D01*
X214381400Y-85826233D01*
X214422850Y-86034616D01*
X214504157Y-86230909D01*
X214622197Y-86407567D01*
X214772433Y-86557803D01*
X214949091Y-86675843D01*
X215145384Y-86757150D01*
X215353767Y-86798600D01*
X215566233Y-86798600D01*
X215774616Y-86757150D01*
X215970909Y-86675843D01*
X216147567Y-86557803D01*
X216297803Y-86407567D01*
X216415843Y-86230909D01*
X216497150Y-86034616D01*
X216538600Y-85826233D01*
X216538600Y-85613767D01*
X216497150Y-85405384D01*
X216415843Y-85209091D01*
X216297803Y-85032433D01*
X216147567Y-84882197D01*
X215970909Y-84764157D01*
X215774616Y-84682850D01*
X215566233Y-84641400D01*
X215353767Y-84641400D01*
X215145384Y-84682850D01*
X214949091Y-84764157D01*
X214772433Y-84882197D01*
X214622197Y-85032433D01*
X214504157Y-85209091D01*
X214422850Y-85405384D01*
X214381400Y-85613767D01*
X213352569Y-85613767D01*
X213344402Y-85608175D01*
X213340980Y-85606325D01*
X213209671Y-85536507D01*
X213186343Y-85526892D01*
X213163117Y-85516937D01*
X213159400Y-85515787D01*
X213017032Y-85472803D01*
X212992281Y-85467902D01*
X212967562Y-85462648D01*
X212963695Y-85462242D01*
X212963693Y-85462242D01*
X212815842Y-85447745D01*
X212802519Y-85446417D01*
X208584146Y-85441384D01*
X208543213Y-85445367D01*
X208519532Y-85452520D01*
X208415157Y-85463490D01*
X208390469Y-85468558D01*
X208365620Y-85473298D01*
X208361896Y-85474423D01*
X208219830Y-85518399D01*
X208196536Y-85528191D01*
X208173139Y-85537644D01*
X208169709Y-85539467D01*
X208169705Y-85539469D01*
X208169704Y-85539470D01*
X208038886Y-85610203D01*
X208017934Y-85624335D01*
X207996823Y-85638150D01*
X207993808Y-85640608D01*
X207879220Y-85735405D01*
X207861431Y-85753319D01*
X207843387Y-85770989D01*
X207840907Y-85773986D01*
X207746914Y-85889233D01*
X207732969Y-85910223D01*
X207718675Y-85931098D01*
X207716825Y-85934520D01*
X207647007Y-86065829D01*
X207637392Y-86089157D01*
X207627437Y-86112383D01*
X207626287Y-86116100D01*
X207583303Y-86258468D01*
X207578402Y-86283219D01*
X207573148Y-86307938D01*
X207572742Y-86311807D01*
X207560888Y-86432706D01*
X207560830Y-86432898D01*
X207556875Y-86473833D01*
X207557055Y-86570294D01*
X207000000Y-86570294D01*
X206955187Y-86574708D01*
X206912095Y-86587779D01*
X206872382Y-86609006D01*
X206837573Y-86637573D01*
X206809006Y-86672382D01*
X206787779Y-86712095D01*
X206774708Y-86755187D01*
X206770294Y-86800000D01*
X206770294Y-87244400D01*
X206746295Y-87244400D01*
X206349600Y-86847707D01*
X206349600Y-86433907D01*
X206394709Y-86403766D01*
X206482266Y-86316209D01*
X206512407Y-86271100D01*
X206929045Y-86271100D01*
X206946500Y-86272819D01*
X206963955Y-86271100D01*
X206963963Y-86271100D01*
X207016210Y-86265954D01*
X207083240Y-86245621D01*
X207145016Y-86212601D01*
X207199163Y-86168163D01*
X207210299Y-86154595D01*
X208011105Y-85353790D01*
X208024663Y-85342663D01*
X208035790Y-85329105D01*
X208035795Y-85329100D01*
X208054216Y-85306654D01*
X208055175Y-85306141D01*
X208105137Y-85265137D01*
X208146141Y-85215175D01*
X208176609Y-85158173D01*
X208195371Y-85096322D01*
X208201706Y-85032000D01*
X208201706Y-84772000D01*
X208195371Y-84707678D01*
X208176609Y-84645827D01*
X208161521Y-84617600D01*
X208193707Y-84617600D01*
X208717206Y-85141100D01*
X208728337Y-85154663D01*
X208782484Y-85199101D01*
X208844260Y-85232121D01*
X208911290Y-85252454D01*
X208963537Y-85257600D01*
X208963545Y-85257600D01*
X208981000Y-85259319D01*
X208998455Y-85257600D01*
X209337677Y-85257600D01*
X209343863Y-85265137D01*
X209393825Y-85306141D01*
X209450827Y-85336609D01*
X209512678Y-85355371D01*
X209577000Y-85361706D01*
X209777000Y-85361706D01*
X209841322Y-85355371D01*
X209903173Y-85336609D01*
X209960175Y-85306141D01*
X210010137Y-85265137D01*
X210016323Y-85257600D01*
X211242677Y-85257600D01*
X211248863Y-85265137D01*
X211298825Y-85306141D01*
X211355827Y-85336609D01*
X211417678Y-85355371D01*
X211482000Y-85361706D01*
X211682000Y-85361706D01*
X211746322Y-85355371D01*
X211808173Y-85336609D01*
X211865175Y-85306141D01*
X211915137Y-85265137D01*
X211956141Y-85215175D01*
X211986609Y-85158173D01*
X212005371Y-85096322D01*
X212011706Y-85032000D01*
X212011706Y-84772000D01*
X212005371Y-84707678D01*
X211986609Y-84645827D01*
X211956141Y-84588825D01*
X211950540Y-84582000D01*
X211956141Y-84575175D01*
X211986609Y-84518173D01*
X212005371Y-84456322D01*
X212011706Y-84392000D01*
X212011706Y-84132000D01*
X212005371Y-84067678D01*
X211986609Y-84005827D01*
X211956141Y-83948825D01*
X211954123Y-83946367D01*
X211982709Y-83927266D01*
X212070266Y-83839709D01*
X212139059Y-83736754D01*
X212186444Y-83622356D01*
X212210600Y-83500912D01*
X212210600Y-83377088D01*
X212186444Y-83255644D01*
X212139059Y-83141246D01*
X212093971Y-83073767D01*
X214381400Y-83073767D01*
X214381400Y-83286233D01*
X214422850Y-83494616D01*
X214504157Y-83690909D01*
X214622197Y-83867567D01*
X214772433Y-84017803D01*
X214949091Y-84135843D01*
X215145384Y-84217150D01*
X215353767Y-84258600D01*
X215566233Y-84258600D01*
X215774616Y-84217150D01*
X215970909Y-84135843D01*
X216147567Y-84017803D01*
X216297803Y-83867567D01*
X216415843Y-83690909D01*
X216497150Y-83494616D01*
X216538600Y-83286233D01*
X216538600Y-83073767D01*
X216497150Y-82865384D01*
X216415843Y-82669091D01*
X216297803Y-82492433D01*
X216147567Y-82342197D01*
X215970909Y-82224157D01*
X215774616Y-82142850D01*
X215566233Y-82101400D01*
X215353767Y-82101400D01*
X215145384Y-82142850D01*
X214949091Y-82224157D01*
X214772433Y-82342197D01*
X214622197Y-82492433D01*
X214504157Y-82669091D01*
X214422850Y-82865384D01*
X214381400Y-83073767D01*
X212093971Y-83073767D01*
X212070266Y-83038291D01*
X211982709Y-82950734D01*
X211879754Y-82881941D01*
X211765356Y-82834556D01*
X211643912Y-82810400D01*
X211520088Y-82810400D01*
X211398644Y-82834556D01*
X211284246Y-82881941D01*
X211181291Y-82950734D01*
X211093734Y-83038291D01*
X211024941Y-83141246D01*
X210977556Y-83255644D01*
X210953400Y-83377088D01*
X210953400Y-83500912D01*
X210977556Y-83622356D01*
X211024941Y-83736754D01*
X211093734Y-83839709D01*
X211181291Y-83927266D01*
X211209877Y-83946367D01*
X211207859Y-83948825D01*
X211177391Y-84005827D01*
X211158629Y-84067678D01*
X211152294Y-84132000D01*
X211152294Y-84392000D01*
X211158629Y-84456322D01*
X211177391Y-84518173D01*
X211192479Y-84546400D01*
X210066521Y-84546400D01*
X210081609Y-84518173D01*
X210100371Y-84456322D01*
X210106706Y-84392000D01*
X210106706Y-84132000D01*
X210100371Y-84067678D01*
X210081609Y-84005827D01*
X210066979Y-83978456D01*
X210098012Y-83957720D01*
X210185569Y-83870163D01*
X210254362Y-83767208D01*
X210301747Y-83652810D01*
X210325903Y-83531366D01*
X210325903Y-83407542D01*
X210301747Y-83286098D01*
X210254362Y-83171700D01*
X210185569Y-83068745D01*
X210098012Y-82981188D01*
X209995057Y-82912395D01*
X209880659Y-82865010D01*
X209759215Y-82840854D01*
X209635391Y-82840854D01*
X209513947Y-82865010D01*
X209399549Y-82912395D01*
X209296594Y-82981188D01*
X209288288Y-82989494D01*
X209279016Y-82942878D01*
X209598105Y-82623790D01*
X209609093Y-82614772D01*
X209642831Y-82611449D01*
X209723441Y-82586997D01*
X209797732Y-82547287D01*
X209862848Y-82493848D01*
X209916287Y-82428732D01*
X209955997Y-82354441D01*
X209980449Y-82273831D01*
X209988706Y-82190000D01*
X209988706Y-81713599D01*
X210254294Y-81979188D01*
X210254294Y-82165000D01*
X210263031Y-82253709D01*
X210288906Y-82339008D01*
X210330926Y-82417621D01*
X210387474Y-82486526D01*
X210456379Y-82543074D01*
X210534992Y-82585094D01*
X210620291Y-82610969D01*
X210709000Y-82619706D01*
X211159000Y-82619706D01*
X211247709Y-82610969D01*
X211333008Y-82585094D01*
X211411621Y-82543074D01*
X211480526Y-82486526D01*
X211537074Y-82417621D01*
X211579094Y-82339008D01*
X211604969Y-82253709D01*
X211613706Y-82165000D01*
X211613706Y-81665000D01*
X211604969Y-81576291D01*
X211579094Y-81490992D01*
X211537074Y-81412379D01*
X211480526Y-81343474D01*
X211411621Y-81286926D01*
X211333008Y-81244906D01*
X211247709Y-81219031D01*
X211159000Y-81210294D01*
X210709000Y-81210294D01*
X210620291Y-81219031D01*
X210534992Y-81244906D01*
X210529002Y-81248108D01*
X210159600Y-80878707D01*
X210159600Y-80629706D01*
X210600000Y-80629706D01*
X210644813Y-80625292D01*
X210687905Y-80612221D01*
X210727618Y-80590994D01*
X210762427Y-80562427D01*
X210790994Y-80527618D01*
X210795400Y-80519374D01*
X210795400Y-80885564D01*
X210794053Y-80899489D01*
X210799527Y-80954094D01*
X210815550Y-81006582D01*
X210841505Y-81054937D01*
X210876394Y-81097298D01*
X210918876Y-81132039D01*
X210967322Y-81157824D01*
X211019865Y-81173663D01*
X211060800Y-81177623D01*
X213922550Y-81172623D01*
X213936000Y-81173948D01*
X213949936Y-81172575D01*
X213950173Y-81172575D01*
X213963235Y-81171266D01*
X213990615Y-81168569D01*
X213990851Y-81168497D01*
X213991094Y-81168473D01*
X214016847Y-81160611D01*
X214043131Y-81152638D01*
X214043351Y-81152521D01*
X214043582Y-81152450D01*
X214067110Y-81139821D01*
X214091531Y-81126768D01*
X214091725Y-81126609D01*
X214091937Y-81126495D01*
X214112491Y-81109566D01*
X214133953Y-81091953D01*
X214134112Y-81091759D01*
X214134298Y-81091606D01*
X214151137Y-81071014D01*
X214168768Y-81049531D01*
X214168887Y-81049309D01*
X214169038Y-81049124D01*
X214181495Y-81025720D01*
X214194638Y-81001131D01*
X214194711Y-81000890D01*
X214194824Y-81000678D01*
X214202504Y-80975201D01*
X214210569Y-80948615D01*
X214210594Y-80948365D01*
X214210663Y-80948135D01*
X214213237Y-80921526D01*
X214214600Y-80907687D01*
X214214600Y-80907436D01*
X214215947Y-80893511D01*
X214214600Y-80880077D01*
X214214600Y-80533767D01*
X214381400Y-80533767D01*
X214381400Y-80746233D01*
X214422850Y-80954616D01*
X214504157Y-81150909D01*
X214622197Y-81327567D01*
X214772433Y-81477803D01*
X214949091Y-81595843D01*
X215145384Y-81677150D01*
X215353767Y-81718600D01*
X215566233Y-81718600D01*
X215774616Y-81677150D01*
X215970909Y-81595843D01*
X216147567Y-81477803D01*
X216297803Y-81327567D01*
X216415843Y-81150909D01*
X216497150Y-80954616D01*
X216538600Y-80746233D01*
X216538600Y-80533767D01*
X216497150Y-80325384D01*
X216415843Y-80129091D01*
X216297803Y-79952433D01*
X216147567Y-79802197D01*
X215970909Y-79684157D01*
X215774616Y-79602850D01*
X215566233Y-79561400D01*
X215353767Y-79561400D01*
X215145384Y-79602850D01*
X214949091Y-79684157D01*
X214772433Y-79802197D01*
X214622197Y-79952433D01*
X214504157Y-80129091D01*
X214422850Y-80325384D01*
X214381400Y-80533767D01*
X214214600Y-80533767D01*
X214214600Y-77478687D01*
X214215948Y-77465000D01*
X214212325Y-77428219D01*
X214465800Y-77681694D01*
X214422850Y-77785384D01*
X214381400Y-77993767D01*
X214381400Y-78206233D01*
X214422850Y-78414616D01*
X214504157Y-78610909D01*
X214622197Y-78787567D01*
X214772433Y-78937803D01*
X214949091Y-79055843D01*
X215145384Y-79137150D01*
X215353767Y-79178600D01*
X215566233Y-79178600D01*
X215774616Y-79137150D01*
X215970909Y-79055843D01*
X216147567Y-78937803D01*
X216297803Y-78787567D01*
X216415843Y-78610909D01*
X216497150Y-78414616D01*
X216538600Y-78206233D01*
X216538600Y-77993767D01*
X216497150Y-77785384D01*
X216415843Y-77589091D01*
X216297803Y-77412433D01*
X216147567Y-77262197D01*
X215970909Y-77144157D01*
X215774616Y-77062850D01*
X215566233Y-77021400D01*
X215353767Y-77021400D01*
X215145384Y-77062850D01*
X214949091Y-77144157D01*
X214940075Y-77150181D01*
X214512799Y-76722906D01*
X214501663Y-76709337D01*
X214447516Y-76664899D01*
X214385740Y-76631879D01*
X214318710Y-76611546D01*
X214266463Y-76606400D01*
X214266455Y-76606400D01*
X214249000Y-76604681D01*
X214231545Y-76606400D01*
X211248673Y-76606400D01*
X211307953Y-76574714D01*
X211365493Y-76527493D01*
X211412714Y-76469953D01*
X211447803Y-76404307D01*
X211469410Y-76333077D01*
X211476706Y-76259000D01*
X211476706Y-75453767D01*
X214381400Y-75453767D01*
X214381400Y-75666233D01*
X214422850Y-75874616D01*
X214504157Y-76070909D01*
X214622197Y-76247567D01*
X214772433Y-76397803D01*
X214949091Y-76515843D01*
X215145384Y-76597150D01*
X215353767Y-76638600D01*
X215566233Y-76638600D01*
X215774616Y-76597150D01*
X215970909Y-76515843D01*
X216147567Y-76397803D01*
X216297803Y-76247567D01*
X216415843Y-76070909D01*
X216497150Y-75874616D01*
X216538600Y-75666233D01*
X216538600Y-75453767D01*
X216497150Y-75245384D01*
X216415843Y-75049091D01*
X216297803Y-74872433D01*
X216147567Y-74722197D01*
X215970909Y-74604157D01*
X215774616Y-74522850D01*
X215566233Y-74481400D01*
X215353767Y-74481400D01*
X215145384Y-74522850D01*
X214949091Y-74604157D01*
X214772433Y-74722197D01*
X214622197Y-74872433D01*
X214504157Y-75049091D01*
X214422850Y-75245384D01*
X214381400Y-75453767D01*
X211476706Y-75453767D01*
X211476706Y-74959000D01*
X211469410Y-74884923D01*
X211447803Y-74813693D01*
X211412714Y-74748047D01*
X211365493Y-74690507D01*
X211334513Y-74665083D01*
X211347709Y-74656266D01*
X211435266Y-74568709D01*
X211504059Y-74465754D01*
X211551444Y-74351356D01*
X211575600Y-74229912D01*
X211575600Y-74106088D01*
X211551444Y-73984644D01*
X211504059Y-73870246D01*
X211435266Y-73767291D01*
X211347709Y-73679734D01*
X211244754Y-73610941D01*
X211130356Y-73563556D01*
X211008912Y-73539400D01*
X210885088Y-73539400D01*
X210763644Y-73563556D01*
X210649246Y-73610941D01*
X210546291Y-73679734D01*
X210458734Y-73767291D01*
X210389941Y-73870246D01*
X210342556Y-73984644D01*
X210318400Y-74106088D01*
X210318400Y-74229912D01*
X210342556Y-74351356D01*
X210389941Y-74465754D01*
X210458734Y-74568709D01*
X210546291Y-74656266D01*
X210559487Y-74665083D01*
X210528507Y-74690507D01*
X210481286Y-74748047D01*
X210446197Y-74813693D01*
X210424590Y-74884923D01*
X210417294Y-74959000D01*
X210417294Y-76259000D01*
X210424590Y-76333077D01*
X210446197Y-76404307D01*
X210481286Y-76469953D01*
X210528507Y-76527493D01*
X210586047Y-76574714D01*
X210645327Y-76606400D01*
X210377295Y-76606400D01*
X210176897Y-76406003D01*
X210177803Y-76404307D01*
X210199410Y-76333077D01*
X210206706Y-76259000D01*
X210206706Y-74959000D01*
X210199410Y-74884923D01*
X210177803Y-74813693D01*
X210142714Y-74748047D01*
X210095493Y-74690507D01*
X210037953Y-74643286D01*
X209972307Y-74608197D01*
X209901077Y-74586590D01*
X209827000Y-74579294D01*
X209527000Y-74579294D01*
X209452923Y-74586590D01*
X209381693Y-74608197D01*
X209316047Y-74643286D01*
X209258507Y-74690507D01*
X209211286Y-74748047D01*
X209176197Y-74813693D01*
X209154590Y-74884923D01*
X209147294Y-74959000D01*
X209147294Y-76259000D01*
X209154590Y-76333077D01*
X209176197Y-76404307D01*
X209211286Y-76469953D01*
X209258507Y-76527493D01*
X209316047Y-76574714D01*
X209381693Y-76609803D01*
X209381805Y-76609837D01*
X209424338Y-76661663D01*
X209437901Y-76672794D01*
X209951505Y-77186400D01*
X208682859Y-77186400D01*
X208704100Y-77160517D01*
X208704102Y-77160515D01*
X208737121Y-77098740D01*
X208757454Y-77031710D01*
X208762600Y-76979463D01*
X208762600Y-76979456D01*
X208764319Y-76962001D01*
X208762600Y-76944545D01*
X208762600Y-76577575D01*
X208767953Y-76574714D01*
X208825493Y-76527493D01*
X208872714Y-76469953D01*
X208907803Y-76404307D01*
X208929410Y-76333077D01*
X208936706Y-76259000D01*
X208936706Y-74959000D01*
X208929410Y-74884923D01*
X208907803Y-74813693D01*
X208872714Y-74748047D01*
X208825493Y-74690507D01*
X208767953Y-74643286D01*
X208762600Y-74640425D01*
X208762600Y-72280452D01*
X208764319Y-72262999D01*
X208762600Y-72245546D01*
X208762600Y-72245537D01*
X208757454Y-72193290D01*
X208737121Y-72126260D01*
X208704101Y-72064484D01*
X208698844Y-72058078D01*
X208670795Y-72023900D01*
X208670790Y-72023895D01*
X208659663Y-72010337D01*
X208646105Y-71999210D01*
X206476600Y-69829707D01*
X206476600Y-67711293D01*
X206776295Y-67411600D01*
X206835327Y-67411600D01*
X206776047Y-67443286D01*
G04 #@! TA.AperFunction,Conductor*
D19*
G36*
X206776047Y-67443286D02*
G01*
X206718507Y-67490507D01*
X206671286Y-67548047D01*
X206636197Y-67613693D01*
X206614590Y-67684923D01*
X206607294Y-67759000D01*
X206607294Y-69059000D01*
X206614590Y-69133077D01*
X206636197Y-69204307D01*
X206671286Y-69269953D01*
X206718507Y-69327493D01*
X206776047Y-69374714D01*
X206781401Y-69377576D01*
X206781401Y-69578535D01*
X206779681Y-69596000D01*
X206786546Y-69665710D01*
X206806880Y-69732741D01*
X206811008Y-69740463D01*
X206839900Y-69794516D01*
X206884338Y-69848663D01*
X206897901Y-69859794D01*
X209032210Y-71994105D01*
X209043337Y-72007663D01*
X209056895Y-72018790D01*
X209056900Y-72018795D01*
X209091078Y-72046844D01*
X209097484Y-72052101D01*
X209159260Y-72085121D01*
X209197102Y-72096600D01*
X209226289Y-72105454D01*
X209233187Y-72106133D01*
X209278537Y-72110600D01*
X209278544Y-72110600D01*
X209295999Y-72112319D01*
X209313455Y-72110600D01*
X214879585Y-72110600D01*
X214772433Y-72182197D01*
X214622197Y-72332433D01*
X214504157Y-72509091D01*
X214422850Y-72705384D01*
X214381400Y-72913767D01*
X214381400Y-73126233D01*
X214422850Y-73334616D01*
X214504157Y-73530909D01*
X214622197Y-73707567D01*
X214772433Y-73857803D01*
X214949091Y-73975843D01*
X215145384Y-74057150D01*
X215353767Y-74098600D01*
X215566233Y-74098600D01*
X215774616Y-74057150D01*
X215970909Y-73975843D01*
X216147567Y-73857803D01*
X216297803Y-73707567D01*
X216415843Y-73530909D01*
X216497150Y-73334616D01*
X216538600Y-73126233D01*
X216538600Y-72913767D01*
X216497150Y-72705384D01*
X216415843Y-72509091D01*
X216297803Y-72332433D01*
X216147567Y-72182197D01*
X216040415Y-72110600D01*
X216641707Y-72110600D01*
X217042997Y-72511891D01*
X216962850Y-72705384D01*
X216921400Y-72913767D01*
X216921400Y-73126233D01*
X216962850Y-73334616D01*
X217044157Y-73530909D01*
X217162197Y-73707567D01*
X217312433Y-73857803D01*
X217489091Y-73975843D01*
X217685384Y-74057150D01*
X217893767Y-74098600D01*
X218106233Y-74098600D01*
X218314616Y-74057150D01*
X218510909Y-73975843D01*
X218687567Y-73857803D01*
X218837803Y-73707567D01*
X218955843Y-73530909D01*
X218986900Y-73455930D01*
X218986900Y-75124070D01*
X218955843Y-75049091D01*
X218837803Y-74872433D01*
X218687567Y-74722197D01*
X218510909Y-74604157D01*
X218314616Y-74522850D01*
X218106233Y-74481400D01*
X217893767Y-74481400D01*
X217685384Y-74522850D01*
X217489091Y-74604157D01*
X217312433Y-74722197D01*
X217162197Y-74872433D01*
X217044157Y-75049091D01*
X216962850Y-75245384D01*
X216921400Y-75453767D01*
X216921400Y-75666233D01*
X216962850Y-75874616D01*
X217044157Y-76070909D01*
X217162197Y-76247567D01*
X217312433Y-76397803D01*
X217489091Y-76515843D01*
X217685384Y-76597150D01*
X217893767Y-76638600D01*
X218106233Y-76638600D01*
X218314616Y-76597150D01*
X218510909Y-76515843D01*
X218687567Y-76397803D01*
X218837803Y-76247567D01*
X218955843Y-76070909D01*
X218986900Y-75995930D01*
X218986900Y-77664071D01*
X218955843Y-77589091D01*
X218837803Y-77412433D01*
X218687567Y-77262197D01*
X218510909Y-77144157D01*
X218314616Y-77062850D01*
X218106233Y-77021400D01*
X217893767Y-77021400D01*
X217685384Y-77062850D01*
X217489091Y-77144157D01*
X217312433Y-77262197D01*
X217162197Y-77412433D01*
X217044157Y-77589091D01*
X216962850Y-77785384D01*
X216921400Y-77993767D01*
X216921400Y-78206233D01*
X216962850Y-78414616D01*
X217044157Y-78610909D01*
X217162197Y-78787567D01*
X217312433Y-78937803D01*
X217489091Y-79055843D01*
X217685384Y-79137150D01*
X217893767Y-79178600D01*
X218106233Y-79178600D01*
X218314616Y-79137150D01*
X218510909Y-79055843D01*
X218687567Y-78937803D01*
X218837803Y-78787567D01*
X218955843Y-78610909D01*
X218986901Y-78535929D01*
X218986901Y-80204071D01*
X218955843Y-80129091D01*
X218837803Y-79952433D01*
X218687567Y-79802197D01*
X218510909Y-79684157D01*
X218314616Y-79602850D01*
X218106233Y-79561400D01*
X217893767Y-79561400D01*
X217685384Y-79602850D01*
X217489091Y-79684157D01*
X217312433Y-79802197D01*
X217162197Y-79952433D01*
X217044157Y-80129091D01*
X216962850Y-80325384D01*
X216921400Y-80533767D01*
X216921400Y-80746233D01*
X216962850Y-80954616D01*
X217044157Y-81150909D01*
X217162197Y-81327567D01*
X217312433Y-81477803D01*
X217489091Y-81595843D01*
X217685384Y-81677150D01*
X217893767Y-81718600D01*
X218106233Y-81718600D01*
X218314616Y-81677150D01*
X218510909Y-81595843D01*
X218687567Y-81477803D01*
X218837803Y-81327567D01*
X218955843Y-81150909D01*
X218986901Y-81075929D01*
X218986901Y-82744071D01*
X218955843Y-82669091D01*
X218837803Y-82492433D01*
X218687567Y-82342197D01*
X218510909Y-82224157D01*
X218314616Y-82142850D01*
X218106233Y-82101400D01*
X217893767Y-82101400D01*
X217685384Y-82142850D01*
X217489091Y-82224157D01*
X217312433Y-82342197D01*
X217162197Y-82492433D01*
X217044157Y-82669091D01*
X216962850Y-82865384D01*
X216921400Y-83073767D01*
X216921400Y-83286233D01*
X216962850Y-83494616D01*
X217044157Y-83690909D01*
X217162197Y-83867567D01*
X217312433Y-84017803D01*
X217489091Y-84135843D01*
X217685384Y-84217150D01*
X217893767Y-84258600D01*
X218106233Y-84258600D01*
X218314616Y-84217150D01*
X218510909Y-84135843D01*
X218687567Y-84017803D01*
X218837803Y-83867567D01*
X218955843Y-83690909D01*
X218986901Y-83615929D01*
X218986901Y-85284071D01*
X218955843Y-85209091D01*
X218837803Y-85032433D01*
X218687567Y-84882197D01*
X218510909Y-84764157D01*
X218314616Y-84682850D01*
X218106233Y-84641400D01*
X217893767Y-84641400D01*
X217685384Y-84682850D01*
X217489091Y-84764157D01*
X217312433Y-84882197D01*
X217162197Y-85032433D01*
X217044157Y-85209091D01*
X216962850Y-85405384D01*
X216921400Y-85613767D01*
X216921400Y-85826233D01*
X216962850Y-86034616D01*
X217044157Y-86230909D01*
X217162197Y-86407567D01*
X217312433Y-86557803D01*
X217489091Y-86675843D01*
X217685384Y-86757150D01*
X217893767Y-86798600D01*
X218106233Y-86798600D01*
X218314616Y-86757150D01*
X218510909Y-86675843D01*
X218687567Y-86557803D01*
X218837803Y-86407567D01*
X218955843Y-86230909D01*
X218986901Y-86155928D01*
X218986901Y-87824072D01*
X218955843Y-87749091D01*
X218837803Y-87572433D01*
X218687567Y-87422197D01*
X218510909Y-87304157D01*
X218314616Y-87222850D01*
X218106233Y-87181400D01*
X217893767Y-87181400D01*
X217685384Y-87222850D01*
X217489091Y-87304157D01*
X217312433Y-87422197D01*
X217162197Y-87572433D01*
X217044157Y-87749091D01*
X216962850Y-87945384D01*
X216921400Y-88153767D01*
X216921400Y-88366233D01*
X216962850Y-88574616D01*
X217044157Y-88770909D01*
X217162197Y-88947567D01*
X217312433Y-89097803D01*
X217489091Y-89215843D01*
X217584358Y-89255304D01*
X214299146Y-89251384D01*
X214287009Y-89252565D01*
X214218867Y-89245884D01*
X214128802Y-89218691D01*
X214045731Y-89174522D01*
X213972822Y-89115059D01*
X213912851Y-89042567D01*
X213868103Y-88959808D01*
X213840283Y-88869933D01*
X213829118Y-88763710D01*
X213833626Y-86473862D01*
X213829675Y-86432927D01*
X213823249Y-86411593D01*
X213812010Y-86304657D01*
X213806942Y-86279969D01*
X213802202Y-86255120D01*
X213801077Y-86251396D01*
X213757101Y-86109330D01*
X213747309Y-86086036D01*
X213737856Y-86062639D01*
X213736030Y-86059204D01*
X213736030Y-86059203D01*
X213736029Y-86059202D01*
X213665297Y-85928386D01*
X213651165Y-85907434D01*
X213637350Y-85886323D01*
X213634892Y-85883308D01*
X213540095Y-85768720D01*
X213522181Y-85750931D01*
X213504511Y-85732887D01*
X213501514Y-85730407D01*
X213386267Y-85636414D01*
X213365277Y-85622469D01*
X213352569Y-85613767D01*
X214381400Y-85613767D01*
X214381400Y-85826233D01*
X214422850Y-86034616D01*
X214504157Y-86230909D01*
X214622197Y-86407567D01*
X214772433Y-86557803D01*
X214949091Y-86675843D01*
X215145384Y-86757150D01*
X215353767Y-86798600D01*
X215566233Y-86798600D01*
X215774616Y-86757150D01*
X215970909Y-86675843D01*
X216147567Y-86557803D01*
X216297803Y-86407567D01*
X216415843Y-86230909D01*
X216497150Y-86034616D01*
X216538600Y-85826233D01*
X216538600Y-85613767D01*
X216497150Y-85405384D01*
X216415843Y-85209091D01*
X216297803Y-85032433D01*
X216147567Y-84882197D01*
X215970909Y-84764157D01*
X215774616Y-84682850D01*
X215566233Y-84641400D01*
X215353767Y-84641400D01*
X215145384Y-84682850D01*
X214949091Y-84764157D01*
X214772433Y-84882197D01*
X214622197Y-85032433D01*
X214504157Y-85209091D01*
X214422850Y-85405384D01*
X214381400Y-85613767D01*
X213352569Y-85613767D01*
X213344402Y-85608175D01*
X213340980Y-85606325D01*
X213209671Y-85536507D01*
X213186343Y-85526892D01*
X213163117Y-85516937D01*
X213159400Y-85515787D01*
X213017032Y-85472803D01*
X212992281Y-85467902D01*
X212967562Y-85462648D01*
X212963695Y-85462242D01*
X212963693Y-85462242D01*
X212815842Y-85447745D01*
X212802519Y-85446417D01*
X208584146Y-85441384D01*
X208543213Y-85445367D01*
X208519532Y-85452520D01*
X208415157Y-85463490D01*
X208390469Y-85468558D01*
X208365620Y-85473298D01*
X208361896Y-85474423D01*
X208219830Y-85518399D01*
X208196536Y-85528191D01*
X208173139Y-85537644D01*
X208169709Y-85539467D01*
X208169705Y-85539469D01*
X208169704Y-85539470D01*
X208038886Y-85610203D01*
X208017934Y-85624335D01*
X207996823Y-85638150D01*
X207993808Y-85640608D01*
X207879220Y-85735405D01*
X207861431Y-85753319D01*
X207843387Y-85770989D01*
X207840907Y-85773986D01*
X207746914Y-85889233D01*
X207732969Y-85910223D01*
X207718675Y-85931098D01*
X207716825Y-85934520D01*
X207647007Y-86065829D01*
X207637392Y-86089157D01*
X207627437Y-86112383D01*
X207626287Y-86116100D01*
X207583303Y-86258468D01*
X207578402Y-86283219D01*
X207573148Y-86307938D01*
X207572742Y-86311807D01*
X207560888Y-86432706D01*
X207560830Y-86432898D01*
X207556875Y-86473833D01*
X207557055Y-86570294D01*
X207000000Y-86570294D01*
X206955187Y-86574708D01*
X206912095Y-86587779D01*
X206872382Y-86609006D01*
X206837573Y-86637573D01*
X206809006Y-86672382D01*
X206787779Y-86712095D01*
X206774708Y-86755187D01*
X206770294Y-86800000D01*
X206770294Y-87244400D01*
X206746295Y-87244400D01*
X206349600Y-86847707D01*
X206349600Y-86433907D01*
X206394709Y-86403766D01*
X206482266Y-86316209D01*
X206512407Y-86271100D01*
X206929045Y-86271100D01*
X206946500Y-86272819D01*
X206963955Y-86271100D01*
X206963963Y-86271100D01*
X207016210Y-86265954D01*
X207083240Y-86245621D01*
X207145016Y-86212601D01*
X207199163Y-86168163D01*
X207210299Y-86154595D01*
X208011105Y-85353790D01*
X208024663Y-85342663D01*
X208035790Y-85329105D01*
X208035795Y-85329100D01*
X208054216Y-85306654D01*
X208055175Y-85306141D01*
X208105137Y-85265137D01*
X208146141Y-85215175D01*
X208176609Y-85158173D01*
X208195371Y-85096322D01*
X208201706Y-85032000D01*
X208201706Y-84772000D01*
X208195371Y-84707678D01*
X208176609Y-84645827D01*
X208161521Y-84617600D01*
X208193707Y-84617600D01*
X208717206Y-85141100D01*
X208728337Y-85154663D01*
X208782484Y-85199101D01*
X208844260Y-85232121D01*
X208911290Y-85252454D01*
X208963537Y-85257600D01*
X208963545Y-85257600D01*
X208981000Y-85259319D01*
X208998455Y-85257600D01*
X209337677Y-85257600D01*
X209343863Y-85265137D01*
X209393825Y-85306141D01*
X209450827Y-85336609D01*
X209512678Y-85355371D01*
X209577000Y-85361706D01*
X209777000Y-85361706D01*
X209841322Y-85355371D01*
X209903173Y-85336609D01*
X209960175Y-85306141D01*
X210010137Y-85265137D01*
X210016323Y-85257600D01*
X211242677Y-85257600D01*
X211248863Y-85265137D01*
X211298825Y-85306141D01*
X211355827Y-85336609D01*
X211417678Y-85355371D01*
X211482000Y-85361706D01*
X211682000Y-85361706D01*
X211746322Y-85355371D01*
X211808173Y-85336609D01*
X211865175Y-85306141D01*
X211915137Y-85265137D01*
X211956141Y-85215175D01*
X211986609Y-85158173D01*
X212005371Y-85096322D01*
X212011706Y-85032000D01*
X212011706Y-84772000D01*
X212005371Y-84707678D01*
X211986609Y-84645827D01*
X211956141Y-84588825D01*
X211950540Y-84582000D01*
X211956141Y-84575175D01*
X211986609Y-84518173D01*
X212005371Y-84456322D01*
X212011706Y-84392000D01*
X212011706Y-84132000D01*
X212005371Y-84067678D01*
X211986609Y-84005827D01*
X211956141Y-83948825D01*
X211954123Y-83946367D01*
X211982709Y-83927266D01*
X212070266Y-83839709D01*
X212139059Y-83736754D01*
X212186444Y-83622356D01*
X212210600Y-83500912D01*
X212210600Y-83377088D01*
X212186444Y-83255644D01*
X212139059Y-83141246D01*
X212093971Y-83073767D01*
X214381400Y-83073767D01*
X214381400Y-83286233D01*
X214422850Y-83494616D01*
X214504157Y-83690909D01*
X214622197Y-83867567D01*
X214772433Y-84017803D01*
X214949091Y-84135843D01*
X215145384Y-84217150D01*
X215353767Y-84258600D01*
X215566233Y-84258600D01*
X215774616Y-84217150D01*
X215970909Y-84135843D01*
X216147567Y-84017803D01*
X216297803Y-83867567D01*
X216415843Y-83690909D01*
X216497150Y-83494616D01*
X216538600Y-83286233D01*
X216538600Y-83073767D01*
X216497150Y-82865384D01*
X216415843Y-82669091D01*
X216297803Y-82492433D01*
X216147567Y-82342197D01*
X215970909Y-82224157D01*
X215774616Y-82142850D01*
X215566233Y-82101400D01*
X215353767Y-82101400D01*
X215145384Y-82142850D01*
X214949091Y-82224157D01*
X214772433Y-82342197D01*
X214622197Y-82492433D01*
X214504157Y-82669091D01*
X214422850Y-82865384D01*
X214381400Y-83073767D01*
X212093971Y-83073767D01*
X212070266Y-83038291D01*
X211982709Y-82950734D01*
X211879754Y-82881941D01*
X211765356Y-82834556D01*
X211643912Y-82810400D01*
X211520088Y-82810400D01*
X211398644Y-82834556D01*
X211284246Y-82881941D01*
X211181291Y-82950734D01*
X211093734Y-83038291D01*
X211024941Y-83141246D01*
X210977556Y-83255644D01*
X210953400Y-83377088D01*
X210953400Y-83500912D01*
X210977556Y-83622356D01*
X211024941Y-83736754D01*
X211093734Y-83839709D01*
X211181291Y-83927266D01*
X211209877Y-83946367D01*
X211207859Y-83948825D01*
X211177391Y-84005827D01*
X211158629Y-84067678D01*
X211152294Y-84132000D01*
X211152294Y-84392000D01*
X211158629Y-84456322D01*
X211177391Y-84518173D01*
X211192479Y-84546400D01*
X210066521Y-84546400D01*
X210081609Y-84518173D01*
X210100371Y-84456322D01*
X210106706Y-84392000D01*
X210106706Y-84132000D01*
X210100371Y-84067678D01*
X210081609Y-84005827D01*
X210066979Y-83978456D01*
X210098012Y-83957720D01*
X210185569Y-83870163D01*
X210254362Y-83767208D01*
X210301747Y-83652810D01*
X210325903Y-83531366D01*
X210325903Y-83407542D01*
X210301747Y-83286098D01*
X210254362Y-83171700D01*
X210185569Y-83068745D01*
X210098012Y-82981188D01*
X209995057Y-82912395D01*
X209880659Y-82865010D01*
X209759215Y-82840854D01*
X209635391Y-82840854D01*
X209513947Y-82865010D01*
X209399549Y-82912395D01*
X209296594Y-82981188D01*
X209288288Y-82989494D01*
X209279016Y-82942878D01*
X209598105Y-82623790D01*
X209609093Y-82614772D01*
X209642831Y-82611449D01*
X209723441Y-82586997D01*
X209797732Y-82547287D01*
X209862848Y-82493848D01*
X209916287Y-82428732D01*
X209955997Y-82354441D01*
X209980449Y-82273831D01*
X209988706Y-82190000D01*
X209988706Y-81713599D01*
X210254294Y-81979188D01*
X210254294Y-82165000D01*
X210263031Y-82253709D01*
X210288906Y-82339008D01*
X210330926Y-82417621D01*
X210387474Y-82486526D01*
X210456379Y-82543074D01*
X210534992Y-82585094D01*
X210620291Y-82610969D01*
X210709000Y-82619706D01*
X211159000Y-82619706D01*
X211247709Y-82610969D01*
X211333008Y-82585094D01*
X211411621Y-82543074D01*
X211480526Y-82486526D01*
X211537074Y-82417621D01*
X211579094Y-82339008D01*
X211604969Y-82253709D01*
X211613706Y-82165000D01*
X211613706Y-81665000D01*
X211604969Y-81576291D01*
X211579094Y-81490992D01*
X211537074Y-81412379D01*
X211480526Y-81343474D01*
X211411621Y-81286926D01*
X211333008Y-81244906D01*
X211247709Y-81219031D01*
X211159000Y-81210294D01*
X210709000Y-81210294D01*
X210620291Y-81219031D01*
X210534992Y-81244906D01*
X210529002Y-81248108D01*
X210159600Y-80878707D01*
X210159600Y-80629706D01*
X210600000Y-80629706D01*
X210644813Y-80625292D01*
X210687905Y-80612221D01*
X210727618Y-80590994D01*
X210762427Y-80562427D01*
X210790994Y-80527618D01*
X210795400Y-80519374D01*
X210795400Y-80885564D01*
X210794053Y-80899489D01*
X210799527Y-80954094D01*
X210815550Y-81006582D01*
X210841505Y-81054937D01*
X210876394Y-81097298D01*
X210918876Y-81132039D01*
X210967322Y-81157824D01*
X211019865Y-81173663D01*
X211060800Y-81177623D01*
X213922550Y-81172623D01*
X213936000Y-81173948D01*
X213949936Y-81172575D01*
X213950173Y-81172575D01*
X213963235Y-81171266D01*
X213990615Y-81168569D01*
X213990851Y-81168497D01*
X213991094Y-81168473D01*
X214016847Y-81160611D01*
X214043131Y-81152638D01*
X214043351Y-81152521D01*
X214043582Y-81152450D01*
X214067110Y-81139821D01*
X214091531Y-81126768D01*
X214091725Y-81126609D01*
X214091937Y-81126495D01*
X214112491Y-81109566D01*
X214133953Y-81091953D01*
X214134112Y-81091759D01*
X214134298Y-81091606D01*
X214151137Y-81071014D01*
X214168768Y-81049531D01*
X214168887Y-81049309D01*
X214169038Y-81049124D01*
X214181495Y-81025720D01*
X214194638Y-81001131D01*
X214194711Y-81000890D01*
X214194824Y-81000678D01*
X214202504Y-80975201D01*
X214210569Y-80948615D01*
X214210594Y-80948365D01*
X214210663Y-80948135D01*
X214213237Y-80921526D01*
X214214600Y-80907687D01*
X214214600Y-80907436D01*
X214215947Y-80893511D01*
X214214600Y-80880077D01*
X214214600Y-80533767D01*
X214381400Y-80533767D01*
X214381400Y-80746233D01*
X214422850Y-80954616D01*
X214504157Y-81150909D01*
X214622197Y-81327567D01*
X214772433Y-81477803D01*
X214949091Y-81595843D01*
X215145384Y-81677150D01*
X215353767Y-81718600D01*
X215566233Y-81718600D01*
X215774616Y-81677150D01*
X215970909Y-81595843D01*
X216147567Y-81477803D01*
X216297803Y-81327567D01*
X216415843Y-81150909D01*
X216497150Y-80954616D01*
X216538600Y-80746233D01*
X216538600Y-80533767D01*
X216497150Y-80325384D01*
X216415843Y-80129091D01*
X216297803Y-79952433D01*
X216147567Y-79802197D01*
X215970909Y-79684157D01*
X215774616Y-79602850D01*
X215566233Y-79561400D01*
X215353767Y-79561400D01*
X215145384Y-79602850D01*
X214949091Y-79684157D01*
X214772433Y-79802197D01*
X214622197Y-79952433D01*
X214504157Y-80129091D01*
X214422850Y-80325384D01*
X214381400Y-80533767D01*
X214214600Y-80533767D01*
X214214600Y-77478687D01*
X214215948Y-77465000D01*
X214212325Y-77428219D01*
X214465800Y-77681694D01*
X214422850Y-77785384D01*
X214381400Y-77993767D01*
X214381400Y-78206233D01*
X214422850Y-78414616D01*
X214504157Y-78610909D01*
X214622197Y-78787567D01*
X214772433Y-78937803D01*
X214949091Y-79055843D01*
X215145384Y-79137150D01*
X215353767Y-79178600D01*
X215566233Y-79178600D01*
X215774616Y-79137150D01*
X215970909Y-79055843D01*
X216147567Y-78937803D01*
X216297803Y-78787567D01*
X216415843Y-78610909D01*
X216497150Y-78414616D01*
X216538600Y-78206233D01*
X216538600Y-77993767D01*
X216497150Y-77785384D01*
X216415843Y-77589091D01*
X216297803Y-77412433D01*
X216147567Y-77262197D01*
X215970909Y-77144157D01*
X215774616Y-77062850D01*
X215566233Y-77021400D01*
X215353767Y-77021400D01*
X215145384Y-77062850D01*
X214949091Y-77144157D01*
X214940075Y-77150181D01*
X214512799Y-76722906D01*
X214501663Y-76709337D01*
X214447516Y-76664899D01*
X214385740Y-76631879D01*
X214318710Y-76611546D01*
X214266463Y-76606400D01*
X214266455Y-76606400D01*
X214249000Y-76604681D01*
X214231545Y-76606400D01*
X211248673Y-76606400D01*
X211307953Y-76574714D01*
X211365493Y-76527493D01*
X211412714Y-76469953D01*
X211447803Y-76404307D01*
X211469410Y-76333077D01*
X211476706Y-76259000D01*
X211476706Y-75453767D01*
X214381400Y-75453767D01*
X214381400Y-75666233D01*
X214422850Y-75874616D01*
X214504157Y-76070909D01*
X214622197Y-76247567D01*
X214772433Y-76397803D01*
X214949091Y-76515843D01*
X215145384Y-76597150D01*
X215353767Y-76638600D01*
X215566233Y-76638600D01*
X215774616Y-76597150D01*
X215970909Y-76515843D01*
X216147567Y-76397803D01*
X216297803Y-76247567D01*
X216415843Y-76070909D01*
X216497150Y-75874616D01*
X216538600Y-75666233D01*
X216538600Y-75453767D01*
X216497150Y-75245384D01*
X216415843Y-75049091D01*
X216297803Y-74872433D01*
X216147567Y-74722197D01*
X215970909Y-74604157D01*
X215774616Y-74522850D01*
X215566233Y-74481400D01*
X215353767Y-74481400D01*
X215145384Y-74522850D01*
X214949091Y-74604157D01*
X214772433Y-74722197D01*
X214622197Y-74872433D01*
X214504157Y-75049091D01*
X214422850Y-75245384D01*
X214381400Y-75453767D01*
X211476706Y-75453767D01*
X211476706Y-74959000D01*
X211469410Y-74884923D01*
X211447803Y-74813693D01*
X211412714Y-74748047D01*
X211365493Y-74690507D01*
X211334513Y-74665083D01*
X211347709Y-74656266D01*
X211435266Y-74568709D01*
X211504059Y-74465754D01*
X211551444Y-74351356D01*
X211575600Y-74229912D01*
X211575600Y-74106088D01*
X211551444Y-73984644D01*
X211504059Y-73870246D01*
X211435266Y-73767291D01*
X211347709Y-73679734D01*
X211244754Y-73610941D01*
X211130356Y-73563556D01*
X211008912Y-73539400D01*
X210885088Y-73539400D01*
X210763644Y-73563556D01*
X210649246Y-73610941D01*
X210546291Y-73679734D01*
X210458734Y-73767291D01*
X210389941Y-73870246D01*
X210342556Y-73984644D01*
X210318400Y-74106088D01*
X210318400Y-74229912D01*
X210342556Y-74351356D01*
X210389941Y-74465754D01*
X210458734Y-74568709D01*
X210546291Y-74656266D01*
X210559487Y-74665083D01*
X210528507Y-74690507D01*
X210481286Y-74748047D01*
X210446197Y-74813693D01*
X210424590Y-74884923D01*
X210417294Y-74959000D01*
X210417294Y-76259000D01*
X210424590Y-76333077D01*
X210446197Y-76404307D01*
X210481286Y-76469953D01*
X210528507Y-76527493D01*
X210586047Y-76574714D01*
X210645327Y-76606400D01*
X210377295Y-76606400D01*
X210176897Y-76406003D01*
X210177803Y-76404307D01*
X210199410Y-76333077D01*
X210206706Y-76259000D01*
X210206706Y-74959000D01*
X210199410Y-74884923D01*
X210177803Y-74813693D01*
X210142714Y-74748047D01*
X210095493Y-74690507D01*
X210037953Y-74643286D01*
X209972307Y-74608197D01*
X209901077Y-74586590D01*
X209827000Y-74579294D01*
X209527000Y-74579294D01*
X209452923Y-74586590D01*
X209381693Y-74608197D01*
X209316047Y-74643286D01*
X209258507Y-74690507D01*
X209211286Y-74748047D01*
X209176197Y-74813693D01*
X209154590Y-74884923D01*
X209147294Y-74959000D01*
X209147294Y-76259000D01*
X209154590Y-76333077D01*
X209176197Y-76404307D01*
X209211286Y-76469953D01*
X209258507Y-76527493D01*
X209316047Y-76574714D01*
X209381693Y-76609803D01*
X209381805Y-76609837D01*
X209424338Y-76661663D01*
X209437901Y-76672794D01*
X209951505Y-77186400D01*
X208682859Y-77186400D01*
X208704100Y-77160517D01*
X208704102Y-77160515D01*
X208737121Y-77098740D01*
X208757454Y-77031710D01*
X208762600Y-76979463D01*
X208762600Y-76979456D01*
X208764319Y-76962001D01*
X208762600Y-76944545D01*
X208762600Y-76577575D01*
X208767953Y-76574714D01*
X208825493Y-76527493D01*
X208872714Y-76469953D01*
X208907803Y-76404307D01*
X208929410Y-76333077D01*
X208936706Y-76259000D01*
X208936706Y-74959000D01*
X208929410Y-74884923D01*
X208907803Y-74813693D01*
X208872714Y-74748047D01*
X208825493Y-74690507D01*
X208767953Y-74643286D01*
X208762600Y-74640425D01*
X208762600Y-72280452D01*
X208764319Y-72262999D01*
X208762600Y-72245546D01*
X208762600Y-72245537D01*
X208757454Y-72193290D01*
X208737121Y-72126260D01*
X208704101Y-72064484D01*
X208698844Y-72058078D01*
X208670795Y-72023900D01*
X208670790Y-72023895D01*
X208659663Y-72010337D01*
X208646105Y-71999210D01*
X206476600Y-69829707D01*
X206476600Y-67711293D01*
X206776295Y-67411600D01*
X206835327Y-67411600D01*
X206776047Y-67443286D01*
G37*
G04 #@! TD.AperFunction*
D18*
X205881901Y-67300206D02*
X205868338Y-67311337D01*
X205823900Y-67365484D01*
X205808914Y-67393521D01*
X205790880Y-67427259D01*
X205770546Y-67494290D01*
X205763681Y-67564000D01*
X205765401Y-67581465D01*
X205765400Y-69959544D01*
X205763681Y-69977000D01*
X205765400Y-69994455D01*
X205765400Y-69994462D01*
X205770546Y-70046709D01*
X205790879Y-70113739D01*
X205823899Y-70175515D01*
X205868337Y-70229662D01*
X205881902Y-70240795D01*
X208051401Y-72410296D01*
X208051400Y-74640425D01*
X208046047Y-74643286D01*
X207988507Y-74690507D01*
X207941286Y-74748047D01*
X207906197Y-74813693D01*
X207884590Y-74884923D01*
X207877294Y-74959000D01*
X207877294Y-76259000D01*
X207884590Y-76333077D01*
X207906197Y-76404307D01*
X207941286Y-76469953D01*
X207988507Y-76527493D01*
X208046047Y-76574714D01*
X208051401Y-76577576D01*
X208051401Y-76814704D01*
X207469901Y-77396206D01*
X207456337Y-77407338D01*
X207411899Y-77461485D01*
X207378879Y-77523261D01*
X207358546Y-77590291D01*
X207353400Y-77642538D01*
X207353400Y-77642545D01*
X207351681Y-77660000D01*
X207353400Y-77677456D01*
X207353401Y-79992527D01*
X207351680Y-80010000D01*
X207353400Y-80027463D01*
X207353400Y-80344462D01*
X207353401Y-80344472D01*
X207353400Y-81240321D01*
X207344559Y-81243003D01*
X207270268Y-81282713D01*
X207205152Y-81336152D01*
X207151713Y-81401268D01*
X207112003Y-81475559D01*
X207087551Y-81556169D01*
X207079294Y-81640000D01*
X207079294Y-82190000D01*
X207087551Y-82273831D01*
X207112003Y-82354441D01*
X207151713Y-82428732D01*
X207205152Y-82493848D01*
X207270268Y-82547287D01*
X207344559Y-82586997D01*
X207425169Y-82611449D01*
X207509000Y-82619706D01*
X207909000Y-82619706D01*
X207992831Y-82611449D01*
X208073441Y-82586997D01*
X208147732Y-82547287D01*
X208212848Y-82493848D01*
X208266287Y-82428732D01*
X208305997Y-82354441D01*
X208330449Y-82273831D01*
X208338706Y-82190000D01*
X208338706Y-81640000D01*
X208330449Y-81556169D01*
X208305997Y-81475559D01*
X208266287Y-81401268D01*
X208212848Y-81336152D01*
X208147732Y-81282713D01*
X208073441Y-81243003D01*
X208064600Y-81240321D01*
X208064600Y-80365600D01*
X208770294Y-80365600D01*
X208770294Y-80400000D01*
X208774708Y-80444813D01*
X208787779Y-80487905D01*
X208809006Y-80527618D01*
X208837573Y-80562427D01*
X208872382Y-80590994D01*
X208912095Y-80612221D01*
X208955187Y-80625292D01*
X209000000Y-80629706D01*
X209448400Y-80629706D01*
X209448400Y-81008544D01*
X209446681Y-81026000D01*
X209448400Y-81043455D01*
X209448400Y-81043462D01*
X209453546Y-81095709D01*
X209473879Y-81162739D01*
X209499298Y-81210294D01*
X209159000Y-81210294D01*
X209075169Y-81218551D01*
X208994559Y-81243003D01*
X208920268Y-81282713D01*
X208855152Y-81336152D01*
X208801713Y-81401268D01*
X208762003Y-81475559D01*
X208737551Y-81556169D01*
X208729294Y-81640000D01*
X208729294Y-82190000D01*
X208737551Y-82273831D01*
X208762003Y-82354441D01*
X208796718Y-82419388D01*
X208776122Y-82439984D01*
X208722912Y-82429400D01*
X208599088Y-82429400D01*
X208477644Y-82453556D01*
X208363246Y-82500941D01*
X208260291Y-82569734D01*
X208172734Y-82657291D01*
X208103941Y-82760246D01*
X208056556Y-82874644D01*
X208032400Y-82996088D01*
X208032400Y-83119912D01*
X208044181Y-83179141D01*
X208043900Y-83179484D01*
X208029909Y-83205659D01*
X208010880Y-83241259D01*
X207990546Y-83308290D01*
X207983681Y-83378000D01*
X207985401Y-83395465D01*
X207985400Y-83823517D01*
X207936322Y-83808629D01*
X207872000Y-83802294D01*
X207672000Y-83802294D01*
X207607678Y-83808629D01*
X207545827Y-83827391D01*
X207488825Y-83857859D01*
X207438863Y-83898863D01*
X207397859Y-83948825D01*
X207367391Y-84005827D01*
X207348629Y-84067678D01*
X207342294Y-84132000D01*
X207342294Y-84392000D01*
X207348629Y-84456322D01*
X207367391Y-84518173D01*
X207397859Y-84575175D01*
X207403460Y-84582000D01*
X207397859Y-84588825D01*
X207367391Y-84645827D01*
X207348629Y-84707678D01*
X207342294Y-84772000D01*
X207342294Y-85016811D01*
X207015600Y-85343506D01*
X207015600Y-76423733D01*
X205510600Y-76423733D01*
X205510600Y-67450621D01*
X205521116Y-67343368D01*
X205548310Y-67253299D01*
X205592478Y-67170231D01*
X205651941Y-67097321D01*
X205724432Y-67037351D01*
X205807192Y-66992603D01*
X205897066Y-66964783D01*
X206003464Y-66953600D01*
X206228506Y-66953600D01*
X205881901Y-67300206D01*
G04 #@! TA.AperFunction,Conductor*
D19*
G36*
X205881901Y-67300206D02*
G01*
X205868338Y-67311337D01*
X205823900Y-67365484D01*
X205808914Y-67393521D01*
X205790880Y-67427259D01*
X205770546Y-67494290D01*
X205763681Y-67564000D01*
X205765401Y-67581465D01*
X205765400Y-69959544D01*
X205763681Y-69977000D01*
X205765400Y-69994455D01*
X205765400Y-69994462D01*
X205770546Y-70046709D01*
X205790879Y-70113739D01*
X205823899Y-70175515D01*
X205868337Y-70229662D01*
X205881902Y-70240795D01*
X208051401Y-72410296D01*
X208051400Y-74640425D01*
X208046047Y-74643286D01*
X207988507Y-74690507D01*
X207941286Y-74748047D01*
X207906197Y-74813693D01*
X207884590Y-74884923D01*
X207877294Y-74959000D01*
X207877294Y-76259000D01*
X207884590Y-76333077D01*
X207906197Y-76404307D01*
X207941286Y-76469953D01*
X207988507Y-76527493D01*
X208046047Y-76574714D01*
X208051401Y-76577576D01*
X208051401Y-76814704D01*
X207469901Y-77396206D01*
X207456337Y-77407338D01*
X207411899Y-77461485D01*
X207378879Y-77523261D01*
X207358546Y-77590291D01*
X207353400Y-77642538D01*
X207353400Y-77642545D01*
X207351681Y-77660000D01*
X207353400Y-77677456D01*
X207353401Y-79992527D01*
X207351680Y-80010000D01*
X207353400Y-80027463D01*
X207353400Y-80344462D01*
X207353401Y-80344472D01*
X207353400Y-81240321D01*
X207344559Y-81243003D01*
X207270268Y-81282713D01*
X207205152Y-81336152D01*
X207151713Y-81401268D01*
X207112003Y-81475559D01*
X207087551Y-81556169D01*
X207079294Y-81640000D01*
X207079294Y-82190000D01*
X207087551Y-82273831D01*
X207112003Y-82354441D01*
X207151713Y-82428732D01*
X207205152Y-82493848D01*
X207270268Y-82547287D01*
X207344559Y-82586997D01*
X207425169Y-82611449D01*
X207509000Y-82619706D01*
X207909000Y-82619706D01*
X207992831Y-82611449D01*
X208073441Y-82586997D01*
X208147732Y-82547287D01*
X208212848Y-82493848D01*
X208266287Y-82428732D01*
X208305997Y-82354441D01*
X208330449Y-82273831D01*
X208338706Y-82190000D01*
X208338706Y-81640000D01*
X208330449Y-81556169D01*
X208305997Y-81475559D01*
X208266287Y-81401268D01*
X208212848Y-81336152D01*
X208147732Y-81282713D01*
X208073441Y-81243003D01*
X208064600Y-81240321D01*
X208064600Y-80365600D01*
X208770294Y-80365600D01*
X208770294Y-80400000D01*
X208774708Y-80444813D01*
X208787779Y-80487905D01*
X208809006Y-80527618D01*
X208837573Y-80562427D01*
X208872382Y-80590994D01*
X208912095Y-80612221D01*
X208955187Y-80625292D01*
X209000000Y-80629706D01*
X209448400Y-80629706D01*
X209448400Y-81008544D01*
X209446681Y-81026000D01*
X209448400Y-81043455D01*
X209448400Y-81043462D01*
X209453546Y-81095709D01*
X209473879Y-81162739D01*
X209499298Y-81210294D01*
X209159000Y-81210294D01*
X209075169Y-81218551D01*
X208994559Y-81243003D01*
X208920268Y-81282713D01*
X208855152Y-81336152D01*
X208801713Y-81401268D01*
X208762003Y-81475559D01*
X208737551Y-81556169D01*
X208729294Y-81640000D01*
X208729294Y-82190000D01*
X208737551Y-82273831D01*
X208762003Y-82354441D01*
X208796718Y-82419388D01*
X208776122Y-82439984D01*
X208722912Y-82429400D01*
X208599088Y-82429400D01*
X208477644Y-82453556D01*
X208363246Y-82500941D01*
X208260291Y-82569734D01*
X208172734Y-82657291D01*
X208103941Y-82760246D01*
X208056556Y-82874644D01*
X208032400Y-82996088D01*
X208032400Y-83119912D01*
X208044181Y-83179141D01*
X208043900Y-83179484D01*
X208029909Y-83205659D01*
X208010880Y-83241259D01*
X207990546Y-83308290D01*
X207983681Y-83378000D01*
X207985401Y-83395465D01*
X207985400Y-83823517D01*
X207936322Y-83808629D01*
X207872000Y-83802294D01*
X207672000Y-83802294D01*
X207607678Y-83808629D01*
X207545827Y-83827391D01*
X207488825Y-83857859D01*
X207438863Y-83898863D01*
X207397859Y-83948825D01*
X207367391Y-84005827D01*
X207348629Y-84067678D01*
X207342294Y-84132000D01*
X207342294Y-84392000D01*
X207348629Y-84456322D01*
X207367391Y-84518173D01*
X207397859Y-84575175D01*
X207403460Y-84582000D01*
X207397859Y-84588825D01*
X207367391Y-84645827D01*
X207348629Y-84707678D01*
X207342294Y-84772000D01*
X207342294Y-85016811D01*
X207015600Y-85343506D01*
X207015600Y-76423733D01*
X205510600Y-76423733D01*
X205510600Y-67450621D01*
X205521116Y-67343368D01*
X205548310Y-67253299D01*
X205592478Y-67170231D01*
X205651941Y-67097321D01*
X205724432Y-67037351D01*
X205807192Y-66992603D01*
X205897066Y-66964783D01*
X206003464Y-66953600D01*
X206228506Y-66953600D01*
X205881901Y-67300206D01*
G37*
G04 #@! TD.AperFunction*
D18*
X214949091Y-66984157D02*
X214772433Y-67102197D01*
X214622197Y-67252433D01*
X214504157Y-67429091D01*
X214422850Y-67625384D01*
X214381400Y-67833767D01*
X214381400Y-68046233D01*
X214422850Y-68254616D01*
X214504157Y-68450909D01*
X214622197Y-68627567D01*
X214731868Y-68737238D01*
X213085707Y-70383400D01*
X209570294Y-70383400D01*
X208762600Y-69575707D01*
X208762600Y-69377575D01*
X208767953Y-69374714D01*
X208825493Y-69327493D01*
X208872714Y-69269953D01*
X208907803Y-69204307D01*
X208929410Y-69133077D01*
X208936706Y-69059000D01*
X208936706Y-67759000D01*
X208929410Y-67684923D01*
X208907803Y-67613693D01*
X208872714Y-67548047D01*
X208825493Y-67490507D01*
X208767953Y-67443286D01*
X208708673Y-67411600D01*
X209321401Y-67411600D01*
X209321401Y-67440424D01*
X209316047Y-67443286D01*
X209258507Y-67490507D01*
X209211286Y-67548047D01*
X209176197Y-67613693D01*
X209154590Y-67684923D01*
X209147294Y-67759000D01*
X209147294Y-69059000D01*
X209154590Y-69133077D01*
X209176197Y-69204307D01*
X209211286Y-69269953D01*
X209258507Y-69327493D01*
X209316047Y-69374714D01*
X209381693Y-69409803D01*
X209452923Y-69431410D01*
X209527000Y-69438706D01*
X209827000Y-69438706D01*
X209901077Y-69431410D01*
X209972307Y-69409803D01*
X210037953Y-69374714D01*
X210095493Y-69327493D01*
X210142714Y-69269953D01*
X210177803Y-69204307D01*
X210199410Y-69133077D01*
X210206706Y-69059000D01*
X210206706Y-67759000D01*
X210199410Y-67684923D01*
X210177803Y-67613693D01*
X210142714Y-67548047D01*
X210095493Y-67490507D01*
X210037953Y-67443286D01*
X210032600Y-67440425D01*
X210032600Y-67411600D01*
X210591401Y-67411600D01*
X210591401Y-67440424D01*
X210586047Y-67443286D01*
X210528507Y-67490507D01*
X210481286Y-67548047D01*
X210446197Y-67613693D01*
X210424590Y-67684923D01*
X210417294Y-67759000D01*
X210417294Y-69059000D01*
X210424590Y-69133077D01*
X210446197Y-69204307D01*
X210481286Y-69269953D01*
X210528507Y-69327493D01*
X210586047Y-69374714D01*
X210651693Y-69409803D01*
X210722923Y-69431410D01*
X210797000Y-69438706D01*
X211097000Y-69438706D01*
X211171077Y-69431410D01*
X211242307Y-69409803D01*
X211307953Y-69374714D01*
X211365493Y-69327493D01*
X211412714Y-69269953D01*
X211447803Y-69204307D01*
X211469410Y-69133077D01*
X211476706Y-69059000D01*
X211476706Y-67759000D01*
X211469410Y-67684923D01*
X211447803Y-67613693D01*
X211412714Y-67548047D01*
X211365493Y-67490507D01*
X211307953Y-67443286D01*
X211302600Y-67440425D01*
X211302600Y-67411600D01*
X212196706Y-67411600D01*
X212234535Y-67449429D01*
X212222379Y-67455926D01*
X212153474Y-67512474D01*
X212096926Y-67581379D01*
X212054906Y-67659992D01*
X212029031Y-67745291D01*
X212020294Y-67834000D01*
X212020294Y-68284000D01*
X212029031Y-68372709D01*
X212054906Y-68458008D01*
X212096926Y-68536621D01*
X212153474Y-68605526D01*
X212222379Y-68662074D01*
X212300992Y-68704094D01*
X212386291Y-68729969D01*
X212475000Y-68738706D01*
X212975000Y-68738706D01*
X213063709Y-68729969D01*
X213149008Y-68704094D01*
X213227621Y-68662074D01*
X213296526Y-68605526D01*
X213353074Y-68536621D01*
X213395094Y-68458008D01*
X213420969Y-68372709D01*
X213429706Y-68284000D01*
X213429706Y-67834000D01*
X213420969Y-67745291D01*
X213395094Y-67659992D01*
X213353074Y-67581379D01*
X213296526Y-67512474D01*
X213227621Y-67455926D01*
X213149008Y-67413906D01*
X213077921Y-67392342D01*
X213075454Y-67367290D01*
X213055121Y-67300260D01*
X213022101Y-67238484D01*
X213015123Y-67229981D01*
X212988795Y-67197900D01*
X212988785Y-67197890D01*
X212977662Y-67184337D01*
X212964109Y-67173214D01*
X212744494Y-66953600D01*
X215022862Y-66953600D01*
X214949091Y-66984157D01*
G04 #@! TA.AperFunction,Conductor*
D19*
G36*
X214949091Y-66984157D02*
G01*
X214772433Y-67102197D01*
X214622197Y-67252433D01*
X214504157Y-67429091D01*
X214422850Y-67625384D01*
X214381400Y-67833767D01*
X214381400Y-68046233D01*
X214422850Y-68254616D01*
X214504157Y-68450909D01*
X214622197Y-68627567D01*
X214731868Y-68737238D01*
X213085707Y-70383400D01*
X209570294Y-70383400D01*
X208762600Y-69575707D01*
X208762600Y-69377575D01*
X208767953Y-69374714D01*
X208825493Y-69327493D01*
X208872714Y-69269953D01*
X208907803Y-69204307D01*
X208929410Y-69133077D01*
X208936706Y-69059000D01*
X208936706Y-67759000D01*
X208929410Y-67684923D01*
X208907803Y-67613693D01*
X208872714Y-67548047D01*
X208825493Y-67490507D01*
X208767953Y-67443286D01*
X208708673Y-67411600D01*
X209321401Y-67411600D01*
X209321401Y-67440424D01*
X209316047Y-67443286D01*
X209258507Y-67490507D01*
X209211286Y-67548047D01*
X209176197Y-67613693D01*
X209154590Y-67684923D01*
X209147294Y-67759000D01*
X209147294Y-69059000D01*
X209154590Y-69133077D01*
X209176197Y-69204307D01*
X209211286Y-69269953D01*
X209258507Y-69327493D01*
X209316047Y-69374714D01*
X209381693Y-69409803D01*
X209452923Y-69431410D01*
X209527000Y-69438706D01*
X209827000Y-69438706D01*
X209901077Y-69431410D01*
X209972307Y-69409803D01*
X210037953Y-69374714D01*
X210095493Y-69327493D01*
X210142714Y-69269953D01*
X210177803Y-69204307D01*
X210199410Y-69133077D01*
X210206706Y-69059000D01*
X210206706Y-67759000D01*
X210199410Y-67684923D01*
X210177803Y-67613693D01*
X210142714Y-67548047D01*
X210095493Y-67490507D01*
X210037953Y-67443286D01*
X210032600Y-67440425D01*
X210032600Y-67411600D01*
X210591401Y-67411600D01*
X210591401Y-67440424D01*
X210586047Y-67443286D01*
X210528507Y-67490507D01*
X210481286Y-67548047D01*
X210446197Y-67613693D01*
X210424590Y-67684923D01*
X210417294Y-67759000D01*
X210417294Y-69059000D01*
X210424590Y-69133077D01*
X210446197Y-69204307D01*
X210481286Y-69269953D01*
X210528507Y-69327493D01*
X210586047Y-69374714D01*
X210651693Y-69409803D01*
X210722923Y-69431410D01*
X210797000Y-69438706D01*
X211097000Y-69438706D01*
X211171077Y-69431410D01*
X211242307Y-69409803D01*
X211307953Y-69374714D01*
X211365493Y-69327493D01*
X211412714Y-69269953D01*
X211447803Y-69204307D01*
X211469410Y-69133077D01*
X211476706Y-69059000D01*
X211476706Y-67759000D01*
X211469410Y-67684923D01*
X211447803Y-67613693D01*
X211412714Y-67548047D01*
X211365493Y-67490507D01*
X211307953Y-67443286D01*
X211302600Y-67440425D01*
X211302600Y-67411600D01*
X212196706Y-67411600D01*
X212234535Y-67449429D01*
X212222379Y-67455926D01*
X212153474Y-67512474D01*
X212096926Y-67581379D01*
X212054906Y-67659992D01*
X212029031Y-67745291D01*
X212020294Y-67834000D01*
X212020294Y-68284000D01*
X212029031Y-68372709D01*
X212054906Y-68458008D01*
X212096926Y-68536621D01*
X212153474Y-68605526D01*
X212222379Y-68662074D01*
X212300992Y-68704094D01*
X212386291Y-68729969D01*
X212475000Y-68738706D01*
X212975000Y-68738706D01*
X213063709Y-68729969D01*
X213149008Y-68704094D01*
X213227621Y-68662074D01*
X213296526Y-68605526D01*
X213353074Y-68536621D01*
X213395094Y-68458008D01*
X213420969Y-68372709D01*
X213429706Y-68284000D01*
X213429706Y-67834000D01*
X213420969Y-67745291D01*
X213395094Y-67659992D01*
X213353074Y-67581379D01*
X213296526Y-67512474D01*
X213227621Y-67455926D01*
X213149008Y-67413906D01*
X213077921Y-67392342D01*
X213075454Y-67367290D01*
X213055121Y-67300260D01*
X213022101Y-67238484D01*
X213015123Y-67229981D01*
X212988795Y-67197900D01*
X212988785Y-67197890D01*
X212977662Y-67184337D01*
X212964109Y-67173214D01*
X212744494Y-66953600D01*
X215022862Y-66953600D01*
X214949091Y-66984157D01*
G37*
G04 #@! TD.AperFunction*
G04 #@! TD*
M02*
