  0
SECTION
  2
HEADER
  9
$ANGBASE
  50
0.0
  9
$ANGDIR
  70
1
  9
$MEASUREMENT
  70
0
  0
ENDSEC
  0
SECTION
  2
TABLES
  0
TABLE
  2
LTYPE
  70
4
  0
LTYPE
  5
40F
  2
CONTINUOUS
  70
0
  3
Solid line
  72
65
  73
0
  40
0.0
  0
LTYPE
  5
410
  2
DASHDOT
 70
0
  3
Dash Dot ____ _ ____ _
 72
65
 73
4
 40
2.0
 49
1.25
 49
-0.25
 49
0.25
 49
-0.25
  0
LTYPE
  5
411
  2
DASHED
 70
0
  3
Dashed __ __ __ __ __
 72
65
 73
2
 40
0.75
 49
0.5
 49
-0.25
  0
LTYPE
  5
43B
  2
DOTTED
 70
0
  3
Dotted .  .  .  .
 72
65
 73
2
 40
0.2
 49
0.0
 49
-0.2
  0
ENDTAB
  0
TABLE
  2
STYLE
  70
4
  0
STYLE
  2
KICAD
  70
0
  40
0
  41
1
  42
1
  50
0
  71
0
  3
isocp.shx
  0
STYLE
  2
KICADB
  70
0
  40
0
  41
1
  42
1
  50
0
  71
0
  3
isocp.shx
  0
STYLE
  2
KICADI
  70
0
  40
0
  41
1
  42
1
  50
15
  71
0
  3
isocp.shx
  0
STYLE
  2
KICADBI
  70
0
  40
0
  41
1
  42
1
  50
15
  71
0
  3
isocp.shx
  0
ENDTAB
  0
TABLE
  2
LAYER
  70
1
  0
LAYER
  2
BLACK
  70
0
  62
7
  6
CONTINUOUS
  0
ENDTAB
  0
ENDSEC
  0
SECTION
  2
ENTITIES
0
ARC
8
BLACK
10
8.4375
20
-3.495
40
0.03
50
180
51
270
0
ARC
8
BLACK
10
8.3775
20
-3.405
40
0.03
50
-0
51
90
0
ARC
8
BLACK
10
8.2125
20
-3.405
40
0.03
50
90
51
180
0
ARC
8
BLACK
10
8.6025
20
-3.495
40
0.03
50
-90
51
-0
0
ARC
8
BLACK
10
8.6025
20
-2.655
40
0.03
50
-0
51
90
0
ARC
8
BLACK
10
8.11
20
-3.47
40
0.03
50
180
51
270
0
ARC
8
BLACK
10
8.11
20
-2.655
40
0.03
50
90
51
180
0
LINE
8
BLACK
6
CONTINUOUS
10
8.6025
20
-2.625
11
8.11
21
-2.625
0
LINE
8
BLACK
6
CONTINUOUS
10
8.31
20
-3.1348
11
8.20768
21
-3.1348
0
LINE
8
BLACK
6
CONTINUOUS
10
8.08
20
-3.22
11
8.08
21
-2.655
0
LINE
8
BLACK
6
CONTINUOUS
10
8.08
20
-3.47
11
8.08
21
-3.22
0
LINE
8
BLACK
6
CONTINUOUS
10
8.18268
20
-3.5
11
8.11
21
-3.5
0
LINE
8
BLACK
6
CONTINUOUS
10
8.6025
20
-3.525
11
8.4375
21
-3.5248
0
LINE
8
BLACK
6
CONTINUOUS
10
8.3775
20
-3.375
11
8.2125
21
-3.3748
0
LINE
8
BLACK
6
CONTINUOUS
10
8.4075
20
-3.495
11
8.40768
21
-3.405
0
LINE
8
BLACK
6
CONTINUOUS
10
8.31
20
-3.1848
11
8.31
21
-3.1348
0
LINE
8
BLACK
6
CONTINUOUS
10
8.42268
20
-3.1848
11
8.31
21
-3.185
0
LINE
8
BLACK
6
CONTINUOUS
10
8.42268
20
-3.0498
11
8.42268
21
-3.1848
0
LINE
8
BLACK
6
CONTINUOUS
10
8.20768
20
-3.0498
11
8.42268
21
-3.0498
0
LINE
8
BLACK
6
CONTINUOUS
10
8.20768
20
-3.1348
11
8.20768
21
-3.0498
0
LINE
8
BLACK
6
CONTINUOUS
10
8.6325
20
-2.655
11
8.6325
21
-3.495
0
LINE
8
BLACK
6
CONTINUOUS
10
8.18268
20
-3.5
11
8.1825
21
-3.405
0
LINE
8
BLACK
6
CONTINUOUS
10
5.47638
20
-1.36732
11
5.58661
21
-1.47756
0
LINE
8
BLACK
6
CONTINUOUS
10
5.58661
20
-1.36732
11
5.47638
21
-1.47756
0
LINE
8
BLACK
6
CONTINUOUS
10
5.47638
20
-3.57205
11
5.58661
21
-3.68228
0
LINE
8
BLACK
6
CONTINUOUS
10
5.58661
20
-3.57205
11
5.47638
21
-3.68228
0
LINE
8
BLACK
6
CONTINUOUS
10
8.1908
20
-3.71032
11
8.1908
21
-3.59221
0
LINE
8
BLACK
6
CONTINUOUS
10
8.1908
20
-3.59221
11
8.21892
21
-3.59221
0
LINE
8
BLACK
6
CONTINUOUS
10
8.21892
20
-3.59221
11
8.23579
21
-3.59783
0
LINE
8
BLACK
6
CONTINUOUS
10
8.23579
20
-3.59783
11
8.24704
21
-3.60908
0
LINE
8
BLACK
6
CONTINUOUS
10
8.24704
20
-3.60908
11
8.25267
21
-3.62033
0
LINE
8
BLACK
6
CONTINUOUS
10
8.25267
20
-3.62033
11
8.25829
21
-3.64283
0
LINE
8
BLACK
6
CONTINUOUS
10
8.25829
20
-3.64283
11
8.25829
21
-3.6597
0
LINE
8
BLACK
6
CONTINUOUS
10
8.25829
20
-3.6597
11
8.25267
21
-3.6822
0
LINE
8
BLACK
6
CONTINUOUS
10
8.25267
20
-3.6822
11
8.24704
21
-3.69345
0
LINE
8
BLACK
6
CONTINUOUS
10
8.24704
20
-3.69345
11
8.23579
21
-3.7047
0
LINE
8
BLACK
6
CONTINUOUS
10
8.23579
20
-3.7047
11
8.21892
21
-3.71032
0
LINE
8
BLACK
6
CONTINUOUS
10
8.21892
20
-3.71032
11
8.1908
21
-3.71032
0
LINE
8
BLACK
6
CONTINUOUS
10
8.30891
20
-3.71032
11
8.30891
21
-3.63158
0
LINE
8
BLACK
6
CONTINUOUS
10
8.30891
20
-3.65408
11
8.31453
21
-3.64283
0
LINE
8
BLACK
6
CONTINUOUS
10
8.31453
20
-3.64283
11
8.32016
21
-3.6372
0
LINE
8
BLACK
6
CONTINUOUS
10
8.32016
20
-3.6372
11
8.33141
21
-3.63158
0
LINE
8
BLACK
6
CONTINUOUS
10
8.33141
20
-3.63158
11
8.34265
21
-3.63158
0
LINE
8
BLACK
6
CONTINUOUS
10
8.38202
20
-3.71032
11
8.38202
21
-3.63158
0
LINE
8
BLACK
6
CONTINUOUS
10
8.38202
20
-3.59221
11
8.3764
21
-3.59783
0
LINE
8
BLACK
6
CONTINUOUS
10
8.3764
20
-3.59783
11
8.38202
21
-3.60346
0
LINE
8
BLACK
6
CONTINUOUS
10
8.38202
20
-3.60346
11
8.38765
21
-3.59783
0
LINE
8
BLACK
6
CONTINUOUS
10
8.38765
20
-3.59783
11
8.38202
21
-3.59221
0
LINE
8
BLACK
6
CONTINUOUS
10
8.38202
20
-3.59221
11
8.38202
21
-3.60346
0
LINE
8
BLACK
6
CONTINUOUS
10
8.45514
20
-3.71032
11
8.44389
21
-3.7047
0
LINE
8
BLACK
6
CONTINUOUS
10
8.44389
20
-3.7047
11
8.43827
21
-3.69345
0
LINE
8
BLACK
6
CONTINUOUS
10
8.43827
20
-3.69345
11
8.43827
21
-3.59221
0
LINE
8
BLACK
6
CONTINUOUS
10
8.51701
20
-3.71032
11
8.50576
21
-3.7047
0
LINE
8
BLACK
6
CONTINUOUS
10
8.50576
20
-3.7047
11
8.50013
21
-3.69345
0
LINE
8
BLACK
6
CONTINUOUS
10
8.50013
20
-3.69345
11
8.50013
21
-3.59221
0
LINE
8
BLACK
6
CONTINUOUS
10
8.65199
20
-3.71032
11
8.65199
21
-3.59221
0
LINE
8
BLACK
6
CONTINUOUS
10
8.65199
20
-3.59221
11
8.69136
21
-3.67657
0
LINE
8
BLACK
6
CONTINUOUS
10
8.69136
20
-3.67657
11
8.73073
21
-3.59221
0
LINE
8
BLACK
6
CONTINUOUS
10
8.73073
20
-3.59221
11
8.73073
21
-3.71032
0
LINE
8
BLACK
6
CONTINUOUS
10
8.83759
20
-3.71032
11
8.83759
21
-3.64845
0
LINE
8
BLACK
6
CONTINUOUS
10
8.83759
20
-3.64845
11
8.83197
21
-3.6372
0
LINE
8
BLACK
6
CONTINUOUS
10
8.83197
20
-3.6372
11
8.82072
21
-3.63158
0
LINE
8
BLACK
6
CONTINUOUS
10
8.82072
20
-3.63158
11
8.79822
21
-3.63158
0
LINE
8
BLACK
6
CONTINUOUS
10
8.79822
20
-3.63158
11
8.78697
21
-3.6372
0
LINE
8
BLACK
6
CONTINUOUS
10
8.83759
20
-3.7047
11
8.82634
21
-3.71032
0
LINE
8
BLACK
6
CONTINUOUS
10
8.82634
20
-3.71032
11
8.79822
21
-3.71032
0
LINE
8
BLACK
6
CONTINUOUS
10
8.79822
20
-3.71032
11
8.78697
21
-3.7047
0
LINE
8
BLACK
6
CONTINUOUS
10
8.78697
20
-3.7047
11
8.78135
21
-3.69345
0
LINE
8
BLACK
6
CONTINUOUS
10
8.78135
20
-3.69345
11
8.78135
21
-3.6822
0
LINE
8
BLACK
6
CONTINUOUS
10
8.78135
20
-3.6822
11
8.78697
21
-3.67095
0
LINE
8
BLACK
6
CONTINUOUS
10
8.78697
20
-3.67095
11
8.79822
21
-3.66533
0
LINE
8
BLACK
6
CONTINUOUS
10
8.79822
20
-3.66533
11
8.82634
21
-3.66533
0
LINE
8
BLACK
6
CONTINUOUS
10
8.82634
20
-3.66533
11
8.83759
21
-3.6597
0
LINE
8
BLACK
6
CONTINUOUS
10
8.89384
20
-3.63158
11
8.89384
21
-3.74969
0
LINE
8
BLACK
6
CONTINUOUS
10
8.89384
20
-3.6372
11
8.90508
21
-3.63158
0
LINE
8
BLACK
6
CONTINUOUS
10
8.90508
20
-3.63158
11
8.92758
21
-3.63158
0
LINE
8
BLACK
6
CONTINUOUS
10
8.92758
20
-3.63158
11
8.93883
21
-3.6372
0
LINE
8
BLACK
6
CONTINUOUS
10
8.93883
20
-3.6372
11
8.94445
21
-3.64283
0
LINE
8
BLACK
6
CONTINUOUS
10
8.94445
20
-3.64283
11
8.95008
21
-3.65408
0
LINE
8
BLACK
6
CONTINUOUS
10
8.95008
20
-3.65408
11
8.95008
21
-3.68782
0
LINE
8
BLACK
6
CONTINUOUS
10
8.95008
20
-3.68782
11
8.94445
21
-3.69907
0
LINE
8
BLACK
6
CONTINUOUS
10
8.94445
20
-3.69907
11
8.93883
21
-3.7047
0
LINE
8
BLACK
6
CONTINUOUS
10
8.93883
20
-3.7047
11
8.92758
21
-3.71032
0
LINE
8
BLACK
6
CONTINUOUS
10
8.92758
20
-3.71032
11
8.90508
21
-3.71032
0
LINE
8
BLACK
6
CONTINUOUS
10
8.90508
20
-3.71032
11
8.89384
21
-3.7047
0
LINE
8
BLACK
6
CONTINUOUS
10
9.0007
20
-3.69907
11
9.00632
21
-3.7047
0
LINE
8
BLACK
6
CONTINUOUS
10
9.00632
20
-3.7047
11
9.0007
21
-3.71032
0
LINE
8
BLACK
6
CONTINUOUS
10
9.0007
20
-3.71032
11
8.99507
21
-3.7047
0
LINE
8
BLACK
6
CONTINUOUS
10
8.99507
20
-3.7047
11
9.0007
21
-3.69907
0
LINE
8
BLACK
6
CONTINUOUS
10
9.0007
20
-3.69907
11
9.0007
21
-3.71032
0
LINE
8
BLACK
6
CONTINUOUS
10
9.0007
20
-3.6372
11
9.00632
21
-3.64283
0
LINE
8
BLACK
6
CONTINUOUS
10
9.00632
20
-3.64283
11
9.0007
21
-3.64845
0
LINE
8
BLACK
6
CONTINUOUS
10
9.0007
20
-3.64845
11
8.99507
21
-3.64283
0
LINE
8
BLACK
6
CONTINUOUS
10
8.99507
20
-3.64283
11
9.0007
21
-3.6372
0
LINE
8
BLACK
6
CONTINUOUS
10
9.0007
20
-3.6372
11
9.0007
21
-3.64845
0
LINE
8
BLACK
6
CONTINUOUS
10
7.9678
20
-3.8498
11
8.07803
21
-3.96004
0
LINE
8
BLACK
6
CONTINUOUS
10
8.07803
20
-3.8498
11
7.9678
21
-3.96004
0
LINE
8
BLACK
6
CONTINUOUS
10
8.18517
20
-3.85149
11
8.1908
21
-3.84587
0
LINE
8
BLACK
6
CONTINUOUS
10
8.1908
20
-3.84587
11
8.20205
21
-3.84024
0
LINE
8
BLACK
6
CONTINUOUS
10
8.20205
20
-3.84024
11
8.23017
21
-3.84024
0
LINE
8
BLACK
6
CONTINUOUS
10
8.23017
20
-3.84024
11
8.24142
21
-3.84587
0
LINE
8
BLACK
6
CONTINUOUS
10
8.24142
20
-3.84587
11
8.24704
21
-3.85149
0
LINE
8
BLACK
6
CONTINUOUS
10
8.24704
20
-3.85149
11
8.25267
21
-3.86274
0
LINE
8
BLACK
6
CONTINUOUS
10
8.25267
20
-3.86274
11
8.25267
21
-3.87399
0
LINE
8
BLACK
6
CONTINUOUS
10
8.25267
20
-3.87399
11
8.24704
21
-3.89086
0
LINE
8
BLACK
6
CONTINUOUS
10
8.24704
20
-3.89086
11
8.17955
21
-3.95835
0
LINE
8
BLACK
6
CONTINUOUS
10
8.17955
20
-3.95835
11
8.25267
21
-3.95835
0
LINE
8
BLACK
6
CONTINUOUS
10
8.30328
20
-3.9471
11
8.30891
21
-3.95273
0
LINE
8
BLACK
6
CONTINUOUS
10
8.30891
20
-3.95273
11
8.30328
21
-3.95835
0
LINE
8
BLACK
6
CONTINUOUS
10
8.30328
20
-3.95835
11
8.29766
21
-3.95273
0
LINE
8
BLACK
6
CONTINUOUS
10
8.29766
20
-3.95273
11
8.30328
21
-3.9471
0
LINE
8
BLACK
6
CONTINUOUS
10
8.30328
20
-3.9471
11
8.30328
21
-3.95835
0
LINE
8
BLACK
6
CONTINUOUS
10
8.3764
20
-3.89086
11
8.36515
21
-3.88524
0
LINE
8
BLACK
6
CONTINUOUS
10
8.36515
20
-3.88524
11
8.35953
21
-3.87961
0
LINE
8
BLACK
6
CONTINUOUS
10
8.35953
20
-3.87961
11
8.3539
21
-3.86836
0
LINE
8
BLACK
6
CONTINUOUS
10
8.3539
20
-3.86836
11
8.3539
21
-3.86274
0
LINE
8
BLACK
6
CONTINUOUS
10
8.3539
20
-3.86274
11
8.35953
21
-3.85149
0
LINE
8
BLACK
6
CONTINUOUS
10
8.35953
20
-3.85149
11
8.36515
21
-3.84587
0
LINE
8
BLACK
6
CONTINUOUS
10
8.36515
20
-3.84587
11
8.3764
21
-3.84024
0
LINE
8
BLACK
6
CONTINUOUS
10
8.3764
20
-3.84024
11
8.3989
21
-3.84024
0
LINE
8
BLACK
6
CONTINUOUS
10
8.3989
20
-3.84024
11
8.41015
21
-3.84587
0
LINE
8
BLACK
6
CONTINUOUS
10
8.41015
20
-3.84587
11
8.41577
21
-3.85149
0
LINE
8
BLACK
6
CONTINUOUS
10
8.41577
20
-3.85149
11
8.42139
21
-3.86274
0
LINE
8
BLACK
6
CONTINUOUS
10
8.42139
20
-3.86274
11
8.42139
21
-3.86836
0
LINE
8
BLACK
6
CONTINUOUS
10
8.42139
20
-3.86836
11
8.41577
21
-3.87961
0
LINE
8
BLACK
6
CONTINUOUS
10
8.41577
20
-3.87961
11
8.41015
21
-3.88524
0
LINE
8
BLACK
6
CONTINUOUS
10
8.41015
20
-3.88524
11
8.3989
21
-3.89086
0
LINE
8
BLACK
6
CONTINUOUS
10
8.3989
20
-3.89086
11
8.3764
21
-3.89086
0
LINE
8
BLACK
6
CONTINUOUS
10
8.3764
20
-3.89086
11
8.36515
21
-3.89648
0
LINE
8
BLACK
6
CONTINUOUS
10
8.36515
20
-3.89648
11
8.35953
21
-3.90211
0
LINE
8
BLACK
6
CONTINUOUS
10
8.35953
20
-3.90211
11
8.3539
21
-3.91336
0
LINE
8
BLACK
6
CONTINUOUS
10
8.3539
20
-3.91336
11
8.3539
21
-3.93585
0
LINE
8
BLACK
6
CONTINUOUS
10
8.3539
20
-3.93585
11
8.35953
21
-3.9471
0
LINE
8
BLACK
6
CONTINUOUS
10
8.35953
20
-3.9471
11
8.36515
21
-3.95273
0
LINE
8
BLACK
6
CONTINUOUS
10
8.36515
20
-3.95273
11
8.3764
21
-3.95835
0
LINE
8
BLACK
6
CONTINUOUS
10
8.3764
20
-3.95835
11
8.3989
21
-3.95835
0
LINE
8
BLACK
6
CONTINUOUS
10
8.3989
20
-3.95835
11
8.41015
21
-3.95273
0
LINE
8
BLACK
6
CONTINUOUS
10
8.41015
20
-3.95273
11
8.41577
21
-3.9471
0
LINE
8
BLACK
6
CONTINUOUS
10
8.41577
20
-3.9471
11
8.42139
21
-3.93585
0
LINE
8
BLACK
6
CONTINUOUS
10
8.42139
20
-3.93585
11
8.42139
21
-3.91336
0
LINE
8
BLACK
6
CONTINUOUS
10
8.42139
20
-3.91336
11
8.41577
21
-3.90211
0
LINE
8
BLACK
6
CONTINUOUS
10
8.41577
20
-3.90211
11
8.41015
21
-3.89648
0
LINE
8
BLACK
6
CONTINUOUS
10
8.41015
20
-3.89648
11
8.3989
21
-3.89086
0
LINE
8
BLACK
6
CONTINUOUS
10
8.49451
20
-3.84024
11
8.50576
21
-3.84024
0
LINE
8
BLACK
6
CONTINUOUS
10
8.50576
20
-3.84024
11
8.51701
21
-3.84587
0
LINE
8
BLACK
6
CONTINUOUS
10
8.51701
20
-3.84587
11
8.52263
21
-3.85149
0
LINE
8
BLACK
6
CONTINUOUS
10
8.52263
20
-3.85149
11
8.52826
21
-3.86274
0
LINE
8
BLACK
6
CONTINUOUS
10
8.52826
20
-3.86274
11
8.53388
21
-3.88524
0
LINE
8
BLACK
6
CONTINUOUS
10
8.53388
20
-3.88524
11
8.53388
21
-3.91336
0
LINE
8
BLACK
6
CONTINUOUS
10
8.53388
20
-3.91336
11
8.52826
21
-3.93585
0
LINE
8
BLACK
6
CONTINUOUS
10
8.52826
20
-3.93585
11
8.52263
21
-3.9471
0
LINE
8
BLACK
6
CONTINUOUS
10
8.52263
20
-3.9471
11
8.51701
21
-3.95273
0
LINE
8
BLACK
6
CONTINUOUS
10
8.51701
20
-3.95273
11
8.50576
21
-3.95835
0
LINE
8
BLACK
6
CONTINUOUS
10
8.50576
20
-3.95835
11
8.49451
21
-3.95835
0
LINE
8
BLACK
6
CONTINUOUS
10
8.49451
20
-3.95835
11
8.48326
21
-3.95273
0
LINE
8
BLACK
6
CONTINUOUS
10
8.48326
20
-3.95273
11
8.47764
21
-3.9471
0
LINE
8
BLACK
6
CONTINUOUS
10
8.47764
20
-3.9471
11
8.47201
21
-3.93585
0
LINE
8
BLACK
6
CONTINUOUS
10
8.47201
20
-3.93585
11
8.46639
21
-3.91336
0
LINE
8
BLACK
6
CONTINUOUS
10
8.46639
20
-3.91336
11
8.46639
21
-3.88524
0
LINE
8
BLACK
6
CONTINUOUS
10
8.46639
20
-3.88524
11
8.47201
21
-3.86274
0
LINE
8
BLACK
6
CONTINUOUS
10
8.47201
20
-3.86274
11
8.47764
21
-3.85149
0
LINE
8
BLACK
6
CONTINUOUS
10
8.47764
20
-3.85149
11
8.48326
21
-3.84587
0
LINE
8
BLACK
6
CONTINUOUS
10
8.48326
20
-3.84587
11
8.49451
21
-3.84024
0
LINE
8
BLACK
6
CONTINUOUS
10
8.5845
20
-3.95835
11
8.5845
21
-3.87961
0
LINE
8
BLACK
6
CONTINUOUS
10
8.5845
20
-3.89086
11
8.59012
21
-3.88524
0
LINE
8
BLACK
6
CONTINUOUS
10
8.59012
20
-3.88524
11
8.60137
21
-3.87961
0
LINE
8
BLACK
6
CONTINUOUS
10
8.60137
20
-3.87961
11
8.61825
21
-3.87961
0
LINE
8
BLACK
6
CONTINUOUS
10
8.61825
20
-3.87961
11
8.62949
21
-3.88524
0
LINE
8
BLACK
6
CONTINUOUS
10
8.62949
20
-3.88524
11
8.63512
21
-3.89648
0
LINE
8
BLACK
6
CONTINUOUS
10
8.63512
20
-3.89648
11
8.63512
21
-3.95835
0
LINE
8
BLACK
6
CONTINUOUS
10
8.63512
20
-3.89648
11
8.64074
21
-3.88524
0
LINE
8
BLACK
6
CONTINUOUS
10
8.64074
20
-3.88524
11
8.65199
21
-3.87961
0
LINE
8
BLACK
6
CONTINUOUS
10
8.65199
20
-3.87961
11
8.66886
21
-3.87961
0
LINE
8
BLACK
6
CONTINUOUS
10
8.66886
20
-3.87961
11
8.68011
21
-3.88524
0
LINE
8
BLACK
6
CONTINUOUS
10
8.68011
20
-3.88524
11
8.68574
21
-3.89648
0
LINE
8
BLACK
6
CONTINUOUS
10
8.68574
20
-3.89648
11
8.68574
21
-3.95835
0
LINE
8
BLACK
6
CONTINUOUS
10
8.74198
20
-3.95835
11
8.74198
21
-3.87961
0
LINE
8
BLACK
6
CONTINUOUS
10
8.74198
20
-3.89086
11
8.7476
21
-3.88524
0
LINE
8
BLACK
6
CONTINUOUS
10
8.7476
20
-3.88524
11
8.75885
21
-3.87961
0
LINE
8
BLACK
6
CONTINUOUS
10
8.75885
20
-3.87961
11
8.77573
21
-3.87961
0
LINE
8
BLACK
6
CONTINUOUS
10
8.77573
20
-3.87961
11
8.78697
21
-3.88524
0
LINE
8
BLACK
6
CONTINUOUS
10
8.78697
20
-3.88524
11
8.7926
21
-3.89648
0
LINE
8
BLACK
6
CONTINUOUS
10
8.7926
20
-3.89648
11
8.7926
21
-3.95835
0
LINE
8
BLACK
6
CONTINUOUS
10
8.7926
20
-3.89648
11
8.79822
21
-3.88524
0
LINE
8
BLACK
6
CONTINUOUS
10
8.79822
20
-3.88524
11
8.80947
21
-3.87961
0
LINE
8
BLACK
6
CONTINUOUS
10
8.80947
20
-3.87961
11
8.82634
21
-3.87961
0
LINE
8
BLACK
6
CONTINUOUS
10
8.82634
20
-3.87961
11
8.83759
21
-3.88524
0
LINE
8
BLACK
6
CONTINUOUS
10
8.83759
20
-3.88524
11
8.84322
21
-3.89648
0
LINE
8
BLACK
6
CONTINUOUS
10
8.84322
20
-3.89648
11
8.84322
21
-3.95835
0
LINE
8
BLACK
6
CONTINUOUS
10
9.07381
20
-3.83462
11
8.97258
21
-3.98647
0
LINE
8
BLACK
6
CONTINUOUS
10
9.22567
20
-3.84024
11
9.23692
21
-3.84024
0
LINE
8
BLACK
6
CONTINUOUS
10
9.23692
20
-3.84024
11
9.24817
21
-3.84587
0
LINE
8
BLACK
6
CONTINUOUS
10
9.24817
20
-3.84587
11
9.25379
21
-3.85149
0
LINE
8
BLACK
6
CONTINUOUS
10
9.25379
20
-3.85149
11
9.25942
21
-3.86274
0
LINE
8
BLACK
6
CONTINUOUS
10
9.25942
20
-3.86274
11
9.26504
21
-3.88524
0
LINE
8
BLACK
6
CONTINUOUS
10
9.26504
20
-3.88524
11
9.26504
21
-3.91336
0
LINE
8
BLACK
6
CONTINUOUS
10
9.26504
20
-3.91336
11
9.25942
21
-3.93585
0
LINE
8
BLACK
6
CONTINUOUS
10
9.25942
20
-3.93585
11
9.25379
21
-3.9471
0
LINE
8
BLACK
6
CONTINUOUS
10
9.25379
20
-3.9471
11
9.24817
21
-3.95273
0
LINE
8
BLACK
6
CONTINUOUS
10
9.24817
20
-3.95273
11
9.23692
21
-3.95835
0
LINE
8
BLACK
6
CONTINUOUS
10
9.23692
20
-3.95835
11
9.22567
21
-3.95835
0
LINE
8
BLACK
6
CONTINUOUS
10
9.22567
20
-3.95835
11
9.21442
21
-3.95273
0
LINE
8
BLACK
6
CONTINUOUS
10
9.21442
20
-3.95273
11
9.2088
21
-3.9471
0
LINE
8
BLACK
6
CONTINUOUS
10
9.2088
20
-3.9471
11
9.20317
21
-3.93585
0
LINE
8
BLACK
6
CONTINUOUS
10
9.20317
20
-3.93585
11
9.19755
21
-3.91336
0
LINE
8
BLACK
6
CONTINUOUS
10
9.19755
20
-3.91336
11
9.19755
21
-3.88524
0
LINE
8
BLACK
6
CONTINUOUS
10
9.19755
20
-3.88524
11
9.20317
21
-3.86274
0
LINE
8
BLACK
6
CONTINUOUS
10
9.20317
20
-3.86274
11
9.2088
21
-3.85149
0
LINE
8
BLACK
6
CONTINUOUS
10
9.2088
20
-3.85149
11
9.21442
21
-3.84587
0
LINE
8
BLACK
6
CONTINUOUS
10
9.21442
20
-3.84587
11
9.22567
21
-3.84024
0
LINE
8
BLACK
6
CONTINUOUS
10
9.31566
20
-3.9471
11
9.32128
21
-3.95273
0
LINE
8
BLACK
6
CONTINUOUS
10
9.32128
20
-3.95273
11
9.31566
21
-3.95835
0
LINE
8
BLACK
6
CONTINUOUS
10
9.31566
20
-3.95835
11
9.31003
21
-3.95273
0
LINE
8
BLACK
6
CONTINUOUS
10
9.31003
20
-3.95273
11
9.31566
21
-3.9471
0
LINE
8
BLACK
6
CONTINUOUS
10
9.31566
20
-3.9471
11
9.31566
21
-3.95835
0
LINE
8
BLACK
6
CONTINUOUS
10
9.43377
20
-3.95835
11
9.36628
21
-3.95835
0
LINE
8
BLACK
6
CONTINUOUS
10
9.40002
20
-3.95835
11
9.40002
21
-3.84024
0
LINE
8
BLACK
6
CONTINUOUS
10
9.40002
20
-3.84024
11
9.38877
21
-3.85711
0
LINE
8
BLACK
6
CONTINUOUS
10
9.38877
20
-3.85711
11
9.37753
21
-3.86836
0
LINE
8
BLACK
6
CONTINUOUS
10
9.37753
20
-3.86836
11
9.36628
21
-3.87399
0
LINE
8
BLACK
6
CONTINUOUS
10
9.54625
20
-3.95835
11
9.47876
21
-3.95835
0
LINE
8
BLACK
6
CONTINUOUS
10
9.51251
20
-3.95835
11
9.51251
21
-3.84024
0
LINE
8
BLACK
6
CONTINUOUS
10
9.51251
20
-3.84024
11
9.50126
21
-3.85711
0
LINE
8
BLACK
6
CONTINUOUS
10
9.50126
20
-3.85711
11
9.49001
21
-3.86836
0
LINE
8
BLACK
6
CONTINUOUS
10
9.49001
20
-3.86836
11
9.47876
21
-3.87399
0
LINE
8
BLACK
6
CONTINUOUS
10
9.61937
20
-3.84024
11
9.63062
21
-3.84024
0
LINE
8
BLACK
6
CONTINUOUS
10
9.63062
20
-3.84024
11
9.64187
21
-3.84587
0
LINE
8
BLACK
6
CONTINUOUS
10
9.64187
20
-3.84587
11
9.64749
21
-3.85149
0
LINE
8
BLACK
6
CONTINUOUS
10
9.64749
20
-3.85149
11
9.65312
21
-3.86274
0
LINE
8
BLACK
6
CONTINUOUS
10
9.65312
20
-3.86274
11
9.65874
21
-3.88524
0
LINE
8
BLACK
6
CONTINUOUS
10
9.65874
20
-3.88524
11
9.65874
21
-3.91336
0
LINE
8
BLACK
6
CONTINUOUS
10
9.65874
20
-3.91336
11
9.65312
21
-3.93585
0
LINE
8
BLACK
6
CONTINUOUS
10
9.65312
20
-3.93585
11
9.64749
21
-3.9471
0
LINE
8
BLACK
6
CONTINUOUS
10
9.64749
20
-3.9471
11
9.64187
21
-3.95273
0
LINE
8
BLACK
6
CONTINUOUS
10
9.64187
20
-3.95273
11
9.63062
21
-3.95835
0
LINE
8
BLACK
6
CONTINUOUS
10
9.63062
20
-3.95835
11
9.61937
21
-3.95835
0
LINE
8
BLACK
6
CONTINUOUS
10
9.61937
20
-3.95835
11
9.60812
21
-3.95273
0
LINE
8
BLACK
6
CONTINUOUS
10
9.60812
20
-3.95273
11
9.6025
21
-3.9471
0
LINE
8
BLACK
6
CONTINUOUS
10
9.6025
20
-3.9471
11
9.59687
21
-3.93585
0
LINE
8
BLACK
6
CONTINUOUS
10
9.59687
20
-3.93585
11
9.59125
21
-3.91336
0
LINE
8
BLACK
6
CONTINUOUS
10
9.59125
20
-3.91336
11
9.59125
21
-3.88524
0
LINE
8
BLACK
6
CONTINUOUS
10
9.59125
20
-3.88524
11
9.59687
21
-3.86274
0
LINE
8
BLACK
6
CONTINUOUS
10
9.59687
20
-3.86274
11
9.6025
21
-3.85149
0
LINE
8
BLACK
6
CONTINUOUS
10
9.6025
20
-3.85149
11
9.60812
21
-3.84587
0
LINE
8
BLACK
6
CONTINUOUS
10
9.60812
20
-3.84587
11
9.61937
21
-3.84024
0
LINE
8
BLACK
6
CONTINUOUS
10
9.70373
20
-3.84024
11
9.70373
21
-3.86274
0
LINE
8
BLACK
6
CONTINUOUS
10
9.74873
20
-3.84024
11
9.74873
21
-3.86274
0
LINE
8
BLACK
6
CONTINUOUS
10
9.92308
20
-4.00335
11
9.91746
21
-3.99772
0
LINE
8
BLACK
6
CONTINUOUS
10
9.91746
20
-3.99772
11
9.90621
21
-3.98085
0
LINE
8
BLACK
6
CONTINUOUS
10
9.90621
20
-3.98085
11
9.90058
21
-3.9696
0
LINE
8
BLACK
6
CONTINUOUS
10
9.90058
20
-3.9696
11
9.89496
21
-3.95273
0
LINE
8
BLACK
6
CONTINUOUS
10
9.89496
20
-3.95273
11
9.88934
21
-3.92461
0
LINE
8
BLACK
6
CONTINUOUS
10
9.88934
20
-3.92461
11
9.88934
21
-3.90211
0
LINE
8
BLACK
6
CONTINUOUS
10
9.88934
20
-3.90211
11
9.89496
21
-3.87399
0
LINE
8
BLACK
6
CONTINUOUS
10
9.89496
20
-3.87399
11
9.90058
21
-3.85711
0
LINE
8
BLACK
6
CONTINUOUS
10
9.90058
20
-3.85711
11
9.90621
21
-3.84587
0
LINE
8
BLACK
6
CONTINUOUS
10
9.90621
20
-3.84587
11
9.91746
21
-3.82899
0
LINE
8
BLACK
6
CONTINUOUS
10
9.91746
20
-3.82899
11
9.92308
21
-3.82337
0
LINE
8
BLACK
6
CONTINUOUS
10
9.96245
20
-3.85149
11
9.96808
21
-3.84587
0
LINE
8
BLACK
6
CONTINUOUS
10
9.96808
20
-3.84587
11
9.97933
21
-3.84024
0
LINE
8
BLACK
6
CONTINUOUS
10
9.97933
20
-3.84024
11
10.0074
21
-3.84024
0
LINE
8
BLACK
6
CONTINUOUS
10
10.0074
20
-3.84024
11
10.0187
21
-3.84587
0
LINE
8
BLACK
6
CONTINUOUS
10
10.0187
20
-3.84587
11
10.0243
21
-3.85149
0
LINE
8
BLACK
6
CONTINUOUS
10
10.0243
20
-3.85149
11
10.0299
21
-3.86274
0
LINE
8
BLACK
6
CONTINUOUS
10
10.0299
20
-3.86274
11
10.0299
21
-3.87399
0
LINE
8
BLACK
6
CONTINUOUS
10
10.0299
20
-3.87399
11
10.0243
21
-3.89086
0
LINE
8
BLACK
6
CONTINUOUS
10
10.0243
20
-3.89086
11
9.95683
21
-3.95835
0
LINE
8
BLACK
6
CONTINUOUS
10
9.95683
20
-3.95835
11
10.0299
21
-3.95835
0
LINE
8
BLACK
6
CONTINUOUS
10
10.1706
20
-3.95835
11
10.1706
21
-3.84024
0
LINE
8
BLACK
6
CONTINUOUS
10
10.2212
20
-3.95835
11
10.2212
21
-3.89648
0
LINE
8
BLACK
6
CONTINUOUS
10
10.2212
20
-3.89648
11
10.2155
21
-3.88524
0
LINE
8
BLACK
6
CONTINUOUS
10
10.2155
20
-3.88524
11
10.2043
21
-3.87961
0
LINE
8
BLACK
6
CONTINUOUS
10
10.2043
20
-3.87961
11
10.1874
21
-3.87961
0
LINE
8
BLACK
6
CONTINUOUS
10
10.1874
20
-3.87961
11
10.1762
21
-3.88524
0
LINE
8
BLACK
6
CONTINUOUS
10
10.1762
20
-3.88524
11
10.1706
21
-3.89086
0
LINE
8
BLACK
6
CONTINUOUS
10
10.2943
20
-3.95835
11
10.283
21
-3.95273
0
LINE
8
BLACK
6
CONTINUOUS
10
10.283
20
-3.95273
11
10.2774
21
-3.9471
0
LINE
8
BLACK
6
CONTINUOUS
10
10.2774
20
-3.9471
11
10.2718
21
-3.93585
0
LINE
8
BLACK
6
CONTINUOUS
10
10.2718
20
-3.93585
11
10.2718
21
-3.90211
0
LINE
8
BLACK
6
CONTINUOUS
10
10.2718
20
-3.90211
11
10.2774
21
-3.89086
0
LINE
8
BLACK
6
CONTINUOUS
10
10.2774
20
-3.89086
11
10.283
21
-3.88524
0
LINE
8
BLACK
6
CONTINUOUS
10
10.283
20
-3.88524
11
10.2943
21
-3.87961
0
LINE
8
BLACK
6
CONTINUOUS
10
10.2943
20
-3.87961
11
10.3112
21
-3.87961
0
LINE
8
BLACK
6
CONTINUOUS
10
10.3112
20
-3.87961
11
10.3224
21
-3.88524
0
LINE
8
BLACK
6
CONTINUOUS
10
10.3224
20
-3.88524
11
10.328
21
-3.89086
0
LINE
8
BLACK
6
CONTINUOUS
10
10.328
20
-3.89086
11
10.3337
21
-3.90211
0
LINE
8
BLACK
6
CONTINUOUS
10
10.3337
20
-3.90211
11
10.3337
21
-3.93585
0
LINE
8
BLACK
6
CONTINUOUS
10
10.3337
20
-3.93585
11
10.328
21
-3.9471
0
LINE
8
BLACK
6
CONTINUOUS
10
10.328
20
-3.9471
11
10.3224
21
-3.95273
0
LINE
8
BLACK
6
CONTINUOUS
10
10.3224
20
-3.95273
11
10.3112
21
-3.95835
0
LINE
8
BLACK
6
CONTINUOUS
10
10.3112
20
-3.95835
11
10.2943
21
-3.95835
0
LINE
8
BLACK
6
CONTINUOUS
10
10.4011
20
-3.95835
11
10.3899
21
-3.95273
0
LINE
8
BLACK
6
CONTINUOUS
10
10.3899
20
-3.95273
11
10.3843
21
-3.94148
0
LINE
8
BLACK
6
CONTINUOUS
10
10.3843
20
-3.94148
11
10.3843
21
-3.84024
0
LINE
8
BLACK
6
CONTINUOUS
10
10.4911
20
-3.95273
11
10.4799
21
-3.95835
0
LINE
8
BLACK
6
CONTINUOUS
10
10.4799
20
-3.95835
11
10.4574
21
-3.95835
0
LINE
8
BLACK
6
CONTINUOUS
10
10.4574
20
-3.95835
11
10.4461
21
-3.95273
0
LINE
8
BLACK
6
CONTINUOUS
10
10.4461
20
-3.95273
11
10.4405
21
-3.94148
0
LINE
8
BLACK
6
CONTINUOUS
10
10.4405
20
-3.94148
11
10.4405
21
-3.89648
0
LINE
8
BLACK
6
CONTINUOUS
10
10.4405
20
-3.89648
11
10.4461
21
-3.88524
0
LINE
8
BLACK
6
CONTINUOUS
10
10.4461
20
-3.88524
11
10.4574
21
-3.87961
0
LINE
8
BLACK
6
CONTINUOUS
10
10.4574
20
-3.87961
11
10.4799
21
-3.87961
0
LINE
8
BLACK
6
CONTINUOUS
10
10.4799
20
-3.87961
11
10.4911
21
-3.88524
0
LINE
8
BLACK
6
CONTINUOUS
10
10.4911
20
-3.88524
11
10.4968
21
-3.89648
0
LINE
8
BLACK
6
CONTINUOUS
10
10.4968
20
-3.89648
11
10.4968
21
-3.90773
0
LINE
8
BLACK
6
CONTINUOUS
10
10.4968
20
-3.90773
11
10.4405
21
-3.91898
0
LINE
8
BLACK
6
CONTINUOUS
10
10.5418
20
-3.95273
11
10.553
21
-3.95835
0
LINE
8
BLACK
6
CONTINUOUS
10
10.553
20
-3.95835
11
10.5755
21
-3.95835
0
LINE
8
BLACK
6
CONTINUOUS
10
10.5755
20
-3.95835
11
10.5867
21
-3.95273
0
LINE
8
BLACK
6
CONTINUOUS
10
10.5867
20
-3.95273
11
10.5924
21
-3.94148
0
LINE
8
BLACK
6
CONTINUOUS
10
10.5924
20
-3.94148
11
10.5924
21
-3.93585
0
LINE
8
BLACK
6
CONTINUOUS
10
10.5924
20
-3.93585
11
10.5867
21
-3.92461
0
LINE
8
BLACK
6
CONTINUOUS
10
10.5867
20
-3.92461
11
10.5755
21
-3.91898
0
LINE
8
BLACK
6
CONTINUOUS
10
10.5755
20
-3.91898
11
10.5586
21
-3.91898
0
LINE
8
BLACK
6
CONTINUOUS
10
10.5586
20
-3.91898
11
10.5474
21
-3.91336
0
LINE
8
BLACK
6
CONTINUOUS
10
10.5474
20
-3.91336
11
10.5418
21
-3.90211
0
LINE
8
BLACK
6
CONTINUOUS
10
10.5418
20
-3.90211
11
10.5418
21
-3.89648
0
LINE
8
BLACK
6
CONTINUOUS
10
10.5418
20
-3.89648
11
10.5474
21
-3.88524
0
LINE
8
BLACK
6
CONTINUOUS
10
10.5474
20
-3.88524
11
10.5586
21
-3.87961
0
LINE
8
BLACK
6
CONTINUOUS
10
10.5586
20
-3.87961
11
10.5755
21
-3.87961
0
LINE
8
BLACK
6
CONTINUOUS
10
10.5755
20
-3.87961
11
10.5867
21
-3.88524
0
LINE
8
BLACK
6
CONTINUOUS
10
10.6317
20
-4.00335
11
10.6374
21
-3.99772
0
LINE
8
BLACK
6
CONTINUOUS
10
10.6374
20
-3.99772
11
10.6486
21
-3.98085
0
LINE
8
BLACK
6
CONTINUOUS
10
10.6486
20
-3.98085
11
10.6542
21
-3.9696
0
LINE
8
BLACK
6
CONTINUOUS
10
10.6542
20
-3.9696
11
10.6599
21
-3.95273
0
LINE
8
BLACK
6
CONTINUOUS
10
10.6599
20
-3.95273
11
10.6655
21
-3.92461
0
LINE
8
BLACK
6
CONTINUOUS
10
10.6655
20
-3.92461
11
10.6655
21
-3.90211
0
LINE
8
BLACK
6
CONTINUOUS
10
10.6655
20
-3.90211
11
10.6599
21
-3.87399
0
LINE
8
BLACK
6
CONTINUOUS
10
10.6599
20
-3.87399
11
10.6542
21
-3.85711
0
LINE
8
BLACK
6
CONTINUOUS
10
10.6542
20
-3.85711
11
10.6486
21
-3.84587
0
LINE
8
BLACK
6
CONTINUOUS
10
10.6486
20
-3.84587
11
10.6374
21
-3.82899
0
LINE
8
BLACK
6
CONTINUOUS
10
10.6374
20
-3.82899
11
10.6317
21
-3.82337
0
LINE
8
BLACK
6
CONTINUOUS
10
10.8455
20
-4.00335
11
10.8398
21
-3.99772
0
LINE
8
BLACK
6
CONTINUOUS
10
10.8398
20
-3.99772
11
10.8286
21
-3.98085
0
LINE
8
BLACK
6
CONTINUOUS
10
10.8286
20
-3.98085
11
10.823
21
-3.9696
0
LINE
8
BLACK
6
CONTINUOUS
10
10.823
20
-3.9696
11
10.8173
21
-3.95273
0
LINE
8
BLACK
6
CONTINUOUS
10
10.8173
20
-3.95273
11
10.8117
21
-3.92461
0
LINE
8
BLACK
6
CONTINUOUS
10
10.8117
20
-3.92461
11
10.8117
21
-3.90211
0
LINE
8
BLACK
6
CONTINUOUS
10
10.8117
20
-3.90211
11
10.8173
21
-3.87399
0
LINE
8
BLACK
6
CONTINUOUS
10
10.8173
20
-3.87399
11
10.823
21
-3.85711
0
LINE
8
BLACK
6
CONTINUOUS
10
10.823
20
-3.85711
11
10.8286
21
-3.84587
0
LINE
8
BLACK
6
CONTINUOUS
10
10.8286
20
-3.84587
11
10.8398
21
-3.82899
0
LINE
8
BLACK
6
CONTINUOUS
10
10.8398
20
-3.82899
11
10.8455
21
-3.82337
0
LINE
8
BLACK
6
CONTINUOUS
10
10.8905
20
-3.87961
11
10.8905
21
-3.95835
0
LINE
8
BLACK
6
CONTINUOUS
10
10.8905
20
-3.89086
11
10.8961
21
-3.88524
0
LINE
8
BLACK
6
CONTINUOUS
10
10.8961
20
-3.88524
11
10.9073
21
-3.87961
0
LINE
8
BLACK
6
CONTINUOUS
10
10.9073
20
-3.87961
11
10.9242
21
-3.87961
0
LINE
8
BLACK
6
CONTINUOUS
10
10.9242
20
-3.87961
11
10.9355
21
-3.88524
0
LINE
8
BLACK
6
CONTINUOUS
10
10.9355
20
-3.88524
11
10.9411
21
-3.89648
0
LINE
8
BLACK
6
CONTINUOUS
10
10.9411
20
-3.89648
11
10.9411
21
-3.95835
0
LINE
8
BLACK
6
CONTINUOUS
10
11.0142
20
-3.95835
11
11.0029
21
-3.95273
0
LINE
8
BLACK
6
CONTINUOUS
10
11.0029
20
-3.95273
11
10.9973
21
-3.9471
0
LINE
8
BLACK
6
CONTINUOUS
10
10.9973
20
-3.9471
11
10.9917
21
-3.93585
0
LINE
8
BLACK
6
CONTINUOUS
10
10.9917
20
-3.93585
11
10.9917
21
-3.90211
0
LINE
8
BLACK
6
CONTINUOUS
10
10.9917
20
-3.90211
11
10.9973
21
-3.89086
0
LINE
8
BLACK
6
CONTINUOUS
10
10.9973
20
-3.89086
11
11.0029
21
-3.88524
0
LINE
8
BLACK
6
CONTINUOUS
10
11.0029
20
-3.88524
11
11.0142
21
-3.87961
0
LINE
8
BLACK
6
CONTINUOUS
10
11.0142
20
-3.87961
11
11.0311
21
-3.87961
0
LINE
8
BLACK
6
CONTINUOUS
10
11.0311
20
-3.87961
11
11.0423
21
-3.88524
0
LINE
8
BLACK
6
CONTINUOUS
10
11.0423
20
-3.88524
11
11.0479
21
-3.89086
0
LINE
8
BLACK
6
CONTINUOUS
10
11.0479
20
-3.89086
11
11.0536
21
-3.90211
0
LINE
8
BLACK
6
CONTINUOUS
10
11.0536
20
-3.90211
11
11.0536
21
-3.93585
0
LINE
8
BLACK
6
CONTINUOUS
10
11.0536
20
-3.93585
11
11.0479
21
-3.9471
0
LINE
8
BLACK
6
CONTINUOUS
10
11.0479
20
-3.9471
11
11.0423
21
-3.95273
0
LINE
8
BLACK
6
CONTINUOUS
10
11.0423
20
-3.95273
11
11.0311
21
-3.95835
0
LINE
8
BLACK
6
CONTINUOUS
10
11.0311
20
-3.95835
11
11.0142
21
-3.95835
0
LINE
8
BLACK
6
CONTINUOUS
10
11.0873
20
-3.87961
11
11.1323
21
-3.87961
0
LINE
8
BLACK
6
CONTINUOUS
10
11.1042
20
-3.84024
11
11.1042
21
-3.94148
0
LINE
8
BLACK
6
CONTINUOUS
10
11.1042
20
-3.94148
11
11.1098
21
-3.95273
0
LINE
8
BLACK
6
CONTINUOUS
10
11.1098
20
-3.95273
11
11.1211
21
-3.95835
0
LINE
8
BLACK
6
CONTINUOUS
10
11.1211
20
-3.95835
11
11.1323
21
-3.95835
0
LINE
8
BLACK
6
CONTINUOUS
10
11.2617
20
-3.87961
11
11.2617
21
-3.99772
0
LINE
8
BLACK
6
CONTINUOUS
10
11.2617
20
-3.88524
11
11.2729
21
-3.87961
0
LINE
8
BLACK
6
CONTINUOUS
10
11.2729
20
-3.87961
11
11.2954
21
-3.87961
0
LINE
8
BLACK
6
CONTINUOUS
10
11.2954
20
-3.87961
11
11.3067
21
-3.88524
0
LINE
8
BLACK
6
CONTINUOUS
10
11.3067
20
-3.88524
11
11.3123
21
-3.89086
0
LINE
8
BLACK
6
CONTINUOUS
10
11.3123
20
-3.89086
11
11.3179
21
-3.90211
0
LINE
8
BLACK
6
CONTINUOUS
10
11.3179
20
-3.90211
11
11.3179
21
-3.93585
0
LINE
8
BLACK
6
CONTINUOUS
10
11.3179
20
-3.93585
11
11.3123
21
-3.9471
0
LINE
8
BLACK
6
CONTINUOUS
10
11.3123
20
-3.9471
11
11.3067
21
-3.95273
0
LINE
8
BLACK
6
CONTINUOUS
10
11.3067
20
-3.95273
11
11.2954
21
-3.95835
0
LINE
8
BLACK
6
CONTINUOUS
10
11.2954
20
-3.95835
11
11.2729
21
-3.95835
0
LINE
8
BLACK
6
CONTINUOUS
10
11.2729
20
-3.95835
11
11.2617
21
-3.95273
0
LINE
8
BLACK
6
CONTINUOUS
10
11.3854
20
-3.95835
11
11.3742
21
-3.95273
0
LINE
8
BLACK
6
CONTINUOUS
10
11.3742
20
-3.95273
11
11.3685
21
-3.94148
0
LINE
8
BLACK
6
CONTINUOUS
10
11.3685
20
-3.94148
11
11.3685
21
-3.84024
0
LINE
8
BLACK
6
CONTINUOUS
10
11.481
20
-3.95835
11
11.481
21
-3.89648
0
LINE
8
BLACK
6
CONTINUOUS
10
11.481
20
-3.89648
11
11.4754
21
-3.88524
0
LINE
8
BLACK
6
CONTINUOUS
10
11.4754
20
-3.88524
11
11.4641
21
-3.87961
0
LINE
8
BLACK
6
CONTINUOUS
10
11.4641
20
-3.87961
11
11.4416
21
-3.87961
0
LINE
8
BLACK
6
CONTINUOUS
10
11.4416
20
-3.87961
11
11.4304
21
-3.88524
0
LINE
8
BLACK
6
CONTINUOUS
10
11.481
20
-3.95273
11
11.4698
21
-3.95835
0
LINE
8
BLACK
6
CONTINUOUS
10
11.4698
20
-3.95835
11
11.4416
21
-3.95835
0
LINE
8
BLACK
6
CONTINUOUS
10
11.4416
20
-3.95835
11
11.4304
21
-3.95273
0
LINE
8
BLACK
6
CONTINUOUS
10
11.4304
20
-3.95273
11
11.4248
21
-3.94148
0
LINE
8
BLACK
6
CONTINUOUS
10
11.4248
20
-3.94148
11
11.4248
21
-3.93023
0
LINE
8
BLACK
6
CONTINUOUS
10
11.4248
20
-3.93023
11
11.4304
21
-3.91898
0
LINE
8
BLACK
6
CONTINUOUS
10
11.4304
20
-3.91898
11
11.4416
21
-3.91336
0
LINE
8
BLACK
6
CONTINUOUS
10
11.4416
20
-3.91336
11
11.4698
21
-3.91336
0
LINE
8
BLACK
6
CONTINUOUS
10
11.4698
20
-3.91336
11
11.481
21
-3.90773
0
LINE
8
BLACK
6
CONTINUOUS
10
11.5204
20
-3.87961
11
11.5654
21
-3.87961
0
LINE
8
BLACK
6
CONTINUOUS
10
11.5373
20
-3.84024
11
11.5373
21
-3.94148
0
LINE
8
BLACK
6
CONTINUOUS
10
11.5373
20
-3.94148
11
11.5429
21
-3.95273
0
LINE
8
BLACK
6
CONTINUOUS
10
11.5429
20
-3.95273
11
11.5541
21
-3.95835
0
LINE
8
BLACK
6
CONTINUOUS
10
11.5541
20
-3.95835
11
11.5654
21
-3.95835
0
LINE
8
BLACK
6
CONTINUOUS
10
11.6497
20
-3.95273
11
11.6385
21
-3.95835
0
LINE
8
BLACK
6
CONTINUOUS
10
11.6385
20
-3.95835
11
11.616
21
-3.95835
0
LINE
8
BLACK
6
CONTINUOUS
10
11.616
20
-3.95835
11
11.6047
21
-3.95273
0
LINE
8
BLACK
6
CONTINUOUS
10
11.6047
20
-3.95273
11
11.5991
21
-3.94148
0
LINE
8
BLACK
6
CONTINUOUS
10
11.5991
20
-3.94148
11
11.5991
21
-3.89648
0
LINE
8
BLACK
6
CONTINUOUS
10
11.5991
20
-3.89648
11
11.6047
21
-3.88524
0
LINE
8
BLACK
6
CONTINUOUS
10
11.6047
20
-3.88524
11
11.616
21
-3.87961
0
LINE
8
BLACK
6
CONTINUOUS
10
11.616
20
-3.87961
11
11.6385
21
-3.87961
0
LINE
8
BLACK
6
CONTINUOUS
10
11.6385
20
-3.87961
11
11.6497
21
-3.88524
0
LINE
8
BLACK
6
CONTINUOUS
10
11.6497
20
-3.88524
11
11.6554
21
-3.89648
0
LINE
8
BLACK
6
CONTINUOUS
10
11.6554
20
-3.89648
11
11.6554
21
-3.90773
0
LINE
8
BLACK
6
CONTINUOUS
10
11.6554
20
-3.90773
11
11.5991
21
-3.91898
0
LINE
8
BLACK
6
CONTINUOUS
10
11.7566
20
-3.95835
11
11.7566
21
-3.84024
0
LINE
8
BLACK
6
CONTINUOUS
10
11.7566
20
-3.95273
11
11.7454
21
-3.95835
0
LINE
8
BLACK
6
CONTINUOUS
10
11.7454
20
-3.95835
11
11.7229
21
-3.95835
0
LINE
8
BLACK
6
CONTINUOUS
10
11.7229
20
-3.95835
11
11.7116
21
-3.95273
0
LINE
8
BLACK
6
CONTINUOUS
10
11.7116
20
-3.95273
11
11.706
21
-3.9471
0
LINE
8
BLACK
6
CONTINUOUS
10
11.706
20
-3.9471
11
11.7004
21
-3.93585
0
LINE
8
BLACK
6
CONTINUOUS
10
11.7004
20
-3.93585
11
11.7004
21
-3.90211
0
LINE
8
BLACK
6
CONTINUOUS
10
11.7004
20
-3.90211
11
11.706
21
-3.89086
0
LINE
8
BLACK
6
CONTINUOUS
10
11.706
20
-3.89086
11
11.7116
21
-3.88524
0
LINE
8
BLACK
6
CONTINUOUS
10
11.7116
20
-3.88524
11
11.7229
21
-3.87961
0
LINE
8
BLACK
6
CONTINUOUS
10
11.7229
20
-3.87961
11
11.7454
21
-3.87961
0
LINE
8
BLACK
6
CONTINUOUS
10
11.7454
20
-3.87961
11
11.7566
21
-3.88524
0
LINE
8
BLACK
6
CONTINUOUS
10
11.8016
20
-4.00335
11
11.8072
21
-3.99772
0
LINE
8
BLACK
6
CONTINUOUS
10
11.8072
20
-3.99772
11
11.8185
21
-3.98085
0
LINE
8
BLACK
6
CONTINUOUS
10
11.8185
20
-3.98085
11
11.8241
21
-3.9696
0
LINE
8
BLACK
6
CONTINUOUS
10
11.8241
20
-3.9696
11
11.8297
21
-3.95273
0
LINE
8
BLACK
6
CONTINUOUS
10
11.8297
20
-3.95273
11
11.8353
21
-3.92461
0
LINE
8
BLACK
6
CONTINUOUS
10
11.8353
20
-3.92461
11
11.8353
21
-3.90211
0
LINE
8
BLACK
6
CONTINUOUS
10
11.8353
20
-3.90211
11
11.8297
21
-3.87399
0
LINE
8
BLACK
6
CONTINUOUS
10
11.8297
20
-3.87399
11
11.8241
21
-3.85711
0
LINE
8
BLACK
6
CONTINUOUS
10
11.8241
20
-3.85711
11
11.8185
21
-3.84587
0
LINE
8
BLACK
6
CONTINUOUS
10
11.8185
20
-3.84587
11
11.8072
21
-3.82899
0
LINE
8
BLACK
6
CONTINUOUS
10
11.8072
20
-3.82899
11
11.8016
21
-3.82337
  0
ENDSEC
  0
EOF
