G04 #@! TF.GenerationSoftware,KiCad,Pcbnew,5.1.7-a382d34a8~87~ubuntu18.04.1*
G04 #@! TF.CreationDate,2021-02-14T20:43:55-05:00*
G04 #@! TF.ProjectId,FLASH_MOD,464c4153-485f-44d4-9f44-2e6b69636164,0*
G04 #@! TF.SameCoordinates,Original*
G04 #@! TF.FileFunction,Profile,NP*
%FSLAX46Y46*%
G04 Gerber Fmt 4.6, Leading zero omitted, Abs format (unit mm)*
G04 Created by KiCad (PCBNEW 5.1.7-a382d34a8~87~ubuntu18.04.1) date 2021-02-14 20:43:55*
%MOMM*%
%LPD*%
G01*
G04 APERTURE LIST*
G04 #@! TA.AperFunction,Profile*
%ADD10C,0.100000*%
G04 #@! TD*
G04 APERTURE END LIST*
D10*
X214312500Y-89535000D02*
G75*
G02*
X213550500Y-88773000I0J762000D01*
G01*
X212788500Y-85725000D02*
G75*
G02*
X213550500Y-86487000I0J-762000D01*
G01*
X207835500Y-86487000D02*
G75*
G02*
X208597500Y-85725000I762000J0D01*
G01*
X219265500Y-88773000D02*
G75*
G02*
X218503500Y-89535000I-762000J0D01*
G01*
X218503500Y-66675000D02*
G75*
G02*
X219265500Y-67437000I0J-762000D01*
G01*
X205994000Y-88900000D02*
G75*
G02*
X205232000Y-88138000I0J762000D01*
G01*
X205232000Y-67437000D02*
G75*
G02*
X205994000Y-66675000I762000J0D01*
G01*
X218503500Y-66675000D02*
X205994000Y-66675000D01*
X211074000Y-79624000D02*
X208475000Y-79624000D01*
X205232000Y-81788000D02*
X205232000Y-67437000D01*
X205232000Y-88138000D02*
X205232000Y-81788000D01*
X207840000Y-88900000D02*
X205994000Y-88900000D01*
X218503500Y-89535000D02*
X214312500Y-89530000D01*
X212788500Y-85725000D02*
X208597500Y-85720000D01*
X213550500Y-88773000D02*
X213555000Y-86487000D01*
X211074000Y-80894000D02*
X211074000Y-79624000D01*
X213936000Y-80894000D02*
X211074000Y-80899000D01*
X213936000Y-77465000D02*
X213936000Y-80894000D01*
X208475000Y-77465000D02*
X213936000Y-77465000D01*
X208475000Y-79624000D02*
X208475000Y-77465000D01*
X219265500Y-67437000D02*
X219265500Y-88773000D01*
X207840000Y-88900000D02*
X207835500Y-86487000D01*
M02*
