<?xml version="1.0" standalone="no"?>
 <!DOCTYPE svg PUBLIC "-//W3C//DTD SVG 1.1//EN" 
 "http://www.w3.org/Graphics/SVG/1.1/DTD/svg11.dtd"> 
<svg
  xmlns:svg="http://www.w3.org/2000/svg"
  xmlns="http://www.w3.org/2000/svg"
  xmlns:xlink="http://www.w3.org/1999/xlink"
  version="1.1"
  width="29.700220cm" height="21.000720cm" viewBox="0 0 116930 82680">
<title>SVG Picture created as sensor_voc-Sensor VOC.svg date 2021/01/18 13:44:11 </title>
  <desc>Picture generated by Eeschema-SVG </desc>
<g style="fill:#000000; fill-opacity:1;stroke:#000000; stroke-opacity:1;
stroke-linecap:round; stroke-linejoin:round;"
 transform="translate(0 0) scale(1 1)">
</g>
<g style="fill:#000000; fill-opacity:0.0; 
stroke:#000000; stroke-width:-10; stroke-opacity:1; 
stroke-linecap:round; stroke-linejoin:round;">
</g>
<g style="fill:#840000; fill-opacity:0.0; 
stroke:#840000; stroke-width:-10; stroke-opacity:1; 
stroke-linecap:round; stroke-linejoin:round;">
</g>
<g style="fill:#840000; fill-opacity:0.0; 
stroke:#840000; stroke-width:100; stroke-opacity:1; 
stroke-linecap:round; stroke-linejoin:round;">
</g>
<g style="fill:#840000; fill-opacity:0.0; 
stroke:#840000; stroke-width:60; stroke-opacity:1; 
stroke-linecap:round; stroke-linejoin:round;">
<rect x="69690" y="65360" width="42520" height="12600" rx="0" />
</g>
<g style="fill:#840000; fill-opacity:0.0; 
stroke:#840000; stroke-width:100; stroke-opacity:1; 
stroke-linecap:round; stroke-linejoin:round;">
</g>
<g style="fill:#840000; fill-opacity:0.0; 
stroke:#840000; stroke-width:60; stroke-opacity:1; 
stroke-linecap:round; stroke-linejoin:round;">
<rect x="3940" y="3940" width="109050" height="74800" rx="0" />
</g>
<g style="fill:#840000; fill-opacity:0.0; 
stroke:#840000; stroke-width:100; stroke-opacity:1; 
stroke-linecap:round; stroke-linejoin:round;">
</g>
<g style="fill:#840000; fill-opacity:0.0; 
stroke:#840000; stroke-width:60; stroke-opacity:1; 
stroke-linecap:round; stroke-linejoin:round;">
<rect x="4720" y="4720" width="107490" height="73240" rx="0" />
</g>
<g style="fill:#840000; fill-opacity:0.0; 
stroke:#840000; stroke-width:100; stroke-opacity:1; 
stroke-linecap:round; stroke-linejoin:round;">
</g>
<g style="fill:#840000; fill-opacity:0.0; 
stroke:#840000; stroke-width:60; stroke-opacity:1; 
stroke-linecap:round; stroke-linejoin:round;">
<path d="M23620 4720
L23620 3940
" />
</g>
<g style="fill:#840000; fill-opacity:0.0; 
stroke:#840000; stroke-width:100; stroke-opacity:1; 
stroke-linecap:round; stroke-linejoin:round;">
</g>
<g style="fill:#840000; fill-opacity:0.0; 
stroke:#840000; stroke-width:60; stroke-opacity:1; 
stroke-linecap:round; stroke-linejoin:round;">
<path d="M43310 4720
L43310 3940
" />
</g>
<g style="fill:#840000; fill-opacity:0.0; 
stroke:#840000; stroke-width:100; stroke-opacity:1; 
stroke-linecap:round; stroke-linejoin:round;">
</g>
<g style="fill:#840000; fill-opacity:0.0; 
stroke:#840000; stroke-width:60; stroke-opacity:1; 
stroke-linecap:round; stroke-linejoin:round;">
<path d="M62990 4720
L62990 3940
" />
</g>
<g style="fill:#840000; fill-opacity:0.0; 
stroke:#840000; stroke-width:100; stroke-opacity:1; 
stroke-linecap:round; stroke-linejoin:round;">
</g>
<g style="fill:#840000; fill-opacity:0.0; 
stroke:#840000; stroke-width:60; stroke-opacity:1; 
stroke-linecap:round; stroke-linejoin:round;">
<path d="M82680 4720
L82680 3940
" />
</g>
<g style="fill:#840000; fill-opacity:0.0; 
stroke:#840000; stroke-width:100; stroke-opacity:1; 
stroke-linecap:round; stroke-linejoin:round;">
</g>
<g style="fill:#840000; fill-opacity:0.0; 
stroke:#840000; stroke-width:60; stroke-opacity:1; 
stroke-linecap:round; stroke-linejoin:round;">
<path d="M102360 4720
L102360 3940
" />
</g>
<g style="fill:#840000; fill-opacity:0.0; 
stroke:#840000; stroke-width:100; stroke-opacity:1; 
stroke-linecap:round; stroke-linejoin:round;">
</g>
<g style="fill:#840000; fill-opacity:0.0; 
stroke:#840000; stroke-width:60; stroke-opacity:1; 
stroke-linecap:round; stroke-linejoin:round;">
<text x="13780" y="4580"
textLength="550" font-size="680" lengthAdjust="spacingAndGlyphs"
text-anchor="start" opacity="0">1</text>
<path d="M14190 4560
L13900 4560
" />
<path d="M14050 4560
L14050 4050
L14000 4120
L13950 4170
L13900 4190
" />
</g>
<g style="fill:#840000; fill-opacity:0.0; 
stroke:#840000; stroke-width:100; stroke-opacity:1; 
stroke-linecap:round; stroke-linejoin:round;">
</g>
<g style="fill:#840000; fill-opacity:0.0; 
stroke:#840000; stroke-width:60; stroke-opacity:1; 
stroke-linecap:round; stroke-linejoin:round;">
<text x="33460" y="4580"
textLength="550" font-size="680" lengthAdjust="spacingAndGlyphs"
text-anchor="start" opacity="0">2</text>
<path d="M33580 4090
L33610 4070
L33660 4050
L33780 4050
L33830 4070
L33850 4090
L33870 4140
L33870 4190
L33850 4260
L33560 4560
L33870 4560
" />
</g>
<g style="fill:#840000; fill-opacity:0.0; 
stroke:#840000; stroke-width:100; stroke-opacity:1; 
stroke-linecap:round; stroke-linejoin:round;">
</g>
<g style="fill:#840000; fill-opacity:0.0; 
stroke:#840000; stroke-width:60; stroke-opacity:1; 
stroke-linecap:round; stroke-linejoin:round;">
<text x="53150" y="4580"
textLength="550" font-size="680" lengthAdjust="spacingAndGlyphs"
text-anchor="start" opacity="0">3</text>
<path d="M53250 4050
L53560 4050
L53390 4240
L53470 4240
L53520 4260
L53540 4290
L53560 4340
L53560 4460
L53540 4510
L53520 4530
L53470 4560
L53320 4560
L53270 4530
L53250 4510
" />
</g>
<g style="fill:#840000; fill-opacity:0.0; 
stroke:#840000; stroke-width:100; stroke-opacity:1; 
stroke-linecap:round; stroke-linejoin:round;">
</g>
<g style="fill:#840000; fill-opacity:0.0; 
stroke:#840000; stroke-width:60; stroke-opacity:1; 
stroke-linecap:round; stroke-linejoin:round;">
<text x="72830" y="4580"
textLength="550" font-size="680" lengthAdjust="spacingAndGlyphs"
text-anchor="start" opacity="0">4</text>
<path d="M73200 4220
L73200 4560
" />
<path d="M73070 4020
L72950 4390
L73270 4390
" />
</g>
<g style="fill:#840000; fill-opacity:0.0; 
stroke:#840000; stroke-width:100; stroke-opacity:1; 
stroke-linecap:round; stroke-linejoin:round;">
</g>
<g style="fill:#840000; fill-opacity:0.0; 
stroke:#840000; stroke-width:60; stroke-opacity:1; 
stroke-linecap:round; stroke-linejoin:round;">
<text x="92520" y="4580"
textLength="550" font-size="680" lengthAdjust="spacingAndGlyphs"
text-anchor="start" opacity="0">5</text>
<path d="M92910 4050
L92670 4050
L92640 4290
L92670 4260
L92720 4240
L92840 4240
L92890 4260
L92910 4290
L92930 4340
L92930 4460
L92910 4510
L92890 4530
L92840 4560
L92720 4560
L92670 4530
L92640 4510
" />
</g>
<g style="fill:#840000; fill-opacity:0.0; 
stroke:#840000; stroke-width:100; stroke-opacity:1; 
stroke-linecap:round; stroke-linejoin:round;">
</g>
<g style="fill:#840000; fill-opacity:0.0; 
stroke:#840000; stroke-width:60; stroke-opacity:1; 
stroke-linecap:round; stroke-linejoin:round;">
<text x="112200" y="4580"
textLength="550" font-size="680" lengthAdjust="spacingAndGlyphs"
text-anchor="start" opacity="0">6</text>
<path d="M112570 4050
L112470 4050
L112420 4070
L112400 4090
L112350 4170
L112320 4260
L112320 4460
L112350 4510
L112370 4530
L112420 4560
L112520 4560
L112570 4530
L112590 4510
L112610 4460
L112610 4340
L112590 4290
L112570 4260
L112520 4240
L112420 4240
L112370 4260
L112350 4290
L112320 4340
" />
</g>
<g style="fill:#840000; fill-opacity:0.0; 
stroke:#840000; stroke-width:100; stroke-opacity:1; 
stroke-linecap:round; stroke-linejoin:round;">
</g>
<g style="fill:#840000; fill-opacity:0.0; 
stroke:#840000; stroke-width:60; stroke-opacity:1; 
stroke-linecap:round; stroke-linejoin:round;">
<path d="M23620 77960
L23620 78740
" />
</g>
<g style="fill:#840000; fill-opacity:0.0; 
stroke:#840000; stroke-width:100; stroke-opacity:1; 
stroke-linecap:round; stroke-linejoin:round;">
</g>
<g style="fill:#840000; fill-opacity:0.0; 
stroke:#840000; stroke-width:60; stroke-opacity:1; 
stroke-linecap:round; stroke-linejoin:round;">
<path d="M43310 77960
L43310 78740
" />
</g>
<g style="fill:#840000; fill-opacity:0.0; 
stroke:#840000; stroke-width:100; stroke-opacity:1; 
stroke-linecap:round; stroke-linejoin:round;">
</g>
<g style="fill:#840000; fill-opacity:0.0; 
stroke:#840000; stroke-width:60; stroke-opacity:1; 
stroke-linecap:round; stroke-linejoin:round;">
<path d="M62990 77960
L62990 78740
" />
</g>
<g style="fill:#840000; fill-opacity:0.0; 
stroke:#840000; stroke-width:100; stroke-opacity:1; 
stroke-linecap:round; stroke-linejoin:round;">
</g>
<g style="fill:#840000; fill-opacity:0.0; 
stroke:#840000; stroke-width:60; stroke-opacity:1; 
stroke-linecap:round; stroke-linejoin:round;">
<path d="M82680 77960
L82680 78740
" />
</g>
<g style="fill:#840000; fill-opacity:0.0; 
stroke:#840000; stroke-width:100; stroke-opacity:1; 
stroke-linecap:round; stroke-linejoin:round;">
</g>
<g style="fill:#840000; fill-opacity:0.0; 
stroke:#840000; stroke-width:60; stroke-opacity:1; 
stroke-linecap:round; stroke-linejoin:round;">
<path d="M102360 77960
L102360 78740
" />
</g>
<g style="fill:#840000; fill-opacity:0.0; 
stroke:#840000; stroke-width:100; stroke-opacity:1; 
stroke-linecap:round; stroke-linejoin:round;">
</g>
<g style="fill:#840000; fill-opacity:0.0; 
stroke:#840000; stroke-width:60; stroke-opacity:1; 
stroke-linecap:round; stroke-linejoin:round;">
<text x="13780" y="78600"
textLength="550" font-size="680" lengthAdjust="spacingAndGlyphs"
text-anchor="start" opacity="0">1</text>
<path d="M14190 78580
L13900 78580
" />
<path d="M14050 78580
L14050 78070
L14000 78140
L13950 78190
L13900 78210
" />
</g>
<g style="fill:#840000; fill-opacity:0.0; 
stroke:#840000; stroke-width:100; stroke-opacity:1; 
stroke-linecap:round; stroke-linejoin:round;">
</g>
<g style="fill:#840000; fill-opacity:0.0; 
stroke:#840000; stroke-width:60; stroke-opacity:1; 
stroke-linecap:round; stroke-linejoin:round;">
<text x="33460" y="78600"
textLength="550" font-size="680" lengthAdjust="spacingAndGlyphs"
text-anchor="start" opacity="0">2</text>
<path d="M33580 78110
L33610 78090
L33660 78070
L33780 78070
L33830 78090
L33850 78110
L33870 78160
L33870 78210
L33850 78280
L33560 78580
L33870 78580
" />
</g>
<g style="fill:#840000; fill-opacity:0.0; 
stroke:#840000; stroke-width:100; stroke-opacity:1; 
stroke-linecap:round; stroke-linejoin:round;">
</g>
<g style="fill:#840000; fill-opacity:0.0; 
stroke:#840000; stroke-width:60; stroke-opacity:1; 
stroke-linecap:round; stroke-linejoin:round;">
<text x="53150" y="78600"
textLength="550" font-size="680" lengthAdjust="spacingAndGlyphs"
text-anchor="start" opacity="0">3</text>
<path d="M53250 78070
L53560 78070
L53390 78260
L53470 78260
L53520 78280
L53540 78310
L53560 78360
L53560 78480
L53540 78530
L53520 78550
L53470 78580
L53320 78580
L53270 78550
L53250 78530
" />
</g>
<g style="fill:#840000; fill-opacity:0.0; 
stroke:#840000; stroke-width:100; stroke-opacity:1; 
stroke-linecap:round; stroke-linejoin:round;">
</g>
<g style="fill:#840000; fill-opacity:0.0; 
stroke:#840000; stroke-width:60; stroke-opacity:1; 
stroke-linecap:round; stroke-linejoin:round;">
<text x="72830" y="78600"
textLength="550" font-size="680" lengthAdjust="spacingAndGlyphs"
text-anchor="start" opacity="0">4</text>
<path d="M73200 78240
L73200 78580
" />
<path d="M73070 78040
L72950 78410
L73270 78410
" />
</g>
<g style="fill:#840000; fill-opacity:0.0; 
stroke:#840000; stroke-width:100; stroke-opacity:1; 
stroke-linecap:round; stroke-linejoin:round;">
</g>
<g style="fill:#840000; fill-opacity:0.0; 
stroke:#840000; stroke-width:60; stroke-opacity:1; 
stroke-linecap:round; stroke-linejoin:round;">
<text x="92520" y="78600"
textLength="550" font-size="680" lengthAdjust="spacingAndGlyphs"
text-anchor="start" opacity="0">5</text>
<path d="M92910 78070
L92670 78070
L92640 78310
L92670 78280
L92720 78260
L92840 78260
L92890 78280
L92910 78310
L92930 78360
L92930 78480
L92910 78530
L92890 78550
L92840 78580
L92720 78580
L92670 78550
L92640 78530
" />
</g>
<g style="fill:#840000; fill-opacity:0.0; 
stroke:#840000; stroke-width:100; stroke-opacity:1; 
stroke-linecap:round; stroke-linejoin:round;">
</g>
<g style="fill:#840000; fill-opacity:0.0; 
stroke:#840000; stroke-width:60; stroke-opacity:1; 
stroke-linecap:round; stroke-linejoin:round;">
<text x="112200" y="78600"
textLength="550" font-size="680" lengthAdjust="spacingAndGlyphs"
text-anchor="start" opacity="0">6</text>
<path d="M112570 78070
L112470 78070
L112420 78090
L112400 78110
L112350 78190
L112320 78280
L112320 78480
L112350 78530
L112370 78550
L112420 78580
L112520 78580
L112570 78550
L112590 78530
L112610 78480
L112610 78360
L112590 78310
L112570 78280
L112520 78260
L112420 78260
L112370 78280
L112350 78310
L112320 78360
" />
</g>
<g style="fill:#840000; fill-opacity:0.0; 
stroke:#840000; stroke-width:100; stroke-opacity:1; 
stroke-linecap:round; stroke-linejoin:round;">
</g>
<g style="fill:#840000; fill-opacity:0.0; 
stroke:#840000; stroke-width:60; stroke-opacity:1; 
stroke-linecap:round; stroke-linejoin:round;">
<path d="M3940 23620
L4720 23620
" />
</g>
<g style="fill:#840000; fill-opacity:0.0; 
stroke:#840000; stroke-width:100; stroke-opacity:1; 
stroke-linecap:round; stroke-linejoin:round;">
</g>
<g style="fill:#840000; fill-opacity:0.0; 
stroke:#840000; stroke-width:60; stroke-opacity:1; 
stroke-linecap:round; stroke-linejoin:round;">
<path d="M3940 43310
L4720 43310
" />
</g>
<g style="fill:#840000; fill-opacity:0.0; 
stroke:#840000; stroke-width:100; stroke-opacity:1; 
stroke-linecap:round; stroke-linejoin:round;">
</g>
<g style="fill:#840000; fill-opacity:0.0; 
stroke:#840000; stroke-width:60; stroke-opacity:1; 
stroke-linecap:round; stroke-linejoin:round;">
<path d="M3940 62990
L4720 62990
" />
</g>
<g style="fill:#840000; fill-opacity:0.0; 
stroke:#840000; stroke-width:100; stroke-opacity:1; 
stroke-linecap:round; stroke-linejoin:round;">
</g>
<g style="fill:#840000; fill-opacity:0.0; 
stroke:#840000; stroke-width:60; stroke-opacity:1; 
stroke-linecap:round; stroke-linejoin:round;">
<text x="4330" y="14030"
textLength="500" font-size="680" lengthAdjust="spacingAndGlyphs"
text-anchor="middle" opacity="0">A</text>
<path d="M4200 13860
L4450 13860
" />
<path d="M4160 14010
L4330 13500
L4500 14010
" />
</g>
<g style="fill:#840000; fill-opacity:0.0; 
stroke:#840000; stroke-width:100; stroke-opacity:1; 
stroke-linecap:round; stroke-linejoin:round;">
</g>
<g style="fill:#840000; fill-opacity:0.0; 
stroke:#840000; stroke-width:60; stroke-opacity:1; 
stroke-linecap:round; stroke-linejoin:round;">
<text x="4330" y="33710"
textLength="570" font-size="680" lengthAdjust="spacingAndGlyphs"
text-anchor="middle" opacity="0">B</text>
<path d="M4360 33420
L4430 33440
L4460 33470
L4480 33520
L4480 33590
L4460 33640
L4430 33660
L4390 33690
L4190 33690
L4190 33180
L4360 33180
L4410 33200
L4430 33220
L4460 33270
L4460 33320
L4430 33370
L4410 33390
L4360 33420
L4190 33420
" />
</g>
<g style="fill:#840000; fill-opacity:0.0; 
stroke:#840000; stroke-width:100; stroke-opacity:1; 
stroke-linecap:round; stroke-linejoin:round;">
</g>
<g style="fill:#840000; fill-opacity:0.0; 
stroke:#840000; stroke-width:60; stroke-opacity:1; 
stroke-linecap:round; stroke-linejoin:round;">
<text x="4330" y="53400"
textLength="570" font-size="680" lengthAdjust="spacingAndGlyphs"
text-anchor="middle" opacity="0">C</text>
<path d="M4480 53330
L4460 53350
L4390 53380
L4340 53380
L4260 53350
L4220 53300
L4190 53250
L4170 53160
L4170 53080
L4190 52990
L4220 52940
L4260 52890
L4340 52870
L4390 52870
L4460 52890
L4480 52910
" />
</g>
<g style="fill:#840000; fill-opacity:0.0; 
stroke:#840000; stroke-width:100; stroke-opacity:1; 
stroke-linecap:round; stroke-linejoin:round;">
</g>
<g style="fill:#840000; fill-opacity:0.0; 
stroke:#840000; stroke-width:60; stroke-opacity:1; 
stroke-linecap:round; stroke-linejoin:round;">
<text x="4330" y="73080"
textLength="570" font-size="680" lengthAdjust="spacingAndGlyphs"
text-anchor="middle" opacity="0">D</text>
<path d="M4190 73060
L4190 72550
L4310 72550
L4390 72570
L4430 72620
L4460 72670
L4480 72760
L4480 72840
L4460 72930
L4430 72980
L4390 73030
L4310 73060
L4190 73060
" />
</g>
<g style="fill:#840000; fill-opacity:0.0; 
stroke:#840000; stroke-width:100; stroke-opacity:1; 
stroke-linecap:round; stroke-linejoin:round;">
</g>
<g style="fill:#840000; fill-opacity:0.0; 
stroke:#840000; stroke-width:60; stroke-opacity:1; 
stroke-linecap:round; stroke-linejoin:round;">
<path d="M112990 23620
L112210 23620
" />
</g>
<g style="fill:#840000; fill-opacity:0.0; 
stroke:#840000; stroke-width:100; stroke-opacity:1; 
stroke-linecap:round; stroke-linejoin:round;">
</g>
<g style="fill:#840000; fill-opacity:0.0; 
stroke:#840000; stroke-width:60; stroke-opacity:1; 
stroke-linecap:round; stroke-linejoin:round;">
<path d="M112990 43310
L112210 43310
" />
</g>
<g style="fill:#840000; fill-opacity:0.0; 
stroke:#840000; stroke-width:100; stroke-opacity:1; 
stroke-linecap:round; stroke-linejoin:round;">
</g>
<g style="fill:#840000; fill-opacity:0.0; 
stroke:#840000; stroke-width:60; stroke-opacity:1; 
stroke-linecap:round; stroke-linejoin:round;">
<path d="M112990 62990
L112210 62990
" />
</g>
<g style="fill:#840000; fill-opacity:0.0; 
stroke:#840000; stroke-width:100; stroke-opacity:1; 
stroke-linecap:round; stroke-linejoin:round;">
</g>
<g style="fill:#840000; fill-opacity:0.0; 
stroke:#840000; stroke-width:60; stroke-opacity:1; 
stroke-linecap:round; stroke-linejoin:round;">
<text x="112600" y="14030"
textLength="500" font-size="680" lengthAdjust="spacingAndGlyphs"
text-anchor="middle" opacity="0">A</text>
<path d="M112470 13860
L112720 13860
" />
<path d="M112430 14010
L112600 13500
L112770 14010
" />
</g>
<g style="fill:#840000; fill-opacity:0.0; 
stroke:#840000; stroke-width:100; stroke-opacity:1; 
stroke-linecap:round; stroke-linejoin:round;">
</g>
<g style="fill:#840000; fill-opacity:0.0; 
stroke:#840000; stroke-width:60; stroke-opacity:1; 
stroke-linecap:round; stroke-linejoin:round;">
<text x="112600" y="33710"
textLength="570" font-size="680" lengthAdjust="spacingAndGlyphs"
text-anchor="middle" opacity="0">B</text>
<path d="M112630 33420
L112700 33440
L112730 33470
L112750 33520
L112750 33590
L112730 33640
L112700 33660
L112660 33690
L112460 33690
L112460 33180
L112630 33180
L112680 33200
L112700 33220
L112730 33270
L112730 33320
L112700 33370
L112680 33390
L112630 33420
L112460 33420
" />
</g>
<g style="fill:#840000; fill-opacity:0.0; 
stroke:#840000; stroke-width:100; stroke-opacity:1; 
stroke-linecap:round; stroke-linejoin:round;">
</g>
<g style="fill:#840000; fill-opacity:0.0; 
stroke:#840000; stroke-width:60; stroke-opacity:1; 
stroke-linecap:round; stroke-linejoin:round;">
<text x="112600" y="53400"
textLength="570" font-size="680" lengthAdjust="spacingAndGlyphs"
text-anchor="middle" opacity="0">C</text>
<path d="M112750 53330
L112730 53350
L112660 53380
L112610 53380
L112530 53350
L112490 53300
L112460 53250
L112440 53160
L112440 53080
L112460 52990
L112490 52940
L112530 52890
L112610 52870
L112660 52870
L112730 52890
L112750 52910
" />
</g>
<g style="fill:#840000; fill-opacity:0.0; 
stroke:#840000; stroke-width:100; stroke-opacity:1; 
stroke-linecap:round; stroke-linejoin:round;">
</g>
<g style="fill:#840000; fill-opacity:0.0; 
stroke:#840000; stroke-width:60; stroke-opacity:1; 
stroke-linecap:round; stroke-linejoin:round;">
<text x="112600" y="73080"
textLength="570" font-size="680" lengthAdjust="spacingAndGlyphs"
text-anchor="middle" opacity="0">D</text>
<path d="M112460 73060
L112460 72550
L112580 72550
L112660 72570
L112700 72620
L112730 72670
L112750 72760
L112750 72840
L112730 72930
L112700 72980
L112660 73030
L112580 73060
L112460 73060
" />
</g>
<g style="fill:#840000; fill-opacity:0.0; 
stroke:#840000; stroke-width:100; stroke-opacity:1; 
stroke-linecap:round; stroke-linejoin:round;">
</g>
<g style="fill:#840000; fill-opacity:0.0; 
stroke:#840000; stroke-width:60; stroke-opacity:1; 
stroke-linecap:round; stroke-linejoin:round;">
<text x="78740" y="76320"
textLength="2760" font-size="780" lengthAdjust="spacingAndGlyphs"
text-anchor="start" opacity="0">Date: </text>
<path d="M78910 76290
L78910 75700
L79050 75700
L79130 75730
L79190 75790
L79210 75840
L79240 75950
L79240 76040
L79210 76150
L79190 76210
L79130 76260
L79050 76290
L78910 76290
" />
<path d="M79750 76290
L79750 75980
L79720 75930
L79660 75900
L79550 75900
L79500 75930
" />
<path d="M79750 76260
L79690 76290
L79550 76290
L79500 76260
L79470 76210
L79470 76150
L79500 76100
L79550 76070
L79690 76070
L79750 76040
" />
<path d="M79950 75900
L80170 75900
" />
<path d="M80030 75700
L80030 76210
L80060 76260
L80110 76290
L80170 76290
" />
<path d="M80590 76260
L80540 76290
L80420 76290
L80370 76260
L80340 76210
L80340 75980
L80370 75930
L80420 75900
L80540 75900
L80590 75930
L80620 75980
L80620 76040
L80340 76100
" />
<path d="M80870 76240
L80900 76260
L80870 76290
L80840 76260
L80870 76240
L80870 76290
" />
<path d="M80870 75930
L80900 75950
L80870 75980
L80840 75950
L80870 75930
L80870 75980
" />
</g>
<g style="fill:#840000; fill-opacity:0.0; 
stroke:#840000; stroke-width:100; stroke-opacity:1; 
stroke-linecap:round; stroke-linejoin:round;">
</g>
<g style="fill:#840000; fill-opacity:0.0; 
stroke:#840000; stroke-width:60; stroke-opacity:1; 
stroke-linecap:round; stroke-linejoin:round;">
<path d="M69690 76580
L112210 76580
" />
</g>
<g style="fill:#840000; fill-opacity:0.0; 
stroke:#840000; stroke-width:100; stroke-opacity:1; 
stroke-linecap:round; stroke-linejoin:round;">
</g>
<g style="fill:#840000; fill-opacity:0.0; 
stroke:#840000; stroke-width:60; stroke-opacity:1; 
stroke-linecap:round; stroke-linejoin:round;">
<text x="70080" y="77420"
textLength="26670" font-size="780" lengthAdjust="spacingAndGlyphs"
text-anchor="start" opacity="0">KiCad E.D.A.  eeschema 5.1.7-a382d34a8~87~ubuntu18.04.1</text>
<path d="M70250 77390
L70250 76800
" />
<path d="M70580 77390
L70330 77050
" />
<path d="M70580 76800
L70250 77140
" />
<path d="M70840 77390
L70840 77000
" />
<path d="M70840 76800
L70810 76830
L70840 76860
L70860 76830
L70840 76800
L70840 76860
" />
<path d="M71450 77340
L71430 77360
L71340 77390
L71290 77390
L71200 77360
L71140 77310
L71120 77250
L71090 77140
L71090 77050
L71120 76940
L71140 76890
L71200 76830
L71290 76800
L71340 76800
L71430 76830
L71450 76860
" />
<path d="M71960 77390
L71960 77080
L71930 77030
L71880 77000
L71760 77000
L71710 77030
" />
<path d="M71960 77360
L71900 77390
L71760 77390
L71710 77360
L71680 77310
L71680 77250
L71710 77200
L71760 77170
L71900 77170
L71960 77140
" />
<path d="M72490 77390
L72490 76800
" />
<path d="M72490 77360
L72440 77390
L72320 77390
L72270 77360
L72240 77340
L72210 77280
L72210 77110
L72240 77050
L72270 77030
L72320 77000
L72440 77000
L72490 77030
" />
<path d="M73220 77080
L73420 77080
" />
<path d="M73500 77390
L73220 77390
L73220 76800
L73500 76800
" />
<path d="M73760 77340
L73790 77360
L73760 77390
L73730 77360
L73760 77340
L73760 77390
" />
<path d="M74040 77390
L74040 76800
L74180 76800
L74260 76830
L74320 76890
L74350 76940
L74380 77050
L74380 77140
L74350 77250
L74320 77310
L74260 77360
L74180 77390
L74040 77390
" />
<path d="M74630 77340
L74660 77360
L74630 77390
L74600 77360
L74630 77340
L74630 77390
" />
<path d="M74880 77220
L75160 77220
" />
<path d="M74830 77390
L75020 76800
L75220 77390
" />
<path d="M75420 77340
L75440 77360
L75420 77390
L75390 77360
L75420 77340
L75420 77390
" />
<path d="M76820 77360
L76760 77390
L76650 77390
L76600 77360
L76570 77310
L76570 77080
L76600 77030
L76650 77000
L76760 77000
L76820 77030
L76850 77080
L76850 77140
L76570 77200
" />
<path d="M77330 77360
L77270 77390
L77160 77390
L77100 77360
L77070 77310
L77070 77080
L77100 77030
L77160 77000
L77270 77000
L77330 77030
L77350 77080
L77350 77140
L77070 77200
" />
<path d="M77580 77360
L77630 77390
L77750 77390
L77800 77360
L77830 77310
L77830 77280
L77800 77220
L77750 77200
L77660 77200
L77610 77170
L77580 77110
L77580 77080
L77610 77030
L77660 77000
L77750 77000
L77800 77030
" />
<path d="M78340 77360
L78280 77390
L78170 77390
L78110 77360
L78080 77340
L78060 77280
L78060 77110
L78080 77050
L78110 77030
L78170 77000
L78280 77000
L78340 77030
" />
<path d="M78590 77390
L78590 76800
" />
<path d="M78840 77390
L78840 77080
L78810 77030
L78760 77000
L78670 77000
L78620 77030
L78590 77050
" />
<path d="M79350 77360
L79290 77390
L79180 77390
L79120 77360
L79100 77310
L79100 77080
L79120 77030
L79180 77000
L79290 77000
L79350 77030
L79380 77080
L79380 77140
L79100 77200
" />
<path d="M79630 77390
L79630 77000
" />
<path d="M79630 77050
L79660 77030
L79710 77000
L79800 77000
L79850 77030
L79880 77080
L79880 77390
" />
<path d="M79880 77080
L79910 77030
L79970 77000
L80050 77000
L80110 77030
L80140 77080
L80140 77390
" />
<path d="M80670 77390
L80670 77080
L80640 77030
L80580 77000
L80470 77000
L80420 77030
" />
<path d="M80670 77360
L80610 77390
L80470 77390
L80420 77360
L80390 77310
L80390 77250
L80420 77200
L80470 77170
L80610 77170
L80670 77140
" />
<path d="M81680 76800
L81400 76800
L81370 77080
L81400 77050
L81460 77030
L81600 77030
L81650 77050
L81680 77080
L81710 77140
L81710 77280
L81680 77340
L81650 77360
L81600 77390
L81460 77390
L81400 77360
L81370 77340
" />
<path d="M81960 77340
L81990 77360
L81960 77390
L81930 77360
L81960 77340
L81960 77390
" />
<path d="M82550 77390
L82210 77390
" />
<path d="M82380 77390
L82380 76800
L82330 76890
L82270 76940
L82210 76970
" />
<path d="M82800 77340
L82830 77360
L82800 77390
L82780 77360
L82800 77340
L82800 77390
" />
<path d="M83030 76800
L83420 76800
L83170 77390
" />
<path d="M83650 77170
L84100 77170
" />
<path d="M84630 77390
L84630 77080
L84600 77030
L84550 77000
L84430 77000
L84380 77030
" />
<path d="M84630 77360
L84570 77390
L84430 77390
L84380 77360
L84350 77310
L84350 77250
L84380 77200
L84430 77170
L84570 77170
L84630 77140
" />
<path d="M84860 76800
L85220 76800
L85020 77030
L85110 77030
L85160 77050
L85190 77080
L85220 77140
L85220 77280
L85190 77340
L85160 77360
L85110 77390
L84940 77390
L84880 77360
L84860 77340
" />
<path d="M85560 77050
L85500 77030
L85470 77000
L85450 76940
L85450 76910
L85470 76860
L85500 76830
L85560 76800
L85670 76800
L85730 76830
L85750 76860
L85780 76910
L85780 76940
L85750 77000
L85730 77030
L85670 77050
L85560 77050
L85500 77080
L85470 77110
L85450 77170
L85450 77280
L85470 77340
L85500 77360
L85560 77390
L85670 77390
L85730 77360
L85750 77340
L85780 77280
L85780 77170
L85750 77110
L85730 77080
L85670 77050
" />
<path d="M86010 76860
L86040 76830
L86090 76800
L86230 76800
L86290 76830
L86320 76860
L86340 76910
L86340 76970
L86320 77050
L85980 77390
L86340 77390
" />
<path d="M86850 77390
L86850 76800
" />
<path d="M86850 77360
L86790 77390
L86680 77390
L86630 77360
L86600 77340
L86570 77280
L86570 77110
L86600 77050
L86630 77030
L86680 77000
L86790 77000
L86850 77030
" />
<path d="M87070 76800
L87440 76800
L87240 77030
L87330 77030
L87380 77050
L87410 77080
L87440 77140
L87440 77280
L87410 77340
L87380 77360
L87330 77390
L87160 77390
L87100 77360
L87070 77340
" />
<path d="M87950 77000
L87950 77390
" />
<path d="M87810 76770
L87660 77200
L88030 77200
" />
<path d="M88510 77390
L88510 77080
L88480 77030
L88420 77000
L88310 77000
L88250 77030
" />
<path d="M88510 77360
L88450 77390
L88310 77390
L88250 77360
L88230 77310
L88230 77250
L88250 77200
L88310 77170
L88450 77170
L88510 77140
" />
<path d="M88870 77050
L88820 77030
L88790 77000
L88760 76940
L88760 76910
L88790 76860
L88820 76830
L88870 76800
L88990 76800
L89040 76830
L89070 76860
L89100 76910
L89100 76940
L89070 77000
L89040 77030
L88990 77050
L88870 77050
L88820 77080
L88790 77110
L88760 77170
L88760 77280
L88790 77340
L88820 77360
L88870 77390
L88990 77390
L89040 77360
L89070 77340
L89100 77280
L89100 77170
L89070 77110
L89040 77080
L88990 77050
" />
<path d="M89210 76640
L89770 76640
" />
<path d="M89430 77050
L89380 77030
L89350 77000
L89320 76940
L89320 76910
L89350 76860
L89380 76830
L89430 76800
L89550 76800
L89600 76830
L89630 76860
L89660 76910
L89660 76940
L89630 77000
L89600 77030
L89550 77050
L89430 77050
L89380 77080
L89350 77110
L89320 77170
L89320 77280
L89350 77340
L89380 77360
L89430 77390
L89550 77390
L89600 77360
L89630 77340
L89660 77280
L89660 77170
L89630 77110
L89600 77080
L89550 77050
" />
<path d="M89770 76640
L90330 76640
" />
<path d="M89860 76800
L90250 76800
L90000 77390
" />
<path d="M90730 77000
L90730 77390
" />
<path d="M90470 77000
L90470 77310
L90500 77360
L90560 77390
L90640 77390
L90700 77360
L90730 77340
" />
<path d="M91010 77390
L91010 76800
" />
<path d="M91010 77030
L91060 77000
L91180 77000
L91230 77030
L91260 77050
L91290 77110
L91290 77280
L91260 77340
L91230 77360
L91180 77390
L91060 77390
L91010 77360
" />
<path d="M91790 77000
L91790 77390
" />
<path d="M91540 77000
L91540 77310
L91570 77360
L91630 77390
L91710 77390
L91770 77360
L91790 77340
" />
<path d="M92080 77000
L92080 77390
" />
<path d="M92080 77050
L92100 77030
L92160 77000
L92240 77000
L92300 77030
L92330 77080
L92330 77390
" />
<path d="M92520 77000
L92750 77000
" />
<path d="M92610 76800
L92610 77310
L92640 77360
L92690 77390
L92750 77390
" />
<path d="M93200 77000
L93200 77390
" />
<path d="M92950 77000
L92950 77310
L92970 77360
L93030 77390
L93110 77390
L93170 77360
L93200 77340
" />
<path d="M93790 77390
L93450 77390
" />
<path d="M93620 77390
L93620 76800
L93560 76890
L93510 76940
L93450 76970
" />
<path d="M94130 77050
L94070 77030
L94040 77000
L94010 76940
L94010 76910
L94040 76860
L94070 76830
L94130 76800
L94240 76800
L94290 76830
L94320 76860
L94350 76910
L94350 76940
L94320 77000
L94290 77030
L94240 77050
L94130 77050
L94070 77080
L94040 77110
L94010 77170
L94010 77280
L94040 77340
L94070 77360
L94130 77390
L94240 77390
L94290 77360
L94320 77340
L94350 77280
L94350 77170
L94320 77110
L94290 77080
L94240 77050
" />
<path d="M94600 77340
L94630 77360
L94600 77390
L94580 77360
L94600 77340
L94600 77390
" />
<path d="M95000 76800
L95050 76800
L95110 76830
L95140 76860
L95170 76910
L95190 77030
L95190 77170
L95170 77280
L95140 77340
L95110 77360
L95050 77390
L95000 77390
L94940 77360
L94910 77340
L94880 77280
L94860 77170
L94860 77030
L94880 76910
L94910 76860
L94940 76830
L95000 76800
" />
<path d="M95700 77000
L95700 77390
" />
<path d="M95560 76770
L95420 77200
L95780 77200
" />
<path d="M96010 77340
L96040 77360
L96010 77390
L95980 77360
L96010 77340
L96010 77390
" />
<path d="M96600 77390
L96260 77390
" />
<path d="M96430 77390
L96430 76800
L96370 76890
L96320 76940
L96260 76970
" />
</g>
<g style="fill:#840000; fill-opacity:0.0; 
stroke:#840000; stroke-width:100; stroke-opacity:1; 
stroke-linecap:round; stroke-linejoin:round;">
</g>
<g style="fill:#840000; fill-opacity:0.0; 
stroke:#840000; stroke-width:60; stroke-opacity:1; 
stroke-linecap:round; stroke-linejoin:round;">
<path d="M69690 75400
L112210 75400
" />
</g>
<g style="fill:#840000; fill-opacity:0.0; 
stroke:#840000; stroke-width:100; stroke-opacity:1; 
stroke-linecap:round; stroke-linejoin:round;">
</g>
<g style="fill:#840000; fill-opacity:0.0; 
stroke:#840000; stroke-width:120; stroke-opacity:1; 
stroke-linecap:round; stroke-linejoin:round;">
<text x="103540" y="76320"
textLength="2340" font-size="780" lengthAdjust="spacingAndGlyphs"
text-anchor="start" opacity="0">Rev: </text>
<path d="M104090 76290
L103890 76010
" />
<path d="M103750 76290
L103750 75700
L103980 75700
L104030 75730
L104060 75760
L104090 75810
L104090 75900
L104060 75950
L104030 75980
L103980 76010
L103750 76010
" />
<path d="M104570 76260
L104510 76290
L104400 76290
L104340 76260
L104320 76210
L104320 75980
L104340 75930
L104400 75900
L104510 75900
L104570 75930
L104600 75980
L104600 76040
L104320 76100
" />
<path d="M104790 75900
L104930 76290
L105070 75900
" />
<path d="M105300 76240
L105330 76260
L105300 76290
L105270 76260
L105300 76240
L105300 76290
" />
<path d="M105300 75930
L105330 75950
L105300 75980
L105270 75950
L105300 75930
L105300 75980
" />
</g>
<g style="fill:#840000; fill-opacity:0.0; 
stroke:#840000; stroke-width:100; stroke-opacity:1; 
stroke-linecap:round; stroke-linejoin:round;">
</g>
<g style="fill:#840000; fill-opacity:0.0; 
stroke:#840000; stroke-width:60; stroke-opacity:1; 
stroke-linecap:round; stroke-linejoin:round;">
<text x="70080" y="76320"
textLength="3780" font-size="780" lengthAdjust="spacingAndGlyphs"
text-anchor="start" opacity="0">Size: A4</text>
<path d="M70220 76260
L70300 76290
L70440 76290
L70500 76260
L70530 76240
L70550 76180
L70550 76120
L70530 76070
L70500 76040
L70440 76010
L70330 75980
L70270 75950
L70250 75930
L70220 75870
L70220 75810
L70250 75760
L70270 75730
L70330 75700
L70470 75700
L70550 75730
" />
<path d="M70810 76290
L70810 75900
" />
<path d="M70810 75700
L70780 75730
L70810 75760
L70840 75730
L70810 75700
L70810 75760
" />
<path d="M71030 75900
L71340 75900
L71030 76290
L71340 76290
" />
<path d="M71790 76260
L71730 76290
L71620 76290
L71570 76260
L71540 76210
L71540 75980
L71570 75930
L71620 75900
L71730 75900
L71790 75930
L71820 75980
L71820 76040
L71540 76100
" />
<path d="M72070 76240
L72100 76260
L72070 76290
L72040 76260
L72070 76240
L72070 76290
" />
<path d="M72070 75930
L72100 75950
L72070 75980
L72040 75950
L72070 75930
L72070 75980
" />
<path d="M72770 76120
L73060 76120
" />
<path d="M72720 76290
L72910 75700
L73110 76290
" />
<path d="M73560 75900
L73560 76290
" />
<path d="M73420 75670
L73280 76100
L73650 76100
" />
</g>
<g style="fill:#840000; fill-opacity:0.0; 
stroke:#840000; stroke-width:100; stroke-opacity:1; 
stroke-linecap:round; stroke-linejoin:round;">
</g>
<g style="fill:#840000; fill-opacity:0.0; 
stroke:#840000; stroke-width:60; stroke-opacity:1; 
stroke-linecap:round; stroke-linejoin:round;">
<text x="103540" y="77420"
textLength="3350" font-size="780" lengthAdjust="spacingAndGlyphs"
text-anchor="start" opacity="0">Id: 5/8</text>
<path d="M103710 77390
L103710 76800
" />
<path d="M104240 77390
L104240 76800
" />
<path d="M104240 77360
L104180 77390
L104070 77390
L104010 77360
L103990 77340
L103960 77280
L103960 77110
L103990 77050
L104010 77030
L104070 77000
L104180 77000
L104240 77030
" />
<path d="M104520 77340
L104550 77360
L104520 77390
L104490 77360
L104520 77340
L104520 77390
" />
<path d="M104520 77030
L104550 77050
L104520 77080
L104490 77050
L104520 77030
L104520 77080
" />
<path d="M105530 76800
L105250 76800
L105220 77080
L105250 77050
L105310 77030
L105450 77030
L105500 77050
L105530 77080
L105560 77140
L105560 77280
L105530 77340
L105500 77360
L105450 77390
L105310 77390
L105250 77360
L105220 77340
" />
<path d="M106230 76770
L105730 77530
" />
<path d="M106520 77050
L106460 77030
L106430 77000
L106400 76940
L106400 76910
L106430 76860
L106460 76830
L106520 76800
L106630 76800
L106680 76830
L106710 76860
L106740 76910
L106740 76940
L106710 77000
L106680 77030
L106630 77050
L106520 77050
L106460 77080
L106430 77110
L106400 77170
L106400 77280
L106430 77340
L106460 77360
L106520 77390
L106630 77390
L106680 77360
L106710 77340
L106740 77280
L106740 77170
L106710 77110
L106680 77080
L106630 77050
" />
</g>
<g style="fill:#840000; fill-opacity:0.0; 
stroke:#840000; stroke-width:100; stroke-opacity:1; 
stroke-linecap:round; stroke-linejoin:round;">
</g>
<g style="fill:#840000; fill-opacity:0.0; 
stroke:#840000; stroke-width:60; stroke-opacity:1; 
stroke-linecap:round; stroke-linejoin:round;">
<path d="M69690 73820
L112210 73820
" />
</g>
<g style="fill:#840000; fill-opacity:0.0; 
stroke:#840000; stroke-width:100; stroke-opacity:1; 
stroke-linecap:round; stroke-linejoin:round;">
</g>
<g style="fill:#840000; fill-opacity:0.0; 
stroke:#840000; stroke-width:160; stroke-opacity:1; 
stroke-linecap:round; stroke-linejoin:round;">
<text x="70080" y="74920"
textLength="3710" font-size="1050" lengthAdjust="spacingAndGlyphs"
text-anchor="start" opacity="0">Title: </text>
<path d="M70360 74090
L70810 74090
" />
<path d="M70480 74880
L70580 74090
" />
<path d="M70970 74880
L71040 74360
" />
<path d="M71070 74090
L71030 74130
L71060 74170
L71110 74130
L71070 74090
L71060 74170
" />
<path d="M71300 74360
L71600 74360
" />
<path d="M71450 74090
L71360 74770
L71390 74840
L71460 74880
L71540 74880
" />
<path d="M71910 74880
L71840 74840
L71820 74770
L71900 74090
" />
<path d="M72520 74840
L72440 74880
L72290 74880
L72220 74840
L72190 74770
L72230 74470
L72280 74390
L72360 74360
L72510 74360
L72580 74390
L72610 74470
L72600 74540
L72210 74620
" />
<path d="M72900 74810
L72930 74840
L72890 74880
L72860 74840
L72900 74810
L72890 74880
" />
<path d="M72950 74390
L72990 74430
L72940 74470
L72910 74430
L72950 74390
L72940 74470
" />
</g>
<g style="fill:#840000; fill-opacity:0.0; 
stroke:#840000; stroke-width:100; stroke-opacity:1; 
stroke-linecap:round; stroke-linejoin:round;">
</g>
<g style="fill:#840000; fill-opacity:0.0; 
stroke:#840000; stroke-width:60; stroke-opacity:1; 
stroke-linecap:round; stroke-linejoin:round;">
<text x="70080" y="73400"
textLength="9170" font-size="780" lengthAdjust="spacingAndGlyphs"
text-anchor="start" opacity="0">File: sensor_voc.sch</text>
<path d="M70440 73060
L70250 73060
" />
<path d="M70250 73370
L70250 72780
L70530 72780
" />
<path d="M70750 73370
L70750 72980
" />
<path d="M70750 72780
L70720 72810
L70750 72840
L70780 72810
L70750 72780
L70750 72840
" />
<path d="M71120 73370
L71060 73340
L71030 73290
L71030 72780
" />
<path d="M71570 73340
L71510 73370
L71400 73370
L71340 73340
L71310 73290
L71310 73060
L71340 73010
L71400 72980
L71510 72980
L71570 73010
L71590 73060
L71590 73120
L71310 73180
" />
<path d="M71850 73320
L71880 73340
L71850 73370
L71820 73340
L71850 73320
L71850 73370
" />
<path d="M71850 73010
L71880 73030
L71850 73060
L71820 73030
L71850 73010
L71850 73060
" />
<path d="M72550 73340
L72610 73370
L72720 73370
L72770 73340
L72800 73290
L72800 73260
L72770 73200
L72720 73180
L72630 73180
L72580 73150
L72550 73090
L72550 73060
L72580 73010
L72630 72980
L72720 72980
L72770 73010
" />
<path d="M73280 73340
L73220 73370
L73110 73370
L73060 73340
L73030 73290
L73030 73060
L73060 73010
L73110 72980
L73220 72980
L73280 73010
L73310 73060
L73310 73120
L73030 73180
" />
<path d="M73560 72980
L73560 73370
" />
<path d="M73560 73030
L73590 73010
L73650 72980
L73730 72980
L73790 73010
L73810 73060
L73810 73370
" />
<path d="M74070 73340
L74120 73370
L74240 73370
L74290 73340
L74320 73290
L74320 73260
L74290 73200
L74240 73180
L74150 73180
L74090 73150
L74070 73090
L74070 73060
L74090 73010
L74150 72980
L74240 72980
L74290 73010
" />
<path d="M74660 73370
L74600 73340
L74570 73320
L74540 73260
L74540 73090
L74570 73030
L74600 73010
L74660 72980
L74740 72980
L74800 73010
L74830 73030
L74850 73090
L74850 73260
L74830 73320
L74800 73340
L74740 73370
L74660 73370
" />
<path d="M75110 73370
L75110 72980
" />
<path d="M75110 73090
L75130 73030
L75160 73010
L75220 72980
L75270 72980
" />
<path d="M75330 73430
L75780 73430
" />
<path d="M75860 72980
L76010 73370
L76150 72980
" />
<path d="M76450 73370
L76400 73340
L76370 73320
L76340 73260
L76340 73090
L76370 73030
L76400 73010
L76450 72980
L76540 72980
L76600 73010
L76620 73030
L76650 73090
L76650 73260
L76620 73320
L76600 73340
L76540 73370
L76450 73370
" />
<path d="M77160 73340
L77100 73370
L76990 73370
L76930 73340
L76900 73320
L76880 73260
L76880 73090
L76900 73030
L76930 73010
L76990 72980
L77100 72980
L77160 73010
" />
<path d="M77410 73320
L77440 73340
L77410 73370
L77380 73340
L77410 73320
L77410 73370
" />
<path d="M77660 73340
L77720 73370
L77830 73370
L77890 73340
L77920 73290
L77920 73260
L77890 73200
L77830 73180
L77750 73180
L77690 73150
L77660 73090
L77660 73060
L77690 73010
L77750 72980
L77830 72980
L77890 73010
" />
<path d="M78420 73340
L78370 73370
L78250 73370
L78200 73340
L78170 73320
L78140 73260
L78140 73090
L78170 73030
L78200 73010
L78250 72980
L78370 72980
L78420 73010
" />
<path d="M78670 73370
L78670 72780
" />
<path d="M78930 73370
L78930 73060
L78900 73010
L78840 72980
L78760 72980
L78700 73010
L78670 73030
" />
</g>
<g style="fill:#840000; fill-opacity:0.0; 
stroke:#840000; stroke-width:100; stroke-opacity:1; 
stroke-linecap:round; stroke-linejoin:round;">
</g>
<g style="fill:#840000; fill-opacity:0.0; 
stroke:#840000; stroke-width:60; stroke-opacity:1; 
stroke-linecap:round; stroke-linejoin:round;">
<path d="M69690 71460
L112210 71460
" />
</g>
<g style="fill:#840000; fill-opacity:0.0; 
stroke:#840000; stroke-width:100; stroke-opacity:1; 
stroke-linecap:round; stroke-linejoin:round;">
</g>
<g style="fill:#840000; fill-opacity:0.0; 
stroke:#840000; stroke-width:60; stroke-opacity:1; 
stroke-linecap:round; stroke-linejoin:round;">
<text x="70080" y="72340"
textLength="9610" font-size="780" lengthAdjust="spacingAndGlyphs"
text-anchor="start" opacity="0">Sheet: /Sensor VOC/</text>
<path d="M70220 72280
L70300 72310
L70440 72310
L70500 72280
L70530 72260
L70550 72200
L70550 72140
L70530 72090
L70500 72060
L70440 72030
L70330 72000
L70270 71970
L70250 71950
L70220 71890
L70220 71830
L70250 71780
L70270 71750
L70330 71720
L70470 71720
L70550 71750
" />
<path d="M70810 72310
L70810 71720
" />
<path d="M71060 72310
L71060 72000
L71030 71950
L70980 71920
L70890 71920
L70840 71950
L70810 71970
" />
<path d="M71570 72280
L71510 72310
L71400 72310
L71340 72280
L71310 72230
L71310 72000
L71340 71950
L71400 71920
L71510 71920
L71570 71950
L71590 72000
L71590 72060
L71310 72120
" />
<path d="M72070 72280
L72020 72310
L71900 72310
L71850 72280
L71820 72230
L71820 72000
L71850 71950
L71900 71920
L72020 71920
L72070 71950
L72100 72000
L72100 72060
L71820 72120
" />
<path d="M72270 71920
L72490 71920
" />
<path d="M72350 71720
L72350 72230
L72380 72280
L72440 72310
L72490 72310
" />
<path d="M72690 72260
L72720 72280
L72690 72310
L72660 72280
L72690 72260
L72690 72310
" />
<path d="M72690 71950
L72720 71970
L72690 72000
L72660 71970
L72690 71950
L72690 72000
" />
<path d="M73840 71690
L73340 72450
" />
<path d="M74010 72280
L74090 72310
L74240 72310
L74290 72280
L74320 72260
L74350 72200
L74350 72140
L74320 72090
L74290 72060
L74240 72030
L74120 72000
L74070 71970
L74040 71950
L74010 71890
L74010 71830
L74040 71780
L74070 71750
L74120 71720
L74260 71720
L74350 71750
" />
<path d="M74830 72280
L74770 72310
L74660 72310
L74600 72280
L74570 72230
L74570 72000
L74600 71950
L74660 71920
L74770 71920
L74830 71950
L74850 72000
L74850 72060
L74570 72120
" />
<path d="M75110 71920
L75110 72310
" />
<path d="M75110 71970
L75130 71950
L75190 71920
L75270 71920
L75330 71950
L75360 72000
L75360 72310
" />
<path d="M75610 72280
L75670 72310
L75780 72310
L75840 72280
L75860 72230
L75860 72200
L75840 72140
L75780 72120
L75700 72120
L75640 72090
L75610 72030
L75610 72000
L75640 71950
L75700 71920
L75780 71920
L75840 71950
" />
<path d="M76200 72310
L76150 72280
L76120 72260
L76090 72200
L76090 72030
L76120 71970
L76150 71950
L76200 71920
L76290 71920
L76340 71950
L76370 71970
L76400 72030
L76400 72200
L76370 72260
L76340 72280
L76290 72310
L76200 72310
" />
<path d="M76650 72310
L76650 71920
" />
<path d="M76650 72030
L76680 71970
L76710 71950
L76760 71920
L76820 71920
" />
<path d="M77380 71720
L77580 72310
L77780 71720
" />
<path d="M78080 71720
L78200 71720
L78250 71750
L78310 71810
L78340 71920
L78340 72120
L78310 72230
L78250 72280
L78200 72310
L78080 72310
L78030 72280
L77970 72230
L77940 72120
L77940 71920
L77970 71810
L78030 71750
L78080 71720
" />
<path d="M78930 72260
L78900 72280
L78810 72310
L78760 72310
L78670 72280
L78620 72230
L78590 72170
L78560 72060
L78560 71970
L78590 71860
L78620 71810
L78670 71750
L78760 71720
L78810 71720
L78900 71750
L78930 71780
" />
<path d="M79600 71690
L79100 72450
" />
</g>
<g style="fill:#840000; fill-opacity:0.0; 
stroke:#840000; stroke-width:100; stroke-opacity:1; 
stroke-linecap:round; stroke-linejoin:round;">
</g>
<g style="fill:#840000; fill-opacity:0.0; 
stroke:#840000; stroke-width:60; stroke-opacity:1; 
stroke-linecap:round; stroke-linejoin:round;">
<path d="M77560 75400
L77560 76580
" />
</g>
<g style="fill:#840000; fill-opacity:0.0; 
stroke:#840000; stroke-width:100; stroke-opacity:1; 
stroke-linecap:round; stroke-linejoin:round;">
</g>
<g style="fill:#840000; fill-opacity:0.0; 
stroke:#840000; stroke-width:60; stroke-opacity:1; 
stroke-linecap:round; stroke-linejoin:round;">
<path d="M102760 75400
L102760 77960
" />
</g>
<g style="fill:#840000; fill-opacity:0.0; 
stroke:#840000; stroke-width:0; stroke-opacity:1; 
stroke-linecap:round; stroke-linejoin:round;">
<g >
</g>
<g style="fill:#840000; fill-opacity:0.0; 
stroke:#840000; stroke-width:60; stroke-opacity:1; 
stroke-linecap:round; stroke-linejoin:round;">
<path style="fill:#840000; fill-opacity:0.0; 
stroke:#840000; stroke-width:60; stroke-opacity:1; 
stroke-linecap:round; stroke-linejoin:round;fill:none"
d="M 57000,46500
57000,47000
57500,47000
57000,47500
56500,47000
57000,47000
" /> 
</g>
<g style="fill:#008484; fill-opacity:0.0; 
stroke:#008484; stroke-width:60; stroke-opacity:1; 
stroke-linecap:round; stroke-linejoin:round;">
<text x="57050" y="48500"
textLength="1580" font-size="660" lengthAdjust="spacingAndGlyphs"
text-anchor="middle" opacity="0">GND</text>
<path d="M56660 48000
L56620 47970
L56550 47970
L56470 48000
L56430 48040
L56400 48090
L56380 48190
L56380 48260
L56400 48350
L56430 48400
L56470 48450
L56550 48470
L56590 48470
L56660 48450
L56690 48420
L56690 48260
L56590 48260
" />
<path d="M56900 48470
L56900 47970
L57190 48470
L57190 47970
" />
<path d="M57430 48470
L57430 47970
L57550 47970
L57620 48000
L57660 48040
L57690 48090
L57710 48190
L57710 48260
L57690 48350
L57660 48400
L57620 48450
L57550 48470
L57430 48470
" />
</g>
</g>
<g style="fill:#008484; fill-opacity:0.0; 
stroke:#008484; stroke-width:0; stroke-opacity:1; 
stroke-linecap:round; stroke-linejoin:round;">
<g >
</g>
<g style="fill:#840000; fill-opacity:0.0; 
stroke:#840000; stroke-width:0; stroke-opacity:1; 
stroke-linecap:round; stroke-linejoin:round;">
</g>
<g style="fill:#FFFFC2; fill-opacity:0.0; 
stroke:#FFFFC2; stroke-width:0; stroke-opacity:1; 
stroke-linecap:round; stroke-linejoin:round;">
</g>
<g style="fill:#FFFFC2; fill-opacity:0.6; 
stroke:#FFFFC2; stroke-width:0; stroke-opacity:1; 
stroke-linecap:round; stroke-linejoin:round;">
<rect x="54000" y="35000" width="6000" height="8000" rx="0" />
</g>
<g style="fill:#840000; fill-opacity:0.6; 
stroke:#840000; stroke-width:0; stroke-opacity:1; 
stroke-linecap:round; stroke-linejoin:round;">
</g>
<g style="fill:#840000; fill-opacity:0.0; 
stroke:#840000; stroke-width:100; stroke-opacity:1; 
stroke-linecap:round; stroke-linejoin:round;">
<rect x="54000" y="35000" width="6000" height="8000" rx="0" />
<rect x="54000" y="35000" width="6000" height="8000" rx="0" />
</g>
<g style="fill:#840000; fill-opacity:0.0; 
stroke:#840000; stroke-width:60; stroke-opacity:1; 
stroke-linecap:round; stroke-linejoin:round;">
<path d="M54000 36000
L53000 36000
" />
</g>
<g style="fill:#008484; fill-opacity:0.0; 
stroke:#008484; stroke-width:60; stroke-opacity:1; 
stroke-linecap:round; stroke-linejoin:round;">
<text x="54200" y="36250"
textLength="1990" font-size="660" lengthAdjust="spacingAndGlyphs"
text-anchor="start" opacity="0">ADDR</text>
<path d="M54320 36080
L54560 36080
" />
<path d="M54270 36220
L54440 35720
L54610 36220
" />
<path d="M54770 36220
L54770 35720
L54890 35720
L54960 35750
L55010 35790
L55030 35840
L55060 35940
L55060 36010
L55030 36100
L55010 36150
L54960 36200
L54890 36220
L54770 36220
" />
<path d="M55270 36220
L55270 35720
L55390 35720
L55460 35750
L55510 35790
L55530 35840
L55560 35940
L55560 36010
L55530 36100
L55510 36150
L55460 36200
L55390 36220
L55270 36220
" />
<path d="M56060 36220
L55890 35980
" />
<path d="M55770 36220
L55770 35720
L55960 35720
L56010 35750
L56030 35770
L56060 35820
L56060 35890
L56030 35940
L56010 35960
L55960 35980
L55770 35980
" />
</g>
<g style="fill:#840000; fill-opacity:0.0; 
stroke:#840000; stroke-width:60; stroke-opacity:1; 
stroke-linecap:round; stroke-linejoin:round;">
<text x="53500" y="35900"
textLength="540" font-size="660" lengthAdjust="spacingAndGlyphs"
text-anchor="middle" opacity="0">1</text>
<path d="M53640 35870
L53350 35870
" />
<path d="M53500 35870
L53500 35370
L53450 35440
L53400 35490
L53350 35510
" />
<path d="M54000 39000
L53000 39000
" />
</g>
<g style="fill:#008484; fill-opacity:0.0; 
stroke:#008484; stroke-width:60; stroke-opacity:1; 
stroke-linecap:round; stroke-linejoin:round;">
<text x="54200" y="39250"
textLength="1440" font-size="660" lengthAdjust="spacingAndGlyphs"
text-anchor="start" opacity="0">SCL</text>
<path d="M54320 39200
L54390 39220
L54510 39220
L54560 39200
L54580 39170
L54610 39130
L54610 39080
L54580 39030
L54560 39010
L54510 38980
L54420 38960
L54370 38940
L54340 38910
L54320 38860
L54320 38820
L54340 38770
L54370 38750
L54420 38720
L54530 38720
L54610 38750
" />
<path d="M55110 39170
L55080 39200
L55010 39220
L54960 39220
L54890 39200
L54840 39150
L54820 39100
L54800 39010
L54800 38940
L54820 38840
L54840 38790
L54890 38750
L54960 38720
L55010 38720
L55080 38750
L55110 38770
" />
<path d="M55560 39220
L55320 39220
L55320 38720
" />
</g>
<g style="fill:#840000; fill-opacity:0.0; 
stroke:#840000; stroke-width:60; stroke-opacity:1; 
stroke-linecap:round; stroke-linejoin:round;">
<text x="53500" y="38900"
textLength="1010" font-size="660" lengthAdjust="spacingAndGlyphs"
text-anchor="middle" opacity="0">10</text>
<path d="M53400 38870
L53110 38870
" />
<path d="M53260 38870
L53260 38370
L53210 38440
L53160 38490
L53110 38510
" />
<path d="M53710 38370
L53760 38370
L53800 38400
L53830 38420
L53850 38470
L53880 38560
L53880 38680
L53850 38780
L53830 38820
L53800 38850
L53760 38870
L53710 38870
L53660 38850
L53640 38820
L53610 38780
L53590 38680
L53590 38560
L53610 38470
L53640 38420
L53660 38400
L53710 38370
" />
<path d="M57000 43000
L57000 44000
" />
</g>
<g style="fill:#008484; fill-opacity:0.0; 
stroke:#008484; stroke-width:60; stroke-opacity:1; 
stroke-linecap:round; stroke-linejoin:round;">
<g transform="rotate(-90 57000 42800)">
<text x="57000" y="43050"
textLength="1580" font-size="660" lengthAdjust="spacingAndGlyphs"
text-anchor="start" opacity="0">GND</text>
</g>
<path d="M56750 42380
L56720 42430
L56720 42500
L56750 42570
L56790 42620
L56840 42650
L56940 42670
L57010 42670
L57100 42650
L57150 42620
L57200 42570
L57220 42500
L57220 42460
L57200 42380
L57170 42360
L57010 42360
L57010 42460
" />
<path d="M57220 42150
L56720 42150
L57220 41860
L56720 41860
" />
<path d="M57220 41620
L56720 41620
L56720 41500
L56750 41430
L56790 41380
L56840 41360
L56940 41340
L57010 41340
L57100 41360
L57150 41380
L57200 41430
L57220 41500
L57220 41620
" />
</g>
<g style="fill:#840000; fill-opacity:0.0; 
stroke:#840000; stroke-width:60; stroke-opacity:1; 
stroke-linecap:round; stroke-linejoin:round;">
<g transform="rotate(-90 56900 43500)">
<text x="56900" y="43500"
textLength="1010" font-size="660" lengthAdjust="spacingAndGlyphs"
text-anchor="middle" opacity="0">11</text>
</g>
<path d="M56870 43590
L56870 43880
" />
<path d="M56870 43730
L56370 43730
L56440 43780
L56490 43830
L56510 43880
" />
<path d="M56870 43110
L56870 43400
" />
<path d="M56870 43260
L56370 43260
L56440 43300
L56490 43350
L56510 43400
" />
<path d="M54000 41000
L53000 41000
" />
</g>
<g style="fill:#008484; fill-opacity:0.0; 
stroke:#008484; stroke-width:60; stroke-opacity:1; 
stroke-linecap:round; stroke-linejoin:round;">
<text x="54200" y="41250"
textLength="2320" font-size="660" lengthAdjust="spacingAndGlyphs"
text-anchor="start" opacity="0">~RESET</text>
<path d="M54230 40580
L54730 40580
" />
<path d="M54630 41220
L54460 40980
" />
<path d="M54340 41220
L54340 40720
L54530 40720
L54580 40750
L54610 40770
L54630 40820
L54630 40890
L54610 40940
L54580 40960
L54530 40980
L54340 40980
" />
<path d="M54730 40580
L55180 40580
" />
<path d="M54840 40960
L55010 40960
" />
<path d="M55080 41220
L54840 41220
L54840 40720
L55080 40720
" />
<path d="M55180 40580
L55650 40580
" />
<path d="M55270 41200
L55340 41220
L55460 41220
L55510 41200
L55530 41170
L55560 41130
L55560 41080
L55530 41030
L55510 41010
L55460 40980
L55370 40960
L55320 40940
L55300 40910
L55270 40860
L55270 40820
L55300 40770
L55320 40750
L55370 40720
L55490 40720
L55560 40750
" />
<path d="M55650 40580
L56110 40580
" />
<path d="M55770 40960
L55940 40960
" />
<path d="M56010 41220
L55770 41220
L55770 40720
L56010 40720
" />
<path d="M56110 40580
L56490 40580
" />
<path d="M56150 40720
L56440 40720
" />
<path d="M56300 41220
L56300 40720
" />
</g>
<g style="fill:#840000; fill-opacity:0.0; 
stroke:#840000; stroke-width:60; stroke-opacity:1; 
stroke-linecap:round; stroke-linejoin:round;">
<text x="53500" y="40900"
textLength="540" font-size="660" lengthAdjust="spacingAndGlyphs"
text-anchor="middle" opacity="0">2</text>
<path d="M53350 40420
L53380 40400
L53420 40370
L53540 40370
L53590 40400
L53610 40420
L53640 40470
L53640 40510
L53610 40590
L53330 40870
L53640 40870
" />
<path d="M54000 37000
L53000 37000
" />
</g>
<g style="fill:#008484; fill-opacity:0.0; 
stroke:#008484; stroke-width:60; stroke-opacity:1; 
stroke-linecap:round; stroke-linejoin:round;">
<text x="54200" y="37250"
textLength="1200" font-size="660" lengthAdjust="spacingAndGlyphs"
text-anchor="start" opacity="0">~INT</text>
<path d="M54230 36580
L54460 36580
" />
<path d="M54340 37220
L54340 36720
" />
<path d="M54460 36580
L54990 36580
" />
<path d="M54580 37220
L54580 36720
L54870 37220
L54870 36720
" />
<path d="M54990 36580
L55370 36580
" />
<path d="M55030 36720
L55320 36720
" />
<path d="M55180 37220
L55180 36720
" />
</g>
<g style="fill:#840000; fill-opacity:0.0; 
stroke:#840000; stroke-width:60; stroke-opacity:1; 
stroke-linecap:round; stroke-linejoin:round;">
<text x="53500" y="36900"
textLength="540" font-size="660" lengthAdjust="spacingAndGlyphs"
text-anchor="middle" opacity="0">3</text>
<path d="M53330 36370
L53640 36370
L53470 36560
L53540 36560
L53590 36590
L53610 36610
L53640 36660
L53640 36780
L53610 36820
L53590 36850
L53540 36870
L53400 36870
L53350 36850
L53330 36820
" />
<path d="M60000 37000
L61000 37000
" />
</g>
<g style="fill:#008484; fill-opacity:0.0; 
stroke:#008484; stroke-width:60; stroke-opacity:1; 
stroke-linecap:round; stroke-linejoin:round;">
<text x="59800" y="37250"
textLength="1700" font-size="660" lengthAdjust="spacingAndGlyphs"
text-anchor="end" opacity="0">PWM</text>
<path d="M58240 37220
L58240 36720
L58430 36720
L58480 36750
L58500 36770
L58530 36820
L58530 36890
L58500 36940
L58480 36960
L58430 36980
L58240 36980
" />
<path d="M58690 36720
L58810 37220
L58910 36860
L59000 37220
L59120 36720
" />
<path d="M59310 37220
L59310 36720
L59480 37080
L59650 36720
L59650 37220
" />
</g>
<g style="fill:#840000; fill-opacity:0.0; 
stroke:#840000; stroke-width:60; stroke-opacity:1; 
stroke-linecap:round; stroke-linejoin:round;">
<text x="60500" y="36900"
textLength="540" font-size="660" lengthAdjust="spacingAndGlyphs"
text-anchor="middle" opacity="0">4</text>
<path d="M60590 36540
L60590 36870
" />
<path d="M60470 36350
L60350 36700
L60660 36700
" />
<path d="M60000 38000
L61000 38000
" />
</g>
<g style="fill:#008484; fill-opacity:0.0; 
stroke:#008484; stroke-width:60; stroke-opacity:1; 
stroke-linecap:round; stroke-linejoin:round;">
<text x="59800" y="38250"
textLength="2250" font-size="660" lengthAdjust="spacingAndGlyphs"
text-anchor="end" opacity="0">Sense</text>
<path d="M57670 38200
L57740 38220
L57860 38220
L57910 38200
L57930 38170
L57960 38130
L57960 38080
L57930 38030
L57910 38010
L57860 37980
L57770 37960
L57720 37940
L57690 37910
L57670 37860
L57670 37820
L57690 37770
L57720 37750
L57770 37720
L57880 37720
L57960 37750
" />
<path d="M58360 38200
L58310 38220
L58220 38220
L58170 38200
L58150 38150
L58150 37960
L58170 37910
L58220 37890
L58310 37890
L58360 37910
L58380 37960
L58380 38010
L58150 38050
" />
<path d="M58600 37890
L58600 38220
" />
<path d="M58600 37940
L58620 37910
L58670 37890
L58740 37890
L58790 37910
L58810 37960
L58810 38220
" />
<path d="M59030 38200
L59070 38220
L59170 38220
L59220 38200
L59240 38150
L59240 38130
L59220 38080
L59170 38050
L59100 38050
L59050 38030
L59030 37980
L59030 37960
L59050 37910
L59100 37890
L59170 37890
L59220 37910
" />
<path d="M59650 38200
L59600 38220
L59500 38220
L59460 38200
L59430 38150
L59430 37960
L59460 37910
L59500 37890
L59600 37890
L59650 37910
L59670 37960
L59670 38010
L59430 38050
" />
</g>
<g style="fill:#840000; fill-opacity:0.0; 
stroke:#840000; stroke-width:60; stroke-opacity:1; 
stroke-linecap:round; stroke-linejoin:round;">
<text x="60500" y="37900"
textLength="540" font-size="660" lengthAdjust="spacingAndGlyphs"
text-anchor="middle" opacity="0">5</text>
<path d="M60610 37370
L60380 37370
L60350 37610
L60380 37590
L60420 37560
L60540 37560
L60590 37590
L60610 37610
L60640 37660
L60640 37780
L60610 37820
L60590 37850
L60540 37870
L60420 37870
L60380 37850
L60350 37820
" />
<path d="M57000 35000
L57000 34000
" />
</g>
<g style="fill:#008484; fill-opacity:0.0; 
stroke:#008484; stroke-width:60; stroke-opacity:1; 
stroke-linecap:round; stroke-linejoin:round;">
<g transform="rotate(-90 57000 35200)">
<text x="57000" y="35450"
textLength="1490" font-size="660" lengthAdjust="spacingAndGlyphs"
text-anchor="end" opacity="0">VDD</text>
</g>
<path d="M56720 36610
L57220 36440
L56720 36270
" />
<path d="M57220 36110
L56720 36110
L56720 35990
L56750 35920
L56790 35870
L56840 35840
L56940 35820
L57010 35820
L57100 35840
L57150 35870
L57200 35920
L57220 35990
L57220 36110
" />
<path d="M57220 35610
L56720 35610
L56720 35490
L56750 35420
L56790 35370
L56840 35340
L56940 35320
L57010 35320
L57100 35340
L57150 35370
L57200 35420
L57220 35490
L57220 35610
" />
</g>
<g style="fill:#840000; fill-opacity:0.0; 
stroke:#840000; stroke-width:60; stroke-opacity:1; 
stroke-linecap:round; stroke-linejoin:round;">
<g transform="rotate(-90 56900 34500)">
<text x="56900" y="34500"
textLength="540" font-size="660" lengthAdjust="spacingAndGlyphs"
text-anchor="middle" opacity="0">6</text>
</g>
<path d="M56370 34400
L56370 34500
L56400 34540
L56420 34570
L56490 34610
L56590 34640
L56780 34640
L56820 34610
L56850 34590
L56870 34540
L56870 34450
L56850 34400
L56820 34380
L56780 34350
L56660 34350
L56610 34380
L56590 34400
L56560 34450
L56560 34540
L56590 34590
L56610 34610
L56660 34640
" />
<path d="M54000 42000
L53000 42000
" />
</g>
<g style="fill:#008484; fill-opacity:0.0; 
stroke:#008484; stroke-width:60; stroke-opacity:1; 
stroke-linecap:round; stroke-linejoin:round;">
<text x="54200" y="42250"
textLength="2010" font-size="660" lengthAdjust="spacingAndGlyphs"
text-anchor="start" opacity="0">~WAKE</text>
<path d="M54230 41580
L54800 41580
" />
<path d="M54300 41720
L54420 42220
L54510 41860
L54610 42220
L54730 41720
" />
<path d="M54800 41580
L55230 41580
" />
<path d="M54890 42080
L55130 42080
" />
<path d="M54840 42220
L55010 41720
L55180 42220
" />
<path d="M55230 41580
L55730 41580
" />
<path d="M55340 42220
L55340 41720
" />
<path d="M55630 42220
L55420 41940
" />
<path d="M55630 41720
L55340 42010
" />
<path d="M55730 41580
L56180 41580
" />
<path d="M55840 41960
L56010 41960
" />
<path d="M56080 42220
L55840 42220
L55840 41720
L56080 41720
" />
</g>
<g style="fill:#840000; fill-opacity:0.0; 
stroke:#840000; stroke-width:60; stroke-opacity:1; 
stroke-linecap:round; stroke-linejoin:round;">
<text x="53500" y="41900"
textLength="540" font-size="660" lengthAdjust="spacingAndGlyphs"
text-anchor="middle" opacity="0">7</text>
<path d="M53330 41370
L53660 41370
L53450 41870
" />
<path d="M60000 40000
L61000 40000
" />
</g>
<g style="fill:#008484; fill-opacity:0.0; 
stroke:#008484; stroke-width:60; stroke-opacity:1; 
stroke-linecap:round; stroke-linejoin:round;">
<text x="59800" y="40250"
textLength="1490" font-size="660" lengthAdjust="spacingAndGlyphs"
text-anchor="end" opacity="0">AUX</text>
<path d="M58430 40080
L58670 40080
" />
<path d="M58380 40220
L58550 39720
L58720 40220
" />
<path d="M58880 39720
L58880 40130
L58910 40170
L58930 40200
L58980 40220
L59070 40220
L59120 40200
L59150 40170
L59170 40130
L59170 39720
" />
<path d="M59360 39720
L59690 40220
" />
<path d="M59690 39720
L59360 40220
" />
</g>
<g style="fill:#840000; fill-opacity:0.0; 
stroke:#840000; stroke-width:60; stroke-opacity:1; 
stroke-linecap:round; stroke-linejoin:round;">
<text x="60500" y="39900"
textLength="540" font-size="660" lengthAdjust="spacingAndGlyphs"
text-anchor="middle" opacity="0">8</text>
<path d="M60450 39590
L60400 39560
L60380 39540
L60350 39490
L60350 39470
L60380 39420
L60400 39400
L60450 39370
L60540 39370
L60590 39400
L60610 39420
L60640 39470
L60640 39490
L60610 39540
L60590 39560
L60540 39590
L60450 39590
L60400 39610
L60380 39630
L60350 39680
L60350 39780
L60380 39820
L60400 39850
L60450 39870
L60540 39870
L60590 39850
L60610 39820
L60640 39780
L60640 39680
L60610 39630
L60590 39610
L60540 39590
" />
<path d="M54000 38000
L53000 38000
" />
</g>
<g style="fill:#008484; fill-opacity:0.0; 
stroke:#008484; stroke-width:60; stroke-opacity:1; 
stroke-linecap:round; stroke-linejoin:round;">
<text x="54200" y="38250"
textLength="1460" font-size="660" lengthAdjust="spacingAndGlyphs"
text-anchor="start" opacity="0">SDA</text>
<path d="M54320 38200
L54390 38220
L54510 38220
L54560 38200
L54580 38170
L54610 38130
L54610 38080
L54580 38030
L54560 38010
L54510 37980
L54420 37960
L54370 37940
L54340 37910
L54320 37860
L54320 37820
L54340 37770
L54370 37750
L54420 37720
L54530 37720
L54610 37750
" />
<path d="M54820 38220
L54820 37720
L54940 37720
L55010 37750
L55060 37790
L55080 37840
L55110 37940
L55110 38010
L55080 38100
L55060 38150
L55010 38200
L54940 38220
L54820 38220
" />
<path d="M55300 38080
L55530 38080
" />
<path d="M55250 38220
L55420 37720
L55580 38220
" />
</g>
<g style="fill:#840000; fill-opacity:0.0; 
stroke:#840000; stroke-width:60; stroke-opacity:1; 
stroke-linecap:round; stroke-linejoin:round;">
<text x="53500" y="37900"
textLength="540" font-size="660" lengthAdjust="spacingAndGlyphs"
text-anchor="middle" opacity="0">9</text>
<path d="M53400 37870
L53500 37870
L53540 37850
L53570 37820
L53610 37750
L53640 37660
L53640 37470
L53610 37420
L53590 37400
L53540 37370
L53450 37370
L53400 37400
L53380 37420
L53350 37470
L53350 37590
L53380 37630
L53400 37660
L53450 37680
L53540 37680
L53590 37660
L53610 37630
L53640 37590
" />
</g>
<g style="fill:#008484; fill-opacity:0.0; 
stroke:#008484; stroke-width:60; stroke-opacity:1; 
stroke-linecap:round; stroke-linejoin:round;">
<text x="58000" y="33770"
textLength="2010" font-size="660" lengthAdjust="spacingAndGlyphs"
text-anchor="middle" opacity="0">U501</text>
<path d="M57140 33240
L57140 33650
L57160 33690
L57190 33720
L57230 33740
L57330 33740
L57380 33720
L57400 33690
L57420 33650
L57420 33240
" />
<path d="M57900 33240
L57660 33240
L57640 33480
L57660 33460
L57710 33430
L57830 33430
L57880 33460
L57900 33480
L57920 33530
L57920 33650
L57900 33690
L57880 33720
L57830 33740
L57710 33740
L57660 33720
L57640 33690
" />
<path d="M58230 33240
L58280 33240
L58330 33270
L58350 33290
L58380 33340
L58400 33430
L58400 33550
L58380 33650
L58350 33690
L58330 33720
L58280 33740
L58230 33740
L58190 33720
L58160 33690
L58140 33650
L58110 33550
L58110 33430
L58140 33340
L58160 33290
L58190 33270
L58230 33240
" />
<path d="M58880 33740
L58590 33740
" />
<path d="M58730 33740
L58730 33240
L58690 33310
L58640 33360
L58590 33380
" />
<text x="59000" y="34770"
textLength="2960" font-size="660" lengthAdjust="spacingAndGlyphs"
text-anchor="middle" opacity="0">CCS811</text>
<path d="M57950 34690
L57920 34720
L57850 34740
L57800 34740
L57730 34720
L57690 34670
L57660 34620
L57640 34530
L57640 34460
L57660 34360
L57690 34310
L57730 34270
L57800 34240
L57850 34240
L57920 34270
L57950 34290
" />
<path d="M58450 34690
L58420 34720
L58350 34740
L58300 34740
L58230 34720
L58190 34670
L58160 34620
L58140 34530
L58140 34460
L58160 34360
L58190 34310
L58230 34270
L58300 34240
L58350 34240
L58420 34270
L58450 34290
" />
<path d="M58640 34720
L58710 34740
L58830 34740
L58880 34720
L58900 34690
L58920 34650
L58920 34600
L58900 34550
L58880 34530
L58830 34500
L58730 34480
L58690 34460
L58660 34430
L58640 34380
L58640 34340
L58660 34290
L58690 34270
L58730 34240
L58850 34240
L58920 34270
" />
<path d="M59210 34460
L59160 34430
L59140 34410
L59110 34360
L59110 34340
L59140 34290
L59160 34270
L59210 34240
L59300 34240
L59350 34270
L59380 34290
L59400 34340
L59400 34360
L59380 34410
L59350 34430
L59300 34460
L59210 34460
L59160 34480
L59140 34500
L59110 34550
L59110 34650
L59140 34690
L59160 34720
L59210 34740
L59300 34740
L59350 34720
L59380 34690
L59400 34650
L59400 34550
L59380 34500
L59350 34480
L59300 34460
" />
<path d="M59880 34740
L59590 34740
" />
<path d="M59730 34740
L59730 34240
L59690 34310
L59640 34360
L59590 34380
" />
<path d="M60350 34740
L60070 34740
" />
<path d="M60210 34740
L60210 34240
L60160 34310
L60110 34360
L60070 34380
" />
</g>
</g>
<g style="fill:#008484; fill-opacity:0.0; 
stroke:#008484; stroke-width:0; stroke-opacity:1; 
stroke-linecap:round; stroke-linejoin:round;">
<g >
</g>
<g style="fill:#840000; fill-opacity:0.0; 
stroke:#840000; stroke-width:0; stroke-opacity:1; 
stroke-linecap:round; stroke-linejoin:round;">
</g>
<g style="fill:#840000; fill-opacity:0.0; 
stroke:#840000; stroke-width:60; stroke-opacity:1; 
stroke-linecap:round; stroke-linejoin:round;">
<path style="fill:#840000; fill-opacity:0.0; 
stroke:#840000; stroke-width:60; stroke-opacity:1; 
stroke-linecap:round; stroke-linejoin:round;fill:none"
d="M 65300,30500
65000,30000
" /> 
<path style="fill:#840000; fill-opacity:0.0; 
stroke:#840000; stroke-width:60; stroke-opacity:1; 
stroke-linecap:round; stroke-linejoin:round;fill:none"
d="M 65000,31000
65000,30000
" /> 
<path style="fill:#840000; fill-opacity:0.0; 
stroke:#840000; stroke-width:60; stroke-opacity:1; 
stroke-linecap:round; stroke-linejoin:round;fill:none"
d="M 65000,30000
64700,30500
" /> 
</g>
<g style="fill:#008484; fill-opacity:0.0; 
stroke:#008484; stroke-width:60; stroke-opacity:1; 
stroke-linecap:round; stroke-linejoin:round;">
<text x="64850" y="29540"
textLength="2300" font-size="660" lengthAdjust="spacingAndGlyphs"
text-anchor="middle" opacity="0">+3.3V</text>
<path d="M63850 29320
L64230 29320
" />
<path d="M64040 29510
L64040 29130
" />
<path d="M64420 29010
L64730 29010
L64560 29200
L64630 29200
L64680 29230
L64700 29250
L64730 29300
L64730 29420
L64700 29460
L64680 29490
L64630 29510
L64490 29510
L64440 29490
L64420 29460
" />
<path d="M64940 29460
L64960 29490
L64940 29510
L64920 29490
L64940 29460
L64940 29510
" />
<path d="M65130 29010
L65440 29010
L65270 29200
L65350 29200
L65390 29230
L65420 29250
L65440 29300
L65440 29420
L65420 29460
L65390 29490
L65350 29510
L65200 29510
L65150 29490
L65130 29460
" />
<path d="M65580 29010
L65750 29510
L65920 29010
" />
</g>
</g>
<g style="fill:#008484; fill-opacity:0.0; 
stroke:#008484; stroke-width:0; stroke-opacity:1; 
stroke-linecap:round; stroke-linejoin:round;">
<g >
</g>
<g style="fill:#840000; fill-opacity:0.0; 
stroke:#840000; stroke-width:0; stroke-opacity:1; 
stroke-linecap:round; stroke-linejoin:round;">
</g>
<g style="fill:#840000; fill-opacity:0.0; 
stroke:#840000; stroke-width:60; stroke-opacity:1; 
stroke-linecap:round; stroke-linejoin:round;">
<path style="fill:#840000; fill-opacity:0.0; 
stroke:#840000; stroke-width:60; stroke-opacity:1; 
stroke-linecap:round; stroke-linejoin:round;fill:none"
d="M 52000,34400
52000,34500
" /> 
<path style="fill:#840000; fill-opacity:0.0; 
stroke:#840000; stroke-width:60; stroke-opacity:1; 
stroke-linecap:round; stroke-linejoin:round;fill:none"
d="M 52000,32600
52000,32500
" /> 
<path style="fill:#840000; fill-opacity:0.0; 
stroke:#840000; stroke-width:60; stroke-opacity:1; 
stroke-linecap:round; stroke-linejoin:round;fill:none"
d="M 52000,33800
52400,33950
52000,34100
51600,34250
52000,34400
" /> 
<path style="fill:#840000; fill-opacity:0.0; 
stroke:#840000; stroke-width:60; stroke-opacity:1; 
stroke-linecap:round; stroke-linejoin:round;fill:none"
d="M 52000,33200
52400,33350
52000,33500
51600,33650
52000,33800
" /> 
<path style="fill:#840000; fill-opacity:0.0; 
stroke:#840000; stroke-width:60; stroke-opacity:1; 
stroke-linecap:round; stroke-linejoin:round;fill:none"
d="M 52000,32600
52400,32750
52000,32900
51600,33050
52000,33200
" /> 
<path d="M52000 32500
L52000 32000
" />
<path d="M52000 34500
L52000 35000
" />
</g>
<g style="fill:#008484; fill-opacity:0.0; 
stroke:#008484; stroke-width:60; stroke-opacity:1; 
stroke-linecap:round; stroke-linejoin:round;">
<g transform="rotate(-90 52820 33490)">
<text x="52820" y="33740"
textLength="1990" font-size="660" lengthAdjust="spacingAndGlyphs"
text-anchor="middle" opacity="0">R502</text>
</g>
<path d="M53040 34040
L52800 34210
" />
<path d="M53040 34330
L52540 34330
L52540 34140
L52570 34090
L52590 34070
L52640 34040
L52710 34040
L52760 34070
L52780 34090
L52800 34140
L52800 34330
" />
<path d="M52540 33590
L52540 33830
L52780 33850
L52760 33830
L52730 33780
L52730 33660
L52760 33620
L52780 33590
L52830 33570
L52950 33570
L52990 33590
L53020 33620
L53040 33660
L53040 33780
L53020 33830
L52990 33850
" />
<path d="M52540 33260
L52540 33210
L52570 33160
L52590 33140
L52640 33120
L52730 33090
L52850 33090
L52950 33120
L52990 33140
L53020 33160
L53040 33210
L53040 33260
L53020 33310
L52990 33330
L52950 33350
L52850 33380
L52730 33380
L52640 33350
L52590 33330
L52570 33310
L52540 33260
" />
<path d="M52590 32900
L52570 32880
L52540 32830
L52540 32710
L52570 32660
L52590 32640
L52640 32620
L52680 32620
L52760 32640
L53040 32930
L53040 32620
" />
<g transform="rotate(-90 51220 33500)">
<text x="51220" y="33750"
textLength="1420" font-size="660" lengthAdjust="spacingAndGlyphs"
text-anchor="middle" opacity="0">10k</text>
</g>
<path d="M51440 33790
L51440 34080
" />
<path d="M51440 33940
L50940 33940
L51010 33980
L51060 34030
L51080 34080
" />
<path d="M50940 33480
L50940 33440
L50970 33390
L50990 33360
L51040 33340
L51130 33320
L51250 33320
L51350 33340
L51390 33360
L51420 33390
L51440 33440
L51440 33480
L51420 33530
L51390 33550
L51350 33580
L51250 33600
L51130 33600
L51040 33580
L50990 33550
L50970 33530
L50940 33480
" />
<path d="M51440 33100
L50940 33100
" />
<path d="M51250 33050
L51440 32910
" />
<path d="M51110 32910
L51300 33100
" />
</g>
</g>
<g style="fill:#008484; fill-opacity:0.0; 
stroke:#008484; stroke-width:0; stroke-opacity:1; 
stroke-linecap:round; stroke-linejoin:round;">
<g >
</g>
<g style="fill:#840000; fill-opacity:0.0; 
stroke:#840000; stroke-width:0; stroke-opacity:1; 
stroke-linecap:round; stroke-linejoin:round;">
</g>
<g style="fill:#840000; fill-opacity:0.0; 
stroke:#840000; stroke-width:60; stroke-opacity:1; 
stroke-linecap:round; stroke-linejoin:round;">
<path style="fill:#840000; fill-opacity:0.0; 
stroke:#840000; stroke-width:60; stroke-opacity:1; 
stroke-linecap:round; stroke-linejoin:round;fill:none"
d="M 48500,44900
48500,45000
" /> 
<path style="fill:#840000; fill-opacity:0.0; 
stroke:#840000; stroke-width:60; stroke-opacity:1; 
stroke-linecap:round; stroke-linejoin:round;fill:none"
d="M 48500,43100
48500,43000
" /> 
<path style="fill:#840000; fill-opacity:0.0; 
stroke:#840000; stroke-width:60; stroke-opacity:1; 
stroke-linecap:round; stroke-linejoin:round;fill:none"
d="M 48500,44300
48900,44450
48500,44600
48100,44750
48500,44900
" /> 
<path style="fill:#840000; fill-opacity:0.0; 
stroke:#840000; stroke-width:60; stroke-opacity:1; 
stroke-linecap:round; stroke-linejoin:round;fill:none"
d="M 48500,43700
48900,43850
48500,44000
48100,44150
48500,44300
" /> 
<path style="fill:#840000; fill-opacity:0.0; 
stroke:#840000; stroke-width:60; stroke-opacity:1; 
stroke-linecap:round; stroke-linejoin:round;fill:none"
d="M 48500,43100
48900,43250
48500,43400
48100,43550
48500,43700
" /> 
<path d="M48500 43000
L48500 42500
" />
<path d="M48500 45000
L48500 45500
" />
</g>
<g style="fill:#008484; fill-opacity:0.0; 
stroke:#008484; stroke-width:60; stroke-opacity:1; 
stroke-linecap:round; stroke-linejoin:round;">
<g transform="rotate(-90 49320 43990)">
<text x="49320" y="44240"
textLength="1990" font-size="660" lengthAdjust="spacingAndGlyphs"
text-anchor="middle" opacity="0">R503</text>
</g>
<path d="M49540 44540
L49300 44710
" />
<path d="M49540 44830
L49040 44830
L49040 44640
L49070 44590
L49090 44570
L49140 44540
L49210 44540
L49260 44570
L49280 44590
L49300 44640
L49300 44830
" />
<path d="M49040 44090
L49040 44330
L49280 44350
L49260 44330
L49230 44280
L49230 44160
L49260 44120
L49280 44090
L49330 44070
L49450 44070
L49490 44090
L49520 44120
L49540 44160
L49540 44280
L49520 44330
L49490 44350
" />
<path d="M49040 43760
L49040 43710
L49070 43660
L49090 43640
L49140 43620
L49230 43590
L49350 43590
L49450 43620
L49490 43640
L49520 43660
L49540 43710
L49540 43760
L49520 43810
L49490 43830
L49450 43850
L49350 43880
L49230 43880
L49140 43850
L49090 43830
L49070 43810
L49040 43760
" />
<path d="M49040 43430
L49040 43120
L49230 43280
L49230 43210
L49260 43160
L49280 43140
L49330 43120
L49450 43120
L49490 43140
L49520 43160
L49540 43210
L49540 43350
L49520 43400
L49490 43430
" />
<g transform="rotate(-90 47720 44000)">
<text x="47720" y="44250"
textLength="1420" font-size="660" lengthAdjust="spacingAndGlyphs"
text-anchor="middle" opacity="0">10k</text>
</g>
<path d="M47940 44290
L47940 44580
" />
<path d="M47940 44440
L47440 44440
L47510 44480
L47560 44530
L47580 44580
" />
<path d="M47440 43980
L47440 43940
L47470 43890
L47490 43860
L47540 43840
L47630 43820
L47750 43820
L47850 43840
L47890 43860
L47920 43890
L47940 43940
L47940 43980
L47920 44030
L47890 44050
L47850 44080
L47750 44100
L47630 44100
L47540 44080
L47490 44050
L47470 44030
L47440 43980
" />
<path d="M47940 43600
L47440 43600
" />
<path d="M47750 43550
L47940 43410
" />
<path d="M47610 43410
L47800 43600
" />
</g>
</g>
<g style="fill:#008484; fill-opacity:0.0; 
stroke:#008484; stroke-width:0; stroke-opacity:1; 
stroke-linecap:round; stroke-linejoin:round;">
<g >
</g>
<g style="fill:#840000; fill-opacity:0.0; 
stroke:#840000; stroke-width:0; stroke-opacity:1; 
stroke-linecap:round; stroke-linejoin:round;">
</g>
<g style="fill:#840000; fill-opacity:0.0; 
stroke:#840000; stroke-width:130; stroke-opacity:1; 
stroke-linecap:round; stroke-linejoin:round;">
<path style="fill:#840000; fill-opacity:0.0; 
stroke:#840000; stroke-width:130; stroke-opacity:1; 
stroke-linecap:round; stroke-linejoin:round;fill:none"
d="M 65600,33700
64400,33700
" /> 
</g>
<g style="fill:#840000; fill-opacity:0.0; 
stroke:#840000; stroke-width:120; stroke-opacity:1; 
stroke-linecap:round; stroke-linejoin:round;">
<path style="fill:#840000; fill-opacity:0.0; 
stroke:#840000; stroke-width:120; stroke-opacity:1; 
stroke-linecap:round; stroke-linejoin:round;fill:none"
d="M 65600,33300
64400,33300
" /> 
</g>
<g style="fill:#840000; fill-opacity:0.0; 
stroke:#840000; stroke-width:60; stroke-opacity:1; 
stroke-linecap:round; stroke-linejoin:round;">
<path d="M65000 33300
L65000 32500
" />
<path d="M65000 33700
L65000 34500
" />
</g>
<g style="fill:#008484; fill-opacity:0.0; 
stroke:#008484; stroke-width:60; stroke-opacity:1; 
stroke-linecap:round; stroke-linejoin:round;">
<text x="66910" y="33310"
textLength="1990" font-size="660" lengthAdjust="spacingAndGlyphs"
text-anchor="middle" opacity="0">C501</text>
<path d="M66350 33230
L66320 33260
L66250 33280
L66200 33280
L66130 33260
L66080 33210
L66060 33160
L66040 33070
L66040 33000
L66060 32900
L66080 32850
L66130 32810
L66200 32780
L66250 32780
L66320 32810
L66350 32830
" />
<path d="M66800 32780
L66560 32780
L66540 33020
L66560 33000
L66610 32970
L66730 32970
L66770 33000
L66800 33020
L66820 33070
L66820 33190
L66800 33230
L66770 33260
L66730 33280
L66610 33280
L66560 33260
L66540 33230
" />
<path d="M67130 32780
L67180 32780
L67230 32810
L67250 32830
L67270 32880
L67300 32970
L67300 33090
L67270 33190
L67250 33230
L67230 33260
L67180 33280
L67130 33280
L67080 33260
L67060 33230
L67040 33190
L67010 33090
L67010 32970
L67040 32880
L67060 32830
L67080 32810
L67130 32780
" />
<path d="M67770 33280
L67490 33280
" />
<path d="M67630 33280
L67630 32780
L67580 32850
L67540 32900
L67490 32920
" />
<text x="66770" y="34220"
textLength="1700" font-size="660" lengthAdjust="spacingAndGlyphs"
text-anchor="middle" opacity="0">0.1u</text>
<path d="M66160 33690
L66210 33690
L66250 33720
L66280 33740
L66300 33790
L66320 33880
L66320 34000
L66300 34100
L66280 34140
L66250 34170
L66210 34190
L66160 34190
L66110 34170
L66090 34140
L66060 34100
L66040 34000
L66040 33880
L66060 33790
L66090 33740
L66110 33720
L66160 33690
" />
<path d="M66540 34140
L66560 34170
L66540 34190
L66520 34170
L66540 34140
L66540 34190
" />
<path d="M67040 34190
L66750 34190
" />
<path d="M66900 34190
L66900 33690
L66850 33760
L66800 33810
L66750 33830
" />
<path d="M67470 33860
L67470 34190
" />
<path d="M67250 33860
L67250 34120
L67280 34170
L67320 34190
L67400 34190
L67440 34170
L67470 34140
" />
</g>
</g>
<g style="fill:#008484; fill-opacity:0.0; 
stroke:#008484; stroke-width:0; stroke-opacity:1; 
stroke-linecap:round; stroke-linejoin:round;">
<g >
</g>
<g style="fill:#840000; fill-opacity:0.0; 
stroke:#840000; stroke-width:0; stroke-opacity:1; 
stroke-linecap:round; stroke-linejoin:round;">
</g>
<g style="fill:#840000; fill-opacity:0.0; 
stroke:#840000; stroke-width:60; stroke-opacity:1; 
stroke-linecap:round; stroke-linejoin:round;">
<path style="fill:#840000; fill-opacity:0.0; 
stroke:#840000; stroke-width:60; stroke-opacity:1; 
stroke-linecap:round; stroke-linejoin:round;fill:none"
d="M 48500,34400
48500,34500
" /> 
<path style="fill:#840000; fill-opacity:0.0; 
stroke:#840000; stroke-width:60; stroke-opacity:1; 
stroke-linecap:round; stroke-linejoin:round;fill:none"
d="M 48500,32600
48500,32500
" /> 
<path style="fill:#840000; fill-opacity:0.0; 
stroke:#840000; stroke-width:60; stroke-opacity:1; 
stroke-linecap:round; stroke-linejoin:round;fill:none"
d="M 48500,33800
48900,33950
48500,34100
48100,34250
48500,34400
" /> 
<path style="fill:#840000; fill-opacity:0.0; 
stroke:#840000; stroke-width:60; stroke-opacity:1; 
stroke-linecap:round; stroke-linejoin:round;fill:none"
d="M 48500,33200
48900,33350
48500,33500
48100,33650
48500,33800
" /> 
<path style="fill:#840000; fill-opacity:0.0; 
stroke:#840000; stroke-width:60; stroke-opacity:1; 
stroke-linecap:round; stroke-linejoin:round;fill:none"
d="M 48500,32600
48900,32750
48500,32900
48100,33050
48500,33200
" /> 
<path d="M48500 32500
L48500 32000
" />
<path d="M48500 34500
L48500 35000
" />
</g>
<g style="fill:#008484; fill-opacity:0.0; 
stroke:#008484; stroke-width:60; stroke-opacity:1; 
stroke-linecap:round; stroke-linejoin:round;">
<g transform="rotate(-90 49320 33490)">
<text x="49320" y="33740"
textLength="1990" font-size="660" lengthAdjust="spacingAndGlyphs"
text-anchor="middle" opacity="0">R501</text>
</g>
<path d="M49540 34040
L49300 34210
" />
<path d="M49540 34330
L49040 34330
L49040 34140
L49070 34090
L49090 34070
L49140 34040
L49210 34040
L49260 34070
L49280 34090
L49300 34140
L49300 34330
" />
<path d="M49040 33590
L49040 33830
L49280 33850
L49260 33830
L49230 33780
L49230 33660
L49260 33620
L49280 33590
L49330 33570
L49450 33570
L49490 33590
L49520 33620
L49540 33660
L49540 33780
L49520 33830
L49490 33850
" />
<path d="M49040 33260
L49040 33210
L49070 33160
L49090 33140
L49140 33120
L49230 33090
L49350 33090
L49450 33120
L49490 33140
L49520 33160
L49540 33210
L49540 33260
L49520 33310
L49490 33330
L49450 33350
L49350 33380
L49230 33380
L49140 33350
L49090 33330
L49070 33310
L49040 33260
" />
<path d="M49540 32620
L49540 32900
" />
<path d="M49540 32760
L49040 32760
L49110 32810
L49160 32850
L49180 32900
" />
<g transform="rotate(-90 47720 33500)">
<text x="47720" y="33750"
textLength="1420" font-size="660" lengthAdjust="spacingAndGlyphs"
text-anchor="middle" opacity="0">10k</text>
</g>
<path d="M47940 33790
L47940 34080
" />
<path d="M47940 33940
L47440 33940
L47510 33980
L47560 34030
L47580 34080
" />
<path d="M47440 33480
L47440 33440
L47470 33390
L47490 33360
L47540 33340
L47630 33320
L47750 33320
L47850 33340
L47890 33360
L47920 33390
L47940 33440
L47940 33480
L47920 33530
L47890 33550
L47850 33580
L47750 33600
L47630 33600
L47540 33580
L47490 33550
L47470 33530
L47440 33480
" />
<path d="M47940 33100
L47440 33100
" />
<path d="M47750 33050
L47940 32910
" />
<path d="M47610 32910
L47800 33100
" />
</g>
</g>
<g style="fill:#008484; fill-opacity:0.0; 
stroke:#008484; stroke-width:60; stroke-opacity:1; 
stroke-linecap:round; stroke-linejoin:round;">
</g>
<g style="fill:#008400; fill-opacity:0.0; 
stroke:#008400; stroke-width:60; stroke-opacity:1; 
stroke-linecap:round; stroke-linejoin:round;">
<path d="M61000 37000
L62000 37000
" />
<path d="M48500 42500
L48500 42000
" />
<path d="M53000 41000
L48500 41000
" />
<path d="M65000 31500
L65000 32500
" />
<path d="M62000 38000
L61000 38000
" />
<path d="M62000 37000
L62000 38000
" />
<path d="M48500 41000
L48500 35000
" />
<path d="M52000 31500
L57000 31500
" />
<path d="M57000 31500
L65000 31500
" />
<path d="M57000 31500
L57000 34000
" />
<path d="M65000 31000
L65000 31500
" />
<path d="M57000 46500
L57000 46000
" />
<path d="M52000 32000
L52000 31500
" />
<path d="M53000 37000
L52500 37000
" />
<path d="M52000 36000
L52000 35000
" />
<path d="M53000 36000
L52000 36000
" />
<path d="M48500 31500
L52000 31500
" />
<path d="M48500 32000
L48500 31500
" />
<path d="M65000 34500
L65000 46000
" />
<path d="M57000 44000
L57000 46000
" />
<path d="M57000 46000
L65000 46000
" />
<path d="M48500 46000
L57000 46000
" />
<path d="M48500 42000
L53000 42000
" />
<path d="M48500 46000
L48500 45500
" />
</g>
<g style="fill:#848400; fill-opacity:0.0; 
stroke:#848400; stroke-width:60; stroke-opacity:1; 
stroke-linecap:round; stroke-linejoin:round;">
<text x="51900" y="37250"
textLength="3040" font-size="660" lengthAdjust="spacingAndGlyphs"
text-anchor="end" opacity="0">VOC_INT</text>
<path d="M48940 36720
L49100 37220
L49270 36720
" />
<path d="M49530 36720
L49630 36720
L49670 36750
L49720 36790
L49750 36890
L49750 37050
L49720 37150
L49670 37200
L49630 37220
L49530 37220
L49480 37200
L49440 37150
L49410 37050
L49410 36890
L49440 36790
L49480 36750
L49530 36720
" />
<path d="M50250 37170
L50220 37200
L50150 37220
L50100 37220
L50030 37200
L49980 37150
L49960 37100
L49940 37010
L49940 36940
L49960 36840
L49980 36790
L50030 36750
L50100 36720
L50150 36720
L50220 36750
L50250 36770
" />
<path d="M50340 37270
L50720 37270
" />
<path d="M50840 37220
L50840 36720
" />
<path d="M51080 37220
L51080 36720
L51370 37220
L51370 36720
" />
<path d="M51530 36720
L51820 36720
" />
<path d="M51670 37220
L51670 36720
" />
</g>
<g style="fill:#848400; fill-opacity:0.0; 
stroke:#848400; stroke-width:100; stroke-opacity:1; 
stroke-linecap:round; stroke-linejoin:round;">
<path style="fill:#848400; fill-opacity:0.0; 
stroke:#848400; stroke-width:100; stroke-opacity:1; 
stroke-linecap:round; stroke-linejoin:round;fill:none"
d="M 52000,37000
52250,37250
52500,37250
52500,36750
52250,36750
Z" /> 
</g>
<g style="fill:#848400; fill-opacity:0.0; 
stroke:#848400; stroke-width:60; stroke-opacity:1; 
stroke-linecap:round; stroke-linejoin:round;">
</g>
<g style="fill:#840000; fill-opacity:0.0; 
stroke:#840000; stroke-width:60; stroke-opacity:1; 
stroke-linecap:round; stroke-linejoin:round;">
<text x="52740" y="39200"
textLength="2440" font-size="530" lengthAdjust="spacingAndGlyphs"
text-anchor="end" opacity="0">I2C_SCL</text>
<path d="M50420 39180
L50420 38780
" />
<path d="M50590 38810
L50610 38800
L50650 38780
L50740 38780
L50780 38800
L50800 38810
L50820 38850
L50820 38890
L50800 38950
L50570 39180
L50820 39180
" />
<path d="M51220 39140
L51200 39160
L51140 39180
L51110 39180
L51050 39160
L51010 39120
L50990 39080
L50970 39000
L50970 38950
L50990 38870
L51010 38830
L51050 38800
L51110 38780
L51140 38780
L51200 38800
L51220 38810
" />
<path d="M51300 39210
L51600 39210
" />
<path d="M51680 39160
L51730 39180
L51830 39180
L51870 39160
L51890 39140
L51910 39100
L51910 39060
L51890 39020
L51870 39000
L51830 38990
L51750 38970
L51710 38950
L51700 38930
L51680 38890
L51680 38850
L51700 38810
L51710 38800
L51750 38780
L51850 38780
L51910 38800
" />
<path d="M52310 39140
L52290 39160
L52230 39180
L52190 39180
L52130 39160
L52100 39120
L52080 39080
L52060 39000
L52060 38950
L52080 38870
L52100 38830
L52130 38800
L52190 38780
L52230 38780
L52290 38800
L52310 38810
" />
<path d="M52670 39180
L52480 39180
L52480 38780
" />
</g>
<g style="fill:#840000; fill-opacity:0.0; 
stroke:#840000; stroke-width:100; stroke-opacity:1; 
stroke-linecap:round; stroke-linejoin:round;">
<path style="fill:#840000; fill-opacity:0.0; 
stroke:#840000; stroke-width:100; stroke-opacity:1; 
stroke-linecap:round; stroke-linejoin:round;fill:none"
d="M 53000,39000
52800,38630
50190,38630
50190,39000
50190,39370
52800,39370
Z" /> 
</g>
<g style="fill:#840000; fill-opacity:0.0; 
stroke:#840000; stroke-width:60; stroke-opacity:1; 
stroke-linecap:round; stroke-linejoin:round;">
<text x="52740" y="38200"
textLength="2460" font-size="530" lengthAdjust="spacingAndGlyphs"
text-anchor="end" opacity="0">I2C_SDA</text>
<path d="M50400 38180
L50400 37780
" />
<path d="M50570 37810
L50590 37800
L50630 37780
L50720 37780
L50760 37800
L50780 37810
L50800 37850
L50800 37890
L50780 37950
L50550 38180
L50800 38180
" />
<path d="M51200 38140
L51180 38160
L51120 38180
L51090 38180
L51030 38160
L50990 38120
L50970 38080
L50950 38000
L50950 37950
L50970 37870
L50990 37830
L51030 37800
L51090 37780
L51120 37780
L51180 37800
L51200 37810
" />
<path d="M51280 38210
L51580 38210
" />
<path d="M51660 38160
L51710 38180
L51810 38180
L51850 38160
L51870 38140
L51890 38100
L51890 38060
L51870 38020
L51850 38000
L51810 37990
L51730 37970
L51700 37950
L51680 37930
L51660 37890
L51660 37850
L51680 37810
L51700 37800
L51730 37780
L51830 37780
L51890 37800
" />
<path d="M52060 38180
L52060 37780
L52150 37780
L52210 37800
L52250 37830
L52270 37870
L52290 37950
L52290 38000
L52270 38080
L52250 38120
L52210 38160
L52150 38180
L52060 38180
" />
<path d="M52440 38060
L52630 38060
" />
<path d="M52400 38180
L52530 37780
L52670 38180
" />
</g>
<g style="fill:#840000; fill-opacity:0.0; 
stroke:#840000; stroke-width:100; stroke-opacity:1; 
stroke-linecap:round; stroke-linejoin:round;">
<path style="fill:#840000; fill-opacity:0.0; 
stroke:#840000; stroke-width:100; stroke-opacity:1; 
stroke-linecap:round; stroke-linejoin:round;fill:none"
d="M 53000,38000
52800,37630
50170,37630
49970,38000
50170,38370
52800,38370
Z" /> 
</g>
<g style="fill:#840000; fill-opacity:0.0; 
stroke:#840000; stroke-width:60; stroke-opacity:1; 
stroke-linecap:round; stroke-linejoin:round;">
</g>
<g style="fill:#0000C2; fill-opacity:0.0; 
stroke:#0000C2; stroke-width:60; stroke-opacity:1; 
stroke-linecap:round; stroke-linejoin:round;">
<text x="57500" y="29400"
textLength="1870" font-size="660" lengthAdjust="spacingAndGlyphs"
text-anchor="start" opacity="0">0x5b</text>
<path d="M57740 28870
L57790 28870
L57830 28900
L57860 28920
L57880 28970
L57910 29060
L57910 29180
L57880 29280
L57860 29320
L57830 29350
L57790 29370
L57740 29370
L57690 29350
L57670 29320
L57640 29280
L57620 29180
L57620 29060
L57640 28970
L57670 28920
L57690 28900
L57740 28870
" />
<path d="M58070 29370
L58330 29040
" />
<path d="M58070 29040
L58330 29370
" />
<path d="M58760 28870
L58530 28870
L58500 29110
L58530 29090
L58570 29060
L58690 29060
L58740 29090
L58760 29110
L58790 29160
L58790 29280
L58760 29320
L58740 29350
L58690 29370
L58570 29370
L58530 29350
L58500 29320
" />
<path d="M59000 29370
L59000 28870
" />
<path d="M59000 29060
L59050 29040
L59140 29040
L59190 29060
L59220 29090
L59240 29130
L59240 29280
L59220 29320
L59190 29350
L59140 29370
L59050 29370
L59000 29350
" />
</g>
<g style="fill:#0000C2; fill-opacity:0.0; 
stroke:#0000C2; stroke-width:0; stroke-opacity:1; 
stroke-linecap:round; stroke-linejoin:round;">
</g>
<g style="fill:#008400; fill-opacity:0.0; 
stroke:#008400; stroke-width:0; stroke-opacity:1; 
stroke-linecap:round; stroke-linejoin:round;">
</g>
<g style="fill:#008400; fill-opacity:1.0; 
stroke:#008400; stroke-width:100; stroke-opacity:1; 
stroke-linecap:round; stroke-linejoin:round;">
<circle cx="65000" cy="31500" r="200" /> 
</g>
<g style="fill:#008400; fill-opacity:1.0; 
stroke:#008400; stroke-width:0; stroke-opacity:1; 
stroke-linecap:round; stroke-linejoin:round;">
</g>
<g style="fill:#008400; fill-opacity:1.0; 
stroke:#008400; stroke-width:100; stroke-opacity:1; 
stroke-linecap:round; stroke-linejoin:round;">
<circle cx="57000" cy="31500" r="200" /> 
</g>
<g style="fill:#008400; fill-opacity:1.0; 
stroke:#008400; stroke-width:0; stroke-opacity:1; 
stroke-linecap:round; stroke-linejoin:round;">
</g>
<g style="fill:#008400; fill-opacity:1.0; 
stroke:#008400; stroke-width:100; stroke-opacity:1; 
stroke-linecap:round; stroke-linejoin:round;">
<circle cx="52000" cy="31500" r="200" /> 
</g>
<g style="fill:#008400; fill-opacity:1.0; 
stroke:#008400; stroke-width:0; stroke-opacity:1; 
stroke-linecap:round; stroke-linejoin:round;">
</g>
<g style="fill:#008400; fill-opacity:1.0; 
stroke:#008400; stroke-width:100; stroke-opacity:1; 
stroke-linecap:round; stroke-linejoin:round;">
<circle cx="57000" cy="46000" r="200" /> 
</g>
<g style="fill:#008400; fill-opacity:1.0; 
stroke:#008400; stroke-width:60; stroke-opacity:1; 
stroke-linecap:round; stroke-linejoin:round;">
</g>
<g style="fill:#000084; fill-opacity:1.0; 
stroke:#000084; stroke-width:60; stroke-opacity:1; 
stroke-linecap:round; stroke-linejoin:round;">
</g>
<g style="fill:#000084; fill-opacity:0.0; 
stroke:#000084; stroke-width:60; stroke-opacity:1; 
stroke-linecap:round; stroke-linejoin:round;">
<path d="M60760 39760
L61240 40240
" />
<path d="M61240 39760
L60760 40240
" />
</g> 
</svg>
