M48
; DRILL file {KiCad 5.1.7-a382d34a8~87~ubuntu18.04.1} date Sun Mar 14 15:13:56 2021
; FORMAT={-:-/ absolute / inch / decimal}
; #@! TF.CreationDate,2021-03-14T15:13:56-04:00
; #@! TF.GenerationSoftware,Kicad,Pcbnew,5.1.7-a382d34a8~87~ubuntu18.04.1
; #@! TF.FileFunction,Plated,1,2,PTH
FMAT,2
INCH
T1C0.0157
T2C0.0394
%
G90
G05
T1
X8.11Y-3.3825
X8.155Y-2.915
X8.155Y-3.035
X8.215Y-3.27
X8.2558Y-3.2862
X8.305Y-2.92
X8.315Y-2.755
X8.33Y-3.285
T2
X8.4827Y-2.6748
X8.4827Y-2.7748
X8.4827Y-2.8748
X8.4827Y-2.9748
X8.4827Y-3.0748
X8.4827Y-3.1748
X8.4827Y-3.2748
X8.4827Y-3.3748
X8.4827Y-3.4748
X8.5827Y-2.6748
X8.5827Y-2.7748
X8.5827Y-2.8748
X8.5827Y-2.9748
X8.5827Y-3.0748
X8.5827Y-3.1748
X8.5827Y-3.2748
X8.5827Y-3.3748
X8.5827Y-3.4748
T0
M30
