G04 #@! TF.GenerationSoftware,KiCad,Pcbnew,5.1.7-a382d34a8~87~ubuntu18.04.1*
G04 #@! TF.CreationDate,2021-03-14T15:13:56-04:00*
G04 #@! TF.ProjectId,FLASH_MOD,464c4153-485f-44d4-9f44-2e6b69636164,0*
G04 #@! TF.SameCoordinates,Original*
G04 #@! TF.FileFunction,Legend,Top*
G04 #@! TF.FilePolarity,Positive*
%FSLAX46Y46*%
G04 Gerber Fmt 4.6, Leading zero omitted, Abs format (unit mm)*
G04 Created by KiCad (PCBNEW 5.1.7-a382d34a8~87~ubuntu18.04.1) date 2021-03-14 15:13:56*
%MOMM*%
%LPD*%
G01*
G04 APERTURE LIST*
%ADD10C,0.120000*%
%ADD11C,0.080000*%
G04 APERTURE END LIST*
D10*
G04 #@! TO.C,U101*
X219330000Y-89590000D02*
X214130000Y-89590000D01*
X219330000Y-41270000D02*
X219330000Y-89590000D01*
X214130000Y-38670000D02*
X214130000Y-89590000D01*
X216730000Y-38670000D02*
X214130000Y-38670000D01*
X219330000Y-40000000D02*
X219330000Y-38670000D01*
X219330000Y-38670000D02*
X218000000Y-38670000D01*
D11*
X220226190Y-40807142D02*
X220630952Y-40807142D01*
X220678571Y-40783333D01*
X220702380Y-40759523D01*
X220726190Y-40711904D01*
X220726190Y-40616666D01*
X220702380Y-40569047D01*
X220678571Y-40545238D01*
X220630952Y-40521428D01*
X220226190Y-40521428D01*
X220726190Y-40021428D02*
X220726190Y-40307142D01*
X220726190Y-40164285D02*
X220226190Y-40164285D01*
X220297619Y-40211904D01*
X220345238Y-40259523D01*
X220369047Y-40307142D01*
X220226190Y-39711904D02*
X220226190Y-39664285D01*
X220250000Y-39616666D01*
X220273809Y-39592857D01*
X220321428Y-39569047D01*
X220416666Y-39545238D01*
X220535714Y-39545238D01*
X220630952Y-39569047D01*
X220678571Y-39592857D01*
X220702380Y-39616666D01*
X220726190Y-39664285D01*
X220726190Y-39711904D01*
X220702380Y-39759523D01*
X220678571Y-39783333D01*
X220630952Y-39807142D01*
X220535714Y-39830952D01*
X220416666Y-39830952D01*
X220321428Y-39807142D01*
X220273809Y-39783333D01*
X220250000Y-39759523D01*
X220226190Y-39711904D01*
X220726190Y-39069047D02*
X220726190Y-39354761D01*
X220726190Y-39211904D02*
X220226190Y-39211904D01*
X220297619Y-39259523D01*
X220345238Y-39307142D01*
X220369047Y-39354761D01*
G04 #@! TD*
M02*
