G04 #@! TF.GenerationSoftware,KiCad,Pcbnew,5.1.7-a382d34a8~87~ubuntu18.04.1*
G04 #@! TF.CreationDate,2021-03-14T15:13:56-04:00*
G04 #@! TF.ProjectId,FLASH_MOD,464c4153-485f-44d4-9f44-2e6b69636164,0*
G04 #@! TF.SameCoordinates,Original*
G04 #@! TF.FileFunction,Soldermask,Bot*
G04 #@! TF.FilePolarity,Negative*
%FSLAX46Y46*%
G04 Gerber Fmt 4.6, Leading zero omitted, Abs format (unit mm)*
G04 Created by KiCad (PCBNEW 5.1.7-a382d34a8~87~ubuntu18.04.1) date 2021-03-14 15:13:56*
%MOMM*%
%LPD*%
G01*
G04 APERTURE LIST*
%ADD10O,1.801600X1.801600*%
G04 APERTURE END LIST*
D10*
G04 #@! TO.C,U101*
X218000000Y-67940000D03*
X215460000Y-67940000D03*
X218000000Y-70480000D03*
X215460000Y-70480000D03*
X218000000Y-73020000D03*
X215460000Y-73020000D03*
X218000000Y-75560000D03*
X215460000Y-75560000D03*
X218000000Y-78100000D03*
X215460000Y-78100000D03*
X218000000Y-80640000D03*
X215460000Y-80640000D03*
X218000000Y-83180000D03*
X215460000Y-83180000D03*
X218000000Y-85720000D03*
X215460000Y-85720000D03*
X218000000Y-88260000D03*
X215460000Y-88260000D03*
G04 #@! TD*
G04 #@! TO.C,TP1*
G36*
G01*
X210600000Y-80450800D02*
X209000000Y-80450800D01*
G75*
G02*
X208949200Y-80400000I0J50800D01*
G01*
X208949200Y-79300000D01*
G75*
G02*
X209000000Y-79249200I50800J0D01*
G01*
X210600000Y-79249200D01*
G75*
G02*
X210650800Y-79300000I0J-50800D01*
G01*
X210650800Y-80400000D01*
G75*
G02*
X210600000Y-80450800I-50800J0D01*
G01*
G37*
G04 #@! TD*
G04 #@! TO.C,TP2*
G36*
G01*
X206949200Y-88400000D02*
X206949200Y-86800000D01*
G75*
G02*
X207000000Y-86749200I50800J0D01*
G01*
X208100000Y-86749200D01*
G75*
G02*
X208150800Y-86800000I0J-50800D01*
G01*
X208150800Y-88400000D01*
G75*
G02*
X208100000Y-88450800I-50800J0D01*
G01*
X207000000Y-88450800D01*
G75*
G02*
X206949200Y-88400000I0J50800D01*
G01*
G37*
G04 #@! TD*
G04 #@! TO.C,C1*
G36*
G01*
X211983200Y-82190400D02*
X211983200Y-81639600D01*
G75*
G02*
X212233600Y-81389200I250400J0D01*
G01*
X212734400Y-81389200D01*
G75*
G02*
X212984800Y-81639600I0J-250400D01*
G01*
X212984800Y-82190400D01*
G75*
G02*
X212734400Y-82440800I-250400J0D01*
G01*
X212233600Y-82440800D01*
G75*
G02*
X211983200Y-82190400I0J250400D01*
G01*
G37*
G36*
G01*
X210433200Y-82190400D02*
X210433200Y-81639600D01*
G75*
G02*
X210683600Y-81389200I250400J0D01*
G01*
X211184400Y-81389200D01*
G75*
G02*
X211434800Y-81639600I0J-250400D01*
G01*
X211434800Y-82190400D01*
G75*
G02*
X211184400Y-82440800I-250400J0D01*
G01*
X210683600Y-82440800D01*
G75*
G02*
X210433200Y-82190400I0J250400D01*
G01*
G37*
G04 #@! TD*
G04 #@! TO.C,C2*
G36*
G01*
X212449600Y-67558200D02*
X213000400Y-67558200D01*
G75*
G02*
X213250800Y-67808600I0J-250400D01*
G01*
X213250800Y-68309400D01*
G75*
G02*
X213000400Y-68559800I-250400J0D01*
G01*
X212449600Y-68559800D01*
G75*
G02*
X212199200Y-68309400I0J250400D01*
G01*
X212199200Y-67808600D01*
G75*
G02*
X212449600Y-67558200I250400J0D01*
G01*
G37*
G36*
G01*
X212449600Y-69108200D02*
X213000400Y-69108200D01*
G75*
G02*
X213250800Y-69358600I0J-250400D01*
G01*
X213250800Y-69859400D01*
G75*
G02*
X213000400Y-70109800I-250400J0D01*
G01*
X212449600Y-70109800D01*
G75*
G02*
X212199200Y-69859400I0J250400D01*
G01*
X212199200Y-69358600D01*
G75*
G02*
X212449600Y-69108200I250400J0D01*
G01*
G37*
G04 #@! TD*
G04 #@! TO.C,JP1*
G36*
G01*
X209551600Y-83981200D02*
X209802400Y-83981200D01*
G75*
G02*
X209927800Y-84106600I0J-125400D01*
G01*
X209927800Y-84417400D01*
G75*
G02*
X209802400Y-84542800I-125400J0D01*
G01*
X209551600Y-84542800D01*
G75*
G02*
X209426200Y-84417400I0J125400D01*
G01*
X209426200Y-84106600D01*
G75*
G02*
X209551600Y-83981200I125400J0D01*
G01*
G37*
G36*
G01*
X209551600Y-84621200D02*
X209802400Y-84621200D01*
G75*
G02*
X209927800Y-84746600I0J-125400D01*
G01*
X209927800Y-85057400D01*
G75*
G02*
X209802400Y-85182800I-125400J0D01*
G01*
X209551600Y-85182800D01*
G75*
G02*
X209426200Y-85057400I0J125400D01*
G01*
X209426200Y-84746600D01*
G75*
G02*
X209551600Y-84621200I125400J0D01*
G01*
G37*
G04 #@! TD*
G04 #@! TO.C,JP2*
G36*
G01*
X211456600Y-84621200D02*
X211707400Y-84621200D01*
G75*
G02*
X211832800Y-84746600I0J-125400D01*
G01*
X211832800Y-85057400D01*
G75*
G02*
X211707400Y-85182800I-125400J0D01*
G01*
X211456600Y-85182800D01*
G75*
G02*
X211331200Y-85057400I0J125400D01*
G01*
X211331200Y-84746600D01*
G75*
G02*
X211456600Y-84621200I125400J0D01*
G01*
G37*
G36*
G01*
X211456600Y-83981200D02*
X211707400Y-83981200D01*
G75*
G02*
X211832800Y-84106600I0J-125400D01*
G01*
X211832800Y-84417400D01*
G75*
G02*
X211707400Y-84542800I-125400J0D01*
G01*
X211456600Y-84542800D01*
G75*
G02*
X211331200Y-84417400I0J125400D01*
G01*
X211331200Y-84106600D01*
G75*
G02*
X211456600Y-83981200I125400J0D01*
G01*
G37*
G04 #@! TD*
G04 #@! TO.C,JP3*
G36*
G01*
X207897400Y-85182800D02*
X207646600Y-85182800D01*
G75*
G02*
X207521200Y-85057400I0J125400D01*
G01*
X207521200Y-84746600D01*
G75*
G02*
X207646600Y-84621200I125400J0D01*
G01*
X207897400Y-84621200D01*
G75*
G02*
X208022800Y-84746600I0J-125400D01*
G01*
X208022800Y-85057400D01*
G75*
G02*
X207897400Y-85182800I-125400J0D01*
G01*
G37*
G36*
G01*
X207897400Y-84542800D02*
X207646600Y-84542800D01*
G75*
G02*
X207521200Y-84417400I0J125400D01*
G01*
X207521200Y-84106600D01*
G75*
G02*
X207646600Y-83981200I125400J0D01*
G01*
X207897400Y-83981200D01*
G75*
G02*
X208022800Y-84106600I0J-125400D01*
G01*
X208022800Y-84417400D01*
G75*
G02*
X207897400Y-84542800I-125400J0D01*
G01*
G37*
G04 #@! TD*
G04 #@! TO.C,R1*
G36*
G01*
X207258200Y-82215400D02*
X207258200Y-81614600D01*
G75*
G02*
X207483600Y-81389200I225400J0D01*
G01*
X207934400Y-81389200D01*
G75*
G02*
X208159800Y-81614600I0J-225400D01*
G01*
X208159800Y-82215400D01*
G75*
G02*
X207934400Y-82440800I-225400J0D01*
G01*
X207483600Y-82440800D01*
G75*
G02*
X207258200Y-82215400I0J225400D01*
G01*
G37*
G36*
G01*
X208908200Y-82215400D02*
X208908200Y-81614600D01*
G75*
G02*
X209133600Y-81389200I225400J0D01*
G01*
X209584400Y-81389200D01*
G75*
G02*
X209809800Y-81614600I0J-225400D01*
G01*
X209809800Y-82215400D01*
G75*
G02*
X209584400Y-82440800I-225400J0D01*
G01*
X209133600Y-82440800D01*
G75*
G02*
X208908200Y-82215400I0J225400D01*
G01*
G37*
G04 #@! TD*
G04 #@! TO.C,U1*
G36*
G01*
X211122400Y-76459800D02*
X210771600Y-76459800D01*
G75*
G02*
X210596200Y-76284400I0J175400D01*
G01*
X210596200Y-74933600D01*
G75*
G02*
X210771600Y-74758200I175400J0D01*
G01*
X211122400Y-74758200D01*
G75*
G02*
X211297800Y-74933600I0J-175400D01*
G01*
X211297800Y-76284400D01*
G75*
G02*
X211122400Y-76459800I-175400J0D01*
G01*
G37*
G36*
G01*
X209852400Y-76459800D02*
X209501600Y-76459800D01*
G75*
G02*
X209326200Y-76284400I0J175400D01*
G01*
X209326200Y-74933600D01*
G75*
G02*
X209501600Y-74758200I175400J0D01*
G01*
X209852400Y-74758200D01*
G75*
G02*
X210027800Y-74933600I0J-175400D01*
G01*
X210027800Y-76284400D01*
G75*
G02*
X209852400Y-76459800I-175400J0D01*
G01*
G37*
G36*
G01*
X208582400Y-76459800D02*
X208231600Y-76459800D01*
G75*
G02*
X208056200Y-76284400I0J175400D01*
G01*
X208056200Y-74933600D01*
G75*
G02*
X208231600Y-74758200I175400J0D01*
G01*
X208582400Y-74758200D01*
G75*
G02*
X208757800Y-74933600I0J-175400D01*
G01*
X208757800Y-76284400D01*
G75*
G02*
X208582400Y-76459800I-175400J0D01*
G01*
G37*
G36*
G01*
X207312400Y-76459800D02*
X206961600Y-76459800D01*
G75*
G02*
X206786200Y-76284400I0J175400D01*
G01*
X206786200Y-74933600D01*
G75*
G02*
X206961600Y-74758200I175400J0D01*
G01*
X207312400Y-74758200D01*
G75*
G02*
X207487800Y-74933600I0J-175400D01*
G01*
X207487800Y-76284400D01*
G75*
G02*
X207312400Y-76459800I-175400J0D01*
G01*
G37*
G36*
G01*
X207312400Y-69259800D02*
X206961600Y-69259800D01*
G75*
G02*
X206786200Y-69084400I0J175400D01*
G01*
X206786200Y-67733600D01*
G75*
G02*
X206961600Y-67558200I175400J0D01*
G01*
X207312400Y-67558200D01*
G75*
G02*
X207487800Y-67733600I0J-175400D01*
G01*
X207487800Y-69084400D01*
G75*
G02*
X207312400Y-69259800I-175400J0D01*
G01*
G37*
G36*
G01*
X208582400Y-69259800D02*
X208231600Y-69259800D01*
G75*
G02*
X208056200Y-69084400I0J175400D01*
G01*
X208056200Y-67733600D01*
G75*
G02*
X208231600Y-67558200I175400J0D01*
G01*
X208582400Y-67558200D01*
G75*
G02*
X208757800Y-67733600I0J-175400D01*
G01*
X208757800Y-69084400D01*
G75*
G02*
X208582400Y-69259800I-175400J0D01*
G01*
G37*
G36*
G01*
X209852400Y-69259800D02*
X209501600Y-69259800D01*
G75*
G02*
X209326200Y-69084400I0J175400D01*
G01*
X209326200Y-67733600D01*
G75*
G02*
X209501600Y-67558200I175400J0D01*
G01*
X209852400Y-67558200D01*
G75*
G02*
X210027800Y-67733600I0J-175400D01*
G01*
X210027800Y-69084400D01*
G75*
G02*
X209852400Y-69259800I-175400J0D01*
G01*
G37*
G36*
G01*
X211122400Y-69259800D02*
X210771600Y-69259800D01*
G75*
G02*
X210596200Y-69084400I0J175400D01*
G01*
X210596200Y-67733600D01*
G75*
G02*
X210771600Y-67558200I175400J0D01*
G01*
X211122400Y-67558200D01*
G75*
G02*
X211297800Y-67733600I0J-175400D01*
G01*
X211297800Y-69084400D01*
G75*
G02*
X211122400Y-69259800I-175400J0D01*
G01*
G37*
G04 #@! TD*
M02*
