  0
SECTION
  2
HEADER
  9
$ANGBASE
  50
0.0
  9
$ANGDIR
  70
1
  9
$MEASUREMENT
  70
0
  0
ENDSEC
  0
SECTION
  2
TABLES
  0
TABLE
  2
LTYPE
  70
4
  0
LTYPE
  5
40F
  2
CONTINUOUS
  70
0
  3
Solid line
  72
65
  73
0
  40
0.0
  0
LTYPE
  5
410
  2
DASHDOT
 70
0
  3
Dash Dot ____ _ ____ _
 72
65
 73
4
 40
2.0
 49
1.25
 49
-0.25
 49
0.25
 49
-0.25
  0
LTYPE
  5
411
  2
DASHED
 70
0
  3
Dashed __ __ __ __ __
 72
65
 73
2
 40
0.75
 49
0.5
 49
-0.25
  0
LTYPE
  5
43B
  2
DOTTED
 70
0
  3
Dotted .  .  .  .
 72
65
 73
2
 40
0.2
 49
0.0
 49
-0.2
  0
ENDTAB
  0
TABLE
  2
STYLE
  70
4
  0
STYLE
  2
KICAD
  70
0
  40
0
  41
1
  42
1
  50
0
  71
0
  3
isocp.shx
  0
STYLE
  2
KICADB
  70
0
  40
0
  41
1
  42
1
  50
0
  71
0
  3
isocp.shx
  0
STYLE
  2
KICADI
  70
0
  40
0
  41
1
  42
1
  50
15
  71
0
  3
isocp.shx
  0
STYLE
  2
KICADBI
  70
0
  40
0
  41
1
  42
1
  50
15
  71
0
  3
isocp.shx
  0
ENDTAB
  0
TABLE
  2
LAYER
  70
1
  0
LAYER
  2
BLACK
  70
0
  62
7
  6
CONTINUOUS
  0
ENDTAB
  0
ENDSEC
  0
SECTION
  2
ENTITIES
0
ARC
8
BLACK
10
8.4375
20
-3.495
40
0.03
50
180
51
270
0
ARC
8
BLACK
10
8.3775
20
-3.405
40
0.03
50
-0
51
90
0
ARC
8
BLACK
10
8.2125
20
-3.405
40
0.03
50
90
51
180
0
ARC
8
BLACK
10
8.6025
20
-3.495
40
0.03
50
-90
51
-0
0
ARC
8
BLACK
10
8.6025
20
-2.655
40
0.03
50
-0
51
90
0
ARC
8
BLACK
10
8.11
20
-3.47
40
0.03
50
180
51
270
0
ARC
8
BLACK
10
8.11
20
-2.655
40
0.03
50
90
51
180
0
LINE
8
BLACK
6
CONTINUOUS
10
8.6025
20
-2.625
11
8.11
21
-2.625
0
LINE
8
BLACK
6
CONTINUOUS
10
8.31
20
-3.1348
11
8.20768
21
-3.1348
0
LINE
8
BLACK
6
CONTINUOUS
10
8.08
20
-3.22
11
8.08
21
-2.655
0
LINE
8
BLACK
6
CONTINUOUS
10
8.08
20
-3.47
11
8.08
21
-3.22
0
LINE
8
BLACK
6
CONTINUOUS
10
8.18268
20
-3.5
11
8.11
21
-3.5
0
LINE
8
BLACK
6
CONTINUOUS
10
8.6025
20
-3.525
11
8.4375
21
-3.525
0
LINE
8
BLACK
6
CONTINUOUS
10
8.3775
20
-3.375
11
8.2125
21
-3.375
0
LINE
8
BLACK
6
CONTINUOUS
10
8.4075
20
-3.495
11
8.4075
21
-3.405
0
LINE
8
BLACK
6
CONTINUOUS
10
8.31
20
-3.1848
11
8.31
21
-3.1348
0
LINE
8
BLACK
6
CONTINUOUS
10
8.42268
20
-3.1848
11
8.31
21
-3.185
0
LINE
8
BLACK
6
CONTINUOUS
10
8.42268
20
-3.0498
11
8.42268
21
-3.1848
0
LINE
8
BLACK
6
CONTINUOUS
10
8.20768
20
-3.0498
11
8.42268
21
-3.0498
0
LINE
8
BLACK
6
CONTINUOUS
10
8.20768
20
-3.1348
11
8.20768
21
-3.0498
0
LINE
8
BLACK
6
CONTINUOUS
10
8.6325
20
-2.655
11
8.6325
21
-3.495
0
LINE
8
BLACK
6
CONTINUOUS
10
8.18268
20
-3.5
11
8.1825
21
-3.405
0
LINE
8
BLACK
6
CONTINUOUS
10
8.1908
20
-3.71032
11
8.1908
21
-3.59221
0
LINE
8
BLACK
6
CONTINUOUS
10
8.1908
20
-3.59221
11
8.21892
21
-3.59221
0
LINE
8
BLACK
6
CONTINUOUS
10
8.21892
20
-3.59221
11
8.23579
21
-3.59783
0
LINE
8
BLACK
6
CONTINUOUS
10
8.23579
20
-3.59783
11
8.24704
21
-3.60908
0
LINE
8
BLACK
6
CONTINUOUS
10
8.24704
20
-3.60908
11
8.25267
21
-3.62033
0
LINE
8
BLACK
6
CONTINUOUS
10
8.25267
20
-3.62033
11
8.25829
21
-3.64283
0
LINE
8
BLACK
6
CONTINUOUS
10
8.25829
20
-3.64283
11
8.25829
21
-3.6597
0
LINE
8
BLACK
6
CONTINUOUS
10
8.25829
20
-3.6597
11
8.25267
21
-3.6822
0
LINE
8
BLACK
6
CONTINUOUS
10
8.25267
20
-3.6822
11
8.24704
21
-3.69345
0
LINE
8
BLACK
6
CONTINUOUS
10
8.24704
20
-3.69345
11
8.23579
21
-3.7047
0
LINE
8
BLACK
6
CONTINUOUS
10
8.23579
20
-3.7047
11
8.21892
21
-3.71032
0
LINE
8
BLACK
6
CONTINUOUS
10
8.21892
20
-3.71032
11
8.1908
21
-3.71032
0
LINE
8
BLACK
6
CONTINUOUS
10
8.30891
20
-3.71032
11
8.30891
21
-3.63158
0
LINE
8
BLACK
6
CONTINUOUS
10
8.30891
20
-3.65408
11
8.31453
21
-3.64283
0
LINE
8
BLACK
6
CONTINUOUS
10
8.31453
20
-3.64283
11
8.32016
21
-3.6372
0
LINE
8
BLACK
6
CONTINUOUS
10
8.32016
20
-3.6372
11
8.33141
21
-3.63158
0
LINE
8
BLACK
6
CONTINUOUS
10
8.33141
20
-3.63158
11
8.34265
21
-3.63158
0
LINE
8
BLACK
6
CONTINUOUS
10
8.38202
20
-3.71032
11
8.38202
21
-3.63158
0
LINE
8
BLACK
6
CONTINUOUS
10
8.38202
20
-3.59221
11
8.3764
21
-3.59783
0
LINE
8
BLACK
6
CONTINUOUS
10
8.3764
20
-3.59783
11
8.38202
21
-3.60346
0
LINE
8
BLACK
6
CONTINUOUS
10
8.38202
20
-3.60346
11
8.38765
21
-3.59783
0
LINE
8
BLACK
6
CONTINUOUS
10
8.38765
20
-3.59783
11
8.38202
21
-3.59221
0
LINE
8
BLACK
6
CONTINUOUS
10
8.38202
20
-3.59221
11
8.38202
21
-3.60346
0
LINE
8
BLACK
6
CONTINUOUS
10
8.45514
20
-3.71032
11
8.44389
21
-3.7047
0
LINE
8
BLACK
6
CONTINUOUS
10
8.44389
20
-3.7047
11
8.43827
21
-3.69345
0
LINE
8
BLACK
6
CONTINUOUS
10
8.43827
20
-3.69345
11
8.43827
21
-3.59221
0
LINE
8
BLACK
6
CONTINUOUS
10
8.51701
20
-3.71032
11
8.50576
21
-3.7047
0
LINE
8
BLACK
6
CONTINUOUS
10
8.50576
20
-3.7047
11
8.50013
21
-3.69345
0
LINE
8
BLACK
6
CONTINUOUS
10
8.50013
20
-3.69345
11
8.50013
21
-3.59221
0
LINE
8
BLACK
6
CONTINUOUS
10
8.65199
20
-3.71032
11
8.65199
21
-3.59221
0
LINE
8
BLACK
6
CONTINUOUS
10
8.65199
20
-3.59221
11
8.69136
21
-3.67657
0
LINE
8
BLACK
6
CONTINUOUS
10
8.69136
20
-3.67657
11
8.73073
21
-3.59221
0
LINE
8
BLACK
6
CONTINUOUS
10
8.73073
20
-3.59221
11
8.73073
21
-3.71032
0
LINE
8
BLACK
6
CONTINUOUS
10
8.83759
20
-3.71032
11
8.83759
21
-3.64845
0
LINE
8
BLACK
6
CONTINUOUS
10
8.83759
20
-3.64845
11
8.83197
21
-3.6372
0
LINE
8
BLACK
6
CONTINUOUS
10
8.83197
20
-3.6372
11
8.82072
21
-3.63158
0
LINE
8
BLACK
6
CONTINUOUS
10
8.82072
20
-3.63158
11
8.79822
21
-3.63158
0
LINE
8
BLACK
6
CONTINUOUS
10
8.79822
20
-3.63158
11
8.78697
21
-3.6372
0
LINE
8
BLACK
6
CONTINUOUS
10
8.83759
20
-3.7047
11
8.82634
21
-3.71032
0
LINE
8
BLACK
6
CONTINUOUS
10
8.82634
20
-3.71032
11
8.79822
21
-3.71032
0
LINE
8
BLACK
6
CONTINUOUS
10
8.79822
20
-3.71032
11
8.78697
21
-3.7047
0
LINE
8
BLACK
6
CONTINUOUS
10
8.78697
20
-3.7047
11
8.78135
21
-3.69345
0
LINE
8
BLACK
6
CONTINUOUS
10
8.78135
20
-3.69345
11
8.78135
21
-3.6822
0
LINE
8
BLACK
6
CONTINUOUS
10
8.78135
20
-3.6822
11
8.78697
21
-3.67095
0
LINE
8
BLACK
6
CONTINUOUS
10
8.78697
20
-3.67095
11
8.79822
21
-3.66533
0
LINE
8
BLACK
6
CONTINUOUS
10
8.79822
20
-3.66533
11
8.82634
21
-3.66533
0
LINE
8
BLACK
6
CONTINUOUS
10
8.82634
20
-3.66533
11
8.83759
21
-3.6597
0
LINE
8
BLACK
6
CONTINUOUS
10
8.89384
20
-3.63158
11
8.89384
21
-3.74969
0
LINE
8
BLACK
6
CONTINUOUS
10
8.89384
20
-3.6372
11
8.90508
21
-3.63158
0
LINE
8
BLACK
6
CONTINUOUS
10
8.90508
20
-3.63158
11
8.92758
21
-3.63158
0
LINE
8
BLACK
6
CONTINUOUS
10
8.92758
20
-3.63158
11
8.93883
21
-3.6372
0
LINE
8
BLACK
6
CONTINUOUS
10
8.93883
20
-3.6372
11
8.94445
21
-3.64283
0
LINE
8
BLACK
6
CONTINUOUS
10
8.94445
20
-3.64283
11
8.95008
21
-3.65408
0
LINE
8
BLACK
6
CONTINUOUS
10
8.95008
20
-3.65408
11
8.95008
21
-3.68782
0
LINE
8
BLACK
6
CONTINUOUS
10
8.95008
20
-3.68782
11
8.94445
21
-3.69907
0
LINE
8
BLACK
6
CONTINUOUS
10
8.94445
20
-3.69907
11
8.93883
21
-3.7047
0
LINE
8
BLACK
6
CONTINUOUS
10
8.93883
20
-3.7047
11
8.92758
21
-3.71032
0
LINE
8
BLACK
6
CONTINUOUS
10
8.92758
20
-3.71032
11
8.90508
21
-3.71032
0
LINE
8
BLACK
6
CONTINUOUS
10
8.90508
20
-3.71032
11
8.89384
21
-3.7047
0
LINE
8
BLACK
6
CONTINUOUS
10
9.0007
20
-3.69907
11
9.00632
21
-3.7047
0
LINE
8
BLACK
6
CONTINUOUS
10
9.00632
20
-3.7047
11
9.0007
21
-3.71032
0
LINE
8
BLACK
6
CONTINUOUS
10
9.0007
20
-3.71032
11
8.99507
21
-3.7047
0
LINE
8
BLACK
6
CONTINUOUS
10
8.99507
20
-3.7047
11
9.0007
21
-3.69907
0
LINE
8
BLACK
6
CONTINUOUS
10
9.0007
20
-3.69907
11
9.0007
21
-3.71032
0
LINE
8
BLACK
6
CONTINUOUS
10
9.0007
20
-3.6372
11
9.00632
21
-3.64283
0
LINE
8
BLACK
6
CONTINUOUS
10
9.00632
20
-3.64283
11
9.0007
21
-3.64845
0
LINE
8
BLACK
6
CONTINUOUS
10
9.0007
20
-3.64845
11
8.99507
21
-3.64283
0
LINE
8
BLACK
6
CONTINUOUS
10
8.99507
20
-3.64283
11
9.0007
21
-3.6372
0
LINE
8
BLACK
6
CONTINUOUS
10
9.0007
20
-3.6372
11
9.0007
21
-3.64845
  0
ENDSEC
  0
EOF
